<?xml version="1.0" encoding="utf-8" standalone="no"?>
<!DOCTYPE svg PUBLIC "-//W3C//DTD SVG 1.1//EN"
  "http://www.w3.org/Graphics/SVG/1.1/DTD/svg11.dtd">
<svg height="360pt" version="1.1" viewBox="0 0 360 360" width="360pt" xmlns="http://www.w3.org/2000/svg" xmlns:xlink="http://www.w3.org/1999/xlink">
 <metadata>
  <rdf:RDF xmlns:cc="http://creativecommons.org/ns#" xmlns:dc="http://purl.org/dc/elements/1.1/" xmlns:rdf="http://www.w3.org/1999/02/22-rdf-syntax-ns#">
   <cc:Work>
    <dc:type rdf:resource="http://purl.org/dc/dcmitype/StillImage"/>
    <dc:date>2021-08-09T23:03:06.276317</dc:date>
    <dc:format>image/svg+xml</dc:format>
    <dc:creator>
     <cc:Agent>
      <dc:title>Matplotlib v3.4.2, https://matplotlib.org/</dc:title>
     </cc:Agent>
    </dc:creator>
   </cc:Work>
  </rdf:RDF>
 </metadata>
 <defs>
  <style type="text/css">*{stroke-linecap:butt;stroke-linejoin:round;}</style>
 </defs>
 <g id="figure_1">
  <g id="patch_1">
   <path d="M 0 360 
L 360 360 
L 360 0 
L 0 0 
z
" style="fill:none;"/>
  </g>
  <g id="axes_1">
   <g id="patch_2">
    <path d="M 47.907716 308.432508 
L 293.857696 308.432508 
L 293.857696 64.999614 
L 47.907716 64.999614 
z
" style="fill:none;opacity:0;"/>
   </g>
   <g id="matplotlib.axis_1">
    <g id="xtick_1">
     <g id="line2d_1">
      <path clip-path="url(#pef8d5e4751)" d="M 47.907716 308.432508 
L 47.907716 64.999614 
" style="fill:none;stroke:#ffffff;stroke-linecap:round;"/>
     </g>
     <g id="text_1">
      <!-- $\mathdefault{0.0}$ -->
      <g style="fill:#262626;" transform="translate(40.906178 325.542855)scale(0.11 -0.11)">
       <defs>
        <path d="M 2688 2025 
C 2688 2416 2682 3080 2413 3591 
C 2176 4039 1798 4198 1466 4198 
C 1158 4198 768 4058 525 3597 
C 269 3118 243 2524 243 2025 
C 243 1661 250 1106 448 619 
C 723 -39 1216 -128 1466 -128 
C 1760 -128 2208 -7 2470 600 
C 2662 1042 2688 1559 2688 2025 
z
M 1466 -26 
C 1056 -26 813 325 723 812 
C 653 1188 653 1738 653 2096 
C 653 2588 653 2997 736 3387 
C 858 3929 1216 4096 1466 4096 
C 1728 4096 2067 3923 2189 3400 
C 2272 3036 2278 2607 2278 2096 
C 2278 1680 2278 1169 2202 792 
C 2067 95 1690 -26 1466 -26 
z
" id="CMR17-30" transform="scale(0.015625)"/>
        <path d="M 1178 307 
C 1178 492 1024 619 870 619 
C 685 619 557 466 557 313 
C 557 128 710 0 864 0 
C 1050 0 1178 153 1178 307 
z
" id="CMMI12-3a" transform="scale(0.015625)"/>
       </defs>
       <use transform="scale(0.996264)" xlink:href="#CMR17-30"/>
       <use transform="translate(45.690477 0)scale(0.996264)" xlink:href="#CMMI12-3a"/>
       <use transform="translate(72.787654 0)scale(0.996264)" xlink:href="#CMR17-30"/>
      </g>
     </g>
    </g>
    <g id="xtick_2">
     <g id="line2d_2">
      <path clip-path="url(#pef8d5e4751)" d="M 88.899379 308.432508 
L 88.899379 64.999614 
" style="fill:none;stroke:#ffffff;stroke-linecap:round;"/>
     </g>
     <g id="text_2">
      <!-- $\mathdefault{0.1}$ -->
      <g style="fill:#262626;" transform="translate(81.897841 325.542855)scale(0.11 -0.11)">
       <defs>
        <path d="M 1702 4058 
C 1702 4192 1696 4192 1606 4192 
C 1357 3916 979 3827 621 3827 
C 602 3827 570 3827 563 3808 
C 557 3795 557 3782 557 3648 
C 755 3648 1088 3686 1344 3839 
L 1344 461 
C 1344 236 1331 160 781 160 
L 589 160 
L 589 0 
C 896 0 1216 0 1523 0 
C 1830 0 2150 0 2458 0 
L 2458 160 
L 2266 160 
C 1715 160 1702 230 1702 458 
L 1702 4058 
z
" id="CMR17-31" transform="scale(0.015625)"/>
       </defs>
       <use transform="scale(0.996264)" xlink:href="#CMR17-30"/>
       <use transform="translate(45.690477 0)scale(0.996264)" xlink:href="#CMMI12-3a"/>
       <use transform="translate(72.787654 0)scale(0.996264)" xlink:href="#CMR17-31"/>
      </g>
     </g>
    </g>
    <g id="xtick_3">
     <g id="line2d_3">
      <path clip-path="url(#pef8d5e4751)" d="M 129.891043 308.432508 
L 129.891043 64.999614 
" style="fill:none;stroke:#ffffff;stroke-linecap:round;"/>
     </g>
     <g id="text_3">
      <!-- $\mathdefault{0.2}$ -->
      <g style="fill:#262626;" transform="translate(122.889505 325.542855)scale(0.11 -0.11)">
       <defs>
        <path d="M 2669 989 
L 2554 989 
C 2490 536 2438 459 2413 420 
C 2381 369 1920 369 1830 369 
L 602 369 
C 832 619 1280 1072 1824 1597 
C 2214 1967 2669 2402 2669 3035 
C 2669 3790 2067 4224 1395 4224 
C 691 4224 262 3604 262 3030 
C 262 2780 448 2748 525 2748 
C 589 2748 781 2787 781 3010 
C 781 3207 614 3264 525 3264 
C 486 3264 448 3258 422 3245 
C 544 3790 915 4058 1306 4058 
C 1862 4058 2227 3617 2227 3035 
C 2227 2479 1901 2000 1536 1584 
L 262 146 
L 262 0 
L 2515 0 
L 2669 989 
z
" id="CMR17-32" transform="scale(0.015625)"/>
       </defs>
       <use transform="scale(0.996264)" xlink:href="#CMR17-30"/>
       <use transform="translate(45.690477 0)scale(0.996264)" xlink:href="#CMMI12-3a"/>
       <use transform="translate(72.787654 0)scale(0.996264)" xlink:href="#CMR17-32"/>
      </g>
     </g>
    </g>
    <g id="xtick_4">
     <g id="line2d_4">
      <path clip-path="url(#pef8d5e4751)" d="M 170.882706 308.432508 
L 170.882706 64.999614 
" style="fill:none;stroke:#ffffff;stroke-linecap:round;"/>
     </g>
     <g id="text_4">
      <!-- $\mathdefault{0.3}$ -->
      <g style="fill:#262626;" transform="translate(163.881168 325.542855)scale(0.11 -0.11)">
       <defs>
        <path d="M 1414 2157 
C 1984 2157 2234 1662 2234 1090 
C 2234 320 1824 25 1453 25 
C 1114 25 563 194 390 693 
C 422 680 454 680 486 680 
C 640 680 755 782 755 948 
C 755 1133 614 1216 486 1216 
C 378 1216 211 1165 211 926 
C 211 335 787 -128 1466 -128 
C 2176 -128 2720 430 2720 1085 
C 2720 1707 2208 2157 1600 2227 
C 2086 2328 2554 2756 2554 3329 
C 2554 3820 2048 4179 1472 4179 
C 890 4179 378 3829 378 3329 
C 378 3110 544 3072 627 3072 
C 762 3072 877 3155 877 3321 
C 877 3486 762 3569 627 3569 
C 602 3569 570 3569 544 3557 
C 730 3959 1235 4032 1459 4032 
C 1683 4032 2106 3925 2106 3320 
C 2106 3143 2080 2828 1862 2550 
C 1670 2304 1453 2304 1242 2284 
C 1210 2284 1062 2269 1037 2269 
C 992 2263 966 2257 966 2208 
C 966 2163 973 2157 1101 2157 
L 1414 2157 
z
" id="CMR17-33" transform="scale(0.015625)"/>
       </defs>
       <use transform="scale(0.996264)" xlink:href="#CMR17-30"/>
       <use transform="translate(45.690477 0)scale(0.996264)" xlink:href="#CMMI12-3a"/>
       <use transform="translate(72.787654 0)scale(0.996264)" xlink:href="#CMR17-33"/>
      </g>
     </g>
    </g>
    <g id="xtick_5">
     <g id="line2d_5">
      <path clip-path="url(#pef8d5e4751)" d="M 211.874369 308.432508 
L 211.874369 64.999614 
" style="fill:none;stroke:#ffffff;stroke-linecap:round;"/>
     </g>
     <g id="text_5">
      <!-- $\mathdefault{0.4}$ -->
      <g style="fill:#262626;" transform="translate(204.872831 325.542855)scale(0.11 -0.11)">
       <defs>
        <path d="M 2150 4122 
C 2150 4256 2144 4256 2029 4256 
L 128 1254 
L 128 1088 
L 1779 1088 
L 1779 457 
C 1779 224 1766 160 1318 160 
L 1197 160 
L 1197 0 
C 1402 0 1747 0 1965 0 
C 2182 0 2528 0 2733 0 
L 2733 160 
L 2611 160 
C 2163 160 2150 224 2150 457 
L 2150 1088 
L 2803 1088 
L 2803 1254 
L 2150 1254 
L 2150 4122 
z
M 1798 3703 
L 1798 1254 
L 256 1254 
L 1798 3703 
z
" id="CMR17-34" transform="scale(0.015625)"/>
       </defs>
       <use transform="scale(0.996264)" xlink:href="#CMR17-30"/>
       <use transform="translate(45.690477 0)scale(0.996264)" xlink:href="#CMMI12-3a"/>
       <use transform="translate(72.787654 0)scale(0.996264)" xlink:href="#CMR17-34"/>
      </g>
     </g>
    </g>
    <g id="xtick_6">
     <g id="line2d_6">
      <path clip-path="url(#pef8d5e4751)" d="M 252.866033 308.432508 
L 252.866033 64.999614 
" style="fill:none;stroke:#ffffff;stroke-linecap:round;"/>
     </g>
     <g id="text_6">
      <!-- $\mathdefault{0.5}$ -->
      <g style="fill:#262626;" transform="translate(245.864495 325.542855)scale(0.11 -0.11)">
       <defs>
        <path d="M 730 3692 
C 794 3666 1056 3584 1325 3584 
C 1920 3584 2246 3911 2432 4100 
C 2432 4157 2432 4192 2394 4192 
C 2387 4192 2374 4192 2323 4163 
C 2099 4058 1837 3973 1517 3973 
C 1325 3973 1037 3999 723 4139 
C 653 4171 640 4171 634 4171 
C 602 4171 595 4164 595 4037 
L 595 2203 
C 595 2089 595 2057 659 2057 
C 691 2057 704 2070 736 2114 
C 941 2401 1222 2522 1542 2522 
C 1766 2522 2246 2382 2246 1289 
C 2246 1085 2246 715 2054 421 
C 1894 159 1645 25 1370 25 
C 947 25 518 320 403 814 
C 429 807 480 795 506 795 
C 589 795 749 840 749 1038 
C 749 1210 627 1280 506 1280 
C 358 1280 262 1190 262 1011 
C 262 454 704 -128 1382 -128 
C 2042 -128 2669 440 2669 1264 
C 2669 2030 2170 2624 1549 2624 
C 1222 2624 947 2503 730 2274 
L 730 3692 
z
" id="CMR17-35" transform="scale(0.015625)"/>
       </defs>
       <use transform="scale(0.996264)" xlink:href="#CMR17-30"/>
       <use transform="translate(45.690477 0)scale(0.996264)" xlink:href="#CMMI12-3a"/>
       <use transform="translate(72.787654 0)scale(0.996264)" xlink:href="#CMR17-35"/>
      </g>
     </g>
    </g>
    <g id="xtick_7">
     <g id="line2d_7">
      <path clip-path="url(#pef8d5e4751)" d="M 293.857696 308.432508 
L 293.857696 64.999614 
" style="fill:none;stroke:#ffffff;stroke-linecap:round;"/>
     </g>
     <g id="text_7">
      <!-- $\mathdefault{0.6}$ -->
      <g style="fill:#262626;" transform="translate(286.856158 325.542855)scale(0.11 -0.11)">
       <defs>
        <path d="M 678 2176 
C 678 3690 1395 4032 1811 4032 
C 1946 4032 2272 4009 2400 3776 
C 2298 3776 2106 3776 2106 3553 
C 2106 3381 2246 3323 2336 3323 
C 2394 3323 2566 3348 2566 3560 
C 2566 3954 2246 4179 1805 4179 
C 1043 4179 243 3390 243 1984 
C 243 253 966 -128 1478 -128 
C 2099 -128 2688 427 2688 1283 
C 2688 2081 2170 2662 1517 2662 
C 1126 2662 838 2407 678 1960 
L 678 2176 
z
M 1478 25 
C 691 25 691 1200 691 1436 
C 691 1896 909 2560 1504 2560 
C 1613 2560 1926 2560 2138 2120 
C 2253 1870 2253 1609 2253 1289 
C 2253 944 2253 690 2118 434 
C 1978 171 1773 25 1478 25 
z
" id="CMR17-36" transform="scale(0.015625)"/>
       </defs>
       <use transform="scale(0.996264)" xlink:href="#CMR17-30"/>
       <use transform="translate(45.690477 0)scale(0.996264)" xlink:href="#CMMI12-3a"/>
       <use transform="translate(72.787654 0)scale(0.996264)" xlink:href="#CMR17-36"/>
      </g>
     </g>
    </g>
    <g id="text_8">
     <!-- $\overset{\sim}{X}_1$ -->
     <g style="fill:#262626;" transform="translate(163.438066 344.715404)scale(0.12 -0.12)">
      <defs>
       <path d="M 4622 2138 
C 4622 2278 4584 2342 4533 2342 
C 4501 2342 4449 2298 4443 2176 
C 4417 1562 3995 1210 3547 1210 
C 3143 1210 2836 1485 2522 1760 
C 2196 2054 1863 2349 1428 2349 
C 730 2349 352 1645 352 1062 
C 352 858 435 858 442 858 
C 512 858 531 986 531 1005 
C 557 1709 1037 1990 1428 1990 
C 1831 1990 2138 1715 2452 1440 
C 2778 1146 3111 851 3547 851 
C 4245 851 4622 1555 4622 2138 
z
" id="CMSY10-18" transform="scale(0.015625)"/>
       <path d="M 3040 2596 
L 2438 3994 
C 2522 4147 2714 4172 2790 4179 
C 2829 4179 2899 4179 2899 4292 
C 2899 4364 2842 4364 2803 4364 
C 2694 4364 2566 4364 2458 4364 
L 2086 4364 
C 1696 4364 1414 4364 1408 4364 
C 1357 4364 1293 4364 1293 4243 
C 1293 4179 1350 4179 1434 4179 
C 1805 4179 1830 4115 1894 3962 
L 2656 2185 
L 1267 693 
C 1037 442 762 198 288 198 
C 211 192 160 192 160 68 
C 160 48 166 0 237 0 
C 326 0 422 0 512 0 
L 813 0 
C 1018 0 1242 0 1440 0 
C 1485 0 1562 0 1562 115 
C 1562 179 1517 185 1478 185 
C 1350 198 1267 268 1267 370 
C 1267 479 1344 557 1530 748 
L 2099 1368 
C 2240 1516 2579 1886 2720 2026 
L 3392 453 
C 3398 441 3424 377 3424 370 
C 3424 313 3283 198 3078 198 
C 3040 198 2970 198 2970 71 
C 2970 0 3034 0 3066 0 
C 3174 0 3302 0 3411 0 
L 4115 0 
C 4230 0 4352 0 4461 0 
C 4506 0 4576 0 4576 130 
C 4576 198 4512 198 4454 198 
C 4070 198 4058 230 3949 465 
L 3104 2441 
L 3917 3316 
C 3981 3381 4128 3542 4186 3606 
C 4461 3896 4717 4160 5235 4160 
C 5299 4179 5363 4179 5363 4292 
C 5363 4364 5306 4364 5280 4364 
C 5190 4364 5094 4364 5005 4364 
L 4710 4364 
C 4506 4364 4282 4364 4083 4364 
C 4038 4364 3962 4364 3962 4249 
C 3962 4185 4006 4179 4045 4179 
C 4147 4167 4256 4116 4256 3994 
L 4250 3982 
C 4243 3937 4230 3873 4160 3797 
L 3040 2596 
z
" id="CMMI12-58" transform="scale(0.015625)"/>
      </defs>
      <use transform="translate(17.275792 73.035428)scale(0.697382)" xlink:href="#CMSY10-18"/>
      <use transform="scale(0.996264)" xlink:href="#CMMI12-58"/>
      <use transform="translate(88.792562 -14.943915)scale(0.697382)" xlink:href="#CMR17-31"/>
     </g>
    </g>
   </g>
   <g id="matplotlib.axis_2">
    <g id="ytick_1">
     <g id="line2d_8">
      <path clip-path="url(#pef8d5e4751)" d="M 47.907716 308.432508 
L 293.857696 308.432508 
" style="fill:none;stroke:#ffffff;stroke-linecap:round;"/>
     </g>
     <g id="text_9">
      <!-- $\mathdefault{−6}$ -->
      <g style="fill:#262626;" transform="translate(24.40464 312.237682)scale(0.11 -0.11)">
       <defs>
        <path d="M 4218 1472 
C 4326 1472 4442 1472 4442 1600 
C 4442 1728 4326 1728 4218 1728 
L 755 1728 
C 646 1728 531 1728 531 1600 
C 531 1472 646 1472 755 1472 
L 4218 1472 
z
" id="CMSY10-0" transform="scale(0.015625)"/>
       </defs>
       <use transform="scale(0.996264)" xlink:href="#CMSY10-0"/>
       <use transform="translate(77.487468 0)scale(0.996264)" xlink:href="#CMR17-36"/>
      </g>
     </g>
    </g>
    <g id="ytick_2">
     <g id="line2d_9">
      <path clip-path="url(#pef8d5e4751)" d="M 47.907716 278.003396 
L 293.857696 278.003396 
" style="fill:none;stroke:#ffffff;stroke-linecap:round;"/>
     </g>
     <g id="text_10">
      <!-- $\mathdefault{−5}$ -->
      <g style="fill:#262626;" transform="translate(24.40464 281.80857)scale(0.11 -0.11)">
       <use transform="scale(0.996264)" xlink:href="#CMSY10-0"/>
       <use transform="translate(77.487468 0)scale(0.996264)" xlink:href="#CMR17-35"/>
      </g>
     </g>
    </g>
    <g id="ytick_3">
     <g id="line2d_10">
      <path clip-path="url(#pef8d5e4751)" d="M 47.907716 247.574285 
L 293.857696 247.574285 
" style="fill:none;stroke:#ffffff;stroke-linecap:round;"/>
     </g>
     <g id="text_11">
      <!-- $\mathdefault{−4}$ -->
      <g style="fill:#262626;" transform="translate(24.40464 251.379458)scale(0.11 -0.11)">
       <use transform="scale(0.996264)" xlink:href="#CMSY10-0"/>
       <use transform="translate(77.487468 0)scale(0.996264)" xlink:href="#CMR17-34"/>
      </g>
     </g>
    </g>
    <g id="ytick_4">
     <g id="line2d_11">
      <path clip-path="url(#pef8d5e4751)" d="M 47.907716 217.145173 
L 293.857696 217.145173 
" style="fill:none;stroke:#ffffff;stroke-linecap:round;"/>
     </g>
     <g id="text_12">
      <!-- $\mathdefault{−3}$ -->
      <g style="fill:#262626;" transform="translate(24.40464 220.950346)scale(0.11 -0.11)">
       <use transform="scale(0.996264)" xlink:href="#CMSY10-0"/>
       <use transform="translate(77.487468 0)scale(0.996264)" xlink:href="#CMR17-33"/>
      </g>
     </g>
    </g>
    <g id="ytick_5">
     <g id="line2d_12">
      <path clip-path="url(#pef8d5e4751)" d="M 47.907716 186.716061 
L 293.857696 186.716061 
" style="fill:none;stroke:#ffffff;stroke-linecap:round;"/>
     </g>
     <g id="text_13">
      <!-- $\mathdefault{−2}$ -->
      <g style="fill:#262626;" transform="translate(24.40464 190.521234)scale(0.11 -0.11)">
       <use transform="scale(0.996264)" xlink:href="#CMSY10-0"/>
       <use transform="translate(77.487468 0)scale(0.996264)" xlink:href="#CMR17-32"/>
      </g>
     </g>
    </g>
    <g id="ytick_6">
     <g id="line2d_13">
      <path clip-path="url(#pef8d5e4751)" d="M 47.907716 156.286949 
L 293.857696 156.286949 
" style="fill:none;stroke:#ffffff;stroke-linecap:round;"/>
     </g>
     <g id="text_14">
      <!-- $\mathdefault{−1}$ -->
      <g style="fill:#262626;" transform="translate(24.40464 160.092122)scale(0.11 -0.11)">
       <use transform="scale(0.996264)" xlink:href="#CMSY10-0"/>
       <use transform="translate(77.487468 0)scale(0.996264)" xlink:href="#CMR17-31"/>
      </g>
     </g>
    </g>
    <g id="ytick_7">
     <g id="line2d_14">
      <path clip-path="url(#pef8d5e4751)" d="M 47.907716 125.857837 
L 293.857696 125.857837 
" style="fill:none;stroke:#ffffff;stroke-linecap:round;"/>
     </g>
     <g id="text_15">
      <!-- $\mathdefault{0}$ -->
      <g style="fill:#262626;" transform="translate(32.928249 129.663011)scale(0.11 -0.11)">
       <use transform="scale(0.996264)" xlink:href="#CMR17-30"/>
      </g>
     </g>
    </g>
    <g id="ytick_8">
     <g id="line2d_15">
      <path clip-path="url(#pef8d5e4751)" d="M 47.907716 95.428725 
L 293.857696 95.428725 
" style="fill:none;stroke:#ffffff;stroke-linecap:round;"/>
     </g>
     <g id="text_16">
      <!-- $\mathdefault{1}$ -->
      <g style="fill:#262626;" transform="translate(32.928249 99.233899)scale(0.11 -0.11)">
       <use transform="scale(0.996264)" xlink:href="#CMR17-31"/>
      </g>
     </g>
    </g>
    <g id="ytick_9">
     <g id="line2d_16">
      <path clip-path="url(#pef8d5e4751)" d="M 47.907716 64.999614 
L 293.857696 64.999614 
" style="fill:none;stroke:#ffffff;stroke-linecap:round;"/>
     </g>
     <g id="text_17">
      <!-- $\mathdefault{2}$ -->
      <g style="fill:#262626;" transform="translate(32.928249 68.804787)scale(0.11 -0.11)">
       <use transform="scale(0.996264)" xlink:href="#CMR17-32"/>
      </g>
     </g>
    </g>
    <g id="text_18">
     <!-- $\overset{\sim}{X}_2$ -->
     <g style="fill:#262626;" transform="translate(12.96 184.391465)scale(0.12 -0.12)">
      <use transform="translate(17.275792 73.035428)scale(0.697382)" xlink:href="#CMSY10-18"/>
      <use transform="scale(0.996264)" xlink:href="#CMMI12-58"/>
      <use transform="translate(88.792562 -14.943915)scale(0.697382)" xlink:href="#CMR17-32"/>
     </g>
    </g>
   </g>
   <g id="PolyCollection_1">
    <defs>
     <path d="M 137.736029 -140.216858 
L 137.736029 -328.067467 
L 47.907716 -421.992771 
L -41.920597 -328.067467 
L -41.920597 -140.216858 
L 47.907716 -46.291554 
z
" id="C0_0_029df9d4a1"/>
    </defs>
    <g clip-path="url(#pef8d5e4751)">
     <use style="fill:none;" x="0.330865" xlink:href="#C0_0_029df9d4a1" y="836.372944"/>
    </g>
    <g clip-path="url(#pef8d5e4751)">
     <use style="fill:none;" x="0.330865" xlink:href="#C0_0_029df9d4a1" y="272.821118"/>
    </g>
    <g clip-path="url(#pef8d5e4751)">
     <use style="fill:none;" x="179.98749" xlink:href="#C0_0_029df9d4a1" y="836.372944"/>
    </g>
    <g clip-path="url(#pef8d5e4751)">
     <use style="fill:none;" x="179.98749" xlink:href="#C0_0_029df9d4a1" y="272.821118"/>
    </g>
    <g clip-path="url(#pef8d5e4751)">
     <use style="fill:none;" x="359.644116" xlink:href="#C0_0_029df9d4a1" y="836.372944"/>
    </g>
    <g clip-path="url(#pef8d5e4751)">
     <use style="fill:none;" x="359.644116" xlink:href="#C0_0_029df9d4a1" y="272.821118"/>
    </g>
    <g clip-path="url(#pef8d5e4751)">
     <use style="fill:none;" x="90.159178" xlink:href="#C0_0_029df9d4a1" y="554.597031"/>
    </g>
    <g clip-path="url(#pef8d5e4751)">
     <use style="fill:none;" x="269.815803" xlink:href="#C0_0_029df9d4a1" y="554.597031"/>
    </g>
   </g>
   <g id="LineCollection_1">
    <path clip-path="url(#pef8d5e4751)" d="M 57.806165 307.654662 
L 58.087395 307.350322 
L 59.706601 306.285182 
L 60.351456 304.4382 
L 61.62211 301.526079 
L 64.162248 292.789715 
L 69.208782 277.07585 
L 73.04141 266.580622 
L 78.710963 253.340217 
L 82.511836 245.829011 
L 84.412272 242.56567 
L 87.590193 237.459407 
L 89.365728 234.547286 
L 92.014017 230.828942 
L 95.944885 225.810921 
L 100.837124 219.986679 
L 105.31707 215.214389 
L 109.582644 211.250314 
L 116.719688 204.984499 
L 128.122305 196.223986 
L 137.624486 190.123296 
L 145.226231 185.655933 
L 147.126667 184.593363 
L 152.827976 181.57351 
L 160.429721 178.233031 
L 166.131029 175.445353 
L 183.826112 167.568493 
L 194.637572 163.208137 
L 200.338881 160.545225 
L 206.04019 158.333291 
L 211.741498 155.760934 
L 219.343243 152.578403 
L 230.74586 146.976242 
L 234.546733 145.073055 
L 236.447169 144.008558 
L 238.347605 143.040441 
L 244.048914 139.650949 
L 245.94935 138.397413 
L 247.849786 137.267421 
L 257.351968 130.459624 
L 262.01696 126.798793 
L 265.034769 123.886671 
L 267.530656 120.97455 
L 269.28046 118.062428 
L 271.693214 112.238185 
L 271.951654 109.326064 
L 270.40205 103.501821 
L 268.736506 100.5897 
L 266.530325 97.677578 
L 263.671142 94.765457 
L 261.15284 92.965719 
L 259.252404 91.649585 
L 257.351968 90.632069 
L 249.750223 87.237321 
L 246.894212 86.029092 
L 242.148478 84.22267 
L 240.248042 83.5101 
L 234.546733 81.962832 
L 225.044552 79.670676 
L 215.542371 77.994128 
L 207.940626 76.902987 
L 204.139753 76.291994 
L 200.338881 75.844679 
L 196.538009 75.534324 
L 190.8367 74.93495 
L 185.135391 74.682736 
L 181.334519 74.545275 
L 177.533646 74.397269 
L 162.330157 74.662679 
L 154.728412 74.956358 
L 149.027103 75.429595 
L 145.226231 75.956025 
L 133.823614 78.250271 
L 131.923177 78.718213 
L 130.022741 79.321725 
L 122.420996 82.243419 
L 116.719688 84.868515 
L 112.918815 87.196195 
L 109.117943 90.149133 
L 105.31707 93.708347 
L 103.416634 95.754803 
L 101.516198 97.974003 
L 99.576289 100.5897 
L 97.650291 103.501821 
L 94.229823 109.326064 
L 92.014017 113.680418 
L 90.020973 118.062428 
L 87.420557 123.886671 
L 84.111518 132.623035 
L 82.057019 138.447278 
L 79.258608 147.183643 
L 74.04252 164.656371 
L 72.726313 170.480614 
L 71.940239 173.392736 
L 68.088432 190.865464 
L 65.817577 202.51395 
L 65.40791 205.426071 
L 64.323086 211.250314 
L 62.120496 225.810921 
L 61.347542 231.635164 
L 60.530958 237.459407 
L 58.401164 257.844257 
L 56.724764 284.05335 
L 56.575783 289.877593 
L 57.178645 304.4382 
L 57.806165 307.654662 
L 57.806165 307.654662 
" style="fill:none;stroke:#440154;stroke-width:1.5;"/>
   </g>
   <g id="LineCollection_2">
    <path clip-path="url(#pef8d5e4751)" d="M 65.40791 264.482239 
L 65.878905 263.6685 
L 67.308346 261.807785 
L 67.755928 260.756379 
L 69.242132 257.844257 
L 74.910091 245.81049 
L 79.156933 237.459407 
L 80.711956 234.547286 
L 84.412272 228.210765 
L 88.213144 222.368285 
L 92.014017 216.877085 
L 95.814889 212.044836 
L 99.615762 207.615278 
L 101.608858 205.426071 
L 111.018379 195.985125 
L 114.819251 192.720876 
L 120.588963 187.953343 
L 128.365955 182.1291 
L 143.325795 172.621797 
L 149.027103 169.198354 
L 152.827976 167.103546 
L 156.628848 165.215385 
L 163.273388 161.74425 
L 173.732774 156.694274 
L 175.63321 155.760775 
L 179.434083 154.018695 
L 187.035828 150.192992 
L 202.239317 142.76526 
L 207.940626 139.608595 
L 215.689271 135.535157 
L 220.414773 132.623035 
L 225.044552 129.22218 
L 228.845424 125.979829 
L 234.035242 120.97455 
L 236.231782 118.062428 
L 237.609761 115.150307 
L 238.349689 112.238185 
L 238.585247 109.326064 
L 237.91539 106.413942 
L 236.397463 103.501821 
L 234.209436 100.5897 
L 232.646297 99.144989 
L 230.74586 97.602642 
L 228.845424 96.199756 
L 226.359908 94.765457 
L 223.144116 93.427151 
L 213.641935 89.916315 
L 207.940626 88.19936 
L 204.139753 87.435623 
L 188.936264 84.995582 
L 185.135391 84.598407 
L 175.63321 84.008961 
L 169.931902 84.045411 
L 164.230593 84.218772 
L 156.628848 84.689368 
L 150.927539 85.41189 
L 145.226231 86.362665 
L 141.425358 87.186032 
L 137.624486 88.314268 
L 130.022741 90.901632 
L 126.221869 92.755148 
L 122.420996 94.980193 
L 120.52056 96.192753 
L 118.441864 97.677578 
L 116.719688 99.041778 
L 114.819251 100.718214 
L 111.018379 104.620857 
L 107.015458 109.326064 
L 103.416634 114.344533 
L 99.133957 120.97455 
L 97.457903 123.886671 
L 93.914453 130.764962 
L 90.279907 138.447278 
L 87.799929 144.271521 
L 82.511836 157.965081 
L 81.206606 161.74425 
L 74.910091 183.136948 
L 72.936007 190.865464 
L 71.574499 196.689707 
L 68.6117 211.250314 
L 67.205921 219.986679 
L 65.40791 232.107744 
L 64.765043 237.459407 
L 64.222862 243.28365 
L 63.478762 254.932136 
L 63.549818 257.844257 
L 63.825176 260.756379 
L 64.665485 263.6685 
L 65.40791 264.482239 
L 65.40791 264.482239 
" style="fill:none;stroke:#472c7a;stroke-width:1.5;"/>
   </g>
   <g id="LineCollection_3">
    <path clip-path="url(#pef8d5e4751)" d="M 69.208782 241.089619 
L 71.109218 241.254106 
L 71.741824 240.371529 
L 73.009655 238.977902 
L 73.889277 237.459407 
L 74.910091 235.970262 
L 75.700786 234.547286 
L 78.710963 229.603407 
L 80.6114 226.491988 
L 84.692813 219.986679 
L 88.632595 214.162436 
L 92.914746 208.338193 
L 97.816236 202.51395 
L 103.416634 196.206478 
L 107.217507 192.434034 
L 109.117943 190.626027 
L 119.107682 182.1291 
L 126.502061 176.304857 
L 131.923177 172.586036 
L 149.027103 161.717978 
L 154.728412 158.587474 
L 158.529284 156.644923 
L 169.967779 150.095764 
L 177.533646 146.331825 
L 185.135391 142.439402 
L 190.8367 139.306655 
L 200.338881 133.705039 
L 202.239317 132.437863 
L 209.960879 126.798793 
L 213.641935 123.599403 
L 216.088473 120.97455 
L 217.987758 118.062428 
L 219.343243 115.119622 
L 220.384203 112.238185 
L 220.432298 109.326064 
L 219.253302 106.413942 
L 217.331198 103.501821 
L 214.448254 100.5897 
L 211.741498 99.015131 
L 207.940626 97.021808 
L 204.139753 95.402071 
L 200.338881 94.244974 
L 194.637572 92.813301 
L 188.936264 91.681712 
L 183.234955 90.86814 
L 177.533646 90.233901 
L 171.832338 90.065271 
L 164.230593 90.038291 
L 160.429721 90.387033 
L 150.927539 91.537279 
L 145.226231 92.651376 
L 141.425358 93.697226 
L 137.624486 95.086393 
L 133.823614 96.69787 
L 128.122305 99.50466 
L 124.321432 101.853987 
L 120.52056 104.660394 
L 115.224542 109.326064 
L 114.819251 109.710649 
L 112.448359 112.238185 
L 109.117943 116.235312 
L 105.31707 121.296002 
L 101.516198 127.266062 
L 97.715325 133.663859 
L 95.136475 138.447278 
L 92.309854 144.271521 
L 88.440333 153.007885 
L 86.077195 158.832128 
L 82.511836 168.592662 
L 80.6114 174.323191 
L 79.093454 179.216978 
L 75.801832 190.865464 
L 73.009655 202.961928 
L 71.938053 208.338193 
L 70.480743 217.074557 
L 68.962963 228.723043 
L 68.715678 231.635164 
L 68.622893 234.547286 
L 68.651829 237.459407 
L 69.006427 240.371529 
L 69.208782 241.089619 
L 69.208782 241.089619 
" style="fill:none;stroke:#3c4f8a;stroke-width:1.5;"/>
   </g>
   <g id="LineCollection_4">
    <path clip-path="url(#pef8d5e4751)" d="M 74.910091 225.843563 
L 74.943152 225.810921 
L 76.810527 224.371507 
L 80.6114 219.518446 
L 88.88628 208.338193 
L 93.44785 202.51395 
L 98.334966 196.689707 
L 103.732471 190.865464 
L 107.217507 187.417135 
L 113.051518 182.1291 
L 118.620124 177.401435 
L 122.420996 174.445408 
L 128.122305 170.038266 
L 131.923177 167.298135 
L 139.524922 162.341875 
L 141.425358 161.071996 
L 150.927539 155.273454 
L 158.529284 150.881288 
L 168.031465 145.425904 
L 184.82358 135.535157 
L 189.331166 132.623035 
L 193.526705 129.710914 
L 197.230865 126.798793 
L 200.378262 123.886671 
L 202.988758 120.97455 
L 204.973444 118.062428 
L 206.156015 115.150307 
L 206.521082 112.238185 
L 206.04019 109.326064 
L 204.813789 106.413942 
L 204.139753 105.643261 
L 201.883594 103.501821 
L 200.338881 102.399812 
L 198.438445 101.202602 
L 196.538009 100.339558 
L 192.737136 98.850946 
L 190.8367 98.25853 
L 179.434083 95.814873 
L 175.63321 95.354709 
L 171.832338 95.209588 
L 162.330157 95.146352 
L 160.429721 95.211975 
L 156.628848 95.634508 
L 150.927539 96.436747 
L 147.126667 97.243554 
L 143.325795 98.193649 
L 141.425358 98.797671 
L 139.524922 99.530861 
L 133.823614 102.259545 
L 128.122305 105.304163 
L 124.321432 107.797134 
L 120.52056 110.86797 
L 116.719688 114.499721 
L 110.729638 120.97455 
L 108.456074 123.886671 
L 103.416634 131.312552 
L 100.771116 135.535157 
L 97.715325 140.818023 
L 95.814889 144.407312 
L 91.622343 153.007885 
L 89.058075 158.832128 
L 85.568878 167.568493 
L 83.482793 173.392736 
L 80.6114 182.428909 
L 78.202159 190.865464 
L 76.768632 196.689707 
L 74.910091 205.64814 
L 74.087643 211.250314 
L 73.144841 219.986679 
L 73.145117 222.8988 
L 74.910091 225.843563 
L 74.910091 225.843563 
" style="fill:none;stroke:#2e6e8e;stroke-width:1.5;"/>
   </g>
   <g id="LineCollection_5">
    <path clip-path="url(#pef8d5e4751)" d="M 78.710963 211.516947 
L 80.6114 211.586818 
L 80.969243 211.250314 
L 82.511836 210.014177 
L 84.412272 208.057927 
L 92.014017 199.200847 
L 99.615762 190.605971 
L 103.416634 186.697508 
L 107.217507 183.092284 
L 114.819251 176.068971 
L 121.818019 170.480614 
L 129.46229 164.656371 
L 133.823614 161.618874 
L 146.702917 153.007885 
L 151.322611 150.095764 
L 158.529284 145.518744 
L 168.031465 139.856952 
L 174.498062 135.535157 
L 179.434083 132.322925 
L 183.234955 129.472545 
L 187.035828 126.186467 
L 189.544951 123.886671 
L 192.011221 120.97455 
L 193.869861 118.062428 
L 195.070923 115.150307 
L 194.82799 112.238185 
L 193.521925 109.326064 
L 192.737136 108.385506 
L 190.744199 106.413942 
L 187.035828 104.41804 
L 185.135391 103.501821 
L 181.334519 102.002194 
L 179.434083 101.433923 
L 175.63321 100.779779 
L 169.931902 100.129524 
L 164.230593 99.932493 
L 160.429721 99.982906 
L 156.628848 100.233042 
L 150.927539 101.001876 
L 147.126667 101.818959 
L 143.325795 102.983667 
L 139.524922 104.416641 
L 135.72405 106.122181 
L 129.915592 109.326064 
L 126.221869 111.715248 
L 124.321432 113.141444 
L 120.52056 116.44293 
L 114.819251 122.135777 
L 112.918815 124.256919 
L 108.616619 129.710914 
L 106.469279 132.623035 
L 103.416634 137.24874 
L 100.919349 141.3594 
L 97.642447 147.183643 
L 93.914453 154.364305 
L 91.835323 158.832128 
L 89.322132 164.656371 
L 87.037083 170.480614 
L 84.038422 179.216978 
L 82.293442 185.041221 
L 80.6114 190.939857 
L 79.353643 196.689707 
L 78.355626 202.51395 
L 78.046608 205.426071 
L 78.024948 208.338193 
L 78.710963 211.516947 
L 78.710963 211.516947 
" style="fill:none;stroke:#238a8d;stroke-width:1.5;"/>
   </g>
   <g id="LineCollection_6">
    <path clip-path="url(#pef8d5e4751)" d="M 84.412272 200.351536 
L 86.36093 199.601829 
L 89.705719 196.689707 
L 90.113581 196.310259 
L 95.814889 190.283975 
L 107.217507 179.210355 
L 111.018379 175.622585 
L 114.819251 172.320558 
L 126.221869 163.149881 
L 132.146208 158.832128 
L 145.226231 149.738771 
L 150.927539 146.0261 
L 160.429721 139.572944 
L 166.49934 135.535157 
L 174.247158 129.710914 
L 177.533646 126.671365 
L 180.074316 123.886671 
L 182.309214 120.97455 
L 183.71595 118.062428 
L 184.015669 115.150307 
L 183.234955 112.211874 
L 180.697597 109.326064 
L 177.533646 107.297946 
L 175.63321 106.413942 
L 173.732774 105.968883 
L 169.931902 105.38171 
L 164.230593 104.664874 
L 160.429721 104.588081 
L 156.628848 104.738478 
L 152.827976 105.211904 
L 145.226231 106.796155 
L 143.325795 107.335842 
L 141.425358 108.014718 
L 135.72405 110.541861 
L 131.923177 112.568245 
L 130.022741 113.735519 
L 126.221869 116.382592 
L 122.420996 119.432131 
L 118.620124 122.966182 
L 116.719688 124.902551 
L 114.819251 126.970833 
L 111.018379 131.555386 
L 108.035979 135.535157 
L 105.31707 139.456458 
L 101.516198 145.560608 
L 97.277657 153.007885 
L 94.422489 158.832128 
L 92.014017 164.148148 
L 90.113581 168.8054 
L 88.213144 173.946299 
L 86.312708 179.741205 
L 83.415266 190.865464 
L 82.941344 193.777586 
L 82.79031 196.689707 
L 83.376603 199.601829 
L 84.412272 200.351536 
L 84.412272 200.351536 
" style="fill:none;stroke:#20a486;stroke-width:1.5;"/>
   </g>
   <g id="LineCollection_7">
    <path clip-path="url(#pef8d5e4751)" d="M 88.213144 188.644472 
L 90.113581 189.570076 
L 92.014017 188.719077 
L 93.914453 187.324255 
L 97.715325 183.956388 
L 114.819251 168.632658 
L 123.199479 161.74425 
L 126.969332 158.832128 
L 131.923177 155.10529 
L 139.524922 149.617416 
L 147.442898 144.271521 
L 162.980035 132.623035 
L 164.230593 131.44483 
L 166.302956 129.710914 
L 168.031465 127.838911 
L 169.157381 126.798793 
L 171.832338 122.944596 
L 172.90427 120.97455 
L 173.40614 118.062428 
L 173.094838 115.150307 
L 171.832338 113.197029 
L 170.757095 112.238185 
L 169.931902 111.85053 
L 168.031465 111.204052 
L 164.230593 110.345221 
L 160.429721 109.718246 
L 158.529284 109.559011 
L 154.728412 109.618673 
L 150.927539 110.058759 
L 145.226231 111.259204 
L 141.425358 112.273869 
L 137.624486 113.824145 
L 134.795125 115.150307 
L 130.022741 117.924334 
L 128.122305 119.267912 
L 125.772004 120.97455 
L 122.419503 123.886671 
L 118.620124 127.650415 
L 112.918815 134.012075 
L 109.117943 138.699151 
L 107.146212 141.3594 
L 105.217915 144.271521 
L 101.516198 150.438506 
L 99.615762 153.836109 
L 95.68009 161.74425 
L 93.1963 167.568493 
L 92.005477 170.480614 
L 90.113581 176.312298 
L 88.213144 185.041221 
L 88.014934 187.953343 
L 88.213144 188.644472 
L 88.213144 188.644472 
" style="fill:none;stroke:#40bd72;stroke-width:1.5;"/>
   </g>
   <g id="LineCollection_8">
    <path clip-path="url(#pef8d5e4751)" d="M 95.814889 178.842996 
L 97.715325 178.268046 
L 99.615762 177.183464 
L 100.908164 176.304857 
L 101.516198 175.8583 
L 103.416634 174.282302 
L 104.460755 173.392736 
L 105.31707 172.639897 
L 107.217507 171.007856 
L 107.854214 170.480614 
L 109.117943 169.409674 
L 111.018379 167.878569 
L 111.401952 167.568493 
L 112.918815 166.28989 
L 114.819251 164.731935 
L 114.911726 164.656371 
L 116.719688 163.163148 
L 118.519522 161.74425 
L 118.620124 161.663658 
L 120.52056 160.11777 
L 122.154685 158.832128 
L 122.420996 158.603521 
L 124.321432 157.035568 
L 125.786727 155.920007 
L 126.221869 155.554218 
L 128.122305 153.990431 
L 129.403452 153.007885 
L 130.022741 152.501452 
L 131.923177 150.976096 
L 133.10095 150.095764 
L 133.823614 149.526263 
L 135.72405 148.051705 
L 136.944815 147.183643 
L 137.624486 146.670979 
L 139.524922 145.305661 
L 141.045711 144.271521 
L 141.425358 143.986379 
L 143.325795 142.588495 
L 145.033946 141.3594 
L 145.226231 141.210341 
L 147.126667 139.729503 
L 148.840343 138.447278 
L 149.027103 138.290012 
L 150.927539 136.707068 
L 152.44446 135.535157 
L 152.827976 135.174509 
L 154.728412 133.452387 
L 155.743458 132.623035 
L 156.628848 131.665653 
L 158.489866 129.710914 
L 158.529284 129.658394 
L 160.429721 127.121677 
L 160.669987 126.798793 
L 162.330157 123.890394 
L 162.33251 123.886671 
L 163.220463 120.97455 
L 162.330157 118.333545 
L 162.182218 118.062428 
L 160.429721 117.007065 
L 158.529284 116.169527 
L 156.628848 115.583401 
L 154.728412 115.157188 
L 154.677833 115.150307 
L 152.827976 114.964233 
L 150.927539 114.98517 
L 149.297531 115.150307 
L 149.027103 115.181037 
L 147.126667 115.485393 
L 145.226231 115.866181 
L 143.325795 116.379058 
L 141.425358 117.009972 
L 139.524922 117.729854 
L 138.705426 118.062428 
L 137.624486 118.522323 
L 135.72405 119.348071 
L 133.823614 120.252268 
L 132.459833 120.97455 
L 131.923177 121.26235 
L 130.022741 122.471697 
L 128.122305 123.802824 
L 128.014819 123.886671 
L 126.221869 125.253939 
L 124.321432 126.798793 
L 122.420996 128.444404 
L 121.05208 129.710914 
L 120.52056 130.217742 
L 118.620124 132.100325 
L 118.122744 132.623035 
L 116.719688 134.164062 
L 115.476695 135.535157 
L 114.819251 136.307303 
L 112.989919 138.447278 
L 112.918815 138.533493 
L 111.018379 140.853732 
L 110.61554 141.3594 
L 109.117943 143.286665 
L 108.410164 144.271521 
L 107.217507 146.010592 
L 106.457533 147.183643 
L 105.31707 149.148284 
L 104.763598 150.095764 
L 103.416634 152.50813 
L 103.140649 153.007885 
L 101.5185 155.920007 
L 101.516198 155.924316 
L 100.002038 158.832128 
L 99.615762 159.61174 
L 98.588285 161.74425 
L 97.715325 163.712745 
L 97.309467 164.656371 
L 96.190095 167.568493 
L 95.814889 168.622664 
L 95.177824 170.480614 
L 94.546468 173.392736 
L 94.441188 176.304857 
L 95.814889 178.842996 
" style="fill:none;stroke:#77d153;stroke-width:1.5;"/>
   </g>
   <g id="LineCollection_9">
    <path clip-path="url(#pef8d5e4751)" d="M 103.416634 165.662912 
L 105.31707 165.772903 
L 107.217507 165.043819 
L 107.888741 164.656371 
L 109.117943 163.794397 
L 111.018379 162.550126 
L 112.324725 161.74425 
L 112.918815 161.314938 
L 114.819251 159.92939 
L 116.47673 158.832128 
L 116.719688 158.629808 
L 118.620124 156.959455 
L 119.932476 155.920007 
L 120.52056 155.383987 
L 122.420996 153.772559 
L 123.385732 153.007885 
L 124.321432 152.235073 
L 126.221869 150.735792 
L 127.027541 150.095764 
L 128.122305 149.169418 
L 130.022741 147.66725 
L 130.636027 147.183643 
L 131.923177 146.025242 
L 133.823614 144.521209 
L 134.148978 144.271521 
L 135.72405 142.868445 
L 137.609556 141.3594 
L 137.624486 141.345449 
L 139.524922 139.708794 
L 141.146911 138.447278 
L 141.425358 138.173872 
L 143.325795 136.500791 
L 144.522998 135.535157 
L 145.226231 134.623476 
L 147.126667 132.623035 
L 148.89069 129.710914 
L 149.027103 129.071894 
L 149.586594 126.798793 
L 149.027103 124.584354 
L 148.756315 123.886671 
L 147.126667 123.018204 
L 145.226231 122.604312 
L 143.325795 122.632849 
L 141.425358 122.928103 
L 139.524922 123.416386 
L 138.132055 123.886671 
L 137.624486 124.089427 
L 135.72405 124.908907 
L 133.823614 125.759551 
L 131.923177 126.690771 
L 131.728832 126.798793 
L 130.022741 127.907768 
L 128.122305 129.171087 
L 127.335642 129.710914 
L 126.221869 130.584831 
L 124.321432 132.092365 
L 123.671801 132.623035 
L 122.420996 133.705364 
L 120.52056 135.38896 
L 120.372223 135.535157 
L 118.620124 137.435596 
L 117.693887 138.447278 
L 116.719688 139.636208 
L 115.24193 141.3594 
L 114.819251 141.874147 
L 112.918815 144.130623 
L 112.801178 144.271521 
L 111.018379 146.711691 
L 110.67898 147.183643 
L 109.117943 149.708018 
L 108.894988 150.095764 
L 107.217507 152.885549 
L 107.14775 153.007885 
L 105.542241 155.920007 
L 105.31707 156.435425 
L 104.246057 158.832128 
L 103.416634 160.994435 
L 103.13025 161.74425 
L 102.776559 164.656371 
L 103.416634 165.662912 
" style="fill:none;stroke:#bddf26;stroke-width:1.5;"/>
   </g>
   <g id="LineCollection_10"/>
  </g>
  <g id="axes_2">
   <g id="patch_3">
    <path d="M 47.907716 48.23444 
L 293.857696 48.23444 
L 293.857696 12.96 
L 47.907716 12.96 
z
" style="fill:none;opacity:0;"/>
   </g>
   <g id="matplotlib.axis_3">
    <g id="xtick_8">
     <g id="line2d_17">
      <path clip-path="url(#p8e1eba860f)" d="M 47.907716 48.23444 
L 47.907716 12.96 
" style="fill:none;stroke:#ffffff;stroke-linecap:round;"/>
     </g>
    </g>
    <g id="xtick_9">
     <g id="line2d_18">
      <path clip-path="url(#p8e1eba860f)" d="M 88.899379 48.23444 
L 88.899379 12.96 
" style="fill:none;stroke:#ffffff;stroke-linecap:round;"/>
     </g>
    </g>
    <g id="xtick_10">
     <g id="line2d_19">
      <path clip-path="url(#p8e1eba860f)" d="M 129.891043 48.23444 
L 129.891043 12.96 
" style="fill:none;stroke:#ffffff;stroke-linecap:round;"/>
     </g>
    </g>
    <g id="xtick_11">
     <g id="line2d_20">
      <path clip-path="url(#p8e1eba860f)" d="M 170.882706 48.23444 
L 170.882706 12.96 
" style="fill:none;stroke:#ffffff;stroke-linecap:round;"/>
     </g>
    </g>
    <g id="xtick_12">
     <g id="line2d_21">
      <path clip-path="url(#p8e1eba860f)" d="M 211.874369 48.23444 
L 211.874369 12.96 
" style="fill:none;stroke:#ffffff;stroke-linecap:round;"/>
     </g>
    </g>
    <g id="xtick_13">
     <g id="line2d_22">
      <path clip-path="url(#p8e1eba860f)" d="M 252.866033 48.23444 
L 252.866033 12.96 
" style="fill:none;stroke:#ffffff;stroke-linecap:round;"/>
     </g>
    </g>
    <g id="xtick_14">
     <g id="line2d_23">
      <path clip-path="url(#p8e1eba860f)" d="M 293.857696 48.23444 
L 293.857696 12.96 
" style="fill:none;stroke:#ffffff;stroke-linecap:round;"/>
     </g>
    </g>
   </g>
   <g id="matplotlib.axis_4">
    <g id="ytick_10"/>
    <g id="ytick_11"/>
   </g>
   <g id="patch_4">
    <path clip-path="url(#p8e1eba860f)" d="M 48.238581 48.23444 
L 60.215689 48.23444 
L 60.215689 46.666617 
L 48.238581 46.666617 
z
" style="fill:#1f77b4;fill-opacity:0.75;stroke:#ffffff;stroke-linejoin:miter;"/>
   </g>
   <g id="patch_5">
    <path clip-path="url(#p8e1eba860f)" d="M 60.215689 48.23444 
L 72.192798 48.23444 
L 72.192798 39.938753 
L 60.215689 39.938753 
z
" style="fill:#1f77b4;fill-opacity:0.75;stroke:#ffffff;stroke-linejoin:miter;"/>
   </g>
   <g id="patch_6">
    <path clip-path="url(#p8e1eba860f)" d="M 72.192798 48.23444 
L 84.169906 48.23444 
L 84.169906 31.260539 
L 72.192798 31.260539 
z
" style="fill:#1f77b4;fill-opacity:0.75;stroke:#ffffff;stroke-linejoin:miter;"/>
   </g>
   <g id="patch_7">
    <path clip-path="url(#p8e1eba860f)" d="M 84.169906 48.23444 
L 96.147014 48.23444 
L 96.147014 23.53405 
L 84.169906 23.53405 
z
" style="fill:#1f77b4;fill-opacity:0.75;stroke:#ffffff;stroke-linejoin:miter;"/>
   </g>
   <g id="patch_8">
    <path clip-path="url(#p8e1eba860f)" d="M 96.147014 48.23444 
L 108.124123 48.23444 
L 108.124123 17.997768 
L 96.147014 17.997768 
z
" style="fill:#1f77b4;fill-opacity:0.75;stroke:#ffffff;stroke-linejoin:miter;"/>
   </g>
   <g id="patch_9">
    <path clip-path="url(#p8e1eba860f)" d="M 108.124123 48.23444 
L 120.101231 48.23444 
L 120.101231 15.10762 
L 108.124123 15.10762 
z
" style="fill:#1f77b4;fill-opacity:0.75;stroke:#ffffff;stroke-linejoin:miter;"/>
   </g>
   <g id="patch_10">
    <path clip-path="url(#p8e1eba860f)" d="M 120.101231 48.23444 
L 132.078339 48.23444 
L 132.078339 14.639735 
L 120.101231 14.639735 
z
" style="fill:#1f77b4;fill-opacity:0.75;stroke:#ffffff;stroke-linejoin:miter;"/>
   </g>
   <g id="patch_11">
    <path clip-path="url(#p8e1eba860f)" d="M 132.078339 48.23444 
L 144.055448 48.23444 
L 144.055448 16.139479 
L 132.078339 16.139479 
z
" style="fill:#1f77b4;fill-opacity:0.75;stroke:#ffffff;stroke-linejoin:miter;"/>
   </g>
   <g id="patch_12">
    <path clip-path="url(#p8e1eba860f)" d="M 144.055448 48.23444 
L 156.032556 48.23444 
L 156.032556 19.04394 
L 144.055448 19.04394 
z
" style="fill:#1f77b4;fill-opacity:0.75;stroke:#ffffff;stroke-linejoin:miter;"/>
   </g>
   <g id="patch_13">
    <path clip-path="url(#p8e1eba860f)" d="M 156.032556 48.23444 
L 168.009664 48.23444 
L 168.009664 22.722997 
L 156.032556 22.722997 
z
" style="fill:#1f77b4;fill-opacity:0.75;stroke:#ffffff;stroke-linejoin:miter;"/>
   </g>
   <g id="patch_14">
    <path clip-path="url(#p8e1eba860f)" d="M 168.009664 48.23444 
L 179.986773 48.23444 
L 179.986773 26.723367 
L 168.009664 26.723367 
z
" style="fill:#1f77b4;fill-opacity:0.75;stroke:#ffffff;stroke-linejoin:miter;"/>
   </g>
   <g id="patch_15">
    <path clip-path="url(#p8e1eba860f)" d="M 179.986773 48.23444 
L 191.963881 48.23444 
L 191.963881 30.722964 
L 179.986773 30.722964 
z
" style="fill:#1f77b4;fill-opacity:0.75;stroke:#ffffff;stroke-linejoin:miter;"/>
   </g>
   <g id="patch_16">
    <path clip-path="url(#p8e1eba860f)" d="M 191.963881 48.23444 
L 203.940989 48.23444 
L 203.940989 34.41904 
L 191.963881 34.41904 
z
" style="fill:#1f77b4;fill-opacity:0.75;stroke:#ffffff;stroke-linejoin:miter;"/>
   </g>
   <g id="patch_17">
    <path clip-path="url(#p8e1eba860f)" d="M 203.940989 48.23444 
L 215.918098 48.23444 
L 215.918098 37.721694 
L 203.940989 37.721694 
z
" style="fill:#1f77b4;fill-opacity:0.75;stroke:#ffffff;stroke-linejoin:miter;"/>
   </g>
   <g id="patch_18">
    <path clip-path="url(#p8e1eba860f)" d="M 215.918098 48.23444 
L 227.895206 48.23444 
L 227.895206 40.44245 
L 215.918098 40.44245 
z
" style="fill:#1f77b4;fill-opacity:0.75;stroke:#ffffff;stroke-linejoin:miter;"/>
   </g>
   <g id="patch_19">
    <path clip-path="url(#p8e1eba860f)" d="M 227.895206 48.23444 
L 239.872315 48.23444 
L 239.872315 42.653095 
L 227.895206 42.653095 
z
" style="fill:#1f77b4;fill-opacity:0.75;stroke:#ffffff;stroke-linejoin:miter;"/>
   </g>
   <g id="patch_20">
    <path clip-path="url(#p8e1eba860f)" d="M 239.872315 48.23444 
L 251.849423 48.23444 
L 251.849423 44.398144 
L 239.872315 44.398144 
z
" style="fill:#1f77b4;fill-opacity:0.75;stroke:#ffffff;stroke-linejoin:miter;"/>
   </g>
   <g id="patch_21">
    <path clip-path="url(#p8e1eba860f)" d="M 251.849423 48.23444 
L 263.826531 48.23444 
L 263.826531 45.663833 
L 251.849423 45.663833 
z
" style="fill:#1f77b4;fill-opacity:0.75;stroke:#ffffff;stroke-linejoin:miter;"/>
   </g>
   <g id="patch_22">
    <path clip-path="url(#p8e1eba860f)" d="M 263.826531 48.23444 
L 275.80364 48.23444 
L 275.80364 46.566142 
L 263.826531 46.566142 
z
" style="fill:#1f77b4;fill-opacity:0.75;stroke:#ffffff;stroke-linejoin:miter;"/>
   </g>
   <g id="patch_23">
    <path clip-path="url(#p8e1eba860f)" d="M 275.80364 48.23444 
L 287.780748 48.23444 
L 287.780748 47.226112 
L 275.80364 47.226112 
z
" style="fill:#1f77b4;fill-opacity:0.75;stroke:#ffffff;stroke-linejoin:miter;"/>
   </g>
   <g id="patch_24">
    <path clip-path="url(#p8e1eba860f)" d="M 287.780748 48.23444 
L 299.757856 48.23444 
L 299.757856 47.642389 
L 287.780748 47.642389 
z
" style="fill:#1f77b4;fill-opacity:0.75;stroke:#ffffff;stroke-linejoin:miter;"/>
   </g>
   <g id="patch_25">
    <path clip-path="url(#p8e1eba860f)" d="M 299.757856 48.23444 
L 311.734965 48.23444 
L 311.734965 47.899169 
L 299.757856 47.899169 
z
" style="fill:#1f77b4;fill-opacity:0.75;stroke:#ffffff;stroke-linejoin:miter;"/>
   </g>
   <g id="patch_26">
    <path clip-path="url(#p8e1eba860f)" d="M 311.734965 48.23444 
L 323.712073 48.23444 
L 323.712073 48.063855 
L 311.734965 48.063855 
z
" style="fill:#1f77b4;fill-opacity:0.75;stroke:#ffffff;stroke-linejoin:miter;"/>
   </g>
   <g id="patch_27">
    <path clip-path="url(#p8e1eba860f)" d="M 323.712073 48.23444 
L 335.689181 48.23444 
L 335.689181 48.150244 
L 323.712073 48.150244 
z
" style="fill:#1f77b4;fill-opacity:0.75;stroke:#ffffff;stroke-linejoin:miter;"/>
   </g>
   <g id="patch_28">
    <path clip-path="url(#p8e1eba860f)" d="M 335.689181 48.23444 
L 347.66629 48.23444 
L 347.66629 48.196049 
L 335.689181 48.196049 
z
" style="fill:#1f77b4;fill-opacity:0.75;stroke:#ffffff;stroke-linejoin:miter;"/>
   </g>
   <g id="patch_29">
    <path clip-path="url(#p8e1eba860f)" d="M 347.66629 48.23444 
L 359.643398 48.23444 
L 359.643398 48.219161 
L 347.66629 48.219161 
z
" style="fill:#1f77b4;fill-opacity:0.75;stroke:#ffffff;stroke-linejoin:miter;"/>
   </g>
   <g id="patch_30">
    <path clip-path="url(#p8e1eba860f)" d="M 359.643398 48.23444 
L 371.620506 48.23444 
L 371.620506 48.228251 
L 359.643398 48.228251 
z
" style="fill:#1f77b4;fill-opacity:0.75;stroke:#ffffff;stroke-linejoin:miter;"/>
   </g>
   <g id="patch_31">
    <path clip-path="url(#p8e1eba860f)" d="M 371.620506 48.23444 
L 383.597615 48.23444 
L 383.597615 48.232377 
L 371.620506 48.232377 
z
" style="fill:#1f77b4;fill-opacity:0.75;stroke:#ffffff;stroke-linejoin:miter;"/>
   </g>
   <g id="patch_32">
    <path clip-path="url(#p8e1eba860f)" d="M 383.597615 48.23444 
L 395.574723 48.23444 
L 395.574723 48.233796 
L 383.597615 48.233796 
z
" style="fill:#1f77b4;fill-opacity:0.75;stroke:#ffffff;stroke-linejoin:miter;"/>
   </g>
   <g id="patch_33">
    <path clip-path="url(#p8e1eba860f)" d="M 395.574723 48.23444 
L 407.551831 48.23444 
L 407.551831 48.234215 
L 395.574723 48.234215 
z
" style="fill:#1f77b4;fill-opacity:0.75;stroke:#ffffff;stroke-linejoin:miter;"/>
   </g>
   <g id="patch_34">
    <path d="M 47.907716 48.23444 
L 293.857696 48.23444 
" style="fill:none;stroke:#ffffff;stroke-linecap:square;stroke-linejoin:miter;stroke-width:1.25;"/>
   </g>
  </g>
  <g id="axes_3">
   <g id="patch_35">
    <path d="M 313.819234 308.432508 
L 347.04 308.432508 
L 347.04 64.999614 
L 313.819234 64.999614 
z
" style="fill:none;opacity:0;"/>
   </g>
   <g id="matplotlib.axis_5">
    <g id="xtick_15"/>
    <g id="xtick_16"/>
   </g>
   <g id="matplotlib.axis_6">
    <g id="ytick_12">
     <g id="line2d_24">
      <path clip-path="url(#p12690b5664)" d="M 313.819234 308.432508 
L 347.04 308.432508 
" style="fill:none;stroke:#ffffff;stroke-linecap:round;"/>
     </g>
    </g>
    <g id="ytick_13">
     <g id="line2d_25">
      <path clip-path="url(#p12690b5664)" d="M 313.819234 278.003396 
L 347.04 278.003396 
" style="fill:none;stroke:#ffffff;stroke-linecap:round;"/>
     </g>
    </g>
    <g id="ytick_14">
     <g id="line2d_26">
      <path clip-path="url(#p12690b5664)" d="M 313.819234 247.574285 
L 347.04 247.574285 
" style="fill:none;stroke:#ffffff;stroke-linecap:round;"/>
     </g>
    </g>
    <g id="ytick_15">
     <g id="line2d_27">
      <path clip-path="url(#p12690b5664)" d="M 313.819234 217.145173 
L 347.04 217.145173 
" style="fill:none;stroke:#ffffff;stroke-linecap:round;"/>
     </g>
    </g>
    <g id="ytick_16">
     <g id="line2d_28">
      <path clip-path="url(#p12690b5664)" d="M 313.819234 186.716061 
L 347.04 186.716061 
" style="fill:none;stroke:#ffffff;stroke-linecap:round;"/>
     </g>
    </g>
    <g id="ytick_17">
     <g id="line2d_29">
      <path clip-path="url(#p12690b5664)" d="M 313.819234 156.286949 
L 347.04 156.286949 
" style="fill:none;stroke:#ffffff;stroke-linecap:round;"/>
     </g>
    </g>
    <g id="ytick_18">
     <g id="line2d_30">
      <path clip-path="url(#p12690b5664)" d="M 313.819234 125.857837 
L 347.04 125.857837 
" style="fill:none;stroke:#ffffff;stroke-linecap:round;"/>
     </g>
    </g>
    <g id="ytick_19">
     <g id="line2d_31">
      <path clip-path="url(#p12690b5664)" d="M 313.819234 95.428725 
L 347.04 95.428725 
" style="fill:none;stroke:#ffffff;stroke-linecap:round;"/>
     </g>
    </g>
    <g id="ytick_20">
     <g id="line2d_32">
      <path clip-path="url(#p12690b5664)" d="M 313.819234 64.999614 
L 347.04 64.999614 
" style="fill:none;stroke:#ffffff;stroke-linecap:round;"/>
     </g>
    </g>
   </g>
   <g id="patch_36">
    <path clip-path="url(#p12690b5664)" d="M 313.819234 602.230781 
L 313.819263 602.230781 
L 313.819263 583.44572 
L 313.819234 583.44572 
z
" style="fill:#1f77b4;fill-opacity:0.75;stroke:#ffffff;stroke-linejoin:miter;"/>
   </g>
   <g id="patch_37">
    <path clip-path="url(#p12690b5664)" d="M 313.819234 583.44572 
L 313.819249 583.44572 
L 313.819249 564.66066 
L 313.819234 564.66066 
z
" style="fill:#1f77b4;fill-opacity:0.75;stroke:#ffffff;stroke-linejoin:miter;"/>
   </g>
   <g id="patch_38">
    <path clip-path="url(#p12690b5664)" d="M 313.819234 564.66066 
L 313.819263 564.66066 
L 313.819263 545.875599 
L 313.819234 545.875599 
z
" style="fill:#1f77b4;fill-opacity:0.75;stroke:#ffffff;stroke-linejoin:miter;"/>
   </g>
   <g id="patch_39">
    <path clip-path="url(#p12690b5664)" d="M 313.819234 545.875599 
L 313.819405 545.875599 
L 313.819405 527.090538 
L 313.819234 527.090538 
z
" style="fill:#1f77b4;fill-opacity:0.75;stroke:#ffffff;stroke-linejoin:miter;"/>
   </g>
   <g id="patch_40">
    <path clip-path="url(#p12690b5664)" d="M 313.819234 527.090538 
L 313.819519 527.090538 
L 313.819519 508.305477 
L 313.819234 508.305477 
z
" style="fill:#1f77b4;fill-opacity:0.75;stroke:#ffffff;stroke-linejoin:miter;"/>
   </g>
   <g id="patch_41">
    <path clip-path="url(#p12690b5664)" d="M 313.819234 508.305477 
L 313.819633 508.305477 
L 313.819633 489.520416 
L 313.819234 489.520416 
z
" style="fill:#1f77b4;fill-opacity:0.75;stroke:#ffffff;stroke-linejoin:miter;"/>
   </g>
   <g id="patch_42">
    <path clip-path="url(#p12690b5664)" d="M 313.819234 489.520416 
L 313.819946 489.520416 
L 313.819946 470.735355 
L 313.819234 470.735355 
z
" style="fill:#1f77b4;fill-opacity:0.75;stroke:#ffffff;stroke-linejoin:miter;"/>
   </g>
   <g id="patch_43">
    <path clip-path="url(#p12690b5664)" d="M 313.819234 470.735355 
L 313.820657 470.735355 
L 313.820657 451.950294 
L 313.819234 451.950294 
z
" style="fill:#1f77b4;fill-opacity:0.75;stroke:#ffffff;stroke-linejoin:miter;"/>
   </g>
   <g id="patch_44">
    <path clip-path="url(#p12690b5664)" d="M 313.819234 451.950294 
L 313.821867 451.950294 
L 313.821867 433.165233 
L 313.819234 433.165233 
z
" style="fill:#1f77b4;fill-opacity:0.75;stroke:#ffffff;stroke-linejoin:miter;"/>
   </g>
   <g id="patch_45">
    <path clip-path="url(#p12690b5664)" d="M 313.819234 433.165233 
L 313.824002 433.165233 
L 313.824002 414.380173 
L 313.819234 414.380173 
z
" style="fill:#1f77b4;fill-opacity:0.75;stroke:#ffffff;stroke-linejoin:miter;"/>
   </g>
   <g id="patch_46">
    <path clip-path="url(#p12690b5664)" d="M 313.819234 414.380173 
L 313.828271 414.380173 
L 313.828271 395.595112 
L 313.819234 395.595112 
z
" style="fill:#1f77b4;fill-opacity:0.75;stroke:#ffffff;stroke-linejoin:miter;"/>
   </g>
   <g id="patch_47">
    <path clip-path="url(#p12690b5664)" d="M 313.819234 395.595112 
L 313.836666 395.595112 
L 313.836666 376.810051 
L 313.819234 376.810051 
z
" style="fill:#1f77b4;fill-opacity:0.75;stroke:#ffffff;stroke-linejoin:miter;"/>
   </g>
   <g id="patch_48">
    <path clip-path="url(#p12690b5664)" d="M 313.819234 376.810051 
L 313.852306 376.810051 
L 313.852306 358.02499 
L 313.819234 358.02499 
z
" style="fill:#1f77b4;fill-opacity:0.75;stroke:#ffffff;stroke-linejoin:miter;"/>
   </g>
   <g id="patch_49">
    <path clip-path="url(#p12690b5664)" d="M 313.819234 358.02499 
L 313.877749 358.02499 
L 313.877749 339.239929 
L 313.819234 339.239929 
z
" style="fill:#1f77b4;fill-opacity:0.75;stroke:#ffffff;stroke-linejoin:miter;"/>
   </g>
   <g id="patch_50">
    <path clip-path="url(#p12690b5664)" d="M 313.819234 339.239929 
L 313.927114 339.239929 
L 313.927114 320.454868 
L 313.819234 320.454868 
z
" style="fill:#1f77b4;fill-opacity:0.75;stroke:#ffffff;stroke-linejoin:miter;"/>
   </g>
   <g id="patch_51">
    <path clip-path="url(#p12690b5664)" d="M 313.819234 320.454868 
L 314.025374 320.454868 
L 314.025374 301.669807 
L 313.819234 301.669807 
z
" style="fill:#1f77b4;fill-opacity:0.75;stroke:#ffffff;stroke-linejoin:miter;"/>
   </g>
   <g id="patch_52">
    <path clip-path="url(#p12690b5664)" d="M 313.819234 301.669807 
L 314.195226 301.669807 
L 314.195226 282.884747 
L 313.819234 282.884747 
z
" style="fill:#1f77b4;fill-opacity:0.75;stroke:#ffffff;stroke-linejoin:miter;"/>
   </g>
   <g id="patch_53">
    <path clip-path="url(#p12690b5664)" d="M 313.819234 282.884747 
L 314.516033 282.884747 
L 314.516033 264.099686 
L 313.819234 264.099686 
z
" style="fill:#1f77b4;fill-opacity:0.75;stroke:#ffffff;stroke-linejoin:miter;"/>
   </g>
   <g id="patch_54">
    <path clip-path="url(#p12690b5664)" d="M 313.819234 264.099686 
L 315.095632 264.099686 
L 315.095632 245.314625 
L 313.819234 245.314625 
z
" style="fill:#1f77b4;fill-opacity:0.75;stroke:#ffffff;stroke-linejoin:miter;"/>
   </g>
   <g id="patch_55">
    <path clip-path="url(#p12690b5664)" d="M 313.819234 245.314625 
L 316.150151 245.314625 
L 316.150151 226.529564 
L 313.819234 226.529564 
z
" style="fill:#1f77b4;fill-opacity:0.75;stroke:#ffffff;stroke-linejoin:miter;"/>
   </g>
   <g id="patch_56">
    <path clip-path="url(#p12690b5664)" d="M 313.819234 226.529564 
L 318.026867 226.529564 
L 318.026867 207.744503 
L 313.819234 207.744503 
z
" style="fill:#1f77b4;fill-opacity:0.75;stroke:#ffffff;stroke-linejoin:miter;"/>
   </g>
   <g id="patch_57">
    <path clip-path="url(#p12690b5664)" d="M 313.819234 207.744503 
L 321.30374 207.744503 
L 321.30374 188.959442 
L 313.819234 188.959442 
z
" style="fill:#1f77b4;fill-opacity:0.75;stroke:#ffffff;stroke-linejoin:miter;"/>
   </g>
   <g id="patch_58">
    <path clip-path="url(#p12690b5664)" d="M 313.819234 188.959442 
L 326.599048 188.959442 
L 326.599048 170.174381 
L 313.819234 170.174381 
z
" style="fill:#1f77b4;fill-opacity:0.75;stroke:#ffffff;stroke-linejoin:miter;"/>
   </g>
   <g id="patch_59">
    <path clip-path="url(#p12690b5664)" d="M 313.819234 170.174381 
L 334.178371 170.174381 
L 334.178371 151.38932 
L 313.819234 151.38932 
z
" style="fill:#1f77b4;fill-opacity:0.75;stroke:#ffffff;stroke-linejoin:miter;"/>
   </g>
   <g id="patch_60">
    <path clip-path="url(#p12690b5664)" d="M 313.819234 151.38932 
L 342.315049 151.38932 
L 342.315049 132.60426 
L 313.819234 132.60426 
z
" style="fill:#1f77b4;fill-opacity:0.75;stroke:#ffffff;stroke-linejoin:miter;"/>
   </g>
   <g id="patch_61">
    <path clip-path="url(#p12690b5664)" d="M 313.819234 132.60426 
L 345.458059 132.60426 
L 345.458059 113.819199 
L 313.819234 113.819199 
z
" style="fill:#1f77b4;fill-opacity:0.75;stroke:#ffffff;stroke-linejoin:miter;"/>
   </g>
   <g id="patch_62">
    <path clip-path="url(#p12690b5664)" d="M 313.819234 113.819199 
L 336.951891 113.819199 
L 336.951891 95.034138 
L 313.819234 95.034138 
z
" style="fill:#1f77b4;fill-opacity:0.75;stroke:#ffffff;stroke-linejoin:miter;"/>
   </g>
   <g id="patch_63">
    <path clip-path="url(#p12690b5664)" d="M 313.819234 95.034138 
L 322.032714 95.034138 
L 322.032714 76.249077 
L 313.819234 76.249077 
z
" style="fill:#1f77b4;fill-opacity:0.75;stroke:#ffffff;stroke-linejoin:miter;"/>
   </g>
   <g id="patch_64">
    <path clip-path="url(#p12690b5664)" d="M 313.819234 76.249077 
L 314.675982 76.249077 
L 314.675982 57.464016 
L 313.819234 57.464016 
z
" style="fill:#1f77b4;fill-opacity:0.75;stroke:#ffffff;stroke-linejoin:miter;"/>
   </g>
   <g id="patch_65">
    <path clip-path="url(#p12690b5664)" d="M 313.819234 57.464016 
L 313.830604 57.464016 
L 313.830604 38.678955 
L 313.819234 38.678955 
z
" style="fill:#1f77b4;fill-opacity:0.75;stroke:#ffffff;stroke-linejoin:miter;"/>
   </g>
   <g id="patch_66">
    <path d="M 313.819234 308.432508 
L 313.819234 64.999614 
" style="fill:none;stroke:#ffffff;stroke-linecap:square;stroke-linejoin:miter;stroke-width:1.25;"/>
   </g>
  </g>
 </g>
 <defs>
  <clipPath id="pef8d5e4751">
   <rect height="243.432895" width="245.94998" x="47.907716" y="64.999614"/>
  </clipPath>
  <clipPath id="p8e1eba860f">
   <rect height="35.27444" width="245.94998" x="47.907716" y="12.96"/>
  </clipPath>
  <clipPath id="p12690b5664">
   <rect height="243.432895" width="33.220766" x="313.819234" y="64.999614"/>
  </clipPath>
 </defs>
</svg>
