<?xml version="1.0" encoding="utf-8" standalone="no"?>
<!DOCTYPE svg PUBLIC "-//W3C//DTD SVG 1.1//EN"
  "http://www.w3.org/Graphics/SVG/1.1/DTD/svg11.dtd">
<!-- Created with matplotlib (https://matplotlib.org/) -->
<svg height="360pt" version="1.1" viewBox="0 0 360 360" width="360pt" xmlns="http://www.w3.org/2000/svg" xmlns:xlink="http://www.w3.org/1999/xlink">
 <metadata>
  <rdf:RDF xmlns:cc="http://creativecommons.org/ns#" xmlns:dc="http://purl.org/dc/elements/1.1/" xmlns:rdf="http://www.w3.org/1999/02/22-rdf-syntax-ns#">
   <cc:Work>
    <dc:type rdf:resource="http://purl.org/dc/dcmitype/StillImage"/>
    <dc:date>2021-08-09T19:06:18.238689</dc:date>
    <dc:format>image/svg+xml</dc:format>
    <dc:creator>
     <cc:Agent>
      <dc:title>Matplotlib v3.3.4, https://matplotlib.org/</dc:title>
     </cc:Agent>
    </dc:creator>
   </cc:Work>
  </rdf:RDF>
 </metadata>
 <defs>
  <style type="text/css">*{stroke-linecap:butt;stroke-linejoin:round;}</style>
 </defs>
 <g id="figure_1">
  <g id="patch_1">
   <path d="M 0 360 
L 360 360 
L 360 0 
L 0 0 
z
" style="fill:none;"/>
  </g>
  <g id="axes_1">
   <g id="patch_2">
    <path d="M 47.907716 308.432508 
L 293.857696 308.432508 
L 293.857696 64.999614 
L 47.907716 64.999614 
z
" style="fill:none;opacity:0;"/>
   </g>
   <g id="matplotlib.axis_1">
    <g id="xtick_1">
     <g id="line2d_1">
      <path clip-path="url(#peed8c5d438)" d="M 47.907716 308.432508 
L 47.907716 64.999614 
" style="fill:none;stroke:#ffffff;stroke-linecap:round;"/>
     </g>
     <g id="text_1">
      <!-- $\mathdefault{0.0}$ -->
      <g style="fill:#262626;" transform="translate(40.906178 325.542855)scale(0.11 -0.11)">
       <defs>
        <path d="M 42 31.640625 
C 42 37.75 41.90625 48.125 37.703125 56.109375 
C 34 63.109375 28.09375 65.59375 22.90625 65.59375 
C 18.09375 65.59375 12 63.40625 8.203125 56.203125 
C 4.203125 48.71875 3.796875 39.4375 3.796875 31.640625 
C 3.796875 25.953125 3.90625 17.28125 7 9.671875 
C 11.296875 -0.609375 19 -2 22.90625 -2 
C 27.5 -2 34.5 -0.109375 38.59375 9.375 
C 41.59375 16.28125 42 24.359375 42 31.640625 
z
M 22.90625 -0.40625 
C 16.5 -0.40625 12.703125 5.078125 11.296875 12.6875 
C 10.203125 18.5625 10.203125 27.15625 10.203125 32.75 
C 10.203125 40.4375 10.203125 46.828125 11.5 52.921875 
C 13.40625 61.390625 19 64 22.90625 64 
C 27 64 32.296875 61.296875 34.203125 53.125 
C 35.5 47.4375 35.59375 40.734375 35.59375 32.75 
C 35.59375 26.25 35.59375 18.265625 34.40625 12.375 
C 32.296875 1.484375 26.40625 -0.40625 22.90625 -0.40625 
z
" id="CMR17-48"/>
        <path d="M 18.40625 4.796875 
C 18.40625 7.6875 16 9.671875 13.59375 9.671875 
C 10.703125 9.671875 8.703125 7.28125 8.703125 4.890625 
C 8.703125 2 11.09375 0 13.5 0 
C 16.40625 0 18.40625 2.390625 18.40625 4.796875 
z
" id="CMMI12-58"/>
       </defs>
       <use transform="scale(0.996264)" xlink:href="#CMR17-48"/>
       <use transform="translate(45.690477 0)scale(0.996264)" xlink:href="#CMMI12-58"/>
       <use transform="translate(72.787654 0)scale(0.996264)" xlink:href="#CMR17-48"/>
      </g>
     </g>
    </g>
    <g id="xtick_2">
     <g id="line2d_2">
      <path clip-path="url(#peed8c5d438)" d="M 88.899379 308.432508 
L 88.899379 64.999614 
" style="fill:none;stroke:#ffffff;stroke-linecap:round;"/>
     </g>
     <g id="text_2">
      <!-- $\mathdefault{0.1}$ -->
      <g style="fill:#262626;" transform="translate(81.897841 325.542855)scale(0.11 -0.11)">
       <defs>
        <path d="M 26.59375 63.40625 
C 26.59375 65.5 26.5 65.5 25.09375 65.5 
C 21.203125 61.1875 15.296875 59.796875 9.703125 59.796875 
C 9.40625 59.796875 8.90625 59.796875 8.796875 59.5 
C 8.703125 59.296875 8.703125 59.09375 8.703125 57 
C 11.796875 57 17 57.59375 21 59.984375 
L 21 7.203125 
C 21 3.6875 20.796875 2.5 12.203125 2.5 
L 9.203125 2.5 
L 9.203125 0 
C 14 0 19 0 23.796875 0 
C 28.59375 0 33.59375 0 38.40625 0 
L 38.40625 2.5 
L 35.40625 2.5 
C 26.796875 2.5 26.59375 3.59375 26.59375 7.15625 
z
" id="CMR17-49"/>
       </defs>
       <use transform="scale(0.996264)" xlink:href="#CMR17-48"/>
       <use transform="translate(45.690477 0)scale(0.996264)" xlink:href="#CMMI12-58"/>
       <use transform="translate(72.787654 0)scale(0.996264)" xlink:href="#CMR17-49"/>
      </g>
     </g>
    </g>
    <g id="xtick_3">
     <g id="line2d_3">
      <path clip-path="url(#peed8c5d438)" d="M 129.891043 308.432508 
L 129.891043 64.999614 
" style="fill:none;stroke:#ffffff;stroke-linecap:round;"/>
     </g>
     <g id="text_3">
      <!-- $\mathdefault{0.2}$ -->
      <g style="fill:#262626;" transform="translate(122.889505 325.542855)scale(0.11 -0.11)">
       <defs>
        <path d="M 41.703125 15.453125 
L 39.90625 15.453125 
C 38.90625 8.375 38.09375 7.171875 37.703125 6.5625 
C 37.203125 5.765625 30 5.765625 28.59375 5.765625 
L 9.40625 5.765625 
C 13 9.671875 20 16.75 28.5 24.953125 
C 34.59375 30.734375 41.703125 37.53125 41.703125 47.421875 
C 41.703125 59.21875 32.296875 66 21.796875 66 
C 10.796875 66 4.09375 56.3125 4.09375 47.34375 
C 4.09375 43.4375 7 42.9375 8.203125 42.9375 
C 9.203125 42.9375 12.203125 43.546875 12.203125 47.03125 
C 12.203125 50.109375 9.59375 51 8.203125 51 
C 7.59375 51 7 50.90625 6.59375 50.703125 
C 8.5 59.21875 14.296875 63.40625 20.40625 63.40625 
C 29.09375 63.40625 34.796875 56.515625 34.796875 47.421875 
C 34.796875 38.734375 29.703125 31.25 24 24.75 
L 4.09375 2.28125 
L 4.09375 0 
L 39.296875 0 
z
" id="CMR17-50"/>
       </defs>
       <use transform="scale(0.996264)" xlink:href="#CMR17-48"/>
       <use transform="translate(45.690477 0)scale(0.996264)" xlink:href="#CMMI12-58"/>
       <use transform="translate(72.787654 0)scale(0.996264)" xlink:href="#CMR17-50"/>
      </g>
     </g>
    </g>
    <g id="xtick_4">
     <g id="line2d_4">
      <path clip-path="url(#peed8c5d438)" d="M 170.882706 308.432508 
L 170.882706 64.999614 
" style="fill:none;stroke:#ffffff;stroke-linecap:round;"/>
     </g>
     <g id="text_4">
      <!-- $\mathdefault{0.3}$ -->
      <g style="fill:#262626;" transform="translate(163.881168 325.542855)scale(0.11 -0.11)">
       <defs>
        <path d="M 22.09375 33.703125 
C 31 33.703125 34.90625 25.96875 34.90625 17.03125 
C 34.90625 5 28.5 0.390625 22.703125 0.390625 
C 17.40625 0.390625 8.796875 3.03125 6.09375 10.828125 
C 6.59375 10.625 7.09375 10.625 7.59375 10.625 
C 10 10.625 11.796875 12.21875 11.796875 14.8125 
C 11.796875 17.703125 9.59375 19 7.59375 19 
C 5.90625 19 3.296875 18.203125 3.296875 14.46875 
C 3.296875 5.234375 12.296875 -2 22.90625 -2 
C 34 -2 42.5 6.71875 42.5 16.953125 
C 42.5 26.671875 34.5 33.703125 25 34.796875 
C 32.59375 36.375 39.90625 43.0625 39.90625 52.015625 
C 39.90625 59.6875 32 65.296875 23 65.296875 
C 13.90625 65.296875 5.90625 59.828125 5.90625 52.015625 
C 5.90625 48.59375 8.5 48 9.796875 48 
C 11.90625 48 13.703125 49.296875 13.703125 51.890625 
C 13.703125 54.46875 11.90625 55.765625 9.796875 55.765625 
C 9.40625 55.765625 8.90625 55.765625 8.5 55.578125 
C 11.40625 61.859375 19.296875 63 22.796875 63 
C 26.296875 63 32.90625 61.328125 32.90625 51.875 
C 32.90625 49.109375 32.5 44.1875 29.09375 39.84375 
C 26.09375 36 22.703125 36 19.40625 35.6875 
C 18.90625 35.6875 16.59375 35.453125 16.203125 35.453125 
C 15.5 35.359375 15.09375 35.265625 15.09375 34.5 
C 15.09375 33.796875 15.203125 33.703125 17.203125 33.703125 
z
" id="CMR17-51"/>
       </defs>
       <use transform="scale(0.996264)" xlink:href="#CMR17-48"/>
       <use transform="translate(45.690477 0)scale(0.996264)" xlink:href="#CMMI12-58"/>
       <use transform="translate(72.787654 0)scale(0.996264)" xlink:href="#CMR17-51"/>
      </g>
     </g>
    </g>
    <g id="xtick_5">
     <g id="line2d_5">
      <path clip-path="url(#peed8c5d438)" d="M 211.874369 308.432508 
L 211.874369 64.999614 
" style="fill:none;stroke:#ffffff;stroke-linecap:round;"/>
     </g>
     <g id="text_5">
      <!-- $\mathdefault{0.4}$ -->
      <g style="fill:#262626;" transform="translate(204.872831 325.542855)scale(0.11 -0.11)">
       <defs>
        <path d="M 33.59375 64.40625 
C 33.59375 66.5 33.5 66.5 31.703125 66.5 
L 2 19.59375 
L 2 17 
L 27.796875 17 
L 27.796875 7.140625 
C 27.796875 3.5 27.59375 2.5 20.59375 2.5 
L 18.703125 2.5 
L 18.703125 0 
C 21.90625 0 27.296875 0 30.703125 0 
C 34.09375 0 39.5 0 42.703125 0 
L 42.703125 2.5 
L 40.796875 2.5 
C 33.796875 2.5 33.59375 3.5 33.59375 7.140625 
L 33.59375 17 
L 43.796875 17 
L 43.796875 19.59375 
L 33.59375 19.59375 
z
M 28.09375 57.859375 
L 28.09375 19.59375 
L 4 19.59375 
z
" id="CMR17-52"/>
       </defs>
       <use transform="scale(0.996264)" xlink:href="#CMR17-48"/>
       <use transform="translate(45.690477 0)scale(0.996264)" xlink:href="#CMMI12-58"/>
       <use transform="translate(72.787654 0)scale(0.996264)" xlink:href="#CMR17-52"/>
      </g>
     </g>
    </g>
    <g id="xtick_6">
     <g id="line2d_6">
      <path clip-path="url(#peed8c5d438)" d="M 252.866033 308.432508 
L 252.866033 64.999614 
" style="fill:none;stroke:#ffffff;stroke-linecap:round;"/>
     </g>
     <g id="text_6">
      <!-- $\mathdefault{0.5}$ -->
      <g style="fill:#262626;" transform="translate(245.864495 325.542855)scale(0.11 -0.11)">
       <defs>
        <path d="M 11.40625 57.6875 
C 12.40625 57.28125 16.5 56 20.703125 56 
C 30 56 35.09375 61.109375 38 64.0625 
C 38 64.953125 38 65.5 37.40625 65.5 
C 37.296875 65.5 37.09375 65.5 36.296875 65.046875 
C 32.796875 63.40625 28.703125 62.078125 23.703125 62.078125 
C 20.703125 62.078125 16.203125 62.484375 11.296875 64.671875 
C 10.203125 65.171875 10 65.171875 9.90625 65.171875 
C 9.40625 65.171875 9.296875 65.0625 9.296875 63.078125 
L 9.296875 34.421875 
C 9.296875 32.640625 9.296875 32.140625 10.296875 32.140625 
C 10.796875 32.140625 11 32.34375 11.5 33.03125 
C 14.703125 37.515625 19.09375 39.40625 24.09375 39.40625 
C 27.59375 39.40625 35.09375 37.21875 35.09375 20.140625 
C 35.09375 16.953125 35.09375 11.171875 32.09375 6.578125 
C 29.59375 2.484375 25.703125 0.390625 21.40625 0.390625 
C 14.796875 0.390625 8.09375 5 6.296875 12.71875 
C 6.703125 12.609375 7.5 12.421875 7.90625 12.421875 
C 9.203125 12.421875 11.703125 13.125 11.703125 16.21875 
C 11.703125 18.90625 9.796875 20 7.90625 20 
C 5.59375 20 4.09375 18.59375 4.09375 15.796875 
C 4.09375 7.09375 11 -2 21.59375 -2 
C 31.90625 -2 41.703125 6.875 41.703125 19.75 
C 41.703125 31.71875 33.90625 41 24.203125 41 
C 19.09375 41 14.796875 39.109375 11.40625 35.53125 
z
" id="CMR17-53"/>
       </defs>
       <use transform="scale(0.996264)" xlink:href="#CMR17-48"/>
       <use transform="translate(45.690477 0)scale(0.996264)" xlink:href="#CMMI12-58"/>
       <use transform="translate(72.787654 0)scale(0.996264)" xlink:href="#CMR17-53"/>
      </g>
     </g>
    </g>
    <g id="xtick_7">
     <g id="line2d_7">
      <path clip-path="url(#peed8c5d438)" d="M 293.857696 308.432508 
L 293.857696 64.999614 
" style="fill:none;stroke:#ffffff;stroke-linecap:round;"/>
     </g>
     <g id="text_7">
      <!-- $\mathdefault{0.6}$ -->
      <g style="fill:#262626;" transform="translate(286.856158 325.542855)scale(0.11 -0.11)">
       <defs>
        <path d="M 10.59375 34 
C 10.59375 57.65625 21.796875 63 28.296875 63 
C 30.40625 63 35.5 62.640625 37.5 59 
C 35.90625 59 32.90625 59 32.90625 55.515625 
C 32.90625 52.828125 35.09375 51.921875 36.5 51.921875 
C 37.40625 51.921875 40.09375 52.3125 40.09375 55.625 
C 40.09375 61.78125 35.09375 65.296875 28.203125 65.296875 
C 16.296875 65.296875 3.796875 52.96875 3.796875 31 
C 3.796875 3.953125 15.09375 -2 23.09375 -2 
C 32.796875 -2 42 6.671875 42 20.046875 
C 42 32.515625 33.90625 41.59375 23.703125 41.59375 
C 17.59375 41.59375 13.09375 37.609375 10.59375 30.625 
z
M 23.09375 0.390625 
C 10.796875 0.390625 10.796875 18.75 10.796875 22.4375 
C 10.796875 29.625 14.203125 40 23.5 40 
C 25.203125 40 30.09375 40 33.40625 33.125 
C 35.203125 29.21875 35.203125 25.140625 35.203125 20.140625 
C 35.203125 14.75 35.203125 10.78125 33.09375 6.78125 
C 30.90625 2.671875 27.703125 0.390625 23.09375 0.390625 
z
" id="CMR17-54"/>
       </defs>
       <use transform="scale(0.996264)" xlink:href="#CMR17-48"/>
       <use transform="translate(45.690477 0)scale(0.996264)" xlink:href="#CMMI12-58"/>
       <use transform="translate(72.787654 0)scale(0.996264)" xlink:href="#CMR17-54"/>
      </g>
     </g>
    </g>
    <g id="text_8">
     <!-- $\overset{\sim}{X}_1$ -->
     <g style="fill:#262626;" transform="translate(163.438066 344.715404)scale(0.12 -0.12)">
      <defs>
       <path d="M 72.21875 33.40625 
C 72.21875 35.59375 71.625 36.59375 70.828125 36.59375 
C 70.328125 36.59375 69.515625 35.90625 69.421875 34 
C 69.015625 24.40625 62.421875 18.90625 55.421875 18.90625 
C 49.109375 18.90625 44.3125 23.203125 39.40625 27.5 
C 34.3125 32.09375 29.109375 36.703125 22.3125 36.703125 
C 11.40625 36.703125 5.5 25.703125 5.5 16.59375 
C 5.5 13.40625 6.796875 13.40625 6.90625 13.40625 
C 8 13.40625 8.296875 15.40625 8.296875 15.703125 
C 8.703125 26.703125 16.203125 31.09375 22.3125 31.09375 
C 28.609375 31.09375 33.40625 26.796875 38.3125 22.5 
C 43.40625 17.90625 48.609375 13.296875 55.421875 13.296875 
C 66.328125 13.296875 72.21875 24.296875 72.21875 33.40625 
z
" id="CMSY10-24"/>
       <path d="M 47.5 40.5625 
L 38.09375 62.40625 
C 39.40625 64.796875 42.40625 65.1875 43.59375 65.296875 
C 44.203125 65.296875 45.296875 65.296875 45.296875 67.0625 
C 45.296875 68.1875 44.40625 68.1875 43.796875 68.1875 
C 42.09375 68.1875 40.09375 68.1875 38.40625 68.1875 
L 32.59375 68.1875 
C 26.5 68.1875 22.09375 68.1875 22 68.1875 
C 21.203125 68.1875 20.203125 68.1875 20.203125 66.296875 
C 20.203125 65.296875 21.09375 65.296875 22.40625 65.296875 
C 28.203125 65.296875 28.59375 64.296875 29.59375 61.90625 
L 41.5 34.140625 
L 19.796875 10.828125 
C 16.203125 6.90625 11.90625 3.09375 4.5 3.09375 
C 3.296875 3 2.5 3 2.5 1.0625 
C 2.5 0.75 2.59375 0 3.703125 0 
C 5.09375 0 6.59375 0 8 0 
L 12.703125 0 
C 15.90625 0 19.40625 0 22.5 0 
C 23.203125 0 24.40625 0 24.40625 1.796875 
C 24.40625 2.796875 23.703125 2.890625 23.09375 2.890625 
C 21.09375 3.09375 19.796875 4.1875 19.796875 5.78125 
C 19.796875 7.484375 21 8.703125 23.90625 11.6875 
L 32.796875 21.375 
C 35 23.6875 40.296875 29.46875 42.5 31.65625 
L 53 7.078125 
C 53.09375 6.890625 53.5 5.890625 53.5 5.78125 
C 53.5 4.890625 51.296875 3.09375 48.09375 3.09375 
C 47.5 3.09375 46.40625 3.09375 46.40625 1.109375 
C 46.40625 0 47.40625 0 47.90625 0 
C 49.59375 0 51.59375 0 53.296875 0 
L 64.296875 0 
C 66.09375 0 68 0 69.703125 0 
C 70.40625 0 71.5 0 71.5 2.03125 
C 71.5 3.09375 70.5 3.09375 69.59375 3.09375 
C 63.59375 3.09375 63.40625 3.59375 61.703125 7.265625 
L 48.5 38.140625 
L 61.203125 51.8125 
C 62.203125 52.828125 64.5 55.34375 65.40625 56.34375 
C 69.703125 60.875 73.703125 65 81.796875 65 
C 82.796875 65.296875 83.796875 65.296875 83.796875 67.0625 
C 83.796875 68.1875 82.90625 68.1875 82.5 68.1875 
C 81.09375 68.1875 79.59375 68.1875 78.203125 68.1875 
L 73.59375 68.1875 
C 70.40625 68.1875 66.90625 68.1875 63.796875 68.1875 
C 63.09375 68.1875 61.90625 68.1875 61.90625 66.390625 
C 61.90625 65.390625 62.59375 65.296875 63.203125 65.296875 
C 64.796875 65.109375 66.5 64.3125 66.5 62.40625 
L 66.40625 62.21875 
C 66.296875 61.515625 66.09375 60.515625 65 59.328125 
z
" id="CMMI12-88"/>
      </defs>
      <use transform="translate(17.275792 73.035428)scale(0.697382)" xlink:href="#CMSY10-24"/>
      <use transform="scale(0.996264)" xlink:href="#CMMI12-88"/>
      <use transform="translate(88.792562 -14.943915)scale(0.697382)" xlink:href="#CMR17-49"/>
     </g>
    </g>
   </g>
   <g id="matplotlib.axis_2">
    <g id="ytick_1">
     <g id="line2d_8">
      <path clip-path="url(#peed8c5d438)" d="M 47.907716 308.432508 
L 293.857696 308.432508 
" style="fill:none;stroke:#ffffff;stroke-linecap:round;"/>
     </g>
     <g id="text_9">
      <!-- $\mathdefault{−5}$ -->
      <g style="fill:#262626;" transform="translate(24.40464 312.237682)scale(0.11 -0.11)">
       <defs>
        <path d="M 65.90625 23 
C 67.59375 23 69.40625 23 69.40625 25 
C 69.40625 27 67.59375 27 65.90625 27 
L 11.796875 27 
C 10.09375 27 8.296875 27 8.296875 25 
C 8.296875 23 10.09375 23 11.796875 23 
z
" id="CMSY10-0"/>
       </defs>
       <use transform="scale(0.996264)" xlink:href="#CMSY10-0"/>
       <use transform="translate(77.487468 0)scale(0.996264)" xlink:href="#CMR17-53"/>
      </g>
     </g>
    </g>
    <g id="ytick_2">
     <g id="line2d_9">
      <path clip-path="url(#peed8c5d438)" d="M 47.907716 273.65638 
L 293.857696 273.65638 
" style="fill:none;stroke:#ffffff;stroke-linecap:round;"/>
     </g>
     <g id="text_10">
      <!-- $\mathdefault{−4}$ -->
      <g style="fill:#262626;" transform="translate(24.40464 277.461554)scale(0.11 -0.11)">
       <use transform="scale(0.996264)" xlink:href="#CMSY10-0"/>
       <use transform="translate(77.487468 0)scale(0.996264)" xlink:href="#CMR17-52"/>
      </g>
     </g>
    </g>
    <g id="ytick_3">
     <g id="line2d_10">
      <path clip-path="url(#peed8c5d438)" d="M 47.907716 238.880253 
L 293.857696 238.880253 
" style="fill:none;stroke:#ffffff;stroke-linecap:round;"/>
     </g>
     <g id="text_11">
      <!-- $\mathdefault{−3}$ -->
      <g style="fill:#262626;" transform="translate(24.40464 242.685426)scale(0.11 -0.11)">
       <use transform="scale(0.996264)" xlink:href="#CMSY10-0"/>
       <use transform="translate(77.487468 0)scale(0.996264)" xlink:href="#CMR17-51"/>
      </g>
     </g>
    </g>
    <g id="ytick_4">
     <g id="line2d_11">
      <path clip-path="url(#peed8c5d438)" d="M 47.907716 204.104125 
L 293.857696 204.104125 
" style="fill:none;stroke:#ffffff;stroke-linecap:round;"/>
     </g>
     <g id="text_12">
      <!-- $\mathdefault{−2}$ -->
      <g style="fill:#262626;" transform="translate(24.40464 207.909298)scale(0.11 -0.11)">
       <use transform="scale(0.996264)" xlink:href="#CMSY10-0"/>
       <use transform="translate(77.487468 0)scale(0.996264)" xlink:href="#CMR17-50"/>
      </g>
     </g>
    </g>
    <g id="ytick_5">
     <g id="line2d_12">
      <path clip-path="url(#peed8c5d438)" d="M 47.907716 169.327997 
L 293.857696 169.327997 
" style="fill:none;stroke:#ffffff;stroke-linecap:round;"/>
     </g>
     <g id="text_13">
      <!-- $\mathdefault{−1}$ -->
      <g style="fill:#262626;" transform="translate(24.40464 173.13317)scale(0.11 -0.11)">
       <use transform="scale(0.996264)" xlink:href="#CMSY10-0"/>
       <use transform="translate(77.487468 0)scale(0.996264)" xlink:href="#CMR17-49"/>
      </g>
     </g>
    </g>
    <g id="ytick_6">
     <g id="line2d_13">
      <path clip-path="url(#peed8c5d438)" d="M 47.907716 134.551869 
L 293.857696 134.551869 
" style="fill:none;stroke:#ffffff;stroke-linecap:round;"/>
     </g>
     <g id="text_14">
      <!-- $\mathdefault{0}$ -->
      <g style="fill:#262626;" transform="translate(32.928249 138.357043)scale(0.11 -0.11)">
       <use transform="scale(0.996264)" xlink:href="#CMR17-48"/>
      </g>
     </g>
    </g>
    <g id="ytick_7">
     <g id="line2d_14">
      <path clip-path="url(#peed8c5d438)" d="M 47.907716 99.775741 
L 293.857696 99.775741 
" style="fill:none;stroke:#ffffff;stroke-linecap:round;"/>
     </g>
     <g id="text_15">
      <!-- $\mathdefault{1}$ -->
      <g style="fill:#262626;" transform="translate(32.928249 103.580915)scale(0.11 -0.11)">
       <use transform="scale(0.996264)" xlink:href="#CMR17-49"/>
      </g>
     </g>
    </g>
    <g id="ytick_8">
     <g id="line2d_15">
      <path clip-path="url(#peed8c5d438)" d="M 47.907716 64.999614 
L 293.857696 64.999614 
" style="fill:none;stroke:#ffffff;stroke-linecap:round;"/>
     </g>
     <g id="text_16">
      <!-- $\mathdefault{2}$ -->
      <g style="fill:#262626;" transform="translate(32.928249 68.804787)scale(0.11 -0.11)">
       <use transform="scale(0.996264)" xlink:href="#CMR17-50"/>
      </g>
     </g>
    </g>
    <g id="text_17">
     <!-- $\overset{\sim}{X}_2$ -->
     <g style="fill:#262626;" transform="translate(12.96 184.391465)scale(0.12 -0.12)">
      <use transform="translate(17.275792 73.035428)scale(0.697382)" xlink:href="#CMSY10-24"/>
      <use transform="scale(0.996264)" xlink:href="#CMMI12-88"/>
      <use transform="translate(88.792562 -14.943915)scale(0.697382)" xlink:href="#CMR17-50"/>
     </g>
    </g>
   </g>
   <g id="PolyCollection_1">
    <defs>
     <path d="M 139.665176 -97.882729 
L 139.665176 -353.013532 
L 47.907716 -480.578933 
L -43.849744 -353.013532 
L -43.849744 -97.882729 
L 47.907716 29.682672 
z
" id="C0_0_d81c489c0c"/>
    </defs>
    <g clip-path="url(#peed8c5d438)">
     <use style="fill:none;" x="0.243672" xlink:href="#C0_0_d81c489c0c" y="1031.569347"/>
    </g>
    <g clip-path="url(#peed8c5d438)">
     <use style="fill:none;" x="0.243672" xlink:href="#C0_0_d81c489c0c" y="266.176939"/>
    </g>
    <g clip-path="url(#peed8c5d438)">
     <use style="fill:none;" x="183.758592" xlink:href="#C0_0_d81c489c0c" y="1031.569347"/>
    </g>
    <g clip-path="url(#peed8c5d438)">
     <use style="fill:none;" x="183.758592" xlink:href="#C0_0_d81c489c0c" y="266.176939"/>
    </g>
    <g clip-path="url(#peed8c5d438)">
     <use style="fill:none;" x="367.273513" xlink:href="#C0_0_d81c489c0c" y="1031.569347"/>
    </g>
    <g clip-path="url(#peed8c5d438)">
     <use style="fill:none;" x="367.273513" xlink:href="#C0_0_d81c489c0c" y="266.176939"/>
    </g>
    <g clip-path="url(#peed8c5d438)">
     <use style="fill:none;" x="92.001132" xlink:href="#C0_0_d81c489c0c" y="648.873143"/>
    </g>
    <g clip-path="url(#peed8c5d438)">
     <use style="fill:none;" x="275.516052" xlink:href="#C0_0_d81c489c0c" y="648.873143"/>
    </g>
   </g>
   <g id="LineCollection_1">
    <path clip-path="url(#peed8c5d438)" d="M 63.925304 296.179233 
L 65.864506 298.40812 
L 67.803709 299.128091 
L 69.742911 299.37867 
L 71.682114 299.108954 
L 73.621316 297.768679 
L 75.912875 295.446072 
L 77.499721 294.127841 
L 81.378125 290.022459 
L 85.25653 284.961395 
L 86.15603 283.632631 
L 93.013339 275.203092 
L 98.830947 267.338189 
L 117.703017 244.254496 
L 118.22297 243.698575 
L 127.918982 232.343569 
L 129.858184 230.420542 
L 131.797387 228.225796 
L 133.736589 226.310192 
L 142.577522 216.689801 
L 143.432601 215.892182 
L 155.067815 204.090839 
L 160.885422 198.494309 
L 162.824624 196.5237 
L 168.642231 191.481931 
L 171.040571 189.125106 
L 172.520636 187.847478 
L 175.029674 185.187292 
L 176.399041 183.983299 
L 180.277446 180.285723 
L 182.216648 178.675692 
L 184.15585 176.912512 
L 188.034255 173.745823 
L 188.45694 173.373852 
L 191.91266 170.716778 
L 193.851862 169.049805 
L 199.669469 164.306226 
L 213.243886 153.018741 
L 230.696707 139.125781 
L 232.635909 137.465277 
L 234.575112 136.02804 
L 237.046893 133.995716 
L 240.392719 131.664949 
L 246.210326 126.958608 
L 265.602349 110.329017 
L 269.775338 106.431021 
L 273.60253 102.493208 
L 277.237563 97.762249 
L 279.251824 94.617581 
L 280.897163 90.679767 
L 281.486804 86.741954 
L 281.115968 85.76515 
L 279.793841 82.80414 
L 279.176766 82.255484 
L 277.237563 80.844481 
L 271.419956 78.394266 
L 269.480754 77.750317 
L 267.541552 77.288661 
L 263.663147 76.724243 
L 253.967135 75.629267 
L 250.08873 75.543307 
L 244.271123 75.576592 
L 230.696707 75.853002 
L 224.8791 76.388628 
L 211.304683 77.630241 
L 205.487076 78.467728 
L 201.608671 78.975801 
L 195.791064 79.631256 
L 184.15585 81.506693 
L 180.277446 82.333741 
L 178.338243 82.812267 
L 172.520636 83.829828 
L 168.642231 84.660208 
L 160.885422 86.75125 
L 158.94622 87.091505 
L 155.067815 88.104787 
L 141.493398 92.20516 
L 139.554196 92.903757 
L 135.65114 94.617581 
L 131.797387 95.910737 
L 129.858184 96.658868 
L 122.101375 100.159558 
L 120.162172 101.185277 
L 117.954941 102.493208 
L 116.283768 103.203687 
L 114.344565 104.156776 
L 112.405363 105.237189 
L 110.466161 106.497266 
L 108.526958 107.568905 
L 106.587756 108.78596 
L 104.514856 110.368835 
L 102.709351 111.455473 
L 100.770149 112.905039 
L 98.830947 114.583053 
L 96.891744 116.0679 
L 94.620756 118.244462 
L 93.013339 119.584895 
L 89.134935 123.648745 
L 83.317328 130.820205 
L 81.123032 133.995716 
L 78.803287 137.93353 
L 74.726126 145.809157 
L 72.954755 149.74697 
L 71.372476 153.684784 
L 68.687355 161.560411 
L 66.627385 169.436038 
L 64.112614 181.249479 
L 63.463196 185.187292 
L 62.247343 193.062919 
L 61.460321 200.938547 
L 60.944155 204.87636 
L 60.046899 216.757002 
L 59.245682 228.503241 
L 58.93697 252.130123 
L 59.034134 256.067936 
L 59.29005 260.00575 
L 59.555138 267.881377 
L 60.046899 274.254263 
L 61.487418 287.570445 
L 61.986102 289.962453 
L 63.925304 296.179233 
L 63.925304 296.179233 
" style="fill:none;stroke:#440154;stroke-width:1.5;"/>
   </g>
   <g id="LineCollection_2">
    <path clip-path="url(#peed8c5d438)" d="M 77.499721 252.158248 
L 79.438923 252.114032 
L 81.378125 251.794989 
L 83.317328 250.975091 
L 85.25653 249.755168 
L 87.285605 248.192309 
L 91.074137 244.931354 
L 91.75476 244.254496 
L 98.830947 238.013624 
L 110.466161 226.526741 
L 112.405363 224.472249 
L 114.344565 222.838336 
L 116.616135 220.627614 
L 118.22297 219.317743 
L 122.101375 215.590094 
L 129.858184 207.836239 
L 135.675791 202.636529 
L 141.602543 197.000733 
L 153.128613 186.709416 
L 155.067815 184.876858 
L 160.885422 179.69884 
L 164.763827 176.242599 
L 178.338243 164.812336 
L 184.15585 160.041014 
L 191.91266 153.572576 
L 197.730267 148.987338 
L 203.547874 144.322147 
L 207.426279 141.181259 
L 213.243886 136.586468 
L 228.757504 123.605703 
L 234.680725 118.244462 
L 240.392719 112.486821 
L 242.345139 110.368835 
L 245.640182 106.431021 
L 246.210326 105.445229 
L 248.149528 102.493208 
L 249.506789 98.555394 
L 249.316029 94.617581 
L 248.149528 92.84356 
L 246.141331 90.679767 
L 244.271123 89.758193 
L 242.331921 88.989026 
L 238.453516 87.804155 
L 236.514314 87.328072 
L 234.575112 86.988374 
L 230.696707 86.689262 
L 221.000695 86.384124 
L 215.183088 86.259282 
L 211.304683 86.473011 
L 193.851862 88.176236 
L 186.095053 89.231212 
L 180.277446 90.286821 
L 176.399041 91.008336 
L 172.520636 91.734265 
L 166.703029 93.028618 
L 162.824624 94.067934 
L 160.885422 94.667529 
L 155.067815 96.159182 
L 151.18941 97.325057 
L 143.432601 99.897238 
L 139.554196 101.29958 
L 135.675791 102.885733 
L 131.797387 104.477198 
L 124.040577 108.135001 
L 118.22297 111.314714 
L 114.344565 113.760997 
L 112.405363 114.98711 
L 110.466161 116.234715 
L 104.648554 120.515386 
L 100.770149 123.936098 
L 96.891744 127.760791 
L 91.636888 133.995716 
L 88.641945 137.93353 
L 85.25653 143.275338 
L 81.695401 149.74697 
L 79.438923 154.559638 
L 77.499721 159.408049 
L 76.715586 161.560411 
L 73.621316 171.898917 
L 73.214658 173.373852 
L 71.539028 181.249479 
L 70.226587 189.125106 
L 69.742911 193.59344 
L 69.244077 197.000733 
L 68.496552 204.87636 
L 68.19799 208.814174 
L 67.918491 220.627614 
L 68.15272 228.503241 
L 68.896176 236.378869 
L 69.742911 241.64648 
L 70.577987 244.254496 
L 71.682114 246.766972 
L 73.621316 250.396196 
L 75.560518 251.877198 
L 77.499721 252.158248 
L 77.499721 252.158248 
" style="fill:none;stroke:#482979;stroke-width:1.5;"/>
   </g>
   <g id="LineCollection_3">
    <path clip-path="url(#peed8c5d438)" d="M 83.317328 229.337112 
L 85.25653 229.530992 
L 87.195732 229.194456 
L 89.215134 228.503241 
L 91.074137 227.707885 
L 93.013339 226.716538 
L 94.952542 225.597951 
L 98.830947 222.901212 
L 106.587756 216.47963 
L 111.331831 212.751987 
L 116.283768 208.618616 
L 122.101375 203.324706 
L 124.483671 200.938547 
L 127.918982 198.026649 
L 129.858184 196.394384 
L 135.675791 191.60667 
L 145.371803 183.130065 
L 157.007017 173.144029 
L 166.703029 165.033353 
L 172.520636 160.266293 
L 188.034255 147.761865 
L 193.851862 143.093104 
L 199.888269 137.93353 
L 204.445898 133.995716 
L 207.426279 131.491292 
L 211.304683 128.309887 
L 213.714735 126.120089 
L 225.511868 114.306648 
L 228.385346 110.368835 
L 230.431006 106.431021 
L 230.696707 105.483527 
L 231.724283 102.493208 
L 230.696707 99.678678 
L 230.108138 98.555394 
L 226.818302 96.034174 
L 224.492887 94.617581 
L 222.939897 94.223872 
L 221.000695 93.890433 
L 211.304683 92.827421 
L 207.426279 92.83791 
L 193.851862 93.394177 
L 189.973457 93.860644 
L 184.15585 94.676929 
L 180.277446 95.209749 
L 174.459838 96.250574 
L 166.703029 97.888983 
L 158.94622 99.850643 
L 153.128613 101.554304 
L 143.432601 104.745455 
L 133.736589 108.643226 
L 127.918982 111.487615 
L 124.040577 113.585762 
L 114.344565 119.580986 
L 110.466161 122.351855 
L 108.526958 123.831179 
L 104.648554 127.196621 
L 100.770149 131.086994 
L 96.891744 135.441809 
L 94.909459 137.93353 
L 92.181105 141.871343 
L 89.134935 146.758064 
L 87.195732 150.147824 
L 85.25653 153.755918 
L 83.317328 158.017447 
L 80.633967 165.498225 
L 79.438923 169.454296 
L 77.499721 177.62698 
L 76.059224 185.187292 
L 74.813535 197.000733 
L 74.560663 200.938547 
L 74.515894 204.87636 
L 74.684626 208.814174 
L 75.560518 216.815122 
L 76.517255 220.627614 
L 77.499721 223.43738 
L 79.438923 226.510259 
L 81.378125 228.503241 
L 83.317328 229.337112 
L 83.317328 229.337112 
" style="fill:none;stroke:#3d4d8a;stroke-width:1.5;"/>
   </g>
   <g id="LineCollection_4">
    <path clip-path="url(#peed8c5d438)" d="M 89.134935 213.266459 
L 91.074137 213.921621 
L 93.013339 213.783787 
L 94.952542 213.19969 
L 96.891744 212.293607 
L 104.648554 207.674813 
L 108.653108 204.87636 
L 112.405363 202.039893 
L 116.283768 199.023044 
L 120.162172 196.148633 
L 125.97978 191.480139 
L 137.614994 181.962805 
L 141.493398 178.666372 
L 147.772284 173.373852 
L 151.18941 170.52537 
L 153.128613 168.863718 
L 162.824624 161.109555 
L 166.703029 157.930248 
L 168.642231 156.373984 
L 184.15585 143.614885 
L 186.158887 141.871343 
L 188.034255 140.489023 
L 193.851862 135.66032 
L 203.547874 126.764124 
L 205.487076 124.888606 
L 208.241563 122.182276 
L 211.692104 118.244462 
L 214.596702 114.306648 
L 215.183088 113.179681 
L 216.777367 110.368835 
L 217.746923 106.431021 
L 217.12229 104.714114 
L 215.829529 102.493208 
L 215.183088 102.094443 
L 213.243886 101.149075 
L 209.365481 99.580063 
L 207.426279 98.995521 
L 205.487076 98.676993 
L 201.608671 98.472732 
L 193.851862 98.239784 
L 189.973457 98.332655 
L 186.095053 98.704702 
L 174.459838 100.314437 
L 168.642231 101.502486 
L 162.824624 102.794775 
L 155.067815 104.856477 
L 149.250208 106.598583 
L 145.371803 107.887378 
L 141.493398 109.43052 
L 131.797387 113.767798 
L 125.97978 116.729302 
L 122.101375 119.117484 
L 117.482063 122.182276 
L 114.344565 124.381054 
L 110.466161 127.490584 
L 106.587756 130.979125 
L 103.555061 133.995716 
L 100.770149 137.19259 
L 98.830947 139.632297 
L 94.529362 145.809157 
L 92.091432 149.74697 
L 89.134935 155.424588 
L 88.093724 157.622597 
L 86.552057 161.560411 
L 85.182651 165.498225 
L 84.027474 169.436038 
L 83.080455 173.373852 
L 81.642361 181.249479 
L 81.117621 185.187292 
L 80.769079 189.125106 
L 80.616939 193.062919 
L 80.835963 197.000733 
L 81.378125 201.46367 
L 82.028874 204.87636 
L 83.317328 208.814174 
L 85.25653 210.881629 
L 89.134935 213.266459 
L 89.134935 213.266459 
" style="fill:none;stroke:#2f6b8e;stroke-width:1.5;"/>
   </g>
   <g id="LineCollection_5">
    <path clip-path="url(#peed8c5d438)" d="M 93.013339 201.206642 
L 94.952542 201.694887 
L 96.891744 201.714951 
L 98.830947 201.391167 
L 100.770149 200.808634 
L 102.709351 200.01146 
L 106.587756 198.024047 
L 112.405363 194.361324 
L 118.22297 190.363549 
L 122.101375 187.496376 
L 133.736589 178.771134 
L 139.554196 174.064905 
L 141.493398 172.499875 
L 149.250208 166.39284 
L 155.067815 161.539638 
L 160.885422 157.017773 
L 166.703029 152.285642 
L 174.646674 145.809157 
L 179.404515 141.871343 
L 184.15585 137.636702 
L 189.973457 132.380432 
L 197.730267 124.652709 
L 200.037905 122.182276 
L 203.216784 118.244462 
L 203.547874 117.583975 
L 205.487076 114.001122 
L 206.244959 110.368835 
L 205.487076 108.198054 
L 204.612511 106.431021 
L 203.547874 105.773932 
L 201.608671 104.926159 
L 199.669469 104.310817 
L 197.730267 103.909177 
L 191.91266 103.262723 
L 188.034255 102.93107 
L 184.15585 103.007487 
L 178.338243 103.586692 
L 172.520636 104.376501 
L 166.703029 105.455597 
L 160.885422 106.730579 
L 153.128613 108.775583 
L 147.311005 110.58504 
L 143.432601 112.058459 
L 137.614994 114.597215 
L 131.797387 117.393984 
L 125.97978 120.448734 
L 122.101375 122.945526 
L 116.283768 127.189841 
L 112.405363 130.403409 
L 108.525696 133.995716 
L 104.648554 137.999176 
L 100.770149 142.835427 
L 98.630659 145.809157 
L 96.205237 149.74697 
L 94.101442 153.684784 
L 92.276767 157.622597 
L 90.790979 161.560411 
L 89.134935 166.760099 
L 88.364893 169.436038 
L 86.815643 177.311665 
L 86.141962 185.187292 
L 86.19608 189.125106 
L 87.195732 193.34571 
L 89.134935 197.393903 
L 91.074137 199.886441 
L 93.013339 201.206642 
L 93.013339 201.206642 
" style="fill:none;stroke:#25858e;stroke-width:1.5;"/>
   </g>
   <g id="LineCollection_6">
    <path clip-path="url(#peed8c5d438)" d="M 96.891744 189.985104 
L 98.830947 190.498141 
L 100.770149 190.576149 
L 102.709351 190.374166 
L 104.648554 189.965203 
L 107.163854 189.125106 
L 108.526958 188.626487 
L 112.405363 186.813337 
L 116.283768 184.812974 
L 120.162172 182.415452 
L 125.97978 178.230428 
L 127.918982 176.781212 
L 133.736589 172.697226 
L 139.554196 168.331938 
L 145.371803 163.812946 
L 149.250208 160.852901 
L 153.5322 157.622597 
L 167.943036 145.809157 
L 172.642472 141.871343 
L 178.338243 136.642296 
L 185.225754 130.057903 
L 189.973457 124.531225 
L 191.91266 121.960379 
L 194.127932 118.244462 
L 195.166069 114.306648 
L 193.851862 111.549946 
L 192.923648 110.368835 
L 191.91266 109.948423 
L 188.034255 108.876449 
L 184.15585 107.954655 
L 182.216648 107.779946 
L 178.338243 107.925406 
L 170.581434 108.66799 
L 166.703029 109.182419 
L 162.824624 109.953284 
L 157.007017 111.254694 
L 151.18941 112.817156 
L 146.642617 114.306648 
L 143.432601 115.576655 
L 137.378249 118.244462 
L 131.797387 120.972237 
L 127.918982 123.068882 
L 124.040577 125.491191 
L 120.162172 128.358519 
L 116.283768 131.509811 
L 113.431609 133.995716 
L 109.513786 137.93353 
L 106.156394 141.871343 
L 102.709351 146.599982 
L 100.725432 149.74697 
L 98.455619 153.684784 
L 96.632077 157.622597 
L 94.952542 162.472858 
L 94.031874 165.498225 
L 93.013339 170.837126 
L 92.605493 173.373852 
L 92.276542 177.311665 
L 92.272202 181.249479 
L 93.013339 185.397011 
L 94.952542 188.64121 
L 95.470793 189.125106 
L 96.891744 189.985104 
L 96.891744 189.985104 
" style="fill:none;stroke:#1fa188;stroke-width:1.5;"/>
   </g>
   <g id="LineCollection_7">
    <path clip-path="url(#peed8c5d438)" d="M 106.587756 181.417105 
L 108.526958 181.249479 
L 110.466161 180.596067 
L 112.405363 179.813154 
L 114.344565 178.985301 
L 116.283768 178.119241 
L 117.88864 177.311665 
L 118.22297 177.149098 
L 120.162172 176.139919 
L 122.101375 175.08192 
L 124.040577 173.931034 
L 124.881722 173.373852 
L 125.97978 172.680251 
L 127.918982 171.412913 
L 129.858184 170.073852 
L 130.74535 169.436038 
L 131.797387 168.707107 
L 133.736589 167.356379 
L 135.675791 165.89516 
L 136.206986 165.498225 
L 137.614994 164.491579 
L 139.554196 163.078317 
L 141.493398 161.663928 
L 141.636458 161.560411 
L 143.432601 160.265106 
L 145.371803 158.78691 
L 146.923345 157.622597 
L 147.311005 157.331486 
L 149.250208 155.846195 
L 151.18941 154.319743 
L 151.978534 153.684784 
L 153.128613 152.786499 
L 155.067815 151.182371 
L 156.731457 149.74697 
L 157.007017 149.522392 
L 158.94622 147.960702 
L 160.885422 146.347465 
L 161.532516 145.809157 
L 162.824624 144.740697 
L 164.763827 143.141216 
L 166.30481 141.871343 
L 166.703029 141.507967 
L 168.642231 139.789744 
L 170.581434 138.060493 
L 170.718725 137.93353 
L 172.520636 135.9446 
L 174.459838 133.99978 
L 174.464066 133.995716 
L 176.399041 131.78284 
L 178.211254 130.057903 
L 178.338243 129.899671 
L 180.277446 127.397593 
L 181.355689 126.120089 
L 182.216648 124.701195 
L 183.837513 122.182276 
L 184.15585 120.748459 
L 184.862503 118.244462 
L 184.15585 117.077173 
L 182.216648 114.903095 
L 181.524682 114.306648 
L 180.277446 113.761723 
L 178.338243 113.255029 
L 176.399041 113.013641 
L 174.459838 112.9133 
L 172.520636 112.897534 
L 170.581434 112.928617 
L 168.642231 113.008907 
L 166.703029 113.12507 
L 164.763827 113.311182 
L 162.824624 113.619995 
L 160.885422 114.006559 
L 159.449661 114.306648 
L 158.94622 114.423479 
L 157.007017 114.879149 
L 155.067815 115.321018 
L 153.128613 115.767613 
L 151.18941 116.254945 
L 149.250208 116.813578 
L 147.311005 117.480848 
L 145.371803 118.220109 
L 145.308573 118.244462 
L 143.432601 118.995741 
L 141.493398 119.828369 
L 139.554196 120.688255 
L 137.614994 121.550423 
L 136.227153 122.182276 
L 135.675791 122.454787 
L 133.736589 123.446567 
L 131.797387 124.475901 
L 129.858184 125.556965 
L 128.883532 126.120089 
L 127.918982 126.738494 
L 125.97978 127.99502 
L 124.040577 129.298218 
L 122.967547 130.057903 
L 122.101375 130.749913 
L 120.162172 132.35979 
L 118.22297 133.981387 
L 118.205736 133.995716 
L 116.283768 135.837068 
L 114.344565 137.650378 
L 114.045679 137.93353 
L 112.405363 139.74383 
L 110.554481 141.871343 
L 110.466161 141.984161 
L 108.526958 144.544723 
L 107.577846 145.809157 
L 106.587756 147.303653 
L 104.913179 149.74697 
L 104.648554 150.26363 
L 102.72906 153.684784 
L 102.709351 153.731578 
L 101.062316 157.622597 
L 100.770149 158.478095 
L 99.735689 161.560411 
L 98.846885 165.498225 
L 98.830947 165.6494 
L 98.424329 169.436038 
L 98.575235 173.373852 
L 98.830947 175.069348 
L 99.296919 177.311665 
L 100.770149 179.618194 
L 102.709351 180.755965 
L 104.648554 181.209236 
L 104.957214 181.249479 
L 106.587756 181.417105 
" style="fill:none;stroke:#38b977;stroke-width:1.5;"/>
   </g>
   <g id="LineCollection_8">
    <path clip-path="url(#peed8c5d438)" d="M 108.526958 170.60921 
L 110.466161 171.307327 
L 112.405363 171.394962 
L 114.344565 171.157102 
L 116.283768 170.794539 
L 118.22297 170.280333 
L 120.162172 169.565631 
L 120.445017 169.436038 
L 122.101375 168.682988 
L 124.040577 167.773837 
L 125.97978 166.756269 
L 127.918982 165.61224 
L 128.102604 165.498225 
L 129.858184 164.400609 
L 131.797387 163.170148 
L 133.736589 161.885541 
L 134.196498 161.560411 
L 135.675791 160.479725 
L 137.614994 159.077756 
L 139.554196 157.681609 
L 139.635958 157.622597 
L 141.493398 156.199849 
L 143.432601 154.833206 
L 145.096056 153.684784 
L 145.371803 153.473879 
L 147.311005 151.974975 
L 149.250208 150.541189 
L 150.326623 149.74697 
L 151.18941 149.038054 
L 153.128613 147.4315 
L 155.067815 145.894409 
L 155.169928 145.809157 
L 157.007017 144.033479 
L 158.94622 142.392584 
L 159.58643 141.871343 
L 160.885422 140.586668 
L 162.824624 138.827495 
L 163.826078 137.93353 
L 164.763827 136.875159 
L 166.703029 134.770898 
L 167.417687 133.995716 
L 168.642231 132.378472 
L 170.581434 130.057903 
L 172.520636 126.879178 
L 173.100058 126.120089 
L 173.530228 122.182276 
L 172.520636 120.836643 
L 170.581434 119.304116 
L 168.642231 118.5907 
L 166.703029 118.318042 
L 164.763827 118.254586 
L 164.360173 118.244462 
L 162.824624 118.218749 
L 162.443976 118.244462 
L 160.885422 118.377778 
L 158.94622 118.767072 
L 157.007017 119.190291 
L 155.067815 119.606302 
L 153.128613 119.985861 
L 151.18941 120.337833 
L 149.250208 120.768858 
L 147.311005 121.321462 
L 145.371803 121.969952 
L 144.838513 122.182276 
L 143.432601 122.830641 
L 141.493398 123.70862 
L 139.554196 124.574849 
L 137.614994 125.451869 
L 136.16927 126.120089 
L 135.675791 126.389169 
L 133.736589 127.506844 
L 131.797387 128.657548 
L 129.858184 129.789672 
L 129.412862 130.057903 
L 127.918982 131.083701 
L 125.97978 132.46207 
L 124.040577 133.893538 
L 123.905012 133.995716 
L 122.101375 135.573228 
L 120.162172 137.331943 
L 119.506906 137.93353 
L 118.22297 139.235053 
L 116.283768 141.150135 
L 115.593241 141.871343 
L 114.344565 143.403651 
L 112.405363 145.747593 
L 112.357187 145.809157 
L 110.466161 148.938462 
L 109.943618 149.74697 
L 108.526958 152.756812 
L 108.077807 153.684784 
L 106.646164 157.622597 
L 106.587756 157.913622 
L 105.807855 161.560411 
L 105.702021 165.498225 
L 106.587756 168.44877 
L 107.061907 169.436038 
L 108.526958 170.60921 
" style="fill:none;stroke:#70cf57;stroke-width:1.5;"/>
   </g>
   <g id="LineCollection_9">
    <path clip-path="url(#peed8c5d438)" d="M 116.283768 159.743213 
L 118.22297 160.642549 
L 120.162172 161.219424 
L 122.101375 161.147113 
L 124.040577 160.48972 
L 125.97978 159.628308 
L 127.918982 158.66273 
L 129.858184 157.706446 
L 130.022117 157.622597 
L 131.797387 156.581128 
L 133.736589 155.352266 
L 135.675791 154.139924 
L 136.402181 153.684784 
L 137.614994 152.864248 
L 139.554196 151.52372 
L 141.493398 150.191782 
L 142.112205 149.74697 
L 143.432601 148.694706 
L 145.371803 147.197926 
L 147.235299 145.809157 
L 147.311005 145.739302 
L 149.250208 144.016211 
L 151.18941 142.36723 
L 151.771075 141.871343 
L 153.128613 140.447762 
L 155.067815 138.466281 
L 155.61311 137.93353 
L 157.007017 136.19224 
L 158.94622 134.013998 
L 158.963421 133.995716 
L 160.885422 130.536357 
L 161.210506 130.057903 
L 160.885422 126.120089 
L 158.94622 125.402698 
L 157.007017 125.094998 
L 155.067815 125.097454 
L 153.128613 125.331451 
L 151.18941 125.615279 
L 149.250208 125.799164 
L 147.311005 126.048386 
L 147.030887 126.120089 
L 145.371803 126.75742 
L 143.432601 127.571355 
L 141.493398 128.39872 
L 139.554196 129.239859 
L 137.644864 130.057903 
L 137.614994 130.075144 
L 135.675791 131.280177 
L 133.736589 132.458829 
L 131.797387 133.640402 
L 131.212709 133.995716 
L 129.858184 135.058995 
L 127.918982 136.447032 
L 125.97978 137.802514 
L 125.814352 137.93353 
L 124.040577 139.880626 
L 122.101375 141.791374 
L 122.017087 141.871343 
L 120.162172 144.276115 
L 118.82423 145.809157 
L 118.22297 146.802662 
L 116.322993 149.74697 
L 116.283768 149.872821 
L 115.056532 153.684784 
L 114.444644 157.622597 
L 116.283768 159.743213 
" style="fill:none;stroke:#b8de29;stroke-width:1.5;"/>
   </g>
   <g id="LineCollection_10"/>
  </g>
  <g id="axes_2">
   <g id="patch_3">
    <path d="M 47.907716 48.23444 
L 293.857696 48.23444 
L 293.857696 12.96 
L 47.907716 12.96 
z
" style="fill:none;opacity:0;"/>
   </g>
   <g id="matplotlib.axis_3">
    <g id="xtick_8">
     <g id="line2d_16">
      <path clip-path="url(#pe325f134e0)" d="M 47.907716 48.23444 
L 47.907716 12.96 
" style="fill:none;stroke:#ffffff;stroke-linecap:round;"/>
     </g>
    </g>
    <g id="xtick_9">
     <g id="line2d_17">
      <path clip-path="url(#pe325f134e0)" d="M 88.899379 48.23444 
L 88.899379 12.96 
" style="fill:none;stroke:#ffffff;stroke-linecap:round;"/>
     </g>
    </g>
    <g id="xtick_10">
     <g id="line2d_18">
      <path clip-path="url(#pe325f134e0)" d="M 129.891043 48.23444 
L 129.891043 12.96 
" style="fill:none;stroke:#ffffff;stroke-linecap:round;"/>
     </g>
    </g>
    <g id="xtick_11">
     <g id="line2d_19">
      <path clip-path="url(#pe325f134e0)" d="M 170.882706 48.23444 
L 170.882706 12.96 
" style="fill:none;stroke:#ffffff;stroke-linecap:round;"/>
     </g>
    </g>
    <g id="xtick_12">
     <g id="line2d_20">
      <path clip-path="url(#pe325f134e0)" d="M 211.874369 48.23444 
L 211.874369 12.96 
" style="fill:none;stroke:#ffffff;stroke-linecap:round;"/>
     </g>
    </g>
    <g id="xtick_13">
     <g id="line2d_21">
      <path clip-path="url(#pe325f134e0)" d="M 252.866033 48.23444 
L 252.866033 12.96 
" style="fill:none;stroke:#ffffff;stroke-linecap:round;"/>
     </g>
    </g>
    <g id="xtick_14">
     <g id="line2d_22">
      <path clip-path="url(#pe325f134e0)" d="M 293.857696 48.23444 
L 293.857696 12.96 
" style="fill:none;stroke:#ffffff;stroke-linecap:round;"/>
     </g>
    </g>
   </g>
   <g id="matplotlib.axis_4">
    <g id="ytick_9"/>
    <g id="ytick_10"/>
   </g>
   <g id="patch_4">
    <path clip-path="url(#pe325f134e0)" d="M 48.151388 48.23444 
L 60.385716 48.23444 
L 60.385716 46.634144 
L 48.151388 46.634144 
z
" style="fill:#1f77b4;fill-opacity:0.75;stroke:#ffffff;stroke-linejoin:miter;"/>
   </g>
   <g id="patch_5">
    <path clip-path="url(#pe325f134e0)" d="M 60.385716 48.23444 
L 72.620044 48.23444 
L 72.620044 39.722249 
L 60.385716 39.722249 
z
" style="fill:#1f77b4;fill-opacity:0.75;stroke:#ffffff;stroke-linejoin:miter;"/>
   </g>
   <g id="patch_6">
    <path clip-path="url(#pe325f134e0)" d="M 72.620044 48.23444 
L 84.854372 48.23444 
L 84.854372 30.877973 
L 72.620044 30.877973 
z
" style="fill:#1f77b4;fill-opacity:0.75;stroke:#ffffff;stroke-linejoin:miter;"/>
   </g>
   <g id="patch_7">
    <path clip-path="url(#pe325f134e0)" d="M 84.854372 48.23444 
L 97.0887 48.23444 
L 97.0887 22.990298 
L 84.854372 22.990298 
z
" style="fill:#1f77b4;fill-opacity:0.75;stroke:#ffffff;stroke-linejoin:miter;"/>
   </g>
   <g id="patch_8">
    <path clip-path="url(#pe325f134e0)" d="M 97.0887 48.23444 
L 109.323028 48.23444 
L 109.323028 17.5779 
L 97.0887 17.5779 
z
" style="fill:#1f77b4;fill-opacity:0.75;stroke:#ffffff;stroke-linejoin:miter;"/>
   </g>
   <g id="patch_9">
    <path clip-path="url(#pe325f134e0)" d="M 109.323028 48.23444 
L 121.557356 48.23444 
L 121.557356 14.847633 
L 109.323028 14.847633 
z
" style="fill:#1f77b4;fill-opacity:0.75;stroke:#ffffff;stroke-linejoin:miter;"/>
   </g>
   <g id="patch_10">
    <path clip-path="url(#pe325f134e0)" d="M 121.557356 48.23444 
L 133.791684 48.23444 
L 133.791684 14.639735 
L 121.557356 14.639735 
z
" style="fill:#1f77b4;fill-opacity:0.75;stroke:#ffffff;stroke-linejoin:miter;"/>
   </g>
   <g id="patch_11">
    <path clip-path="url(#pe325f134e0)" d="M 133.791684 48.23444 
L 146.026012 48.23444 
L 146.026012 16.378999 
L 133.791684 16.378999 
z
" style="fill:#1f77b4;fill-opacity:0.75;stroke:#ffffff;stroke-linejoin:miter;"/>
   </g>
   <g id="patch_12">
    <path clip-path="url(#pe325f134e0)" d="M 146.026012 48.23444 
L 158.26034 48.23444 
L 158.26034 19.520188 
L 146.026012 19.520188 
z
" style="fill:#1f77b4;fill-opacity:0.75;stroke:#ffffff;stroke-linejoin:miter;"/>
   </g>
   <g id="patch_13">
    <path clip-path="url(#pe325f134e0)" d="M 158.26034 48.23444 
L 170.494668 48.23444 
L 170.494668 23.404163 
L 158.26034 23.404163 
z
" style="fill:#1f77b4;fill-opacity:0.75;stroke:#ffffff;stroke-linejoin:miter;"/>
   </g>
   <g id="patch_14">
    <path clip-path="url(#pe325f134e0)" d="M 170.494668 48.23444 
L 182.728996 48.23444 
L 182.728996 27.576042 
L 170.494668 27.576042 
z
" style="fill:#1f77b4;fill-opacity:0.75;stroke:#ffffff;stroke-linejoin:miter;"/>
   </g>
   <g id="patch_15">
    <path clip-path="url(#pe325f134e0)" d="M 182.728996 48.23444 
L 194.963324 48.23444 
L 194.963324 31.620885 
L 182.728996 31.620885 
z
" style="fill:#1f77b4;fill-opacity:0.75;stroke:#ffffff;stroke-linejoin:miter;"/>
   </g>
   <g id="patch_16">
    <path clip-path="url(#pe325f134e0)" d="M 194.963324 48.23444 
L 207.197652 48.23444 
L 207.197652 35.281328 
L 194.963324 35.281328 
z
" style="fill:#1f77b4;fill-opacity:0.75;stroke:#ffffff;stroke-linejoin:miter;"/>
   </g>
   <g id="patch_17">
    <path clip-path="url(#pe325f134e0)" d="M 207.197652 48.23444 
L 219.43198 48.23444 
L 219.43198 38.504929 
L 207.197652 38.504929 
z
" style="fill:#1f77b4;fill-opacity:0.75;stroke:#ffffff;stroke-linejoin:miter;"/>
   </g>
   <g id="patch_18">
    <path clip-path="url(#pe325f134e0)" d="M 219.43198 48.23444 
L 231.666308 48.23444 
L 231.666308 41.149936 
L 219.43198 41.149936 
z
" style="fill:#1f77b4;fill-opacity:0.75;stroke:#ffffff;stroke-linejoin:miter;"/>
   </g>
   <g id="patch_19">
    <path clip-path="url(#pe325f134e0)" d="M 231.666308 48.23444 
L 243.900636 48.23444 
L 243.900636 43.253662 
L 231.666308 43.253662 
z
" style="fill:#1f77b4;fill-opacity:0.75;stroke:#ffffff;stroke-linejoin:miter;"/>
   </g>
   <g id="patch_20">
    <path clip-path="url(#pe325f134e0)" d="M 243.900636 48.23444 
L 256.134964 48.23444 
L 256.134964 44.861174 
L 243.900636 44.861174 
z
" style="fill:#1f77b4;fill-opacity:0.75;stroke:#ffffff;stroke-linejoin:miter;"/>
   </g>
   <g id="patch_21">
    <path clip-path="url(#pe325f134e0)" d="M 256.134964 48.23444 
L 268.369292 48.23444 
L 268.369292 46.039124 
L 256.134964 46.039124 
z
" style="fill:#1f77b4;fill-opacity:0.75;stroke:#ffffff;stroke-linejoin:miter;"/>
   </g>
   <g id="patch_22">
    <path clip-path="url(#pe325f134e0)" d="M 268.369292 48.23444 
L 280.60362 48.23444 
L 280.60362 46.860018 
L 268.369292 46.860018 
z
" style="fill:#1f77b4;fill-opacity:0.75;stroke:#ffffff;stroke-linejoin:miter;"/>
   </g>
   <g id="patch_23">
    <path clip-path="url(#pe325f134e0)" d="M 280.60362 48.23444 
L 292.837948 48.23444 
L 292.837948 47.415952 
L 280.60362 47.415952 
z
" style="fill:#1f77b4;fill-opacity:0.75;stroke:#ffffff;stroke-linejoin:miter;"/>
   </g>
   <g id="patch_24">
    <path clip-path="url(#pe325f134e0)" d="M 292.837948 48.23444 
L 305.072276 48.23444 
L 305.072276 47.759684 
L 292.837948 47.759684 
z
" style="fill:#1f77b4;fill-opacity:0.75;stroke:#ffffff;stroke-linejoin:miter;"/>
   </g>
   <g id="patch_25">
    <path clip-path="url(#pe325f134e0)" d="M 305.072276 48.23444 
L 317.306604 48.23444 
L 317.306604 47.979545 
L 305.072276 47.979545 
z
" style="fill:#1f77b4;fill-opacity:0.75;stroke:#ffffff;stroke-linejoin:miter;"/>
   </g>
   <g id="patch_26">
    <path clip-path="url(#pe325f134e0)" d="M 317.306604 48.23444 
L 329.540932 48.23444 
L 329.540932 48.108765 
L 317.306604 48.108765 
z
" style="fill:#1f77b4;fill-opacity:0.75;stroke:#ffffff;stroke-linejoin:miter;"/>
   </g>
   <g id="patch_27">
    <path clip-path="url(#pe325f134e0)" d="M 329.540932 48.23444 
L 341.77526 48.23444 
L 341.77526 48.177632 
L 329.540932 48.177632 
z
" style="fill:#1f77b4;fill-opacity:0.75;stroke:#ffffff;stroke-linejoin:miter;"/>
   </g>
   <g id="patch_28">
    <path clip-path="url(#pe325f134e0)" d="M 341.77526 48.23444 
L 354.009588 48.23444 
L 354.009588 48.208742 
L 341.77526 48.208742 
z
" style="fill:#1f77b4;fill-opacity:0.75;stroke:#ffffff;stroke-linejoin:miter;"/>
   </g>
   <g id="patch_29">
    <path clip-path="url(#pe325f134e0)" d="M 354.009588 48.23444 
L 366.243916 48.23444 
L 366.243916 48.225547 
L 354.009588 48.225547 
z
" style="fill:#1f77b4;fill-opacity:0.75;stroke:#ffffff;stroke-linejoin:miter;"/>
   </g>
   <g id="patch_30">
    <path clip-path="url(#pe325f134e0)" d="M 366.243916 48.23444 
L 378.478244 48.23444 
L 378.478244 48.231529 
L 366.243916 48.231529 
z
" style="fill:#1f77b4;fill-opacity:0.75;stroke:#ffffff;stroke-linejoin:miter;"/>
   </g>
   <g id="patch_31">
    <path clip-path="url(#pe325f134e0)" d="M 378.478244 48.23444 
L 390.712572 48.23444 
L 390.712572 48.233807 
L 378.478244 48.233807 
z
" style="fill:#1f77b4;fill-opacity:0.75;stroke:#ffffff;stroke-linejoin:miter;"/>
   </g>
   <g id="patch_32">
    <path clip-path="url(#pe325f134e0)" d="M 390.712572 48.23444 
L 402.9469 48.23444 
L 402.9469 48.234219 
L 390.712572 48.234219 
z
" style="fill:#1f77b4;fill-opacity:0.75;stroke:#ffffff;stroke-linejoin:miter;"/>
   </g>
   <g id="patch_33">
    <path clip-path="url(#pe325f134e0)" d="M 402.9469 48.23444 
L 415.181228 48.23444 
L 415.181228 48.234377 
L 402.9469 48.234377 
z
" style="fill:#1f77b4;fill-opacity:0.75;stroke:#ffffff;stroke-linejoin:miter;"/>
   </g>
   <g id="patch_34">
    <path d="M 47.907716 48.23444 
L 293.857696 48.23444 
" style="fill:none;stroke:#ffffff;stroke-linecap:square;stroke-linejoin:miter;stroke-width:1.25;"/>
   </g>
  </g>
  <g id="axes_3">
   <g id="patch_35">
    <path d="M 313.819234 308.432508 
L 347.04 308.432508 
L 347.04 64.999614 
L 313.819234 64.999614 
z
" style="fill:none;opacity:0;"/>
   </g>
   <g id="matplotlib.axis_5">
    <g id="xtick_15"/>
    <g id="xtick_16"/>
   </g>
   <g id="matplotlib.axis_6">
    <g id="ytick_11">
     <g id="line2d_23">
      <path clip-path="url(#p6a8ff13958)" d="M 313.819234 308.432508 
L 347.04 308.432508 
" style="fill:none;stroke:#ffffff;stroke-linecap:round;"/>
     </g>
    </g>
    <g id="ytick_12">
     <g id="line2d_24">
      <path clip-path="url(#p6a8ff13958)" d="M 313.819234 273.65638 
L 347.04 273.65638 
" style="fill:none;stroke:#ffffff;stroke-linecap:round;"/>
     </g>
    </g>
    <g id="ytick_13">
     <g id="line2d_25">
      <path clip-path="url(#p6a8ff13958)" d="M 313.819234 238.880253 
L 347.04 238.880253 
" style="fill:none;stroke:#ffffff;stroke-linecap:round;"/>
     </g>
    </g>
    <g id="ytick_14">
     <g id="line2d_26">
      <path clip-path="url(#p6a8ff13958)" d="M 313.819234 204.104125 
L 347.04 204.104125 
" style="fill:none;stroke:#ffffff;stroke-linecap:round;"/>
     </g>
    </g>
    <g id="ytick_15">
     <g id="line2d_27">
      <path clip-path="url(#p6a8ff13958)" d="M 313.819234 169.327997 
L 347.04 169.327997 
" style="fill:none;stroke:#ffffff;stroke-linecap:round;"/>
     </g>
    </g>
    <g id="ytick_16">
     <g id="line2d_28">
      <path clip-path="url(#p6a8ff13958)" d="M 313.819234 134.551869 
L 347.04 134.551869 
" style="fill:none;stroke:#ffffff;stroke-linecap:round;"/>
     </g>
    </g>
    <g id="ytick_17">
     <g id="line2d_29">
      <path clip-path="url(#p6a8ff13958)" d="M 313.819234 99.775741 
L 347.04 99.775741 
" style="fill:none;stroke:#ffffff;stroke-linecap:round;"/>
     </g>
    </g>
    <g id="ytick_18">
     <g id="line2d_30">
      <path clip-path="url(#p6a8ff13958)" d="M 313.819234 64.999614 
L 347.04 64.999614 
" style="fill:none;stroke:#ffffff;stroke-linecap:round;"/>
     </g>
    </g>
   </g>
   <g id="patch_36">
    <path clip-path="url(#p6a8ff13958)" d="M 313.819234 806.121216 
L 313.819247 806.121216 
L 313.819247 780.608136 
L 313.819234 780.608136 
z
" style="fill:#1f77b4;fill-opacity:0.75;stroke:#ffffff;stroke-linejoin:miter;"/>
   </g>
   <g id="patch_37">
    <path clip-path="url(#p6a8ff13958)" d="M 313.819234 780.608136 
L 313.819234 780.608136 
L 313.819234 755.095056 
L 313.819234 755.095056 
z
" style="fill:#1f77b4;fill-opacity:0.75;stroke:#ffffff;stroke-linejoin:miter;"/>
   </g>
   <g id="patch_38">
    <path clip-path="url(#p6a8ff13958)" d="M 313.819234 755.095056 
L 313.819234 755.095056 
L 313.819234 729.581975 
L 313.819234 729.581975 
z
" style="fill:#1f77b4;fill-opacity:0.75;stroke:#ffffff;stroke-linejoin:miter;"/>
   </g>
   <g id="patch_39">
    <path clip-path="url(#p6a8ff13958)" d="M 313.819234 729.581975 
L 313.819234 729.581975 
L 313.819234 704.068895 
L 313.819234 704.068895 
z
" style="fill:#1f77b4;fill-opacity:0.75;stroke:#ffffff;stroke-linejoin:miter;"/>
   </g>
   <g id="patch_40">
    <path clip-path="url(#p6a8ff13958)" d="M 313.819234 704.068895 
L 313.819259 704.068895 
L 313.819259 678.555815 
L 313.819234 678.555815 
z
" style="fill:#1f77b4;fill-opacity:0.75;stroke:#ffffff;stroke-linejoin:miter;"/>
   </g>
   <g id="patch_41">
    <path clip-path="url(#p6a8ff13958)" d="M 313.819234 678.555815 
L 313.819259 678.555815 
L 313.819259 653.042735 
L 313.819234 653.042735 
z
" style="fill:#1f77b4;fill-opacity:0.75;stroke:#ffffff;stroke-linejoin:miter;"/>
   </g>
   <g id="patch_42">
    <path clip-path="url(#p6a8ff13958)" d="M 313.819234 653.042735 
L 313.819283 653.042735 
L 313.819283 627.529654 
L 313.819234 627.529654 
z
" style="fill:#1f77b4;fill-opacity:0.75;stroke:#ffffff;stroke-linejoin:miter;"/>
   </g>
   <g id="patch_43">
    <path clip-path="url(#p6a8ff13958)" d="M 313.819234 627.529654 
L 313.819319 627.529654 
L 313.819319 602.016574 
L 313.819234 602.016574 
z
" style="fill:#1f77b4;fill-opacity:0.75;stroke:#ffffff;stroke-linejoin:miter;"/>
   </g>
   <g id="patch_44">
    <path clip-path="url(#p6a8ff13958)" d="M 313.819234 602.016574 
L 313.819453 602.016574 
L 313.819453 576.503494 
L 313.819234 576.503494 
z
" style="fill:#1f77b4;fill-opacity:0.75;stroke:#ffffff;stroke-linejoin:miter;"/>
   </g>
   <g id="patch_45">
    <path clip-path="url(#p6a8ff13958)" d="M 313.819234 576.503494 
L 313.819671 576.503494 
L 313.819671 550.990414 
L 313.819234 550.990414 
z
" style="fill:#1f77b4;fill-opacity:0.75;stroke:#ffffff;stroke-linejoin:miter;"/>
   </g>
   <g id="patch_46">
    <path clip-path="url(#p6a8ff13958)" d="M 313.819234 550.990414 
L 313.82012 550.990414 
L 313.82012 525.477333 
L 313.819234 525.477333 
z
" style="fill:#1f77b4;fill-opacity:0.75;stroke:#ffffff;stroke-linejoin:miter;"/>
   </g>
   <g id="patch_47">
    <path clip-path="url(#p6a8ff13958)" d="M 313.819234 525.477333 
L 313.820859 525.477333 
L 313.820859 499.964253 
L 313.819234 499.964253 
z
" style="fill:#1f77b4;fill-opacity:0.75;stroke:#ffffff;stroke-linejoin:miter;"/>
   </g>
   <g id="patch_48">
    <path clip-path="url(#p6a8ff13958)" d="M 313.819234 499.964253 
L 313.822811 499.964253 
L 313.822811 474.451173 
L 313.819234 474.451173 
z
" style="fill:#1f77b4;fill-opacity:0.75;stroke:#ffffff;stroke-linejoin:miter;"/>
   </g>
   <g id="patch_49">
    <path clip-path="url(#p6a8ff13958)" d="M 313.819234 474.451173 
L 313.826825 474.451173 
L 313.826825 448.938092 
L 313.819234 448.938092 
z
" style="fill:#1f77b4;fill-opacity:0.75;stroke:#ffffff;stroke-linejoin:miter;"/>
   </g>
   <g id="patch_50">
    <path clip-path="url(#p6a8ff13958)" d="M 313.819234 448.938092 
L 313.834148 448.938092 
L 313.834148 423.425012 
L 313.819234 423.425012 
z
" style="fill:#1f77b4;fill-opacity:0.75;stroke:#ffffff;stroke-linejoin:miter;"/>
   </g>
   <g id="patch_51">
    <path clip-path="url(#p6a8ff13958)" d="M 313.819234 423.425012 
L 313.853705 423.425012 
L 313.853705 397.911932 
L 313.819234 397.911932 
z
" style="fill:#1f77b4;fill-opacity:0.75;stroke:#ffffff;stroke-linejoin:miter;"/>
   </g>
   <g id="patch_52">
    <path clip-path="url(#p6a8ff13958)" d="M 313.819234 397.911932 
L 313.886212 397.911932 
L 313.886212 372.398852 
L 313.819234 372.398852 
z
" style="fill:#1f77b4;fill-opacity:0.75;stroke:#ffffff;stroke-linejoin:miter;"/>
   </g>
   <g id="patch_53">
    <path clip-path="url(#p6a8ff13958)" d="M 313.819234 372.398852 
L 313.958633 372.398852 
L 313.958633 346.885771 
L 313.819234 346.885771 
z
" style="fill:#1f77b4;fill-opacity:0.75;stroke:#ffffff;stroke-linejoin:miter;"/>
   </g>
   <g id="patch_54">
    <path clip-path="url(#p6a8ff13958)" d="M 313.819234 346.885771 
L 314.108835 346.885771 
L 314.108835 321.372691 
L 313.819234 321.372691 
z
" style="fill:#1f77b4;fill-opacity:0.75;stroke:#ffffff;stroke-linejoin:miter;"/>
   </g>
   <g id="patch_55">
    <path clip-path="url(#p6a8ff13958)" d="M 313.819234 321.372691 
L 314.425134 321.372691 
L 314.425134 295.859611 
L 313.819234 295.859611 
z
" style="fill:#1f77b4;fill-opacity:0.75;stroke:#ffffff;stroke-linejoin:miter;"/>
   </g>
   <g id="patch_56">
    <path clip-path="url(#p6a8ff13958)" d="M 313.819234 295.859611 
L 315.071699 295.859611 
L 315.071699 270.346531 
L 313.819234 270.346531 
z
" style="fill:#1f77b4;fill-opacity:0.75;stroke:#ffffff;stroke-linejoin:miter;"/>
   </g>
   <g id="patch_57">
    <path clip-path="url(#p6a8ff13958)" d="M 313.819234 270.346531 
L 316.383479 270.346531 
L 316.383479 244.83345 
L 313.819234 244.83345 
z
" style="fill:#1f77b4;fill-opacity:0.75;stroke:#ffffff;stroke-linejoin:miter;"/>
   </g>
   <g id="patch_58">
    <path clip-path="url(#p6a8ff13958)" d="M 313.819234 244.83345 
L 318.978399 244.83345 
L 318.978399 219.32037 
L 313.819234 219.32037 
z
" style="fill:#1f77b4;fill-opacity:0.75;stroke:#ffffff;stroke-linejoin:miter;"/>
   </g>
   <g id="patch_59">
    <path clip-path="url(#p6a8ff13958)" d="M 313.819234 219.32037 
L 323.843101 219.32037 
L 323.843101 193.80729 
L 313.819234 193.80729 
z
" style="fill:#1f77b4;fill-opacity:0.75;stroke:#ffffff;stroke-linejoin:miter;"/>
   </g>
   <g id="patch_60">
    <path clip-path="url(#p6a8ff13958)" d="M 313.819234 193.80729 
L 331.905107 193.80729 
L 331.905107 168.29421 
L 313.819234 168.29421 
z
" style="fill:#1f77b4;fill-opacity:0.75;stroke:#ffffff;stroke-linejoin:miter;"/>
   </g>
   <g id="patch_61">
    <path clip-path="url(#p6a8ff13958)" d="M 313.819234 168.29421 
L 341.755904 168.29421 
L 341.755904 142.781129 
L 313.819234 142.781129 
z
" style="fill:#1f77b4;fill-opacity:0.75;stroke:#ffffff;stroke-linejoin:miter;"/>
   </g>
   <g id="patch_62">
    <path clip-path="url(#p6a8ff13958)" d="M 313.819234 142.781129 
L 345.458059 142.781129 
L 345.458059 117.268049 
L 313.819234 117.268049 
z
" style="fill:#1f77b4;fill-opacity:0.75;stroke:#ffffff;stroke-linejoin:miter;"/>
   </g>
   <g id="patch_63">
    <path clip-path="url(#p6a8ff13958)" d="M 313.819234 117.268049 
L 333.286761 117.268049 
L 333.286761 91.754969 
L 313.819234 91.754969 
z
" style="fill:#1f77b4;fill-opacity:0.75;stroke:#ffffff;stroke-linejoin:miter;"/>
   </g>
   <g id="patch_64">
    <path clip-path="url(#p6a8ff13958)" d="M 313.819234 91.754969 
L 317.675592 91.754969 
L 317.675592 66.241889 
L 313.819234 66.241889 
z
" style="fill:#1f77b4;fill-opacity:0.75;stroke:#ffffff;stroke-linejoin:miter;"/>
   </g>
   <g id="patch_65">
    <path clip-path="url(#p6a8ff13958)" d="M 313.819234 66.241889 
L 313.916208 66.241889 
L 313.916208 40.728808 
L 313.819234 40.728808 
z
" style="fill:#1f77b4;fill-opacity:0.75;stroke:#ffffff;stroke-linejoin:miter;"/>
   </g>
   <g id="patch_66">
    <path d="M 313.819234 308.432508 
L 313.819234 64.999614 
" style="fill:none;stroke:#ffffff;stroke-linecap:square;stroke-linejoin:miter;stroke-width:1.25;"/>
   </g>
  </g>
 </g>
 <defs>
  <clipPath id="peed8c5d438">
   <rect height="243.432895" width="245.94998" x="47.907716" y="64.999614"/>
  </clipPath>
  <clipPath id="pe325f134e0">
   <rect height="35.27444" width="245.94998" x="47.907716" y="12.96"/>
  </clipPath>
  <clipPath id="p6a8ff13958">
   <rect height="243.432895" width="33.220766" x="313.819234" y="64.999614"/>
  </clipPath>
 </defs>
</svg>
