<?xml version="1.0" encoding="utf-8" standalone="no"?>
<!DOCTYPE svg PUBLIC "-//W3C//DTD SVG 1.1//EN"
  "http://www.w3.org/Graphics/SVG/1.1/DTD/svg11.dtd">
<!-- Created with matplotlib (https://matplotlib.org/) -->
<svg height="360pt" version="1.1" viewBox="0 0 360 360" width="360pt" xmlns="http://www.w3.org/2000/svg" xmlns:xlink="http://www.w3.org/1999/xlink">
 <metadata>
  <rdf:RDF xmlns:cc="http://creativecommons.org/ns#" xmlns:dc="http://purl.org/dc/elements/1.1/" xmlns:rdf="http://www.w3.org/1999/02/22-rdf-syntax-ns#">
   <cc:Work>
    <dc:type rdf:resource="http://purl.org/dc/dcmitype/StillImage"/>
    <dc:date>2021-08-09T20:37:12.327956</dc:date>
    <dc:format>image/svg+xml</dc:format>
    <dc:creator>
     <cc:Agent>
      <dc:title>Matplotlib v3.3.4, https://matplotlib.org/</dc:title>
     </cc:Agent>
    </dc:creator>
   </cc:Work>
  </rdf:RDF>
 </metadata>
 <defs>
  <style type="text/css">*{stroke-linecap:butt;stroke-linejoin:round;}</style>
 </defs>
 <g id="figure_1">
  <g id="patch_1">
   <path d="M 0 360 
L 360 360 
L 360 0 
L 0 0 
z
" style="fill:none;"/>
  </g>
  <g id="axes_1">
   <g id="patch_2">
    <path d="M 47.907716 308.432508 
L 293.857696 308.432508 
L 293.857696 64.999614 
L 47.907716 64.999614 
z
" style="fill:none;opacity:0;"/>
   </g>
   <g id="matplotlib.axis_1">
    <g id="xtick_1">
     <g id="line2d_1">
      <path clip-path="url(#p0448a4c1f7)" d="M 47.907716 308.432508 
L 47.907716 64.999614 
" style="fill:none;stroke:#ffffff;stroke-linecap:round;"/>
     </g>
     <g id="text_1">
      <!-- $\mathdefault{0.0}$ -->
      <g style="fill:#262626;" transform="translate(40.906178 325.542855)scale(0.11 -0.11)">
       <defs>
        <path d="M 42 31.640625 
C 42 37.75 41.90625 48.125 37.703125 56.109375 
C 34 63.109375 28.09375 65.59375 22.90625 65.59375 
C 18.09375 65.59375 12 63.40625 8.203125 56.203125 
C 4.203125 48.71875 3.796875 39.4375 3.796875 31.640625 
C 3.796875 25.953125 3.90625 17.28125 7 9.671875 
C 11.296875 -0.609375 19 -2 22.90625 -2 
C 27.5 -2 34.5 -0.109375 38.59375 9.375 
C 41.59375 16.28125 42 24.359375 42 31.640625 
z
M 22.90625 -0.40625 
C 16.5 -0.40625 12.703125 5.078125 11.296875 12.6875 
C 10.203125 18.5625 10.203125 27.15625 10.203125 32.75 
C 10.203125 40.4375 10.203125 46.828125 11.5 52.921875 
C 13.40625 61.390625 19 64 22.90625 64 
C 27 64 32.296875 61.296875 34.203125 53.125 
C 35.5 47.4375 35.59375 40.734375 35.59375 32.75 
C 35.59375 26.25 35.59375 18.265625 34.40625 12.375 
C 32.296875 1.484375 26.40625 -0.40625 22.90625 -0.40625 
z
" id="CMR17-48"/>
        <path d="M 18.40625 4.796875 
C 18.40625 7.6875 16 9.671875 13.59375 9.671875 
C 10.703125 9.671875 8.703125 7.28125 8.703125 4.890625 
C 8.703125 2 11.09375 0 13.5 0 
C 16.40625 0 18.40625 2.390625 18.40625 4.796875 
z
" id="CMMI12-58"/>
       </defs>
       <use transform="scale(0.996264)" xlink:href="#CMR17-48"/>
       <use transform="translate(45.690477 0)scale(0.996264)" xlink:href="#CMMI12-58"/>
       <use transform="translate(72.787654 0)scale(0.996264)" xlink:href="#CMR17-48"/>
      </g>
     </g>
    </g>
    <g id="xtick_2">
     <g id="line2d_2">
      <path clip-path="url(#p0448a4c1f7)" d="M 88.899379 308.432508 
L 88.899379 64.999614 
" style="fill:none;stroke:#ffffff;stroke-linecap:round;"/>
     </g>
     <g id="text_2">
      <!-- $\mathdefault{0.1}$ -->
      <g style="fill:#262626;" transform="translate(81.897841 325.542855)scale(0.11 -0.11)">
       <defs>
        <path d="M 26.59375 63.40625 
C 26.59375 65.5 26.5 65.5 25.09375 65.5 
C 21.203125 61.1875 15.296875 59.796875 9.703125 59.796875 
C 9.40625 59.796875 8.90625 59.796875 8.796875 59.5 
C 8.703125 59.296875 8.703125 59.09375 8.703125 57 
C 11.796875 57 17 57.59375 21 59.984375 
L 21 7.203125 
C 21 3.6875 20.796875 2.5 12.203125 2.5 
L 9.203125 2.5 
L 9.203125 0 
C 14 0 19 0 23.796875 0 
C 28.59375 0 33.59375 0 38.40625 0 
L 38.40625 2.5 
L 35.40625 2.5 
C 26.796875 2.5 26.59375 3.59375 26.59375 7.15625 
z
" id="CMR17-49"/>
       </defs>
       <use transform="scale(0.996264)" xlink:href="#CMR17-48"/>
       <use transform="translate(45.690477 0)scale(0.996264)" xlink:href="#CMMI12-58"/>
       <use transform="translate(72.787654 0)scale(0.996264)" xlink:href="#CMR17-49"/>
      </g>
     </g>
    </g>
    <g id="xtick_3">
     <g id="line2d_3">
      <path clip-path="url(#p0448a4c1f7)" d="M 129.891043 308.432508 
L 129.891043 64.999614 
" style="fill:none;stroke:#ffffff;stroke-linecap:round;"/>
     </g>
     <g id="text_3">
      <!-- $\mathdefault{0.2}$ -->
      <g style="fill:#262626;" transform="translate(122.889505 325.542855)scale(0.11 -0.11)">
       <defs>
        <path d="M 41.703125 15.453125 
L 39.90625 15.453125 
C 38.90625 8.375 38.09375 7.171875 37.703125 6.5625 
C 37.203125 5.765625 30 5.765625 28.59375 5.765625 
L 9.40625 5.765625 
C 13 9.671875 20 16.75 28.5 24.953125 
C 34.59375 30.734375 41.703125 37.53125 41.703125 47.421875 
C 41.703125 59.21875 32.296875 66 21.796875 66 
C 10.796875 66 4.09375 56.3125 4.09375 47.34375 
C 4.09375 43.4375 7 42.9375 8.203125 42.9375 
C 9.203125 42.9375 12.203125 43.546875 12.203125 47.03125 
C 12.203125 50.109375 9.59375 51 8.203125 51 
C 7.59375 51 7 50.90625 6.59375 50.703125 
C 8.5 59.21875 14.296875 63.40625 20.40625 63.40625 
C 29.09375 63.40625 34.796875 56.515625 34.796875 47.421875 
C 34.796875 38.734375 29.703125 31.25 24 24.75 
L 4.09375 2.28125 
L 4.09375 0 
L 39.296875 0 
z
" id="CMR17-50"/>
       </defs>
       <use transform="scale(0.996264)" xlink:href="#CMR17-48"/>
       <use transform="translate(45.690477 0)scale(0.996264)" xlink:href="#CMMI12-58"/>
       <use transform="translate(72.787654 0)scale(0.996264)" xlink:href="#CMR17-50"/>
      </g>
     </g>
    </g>
    <g id="xtick_4">
     <g id="line2d_4">
      <path clip-path="url(#p0448a4c1f7)" d="M 170.882706 308.432508 
L 170.882706 64.999614 
" style="fill:none;stroke:#ffffff;stroke-linecap:round;"/>
     </g>
     <g id="text_4">
      <!-- $\mathdefault{0.3}$ -->
      <g style="fill:#262626;" transform="translate(163.881168 325.542855)scale(0.11 -0.11)">
       <defs>
        <path d="M 22.09375 33.703125 
C 31 33.703125 34.90625 25.96875 34.90625 17.03125 
C 34.90625 5 28.5 0.390625 22.703125 0.390625 
C 17.40625 0.390625 8.796875 3.03125 6.09375 10.828125 
C 6.59375 10.625 7.09375 10.625 7.59375 10.625 
C 10 10.625 11.796875 12.21875 11.796875 14.8125 
C 11.796875 17.703125 9.59375 19 7.59375 19 
C 5.90625 19 3.296875 18.203125 3.296875 14.46875 
C 3.296875 5.234375 12.296875 -2 22.90625 -2 
C 34 -2 42.5 6.71875 42.5 16.953125 
C 42.5 26.671875 34.5 33.703125 25 34.796875 
C 32.59375 36.375 39.90625 43.0625 39.90625 52.015625 
C 39.90625 59.6875 32 65.296875 23 65.296875 
C 13.90625 65.296875 5.90625 59.828125 5.90625 52.015625 
C 5.90625 48.59375 8.5 48 9.796875 48 
C 11.90625 48 13.703125 49.296875 13.703125 51.890625 
C 13.703125 54.46875 11.90625 55.765625 9.796875 55.765625 
C 9.40625 55.765625 8.90625 55.765625 8.5 55.578125 
C 11.40625 61.859375 19.296875 63 22.796875 63 
C 26.296875 63 32.90625 61.328125 32.90625 51.875 
C 32.90625 49.109375 32.5 44.1875 29.09375 39.84375 
C 26.09375 36 22.703125 36 19.40625 35.6875 
C 18.90625 35.6875 16.59375 35.453125 16.203125 35.453125 
C 15.5 35.359375 15.09375 35.265625 15.09375 34.5 
C 15.09375 33.796875 15.203125 33.703125 17.203125 33.703125 
z
" id="CMR17-51"/>
       </defs>
       <use transform="scale(0.996264)" xlink:href="#CMR17-48"/>
       <use transform="translate(45.690477 0)scale(0.996264)" xlink:href="#CMMI12-58"/>
       <use transform="translate(72.787654 0)scale(0.996264)" xlink:href="#CMR17-51"/>
      </g>
     </g>
    </g>
    <g id="xtick_5">
     <g id="line2d_5">
      <path clip-path="url(#p0448a4c1f7)" d="M 211.874369 308.432508 
L 211.874369 64.999614 
" style="fill:none;stroke:#ffffff;stroke-linecap:round;"/>
     </g>
     <g id="text_5">
      <!-- $\mathdefault{0.4}$ -->
      <g style="fill:#262626;" transform="translate(204.872831 325.542855)scale(0.11 -0.11)">
       <defs>
        <path d="M 33.59375 64.40625 
C 33.59375 66.5 33.5 66.5 31.703125 66.5 
L 2 19.59375 
L 2 17 
L 27.796875 17 
L 27.796875 7.140625 
C 27.796875 3.5 27.59375 2.5 20.59375 2.5 
L 18.703125 2.5 
L 18.703125 0 
C 21.90625 0 27.296875 0 30.703125 0 
C 34.09375 0 39.5 0 42.703125 0 
L 42.703125 2.5 
L 40.796875 2.5 
C 33.796875 2.5 33.59375 3.5 33.59375 7.140625 
L 33.59375 17 
L 43.796875 17 
L 43.796875 19.59375 
L 33.59375 19.59375 
z
M 28.09375 57.859375 
L 28.09375 19.59375 
L 4 19.59375 
z
" id="CMR17-52"/>
       </defs>
       <use transform="scale(0.996264)" xlink:href="#CMR17-48"/>
       <use transform="translate(45.690477 0)scale(0.996264)" xlink:href="#CMMI12-58"/>
       <use transform="translate(72.787654 0)scale(0.996264)" xlink:href="#CMR17-52"/>
      </g>
     </g>
    </g>
    <g id="xtick_6">
     <g id="line2d_6">
      <path clip-path="url(#p0448a4c1f7)" d="M 252.866033 308.432508 
L 252.866033 64.999614 
" style="fill:none;stroke:#ffffff;stroke-linecap:round;"/>
     </g>
     <g id="text_6">
      <!-- $\mathdefault{0.5}$ -->
      <g style="fill:#262626;" transform="translate(245.864495 325.542855)scale(0.11 -0.11)">
       <defs>
        <path d="M 11.40625 57.6875 
C 12.40625 57.28125 16.5 56 20.703125 56 
C 30 56 35.09375 61.109375 38 64.0625 
C 38 64.953125 38 65.5 37.40625 65.5 
C 37.296875 65.5 37.09375 65.5 36.296875 65.046875 
C 32.796875 63.40625 28.703125 62.078125 23.703125 62.078125 
C 20.703125 62.078125 16.203125 62.484375 11.296875 64.671875 
C 10.203125 65.171875 10 65.171875 9.90625 65.171875 
C 9.40625 65.171875 9.296875 65.0625 9.296875 63.078125 
L 9.296875 34.421875 
C 9.296875 32.640625 9.296875 32.140625 10.296875 32.140625 
C 10.796875 32.140625 11 32.34375 11.5 33.03125 
C 14.703125 37.515625 19.09375 39.40625 24.09375 39.40625 
C 27.59375 39.40625 35.09375 37.21875 35.09375 20.140625 
C 35.09375 16.953125 35.09375 11.171875 32.09375 6.578125 
C 29.59375 2.484375 25.703125 0.390625 21.40625 0.390625 
C 14.796875 0.390625 8.09375 5 6.296875 12.71875 
C 6.703125 12.609375 7.5 12.421875 7.90625 12.421875 
C 9.203125 12.421875 11.703125 13.125 11.703125 16.21875 
C 11.703125 18.90625 9.796875 20 7.90625 20 
C 5.59375 20 4.09375 18.59375 4.09375 15.796875 
C 4.09375 7.09375 11 -2 21.59375 -2 
C 31.90625 -2 41.703125 6.875 41.703125 19.75 
C 41.703125 31.71875 33.90625 41 24.203125 41 
C 19.09375 41 14.796875 39.109375 11.40625 35.53125 
z
" id="CMR17-53"/>
       </defs>
       <use transform="scale(0.996264)" xlink:href="#CMR17-48"/>
       <use transform="translate(45.690477 0)scale(0.996264)" xlink:href="#CMMI12-58"/>
       <use transform="translate(72.787654 0)scale(0.996264)" xlink:href="#CMR17-53"/>
      </g>
     </g>
    </g>
    <g id="xtick_7">
     <g id="line2d_7">
      <path clip-path="url(#p0448a4c1f7)" d="M 293.857696 308.432508 
L 293.857696 64.999614 
" style="fill:none;stroke:#ffffff;stroke-linecap:round;"/>
     </g>
     <g id="text_7">
      <!-- $\mathdefault{0.6}$ -->
      <g style="fill:#262626;" transform="translate(286.856158 325.542855)scale(0.11 -0.11)">
       <defs>
        <path d="M 10.59375 34 
C 10.59375 57.65625 21.796875 63 28.296875 63 
C 30.40625 63 35.5 62.640625 37.5 59 
C 35.90625 59 32.90625 59 32.90625 55.515625 
C 32.90625 52.828125 35.09375 51.921875 36.5 51.921875 
C 37.40625 51.921875 40.09375 52.3125 40.09375 55.625 
C 40.09375 61.78125 35.09375 65.296875 28.203125 65.296875 
C 16.296875 65.296875 3.796875 52.96875 3.796875 31 
C 3.796875 3.953125 15.09375 -2 23.09375 -2 
C 32.796875 -2 42 6.671875 42 20.046875 
C 42 32.515625 33.90625 41.59375 23.703125 41.59375 
C 17.59375 41.59375 13.09375 37.609375 10.59375 30.625 
z
M 23.09375 0.390625 
C 10.796875 0.390625 10.796875 18.75 10.796875 22.4375 
C 10.796875 29.625 14.203125 40 23.5 40 
C 25.203125 40 30.09375 40 33.40625 33.125 
C 35.203125 29.21875 35.203125 25.140625 35.203125 20.140625 
C 35.203125 14.75 35.203125 10.78125 33.09375 6.78125 
C 30.90625 2.671875 27.703125 0.390625 23.09375 0.390625 
z
" id="CMR17-54"/>
       </defs>
       <use transform="scale(0.996264)" xlink:href="#CMR17-48"/>
       <use transform="translate(45.690477 0)scale(0.996264)" xlink:href="#CMMI12-58"/>
       <use transform="translate(72.787654 0)scale(0.996264)" xlink:href="#CMR17-54"/>
      </g>
     </g>
    </g>
    <g id="text_8">
     <!-- $\overset{\sim}{X}_1$ -->
     <g style="fill:#262626;" transform="translate(163.438066 344.715404)scale(0.12 -0.12)">
      <defs>
       <path d="M 72.21875 33.40625 
C 72.21875 35.59375 71.625 36.59375 70.828125 36.59375 
C 70.328125 36.59375 69.515625 35.90625 69.421875 34 
C 69.015625 24.40625 62.421875 18.90625 55.421875 18.90625 
C 49.109375 18.90625 44.3125 23.203125 39.40625 27.5 
C 34.3125 32.09375 29.109375 36.703125 22.3125 36.703125 
C 11.40625 36.703125 5.5 25.703125 5.5 16.59375 
C 5.5 13.40625 6.796875 13.40625 6.90625 13.40625 
C 8 13.40625 8.296875 15.40625 8.296875 15.703125 
C 8.703125 26.703125 16.203125 31.09375 22.3125 31.09375 
C 28.609375 31.09375 33.40625 26.796875 38.3125 22.5 
C 43.40625 17.90625 48.609375 13.296875 55.421875 13.296875 
C 66.328125 13.296875 72.21875 24.296875 72.21875 33.40625 
z
" id="CMSY10-24"/>
       <path d="M 47.5 40.5625 
L 38.09375 62.40625 
C 39.40625 64.796875 42.40625 65.1875 43.59375 65.296875 
C 44.203125 65.296875 45.296875 65.296875 45.296875 67.0625 
C 45.296875 68.1875 44.40625 68.1875 43.796875 68.1875 
C 42.09375 68.1875 40.09375 68.1875 38.40625 68.1875 
L 32.59375 68.1875 
C 26.5 68.1875 22.09375 68.1875 22 68.1875 
C 21.203125 68.1875 20.203125 68.1875 20.203125 66.296875 
C 20.203125 65.296875 21.09375 65.296875 22.40625 65.296875 
C 28.203125 65.296875 28.59375 64.296875 29.59375 61.90625 
L 41.5 34.140625 
L 19.796875 10.828125 
C 16.203125 6.90625 11.90625 3.09375 4.5 3.09375 
C 3.296875 3 2.5 3 2.5 1.0625 
C 2.5 0.75 2.59375 0 3.703125 0 
C 5.09375 0 6.59375 0 8 0 
L 12.703125 0 
C 15.90625 0 19.40625 0 22.5 0 
C 23.203125 0 24.40625 0 24.40625 1.796875 
C 24.40625 2.796875 23.703125 2.890625 23.09375 2.890625 
C 21.09375 3.09375 19.796875 4.1875 19.796875 5.78125 
C 19.796875 7.484375 21 8.703125 23.90625 11.6875 
L 32.796875 21.375 
C 35 23.6875 40.296875 29.46875 42.5 31.65625 
L 53 7.078125 
C 53.09375 6.890625 53.5 5.890625 53.5 5.78125 
C 53.5 4.890625 51.296875 3.09375 48.09375 3.09375 
C 47.5 3.09375 46.40625 3.09375 46.40625 1.109375 
C 46.40625 0 47.40625 0 47.90625 0 
C 49.59375 0 51.59375 0 53.296875 0 
L 64.296875 0 
C 66.09375 0 68 0 69.703125 0 
C 70.40625 0 71.5 0 71.5 2.03125 
C 71.5 3.09375 70.5 3.09375 69.59375 3.09375 
C 63.59375 3.09375 63.40625 3.59375 61.703125 7.265625 
L 48.5 38.140625 
L 61.203125 51.8125 
C 62.203125 52.828125 64.5 55.34375 65.40625 56.34375 
C 69.703125 60.875 73.703125 65 81.796875 65 
C 82.796875 65.296875 83.796875 65.296875 83.796875 67.0625 
C 83.796875 68.1875 82.90625 68.1875 82.5 68.1875 
C 81.09375 68.1875 79.59375 68.1875 78.203125 68.1875 
L 73.59375 68.1875 
C 70.40625 68.1875 66.90625 68.1875 63.796875 68.1875 
C 63.09375 68.1875 61.90625 68.1875 61.90625 66.390625 
C 61.90625 65.390625 62.59375 65.296875 63.203125 65.296875 
C 64.796875 65.109375 66.5 64.3125 66.5 62.40625 
L 66.40625 62.21875 
C 66.296875 61.515625 66.09375 60.515625 65 59.328125 
z
" id="CMMI12-88"/>
      </defs>
      <use transform="translate(17.275792 73.035428)scale(0.697382)" xlink:href="#CMSY10-24"/>
      <use transform="scale(0.996264)" xlink:href="#CMMI12-88"/>
      <use transform="translate(88.792562 -14.943915)scale(0.697382)" xlink:href="#CMR17-49"/>
     </g>
    </g>
   </g>
   <g id="matplotlib.axis_2">
    <g id="ytick_1">
     <g id="line2d_8">
      <path clip-path="url(#p0448a4c1f7)" d="M 47.907716 308.432508 
L 293.857696 308.432508 
" style="fill:none;stroke:#ffffff;stroke-linecap:round;"/>
     </g>
     <g id="text_9">
      <!-- $\mathdefault{−5}$ -->
      <g style="fill:#262626;" transform="translate(24.40464 312.237682)scale(0.11 -0.11)">
       <defs>
        <path d="M 65.90625 23 
C 67.59375 23 69.40625 23 69.40625 25 
C 69.40625 27 67.59375 27 65.90625 27 
L 11.796875 27 
C 10.09375 27 8.296875 27 8.296875 25 
C 8.296875 23 10.09375 23 11.796875 23 
z
" id="CMSY10-0"/>
       </defs>
       <use transform="scale(0.996264)" xlink:href="#CMSY10-0"/>
       <use transform="translate(77.487468 0)scale(0.996264)" xlink:href="#CMR17-53"/>
      </g>
     </g>
    </g>
    <g id="ytick_2">
     <g id="line2d_9">
      <path clip-path="url(#p0448a4c1f7)" d="M 47.907716 273.65638 
L 293.857696 273.65638 
" style="fill:none;stroke:#ffffff;stroke-linecap:round;"/>
     </g>
     <g id="text_10">
      <!-- $\mathdefault{−4}$ -->
      <g style="fill:#262626;" transform="translate(24.40464 277.461554)scale(0.11 -0.11)">
       <use transform="scale(0.996264)" xlink:href="#CMSY10-0"/>
       <use transform="translate(77.487468 0)scale(0.996264)" xlink:href="#CMR17-52"/>
      </g>
     </g>
    </g>
    <g id="ytick_3">
     <g id="line2d_10">
      <path clip-path="url(#p0448a4c1f7)" d="M 47.907716 238.880253 
L 293.857696 238.880253 
" style="fill:none;stroke:#ffffff;stroke-linecap:round;"/>
     </g>
     <g id="text_11">
      <!-- $\mathdefault{−3}$ -->
      <g style="fill:#262626;" transform="translate(24.40464 242.685426)scale(0.11 -0.11)">
       <use transform="scale(0.996264)" xlink:href="#CMSY10-0"/>
       <use transform="translate(77.487468 0)scale(0.996264)" xlink:href="#CMR17-51"/>
      </g>
     </g>
    </g>
    <g id="ytick_4">
     <g id="line2d_11">
      <path clip-path="url(#p0448a4c1f7)" d="M 47.907716 204.104125 
L 293.857696 204.104125 
" style="fill:none;stroke:#ffffff;stroke-linecap:round;"/>
     </g>
     <g id="text_12">
      <!-- $\mathdefault{−2}$ -->
      <g style="fill:#262626;" transform="translate(24.40464 207.909298)scale(0.11 -0.11)">
       <use transform="scale(0.996264)" xlink:href="#CMSY10-0"/>
       <use transform="translate(77.487468 0)scale(0.996264)" xlink:href="#CMR17-50"/>
      </g>
     </g>
    </g>
    <g id="ytick_5">
     <g id="line2d_12">
      <path clip-path="url(#p0448a4c1f7)" d="M 47.907716 169.327997 
L 293.857696 169.327997 
" style="fill:none;stroke:#ffffff;stroke-linecap:round;"/>
     </g>
     <g id="text_13">
      <!-- $\mathdefault{−1}$ -->
      <g style="fill:#262626;" transform="translate(24.40464 173.13317)scale(0.11 -0.11)">
       <use transform="scale(0.996264)" xlink:href="#CMSY10-0"/>
       <use transform="translate(77.487468 0)scale(0.996264)" xlink:href="#CMR17-49"/>
      </g>
     </g>
    </g>
    <g id="ytick_6">
     <g id="line2d_13">
      <path clip-path="url(#p0448a4c1f7)" d="M 47.907716 134.551869 
L 293.857696 134.551869 
" style="fill:none;stroke:#ffffff;stroke-linecap:round;"/>
     </g>
     <g id="text_14">
      <!-- $\mathdefault{0}$ -->
      <g style="fill:#262626;" transform="translate(32.928249 138.357043)scale(0.11 -0.11)">
       <use transform="scale(0.996264)" xlink:href="#CMR17-48"/>
      </g>
     </g>
    </g>
    <g id="ytick_7">
     <g id="line2d_14">
      <path clip-path="url(#p0448a4c1f7)" d="M 47.907716 99.775741 
L 293.857696 99.775741 
" style="fill:none;stroke:#ffffff;stroke-linecap:round;"/>
     </g>
     <g id="text_15">
      <!-- $\mathdefault{1}$ -->
      <g style="fill:#262626;" transform="translate(32.928249 103.580915)scale(0.11 -0.11)">
       <use transform="scale(0.996264)" xlink:href="#CMR17-49"/>
      </g>
     </g>
    </g>
    <g id="ytick_8">
     <g id="line2d_15">
      <path clip-path="url(#p0448a4c1f7)" d="M 47.907716 64.999614 
L 293.857696 64.999614 
" style="fill:none;stroke:#ffffff;stroke-linecap:round;"/>
     </g>
     <g id="text_16">
      <!-- $\mathdefault{2}$ -->
      <g style="fill:#262626;" transform="translate(32.928249 68.804787)scale(0.11 -0.11)">
       <use transform="scale(0.996264)" xlink:href="#CMR17-50"/>
      </g>
     </g>
    </g>
    <g id="text_17">
     <!-- $\overset{\sim}{X}_2$ -->
     <g style="fill:#262626;" transform="translate(12.96 184.391465)scale(0.12 -0.12)">
      <use transform="translate(17.275792 73.035428)scale(0.697382)" xlink:href="#CMSY10-24"/>
      <use transform="scale(0.996264)" xlink:href="#CMMI12-88"/>
      <use transform="translate(88.792562 -14.943915)scale(0.697382)" xlink:href="#CMR17-50"/>
     </g>
    </g>
   </g>
   <g id="PolyCollection_1">
    <defs>
     <path d="M 135.309276 -100.242843 
L 135.309276 -350.653419 
L 47.907716 -475.858707 
L -39.493844 -350.653419 
L -39.493844 -100.242843 
L 47.907716 24.962446 
z
" id="C0_0_2618f85b4d"/>
    </defs>
    <g clip-path="url(#p0448a4c1f7)">
     <use style="fill:none;" x="0.260144" xlink:href="#C0_0_2618f85b4d" y="1013.074144"/>
    </g>
    <g clip-path="url(#p0448a4c1f7)">
     <use style="fill:none;" x="0.260144" xlink:href="#C0_0_2618f85b4d" y="261.842414"/>
    </g>
    <g clip-path="url(#p0448a4c1f7)">
     <use style="fill:none;" x="175.063264" xlink:href="#C0_0_2618f85b4d" y="1013.074144"/>
    </g>
    <g clip-path="url(#p0448a4c1f7)">
     <use style="fill:none;" x="175.063264" xlink:href="#C0_0_2618f85b4d" y="261.842414"/>
    </g>
    <g clip-path="url(#p0448a4c1f7)">
     <use style="fill:none;" x="349.866385" xlink:href="#C0_0_2618f85b4d" y="1013.074144"/>
    </g>
    <g clip-path="url(#p0448a4c1f7)">
     <use style="fill:none;" x="349.866385" xlink:href="#C0_0_2618f85b4d" y="261.842414"/>
    </g>
    <g clip-path="url(#p0448a4c1f7)">
     <use style="fill:none;" x="87.661704" xlink:href="#C0_0_2618f85b4d" y="637.458279"/>
    </g>
    <g clip-path="url(#p0448a4c1f7)">
     <use style="fill:none;" x="262.464824" xlink:href="#C0_0_2618f85b4d" y="637.458279"/>
    </g>
   </g>
   <g id="LineCollection_1">
    <path clip-path="url(#p0448a4c1f7)" d="M 107.2434 275.056456 
L 110.946683 276.277451 
L 112.798324 276.581863 
L 114.649965 276.538081 
L 118.353248 276.125335 
L 120.204889 276.214065 
L 123.908172 277.010245 
L 125.759813 277.128497 
L 127.611454 276.671955 
L 131.314737 275.084716 
L 133.166378 274.617627 
L 135.018019 274.376755 
L 138.721302 274.340611 
L 140.572943 274.347052 
L 142.424584 274.187999 
L 144.276226 273.791441 
L 147.979508 272.760761 
L 151.682791 271.886502 
L 154.176991 270.877813 
L 157.237715 269.447401 
L 159.089356 268.606559 
L 164.64428 265.447219 
L 166.495921 264.627779 
L 170.293832 263.144534 
L 172.050845 262.263381 
L 176.6689 259.277895 
L 177.605769 258.670878 
L 186.863975 253.263635 
L 192.418899 249.838082 
L 200.152275 243.811338 
L 201.677105 242.456711 
L 205.380388 238.574083 
L 208.296772 236.078059 
L 209.083671 235.478787 
L 210.935312 233.9289 
L 212.786953 232.21142 
L 214.638594 230.672053 
L 220.522853 224.478141 
L 222.04516 223.190714 
L 225.748442 219.320841 
L 228.070908 216.744863 
L 229.451725 215.381634 
L 233.155007 211.989732 
L 235.85638 209.011584 
L 238.709931 205.553309 
L 240.561572 203.514958 
L 242.413214 201.148978 
L 244.513115 197.411666 
L 246.116496 195.02196 
L 247.968138 192.877591 
L 249.819779 190.915366 
L 250.764509 189.678387 
L 251.67142 188.292716 
L 255.384973 181.945109 
L 258.299383 178.078469 
L 259.077985 176.713177 
L 260.27006 174.21183 
L 261.666475 170.345191 
L 263.373419 166.478551 
L 265.424116 162.611912 
L 267.102389 158.745273 
L 269.589273 151.011994 
L 270.187833 145.052134 
L 270.947513 139.412076 
L 271.642993 131.678797 
L 271.549366 127.812158 
L 271.000486 123.945519 
L 269.939493 120.07888 
L 268.336192 115.990871 
L 265.411666 112.345601 
L 262.325578 108.478962 
L 260.929627 107.0402 
L 254.220351 100.745683 
L 253.523061 100.05675 
L 251.67142 98.545022 
L 248.863978 96.879044 
L 246.116496 95.646622 
L 244.264855 94.801814 
L 240.561572 92.763156 
L 236.85829 90.735849 
L 235.006649 89.871163 
L 233.033214 89.145765 
L 229.451725 88.146691 
L 225.748442 87.051223 
L 220.193518 84.968745 
L 216.490236 83.989934 
L 207.232029 81.895749 
L 196.122182 79.436702 
L 186.863975 77.786014 
L 183.160693 77.240384 
L 173.902486 75.5916 
L 166.495921 74.945846 
L 155.386073 73.946278 
L 147.979508 73.174494 
L 144.276226 73.031929 
L 136.869661 72.83045 
L 131.314737 72.576969 
L 120.204889 72.420178 
L 110.946683 72.493638 
L 103.540117 72.951636 
L 99.836835 73.469859 
L 97.985194 73.787604 
L 85.023705 75.539592 
L 81.320422 76.456643 
L 77.617139 77.852464 
L 75.765498 78.62787 
L 73.913857 79.553338 
L 70.210574 81.841713 
L 68.358933 83.090834 
L 65.897162 85.279126 
L 64.65565 86.56415 
L 62.638978 89.145765 
L 60.952368 91.668995 
L 60.222877 93.012404 
L 58.637475 96.879044 
L 57.249085 101.725974 
L 56.515455 104.612322 
L 55.824696 108.478962 
L 54.871208 116.21224 
L 54.356031 123.945519 
L 54.251995 131.678797 
L 54.206697 139.412076 
L 54.564326 151.011994 
L 54.98464 158.745273 
L 56.770704 178.078469 
L 58.289957 189.678387 
L 60.990266 205.144945 
L 62.804009 213.274673 
L 63.503546 216.744863 
L 64.65565 221.256608 
L 66.507292 226.390235 
L 71.195062 239.944698 
L 73.085017 243.811338 
L 73.913857 245.456978 
L 75.765498 248.782332 
L 79.468781 254.322738 
L 81.320422 256.64579 
L 85.023705 260.63324 
L 88.726987 264.992234 
L 90.996363 267.011174 
L 92.43027 268.247485 
L 94.281911 269.55794 
L 97.985194 271.593243 
L 99.836835 272.453956 
L 103.540117 273.800332 
L 107.2434 275.056456 
L 107.2434 275.056456 
" style="fill:none;stroke:#440154;stroke-width:1.5;"/>
   </g>
   <g id="LineCollection_2">
    <path clip-path="url(#p0448a4c1f7)" d="M 107.2434 232.709085 
L 110.946683 233.376111 
L 114.649965 234.018731 
L 118.353248 234.761418 
L 120.204889 234.918332 
L 123.908172 234.913975 
L 125.759813 234.832487 
L 129.463095 234.330094 
L 133.166378 233.845208 
L 136.869661 233.355704 
L 140.572943 232.398588 
L 142.424584 231.875944 
L 149.83115 229.663714 
L 160.940997 225.810256 
L 163.424861 224.478141 
L 170.199204 220.371588 
L 173.902486 218.322658 
L 179.45741 214.640639 
L 183.160693 212.123589 
L 185.012334 210.914605 
L 187.536662 209.011584 
L 192.418899 204.950513 
L 194.27054 203.502834 
L 199.825464 198.505982 
L 203.528747 194.959247 
L 205.380388 193.245845 
L 209.467922 189.678387 
L 213.495805 185.811748 
L 214.638594 184.519543 
L 223.896801 172.937853 
L 225.748442 169.952032 
L 227.600083 166.29356 
L 229.650268 162.611912 
L 231.309946 158.745273 
L 233.499083 154.878633 
L 235.509352 151.011994 
L 236.981569 147.145355 
L 237.759043 143.278715 
L 238.284796 139.412076 
L 238.548685 135.545437 
L 238.087143 131.678797 
L 237.481536 127.812158 
L 236.495367 123.945519 
L 232.738065 116.21224 
L 229.638465 112.345601 
L 227.600083 110.439304 
L 222.04516 105.852328 
L 220.193518 104.603334 
L 209.083671 98.006699 
L 206.825622 96.879044 
L 203.528747 95.604887 
L 195.333767 93.012404 
L 192.418899 92.030216 
L 183.160693 89.639468 
L 177.605769 88.236933 
L 173.902486 87.345707 
L 170.199204 86.702075 
L 153.534432 84.36466 
L 146.127867 83.503342 
L 140.572943 83.137289 
L 133.166378 82.818864 
L 120.204889 82.366195 
L 116.501606 82.393399 
L 110.946683 82.726082 
L 103.540117 83.398067 
L 97.985194 84.144509 
L 94.281911 84.772116 
L 90.578628 85.656892 
L 86.875346 86.754713 
L 83.172063 88.055364 
L 79.468781 89.85652 
L 77.617139 90.949558 
L 74.753615 93.012404 
L 73.913857 93.705576 
L 72.062216 95.499143 
L 70.210574 97.548889 
L 67.789692 100.745683 
L 66.507292 103.043351 
L 65.767139 104.612322 
L 64.347462 108.478962 
L 62.804009 113.987295 
L 62.281521 116.21224 
L 61.712419 120.07888 
L 61.353454 123.945519 
L 61.164648 127.812158 
L 61.247613 143.278715 
L 61.673926 151.011994 
L 62.043835 154.878633 
L 63.218701 162.611912 
L 64.65565 170.916597 
L 66.507292 179.009957 
L 68.392009 185.811748 
L 71.102461 193.545027 
L 73.917013 201.278305 
L 75.765498 205.39697 
L 79.468781 211.374487 
L 81.320422 213.887849 
L 85.023705 217.978647 
L 91.05729 224.478141 
L 92.43027 225.546045 
L 96.133552 227.939881 
L 96.883086 228.34478 
L 97.985194 229.075236 
L 99.836835 230.146362 
L 101.688476 230.99955 
L 105.456724 232.21142 
L 107.2434 232.709085 
L 107.2434 232.709085 
" style="fill:none;stroke:#482576;stroke-width:1.5;"/>
   </g>
   <g id="LineCollection_3">
    <path clip-path="url(#p0448a4c1f7)" d="M 109.095041 212.965602 
L 110.946683 213.563631 
L 112.798324 213.99226 
L 114.649965 214.26055 
L 118.353248 214.452761 
L 129.463095 214.522983 
L 131.314737 214.310384 
L 135.018019 213.480784 
L 144.276226 211.24366 
L 147.979508 210.007178 
L 150.27656 209.011584 
L 170.199204 199.272393 
L 172.932482 197.411666 
L 186.863975 186.998126 
L 193.158275 181.945109 
L 194.27054 180.799875 
L 203.528747 170.173595 
L 207.232029 165.009522 
L 209.083671 162.257914 
L 213.394271 154.878633 
L 215.340228 151.011994 
L 216.957645 147.145355 
L 218.065719 143.278715 
L 219.298654 135.545437 
L 219.400812 131.678797 
L 218.613649 127.812158 
L 216.934327 123.945519 
L 214.638594 119.927181 
L 212.115153 116.21224 
L 209.083671 112.92575 
L 208.494032 112.345601 
L 203.528747 108.224826 
L 199.825464 105.731377 
L 197.973823 104.612322 
L 194.27054 102.731945 
L 186.863975 99.56514 
L 183.160693 98.238478 
L 173.902486 95.259859 
L 170.199204 94.296217 
L 163.823066 93.012404 
L 153.534432 91.195243 
L 146.127867 90.243785 
L 140.572943 89.713844 
L 131.314737 89.037559 
L 125.759813 88.796792 
L 118.353248 88.792273 
L 112.798324 89.037618 
L 107.2434 89.568741 
L 99.836835 90.613652 
L 96.133552 91.389938 
L 92.43027 92.479121 
L 86.875346 94.440118 
L 85.023705 95.309014 
L 82.357723 96.879044 
L 79.468781 98.853033 
L 77.217634 100.745683 
L 75.765498 102.204882 
L 73.789529 104.612322 
L 71.391552 108.478962 
L 69.680307 112.345601 
L 68.358933 116.371926 
L 67.458593 120.07888 
L 66.878392 123.945519 
L 66.604839 127.812158 
L 66.507292 139.895483 
L 66.688953 143.278715 
L 67.015549 147.145355 
L 67.461999 151.011994 
L 68.358933 156.575745 
L 69.658043 162.611912 
L 70.58565 166.478551 
L 72.062216 171.768745 
L 72.893177 174.21183 
L 75.765498 181.070253 
L 77.822535 185.811748 
L 80.03363 189.678387 
L 81.320422 191.81622 
L 83.172063 194.484187 
L 85.588839 197.411666 
L 89.276938 201.278305 
L 90.578628 202.658164 
L 93.328025 205.144945 
L 94.281911 205.938461 
L 96.133552 207.26865 
L 99.149873 209.011584 
L 99.836835 209.408397 
L 101.688476 210.24111 
L 107.2434 212.229939 
L 109.095041 212.965602 
L 109.095041 212.965602 
" style="fill:none;stroke:#3f4788;stroke-width:1.5;"/>
   </g>
   <g id="LineCollection_4">
    <path clip-path="url(#p0448a4c1f7)" d="M 123.908172 201.308957 
L 125.759813 201.214314 
L 129.463095 200.611519 
L 133.166378 199.854286 
L 136.869661 199.180858 
L 138.721302 198.675275 
L 149.83115 194.75872 
L 159.089356 190.6125 
L 162.792638 188.711591 
L 164.64428 187.591926 
L 168.347562 185.068325 
L 172.050845 182.600204 
L 173.902486 181.117234 
L 177.605769 177.96409 
L 179.45741 176.532793 
L 185.012334 171.924454 
L 186.982732 170.345191 
L 188.715616 168.471173 
L 190.567258 166.201935 
L 198.765052 154.878633 
L 200.930949 151.011994 
L 202.376071 147.145355 
L 204.447479 139.412076 
L 205.234455 135.545437 
L 205.070168 131.678797 
L 204.040875 127.812158 
L 202.429014 123.945519 
L 199.825464 119.70801 
L 197.179818 116.21224 
L 194.27054 113.122344 
L 193.429396 112.345601 
L 190.567258 110.331132 
L 186.863975 107.987851 
L 183.160693 106.148079 
L 173.902486 102.297787 
L 170.199204 100.948769 
L 164.64428 99.243111 
L 157.237715 97.45618 
L 153.534432 96.811472 
L 140.572943 94.8262 
L 135.018019 94.251444 
L 127.611454 93.760045 
L 122.05653 93.713004 
L 114.649965 94.030143 
L 110.946683 94.261328 
L 107.2434 94.681879 
L 103.540117 95.309246 
L 99.836835 96.118844 
L 96.133552 97.153485 
L 92.43027 98.4052 
L 90.578628 99.165419 
L 87.587441 100.745683 
L 85.023705 102.366349 
L 81.320422 105.081292 
L 79.468781 106.798395 
L 77.617139 109.016608 
L 75.660317 112.345601 
L 73.913857 117.048317 
L 72.945103 120.07888 
L 72.062216 124.324055 
L 71.588118 127.812158 
L 71.310489 131.678797 
L 71.223958 135.545437 
L 71.293573 139.412076 
L 71.561189 143.278715 
L 72.074145 147.145355 
L 73.609003 154.878633 
L 74.619985 158.745273 
L 76.916212 166.478551 
L 78.532647 170.345191 
L 80.576894 174.21183 
L 83.172063 178.737089 
L 85.484178 181.945109 
L 86.875346 183.755147 
L 90.578628 188.145421 
L 92.43027 190.021628 
L 94.281911 191.602537 
L 97.224393 193.545027 
L 99.836835 195.085372 
L 103.540117 197.080816 
L 105.391759 197.943951 
L 107.2434 198.629808 
L 110.946683 199.595499 
L 114.649965 200.287262 
L 122.05653 201.227971 
L 123.908172 201.308957 
L 123.908172 201.308957 
" style="fill:none;stroke:#32648e;stroke-width:1.5;"/>
   </g>
   <g id="LineCollection_5">
    <path clip-path="url(#p0448a4c1f7)" d="M 105.391759 186.101459 
L 109.095041 187.567197 
L 112.798324 188.657735 
L 116.501606 189.297934 
L 120.204889 189.624286 
L 123.908172 189.629369 
L 127.611454 189.309643 
L 131.314737 188.839181 
L 135.018019 188.219723 
L 136.869661 187.805187 
L 138.721302 187.237737 
L 146.127867 184.49864 
L 149.83115 183.162427 
L 153.534432 181.619473 
L 155.386073 180.698753 
L 159.089356 178.525168 
L 164.64428 174.959318 
L 166.495921 173.574638 
L 173.902486 167.584193 
L 179.45741 162.461848 
L 181.309051 160.562284 
L 183.160693 158.405583 
L 185.642446 154.878633 
L 187.902833 151.011994 
L 189.879352 147.145355 
L 191.246227 143.278715 
L 192.104124 139.412076 
L 192.675879 135.545437 
L 192.756692 131.678797 
L 192.098318 127.812158 
L 190.453487 123.945519 
L 187.642949 120.07888 
L 184.014154 116.21224 
L 178.781976 112.345601 
L 173.902486 109.50939 
L 172.050845 108.464715 
L 168.347562 106.83341 
L 162.68261 104.612322 
L 159.089356 103.510815 
L 155.386073 102.573664 
L 146.866043 100.745683 
L 142.424584 100.029315 
L 135.018019 99.042545 
L 129.463095 98.410888 
L 125.759813 98.24495 
L 122.05653 98.248013 
L 118.353248 98.470388 
L 107.2434 99.563032 
L 103.540117 100.281989 
L 99.836835 101.339396 
L 96.133552 102.62813 
L 92.43027 104.188954 
L 90.578628 105.217558 
L 88.726987 106.40538 
L 85.916147 108.478962 
L 85.023705 109.32085 
L 82.24113 112.345601 
L 81.320422 113.836399 
L 80.083106 116.21224 
L 78.620477 120.07888 
L 77.407176 123.945519 
L 76.587635 127.812158 
L 76.131019 131.678797 
L 76.056849 135.545437 
L 76.224944 139.412076 
L 76.742568 143.278715 
L 78.409485 151.011994 
L 79.468781 154.97052 
L 82.339069 162.611912 
L 84.092217 166.478551 
L 86.875346 171.056916 
L 89.169217 174.21183 
L 90.578628 175.740605 
L 94.281911 179.193268 
L 96.133552 180.750546 
L 99.836835 183.35999 
L 101.688476 184.411301 
L 105.391759 186.101459 
L 105.391759 186.101459 
" style="fill:none;stroke:#27808e;stroke-width:1.5;"/>
   </g>
   <g id="LineCollection_6">
    <path clip-path="url(#p0448a4c1f7)" d="M 110.946683 178.231264 
L 114.649965 179.138037 
L 116.501606 179.424726 
L 118.353248 179.588664 
L 122.05653 179.59034 
L 127.611454 179.276812 
L 131.314737 178.822776 
L 135.019286 178.078469 
L 138.721302 177.032563 
L 146.127867 174.60153 
L 147.979508 173.749726 
L 155.386073 169.63773 
L 157.237715 168.493286 
L 159.91534 166.478551 
L 162.792638 164.002233 
L 166.495921 161.001996 
L 168.889775 158.745273 
L 172.574008 154.878633 
L 173.902486 153.284056 
L 175.754127 150.798513 
L 178.06142 147.145355 
L 179.802007 143.278715 
L 180.853388 139.412076 
L 181.309019 135.545437 
L 180.906917 131.678797 
L 179.45741 127.439291 
L 177.521274 123.945519 
L 174.668777 120.07888 
L 173.902486 119.256952 
L 172.050845 117.43783 
L 170.199204 115.924447 
L 164.587305 112.345601 
L 160.940997 110.524068 
L 157.237715 109.032693 
L 153.534432 107.785853 
L 147.979508 106.054422 
L 144.276226 105.237086 
L 136.869661 104.0448 
L 131.314737 103.239271 
L 127.611454 102.931386 
L 123.908172 102.844593 
L 120.204889 102.958843 
L 109.095041 104.085587 
L 105.921763 104.612322 
L 105.391759 104.729492 
L 101.688476 105.875044 
L 97.985194 107.290601 
L 95.433454 108.478962 
L 94.281911 109.200098 
L 90.578628 111.927958 
L 90.067261 112.345601 
L 88.726987 113.693411 
L 86.605905 116.21224 
L 85.023705 118.730024 
L 84.320005 120.07888 
L 82.82004 123.945519 
L 81.799946 127.812158 
L 81.223801 131.678797 
L 81.154362 135.545437 
L 81.505674 139.412076 
L 82.122877 143.278715 
L 83.172063 147.821038 
L 84.104573 151.011994 
L 85.602613 154.878633 
L 87.529605 158.745273 
L 88.726987 160.96739 
L 90.578628 163.833718 
L 92.627409 166.478551 
L 94.281911 168.307469 
L 96.488891 170.345191 
L 97.985194 171.572212 
L 99.836835 172.897839 
L 103.540117 174.981092 
L 107.2434 176.796596 
L 110.514345 178.078469 
L 110.946683 178.231264 
L 110.946683 178.231264 
" style="fill:none;stroke:#1e9b8a;stroke-width:1.5;"/>
   </g>
   <g id="LineCollection_7">
    <path clip-path="url(#p0448a4c1f7)" d="M 120.204889 170.563749 
L 122.05653 170.638384 
L 123.908172 170.630298 
L 125.759813 170.613586 
L 127.611454 170.583915 
L 129.463095 170.470603 
L 130.337167 170.345191 
L 131.314737 170.203513 
L 133.166378 169.780152 
L 135.018019 169.25325 
L 136.869661 168.677923 
L 138.721302 168.064901 
L 140.572943 167.39943 
L 142.424584 166.674862 
L 142.898903 166.478551 
L 144.276226 165.893131 
L 146.127867 165.072594 
L 147.979508 164.201712 
L 149.83115 163.229777 
L 150.84646 162.611912 
L 151.682791 162.052267 
L 153.534432 160.682211 
L 155.386073 159.181456 
L 155.891799 158.745273 
L 157.237715 157.508318 
L 159.089356 155.772635 
L 160.052972 154.878633 
L 160.940997 153.881444 
L 162.792638 151.843077 
L 163.519918 151.011994 
L 164.64428 149.615087 
L 166.473675 147.145355 
L 166.495921 147.096437 
L 168.149382 143.278715 
L 168.347562 142.672309 
L 169.426276 139.412076 
L 170.199204 136.707771 
L 170.534497 135.545437 
L 170.649683 131.678797 
L 170.199204 130.354436 
L 169.26412 127.812158 
L 168.347562 126.407878 
L 166.627899 123.945519 
L 166.495921 123.807927 
L 164.64428 121.865923 
L 162.960409 120.07888 
L 162.792638 119.943026 
L 160.940997 118.512869 
L 159.089356 117.207835 
L 157.540917 116.21224 
L 157.237715 116.055337 
L 155.386073 115.159115 
L 153.534432 114.298536 
L 151.682791 113.410549 
L 149.83115 112.503899 
L 149.481571 112.345601 
L 147.979508 111.738755 
L 146.127867 111.124028 
L 144.276226 110.614612 
L 142.424584 110.160033 
L 140.572943 109.729545 
L 138.721302 109.328442 
L 136.869661 108.968859 
L 135.018019 108.64096 
L 134.06004 108.478962 
L 133.166378 108.34015 
L 131.314737 108.078306 
L 129.463095 107.878717 
L 127.611454 107.752783 
L 125.759813 107.671831 
L 123.908172 107.615753 
L 122.05653 107.609674 
L 120.204889 107.685208 
L 118.353248 107.828098 
L 116.501606 107.993026 
L 114.649965 108.155863 
L 112.798324 108.333628 
L 111.658056 108.478962 
L 110.946683 108.586409 
L 109.095041 108.983908 
L 107.2434 109.501122 
L 105.391759 110.094626 
L 103.540117 110.743368 
L 101.688476 111.468075 
L 99.836835 112.308137 
L 99.764963 112.345601 
L 97.985194 113.452851 
L 96.133552 114.783042 
L 94.373803 116.21224 
L 94.281911 116.297207 
L 92.43027 118.202127 
L 90.844135 120.07888 
L 90.578628 120.515596 
L 88.726987 123.855981 
L 88.681054 123.945519 
L 87.46575 127.812158 
L 86.875346 131.678797 
L 86.795342 135.545437 
L 86.875346 136.430828 
L 87.156585 139.412076 
L 87.874645 143.278715 
L 88.726987 146.129656 
L 89.050411 147.145355 
L 90.545568 151.011994 
L 90.578628 151.07934 
L 92.43027 154.568026 
L 92.611142 154.878633 
L 94.281911 157.25022 
L 95.509907 158.745273 
L 96.133552 159.463366 
L 97.985194 161.338393 
L 99.418955 162.611912 
L 99.836835 162.992707 
L 101.688476 164.493063 
L 103.540117 165.775195 
L 104.804519 166.478551 
L 105.391759 166.780931 
L 107.2434 167.561688 
L 109.095041 168.214256 
L 110.946683 168.759737 
L 112.798324 169.215891 
L 114.649965 169.618239 
L 116.501606 169.997517 
L 118.353248 170.333707 
L 118.448652 170.345191 
L 120.204889 170.563749 
" style="fill:none;stroke:#32b67a;stroke-width:1.5;"/>
   </g>
   <g id="LineCollection_8">
    <path clip-path="url(#p0448a4c1f7)" d="M 109.095041 159.541685 
L 110.946683 160.301672 
L 112.798324 160.911849 
L 114.649965 161.436934 
L 116.501606 161.870121 
L 118.353248 162.160983 
L 120.204889 162.308826 
L 122.05653 162.376248 
L 123.908172 162.428269 
L 125.759813 162.490345 
L 127.611454 162.516535 
L 129.463095 162.372471 
L 131.314737 161.936313 
L 133.166378 161.265454 
L 135.018019 160.565363 
L 136.869661 159.961367 
L 138.721302 159.380687 
L 140.38052 158.745273 
L 140.572943 158.667716 
L 142.424584 157.743632 
L 144.276226 156.720735 
L 146.127867 155.623155 
L 147.327659 154.878633 
L 147.979508 154.396203 
L 149.83115 152.915503 
L 151.682791 151.215765 
L 151.878192 151.011994 
L 153.534432 148.99091 
L 154.958721 147.145355 
L 155.386073 146.525215 
L 157.237715 143.596336 
L 157.430829 143.278715 
L 159.089356 139.529418 
L 159.141798 139.412076 
L 160.213421 135.545437 
L 159.792334 131.678797 
L 159.089356 130.104757 
L 158.082489 127.812158 
L 157.237715 126.516324 
L 155.567193 123.945519 
L 155.386073 123.767126 
L 153.534432 122.045359 
L 151.682791 120.508996 
L 151.102177 120.07888 
L 149.83115 119.404128 
L 147.979508 118.478693 
L 146.127867 117.59867 
L 144.276226 116.775026 
L 142.951653 116.21224 
L 142.424584 116.029259 
L 140.572943 115.416849 
L 138.721302 114.8553 
L 136.869661 114.367995 
L 135.018019 113.957739 
L 133.166378 113.607802 
L 131.314737 113.313784 
L 129.463095 113.091004 
L 127.611454 112.935662 
L 125.759813 112.804421 
L 123.908172 112.675309 
L 122.05653 112.597803 
L 120.204889 112.633218 
L 118.353248 112.769305 
L 116.501606 112.946286 
L 114.649965 113.161268 
L 112.798324 113.483938 
L 110.946683 113.966912 
L 109.095041 114.584865 
L 107.2434 115.267833 
L 105.391759 115.984184 
L 104.858246 116.21224 
L 103.540117 116.894592 
L 101.688476 118.083215 
L 99.836835 119.501868 
L 99.128404 120.07888 
L 97.985194 121.177137 
L 96.133552 123.109506 
L 95.457099 123.945519 
L 94.281911 126.689167 
L 93.87272 127.812158 
L 93.175677 131.678797 
L 93.080209 135.545437 
L 93.480109 139.412076 
L 94.281911 142.866808 
L 94.384989 143.278715 
L 95.948506 147.145355 
L 96.133552 147.533729 
L 97.985194 150.93496 
L 98.035158 151.011994 
L 99.836835 153.091801 
L 101.688476 154.878633 
L 103.540117 156.230799 
L 105.391759 157.441802 
L 107.2434 158.571548 
L 107.561245 158.745273 
L 109.095041 159.541685 
" style="fill:none;stroke:#67cc5c;stroke-width:1.5;"/>
   </g>
   <g id="LineCollection_9">
    <path clip-path="url(#p0448a4c1f7)" d="M 114.649965 151.393596 
L 116.501606 151.884254 
L 118.353248 152.297955 
L 120.204889 152.602686 
L 122.05653 152.695401 
L 123.908172 152.528258 
L 125.759813 152.194336 
L 127.611454 151.817128 
L 129.463095 151.408612 
L 130.996877 151.011994 
L 131.314737 150.923594 
L 133.166378 150.32386 
L 135.018019 149.647576 
L 136.869661 148.869776 
L 138.721302 147.979302 
L 140.264626 147.145355 
L 140.572943 146.932335 
L 142.424584 145.288606 
L 144.125494 143.278715 
L 144.276226 142.957683 
L 145.813779 139.412076 
L 146.127867 138.245785 
L 146.808913 135.545437 
L 146.524651 131.678797 
L 146.127867 130.897535 
L 144.430278 127.812158 
L 144.276226 127.646864 
L 142.424584 125.945466 
L 140.572943 124.552388 
L 139.680346 123.945519 
L 138.721302 123.454878 
L 136.869661 122.587497 
L 135.018019 121.783648 
L 133.166378 121.03636 
L 131.314737 120.399396 
L 130.054094 120.07888 
L 129.463095 119.967541 
L 127.611454 119.716284 
L 125.759813 119.500757 
L 123.908172 119.307888 
L 122.05653 119.21762 
L 120.204889 119.291719 
L 118.353248 119.484588 
L 116.501606 119.736686 
L 114.649965 120.07888 
L 112.798324 120.752708 
L 110.946683 121.634767 
L 109.095041 122.620834 
L 107.2434 123.679474 
L 106.835839 123.945519 
L 105.391759 125.429554 
L 103.540117 127.792066 
L 103.525902 127.812158 
L 102.090262 131.678797 
L 101.688476 134.348464 
L 101.528952 135.545437 
L 101.688476 136.976766 
L 102.002452 139.412076 
L 103.540117 142.882497 
L 103.743053 143.278715 
L 105.391759 145.31311 
L 107.098355 147.145355 
L 107.2434 147.267044 
L 109.095041 148.649574 
L 110.946683 149.825003 
L 112.798324 150.745898 
L 113.518221 151.011994 
L 114.649965 151.393596 
" style="fill:none;stroke:#b2dd2d;stroke-width:1.5;"/>
   </g>
   <g id="LineCollection_10"/>
  </g>
  <g id="axes_2">
   <g id="patch_3">
    <path d="M 47.907716 48.23444 
L 293.857696 48.23444 
L 293.857696 12.96 
L 47.907716 12.96 
z
" style="fill:none;opacity:0;"/>
   </g>
   <g id="matplotlib.axis_3">
    <g id="xtick_8">
     <g id="line2d_16">
      <path clip-path="url(#p922e6c010f)" d="M 47.907716 48.23444 
L 47.907716 12.96 
" style="fill:none;stroke:#ffffff;stroke-linecap:round;"/>
     </g>
    </g>
    <g id="xtick_9">
     <g id="line2d_17">
      <path clip-path="url(#p922e6c010f)" d="M 88.899379 48.23444 
L 88.899379 12.96 
" style="fill:none;stroke:#ffffff;stroke-linecap:round;"/>
     </g>
    </g>
    <g id="xtick_10">
     <g id="line2d_18">
      <path clip-path="url(#p922e6c010f)" d="M 129.891043 48.23444 
L 129.891043 12.96 
" style="fill:none;stroke:#ffffff;stroke-linecap:round;"/>
     </g>
    </g>
    <g id="xtick_11">
     <g id="line2d_19">
      <path clip-path="url(#p922e6c010f)" d="M 170.882706 48.23444 
L 170.882706 12.96 
" style="fill:none;stroke:#ffffff;stroke-linecap:round;"/>
     </g>
    </g>
    <g id="xtick_12">
     <g id="line2d_20">
      <path clip-path="url(#p922e6c010f)" d="M 211.874369 48.23444 
L 211.874369 12.96 
" style="fill:none;stroke:#ffffff;stroke-linecap:round;"/>
     </g>
    </g>
    <g id="xtick_13">
     <g id="line2d_21">
      <path clip-path="url(#p922e6c010f)" d="M 252.866033 48.23444 
L 252.866033 12.96 
" style="fill:none;stroke:#ffffff;stroke-linecap:round;"/>
     </g>
    </g>
    <g id="xtick_14">
     <g id="line2d_22">
      <path clip-path="url(#p922e6c010f)" d="M 293.857696 48.23444 
L 293.857696 12.96 
" style="fill:none;stroke:#ffffff;stroke-linecap:round;"/>
     </g>
    </g>
   </g>
   <g id="matplotlib.axis_4">
    <g id="ytick_9"/>
    <g id="ytick_10"/>
   </g>
   <g id="patch_4">
    <path clip-path="url(#p922e6c010f)" d="M 48.16786 48.23444 
L 59.821402 48.23444 
L 59.821402 46.758723 
L 48.16786 46.758723 
z
" style="fill:#1f77b4;fill-opacity:0.75;stroke:#ffffff;stroke-linejoin:miter;"/>
   </g>
   <g id="patch_5">
    <path clip-path="url(#p922e6c010f)" d="M 59.821402 48.23444 
L 71.474943 48.23444 
L 71.474943 40.374229 
L 59.821402 40.374229 
z
" style="fill:#1f77b4;fill-opacity:0.75;stroke:#ffffff;stroke-linejoin:miter;"/>
   </g>
   <g id="patch_6">
    <path clip-path="url(#p922e6c010f)" d="M 71.474943 48.23444 
L 83.128484 48.23444 
L 83.128484 31.97476 
L 71.474943 31.97476 
z
" style="fill:#1f77b4;fill-opacity:0.75;stroke:#ffffff;stroke-linejoin:miter;"/>
   </g>
   <g id="patch_7">
    <path clip-path="url(#p922e6c010f)" d="M 83.128484 48.23444 
L 94.782026 48.23444 
L 94.782026 24.278239 
L 83.128484 24.278239 
z
" style="fill:#1f77b4;fill-opacity:0.75;stroke:#ffffff;stroke-linejoin:miter;"/>
   </g>
   <g id="patch_8">
    <path clip-path="url(#p922e6c010f)" d="M 94.782026 48.23444 
L 106.435567 48.23444 
L 106.435567 18.638606 
L 94.782026 18.638606 
z
" style="fill:#1f77b4;fill-opacity:0.75;stroke:#ffffff;stroke-linejoin:miter;"/>
   </g>
   <g id="patch_9">
    <path clip-path="url(#p922e6c010f)" d="M 106.435567 48.23444 
L 118.089108 48.23444 
L 118.089108 15.506571 
L 106.435567 15.506571 
z
" style="fill:#1f77b4;fill-opacity:0.75;stroke:#ffffff;stroke-linejoin:miter;"/>
   </g>
   <g id="patch_10">
    <path clip-path="url(#p922e6c010f)" d="M 118.089108 48.23444 
L 129.74265 48.23444 
L 129.74265 14.639735 
L 118.089108 14.639735 
z
" style="fill:#1f77b4;fill-opacity:0.75;stroke:#ffffff;stroke-linejoin:miter;"/>
   </g>
   <g id="patch_11">
    <path clip-path="url(#p922e6c010f)" d="M 129.74265 48.23444 
L 141.396191 48.23444 
L 141.396191 15.823909 
L 129.74265 15.823909 
z
" style="fill:#1f77b4;fill-opacity:0.75;stroke:#ffffff;stroke-linejoin:miter;"/>
   </g>
   <g id="patch_12">
    <path clip-path="url(#p922e6c010f)" d="M 141.396191 48.23444 
L 153.049732 48.23444 
L 153.049732 18.315455 
L 141.396191 18.315455 
z
" style="fill:#1f77b4;fill-opacity:0.75;stroke:#ffffff;stroke-linejoin:miter;"/>
   </g>
   <g id="patch_13">
    <path clip-path="url(#p922e6c010f)" d="M 153.049732 48.23444 
L 164.703274 48.23444 
L 164.703274 21.749636 
L 153.049732 21.749636 
z
" style="fill:#1f77b4;fill-opacity:0.75;stroke:#ffffff;stroke-linejoin:miter;"/>
   </g>
   <g id="patch_14">
    <path clip-path="url(#p922e6c010f)" d="M 164.703274 48.23444 
L 176.356815 48.23444 
L 176.356815 25.618903 
L 164.703274 25.618903 
z
" style="fill:#1f77b4;fill-opacity:0.75;stroke:#ffffff;stroke-linejoin:miter;"/>
   </g>
   <g id="patch_15">
    <path clip-path="url(#p922e6c010f)" d="M 176.356815 48.23444 
L 188.010356 48.23444 
L 188.010356 29.54085 
L 176.356815 29.54085 
z
" style="fill:#1f77b4;fill-opacity:0.75;stroke:#ffffff;stroke-linejoin:miter;"/>
   </g>
   <g id="patch_16">
    <path clip-path="url(#p922e6c010f)" d="M 188.010356 48.23444 
L 199.663898 48.23444 
L 199.663898 33.223208 
L 188.010356 33.223208 
z
" style="fill:#1f77b4;fill-opacity:0.75;stroke:#ffffff;stroke-linejoin:miter;"/>
   </g>
   <g id="patch_17">
    <path clip-path="url(#p922e6c010f)" d="M 199.663898 48.23444 
L 211.317439 48.23444 
L 211.317439 36.615047 
L 199.663898 36.615047 
z
" style="fill:#1f77b4;fill-opacity:0.75;stroke:#ffffff;stroke-linejoin:miter;"/>
   </g>
   <g id="patch_18">
    <path clip-path="url(#p922e6c010f)" d="M 211.317439 48.23444 
L 222.97098 48.23444 
L 222.97098 39.44999 
L 211.317439 39.44999 
z
" style="fill:#1f77b4;fill-opacity:0.75;stroke:#ffffff;stroke-linejoin:miter;"/>
   </g>
   <g id="patch_19">
    <path clip-path="url(#p922e6c010f)" d="M 222.97098 48.23444 
L 234.624522 48.23444 
L 234.624522 41.817348 
L 222.97098 41.817348 
z
" style="fill:#1f77b4;fill-opacity:0.75;stroke:#ffffff;stroke-linejoin:miter;"/>
   </g>
   <g id="patch_20">
    <path clip-path="url(#p922e6c010f)" d="M 234.624522 48.23444 
L 246.278063 48.23444 
L 246.278063 43.676659 
L 234.624522 43.676659 
z
" style="fill:#1f77b4;fill-opacity:0.75;stroke:#ffffff;stroke-linejoin:miter;"/>
   </g>
   <g id="patch_21">
    <path clip-path="url(#p922e6c010f)" d="M 246.278063 48.23444 
L 257.931604 48.23444 
L 257.931604 45.096195 
L 246.278063 45.096195 
z
" style="fill:#1f77b4;fill-opacity:0.75;stroke:#ffffff;stroke-linejoin:miter;"/>
   </g>
   <g id="patch_22">
    <path clip-path="url(#p922e6c010f)" d="M 257.931604 48.23444 
L 269.585146 48.23444 
L 269.585146 46.150831 
L 257.931604 46.150831 
z
" style="fill:#1f77b4;fill-opacity:0.75;stroke:#ffffff;stroke-linejoin:miter;"/>
   </g>
   <g id="patch_23">
    <path clip-path="url(#p922e6c010f)" d="M 269.585146 48.23444 
L 281.238687 48.23444 
L 281.238687 46.927631 
L 269.585146 46.927631 
z
" style="fill:#1f77b4;fill-opacity:0.75;stroke:#ffffff;stroke-linejoin:miter;"/>
   </g>
   <g id="patch_24">
    <path clip-path="url(#p922e6c010f)" d="M 281.238687 48.23444 
L 292.892228 48.23444 
L 292.892228 47.438319 
L 281.238687 47.438319 
z
" style="fill:#1f77b4;fill-opacity:0.75;stroke:#ffffff;stroke-linejoin:miter;"/>
   </g>
   <g id="patch_25">
    <path clip-path="url(#p922e6c010f)" d="M 292.892228 48.23444 
L 304.54577 48.23444 
L 304.54577 47.76408 
L 292.892228 47.76408 
z
" style="fill:#1f77b4;fill-opacity:0.75;stroke:#ffffff;stroke-linejoin:miter;"/>
   </g>
   <g id="patch_26">
    <path clip-path="url(#p922e6c010f)" d="M 304.54577 48.23444 
L 316.199311 48.23444 
L 316.199311 47.979823 
L 304.54577 47.979823 
z
" style="fill:#1f77b4;fill-opacity:0.75;stroke:#ffffff;stroke-linejoin:miter;"/>
   </g>
   <g id="patch_27">
    <path clip-path="url(#p922e6c010f)" d="M 316.199311 48.23444 
L 327.852852 48.23444 
L 327.852852 48.096645 
L 316.199311 48.096645 
z
" style="fill:#1f77b4;fill-opacity:0.75;stroke:#ffffff;stroke-linejoin:miter;"/>
   </g>
   <g id="patch_28">
    <path clip-path="url(#p922e6c010f)" d="M 327.852852 48.23444 
L 339.506394 48.23444 
L 339.506394 48.169473 
L 327.852852 48.169473 
z
" style="fill:#1f77b4;fill-opacity:0.75;stroke:#ffffff;stroke-linejoin:miter;"/>
   </g>
   <g id="patch_29">
    <path clip-path="url(#p922e6c010f)" d="M 339.506394 48.23444 
L 351.159935 48.23444 
L 351.159935 48.203492 
L 339.506394 48.203492 
z
" style="fill:#1f77b4;fill-opacity:0.75;stroke:#ffffff;stroke-linejoin:miter;"/>
   </g>
   <g id="patch_30">
    <path clip-path="url(#p922e6c010f)" d="M 351.159935 48.23444 
L 362.813476 48.23444 
L 362.813476 48.222352 
L 351.159935 48.222352 
z
" style="fill:#1f77b4;fill-opacity:0.75;stroke:#ffffff;stroke-linejoin:miter;"/>
   </g>
   <g id="patch_31">
    <path clip-path="url(#p922e6c010f)" d="M 362.813476 48.23444 
L 374.467018 48.23444 
L 374.467018 48.22942 
L 362.813476 48.22942 
z
" style="fill:#1f77b4;fill-opacity:0.75;stroke:#ffffff;stroke-linejoin:miter;"/>
   </g>
   <g id="patch_32">
    <path clip-path="url(#p922e6c010f)" d="M 374.467018 48.23444 
L 386.120559 48.23444 
L 386.120559 48.232921 
L 374.467018 48.232921 
z
" style="fill:#1f77b4;fill-opacity:0.75;stroke:#ffffff;stroke-linejoin:miter;"/>
   </g>
   <g id="patch_33">
    <path clip-path="url(#p922e6c010f)" d="M 386.120559 48.23444 
L 397.7741 48.23444 
L 397.7741 48.234209 
L 386.120559 48.234209 
z
" style="fill:#1f77b4;fill-opacity:0.75;stroke:#ffffff;stroke-linejoin:miter;"/>
   </g>
   <g id="patch_34">
    <path d="M 47.907716 48.23444 
L 293.857696 48.23444 
" style="fill:none;stroke:#ffffff;stroke-linecap:square;stroke-linejoin:miter;stroke-width:1.25;"/>
   </g>
  </g>
  <g id="axes_3">
   <g id="patch_35">
    <path d="M 313.819234 308.432508 
L 347.04 308.432508 
L 347.04 64.999614 
L 313.819234 64.999614 
z
" style="fill:none;opacity:0;"/>
   </g>
   <g id="matplotlib.axis_5">
    <g id="xtick_15"/>
    <g id="xtick_16"/>
   </g>
   <g id="matplotlib.axis_6">
    <g id="ytick_11">
     <g id="line2d_23">
      <path clip-path="url(#p8e7d27bc4a)" d="M 313.819234 308.432508 
L 347.04 308.432508 
" style="fill:none;stroke:#ffffff;stroke-linecap:round;"/>
     </g>
    </g>
    <g id="ytick_12">
     <g id="line2d_24">
      <path clip-path="url(#p8e7d27bc4a)" d="M 313.819234 273.65638 
L 347.04 273.65638 
" style="fill:none;stroke:#ffffff;stroke-linecap:round;"/>
     </g>
    </g>
    <g id="ytick_13">
     <g id="line2d_25">
      <path clip-path="url(#p8e7d27bc4a)" d="M 313.819234 238.880253 
L 347.04 238.880253 
" style="fill:none;stroke:#ffffff;stroke-linecap:round;"/>
     </g>
    </g>
    <g id="ytick_14">
     <g id="line2d_26">
      <path clip-path="url(#p8e7d27bc4a)" d="M 313.819234 204.104125 
L 347.04 204.104125 
" style="fill:none;stroke:#ffffff;stroke-linecap:round;"/>
     </g>
    </g>
    <g id="ytick_15">
     <g id="line2d_27">
      <path clip-path="url(#p8e7d27bc4a)" d="M 313.819234 169.327997 
L 347.04 169.327997 
" style="fill:none;stroke:#ffffff;stroke-linecap:round;"/>
     </g>
    </g>
    <g id="ytick_16">
     <g id="line2d_28">
      <path clip-path="url(#p8e7d27bc4a)" d="M 313.819234 134.551869 
L 347.04 134.551869 
" style="fill:none;stroke:#ffffff;stroke-linecap:round;"/>
     </g>
    </g>
    <g id="ytick_17">
     <g id="line2d_29">
      <path clip-path="url(#p8e7d27bc4a)" d="M 313.819234 99.775741 
L 347.04 99.775741 
" style="fill:none;stroke:#ffffff;stroke-linecap:round;"/>
     </g>
    </g>
    <g id="ytick_18">
     <g id="line2d_30">
      <path clip-path="url(#p8e7d27bc4a)" d="M 313.819234 64.999614 
L 347.04 64.999614 
" style="fill:none;stroke:#ffffff;stroke-linecap:round;"/>
     </g>
    </g>
   </g>
   <g id="patch_36">
    <path clip-path="url(#p8e7d27bc4a)" d="M 313.819234 787.626013 
L 313.819247 787.626013 
L 313.819247 762.584955 
L 313.819234 762.584955 
z
" style="fill:#1f77b4;fill-opacity:0.75;stroke:#ffffff;stroke-linejoin:miter;"/>
   </g>
   <g id="patch_37">
    <path clip-path="url(#p8e7d27bc4a)" d="M 313.819234 762.584955 
L 313.819234 762.584955 
L 313.819234 737.543898 
L 313.819234 737.543898 
z
" style="fill:#1f77b4;fill-opacity:0.75;stroke:#ffffff;stroke-linejoin:miter;"/>
   </g>
   <g id="patch_38">
    <path clip-path="url(#p8e7d27bc4a)" d="M 313.819234 737.543898 
L 313.819234 737.543898 
L 313.819234 712.50284 
L 313.819234 712.50284 
z
" style="fill:#1f77b4;fill-opacity:0.75;stroke:#ffffff;stroke-linejoin:miter;"/>
   </g>
   <g id="patch_39">
    <path clip-path="url(#p8e7d27bc4a)" d="M 313.819234 712.50284 
L 313.819247 712.50284 
L 313.819247 687.461782 
L 313.819234 687.461782 
z
" style="fill:#1f77b4;fill-opacity:0.75;stroke:#ffffff;stroke-linejoin:miter;"/>
   </g>
   <g id="patch_40">
    <path clip-path="url(#p8e7d27bc4a)" d="M 313.819234 687.461782 
L 313.819247 687.461782 
L 313.819247 662.420725 
L 313.819234 662.420725 
z
" style="fill:#1f77b4;fill-opacity:0.75;stroke:#ffffff;stroke-linejoin:miter;"/>
   </g>
   <g id="patch_41">
    <path clip-path="url(#p8e7d27bc4a)" d="M 313.819234 662.420725 
L 313.819273 662.420725 
L 313.819273 637.379667 
L 313.819234 637.379667 
z
" style="fill:#1f77b4;fill-opacity:0.75;stroke:#ffffff;stroke-linejoin:miter;"/>
   </g>
   <g id="patch_42">
    <path clip-path="url(#p8e7d27bc4a)" d="M 313.819234 637.379667 
L 313.819234 637.379667 
L 313.819234 612.338609 
L 313.819234 612.338609 
z
" style="fill:#1f77b4;fill-opacity:0.75;stroke:#ffffff;stroke-linejoin:miter;"/>
   </g>
   <g id="patch_43">
    <path clip-path="url(#p8e7d27bc4a)" d="M 313.819234 612.338609 
L 313.819415 612.338609 
L 313.819415 587.297552 
L 313.819234 587.297552 
z
" style="fill:#1f77b4;fill-opacity:0.75;stroke:#ffffff;stroke-linejoin:miter;"/>
   </g>
   <g id="patch_44">
    <path clip-path="url(#p8e7d27bc4a)" d="M 313.819234 587.297552 
L 313.819621 587.297552 
L 313.819621 562.256494 
L 313.819234 562.256494 
z
" style="fill:#1f77b4;fill-opacity:0.75;stroke:#ffffff;stroke-linejoin:miter;"/>
   </g>
   <g id="patch_45">
    <path clip-path="url(#p8e7d27bc4a)" d="M 313.819234 562.256494 
L 313.819802 562.256494 
L 313.819802 537.215436 
L 313.819234 537.215436 
z
" style="fill:#1f77b4;fill-opacity:0.75;stroke:#ffffff;stroke-linejoin:miter;"/>
   </g>
   <g id="patch_46">
    <path clip-path="url(#p8e7d27bc4a)" d="M 313.819234 537.215436 
L 313.820588 537.215436 
L 313.820588 512.174379 
L 313.819234 512.174379 
z
" style="fill:#1f77b4;fill-opacity:0.75;stroke:#ffffff;stroke-linejoin:miter;"/>
   </g>
   <g id="patch_47">
    <path clip-path="url(#p8e7d27bc4a)" d="M 313.819234 512.174379 
L 313.821814 512.174379 
L 313.821814 487.133321 
L 313.819234 487.133321 
z
" style="fill:#1f77b4;fill-opacity:0.75;stroke:#ffffff;stroke-linejoin:miter;"/>
   </g>
   <g id="patch_48">
    <path clip-path="url(#p8e7d27bc4a)" d="M 313.819234 487.133321 
L 313.824702 487.133321 
L 313.824702 462.092263 
L 313.819234 462.092263 
z
" style="fill:#1f77b4;fill-opacity:0.75;stroke:#ffffff;stroke-linejoin:miter;"/>
   </g>
   <g id="patch_49">
    <path clip-path="url(#p8e7d27bc4a)" d="M 313.819234 462.092263 
L 313.830325 462.092263 
L 313.830325 437.051206 
L 313.819234 437.051206 
z
" style="fill:#1f77b4;fill-opacity:0.75;stroke:#ffffff;stroke-linejoin:miter;"/>
   </g>
   <g id="patch_50">
    <path clip-path="url(#p8e7d27bc4a)" d="M 313.819234 437.051206 
L 313.841596 437.051206 
L 313.841596 412.010148 
L 313.819234 412.010148 
z
" style="fill:#1f77b4;fill-opacity:0.75;stroke:#ffffff;stroke-linejoin:miter;"/>
   </g>
   <g id="patch_51">
    <path clip-path="url(#p8e7d27bc4a)" d="M 313.819234 412.010148 
L 313.866523 412.010148 
L 313.866523 386.969091 
L 313.819234 386.969091 
z
" style="fill:#1f77b4;fill-opacity:0.75;stroke:#ffffff;stroke-linejoin:miter;"/>
   </g>
   <g id="patch_52">
    <path clip-path="url(#p8e7d27bc4a)" d="M 313.819234 386.969091 
L 313.915165 386.969091 
L 313.915165 361.928033 
L 313.819234 361.928033 
z
" style="fill:#1f77b4;fill-opacity:0.75;stroke:#ffffff;stroke-linejoin:miter;"/>
   </g>
   <g id="patch_53">
    <path clip-path="url(#p8e7d27bc4a)" d="M 313.819234 361.928033 
L 314.01552 361.928033 
L 314.01552 336.886975 
L 313.819234 336.886975 
z
" style="fill:#1f77b4;fill-opacity:0.75;stroke:#ffffff;stroke-linejoin:miter;"/>
   </g>
   <g id="patch_54">
    <path clip-path="url(#p8e7d27bc4a)" d="M 313.819234 336.886975 
L 314.219104 336.886975 
L 314.219104 311.845918 
L 313.819234 311.845918 
z
" style="fill:#1f77b4;fill-opacity:0.75;stroke:#ffffff;stroke-linejoin:miter;"/>
   </g>
   <g id="patch_55">
    <path clip-path="url(#p8e7d27bc4a)" d="M 313.819234 311.845918 
L 314.637943 311.845918 
L 314.637943 286.80486 
L 313.819234 286.80486 
z
" style="fill:#1f77b4;fill-opacity:0.75;stroke:#ffffff;stroke-linejoin:miter;"/>
   </g>
   <g id="patch_56">
    <path clip-path="url(#p8e7d27bc4a)" d="M 313.819234 286.80486 
L 315.492231 286.80486 
L 315.492231 261.763802 
L 313.819234 261.763802 
z
" style="fill:#1f77b4;fill-opacity:0.75;stroke:#ffffff;stroke-linejoin:miter;"/>
   </g>
   <g id="patch_57">
    <path clip-path="url(#p8e7d27bc4a)" d="M 313.819234 261.763802 
L 317.198176 261.763802 
L 317.198176 236.722745 
L 313.819234 236.722745 
z
" style="fill:#1f77b4;fill-opacity:0.75;stroke:#ffffff;stroke-linejoin:miter;"/>
   </g>
   <g id="patch_58">
    <path clip-path="url(#p8e7d27bc4a)" d="M 313.819234 236.722745 
L 320.455188 236.722745 
L 320.455188 211.681687 
L 313.819234 211.681687 
z
" style="fill:#1f77b4;fill-opacity:0.75;stroke:#ffffff;stroke-linejoin:miter;"/>
   </g>
   <g id="patch_59">
    <path clip-path="url(#p8e7d27bc4a)" d="M 313.819234 211.681687 
L 326.36585 211.681687 
L 326.36585 186.640629 
L 313.819234 186.640629 
z
" style="fill:#1f77b4;fill-opacity:0.75;stroke:#ffffff;stroke-linejoin:miter;"/>
   </g>
   <g id="patch_60">
    <path clip-path="url(#p8e7d27bc4a)" d="M 313.819234 186.640629 
L 335.464738 186.640629 
L 335.464738 161.599572 
L 313.819234 161.599572 
z
" style="fill:#1f77b4;fill-opacity:0.75;stroke:#ffffff;stroke-linejoin:miter;"/>
   </g>
   <g id="patch_61">
    <path clip-path="url(#p8e7d27bc4a)" d="M 313.819234 161.599572 
L 345.092943 161.599572 
L 345.092943 136.558514 
L 313.819234 136.558514 
z
" style="fill:#1f77b4;fill-opacity:0.75;stroke:#ffffff;stroke-linejoin:miter;"/>
   </g>
   <g id="patch_62">
    <path clip-path="url(#p8e7d27bc4a)" d="M 313.819234 136.558514 
L 345.458059 136.558514 
L 345.458059 111.517456 
L 313.819234 111.517456 
z
" style="fill:#1f77b4;fill-opacity:0.75;stroke:#ffffff;stroke-linejoin:miter;"/>
   </g>
   <g id="patch_63">
    <path clip-path="url(#p8e7d27bc4a)" d="M 313.819234 111.517456 
L 329.976849 111.517456 
L 329.976849 86.476399 
L 313.819234 86.476399 
z
" style="fill:#1f77b4;fill-opacity:0.75;stroke:#ffffff;stroke-linejoin:miter;"/>
   </g>
   <g id="patch_64">
    <path clip-path="url(#p8e7d27bc4a)" d="M 313.819234 86.476399 
L 316.188056 86.476399 
L 316.188056 61.435341 
L 313.819234 61.435341 
z
" style="fill:#1f77b4;fill-opacity:0.75;stroke:#ffffff;stroke-linejoin:miter;"/>
   </g>
   <g id="patch_65">
    <path clip-path="url(#p8e7d27bc4a)" d="M 313.819234 61.435341 
L 313.854994 61.435341 
L 313.854994 36.394283 
L 313.819234 36.394283 
z
" style="fill:#1f77b4;fill-opacity:0.75;stroke:#ffffff;stroke-linejoin:miter;"/>
   </g>
   <g id="patch_66">
    <path d="M 313.819234 308.432508 
L 313.819234 64.999614 
" style="fill:none;stroke:#ffffff;stroke-linecap:square;stroke-linejoin:miter;stroke-width:1.25;"/>
   </g>
  </g>
 </g>
 <defs>
  <clipPath id="p0448a4c1f7">
   <rect height="243.432895" width="245.94998" x="47.907716" y="64.999614"/>
  </clipPath>
  <clipPath id="p922e6c010f">
   <rect height="35.27444" width="245.94998" x="47.907716" y="12.96"/>
  </clipPath>
  <clipPath id="p8e7d27bc4a">
   <rect height="243.432895" width="33.220766" x="313.819234" y="64.999614"/>
  </clipPath>
 </defs>
</svg>
