<?xml version="1.0" encoding="utf-8" standalone="no"?>
<!DOCTYPE svg PUBLIC "-//W3C//DTD SVG 1.1//EN"
  "http://www.w3.org/Graphics/SVG/1.1/DTD/svg11.dtd">
<!-- Created with matplotlib (https://matplotlib.org/) -->
<svg height="360pt" version="1.1" viewBox="0 0 360 360" width="360pt" xmlns="http://www.w3.org/2000/svg" xmlns:xlink="http://www.w3.org/1999/xlink">
 <metadata>
  <rdf:RDF xmlns:cc="http://creativecommons.org/ns#" xmlns:dc="http://purl.org/dc/elements/1.1/" xmlns:rdf="http://www.w3.org/1999/02/22-rdf-syntax-ns#">
   <cc:Work>
    <dc:type rdf:resource="http://purl.org/dc/dcmitype/StillImage"/>
    <dc:date>2021-08-09T14:35:42.659581</dc:date>
    <dc:format>image/svg+xml</dc:format>
    <dc:creator>
     <cc:Agent>
      <dc:title>Matplotlib v3.3.4, https://matplotlib.org/</dc:title>
     </cc:Agent>
    </dc:creator>
   </cc:Work>
  </rdf:RDF>
 </metadata>
 <defs>
  <style type="text/css">*{stroke-linecap:butt;stroke-linejoin:round;}</style>
 </defs>
 <g id="figure_1">
  <g id="patch_1">
   <path d="M 0 360 
L 360 360 
L 360 0 
L 0 0 
z
" style="fill:none;"/>
  </g>
  <g id="axes_1">
   <g id="patch_2">
    <path d="M 47.437776 313.171983 
L 294.489674 313.171983 
L 294.489674 65.789526 
L 47.437776 65.789526 
z
" style="fill:none;opacity:0;"/>
   </g>
   <g id="matplotlib.axis_1">
    <g id="xtick_1">
     <g id="line2d_1">
      <path clip-path="url(#p0fcce60581)" d="M 47.437776 313.171983 
L 47.437776 65.789526 
" style="fill:none;stroke:#ffffff;stroke-linecap:round;"/>
     </g>
     <g id="text_1">
      <!-- $\mathdefault{−3}$ -->
      <g style="fill:#262626;" transform="translate(40.436237 330.28233)scale(0.11 -0.11)">
       <defs>
        <path d="M 65.90625 23 
C 67.59375 23 69.40625 23 69.40625 25 
C 69.40625 27 67.59375 27 65.90625 27 
L 11.796875 27 
C 10.09375 27 8.296875 27 8.296875 25 
C 8.296875 23 10.09375 23 11.796875 23 
z
" id="CMSY10-0"/>
        <path d="M 22.09375 33.703125 
C 31 33.703125 34.90625 25.96875 34.90625 17.03125 
C 34.90625 5 28.5 0.390625 22.703125 0.390625 
C 17.40625 0.390625 8.796875 3.03125 6.09375 10.828125 
C 6.59375 10.625 7.09375 10.625 7.59375 10.625 
C 10 10.625 11.796875 12.21875 11.796875 14.8125 
C 11.796875 17.703125 9.59375 19 7.59375 19 
C 5.90625 19 3.296875 18.203125 3.296875 14.46875 
C 3.296875 5.234375 12.296875 -2 22.90625 -2 
C 34 -2 42.5 6.71875 42.5 16.953125 
C 42.5 26.671875 34.5 33.703125 25 34.796875 
C 32.59375 36.375 39.90625 43.0625 39.90625 52.015625 
C 39.90625 59.6875 32 65.296875 23 65.296875 
C 13.90625 65.296875 5.90625 59.828125 5.90625 52.015625 
C 5.90625 48.59375 8.5 48 9.796875 48 
C 11.90625 48 13.703125 49.296875 13.703125 51.890625 
C 13.703125 54.46875 11.90625 55.765625 9.796875 55.765625 
C 9.40625 55.765625 8.90625 55.765625 8.5 55.578125 
C 11.40625 61.859375 19.296875 63 22.796875 63 
C 26.296875 63 32.90625 61.328125 32.90625 51.875 
C 32.90625 49.109375 32.5 44.1875 29.09375 39.84375 
C 26.09375 36 22.703125 36 19.40625 35.6875 
C 18.90625 35.6875 16.59375 35.453125 16.203125 35.453125 
C 15.5 35.359375 15.09375 35.265625 15.09375 34.5 
C 15.09375 33.796875 15.203125 33.703125 17.203125 33.703125 
z
" id="CMR17-51"/>
       </defs>
       <use transform="scale(0.996264)" xlink:href="#CMSY10-0"/>
       <use transform="translate(77.487468 0)scale(0.996264)" xlink:href="#CMR17-51"/>
      </g>
     </g>
    </g>
    <g id="xtick_2">
     <g id="line2d_2">
      <path clip-path="url(#p0fcce60581)" d="M 88.613092 313.171983 
L 88.613092 65.789526 
" style="fill:none;stroke:#ffffff;stroke-linecap:round;"/>
     </g>
     <g id="text_2">
      <!-- $\mathdefault{−2}$ -->
      <g style="fill:#262626;" transform="translate(81.611554 330.28233)scale(0.11 -0.11)">
       <defs>
        <path d="M 41.703125 15.453125 
L 39.90625 15.453125 
C 38.90625 8.375 38.09375 7.171875 37.703125 6.5625 
C 37.203125 5.765625 30 5.765625 28.59375 5.765625 
L 9.40625 5.765625 
C 13 9.671875 20 16.75 28.5 24.953125 
C 34.59375 30.734375 41.703125 37.53125 41.703125 47.421875 
C 41.703125 59.21875 32.296875 66 21.796875 66 
C 10.796875 66 4.09375 56.3125 4.09375 47.34375 
C 4.09375 43.4375 7 42.9375 8.203125 42.9375 
C 9.203125 42.9375 12.203125 43.546875 12.203125 47.03125 
C 12.203125 50.109375 9.59375 51 8.203125 51 
C 7.59375 51 7 50.90625 6.59375 50.703125 
C 8.5 59.21875 14.296875 63.40625 20.40625 63.40625 
C 29.09375 63.40625 34.796875 56.515625 34.796875 47.421875 
C 34.796875 38.734375 29.703125 31.25 24 24.75 
L 4.09375 2.28125 
L 4.09375 0 
L 39.296875 0 
z
" id="CMR17-50"/>
       </defs>
       <use transform="scale(0.996264)" xlink:href="#CMSY10-0"/>
       <use transform="translate(77.487468 0)scale(0.996264)" xlink:href="#CMR17-50"/>
      </g>
     </g>
    </g>
    <g id="xtick_3">
     <g id="line2d_3">
      <path clip-path="url(#p0fcce60581)" d="M 129.788408 313.171983 
L 129.788408 65.789526 
" style="fill:none;stroke:#ffffff;stroke-linecap:round;"/>
     </g>
     <g id="text_3">
      <!-- $\mathdefault{−1}$ -->
      <g style="fill:#262626;" transform="translate(122.78687 330.28233)scale(0.11 -0.11)">
       <defs>
        <path d="M 26.59375 63.40625 
C 26.59375 65.5 26.5 65.5 25.09375 65.5 
C 21.203125 61.1875 15.296875 59.796875 9.703125 59.796875 
C 9.40625 59.796875 8.90625 59.796875 8.796875 59.5 
C 8.703125 59.296875 8.703125 59.09375 8.703125 57 
C 11.796875 57 17 57.59375 21 59.984375 
L 21 7.203125 
C 21 3.6875 20.796875 2.5 12.203125 2.5 
L 9.203125 2.5 
L 9.203125 0 
C 14 0 19 0 23.796875 0 
C 28.59375 0 33.59375 0 38.40625 0 
L 38.40625 2.5 
L 35.40625 2.5 
C 26.796875 2.5 26.59375 3.59375 26.59375 7.15625 
z
" id="CMR17-49"/>
       </defs>
       <use transform="scale(0.996264)" xlink:href="#CMSY10-0"/>
       <use transform="translate(77.487468 0)scale(0.996264)" xlink:href="#CMR17-49"/>
      </g>
     </g>
    </g>
    <g id="xtick_4">
     <g id="line2d_4">
      <path clip-path="url(#p0fcce60581)" d="M 170.963725 313.171983 
L 170.963725 65.789526 
" style="fill:none;stroke:#ffffff;stroke-linecap:round;"/>
     </g>
     <g id="text_4">
      <!-- $\mathdefault{0}$ -->
      <g style="fill:#262626;" transform="translate(168.223991 330.28233)scale(0.11 -0.11)">
       <defs>
        <path d="M 42 31.640625 
C 42 37.75 41.90625 48.125 37.703125 56.109375 
C 34 63.109375 28.09375 65.59375 22.90625 65.59375 
C 18.09375 65.59375 12 63.40625 8.203125 56.203125 
C 4.203125 48.71875 3.796875 39.4375 3.796875 31.640625 
C 3.796875 25.953125 3.90625 17.28125 7 9.671875 
C 11.296875 -0.609375 19 -2 22.90625 -2 
C 27.5 -2 34.5 -0.109375 38.59375 9.375 
C 41.59375 16.28125 42 24.359375 42 31.640625 
z
M 22.90625 -0.40625 
C 16.5 -0.40625 12.703125 5.078125 11.296875 12.6875 
C 10.203125 18.5625 10.203125 27.15625 10.203125 32.75 
C 10.203125 40.4375 10.203125 46.828125 11.5 52.921875 
C 13.40625 61.390625 19 64 22.90625 64 
C 27 64 32.296875 61.296875 34.203125 53.125 
C 35.5 47.4375 35.59375 40.734375 35.59375 32.75 
C 35.59375 26.25 35.59375 18.265625 34.40625 12.375 
C 32.296875 1.484375 26.40625 -0.40625 22.90625 -0.40625 
z
" id="CMR17-48"/>
       </defs>
       <use transform="scale(0.996264)" xlink:href="#CMR17-48"/>
      </g>
     </g>
    </g>
    <g id="xtick_5">
     <g id="line2d_5">
      <path clip-path="url(#p0fcce60581)" d="M 212.139041 313.171983 
L 212.139041 65.789526 
" style="fill:none;stroke:#ffffff;stroke-linecap:round;"/>
     </g>
     <g id="text_5">
      <!-- $\mathdefault{1}$ -->
      <g style="fill:#262626;" transform="translate(209.399307 330.28233)scale(0.11 -0.11)">
       <use transform="scale(0.996264)" xlink:href="#CMR17-49"/>
      </g>
     </g>
    </g>
    <g id="xtick_6">
     <g id="line2d_6">
      <path clip-path="url(#p0fcce60581)" d="M 253.314357 313.171983 
L 253.314357 65.789526 
" style="fill:none;stroke:#ffffff;stroke-linecap:round;"/>
     </g>
     <g id="text_6">
      <!-- $\mathdefault{2}$ -->
      <g style="fill:#262626;" transform="translate(250.574624 330.28233)scale(0.11 -0.11)">
       <use transform="scale(0.996264)" xlink:href="#CMR17-50"/>
      </g>
     </g>
    </g>
    <g id="xtick_7">
     <g id="line2d_7">
      <path clip-path="url(#p0fcce60581)" d="M 294.489674 313.171983 
L 294.489674 65.789526 
" style="fill:none;stroke:#ffffff;stroke-linecap:round;"/>
     </g>
     <g id="text_7">
      <!-- $\mathdefault{3}$ -->
      <g style="fill:#262626;" transform="translate(291.74994 330.28233)scale(0.11 -0.11)">
       <use transform="scale(0.996264)" xlink:href="#CMR17-51"/>
      </g>
     </g>
    </g>
    <g id="text_8">
     <!-- $X_1$ -->
     <g style="fill:#262626;" transform="translate(163.989025 344.715404)scale(0.12 -0.12)">
      <defs>
       <path d="M 47.5 40.5625 
L 38.09375 62.40625 
C 39.40625 64.796875 42.40625 65.1875 43.59375 65.296875 
C 44.203125 65.296875 45.296875 65.296875 45.296875 67.0625 
C 45.296875 68.1875 44.40625 68.1875 43.796875 68.1875 
C 42.09375 68.1875 40.09375 68.1875 38.40625 68.1875 
L 32.59375 68.1875 
C 26.5 68.1875 22.09375 68.1875 22 68.1875 
C 21.203125 68.1875 20.203125 68.1875 20.203125 66.296875 
C 20.203125 65.296875 21.09375 65.296875 22.40625 65.296875 
C 28.203125 65.296875 28.59375 64.296875 29.59375 61.90625 
L 41.5 34.140625 
L 19.796875 10.828125 
C 16.203125 6.90625 11.90625 3.09375 4.5 3.09375 
C 3.296875 3 2.5 3 2.5 1.0625 
C 2.5 0.75 2.59375 0 3.703125 0 
C 5.09375 0 6.59375 0 8 0 
L 12.703125 0 
C 15.90625 0 19.40625 0 22.5 0 
C 23.203125 0 24.40625 0 24.40625 1.796875 
C 24.40625 2.796875 23.703125 2.890625 23.09375 2.890625 
C 21.09375 3.09375 19.796875 4.1875 19.796875 5.78125 
C 19.796875 7.484375 21 8.703125 23.90625 11.6875 
L 32.796875 21.375 
C 35 23.6875 40.296875 29.46875 42.5 31.65625 
L 53 7.078125 
C 53.09375 6.890625 53.5 5.890625 53.5 5.78125 
C 53.5 4.890625 51.296875 3.09375 48.09375 3.09375 
C 47.5 3.09375 46.40625 3.09375 46.40625 1.109375 
C 46.40625 0 47.40625 0 47.90625 0 
C 49.59375 0 51.59375 0 53.296875 0 
L 64.296875 0 
C 66.09375 0 68 0 69.703125 0 
C 70.40625 0 71.5 0 71.5 2.03125 
C 71.5 3.09375 70.5 3.09375 69.59375 3.09375 
C 63.59375 3.09375 63.40625 3.59375 61.703125 7.265625 
L 48.5 38.140625 
L 61.203125 51.8125 
C 62.203125 52.828125 64.5 55.34375 65.40625 56.34375 
C 69.703125 60.875 73.703125 65 81.796875 65 
C 82.796875 65.296875 83.796875 65.296875 83.796875 67.0625 
C 83.796875 68.1875 82.90625 68.1875 82.5 68.1875 
C 81.09375 68.1875 79.59375 68.1875 78.203125 68.1875 
L 73.59375 68.1875 
C 70.40625 68.1875 66.90625 68.1875 63.796875 68.1875 
C 63.09375 68.1875 61.90625 68.1875 61.90625 66.390625 
C 61.90625 65.390625 62.59375 65.296875 63.203125 65.296875 
C 64.796875 65.109375 66.5 64.3125 66.5 62.40625 
L 66.40625 62.21875 
C 66.296875 61.515625 66.09375 60.515625 65 59.328125 
z
" id="CMMI12-88"/>
      </defs>
      <use transform="scale(0.996264)" xlink:href="#CMMI12-88"/>
      <use transform="translate(80.960224 -14.943915)scale(0.697382)" xlink:href="#CMR17-49"/>
     </g>
    </g>
   </g>
   <g id="matplotlib.axis_2">
    <g id="ytick_1">
     <g id="line2d_8">
      <path clip-path="url(#p0fcce60581)" d="M 47.437776 313.171983 
L 294.489674 313.171983 
" style="fill:none;stroke:#ffffff;stroke-linecap:round;"/>
     </g>
     <g id="text_9">
      <!-- $\mathdefault{−3}$ -->
      <g style="fill:#262626;" transform="translate(23.934699 316.977156)scale(0.11 -0.11)">
       <use transform="scale(0.996264)" xlink:href="#CMSY10-0"/>
       <use transform="translate(77.487468 0)scale(0.996264)" xlink:href="#CMR17-51"/>
      </g>
     </g>
    </g>
    <g id="ytick_2">
     <g id="line2d_9">
      <path clip-path="url(#p0fcce60581)" d="M 47.437776 271.941574 
L 294.489674 271.941574 
" style="fill:none;stroke:#ffffff;stroke-linecap:round;"/>
     </g>
     <g id="text_10">
      <!-- $\mathdefault{−2}$ -->
      <g style="fill:#262626;" transform="translate(23.934699 275.746747)scale(0.11 -0.11)">
       <use transform="scale(0.996264)" xlink:href="#CMSY10-0"/>
       <use transform="translate(77.487468 0)scale(0.996264)" xlink:href="#CMR17-50"/>
      </g>
     </g>
    </g>
    <g id="ytick_3">
     <g id="line2d_10">
      <path clip-path="url(#p0fcce60581)" d="M 47.437776 230.711164 
L 294.489674 230.711164 
" style="fill:none;stroke:#ffffff;stroke-linecap:round;"/>
     </g>
     <g id="text_11">
      <!-- $\mathdefault{−1}$ -->
      <g style="fill:#262626;" transform="translate(23.934699 234.516337)scale(0.11 -0.11)">
       <use transform="scale(0.996264)" xlink:href="#CMSY10-0"/>
       <use transform="translate(77.487468 0)scale(0.996264)" xlink:href="#CMR17-49"/>
      </g>
     </g>
    </g>
    <g id="ytick_4">
     <g id="line2d_11">
      <path clip-path="url(#p0fcce60581)" d="M 47.437776 189.480755 
L 294.489674 189.480755 
" style="fill:none;stroke:#ffffff;stroke-linecap:round;"/>
     </g>
     <g id="text_12">
      <!-- $\mathdefault{0}$ -->
      <g style="fill:#262626;" transform="translate(32.458308 193.285928)scale(0.11 -0.11)">
       <use transform="scale(0.996264)" xlink:href="#CMR17-48"/>
      </g>
     </g>
    </g>
    <g id="ytick_5">
     <g id="line2d_12">
      <path clip-path="url(#p0fcce60581)" d="M 47.437776 148.250345 
L 294.489674 148.250345 
" style="fill:none;stroke:#ffffff;stroke-linecap:round;"/>
     </g>
     <g id="text_13">
      <!-- $\mathdefault{1}$ -->
      <g style="fill:#262626;" transform="translate(32.458308 152.055518)scale(0.11 -0.11)">
       <use transform="scale(0.996264)" xlink:href="#CMR17-49"/>
      </g>
     </g>
    </g>
    <g id="ytick_6">
     <g id="line2d_13">
      <path clip-path="url(#p0fcce60581)" d="M 47.437776 107.019936 
L 294.489674 107.019936 
" style="fill:none;stroke:#ffffff;stroke-linecap:round;"/>
     </g>
     <g id="text_14">
      <!-- $\mathdefault{2}$ -->
      <g style="fill:#262626;" transform="translate(32.458308 110.825109)scale(0.11 -0.11)">
       <use transform="scale(0.996264)" xlink:href="#CMR17-50"/>
      </g>
     </g>
    </g>
    <g id="ytick_7">
     <g id="line2d_14">
      <path clip-path="url(#p0fcce60581)" d="M 47.437776 65.789526 
L 294.489674 65.789526 
" style="fill:none;stroke:#ffffff;stroke-linecap:round;"/>
     </g>
     <g id="text_15">
      <!-- $\mathdefault{3}$ -->
      <g style="fill:#262626;" transform="translate(32.458308 69.594699)scale(0.11 -0.11)">
       <use transform="scale(0.996264)" xlink:href="#CMR17-51"/>
      </g>
     </g>
    </g>
    <g id="text_16">
     <!-- $X_2$ -->
     <g style="fill:#262626;" transform="translate(12.96 187.156159)scale(0.12 -0.12)">
      <use transform="scale(0.996264)" xlink:href="#CMMI12-88"/>
      <use transform="translate(80.960224 -14.943915)scale(0.697382)" xlink:href="#CMR17-50"/>
     </g>
    </g>
   </g>
   <g id="PolyCollection_1">
    <defs>
     <path d="M 280.66012 -95.449953 
L 280.66012 -245.588538 
L 170.963725 -320.65783 
L 61.267329 -245.588538 
L 61.267329 -95.449953 
L 170.963725 -20.380661 
z
" id="C0_0_3bf26778e7"/>
    </defs>
    <g clip-path="url(#p0fcce60581)">
     <use style="fill:none;" x="-227.862478" xlink:href="#C0_0_3bf26778e7" y="598.750944"/>
    </g>
    <g clip-path="url(#p0fcce60581)">
     <use style="fill:none;" x="-227.862478" xlink:href="#C0_0_3bf26778e7" y="148.33519"/>
    </g>
    <g clip-path="url(#p0fcce60581)">
     <use style="fill:none;" x="-8.469688" xlink:href="#C0_0_3bf26778e7" y="598.750944"/>
    </g>
    <g clip-path="url(#p0fcce60581)">
     <use style="fill:none;" x="-8.469688" xlink:href="#C0_0_3bf26778e7" y="148.33519"/>
    </g>
    <g clip-path="url(#p0fcce60581)">
     <use style="fill:none;" x="210.923103" xlink:href="#C0_0_3bf26778e7" y="598.750944"/>
    </g>
    <g clip-path="url(#p0fcce60581)">
     <use style="fill:none;" x="210.923103" xlink:href="#C0_0_3bf26778e7" y="148.33519"/>
    </g>
    <g clip-path="url(#p0fcce60581)">
     <use style="fill:none;" x="-118.166083" xlink:href="#C0_0_3bf26778e7" y="373.543067"/>
    </g>
    <g clip-path="url(#p0fcce60581)">
     <use style="fill:none;" x="101.226707" xlink:href="#C0_0_3bf26778e7" y="373.543067"/>
    </g>
   </g>
   <g id="LineCollection_1">
    <path clip-path="url(#p0fcce60581)" d="M 83.504697 288.968315 
L 85.794243 289.800791 
L 90.373335 290.520569 
L 97.241974 290.853236 
L 101.821066 290.05195 
L 104.110612 289.867558 
L 106.400158 289.483955 
L 115.558342 286.887206 
L 120.137434 285.371605 
L 124.716527 283.609432 
L 129.295619 281.864406 
L 136.164257 278.572625 
L 139.099652 276.988839 
L 143.032895 275.041449 
L 147.611987 272.21559 
L 154.480626 267.767449 
L 163.63881 261.709948 
L 168.217902 258.581871 
L 172.796994 255.478346 
L 175.222588 253.507881 
L 180.618651 248.811689 
L 184.244725 245.910935 
L 189.207397 241.767402 
L 191.979755 239.419306 
L 197.982001 233.943145 
L 200.271547 231.757682 
L 204.850639 227.064408 
L 214.008824 217.96477 
L 218.587916 213.271095 
L 220.877462 210.587136 
L 225.803534 204.197869 
L 235.685936 192.45739 
L 244.372568 180.716912 
L 247.402933 176.02072 
L 250.641561 171.142511 
L 251.869106 168.976433 
L 253.036764 166.628337 
L 255.704848 161.932145 
L 259.961642 154.887858 
L 261.27629 152.539762 
L 263.365999 147.843571 
L 269.584627 131.4069 
L 270.367613 129.058804 
L 270.755542 126.710708 
L 270.880621 124.362613 
L 271.247475 121.419608 
L 272.126863 117.318325 
L 272.182947 114.970229 
L 272.092657 112.622134 
L 271.863454 110.274038 
L 271.387616 107.925942 
L 271.183462 105.577846 
L 270.584915 103.229751 
L 268.957929 99.242607 
L 268.621632 98.533559 
L 266.668383 95.685212 
L 264.378837 93.668199 
L 257.510199 89.986761 
L 254.824703 89.141176 
L 250.641561 88.382983 
L 248.352015 88.473584 
L 243.772923 88.974269 
L 241.483376 88.957819 
L 238.81728 89.141176 
L 232.325192 90.462064 
L 228.60112 91.489272 
L 225.456554 92.254685 
L 220.71388 93.837367 
L 216.29837 95.444713 
L 211.719277 97.374273 
L 207.140185 99.702215 
L 204.850639 101.079044 
L 200.271547 103.481931 
L 197.982001 104.590245 
L 191.113363 108.779601 
L 188.823817 110.274038 
L 186.534271 111.542504 
L 181.955178 114.559099 
L 168.217902 124.471764 
L 156.770172 133.856905 
L 140.743349 147.937092 
L 138.453803 150.210333 
L 133.874711 155.229292 
L 129.295619 159.976979 
L 122.426981 166.813111 
L 117.847888 172.270627 
L 110.97925 180.756201 
L 103.640577 190.109295 
L 98.121785 197.153582 
L 96.40831 199.501678 
L 94.908914 201.849774 
L 90.373335 209.536344 
L 89.162705 211.242157 
L 86.37893 215.938348 
L 81.215151 225.803372 
L 80.306084 227.678827 
L 78.335581 232.375019 
L 76.293758 237.07121 
L 74.673125 241.767402 
L 72.405301 248.811689 
L 72.056967 251.744581 
L 71.679516 253.507881 
L 70.911563 255.855977 
L 70.300584 258.204073 
L 69.767421 263.771137 
L 69.578844 265.24836 
L 69.59773 267.596456 
L 70.020197 269.944552 
L 70.280186 272.292647 
L 70.884877 274.640743 
L 72.056967 277.334154 
L 74.612554 281.68503 
L 76.12482 284.033126 
L 76.636059 284.499692 
L 78.925605 287.088105 
L 81.215151 288.328319 
L 83.504697 288.968315 
L 83.504697 288.968315 
" style="fill:none;stroke:#440154;stroke-width:1.5;"/>
   </g>
   <g id="LineCollection_2">
    <path clip-path="url(#p0fcce60581)" d="M 104.110612 268.165968 
L 106.400158 268.760893 
L 110.97925 269.322424 
L 113.268796 269.240192 
L 120.137434 268.352388 
L 127.006073 266.45539 
L 129.295619 265.79228 
L 133.874711 263.849918 
L 136.164257 262.794599 
L 143.032895 260.102819 
L 146.478882 258.204073 
L 150.295875 255.855977 
L 159.059718 250.52634 
L 168.217902 243.977521 
L 171.50503 241.767402 
L 172.796994 240.869632 
L 177.38655 237.07121 
L 184.244725 231.440953 
L 186.534271 229.546774 
L 195.692455 221.136569 
L 198.606602 218.286444 
L 207.489473 208.894061 
L 218.587916 196.216277 
L 220.877462 193.402515 
L 221.643217 192.45739 
L 230.035646 180.624753 
L 235.876962 171.324528 
L 238.51525 166.628337 
L 243.185448 157.235954 
L 246.107416 150.191666 
L 246.984469 147.843571 
L 247.710451 145.495475 
L 249.952015 136.103092 
L 250.321366 133.754996 
L 250.498508 131.4069 
L 250.201087 124.362613 
L 249.838051 122.014517 
L 248.914277 119.666421 
L 247.512915 117.318325 
L 245.540471 114.970229 
L 242.651259 112.622134 
L 241.483376 111.83152 
L 239.19383 110.943086 
L 235.965506 110.274038 
L 234.614738 109.943481 
L 232.325192 109.817074 
L 230.035646 109.954236 
L 225.456554 109.835972 
L 222.943077 110.274038 
L 218.587916 111.435944 
L 213.776246 112.622134 
L 211.719277 113.357026 
L 204.850639 116.346544 
L 200.271547 118.443813 
L 195.692455 120.862366 
L 184.244725 127.561783 
L 178.628924 131.4069 
L 175.08654 133.840972 
L 163.63881 142.417522 
L 151.732757 152.539762 
L 146.793963 157.235954 
L 138.453803 165.551564 
L 135.388114 168.976433 
L 129.223629 176.02072 
L 121.349682 185.413103 
L 114.32527 194.805486 
L 109.733073 201.849774 
L 106.400158 207.047085 
L 103.769101 211.242157 
L 101.299869 215.938348 
L 96.073578 227.678827 
L 93.493355 234.723115 
L 92.662882 238.265224 
L 91.959662 241.767402 
L 91.718938 244.115498 
L 91.698037 246.463594 
L 91.499613 248.811689 
L 91.428199 251.159785 
L 91.825721 253.507881 
L 93.163445 258.204073 
L 94.063036 260.552168 
L 94.952428 262.05088 
L 95.604078 262.900264 
L 97.241974 264.245425 
L 99.53152 265.710076 
L 101.821066 267.365203 
L 104.110612 268.165968 
L 104.110612 268.165968 
" style="fill:none;stroke:#482878;stroke-width:1.5;"/>
   </g>
   <g id="LineCollection_3">
    <path clip-path="url(#p0fcce60581)" d="M 113.268796 256.466672 
L 115.558342 256.948322 
L 117.847888 257.142603 
L 122.426981 257.214231 
L 124.716527 257.082036 
L 127.006073 256.742387 
L 130.830974 255.855977 
L 133.874711 254.98772 
L 138.453803 253.377633 
L 143.032895 251.447534 
L 149.901533 247.966196 
L 156.770172 243.96924 
L 167.323388 237.07121 
L 168.217902 236.443357 
L 179.665632 227.563412 
L 185.032059 222.982636 
L 190.139239 218.286444 
L 195.692455 212.74948 
L 202.561093 205.357004 
L 207.726315 199.501678 
L 211.524001 194.805486 
L 214.008824 191.512858 
L 220.429216 183.065007 
L 225.456554 175.266837 
L 227.701969 171.324528 
L 231.259754 164.280241 
L 235.575673 154.887858 
L 236.387986 152.539762 
L 237.636945 147.843571 
L 238.161374 145.495475 
L 238.436433 143.147379 
L 238.592386 140.799283 
L 238.614755 138.451187 
L 238.269717 133.754996 
L 237.648578 131.4069 
L 236.430703 129.058804 
L 234.614738 126.117971 
L 232.325192 124.156252 
L 227.7461 122.405814 
L 225.456554 121.926606 
L 223.167008 121.814206 
L 218.587916 122.124014 
L 216.29837 122.14883 
L 214.008824 122.53597 
L 209.429731 123.645467 
L 207.096687 124.362613 
L 202.561093 126.12468 
L 195.692455 129.067275 
L 193.402909 130.213027 
L 186.534271 134.134307 
L 177.376086 140.109013 
L 169.953401 145.495475 
L 165.928356 148.552115 
L 159.059718 154.198666 
L 154.480626 158.212163 
L 150.562165 161.932145 
L 138.453803 174.383662 
L 136.164257 176.859103 
L 131.585165 182.442225 
L 124.716527 191.255538 
L 122.241427 194.805486 
L 119.29317 199.501678 
L 115.116474 206.545965 
L 112.465887 211.242157 
L 108.689704 218.832634 
L 107.762036 220.63454 
L 106.400158 224.059973 
L 105.960418 225.330732 
L 104.110612 232.375019 
L 103.679109 234.723115 
L 103.322761 239.419306 
L 103.282711 241.767402 
L 103.508645 244.115498 
L 105.086151 248.811689 
L 106.400158 251.378668 
L 108.904981 253.507881 
L 110.97925 255.621607 
L 111.445433 255.855977 
L 113.268796 256.466672 
L 113.268796 256.466672 
" style="fill:none;stroke:#3e4989;stroke-width:1.5;"/>
   </g>
   <g id="LineCollection_4">
    <path clip-path="url(#p0fcce60581)" d="M 120.137434 246.791477 
L 122.426981 247.65245 
L 124.716527 248.034415 
L 127.006073 248.051109 
L 131.585165 247.701303 
L 133.874711 247.442976 
L 136.164257 247.033897 
L 138.453803 246.323464 
L 145.322441 243.660233 
L 149.55077 241.767402 
L 149.901533 241.606815 
L 154.480626 239.010686 
L 163.63881 233.695799 
L 168.217902 230.517516 
L 172.796994 226.850894 
L 177.376086 222.982636 
L 181.955178 219.323823 
L 186.534271 215.24664 
L 191.113363 210.863853 
L 195.692455 206.063212 
L 203.537645 197.153582 
L 209.429731 189.972356 
L 211.719277 186.816852 
L 212.706431 185.413103 
L 217.268835 178.368816 
L 218.790498 176.02072 
L 220.877462 172.237548 
L 222.529027 168.976433 
L 225.69762 161.932145 
L 226.622558 159.584049 
L 228.778246 152.539762 
L 229.336001 150.191666 
L 229.511264 147.843571 
L 228.947208 140.799283 
L 227.097778 136.103092 
L 225.456554 134.053969 
L 223.167008 132.595734 
L 220.854732 131.4069 
L 218.587916 131.090616 
L 216.29837 130.896274 
L 214.008824 130.836522 
L 211.719277 130.935262 
L 209.121142 131.4069 
L 200.960236 133.754996 
L 200.271547 133.941169 
L 197.982001 134.76379 
L 193.402909 136.807002 
L 188.823817 139.067665 
L 184.244725 141.661469 
L 175.02943 147.843571 
L 168.547021 152.539762 
L 168.217902 152.775372 
L 162.703987 157.235954 
L 156.770172 162.274158 
L 154.480626 164.465542 
L 143.032895 176.356799 
L 138.453803 181.702611 
L 131.585165 190.330347 
L 128.322146 194.805486 
L 122.390635 204.197869 
L 119.90333 208.894061 
L 116.578322 215.938348 
L 115.558342 218.419343 
L 114.761723 220.63454 
L 113.411381 225.330732 
L 112.939285 227.678827 
L 112.620155 230.026923 
L 112.502932 232.375019 
L 112.672099 234.723115 
L 113.477878 239.419306 
L 114.18133 241.767402 
L 115.874368 244.115498 
L 117.847888 245.686886 
L 120.137434 246.791477 
L 120.137434 246.791477 
" style="fill:none;stroke:#31678e;stroke-width:1.5;"/>
   </g>
   <g id="LineCollection_5">
    <path clip-path="url(#p0fcce60581)" d="M 131.585165 239.645738 
L 133.874711 239.911465 
L 136.164257 239.864757 
L 139.255302 239.419306 
L 140.743349 239.141108 
L 145.322441 237.564667 
L 149.901533 235.711786 
L 154.480626 233.394186 
L 160.531865 230.026923 
L 163.63881 228.044782 
L 168.217902 224.875183 
L 179.549551 215.938348 
L 179.665632 215.840767 
L 187.142863 208.894061 
L 191.113363 205.064552 
L 194.135713 201.849774 
L 198.105149 197.153582 
L 205.686568 187.761199 
L 207.36933 185.413103 
L 210.340369 180.716912 
L 213.091624 176.02072 
L 215.521701 171.324528 
L 217.664301 166.628337 
L 219.420531 161.932145 
L 220.877462 157.032835 
L 221.250087 154.887858 
L 221.335732 152.539762 
L 221.302906 150.191666 
L 221.059992 147.843571 
L 220.877462 147.23842 
L 220.145723 145.495475 
L 218.587916 142.695886 
L 216.29837 140.670462 
L 214.008824 139.577074 
L 211.719277 139.037228 
L 204.850639 139.476104 
L 202.561093 139.828056 
L 200.271547 140.305131 
L 197.982001 140.938911 
L 195.692455 141.69472 
L 192.410067 143.147379 
L 184.244725 147.235304 
L 175.08654 153.291367 
L 169.554594 157.235954 
L 163.576647 161.932145 
L 159.059718 165.991112 
L 150.998265 173.672624 
L 147.611987 177.267504 
L 142.546397 183.065007 
L 138.889643 187.761199 
L 133.822384 194.805486 
L 130.73065 199.501678 
L 128.059571 204.197869 
L 125.656374 208.894061 
L 124.580331 211.242157 
L 122.943272 215.938348 
L 121.510714 220.63454 
L 120.965338 222.982636 
L 120.642227 225.330732 
L 120.702984 227.678827 
L 120.897674 230.026923 
L 121.304827 232.375019 
L 122.017383 234.723115 
L 122.426981 235.460819 
L 123.956603 237.07121 
L 124.716527 237.636134 
L 127.006073 238.763584 
L 129.814602 239.419306 
L 131.585165 239.645738 
L 131.585165 239.645738 
" style="fill:none;stroke:#26828e;stroke-width:1.5;"/>
   </g>
   <g id="LineCollection_6">
    <path clip-path="url(#p0fcce60581)" d="M 136.164257 232.519151 
L 138.453803 232.693723 
L 140.743349 232.755785 
L 143.363994 232.375019 
L 147.611987 231.116992 
L 150.644313 230.026923 
L 152.191079 229.399789 
L 159.059718 226.001494 
L 163.63881 223.395494 
L 168.217902 220.199074 
L 177.376086 212.999351 
L 179.665632 211.039374 
L 184.376994 206.545965 
L 189.100152 201.849774 
L 191.306279 199.501678 
L 195.692455 194.391354 
L 199.088834 190.109295 
L 202.561093 185.075543 
L 206.771163 178.368816 
L 208.143884 176.02072 
L 210.319259 171.324528 
L 212.331456 166.628337 
L 213.138723 164.280241 
L 213.700542 161.932145 
L 213.903137 159.584049 
L 213.967675 154.887858 
L 213.382373 152.539762 
L 211.719277 149.573285 
L 209.429731 147.611179 
L 207.140185 146.766747 
L 204.850639 146.429533 
L 202.561093 146.387783 
L 200.271547 146.528632 
L 197.982001 146.896092 
L 194.640209 147.843571 
L 191.113363 149.047261 
L 188.211492 150.191666 
L 186.534271 150.951911 
L 183.562786 152.539762 
L 179.645535 154.887858 
L 175.08654 157.989275 
L 169.92065 161.932145 
L 161.029213 168.976433 
L 158.440881 171.324528 
L 153.790532 176.02072 
L 149.428478 180.716912 
L 145.322441 185.544866 
L 141.775851 190.109295 
L 140.09581 192.45739 
L 137.191539 197.153582 
L 133.252161 204.197869 
L 130.107228 211.242157 
L 129.209542 213.590253 
L 128.565641 215.938348 
L 128.13047 218.286444 
L 127.792835 222.982636 
L 127.880828 225.330732 
L 128.814944 227.678827 
L 129.295619 228.283562 
L 131.585165 230.400902 
L 133.874711 231.837365 
L 136.164257 232.519151 
L 136.164257 232.519151 
" style="fill:none;stroke:#1e9d89;stroke-width:1.5;"/>
   </g>
   <g id="LineCollection_7">
    <path clip-path="url(#p0fcce60581)" d="M 143.032895 225.561691 
L 145.322441 225.431069 
L 145.928472 225.330732 
L 147.611987 225.053592 
L 149.901533 224.535894 
L 152.191079 223.887035 
L 154.480626 223.108979 
L 154.781139 222.982636 
L 156.770172 222.140138 
L 159.059718 221.084609 
L 159.853268 220.63454 
L 161.349264 219.771304 
L 163.63881 218.379265 
L 163.790824 218.286444 
L 165.928356 216.948633 
L 167.395313 215.938348 
L 168.217902 215.388213 
L 170.507448 213.694715 
L 170.642996 213.590253 
L 172.796994 211.943746 
L 173.678334 211.242157 
L 175.08654 210.120454 
L 176.561785 208.894061 
L 177.376086 208.193782 
L 179.255569 206.545965 
L 179.665632 206.160135 
L 181.727011 204.197869 
L 181.955178 203.965203 
L 183.963495 201.849774 
L 184.244725 201.545108 
L 186.104799 199.501678 
L 186.534271 199.034095 
L 188.275555 197.153582 
L 188.823817 196.551847 
L 190.356189 194.805486 
L 191.113363 193.905519 
L 192.265924 192.45739 
L 193.402909 190.978814 
L 194.051192 190.109295 
L 195.692455 187.809346 
L 195.726493 187.761199 
L 197.357482 185.413103 
L 197.982001 184.468109 
L 198.928877 183.065007 
L 200.271547 180.833672 
L 200.34582 180.716912 
L 201.597961 178.368816 
L 202.561093 176.474857 
L 202.798742 176.02072 
L 203.990377 173.672624 
L 204.850639 171.818547 
L 205.082742 171.324528 
L 205.971757 168.976433 
L 206.702246 166.628337 
L 207.080983 164.280241 
L 206.894016 161.932145 
L 206.145699 159.584049 
L 205.566761 157.235954 
L 204.850639 156.088902 
L 203.081598 154.887858 
L 202.561093 154.666874 
L 200.271547 154.042457 
L 197.982001 153.662608 
L 195.692455 153.724795 
L 193.402909 154.106122 
L 191.113363 154.690906 
L 190.586968 154.887858 
L 188.823817 155.524793 
L 186.534271 156.30895 
L 184.244725 157.19293 
L 184.170127 157.235954 
L 181.955178 158.455346 
L 180.18964 159.584049 
L 179.665632 159.912301 
L 177.376086 161.352084 
L 176.445275 161.932145 
L 175.08654 162.795401 
L 172.796994 164.280241 
L 170.507448 165.953493 
L 169.637304 166.628337 
L 168.217902 167.73723 
L 166.678415 168.976433 
L 165.928356 169.600163 
L 163.874166 171.324528 
L 163.63881 171.534601 
L 161.349264 173.616541 
L 161.288879 173.672624 
L 159.059718 175.874369 
L 158.918807 176.02072 
L 156.770172 178.25578 
L 156.665169 178.368816 
L 154.51776 180.716912 
L 154.480626 180.760726 
L 152.483532 183.065007 
L 152.191079 183.419599 
L 150.533348 185.413103 
L 149.901533 186.196856 
L 148.647588 187.761199 
L 147.611987 189.05547 
L 146.804741 190.109295 
L 145.322441 192.020491 
L 145.008132 192.45739 
L 143.369293 194.805486 
L 143.032895 195.334874 
L 141.922598 197.153582 
L 140.743349 199.351279 
L 140.659195 199.501678 
L 139.480732 201.849774 
L 138.453803 204.001513 
L 138.355542 204.197869 
L 137.298321 206.545965 
L 136.281049 208.894061 
L 136.164257 209.196793 
L 135.367059 211.242157 
L 134.85281 213.590253 
L 134.707889 215.938348 
L 134.96912 218.286444 
L 135.510479 220.63454 
L 136.164257 221.63173 
L 137.836175 222.982636 
L 138.453803 223.41706 
L 140.743349 224.8743 
L 141.984529 225.330732 
L 143.032895 225.561691 
" style="fill:none;stroke:#34b679;stroke-width:1.5;"/>
   </g>
   <g id="LineCollection_8">
    <path clip-path="url(#p0fcce60581)" d="M 145.322441 216.882362 
L 147.611987 217.562564 
L 149.901533 217.773307 
L 152.191079 217.422569 
L 154.480626 216.911909 
L 156.770172 216.233902 
L 157.590784 215.938348 
L 159.059718 215.408377 
L 161.349264 214.403071 
L 162.837539 213.590253 
L 163.63881 213.17524 
L 165.928356 211.848751 
L 166.897517 211.242157 
L 168.217902 210.39621 
L 170.373767 208.894061 
L 170.507448 208.793425 
L 172.796994 206.981918 
L 173.345556 206.545965 
L 175.08654 205.066476 
L 176.035167 204.197869 
L 177.376086 202.988605 
L 178.511898 201.849774 
L 179.665632 200.760246 
L 180.877976 199.501678 
L 181.955178 198.402482 
L 183.122356 197.153582 
L 184.244725 195.90128 
L 185.240473 194.805486 
L 186.534271 193.247565 
L 187.214387 192.45739 
L 188.823817 190.426293 
L 189.079167 190.109295 
L 190.89076 187.761199 
L 191.113363 187.444898 
L 192.546611 185.413103 
L 193.402909 184.013873 
L 193.979001 183.065007 
L 195.24209 180.716912 
L 195.692455 179.828587 
L 196.415577 178.368816 
L 197.419418 176.02072 
L 197.982001 174.495244 
L 198.27551 173.672624 
L 198.989203 171.324528 
L 199.53117 168.976433 
L 199.428412 166.628337 
L 198.466614 164.280241 
L 197.982001 163.511589 
L 195.692455 161.932145 
L 193.402909 161.520386 
L 191.113363 161.518253 
L 188.823817 161.618751 
L 187.423698 161.932145 
L 186.534271 162.117015 
L 184.244725 163.094808 
L 181.955178 164.234816 
L 181.862619 164.280241 
L 179.665632 165.306021 
L 177.376086 166.454141 
L 177.082716 166.628337 
L 175.08654 167.776019 
L 173.15968 168.976433 
L 172.796994 169.211556 
L 170.507448 170.814677 
L 169.829285 171.324528 
L 168.217902 172.577678 
L 166.863153 173.672624 
L 165.928356 174.455637 
L 164.149067 176.02072 
L 163.63881 176.498914 
L 161.780016 178.368816 
L 161.349264 178.825186 
L 159.709861 180.716912 
L 159.059718 181.460917 
L 157.729196 183.065007 
L 156.770172 184.164392 
L 155.706689 185.413103 
L 154.480626 186.796029 
L 153.65515 187.761199 
L 152.191079 189.512655 
L 151.695332 190.109295 
L 149.901533 192.432162 
L 149.881075 192.45739 
L 148.207981 194.805486 
L 147.611987 195.693627 
L 146.684326 197.153582 
L 145.378245 199.501678 
L 145.322441 199.634353 
L 144.444925 201.849774 
L 143.662518 204.197869 
L 143.061651 206.545965 
L 143.032895 206.730412 
L 142.673783 208.894061 
L 142.587917 211.242157 
L 142.620425 213.590253 
L 143.032895 215.506577 
L 143.249686 215.938348 
L 145.322441 216.882362 
" style="fill:none;stroke:#6ccd5a;stroke-width:1.5;"/>
   </g>
   <g id="LineCollection_9">
    <path clip-path="url(#p0fcce60581)" d="M 154.480626 209.271077 
L 156.770172 209.514587 
L 158.753167 208.894061 
L 159.059718 208.789283 
L 161.349264 207.730215 
L 163.63881 206.831821 
L 164.30865 206.545965 
L 165.928356 205.859698 
L 168.217902 204.559703 
L 168.712983 204.197869 
L 170.507448 202.842564 
L 171.718023 201.849774 
L 172.796994 200.901688 
L 174.418046 199.501678 
L 175.08654 198.895351 
L 177.063228 197.153582 
L 177.376086 196.870628 
L 179.467556 194.805486 
L 179.665632 194.605011 
L 181.543274 192.45739 
L 181.955178 191.985086 
L 183.452786 190.109295 
L 184.244725 189.059703 
L 185.179493 187.761199 
L 186.534271 185.625438 
L 186.673271 185.413103 
L 187.855781 183.065007 
L 188.818524 180.716912 
L 188.823817 180.700287 
L 189.549944 178.368816 
L 190.166539 176.02072 
L 190.584862 173.672624 
L 190.045942 171.324528 
L 188.823817 170.496103 
L 186.534271 170.242885 
L 184.244725 170.162493 
L 181.955178 170.422646 
L 179.665632 171.099567 
L 179.133748 171.324528 
L 177.376086 172.145609 
L 175.08654 173.424582 
L 174.72037 173.672624 
L 172.796994 175.077445 
L 171.556303 176.02072 
L 170.507448 176.840572 
L 168.653052 178.368816 
L 168.217902 178.72976 
L 166.01805 180.716912 
L 165.928356 180.800999 
L 163.63881 183.065007 
L 161.46206 185.413103 
L 161.349264 185.550038 
L 159.499164 187.761199 
L 159.059718 188.32004 
L 157.653406 190.109295 
L 156.770172 191.33641 
L 155.973768 192.45739 
L 154.493197 194.805486 
L 154.480626 194.829144 
L 153.261294 197.153582 
L 152.20238 199.501678 
L 152.191079 199.537606 
L 151.517911 201.849774 
L 151.11133 204.197869 
L 151.550773 206.545965 
L 152.191079 207.521178 
L 153.740198 208.894061 
L 154.480626 209.271077 
" style="fill:none;stroke:#b2dd2d;stroke-width:1.5;"/>
   </g>
   <g id="LineCollection_10"/>
  </g>
  <g id="axes_2">
   <g id="patch_3">
    <path d="M 47.437776 49.024353 
L 294.489674 49.024353 
L 294.489674 12.96 
L 47.437776 12.96 
z
" style="fill:none;opacity:0;"/>
   </g>
   <g id="matplotlib.axis_3">
    <g id="xtick_8">
     <g id="line2d_15">
      <path clip-path="url(#p82e9c7c409)" d="M 47.437776 49.024353 
L 47.437776 12.96 
" style="fill:none;stroke:#ffffff;stroke-linecap:round;"/>
     </g>
    </g>
    <g id="xtick_9">
     <g id="line2d_16">
      <path clip-path="url(#p82e9c7c409)" d="M 88.613092 49.024353 
L 88.613092 12.96 
" style="fill:none;stroke:#ffffff;stroke-linecap:round;"/>
     </g>
    </g>
    <g id="xtick_10">
     <g id="line2d_17">
      <path clip-path="url(#p82e9c7c409)" d="M 129.788408 49.024353 
L 129.788408 12.96 
" style="fill:none;stroke:#ffffff;stroke-linecap:round;"/>
     </g>
    </g>
    <g id="xtick_11">
     <g id="line2d_18">
      <path clip-path="url(#p82e9c7c409)" d="M 170.963725 49.024353 
L 170.963725 12.96 
" style="fill:none;stroke:#ffffff;stroke-linecap:round;"/>
     </g>
    </g>
    <g id="xtick_12">
     <g id="line2d_19">
      <path clip-path="url(#p82e9c7c409)" d="M 212.139041 49.024353 
L 212.139041 12.96 
" style="fill:none;stroke:#ffffff;stroke-linecap:round;"/>
     </g>
    </g>
    <g id="xtick_13">
     <g id="line2d_20">
      <path clip-path="url(#p82e9c7c409)" d="M 253.314357 49.024353 
L 253.314357 12.96 
" style="fill:none;stroke:#ffffff;stroke-linecap:round;"/>
     </g>
    </g>
    <g id="xtick_14">
     <g id="line2d_21">
      <path clip-path="url(#p82e9c7c409)" d="M 294.489674 49.024353 
L 294.489674 12.96 
" style="fill:none;stroke:#ffffff;stroke-linecap:round;"/>
     </g>
    </g>
   </g>
   <g id="matplotlib.axis_4">
    <g id="ytick_8"/>
    <g id="ytick_9"/>
   </g>
   <g id="patch_4">
    <path clip-path="url(#p82e9c7c409)" d="M -56.898753 49.024353 
L -42.272567 49.024353 
L -42.272567 49.024304 
L -56.898753 49.024304 
z
" style="fill:#1f77b4;fill-opacity:0.75;stroke:#ffffff;stroke-linejoin:miter;"/>
   </g>
   <g id="patch_5">
    <path clip-path="url(#p82e9c7c409)" d="M -42.272567 49.024353 
L -27.646381 49.024353 
L -27.646381 49.024133 
L -42.272567 49.024133 
z
" style="fill:#1f77b4;fill-opacity:0.75;stroke:#ffffff;stroke-linejoin:miter;"/>
   </g>
   <g id="patch_6">
    <path clip-path="url(#p82e9c7c409)" d="M -27.646381 49.024353 
L -13.020195 49.024353 
L -13.020195 49.023622 
L -27.646381 49.023622 
z
" style="fill:#1f77b4;fill-opacity:0.75;stroke:#ffffff;stroke-linejoin:miter;"/>
   </g>
   <g id="patch_7">
    <path clip-path="url(#p82e9c7c409)" d="M -13.020195 49.024353 
L 1.605991 49.024353 
L 1.605991 49.020844 
L -13.020195 49.020844 
z
" style="fill:#1f77b4;fill-opacity:0.75;stroke:#ffffff;stroke-linejoin:miter;"/>
   </g>
   <g id="patch_8">
    <path clip-path="url(#p82e9c7c409)" d="M 1.605991 49.024353 
L 16.232177 49.024353 
L 16.232177 49.008541 
L 1.605991 49.008541 
z
" style="fill:#1f77b4;fill-opacity:0.75;stroke:#ffffff;stroke-linejoin:miter;"/>
   </g>
   <g id="patch_9">
    <path clip-path="url(#p82e9c7c409)" d="M 16.232177 49.024353 
L 30.858363 49.024353 
L 30.858363 48.960693 
L 16.232177 48.960693 
z
" style="fill:#1f77b4;fill-opacity:0.75;stroke:#ffffff;stroke-linejoin:miter;"/>
   </g>
   <g id="patch_10">
    <path clip-path="url(#p82e9c7c409)" d="M 30.858363 49.024353 
L 45.484549 49.024353 
L 45.484549 48.824432 
L 30.858363 48.824432 
z
" style="fill:#1f77b4;fill-opacity:0.75;stroke:#ffffff;stroke-linejoin:miter;"/>
   </g>
   <g id="patch_11">
    <path clip-path="url(#p82e9c7c409)" d="M 45.484549 49.024353 
L 60.110735 49.024353 
L 60.110735 48.444837 
L 45.484549 48.444837 
z
" style="fill:#1f77b4;fill-opacity:0.75;stroke:#ffffff;stroke-linejoin:miter;"/>
   </g>
   <g id="patch_12">
    <path clip-path="url(#p82e9c7c409)" d="M 60.110735 49.024353 
L 74.736921 49.024353 
L 74.736921 47.513427 
L 60.110735 47.513427 
z
" style="fill:#1f77b4;fill-opacity:0.75;stroke:#ffffff;stroke-linejoin:miter;"/>
   </g>
   <g id="patch_13">
    <path clip-path="url(#p82e9c7c409)" d="M 74.736921 49.024353 
L 89.363107 49.024353 
L 89.363107 45.589699 
L 74.736921 45.589699 
z
" style="fill:#1f77b4;fill-opacity:0.75;stroke:#ffffff;stroke-linejoin:miter;"/>
   </g>
   <g id="patch_14">
    <path clip-path="url(#p82e9c7c409)" d="M 89.363107 49.024353 
L 103.989293 49.024353 
L 103.989293 42.162938 
L 89.363107 42.162938 
z
" style="fill:#1f77b4;fill-opacity:0.75;stroke:#ffffff;stroke-linejoin:miter;"/>
   </g>
   <g id="patch_15">
    <path clip-path="url(#p82e9c7c409)" d="M 103.989293 49.024353 
L 118.615479 49.024353 
L 118.615479 36.89387 
L 103.989293 36.89387 
z
" style="fill:#1f77b4;fill-opacity:0.75;stroke:#ffffff;stroke-linejoin:miter;"/>
   </g>
   <g id="patch_16">
    <path clip-path="url(#p82e9c7c409)" d="M 118.615479 49.024353 
L 133.241665 49.024353 
L 133.241665 30.04013 
L 118.615479 30.04013 
z
" style="fill:#1f77b4;fill-opacity:0.75;stroke:#ffffff;stroke-linejoin:miter;"/>
   </g>
   <g id="patch_17">
    <path clip-path="url(#p82e9c7c409)" d="M 133.241665 49.024353 
L 147.867851 49.024353 
L 147.867851 22.738262 
L 133.241665 22.738262 
z
" style="fill:#1f77b4;fill-opacity:0.75;stroke:#ffffff;stroke-linejoin:miter;"/>
   </g>
   <g id="patch_18">
    <path clip-path="url(#p82e9c7c409)" d="M 147.867851 49.024353 
L 162.494037 49.024353 
L 162.494037 17.065529 
L 147.867851 17.065529 
z
" style="fill:#1f77b4;fill-opacity:0.75;stroke:#ffffff;stroke-linejoin:miter;"/>
   </g>
   <g id="patch_19">
    <path clip-path="url(#p82e9c7c409)" d="M 162.494037 49.024353 
L 177.120223 49.024353 
L 177.120223 14.67735 
L 162.494037 14.67735 
z
" style="fill:#1f77b4;fill-opacity:0.75;stroke:#ffffff;stroke-linejoin:miter;"/>
   </g>
   <g id="patch_20">
    <path clip-path="url(#p82e9c7c409)" d="M 177.120223 49.024353 
L 191.746409 49.024353 
L 191.746409 16.460018 
L 177.120223 16.460018 
z
" style="fill:#1f77b4;fill-opacity:0.75;stroke:#ffffff;stroke-linejoin:miter;"/>
   </g>
   <g id="patch_21">
    <path clip-path="url(#p82e9c7c409)" d="M 191.746409 49.024353 
L 206.372595 49.024353 
L 206.372595 21.822785 
L 191.746409 21.822785 
z
" style="fill:#1f77b4;fill-opacity:0.75;stroke:#ffffff;stroke-linejoin:miter;"/>
   </g>
   <g id="patch_22">
    <path clip-path="url(#p82e9c7c409)" d="M 206.372595 49.024353 
L 220.998781 49.024353 
L 220.998781 28.867894 
L 206.372595 28.867894 
z
" style="fill:#1f77b4;fill-opacity:0.75;stroke:#ffffff;stroke-linejoin:miter;"/>
   </g>
   <g id="patch_23">
    <path clip-path="url(#p82e9c7c409)" d="M 220.998781 49.024353 
L 235.624967 49.024353 
L 235.624967 35.871562 
L 220.998781 35.871562 
z
" style="fill:#1f77b4;fill-opacity:0.75;stroke:#ffffff;stroke-linejoin:miter;"/>
   </g>
   <g id="patch_24">
    <path clip-path="url(#p82e9c7c409)" d="M 235.624967 49.024353 
L 250.251153 49.024353 
L 250.251153 41.441559 
L 235.624967 41.441559 
z
" style="fill:#1f77b4;fill-opacity:0.75;stroke:#ffffff;stroke-linejoin:miter;"/>
   </g>
   <g id="patch_25">
    <path clip-path="url(#p82e9c7c409)" d="M 250.251153 49.024353 
L 264.877339 49.024353 
L 264.877339 45.188957 
L 250.251153 45.188957 
z
" style="fill:#1f77b4;fill-opacity:0.75;stroke:#ffffff;stroke-linejoin:miter;"/>
   </g>
   <g id="patch_26">
    <path clip-path="url(#p82e9c7c409)" d="M 264.877339 49.024353 
L 279.503525 49.024353 
L 279.503525 47.291531 
L 264.877339 47.291531 
z
" style="fill:#1f77b4;fill-opacity:0.75;stroke:#ffffff;stroke-linejoin:miter;"/>
   </g>
   <g id="patch_27">
    <path clip-path="url(#p82e9c7c409)" d="M 279.503525 49.024353 
L 294.129711 49.024353 
L 294.129711 48.340443 
L 279.503525 48.340443 
z
" style="fill:#1f77b4;fill-opacity:0.75;stroke:#ffffff;stroke-linejoin:miter;"/>
   </g>
   <g id="patch_28">
    <path clip-path="url(#p82e9c7c409)" d="M 294.129711 49.024353 
L 308.755897 49.024353 
L 308.755897 48.784551 
L 294.129711 48.784551 
z
" style="fill:#1f77b4;fill-opacity:0.75;stroke:#ffffff;stroke-linejoin:miter;"/>
   </g>
   <g id="patch_29">
    <path clip-path="url(#p82e9c7c409)" d="M 308.755897 49.024353 
L 323.382083 49.024353 
L 323.382083 48.950022 
L 308.755897 48.950022 
z
" style="fill:#1f77b4;fill-opacity:0.75;stroke:#ffffff;stroke-linejoin:miter;"/>
   </g>
   <g id="patch_30">
    <path clip-path="url(#p82e9c7c409)" d="M 323.382083 49.024353 
L 338.008269 49.024353 
L 338.008269 49.004375 
L 323.382083 49.004375 
z
" style="fill:#1f77b4;fill-opacity:0.75;stroke:#ffffff;stroke-linejoin:miter;"/>
   </g>
   <g id="patch_31">
    <path clip-path="url(#p82e9c7c409)" d="M 338.008269 49.024353 
L 352.634455 49.024353 
L 352.634455 49.019407 
L 338.008269 49.019407 
z
" style="fill:#1f77b4;fill-opacity:0.75;stroke:#ffffff;stroke-linejoin:miter;"/>
   </g>
   <g id="patch_32">
    <path clip-path="url(#p82e9c7c409)" d="M 352.634455 49.024353 
L 367.260641 49.024353 
L 367.260641 49.023597 
L 352.634455 49.023597 
z
" style="fill:#1f77b4;fill-opacity:0.75;stroke:#ffffff;stroke-linejoin:miter;"/>
   </g>
   <g id="patch_33">
    <path clip-path="url(#p82e9c7c409)" d="M 367.260641 49.024353 
L 381.886827 49.024353 
L 381.886827 49.024231 
L 367.260641 49.024231 
z
" style="fill:#1f77b4;fill-opacity:0.75;stroke:#ffffff;stroke-linejoin:miter;"/>
   </g>
   <g id="patch_34">
    <path d="M 47.437776 49.024353 
L 294.489674 49.024353 
" style="fill:none;stroke:#ffffff;stroke-linecap:square;stroke-linejoin:miter;stroke-width:1.25;"/>
   </g>
  </g>
  <g id="axes_3">
   <g id="patch_35">
    <path d="M 310.189407 313.171983 
L 347.04 313.171983 
L 347.04 65.789526 
L 310.189407 65.789526 
z
" style="fill:none;opacity:0;"/>
   </g>
   <g id="matplotlib.axis_5">
    <g id="xtick_15"/>
    <g id="xtick_16"/>
   </g>
   <g id="matplotlib.axis_6">
    <g id="ytick_10">
     <g id="line2d_22">
      <path clip-path="url(#pb21c910aa2)" d="M 310.189407 313.171983 
L 347.04 313.171983 
" style="fill:none;stroke:#ffffff;stroke-linecap:round;"/>
     </g>
    </g>
    <g id="ytick_11">
     <g id="line2d_23">
      <path clip-path="url(#pb21c910aa2)" d="M 310.189407 271.941574 
L 347.04 271.941574 
" style="fill:none;stroke:#ffffff;stroke-linecap:round;"/>
     </g>
    </g>
    <g id="ytick_12">
     <g id="line2d_24">
      <path clip-path="url(#pb21c910aa2)" d="M 310.189407 230.711164 
L 347.04 230.711164 
" style="fill:none;stroke:#ffffff;stroke-linecap:round;"/>
     </g>
    </g>
    <g id="ytick_13">
     <g id="line2d_25">
      <path clip-path="url(#pb21c910aa2)" d="M 310.189407 189.480755 
L 347.04 189.480755 
" style="fill:none;stroke:#ffffff;stroke-linecap:round;"/>
     </g>
    </g>
    <g id="ytick_14">
     <g id="line2d_26">
      <path clip-path="url(#pb21c910aa2)" d="M 310.189407 148.250345 
L 347.04 148.250345 
" style="fill:none;stroke:#ffffff;stroke-linecap:round;"/>
     </g>
    </g>
    <g id="ytick_15">
     <g id="line2d_27">
      <path clip-path="url(#pb21c910aa2)" d="M 310.189407 107.019936 
L 347.04 107.019936 
" style="fill:none;stroke:#ffffff;stroke-linecap:round;"/>
     </g>
    </g>
    <g id="ytick_16">
     <g id="line2d_28">
      <path clip-path="url(#pb21c910aa2)" d="M 310.189407 65.789526 
L 347.04 65.789526 
" style="fill:none;stroke:#ffffff;stroke-linecap:round;"/>
     </g>
    </g>
   </g>
   <g id="patch_36">
    <path clip-path="url(#pb21c910aa2)" d="M 310.189407 428.231699 
L 310.189481 428.231699 
L 310.189481 413.21784 
L 310.189407 413.21784 
z
" style="fill:#1f77b4;fill-opacity:0.75;stroke:#ffffff;stroke-linejoin:miter;"/>
   </g>
   <g id="patch_37">
    <path clip-path="url(#pb21c910aa2)" d="M 310.189407 413.21784 
L 310.189432 413.21784 
L 310.189432 398.203982 
L 310.189407 398.203982 
z
" style="fill:#1f77b4;fill-opacity:0.75;stroke:#ffffff;stroke-linejoin:miter;"/>
   </g>
   <g id="patch_38">
    <path clip-path="url(#pb21c910aa2)" d="M 310.189407 398.203982 
L 310.189653 398.203982 
L 310.189653 383.190123 
L 310.189407 383.190123 
z
" style="fill:#1f77b4;fill-opacity:0.75;stroke:#ffffff;stroke-linejoin:miter;"/>
   </g>
   <g id="patch_39">
    <path clip-path="url(#pb21c910aa2)" d="M 310.189407 383.190123 
L 310.190978 383.190123 
L 310.190978 368.176265 
L 310.189407 368.176265 
z
" style="fill:#1f77b4;fill-opacity:0.75;stroke:#ffffff;stroke-linejoin:miter;"/>
   </g>
   <g id="patch_40">
    <path clip-path="url(#pb21c910aa2)" d="M 310.189407 368.176265 
L 310.196695 368.176265 
L 310.196695 353.162406 
L 310.189407 353.162406 
z
" style="fill:#1f77b4;fill-opacity:0.75;stroke:#ffffff;stroke-linejoin:miter;"/>
   </g>
   <g id="patch_41">
    <path clip-path="url(#pb21c910aa2)" d="M 310.189407 353.162406 
L 310.21711 353.162406 
L 310.21711 338.148548 
L 310.189407 338.148548 
z
" style="fill:#1f77b4;fill-opacity:0.75;stroke:#ffffff;stroke-linejoin:miter;"/>
   </g>
   <g id="patch_42">
    <path clip-path="url(#pb21c910aa2)" d="M 310.189407 338.148548 
L 310.300437 338.148548 
L 310.300437 323.134689 
L 310.189407 323.134689 
z
" style="fill:#1f77b4;fill-opacity:0.75;stroke:#ffffff;stroke-linejoin:miter;"/>
   </g>
   <g id="patch_43">
    <path clip-path="url(#pb21c910aa2)" d="M 310.189407 323.134689 
L 310.53933 323.134689 
L 310.53933 308.120831 
L 310.189407 308.120831 
z
" style="fill:#1f77b4;fill-opacity:0.75;stroke:#ffffff;stroke-linejoin:miter;"/>
   </g>
   <g id="patch_44">
    <path clip-path="url(#pb21c910aa2)" d="M 310.189407 308.120831 
L 311.167209 308.120831 
L 311.167209 293.106972 
L 310.189407 293.106972 
z
" style="fill:#1f77b4;fill-opacity:0.75;stroke:#ffffff;stroke-linejoin:miter;"/>
   </g>
   <g id="patch_45">
    <path clip-path="url(#pb21c910aa2)" d="M 310.189407 293.106972 
L 312.595289 293.106972 
L 312.595289 278.093114 
L 310.189407 278.093114 
z
" style="fill:#1f77b4;fill-opacity:0.75;stroke:#ffffff;stroke-linejoin:miter;"/>
   </g>
   <g id="patch_46">
    <path clip-path="url(#pb21c910aa2)" d="M 310.189407 278.093114 
L 315.434078 278.093114 
L 315.434078 263.079255 
L 310.189407 263.079255 
z
" style="fill:#1f77b4;fill-opacity:0.75;stroke:#ffffff;stroke-linejoin:miter;"/>
   </g>
   <g id="patch_47">
    <path clip-path="url(#pb21c910aa2)" d="M 310.189407 263.079255 
L 320.150663 263.079255 
L 320.150663 248.065397 
L 310.189407 248.065397 
z
" style="fill:#1f77b4;fill-opacity:0.75;stroke:#ffffff;stroke-linejoin:miter;"/>
   </g>
   <g id="patch_48">
    <path clip-path="url(#pb21c910aa2)" d="M 310.189407 248.065397 
L 326.792227 248.065397 
L 326.792227 233.051539 
L 310.189407 233.051539 
z
" style="fill:#1f77b4;fill-opacity:0.75;stroke:#ffffff;stroke-linejoin:miter;"/>
   </g>
   <g id="patch_49">
    <path clip-path="url(#pb21c910aa2)" d="M 310.189407 233.051539 
L 334.476838 233.051539 
L 334.476838 218.03768 
L 310.189407 218.03768 
z
" style="fill:#1f77b4;fill-opacity:0.75;stroke:#ffffff;stroke-linejoin:miter;"/>
   </g>
   <g id="patch_50">
    <path clip-path="url(#pb21c910aa2)" d="M 310.189407 218.03768 
L 341.37609 218.03768 
L 341.37609 203.023822 
L 310.189407 203.023822 
z
" style="fill:#1f77b4;fill-opacity:0.75;stroke:#ffffff;stroke-linejoin:miter;"/>
   </g>
   <g id="patch_51">
    <path clip-path="url(#pb21c910aa2)" d="M 310.189407 203.023822 
L 345.28521 203.023822 
L 345.28521 188.009963 
L 310.189407 188.009963 
z
" style="fill:#1f77b4;fill-opacity:0.75;stroke:#ffffff;stroke-linejoin:miter;"/>
   </g>
   <g id="patch_52">
    <path clip-path="url(#pb21c910aa2)" d="M 310.189407 188.009963 
L 344.811547 188.009963 
L 344.811547 172.996105 
L 310.189407 172.996105 
z
" style="fill:#1f77b4;fill-opacity:0.75;stroke:#ffffff;stroke-linejoin:miter;"/>
   </g>
   <g id="patch_53">
    <path clip-path="url(#pb21c910aa2)" d="M 310.189407 172.996105 
L 340.130909 172.996105 
L 340.130909 157.982246 
L 310.189407 157.982246 
z
" style="fill:#1f77b4;fill-opacity:0.75;stroke:#ffffff;stroke-linejoin:miter;"/>
   </g>
   <g id="patch_54">
    <path clip-path="url(#pb21c910aa2)" d="M 310.189407 157.982246 
L 332.955762 157.982246 
L 332.955762 142.968388 
L 310.189407 142.968388 
z
" style="fill:#1f77b4;fill-opacity:0.75;stroke:#ffffff;stroke-linejoin:miter;"/>
   </g>
   <g id="patch_55">
    <path clip-path="url(#pb21c910aa2)" d="M 310.189407 142.968388 
L 325.345695 142.968388 
L 325.345695 127.954529 
L 310.189407 127.954529 
z
" style="fill:#1f77b4;fill-opacity:0.75;stroke:#ffffff;stroke-linejoin:miter;"/>
   </g>
   <g id="patch_56">
    <path clip-path="url(#pb21c910aa2)" d="M 310.189407 127.954529 
L 319.046643 127.954529 
L 319.046643 112.940671 
L 310.189407 112.940671 
z
" style="fill:#1f77b4;fill-opacity:0.75;stroke:#ffffff;stroke-linejoin:miter;"/>
   </g>
   <g id="patch_57">
    <path clip-path="url(#pb21c910aa2)" d="M 310.189407 112.940671 
L 314.737619 112.940671 
L 314.737619 97.926812 
L 310.189407 97.926812 
z
" style="fill:#1f77b4;fill-opacity:0.75;stroke:#ffffff;stroke-linejoin:miter;"/>
   </g>
   <g id="patch_58">
    <path clip-path="url(#pb21c910aa2)" d="M 310.189407 97.926812 
L 312.217149 97.926812 
L 312.217149 82.912954 
L 310.189407 82.912954 
z
" style="fill:#1f77b4;fill-opacity:0.75;stroke:#ffffff;stroke-linejoin:miter;"/>
   </g>
   <g id="patch_59">
    <path clip-path="url(#pb21c910aa2)" d="M 310.189407 82.912954 
L 310.987818 82.912954 
L 310.987818 67.899095 
L 310.189407 67.899095 
z
" style="fill:#1f77b4;fill-opacity:0.75;stroke:#ffffff;stroke-linejoin:miter;"/>
   </g>
   <g id="patch_60">
    <path clip-path="url(#pb21c910aa2)" d="M 310.189407 67.899095 
L 310.468001 67.899095 
L 310.468001 52.885237 
L 310.189407 52.885237 
z
" style="fill:#1f77b4;fill-opacity:0.75;stroke:#ffffff;stroke-linejoin:miter;"/>
   </g>
   <g id="patch_61">
    <path clip-path="url(#pb21c910aa2)" d="M 310.189407 52.885237 
L 310.273569 52.885237 
L 310.273569 37.871378 
L 310.189407 37.871378 
z
" style="fill:#1f77b4;fill-opacity:0.75;stroke:#ffffff;stroke-linejoin:miter;"/>
   </g>
   <g id="patch_62">
    <path clip-path="url(#pb21c910aa2)" d="M 310.189407 37.871378 
L 310.212742 37.871378 
L 310.212742 22.85752 
L 310.189407 22.85752 
z
" style="fill:#1f77b4;fill-opacity:0.75;stroke:#ffffff;stroke-linejoin:miter;"/>
   </g>
   <g id="patch_63">
    <path clip-path="url(#pb21c910aa2)" d="M 310.189407 22.85752 
L 310.194143 22.85752 
L 310.194143 7.843661 
L 310.189407 7.843661 
z
" style="fill:#1f77b4;fill-opacity:0.75;stroke:#ffffff;stroke-linejoin:miter;"/>
   </g>
   <g id="patch_64">
    <path clip-path="url(#pb21c910aa2)" d="M 310.189407 7.843661 
L 310.190683 7.843661 
L 310.190683 -7.170197 
L 310.189407 -7.170197 
z
" style="fill:#1f77b4;fill-opacity:0.75;stroke:#ffffff;stroke-linejoin:miter;"/>
   </g>
   <g id="patch_65">
    <path clip-path="url(#pb21c910aa2)" d="M 310.189407 -7.170197 
L 310.189677 -7.170197 
L 310.189677 -22.184056 
L 310.189407 -22.184056 
z
" style="fill:#1f77b4;fill-opacity:0.75;stroke:#ffffff;stroke-linejoin:miter;"/>
   </g>
   <g id="patch_66">
    <path d="M 310.189407 313.171983 
L 310.189407 65.789526 
" style="fill:none;stroke:#ffffff;stroke-linecap:square;stroke-linejoin:miter;stroke-width:1.25;"/>
   </g>
  </g>
 </g>
 <defs>
  <clipPath id="p0fcce60581">
   <rect height="247.382457" width="247.051898" x="47.437776" y="65.789526"/>
  </clipPath>
  <clipPath id="p82e9c7c409">
   <rect height="36.064353" width="247.051898" x="47.437776" y="12.96"/>
  </clipPath>
  <clipPath id="pb21c910aa2">
   <rect height="247.382457" width="36.850593" x="310.189407" y="65.789526"/>
  </clipPath>
 </defs>
</svg>
