<?xml version="1.0" encoding="utf-8" standalone="no"?>
<!DOCTYPE svg PUBLIC "-//W3C//DTD SVG 1.1//EN"
  "http://www.w3.org/Graphics/SVG/1.1/DTD/svg11.dtd">
<svg height="240.48pt" version="1.1" viewBox="0 0 348.48 240.48" width="348.48pt" xmlns="http://www.w3.org/2000/svg" xmlns:xlink="http://www.w3.org/1999/xlink">
 <metadata>
  <rdf:RDF xmlns:cc="http://creativecommons.org/ns#" xmlns:dc="http://purl.org/dc/elements/1.1/" xmlns:rdf="http://www.w3.org/1999/02/22-rdf-syntax-ns#">
   <cc:Work>
    <dc:type rdf:resource="http://purl.org/dc/dcmitype/StillImage"/>
    <dc:date>2021-08-23T23:17:32.268616</dc:date>
    <dc:format>image/svg+xml</dc:format>
    <dc:creator>
     <cc:Agent>
      <dc:title>Matplotlib v3.4.2, https://matplotlib.org/</dc:title>
     </cc:Agent>
    </dc:creator>
   </cc:Work>
  </rdf:RDF>
 </metadata>
 <defs>
  <style type="text/css">*{stroke-linecap:butt;stroke-linejoin:round;}</style>
 </defs>
 <g id="figure_1">
  <g id="patch_1">
   <path d="M 0 240.48 
L 348.48 240.48 
L 348.48 0 
L 0 0 
z
" style="fill:none;"/>
  </g>
  <g id="axes_1">
   <g id="patch_2">
    <path d="M 36.182543 199.411983 
L 331.538728 199.411983 
L 331.538728 7.2 
L 36.182543 7.2 
z
" style="fill:none;opacity:0;"/>
   </g>
   <g id="matplotlib.axis_1">
    <g id="xtick_1">
     <g id="line2d_1">
      <path clip-path="url(#pfeefa3a9e0)" d="M 36.182543 199.411983 
L 36.182543 7.2 
" style="fill:none;stroke:#ffffff;stroke-linecap:round;"/>
     </g>
     <g id="text_1">
      <!-- $\mathdefault{0.00}$ -->
      <g style="fill:#262626;" transform="translate(26.441272 216.52233)scale(0.11 -0.11)">
       <defs>
        <path d="M 2688 2025 
C 2688 2416 2682 3080 2413 3591 
C 2176 4039 1798 4198 1466 4198 
C 1158 4198 768 4058 525 3597 
C 269 3118 243 2524 243 2025 
C 243 1661 250 1106 448 619 
C 723 -39 1216 -128 1466 -128 
C 1760 -128 2208 -7 2470 600 
C 2662 1042 2688 1559 2688 2025 
z
M 1466 -26 
C 1056 -26 813 325 723 812 
C 653 1188 653 1738 653 2096 
C 653 2588 653 2997 736 3387 
C 858 3929 1216 4096 1466 4096 
C 1728 4096 2067 3923 2189 3400 
C 2272 3036 2278 2607 2278 2096 
C 2278 1680 2278 1169 2202 792 
C 2067 95 1690 -26 1466 -26 
z
" id="CMR17-30" transform="scale(0.015625)"/>
        <path d="M 1178 307 
C 1178 492 1024 619 870 619 
C 685 619 557 466 557 313 
C 557 128 710 0 864 0 
C 1050 0 1178 153 1178 307 
z
" id="CMMI12-3a" transform="scale(0.015625)"/>
       </defs>
       <use transform="scale(0.996264)" xlink:href="#CMR17-30"/>
       <use transform="translate(45.690477 0)scale(0.996264)" xlink:href="#CMMI12-3a"/>
       <use transform="translate(72.787654 0)scale(0.996264)" xlink:href="#CMR17-30"/>
       <use transform="translate(118.478131 0)scale(0.996264)" xlink:href="#CMR17-30"/>
      </g>
     </g>
    </g>
    <g id="xtick_2">
     <g id="line2d_2">
      <path clip-path="url(#pfeefa3a9e0)" d="M 73.102067 199.411983 
L 73.102067 7.2 
" style="fill:none;stroke:#ffffff;stroke-linecap:round;"/>
     </g>
     <g id="text_2">
      <!-- $\mathdefault{0.25}$ -->
      <g style="fill:#262626;" transform="translate(63.360795 216.52233)scale(0.11 -0.11)">
       <defs>
        <path d="M 2669 989 
L 2554 989 
C 2490 536 2438 459 2413 420 
C 2381 369 1920 369 1830 369 
L 602 369 
C 832 619 1280 1072 1824 1597 
C 2214 1967 2669 2402 2669 3035 
C 2669 3790 2067 4224 1395 4224 
C 691 4224 262 3604 262 3030 
C 262 2780 448 2748 525 2748 
C 589 2748 781 2787 781 3010 
C 781 3207 614 3264 525 3264 
C 486 3264 448 3258 422 3245 
C 544 3790 915 4058 1306 4058 
C 1862 4058 2227 3617 2227 3035 
C 2227 2479 1901 2000 1536 1584 
L 262 146 
L 262 0 
L 2515 0 
L 2669 989 
z
" id="CMR17-32" transform="scale(0.015625)"/>
        <path d="M 730 3692 
C 794 3666 1056 3584 1325 3584 
C 1920 3584 2246 3911 2432 4100 
C 2432 4157 2432 4192 2394 4192 
C 2387 4192 2374 4192 2323 4163 
C 2099 4058 1837 3973 1517 3973 
C 1325 3973 1037 3999 723 4139 
C 653 4171 640 4171 634 4171 
C 602 4171 595 4164 595 4037 
L 595 2203 
C 595 2089 595 2057 659 2057 
C 691 2057 704 2070 736 2114 
C 941 2401 1222 2522 1542 2522 
C 1766 2522 2246 2382 2246 1289 
C 2246 1085 2246 715 2054 421 
C 1894 159 1645 25 1370 25 
C 947 25 518 320 403 814 
C 429 807 480 795 506 795 
C 589 795 749 840 749 1038 
C 749 1210 627 1280 506 1280 
C 358 1280 262 1190 262 1011 
C 262 454 704 -128 1382 -128 
C 2042 -128 2669 440 2669 1264 
C 2669 2030 2170 2624 1549 2624 
C 1222 2624 947 2503 730 2274 
L 730 3692 
z
" id="CMR17-35" transform="scale(0.015625)"/>
       </defs>
       <use transform="scale(0.996264)" xlink:href="#CMR17-30"/>
       <use transform="translate(45.690477 0)scale(0.996264)" xlink:href="#CMMI12-3a"/>
       <use transform="translate(72.787654 0)scale(0.996264)" xlink:href="#CMR17-32"/>
       <use transform="translate(118.478131 0)scale(0.996264)" xlink:href="#CMR17-35"/>
      </g>
     </g>
    </g>
    <g id="xtick_3">
     <g id="line2d_3">
      <path clip-path="url(#pfeefa3a9e0)" d="M 110.02159 199.411983 
L 110.02159 7.2 
" style="fill:none;stroke:#ffffff;stroke-linecap:round;"/>
     </g>
     <g id="text_3">
      <!-- $\mathdefault{0.50}$ -->
      <g style="fill:#262626;" transform="translate(100.280318 216.52233)scale(0.11 -0.11)">
       <use transform="scale(0.996264)" xlink:href="#CMR17-30"/>
       <use transform="translate(45.690477 0)scale(0.996264)" xlink:href="#CMMI12-3a"/>
       <use transform="translate(72.787654 0)scale(0.996264)" xlink:href="#CMR17-35"/>
       <use transform="translate(118.478131 0)scale(0.996264)" xlink:href="#CMR17-30"/>
      </g>
     </g>
    </g>
    <g id="xtick_4">
     <g id="line2d_4">
      <path clip-path="url(#pfeefa3a9e0)" d="M 146.941113 199.411983 
L 146.941113 7.2 
" style="fill:none;stroke:#ffffff;stroke-linecap:round;"/>
     </g>
     <g id="text_4">
      <!-- $\mathdefault{0.75}$ -->
      <g style="fill:#262626;" transform="translate(137.199841 216.52233)scale(0.11 -0.11)">
       <defs>
        <path d="M 2886 3941 
L 2886 4081 
L 1382 4081 
C 634 4081 621 4165 595 4288 
L 480 4288 
L 294 3094 
L 410 3094 
C 429 3215 474 3540 550 3661 
C 589 3712 1062 3712 1171 3712 
L 2579 3712 
L 1869 2661 
C 1395 1954 1069 999 1069 165 
C 1069 89 1069 -128 1299 -128 
C 1530 -128 1530 89 1530 171 
L 1530 465 
C 1530 1508 1709 2196 2003 2636 
L 2886 3941 
z
" id="CMR17-37" transform="scale(0.015625)"/>
       </defs>
       <use transform="scale(0.996264)" xlink:href="#CMR17-30"/>
       <use transform="translate(45.690477 0)scale(0.996264)" xlink:href="#CMMI12-3a"/>
       <use transform="translate(72.787654 0)scale(0.996264)" xlink:href="#CMR17-37"/>
       <use transform="translate(118.478131 0)scale(0.996264)" xlink:href="#CMR17-35"/>
      </g>
     </g>
    </g>
    <g id="xtick_5">
     <g id="line2d_5">
      <path clip-path="url(#pfeefa3a9e0)" d="M 183.860636 199.411983 
L 183.860636 7.2 
" style="fill:none;stroke:#ffffff;stroke-linecap:round;"/>
     </g>
     <g id="text_5">
      <!-- $\mathdefault{1.00}$ -->
      <g style="fill:#262626;" transform="translate(174.119364 216.52233)scale(0.11 -0.11)">
       <defs>
        <path d="M 1702 4058 
C 1702 4192 1696 4192 1606 4192 
C 1357 3916 979 3827 621 3827 
C 602 3827 570 3827 563 3808 
C 557 3795 557 3782 557 3648 
C 755 3648 1088 3686 1344 3839 
L 1344 461 
C 1344 236 1331 160 781 160 
L 589 160 
L 589 0 
C 896 0 1216 0 1523 0 
C 1830 0 2150 0 2458 0 
L 2458 160 
L 2266 160 
C 1715 160 1702 230 1702 458 
L 1702 4058 
z
" id="CMR17-31" transform="scale(0.015625)"/>
       </defs>
       <use transform="scale(0.996264)" xlink:href="#CMR17-31"/>
       <use transform="translate(45.690477 0)scale(0.996264)" xlink:href="#CMMI12-3a"/>
       <use transform="translate(72.787654 0)scale(0.996264)" xlink:href="#CMR17-30"/>
       <use transform="translate(118.478131 0)scale(0.996264)" xlink:href="#CMR17-30"/>
      </g>
     </g>
    </g>
    <g id="xtick_6">
     <g id="line2d_6">
      <path clip-path="url(#pfeefa3a9e0)" d="M 220.780159 199.411983 
L 220.780159 7.2 
" style="fill:none;stroke:#ffffff;stroke-linecap:round;"/>
     </g>
     <g id="text_6">
      <!-- $\mathdefault{1.25}$ -->
      <g style="fill:#262626;" transform="translate(211.038887 216.52233)scale(0.11 -0.11)">
       <use transform="scale(0.996264)" xlink:href="#CMR17-31"/>
       <use transform="translate(45.690477 0)scale(0.996264)" xlink:href="#CMMI12-3a"/>
       <use transform="translate(72.787654 0)scale(0.996264)" xlink:href="#CMR17-32"/>
       <use transform="translate(118.478131 0)scale(0.996264)" xlink:href="#CMR17-35"/>
      </g>
     </g>
    </g>
    <g id="xtick_7">
     <g id="line2d_7">
      <path clip-path="url(#pfeefa3a9e0)" d="M 257.699682 199.411983 
L 257.699682 7.2 
" style="fill:none;stroke:#ffffff;stroke-linecap:round;"/>
     </g>
     <g id="text_7">
      <!-- $\mathdefault{1.50}$ -->
      <g style="fill:#262626;" transform="translate(247.95841 216.52233)scale(0.11 -0.11)">
       <use transform="scale(0.996264)" xlink:href="#CMR17-31"/>
       <use transform="translate(45.690477 0)scale(0.996264)" xlink:href="#CMMI12-3a"/>
       <use transform="translate(72.787654 0)scale(0.996264)" xlink:href="#CMR17-35"/>
       <use transform="translate(118.478131 0)scale(0.996264)" xlink:href="#CMR17-30"/>
      </g>
     </g>
    </g>
    <g id="xtick_8">
     <g id="line2d_8">
      <path clip-path="url(#pfeefa3a9e0)" d="M 294.619205 199.411983 
L 294.619205 7.2 
" style="fill:none;stroke:#ffffff;stroke-linecap:round;"/>
     </g>
     <g id="text_8">
      <!-- $\mathdefault{1.75}$ -->
      <g style="fill:#262626;" transform="translate(284.877933 216.52233)scale(0.11 -0.11)">
       <use transform="scale(0.996264)" xlink:href="#CMR17-31"/>
       <use transform="translate(45.690477 0)scale(0.996264)" xlink:href="#CMMI12-3a"/>
       <use transform="translate(72.787654 0)scale(0.996264)" xlink:href="#CMR17-37"/>
       <use transform="translate(118.478131 0)scale(0.996264)" xlink:href="#CMR17-35"/>
      </g>
     </g>
    </g>
    <g id="xtick_9">
     <g id="line2d_9">
      <path clip-path="url(#pfeefa3a9e0)" d="M 331.538728 199.411983 
L 331.538728 7.2 
" style="fill:none;stroke:#ffffff;stroke-linecap:round;"/>
     </g>
     <g id="text_9">
      <!-- $\mathdefault{2.00}$ -->
      <g style="fill:#262626;" transform="translate(321.797457 216.52233)scale(0.11 -0.11)">
       <use transform="scale(0.996264)" xlink:href="#CMR17-32"/>
       <use transform="translate(45.690477 0)scale(0.996264)" xlink:href="#CMMI12-3a"/>
       <use transform="translate(72.787654 0)scale(0.996264)" xlink:href="#CMR17-30"/>
       <use transform="translate(118.478131 0)scale(0.996264)" xlink:href="#CMR17-30"/>
      </g>
     </g>
    </g>
    <g id="text_10">
     <!-- $x$ -->
     <g style="fill:#262626;" transform="translate(180.534592 230.955404)scale(0.12 -0.12)">
      <defs>
       <path d="M 3034 2606 
C 2829 2567 2752 2414 2752 2293 
C 2752 2139 2874 2088 2963 2088 
C 3155 2088 3290 2254 3290 2427 
C 3290 2695 2982 2816 2714 2816 
C 2323 2816 2106 2433 2048 2312 
C 1901 2816 1504 2816 1389 2816 
C 736 2816 390 1980 390 1839 
C 390 1814 416 1782 461 1782 
C 512 1782 525 1820 538 1846 
C 755 2555 1184 2689 1370 2689 
C 1658 2689 1715 2420 1715 2267 
C 1715 2127 1677 1980 1600 1673 
L 1382 798 
C 1286 415 1101 64 762 64 
C 730 64 570 64 435 147 
C 666 192 717 383 717 460 
C 717 588 621 664 499 664 
C 346 664 179 530 179 326 
C 179 57 480 -64 755 -64 
C 1062 -64 1280 179 1414 441 
C 1517 64 1837 -64 2074 -64 
C 2726 -64 3072 773 3072 913 
C 3072 945 3046 971 3008 971 
C 2950 971 2944 939 2925 888 
C 2752 326 2381 64 2093 64 
C 1869 64 1747 230 1747 492 
C 1747 632 1773 734 1875 1156 
L 2099 2024 
C 2195 2408 2413 2689 2707 2689 
C 2720 2689 2899 2689 3034 2606 
z
" id="CMMI12-78" transform="scale(0.015625)"/>
      </defs>
      <use transform="scale(0.996264)" xlink:href="#CMMI12-78"/>
     </g>
    </g>
   </g>
   <g id="matplotlib.axis_2">
    <g id="ytick_1">
     <g id="line2d_10">
      <path clip-path="url(#pfeefa3a9e0)" d="M 36.182543 176.867883 
L 331.538728 176.867883 
" style="fill:none;stroke:#ffffff;stroke-linecap:round;"/>
     </g>
     <g id="text_11">
      <!-- $\mathdefault{−20}$ -->
      <g style="fill:#262626;" transform="translate(7.2 180.673056)scale(0.11 -0.11)">
       <defs>
        <path d="M 4218 1472 
C 4326 1472 4442 1472 4442 1600 
C 4442 1728 4326 1728 4218 1728 
L 755 1728 
C 646 1728 531 1728 531 1600 
C 531 1472 646 1472 755 1472 
L 4218 1472 
z
" id="CMSY10-0" transform="scale(0.015625)"/>
       </defs>
       <use transform="scale(0.996264)" xlink:href="#CMSY10-0"/>
       <use transform="translate(77.487468 0)scale(0.996264)" xlink:href="#CMR17-32"/>
       <use transform="translate(123.177945 0)scale(0.996264)" xlink:href="#CMR17-30"/>
      </g>
     </g>
    </g>
    <g id="ytick_2">
     <g id="line2d_11">
      <path clip-path="url(#pfeefa3a9e0)" d="M 36.182543 145.977827 
L 331.538728 145.977827 
" style="fill:none;stroke:#ffffff;stroke-linecap:round;"/>
     </g>
     <g id="text_12">
      <!-- $\mathdefault{−15}$ -->
      <g style="fill:#262626;" transform="translate(7.2 149.783)scale(0.11 -0.11)">
       <use transform="scale(0.996264)" xlink:href="#CMSY10-0"/>
       <use transform="translate(77.487468 0)scale(0.996264)" xlink:href="#CMR17-31"/>
       <use transform="translate(123.177945 0)scale(0.996264)" xlink:href="#CMR17-35"/>
      </g>
     </g>
    </g>
    <g id="ytick_3">
     <g id="line2d_12">
      <path clip-path="url(#pfeefa3a9e0)" d="M 36.182543 115.08777 
L 331.538728 115.08777 
" style="fill:none;stroke:#ffffff;stroke-linecap:round;"/>
     </g>
     <g id="text_13">
      <!-- $\mathdefault{−10}$ -->
      <g style="fill:#262626;" transform="translate(7.2 118.892944)scale(0.11 -0.11)">
       <use transform="scale(0.996264)" xlink:href="#CMSY10-0"/>
       <use transform="translate(77.487468 0)scale(0.996264)" xlink:href="#CMR17-31"/>
       <use transform="translate(123.177945 0)scale(0.996264)" xlink:href="#CMR17-30"/>
      </g>
     </g>
    </g>
    <g id="ytick_4">
     <g id="line2d_13">
      <path clip-path="url(#pfeefa3a9e0)" d="M 36.182543 84.197714 
L 331.538728 84.197714 
" style="fill:none;stroke:#ffffff;stroke-linecap:round;"/>
     </g>
     <g id="text_14">
      <!-- $\mathdefault{−5}$ -->
      <g style="fill:#262626;" transform="translate(12.679467 88.002888)scale(0.11 -0.11)">
       <use transform="scale(0.996264)" xlink:href="#CMSY10-0"/>
       <use transform="translate(77.487468 0)scale(0.996264)" xlink:href="#CMR17-35"/>
      </g>
     </g>
    </g>
    <g id="ytick_5">
     <g id="line2d_14">
      <path clip-path="url(#pfeefa3a9e0)" d="M 36.182543 53.307658 
L 331.538728 53.307658 
" style="fill:none;stroke:#ffffff;stroke-linecap:round;"/>
     </g>
     <g id="text_15">
      <!-- $\mathdefault{0}$ -->
      <g style="fill:#262626;" transform="translate(21.203076 57.112832)scale(0.11 -0.11)">
       <use transform="scale(0.996264)" xlink:href="#CMR17-30"/>
      </g>
     </g>
    </g>
    <g id="ytick_6">
     <g id="line2d_15">
      <path clip-path="url(#pfeefa3a9e0)" d="M 36.182543 22.417602 
L 331.538728 22.417602 
" style="fill:none;stroke:#ffffff;stroke-linecap:round;"/>
     </g>
     <g id="text_16">
      <!-- $\mathdefault{5}$ -->
      <g style="fill:#262626;" transform="translate(21.203076 26.222776)scale(0.11 -0.11)">
       <use transform="scale(0.996264)" xlink:href="#CMR17-35"/>
      </g>
     </g>
    </g>
   </g>
   <g id="line2d_16">
    <path clip-path="url(#pfeefa3a9e0)" d="M 36.182543 53.307658 
L 39.165939 53.305086 
L 42.149335 53.297172 
L 45.132731 53.283626 
L 48.116127 53.264174 
L 51.099523 53.238564 
L 54.082918 53.206564 
L 57.066314 53.167972 
L 60.04971 53.122618 
L 63.033106 53.070368 
L 66.016502 53.011129 
L 68.999897 52.944853 
L 71.983293 52.871542 
L 74.966689 52.791247 
L 77.950085 52.704077 
L 80.933481 52.610195 
L 83.916876 52.509825 
L 86.900272 52.403249 
L 89.883668 52.290805 
L 92.867064 52.172893 
L 95.85046 52.049965 
L 98.833855 51.922524 
L 101.817251 51.791123 
L 104.800647 51.656353 
L 107.784043 51.518846 
L 110.767439 51.379259 
L 113.750834 51.238272 
L 116.73423 51.096581 
L 119.717626 50.954887 
L 122.701022 50.813889 
L 125.684418 50.674276 
L 128.667813 50.53672 
L 131.651209 50.401871 
L 134.634605 50.270344 
L 137.618001 50.142722 
L 140.601397 50.019544 
L 143.584792 49.901303 
L 146.568188 49.788446 
L 149.551584 49.681367 
L 152.53498 49.580408 
L 155.518376 49.485859 
L 158.501772 49.397957 
L 161.485167 49.316889 
L 164.468563 49.242791 
L 167.451959 49.175752 
L 170.435355 49.115815 
L 173.418751 49.062983 
L 176.402146 49.017218 
L 179.385542 48.978448 
L 182.368938 48.946569 
L 185.352334 48.921448 
L 188.33573 48.902927 
L 191.319125 48.890826 
L 194.302521 48.884948 
L 197.285917 48.885079 
L 200.269313 48.890992 
L 203.252709 48.902451 
L 206.236104 48.919213 
L 209.2195 48.941028 
L 212.202896 48.967644 
L 215.186292 48.998809 
L 218.169688 49.034267 
L 221.153083 49.073766 
L 224.136479 49.117058 
L 227.119875 49.163897 
L 230.103271 49.21404 
L 233.086667 49.267254 
L 236.070062 49.323307 
L 239.053458 49.381976 
L 242.036854 49.443045 
L 245.02025 49.506304 
L 248.003646 49.571552 
L 250.987042 49.638592 
L 253.970437 49.707238 
L 256.953833 49.777311 
L 259.937229 49.848636 
L 262.920625 49.921051 
L 265.904021 49.994396 
L 268.887416 50.068521 
L 271.870812 50.143283 
L 274.854208 50.218544 
L 277.837604 50.294176 
L 280.821 50.370053 
L 283.804395 50.446059 
L 286.787791 50.522082 
L 289.771187 50.598016 
L 292.754583 50.673763 
L 295.737979 50.749226 
L 298.721374 50.824318 
L 301.70477 50.898954 
L 304.688166 50.973054 
L 307.671562 51.046544 
L 310.654958 51.119354 
L 313.638353 51.191419 
L 316.621749 51.262675 
L 319.605145 51.333067 
L 322.588541 51.402538 
L 325.571937 51.471041 
L 328.555332 51.538527 
L 331.538728 51.604954 
" style="fill:none;stroke:#4c72b0;stroke-linecap:round;stroke-width:1.5;"/>
   </g>
   <g id="line2d_17">
    <path clip-path="url(#pfeefa3a9e0)" d="M 36.182543 53.307658 
L 39.165939 53.050553 
L 42.149335 52.778825 
L 45.132731 52.493149 
L 48.116127 52.194384 
L 51.099523 51.883596 
L 54.082918 51.562058 
L 57.066314 51.231256 
L 60.04971 50.892896 
L 63.033106 50.548896 
L 66.016502 50.201379 
L 68.999897 49.852666 
L 71.983293 49.50525 
L 74.966689 49.161779 
L 77.950085 48.825025 
L 80.933481 48.497848 
L 83.916876 48.183158 
L 86.900272 47.88387 
L 89.883668 47.602859 
L 92.867064 47.342909 
L 95.85046 47.106664 
L 98.833855 46.896579 
L 101.817251 46.714871 
L 104.800647 46.56348 
L 107.784043 46.444025 
L 110.767439 46.357775 
L 113.750834 46.305628 
L 116.73423 46.28809 
L 119.717626 46.305272 
L 122.701022 46.35689 
L 125.684418 46.442278 
L 128.667813 46.560405 
L 131.651209 46.709905 
L 134.634605 46.889109 
L 137.618001 47.096081 
L 140.601397 47.328664 
L 143.584792 47.584521 
L 146.568188 47.861185 
L 149.551584 48.156099 
L 152.53498 48.46666 
L 155.518376 48.790264 
L 158.501772 49.124337 
L 161.485167 49.466374 
L 164.468563 49.813964 
L 167.451959 50.164813 
L 170.435355 50.516769 
L 173.418751 50.86783 
L 176.402146 51.216158 
L 179.385542 51.560084 
L 182.368938 51.898113 
L 185.352334 52.228917 
L 188.33573 52.551341 
L 191.319125 52.864389 
L 194.302521 53.167221 
L 197.285917 53.459145 
L 200.269313 53.739602 
L 203.252709 54.008163 
L 206.236104 54.264512 
L 209.2195 54.508439 
L 212.202896 54.739827 
L 215.186292 54.958645 
L 218.169688 55.164932 
L 221.153083 55.358794 
L 224.136479 55.540392 
L 227.119875 55.709934 
L 230.103271 55.867666 
L 233.086667 56.01387 
L 236.070062 56.148853 
L 239.053458 56.272943 
L 242.036854 56.386485 
L 245.02025 56.489834 
L 248.003646 56.583356 
L 250.987042 56.667419 
L 253.970437 56.742393 
L 256.953833 56.80865 
L 259.937229 56.866556 
L 262.920625 56.916475 
L 265.904021 56.958763 
L 268.887416 56.993771 
L 271.870812 57.02184 
L 274.854208 57.043305 
L 277.837604 57.05849 
L 280.821 57.067708 
L 283.804395 57.071265 
L 286.787791 57.069455 
L 289.771187 57.062562 
L 292.754583 57.050862 
L 295.737979 57.034618 
L 298.721374 57.014085 
L 301.70477 56.989508 
L 304.688166 56.961124 
L 307.671562 56.929157 
L 310.654958 56.893827 
L 313.638353 56.855342 
L 316.621749 56.813902 
L 319.605145 56.769701 
L 322.588541 56.722923 
L 325.571937 56.673747 
L 328.555332 56.622343 
L 331.538728 56.568875 
" style="fill:none;stroke:#dd8452;stroke-linecap:round;stroke-width:1.5;"/>
   </g>
   <g id="line2d_18">
    <path clip-path="url(#pfeefa3a9e0)" d="M 36.182543 40.951636 
L 39.165939 40.209223 
L 42.149335 39.485548 
L 45.132731 38.790026 
L 48.116127 38.132851 
L 51.099523 37.524904 
L 54.082918 36.977636 
L 57.066314 36.502914 
L 60.04971 36.112828 
L 63.033106 35.819475 
L 66.016502 35.634706 
L 68.999897 35.569845 
L 71.983293 35.635395 
L 74.966689 35.840725 
L 77.950085 36.193762 
L 80.933481 36.700684 
L 83.916876 37.365646 
L 86.900272 38.190531 
L 89.883668 39.174755 
L 92.867064 40.315126 
L 95.85046 41.605781 
L 98.833855 43.038186 
L 101.817251 44.60123 
L 104.800647 46.281392 
L 107.784043 48.062987 
L 110.767439 49.928484 
L 113.750834 51.85888 
L 116.73423 53.834122 
L 119.717626 55.833558 
L 122.701022 57.836397 
L 125.684418 59.822165 
L 128.667813 61.771138 
L 131.651209 63.664735 
L 134.634605 65.485863 
L 137.618001 67.219196 
L 140.601397 68.851396 
L 143.584792 70.371257 
L 146.568188 71.769779 
L 149.551584 73.040188 
L 152.53498 74.177882 
L 155.518376 75.180333 
L 158.501772 76.046948 
L 161.485167 76.778894 
L 164.468563 77.378898 
L 167.451959 77.851035 
L 170.435355 78.200514 
L 173.418751 78.433459 
L 176.402146 78.556702 
L 179.385542 78.577588 
L 182.368938 78.503797 
L 185.352334 78.343181 
L 188.33573 78.103628 
L 191.319125 77.792938 
L 194.302521 77.418726 
L 197.285917 76.988341 
L 200.269313 76.508803 
L 203.252709 75.986756 
L 206.236104 75.428437 
L 209.2195 74.839654 
L 212.202896 74.22578 
L 215.186292 73.591749 
L 218.169688 72.942069 
L 221.153083 72.280825 
L 224.136479 71.611708 
L 227.119875 70.938023 
L 230.103271 70.262723 
L 233.086667 69.588422 
L 236.070062 68.917428 
L 239.053458 68.251763 
L 242.036854 67.593186 
L 245.02025 66.943219 
L 248.003646 66.303169 
L 250.987042 65.674147 
L 253.970437 65.057089 
L 256.953833 64.452775 
L 259.937229 63.861846 
L 262.920625 63.284816 
L 265.904021 62.722093 
L 268.887416 62.173987 
L 271.870812 61.640721 
L 274.854208 61.122447 
L 277.837604 60.619251 
L 280.821 60.131161 
L 283.804395 59.658159 
L 286.787791 59.200184 
L 289.771187 58.757138 
L 292.754583 58.328895 
L 295.737979 57.9153 
L 298.721374 57.51618 
L 301.70477 57.131339 
L 304.688166 56.76057 
L 307.671562 56.403651 
L 310.654958 56.060351 
L 313.638353 55.730433 
L 316.621749 55.413649 
L 319.605145 55.109751 
L 322.588541 54.818485 
L 325.571937 54.539595 
L 328.555332 54.272825 
L 331.538728 54.017917 
" style="fill:none;stroke:#55a868;stroke-linecap:round;stroke-width:1.5;"/>
   </g>
   <g id="line2d_19">
    <path clip-path="url(#pfeefa3a9e0)" d="M 36.182543 16.239591 
L 39.165939 15.936908 
L 42.149335 16.06745 
L 45.132731 16.691342 
L 48.116127 17.867394 
L 51.099523 19.65137 
L 54.082918 22.09407 
L 57.066314 25.239247 
L 60.04971 29.121448 
L 63.033106 33.763828 
L 66.016502 39.176052 
L 68.999897 45.352373 
L 71.983293 52.270013 
L 74.966689 59.887952 
L 77.950085 68.146253 
L 80.933481 76.965994 
L 83.916876 86.249911 
L 86.900272 95.883776 
L 89.883668 105.738533 
L 92.867064 115.673147 
L 95.85046 125.538084 
L 98.833855 135.179314 
L 101.817251 144.442658 
L 104.800647 153.178301 
L 107.784043 161.24525 
L 110.767439 168.515539 
L 113.750834 174.877961 
L 116.73423 180.241171 
L 119.717626 184.535997 
L 122.701022 187.71689 
L 125.684418 189.762453 
L 128.667813 190.675075 
L 131.651209 190.479724 
L 134.634605 189.222011 
L 137.618001 186.965653 
L 140.601397 183.789512 
L 143.584792 179.784348 
L 146.568188 175.049487 
L 149.551584 169.689529 
L 152.53498 163.81123 
L 155.518376 157.520686 
L 158.501772 150.920859 
L 161.485167 144.109531 
L 164.468563 137.177679 
L 167.451959 130.208279 
L 170.435355 123.275519 
L 173.418751 116.444384 
L 176.402146 109.770557 
L 179.385542 103.300595 
L 182.368938 97.072327 
L 185.352334 91.115406 
L 188.33573 85.451985 
L 191.319125 80.097464 
L 194.302521 75.061269 
L 197.285917 70.347637 
L 200.269313 65.956383 
L 203.252709 61.883622 
L 206.236104 58.122446 
L 209.2195 54.663537 
L 212.202896 51.495715 
L 215.186292 48.606424 
L 218.169688 45.982148 
L 221.153083 43.608772 
L 224.136479 41.471881 
L 227.119875 39.557005 
L 230.103271 37.849822 
L 233.086667 36.336317 
L 236.070062 35.002904 
L 239.053458 33.836515 
L 242.036854 32.824671 
L 245.02025 31.955517 
L 248.003646 31.217854 
L 250.987042 30.601144 
L 253.970437 30.09551 
L 256.953833 29.691724 
L 259.937229 29.381191 
L 262.920625 29.155922 
L 265.904021 29.008512 
L 268.887416 28.932105 
L 271.870812 28.920365 
L 274.854208 28.967446 
L 277.837604 29.067959 
L 280.821 29.216941 
L 283.804395 29.409826 
L 286.787791 29.642413 
L 289.771187 29.910841 
L 292.754583 30.211562 
L 295.737979 30.541317 
L 298.721374 30.897109 
L 301.70477 31.276187 
L 304.688166 31.676023 
L 307.671562 32.094293 
L 310.654958 32.528858 
L 313.638353 32.977754 
L 316.621749 33.439173 
L 319.605145 33.911447 
L 322.588541 34.393044 
L 325.571937 34.882547 
L 328.555332 35.378653 
L 331.538728 35.880155 
" style="fill:none;stroke:#c44e52;stroke-linecap:round;stroke-width:1.5;"/>
   </g>
   <g id="legend_1">
    <g id="patch_3">
     <path d="M 259.228858 193.911983 
L 323.838728 193.911983 
Q 326.038728 193.911983 326.038728 191.711983 
L 326.038728 126.917855 
Q 326.038728 124.717855 323.838728 124.717855 
L 259.228858 124.717855 
Q 257.028858 124.717855 257.028858 126.917855 
L 257.028858 191.711983 
Q 257.028858 193.911983 259.228858 193.911983 
z
" style="fill:#eaeaf2;opacity:0.8;stroke:#cccccc;stroke-linejoin:miter;"/>
    </g>
    <g id="line2d_20">
     <path d="M 261.428858 133.487033 
L 283.428858 133.487033 
" style="fill:none;stroke:#4c72b0;stroke-linecap:round;stroke-width:1.5;"/>
    </g>
    <g id="line2d_21"/>
    <g id="text_17">
     <!-- $f(x)$ -->
     <g style="fill:#262626;" transform="translate(292.228858 137.337033)scale(0.11 -0.11)">
      <defs>
       <path d="M 2854 2566 
C 2982 2566 3034 2566 3034 2688 
C 3034 2752 2982 2752 2867 2752 
L 2349 2752 
C 2470 3429 2560 3897 2611 4107 
C 2650 4265 2784 4416 2950 4416 
C 3085 4416 3219 4358 3283 4298 
C 3034 4272 2957 4082 2957 3969 
C 2957 3837 3053 3759 3174 3759 
C 3302 3759 3494 3870 3494 4119 
C 3494 4393 3226 4544 2944 4544 
C 2669 4544 2400 4334 2272 4078 
C 2157 3848 2093 3611 1946 2752 
L 1517 2752 
C 1395 2752 1331 2752 1331 2637 
C 1331 2566 1370 2566 1498 2566 
L 1907 2566 
C 1792 1976 1530 542 1382 -137 
C 1274 -689 1178 -1152 858 -1152 
C 838 -1152 653 -1152 538 -1031 
C 864 -1005 864 -726 864 -720 
C 864 -593 768 -517 646 -517 
C 518 -517 326 -625 326 -867 
C 326 -1140 608 -1280 858 -1280 
C 1510 -1280 1779 -118 1850 199 
C 1965 688 2278 2376 2310 2566 
L 2854 2566 
z
" id="CMMI12-66" transform="scale(0.015625)"/>
       <path d="M 1958 -1561 
C 1958 -1555 1958 -1542 1939 -1523 
C 1645 -1224 858 -407 858 1581 
C 858 3569 1632 4379 1946 4697 
C 1946 4704 1958 4717 1958 4736 
C 1958 4755 1939 4768 1914 4768 
C 1843 4768 1299 4296 986 3594 
C 666 2887 576 2199 576 1588 
C 576 1128 621 351 1005 -471 
C 1312 -1135 1837 -1600 1914 -1600 
C 1946 -1600 1958 -1587 1958 -1561 
z
" id="CMR17-28" transform="scale(0.015625)"/>
       <path d="M 1683 1581 
C 1683 2040 1638 2817 1254 3639 
C 947 4303 422 4768 346 4768 
C 326 4768 301 4761 301 4729 
C 301 4717 307 4710 314 4697 
C 621 4378 1402 3568 1402 1584 
C 1402 -407 627 -1217 314 -1537 
C 307 -1549 301 -1556 301 -1568 
C 301 -1600 326 -1600 346 -1600 
C 416 -1600 960 -1128 1274 -426 
C 1594 281 1683 969 1683 1581 
z
" id="CMR17-29" transform="scale(0.015625)"/>
      </defs>
      <use transform="scale(0.996264)" xlink:href="#CMMI12-66"/>
      <use transform="translate(58.720305 0)scale(0.996264)" xlink:href="#CMR17-28"/>
      <use transform="translate(94.001073 0)scale(0.996264)" xlink:href="#CMMI12-78"/>
      <use transform="translate(149.435132 0)scale(0.996264)" xlink:href="#CMR17-29"/>
     </g>
    </g>
    <g id="line2d_22">
     <path d="M 261.428858 149.965441 
L 283.428858 149.965441 
" style="fill:none;stroke:#dd8452;stroke-linecap:round;stroke-width:1.5;"/>
    </g>
    <g id="line2d_23"/>
    <g id="text_18">
     <!-- $f'(x)$ -->
     <g style="fill:#262626;" transform="translate(292.228858 153.815441)scale(0.11 -0.11)">
      <defs>
       <path d="M 1619 3040 
C 1651 3117 1677 3174 1677 3238 
C 1677 3424 1510 3578 1312 3578 
C 1133 3578 1018 3456 973 3290 
L 211 493 
C 211 480 186 410 186 403 
C 186 333 352 288 403 288 
C 442 288 448 307 486 390 
L 1619 3040 
z
" id="CMSY10-30" transform="scale(0.015625)"/>
      </defs>
      <use transform="scale(0.996264)" xlink:href="#CMMI12-66"/>
      <use transform="translate(58.720305 36.153639)scale(0.697382)" xlink:href="#CMSY10-30"/>
      <use transform="translate(78.396397 0)scale(0.996264)" xlink:href="#CMR17-28"/>
      <use transform="translate(113.677165 0)scale(0.996264)" xlink:href="#CMMI12-78"/>
      <use transform="translate(169.111225 0)scale(0.996264)" xlink:href="#CMR17-29"/>
     </g>
    </g>
    <g id="line2d_24">
     <path d="M 261.428858 166.443849 
L 283.428858 166.443849 
" style="fill:none;stroke:#55a868;stroke-linecap:round;stroke-width:1.5;"/>
    </g>
    <g id="line2d_25"/>
    <g id="text_19">
     <!-- $f''(x)$ -->
     <g style="fill:#262626;" transform="translate(292.228858 170.293849)scale(0.11 -0.11)">
      <use transform="scale(0.996264)" xlink:href="#CMMI12-66"/>
      <use transform="translate(58.720305 36.153639)scale(0.697382)" xlink:href="#CMSY10-30"/>
      <use transform="translate(77.898265 36.153639)scale(0.697382)" xlink:href="#CMSY10-30"/>
      <use transform="translate(97.574358 0)scale(0.996264)" xlink:href="#CMR17-28"/>
      <use transform="translate(132.855126 0)scale(0.996264)" xlink:href="#CMMI12-78"/>
      <use transform="translate(188.289185 0)scale(0.996264)" xlink:href="#CMR17-29"/>
     </g>
    </g>
    <g id="line2d_26">
     <path d="M 261.428858 182.922257 
L 283.428858 182.922257 
" style="fill:none;stroke:#c44e52;stroke-linecap:round;stroke-width:1.5;"/>
    </g>
    <g id="line2d_27"/>
    <g id="text_20">
     <!-- $f'''(x)$ -->
     <g style="fill:#262626;" transform="translate(292.228858 186.772257)scale(0.11 -0.11)">
      <use transform="scale(0.996264)" xlink:href="#CMMI12-66"/>
      <use transform="translate(58.720305 36.153639)scale(0.697382)" xlink:href="#CMSY10-30"/>
      <use transform="translate(77.898265 36.153639)scale(0.697382)" xlink:href="#CMSY10-30"/>
      <use transform="translate(97.076226 36.153639)scale(0.697382)" xlink:href="#CMSY10-30"/>
      <use transform="translate(116.752319 0)scale(0.996264)" xlink:href="#CMR17-28"/>
      <use transform="translate(152.033086 0)scale(0.996264)" xlink:href="#CMMI12-78"/>
      <use transform="translate(207.467146 0)scale(0.996264)" xlink:href="#CMR17-29"/>
     </g>
    </g>
   </g>
  </g>
 </g>
 <defs>
  <clipPath id="pfeefa3a9e0">
   <rect height="192.211983" width="295.356185" x="36.182543" y="7.2"/>
  </clipPath>
 </defs>
</svg>
