<?xml version="1.0" encoding="UTF-8"?>
<svg xmlns="http://www.w3.org/2000/svg" xmlns:xlink="http://www.w3.org/1999/xlink" width="75pt" height="75pt" viewBox="0 0 75 75" version="1.1">
<g id="surface1">
<path style=" stroke:none;fill-rule:nonzero;fill:rgb(80%,80%,80%);fill-opacity:1;" d="M 58.796875 43.316406 L 63.28125 43.316406 C 69.726562 43.316406 75 48.582031 75 55.019531 L 75 57.359375 C 75 63.789062 69.726562 69.058594 63.28125 69.058594 L 11.71875 69.058594 C 5.273438 69.058594 0 63.792969 0 57.359375 L 0 55.019531 C 0 49.019531 4.601562 44.09375 10.449219 43.445312 C 10.332031 42.640625 10.253906 41.816406 10.253906 40.980469 C 10.253906 31.367188 18.058594 23.578125 27.683594 23.578125 C 35.078125 23.578125 41.378906 28.179688 43.914062 34.664062 C 43.914062 34.664062 47.820312 32.871094 52.707031 34.597656 C 58.777344 36.746094 58.796875 43.316406 58.796875 43.316406 Z M 58.796875 43.316406 "/>
<path style=" stroke:none;fill-rule:nonzero;fill:rgb(100%,100%,100%);fill-opacity:1;" d="M 46.929688 56.890625 L 45.757812 56.890625 L 45.757812 55.71875 L 46.929688 55.71875 Z M 44.585938 56.890625 L 43.414062 56.890625 L 43.414062 55.71875 L 44.585938 55.71875 Z M 42.242188 56.890625 L 41.070312 56.890625 L 41.070312 55.71875 L 42.242188 55.71875 Z M 39.898438 56.890625 L 38.726562 56.890625 L 38.726562 55.71875 L 39.898438 55.71875 Z M 37.554688 56.890625 L 36.382812 56.890625 L 36.382812 55.71875 L 37.554688 55.71875 Z M 35.210938 56.890625 L 34.039062 56.890625 L 34.039062 55.71875 L 35.210938 55.71875 Z M 32.867188 56.890625 L 31.695312 56.890625 L 31.695312 55.71875 L 32.867188 55.71875 Z M 30.523438 56.890625 L 29.351562 56.890625 L 29.351562 55.71875 L 30.523438 55.71875 Z M 28.179688 56.890625 L 27.007812 56.890625 L 27.007812 55.71875 L 28.179688 55.71875 Z M 25.835938 56.890625 L 24.664062 56.890625 L 24.664062 55.71875 L 25.835938 55.71875 Z M 23.492188 56.890625 L 22.320312 56.890625 L 22.320312 55.71875 L 23.492188 55.71875 Z M 21.148438 56.890625 L 19.976562 56.890625 L 19.976562 55.71875 L 21.148438 55.71875 Z M 18.804688 56.890625 L 17.632812 56.890625 L 17.632812 55.71875 L 18.804688 55.71875 Z M 16.460938 56.890625 L 15.289062 56.890625 L 15.289062 55.71875 L 16.460938 55.71875 Z M 14.117188 56.890625 L 12.945312 56.890625 L 12.945312 55.71875 L 14.117188 55.71875 Z M 11.773438 56.890625 L 10.601562 56.890625 L 10.601562 55.71875 L 11.773438 55.71875 Z M 9.429688 56.890625 L 8.257812 56.890625 L 8.257812 55.71875 L 9.429688 55.71875 Z M 9.429688 56.890625 "/>
<path style=" stroke:none;fill-rule:nonzero;fill:rgb(100%,100%,100%);fill-opacity:1;" d="M 66.742188 63.09375 L 65.570312 63.09375 L 65.570312 61.921875 L 66.742188 61.921875 Z M 64.398438 63.09375 L 63.230469 63.09375 L 63.230469 61.921875 L 64.398438 61.921875 Z M 62.058594 63.09375 L 60.886719 63.09375 L 60.886719 61.921875 L 62.058594 61.921875 Z M 59.714844 63.09375 L 58.542969 63.09375 L 58.542969 61.921875 L 59.714844 61.921875 Z M 57.371094 63.09375 L 56.199219 63.09375 L 56.199219 61.921875 L 57.371094 61.921875 Z M 55.027344 63.09375 L 53.855469 63.09375 L 53.855469 61.921875 L 55.027344 61.921875 Z M 52.683594 63.09375 L 51.511719 63.09375 L 51.511719 61.921875 L 52.683594 61.921875 Z M 50.339844 63.09375 L 49.167969 63.09375 L 49.167969 61.921875 L 50.339844 61.921875 Z M 47.996094 63.09375 L 46.824219 63.09375 L 46.824219 61.921875 L 47.996094 61.921875 Z M 45.652344 63.09375 L 44.480469 63.09375 L 44.480469 61.921875 L 45.652344 61.921875 Z M 43.308594 63.09375 L 42.136719 63.09375 L 42.136719 61.921875 L 43.308594 61.921875 Z M 40.964844 63.09375 L 39.792969 63.09375 L 39.792969 61.921875 L 40.964844 61.921875 Z M 38.621094 63.09375 L 37.449219 63.09375 L 37.449219 61.921875 L 38.621094 61.921875 Z M 36.273438 63.09375 L 35.101562 63.09375 L 35.101562 61.921875 L 36.273438 61.921875 Z M 36.273438 63.09375 "/>
<path style=" stroke:none;fill-rule:nonzero;fill:rgb(13.333333%,12.54902%,12.54902%);fill-opacity:1;" d="M 36.800781 40.71875 L 35.757812 41.253906 L 21.683594 13.625 L 22.726562 13.09375 Z M 36.800781 40.71875 "/>
<path style=" stroke:none;fill-rule:nonzero;fill:rgb(13.333333%,12.54902%,12.54902%);fill-opacity:1;" d="M 52.644531 13.621094 L 38.585938 41.257812 L 37.542969 40.726562 L 51.601562 13.089844 Z M 52.644531 13.621094 "/>
<path style=" stroke:none;fill-rule:nonzero;fill:rgb(100%,100%,100%);fill-opacity:1;" d="M 44.777344 43.039062 C 44.777344 47.136719 41.453125 50.457031 37.359375 50.457031 C 33.261719 50.457031 29.941406 47.136719 29.941406 43.039062 C 29.941406 38.941406 33.261719 35.621094 37.359375 35.621094 C 41.453125 35.621094 44.777344 38.941406 44.777344 43.039062 Z M 44.777344 43.039062 "/>
<path style=" stroke:none;fill-rule:nonzero;fill:rgb(60%,60%,60%);fill-opacity:1;" d="M 29.621094 13.359375 C 29.621094 17.457031 26.300781 20.777344 22.203125 20.777344 C 18.105469 20.777344 14.785156 17.457031 14.785156 13.359375 C 14.785156 9.265625 18.105469 5.941406 22.203125 5.941406 C 26.300781 5.941406 29.621094 9.265625 29.621094 13.359375 Z M 29.621094 13.359375 "/>
<path style=" stroke:none;fill-rule:nonzero;fill:rgb(80%,80%,80%);fill-opacity:1;" d="M 59.929688 13.429688 C 59.929688 17.527344 56.609375 20.847656 52.511719 20.847656 C 48.414062 20.847656 45.09375 17.527344 45.09375 13.429688 C 45.09375 9.335938 48.414062 6.011719 52.511719 6.011719 C 56.609375 6.011719 59.929688 9.335938 59.929688 13.429688 Z M 59.929688 13.429688 "/>
</g>
</svg>
