<?xml version="1.0" encoding="utf-8" standalone="no"?>
<!DOCTYPE svg PUBLIC "-//W3C//DTD SVG 1.1//EN"
  "http://www.w3.org/Graphics/SVG/1.1/DTD/svg11.dtd">
<svg xmlns:xlink="http://www.w3.org/1999/xlink" width="460.8pt" height="345.6pt" viewBox="0 0 460.8 345.6" xmlns="http://www.w3.org/2000/svg" version="1.1">
 <metadata>
  <rdf:RDF xmlns:dc="http://purl.org/dc/elements/1.1/" xmlns:cc="http://creativecommons.org/ns#" xmlns:rdf="http://www.w3.org/1999/02/22-rdf-syntax-ns#">
   <cc:Work>
    <dc:type rdf:resource="http://purl.org/dc/dcmitype/StillImage"/>
    <dc:date>2024-05-05T01:45:24.563377</dc:date>
    <dc:format>image/svg+xml</dc:format>
    <dc:creator>
     <cc:Agent>
      <dc:title>Matplotlib v3.8.3, https://matplotlib.org/</dc:title>
     </cc:Agent>
    </dc:creator>
   </cc:Work>
  </rdf:RDF>
 </metadata>
 <defs>
  <style type="text/css">*{stroke-linejoin: round; stroke-linecap: butt}</style>
 </defs>
 <g id="figure_1">
  <g id="patch_1">
   <path d="M 0 345.6 
L 460.8 345.6 
L 460.8 0 
L 0 0 
L 0 345.6 
z
" style="fill: none"/>
  </g>
  <g id="axes_1">
   <g id="patch_2">
    <path d="M 59.76 299.836926 
L 447.84 299.836926 
L 447.84 17.28 
L 59.76 17.28 
L 59.76 299.836926 
z
" style="fill: none"/>
   </g>
   <g id="matplotlib.axis_1">
    <g id="xtick_1">
     <g id="line2d_1">
      <path d="M 59.76 299.836926 
L 59.76 17.28 
" clip-path="url(#p3d9712245a)" style="fill: none; stroke: #ffffff; stroke-linecap: round"/>
     </g>
     <g id="text_1">
      <!-- 1960 -->
      <g style="fill: #262626" transform="translate(34.371791 330.57291) rotate(-30) scale(0.11 -0.11)">
       <defs>
        <path id="DejaVuSans-31" d="M 794 531 
L 1825 531 
L 1825 4091 
L 703 3866 
L 703 4441 
L 1819 4666 
L 2450 4666 
L 2450 531 
L 3481 531 
L 3481 0 
L 794 0 
L 794 531 
z
" transform="scale(0.015625)"/>
        <path id="DejaVuSans-39" d="M 703 97 
L 703 672 
Q 941 559 1184 500 
Q 1428 441 1663 441 
Q 2288 441 2617 861 
Q 2947 1281 2994 2138 
Q 2813 1869 2534 1725 
Q 2256 1581 1919 1581 
Q 1219 1581 811 2004 
Q 403 2428 403 3163 
Q 403 3881 828 4315 
Q 1253 4750 1959 4750 
Q 2769 4750 3195 4129 
Q 3622 3509 3622 2328 
Q 3622 1225 3098 567 
Q 2575 -91 1691 -91 
Q 1453 -91 1209 -44 
Q 966 3 703 97 
z
M 1959 2075 
Q 2384 2075 2632 2365 
Q 2881 2656 2881 3163 
Q 2881 3666 2632 3958 
Q 2384 4250 1959 4250 
Q 1534 4250 1286 3958 
Q 1038 3666 1038 3163 
Q 1038 2656 1286 2365 
Q 1534 2075 1959 2075 
z
" transform="scale(0.015625)"/>
        <path id="DejaVuSans-36" d="M 2113 2584 
Q 1688 2584 1439 2293 
Q 1191 2003 1191 1497 
Q 1191 994 1439 701 
Q 1688 409 2113 409 
Q 2538 409 2786 701 
Q 3034 994 3034 1497 
Q 3034 2003 2786 2293 
Q 2538 2584 2113 2584 
z
M 3366 4563 
L 3366 3988 
Q 3128 4100 2886 4159 
Q 2644 4219 2406 4219 
Q 1781 4219 1451 3797 
Q 1122 3375 1075 2522 
Q 1259 2794 1537 2939 
Q 1816 3084 2150 3084 
Q 2853 3084 3261 2657 
Q 3669 2231 3669 1497 
Q 3669 778 3244 343 
Q 2819 -91 2113 -91 
Q 1303 -91 875 529 
Q 447 1150 447 2328 
Q 447 3434 972 4092 
Q 1497 4750 2381 4750 
Q 2619 4750 2861 4703 
Q 3103 4656 3366 4563 
z
" transform="scale(0.015625)"/>
        <path id="DejaVuSans-30" d="M 2034 4250 
Q 1547 4250 1301 3770 
Q 1056 3291 1056 2328 
Q 1056 1369 1301 889 
Q 1547 409 2034 409 
Q 2525 409 2770 889 
Q 3016 1369 3016 2328 
Q 3016 3291 2770 3770 
Q 2525 4250 2034 4250 
z
M 2034 4750 
Q 2819 4750 3233 4129 
Q 3647 3509 3647 2328 
Q 3647 1150 3233 529 
Q 2819 -91 2034 -91 
Q 1250 -91 836 529 
Q 422 1150 422 2328 
Q 422 3509 836 4129 
Q 1250 4750 2034 4750 
z
" transform="scale(0.015625)"/>
       </defs>
       <use xlink:href="#DejaVuSans-31"/>
       <use xlink:href="#DejaVuSans-39" x="63.623047"/>
       <use xlink:href="#DejaVuSans-36" x="127.246094"/>
       <use xlink:href="#DejaVuSans-30" x="190.869141"/>
      </g>
     </g>
    </g>
    <g id="xtick_2">
     <g id="line2d_2">
      <path d="M 120.405801 299.836926 
L 120.405801 17.28 
" clip-path="url(#p3d9712245a)" style="fill: none; stroke: #ffffff; stroke-linecap: round"/>
     </g>
     <g id="text_2">
      <!-- 1970 -->
      <g style="fill: #262626" transform="translate(95.017592 330.57291) rotate(-30) scale(0.11 -0.11)">
       <defs>
        <path id="DejaVuSans-37" d="M 525 4666 
L 3525 4666 
L 3525 4397 
L 1831 0 
L 1172 0 
L 2766 4134 
L 525 4134 
L 525 4666 
z
" transform="scale(0.015625)"/>
       </defs>
       <use xlink:href="#DejaVuSans-31"/>
       <use xlink:href="#DejaVuSans-39" x="63.623047"/>
       <use xlink:href="#DejaVuSans-37" x="127.246094"/>
       <use xlink:href="#DejaVuSans-30" x="190.869141"/>
      </g>
     </g>
    </g>
    <g id="xtick_3">
     <g id="line2d_3">
      <path d="M 181.035 299.836926 
L 181.035 17.28 
" clip-path="url(#p3d9712245a)" style="fill: none; stroke: #ffffff; stroke-linecap: round"/>
     </g>
     <g id="text_3">
      <!-- 1980 -->
      <g style="fill: #262626" transform="translate(155.646791 330.57291) rotate(-30) scale(0.11 -0.11)">
       <defs>
        <path id="DejaVuSans-38" d="M 2034 2216 
Q 1584 2216 1326 1975 
Q 1069 1734 1069 1313 
Q 1069 891 1326 650 
Q 1584 409 2034 409 
Q 2484 409 2743 651 
Q 3003 894 3003 1313 
Q 3003 1734 2745 1975 
Q 2488 2216 2034 2216 
z
M 1403 2484 
Q 997 2584 770 2862 
Q 544 3141 544 3541 
Q 544 4100 942 4425 
Q 1341 4750 2034 4750 
Q 2731 4750 3128 4425 
Q 3525 4100 3525 3541 
Q 3525 3141 3298 2862 
Q 3072 2584 2669 2484 
Q 3125 2378 3379 2068 
Q 3634 1759 3634 1313 
Q 3634 634 3220 271 
Q 2806 -91 2034 -91 
Q 1263 -91 848 271 
Q 434 634 434 1313 
Q 434 1759 690 2068 
Q 947 2378 1403 2484 
z
M 1172 3481 
Q 1172 3119 1398 2916 
Q 1625 2713 2034 2713 
Q 2441 2713 2670 2916 
Q 2900 3119 2900 3481 
Q 2900 3844 2670 4047 
Q 2441 4250 2034 4250 
Q 1625 4250 1398 4047 
Q 1172 3844 1172 3481 
z
" transform="scale(0.015625)"/>
       </defs>
       <use xlink:href="#DejaVuSans-31"/>
       <use xlink:href="#DejaVuSans-39" x="63.623047"/>
       <use xlink:href="#DejaVuSans-38" x="127.246094"/>
       <use xlink:href="#DejaVuSans-30" x="190.869141"/>
      </g>
     </g>
    </g>
    <g id="xtick_4">
     <g id="line2d_4">
      <path d="M 241.680801 299.836926 
L 241.680801 17.28 
" clip-path="url(#p3d9712245a)" style="fill: none; stroke: #ffffff; stroke-linecap: round"/>
     </g>
     <g id="text_4">
      <!-- 1990 -->
      <g style="fill: #262626" transform="translate(216.292592 330.57291) rotate(-30) scale(0.11 -0.11)">
       <use xlink:href="#DejaVuSans-31"/>
       <use xlink:href="#DejaVuSans-39" x="63.623047"/>
       <use xlink:href="#DejaVuSans-39" x="127.246094"/>
       <use xlink:href="#DejaVuSans-30" x="190.869141"/>
      </g>
     </g>
    </g>
    <g id="xtick_5">
     <g id="line2d_5">
      <path d="M 302.31 299.836926 
L 302.31 17.28 
" clip-path="url(#p3d9712245a)" style="fill: none; stroke: #ffffff; stroke-linecap: round"/>
     </g>
     <g id="text_5">
      <!-- 2000 -->
      <g style="fill: #262626" transform="translate(276.921791 330.57291) rotate(-30) scale(0.11 -0.11)">
       <defs>
        <path id="DejaVuSans-32" d="M 1228 531 
L 3431 531 
L 3431 0 
L 469 0 
L 469 531 
Q 828 903 1448 1529 
Q 2069 2156 2228 2338 
Q 2531 2678 2651 2914 
Q 2772 3150 2772 3378 
Q 2772 3750 2511 3984 
Q 2250 4219 1831 4219 
Q 1534 4219 1204 4116 
Q 875 4013 500 3803 
L 500 4441 
Q 881 4594 1212 4672 
Q 1544 4750 1819 4750 
Q 2544 4750 2975 4387 
Q 3406 4025 3406 3419 
Q 3406 3131 3298 2873 
Q 3191 2616 2906 2266 
Q 2828 2175 2409 1742 
Q 1991 1309 1228 531 
z
" transform="scale(0.015625)"/>
       </defs>
       <use xlink:href="#DejaVuSans-32"/>
       <use xlink:href="#DejaVuSans-30" x="63.623047"/>
       <use xlink:href="#DejaVuSans-30" x="127.246094"/>
       <use xlink:href="#DejaVuSans-30" x="190.869141"/>
      </g>
     </g>
    </g>
    <g id="xtick_6">
     <g id="line2d_6">
      <path d="M 362.955801 299.836926 
L 362.955801 17.28 
" clip-path="url(#p3d9712245a)" style="fill: none; stroke: #ffffff; stroke-linecap: round"/>
     </g>
     <g id="text_6">
      <!-- 2010 -->
      <g style="fill: #262626" transform="translate(337.567592 330.57291) rotate(-30) scale(0.11 -0.11)">
       <use xlink:href="#DejaVuSans-32"/>
       <use xlink:href="#DejaVuSans-30" x="63.623047"/>
       <use xlink:href="#DejaVuSans-31" x="127.246094"/>
       <use xlink:href="#DejaVuSans-30" x="190.869141"/>
      </g>
     </g>
    </g>
    <g id="xtick_7">
     <g id="line2d_7">
      <path d="M 423.585 299.836926 
L 423.585 17.28 
" clip-path="url(#p3d9712245a)" style="fill: none; stroke: #ffffff; stroke-linecap: round"/>
     </g>
     <g id="text_7">
      <!-- 2020 -->
      <g style="fill: #262626" transform="translate(398.196791 330.57291) rotate(-30) scale(0.11 -0.11)">
       <use xlink:href="#DejaVuSans-32"/>
       <use xlink:href="#DejaVuSans-30" x="63.623047"/>
       <use xlink:href="#DejaVuSans-32" x="127.246094"/>
       <use xlink:href="#DejaVuSans-30" x="190.869141"/>
      </g>
     </g>
    </g>
   </g>
   <g id="matplotlib.axis_2">
    <g id="ytick_1">
     <g id="line2d_8">
      <path d="M 59.76 277.916722 
L 447.84 277.916722 
" clip-path="url(#p3d9712245a)" style="fill: none; stroke: #ffffff; stroke-linecap: round"/>
     </g>
     <g id="text_8">
      <!-- 20k -->
      <g style="fill: #262626" transform="translate(29.892813 282.095863) scale(0.11 -0.11)">
       <defs>
        <path id="DejaVuSans-6b" d="M 581 4863 
L 1159 4863 
L 1159 1991 
L 2875 3500 
L 3609 3500 
L 1753 1863 
L 3688 0 
L 2938 0 
L 1159 1709 
L 1159 0 
L 581 0 
L 581 4863 
z
" transform="scale(0.015625)"/>
       </defs>
       <use xlink:href="#DejaVuSans-32"/>
       <use xlink:href="#DejaVuSans-30" x="63.623047"/>
       <use xlink:href="#DejaVuSans-6b" x="127.246094"/>
      </g>
     </g>
    </g>
    <g id="ytick_2">
     <g id="line2d_9">
      <path d="M 59.76 193.559905 
L 447.84 193.559905 
" clip-path="url(#p3d9712245a)" style="fill: none; stroke: #ffffff; stroke-linecap: round"/>
     </g>
     <g id="text_9">
      <!-- 30k -->
      <g style="fill: #262626" transform="translate(29.892813 197.739045) scale(0.11 -0.11)">
       <defs>
        <path id="DejaVuSans-33" d="M 2597 2516 
Q 3050 2419 3304 2112 
Q 3559 1806 3559 1356 
Q 3559 666 3084 287 
Q 2609 -91 1734 -91 
Q 1441 -91 1130 -33 
Q 819 25 488 141 
L 488 750 
Q 750 597 1062 519 
Q 1375 441 1716 441 
Q 2309 441 2620 675 
Q 2931 909 2931 1356 
Q 2931 1769 2642 2001 
Q 2353 2234 1838 2234 
L 1294 2234 
L 1294 2753 
L 1863 2753 
Q 2328 2753 2575 2939 
Q 2822 3125 2822 3475 
Q 2822 3834 2567 4026 
Q 2313 4219 1838 4219 
Q 1578 4219 1281 4162 
Q 984 4106 628 3988 
L 628 4550 
Q 988 4650 1302 4700 
Q 1616 4750 1894 4750 
Q 2613 4750 3031 4423 
Q 3450 4097 3450 3541 
Q 3450 3153 3228 2886 
Q 3006 2619 2597 2516 
z
" transform="scale(0.015625)"/>
       </defs>
       <use xlink:href="#DejaVuSans-33"/>
       <use xlink:href="#DejaVuSans-30" x="63.623047"/>
       <use xlink:href="#DejaVuSans-6b" x="127.246094"/>
      </g>
     </g>
    </g>
    <g id="ytick_3">
     <g id="line2d_10">
      <path d="M 59.76 133.707791 
L 447.84 133.707791 
" clip-path="url(#p3d9712245a)" style="fill: none; stroke: #ffffff; stroke-linecap: round"/>
     </g>
     <g id="text_10">
      <!-- 40k -->
      <g style="fill: #262626" transform="translate(29.892813 137.886931) scale(0.11 -0.11)">
       <defs>
        <path id="DejaVuSans-34" d="M 2419 4116 
L 825 1625 
L 2419 1625 
L 2419 4116 
z
M 2253 4666 
L 3047 4666 
L 3047 1625 
L 3713 1625 
L 3713 1100 
L 3047 1100 
L 3047 0 
L 2419 0 
L 2419 1100 
L 313 1100 
L 313 1709 
L 2253 4666 
z
" transform="scale(0.015625)"/>
       </defs>
       <use xlink:href="#DejaVuSans-34"/>
       <use xlink:href="#DejaVuSans-30" x="63.623047"/>
       <use xlink:href="#DejaVuSans-6b" x="127.246094"/>
      </g>
     </g>
    </g>
    <g id="ytick_4">
     <g id="line2d_11">
      <path d="M 59.76 87.282884 
L 447.84 87.282884 
" clip-path="url(#p3d9712245a)" style="fill: none; stroke: #ffffff; stroke-linecap: round"/>
     </g>
     <g id="text_11">
      <!-- 50k -->
      <g style="fill: #262626" transform="translate(29.892813 91.462025) scale(0.11 -0.11)">
       <defs>
        <path id="DejaVuSans-35" d="M 691 4666 
L 3169 4666 
L 3169 4134 
L 1269 4134 
L 1269 2991 
Q 1406 3038 1543 3061 
Q 1681 3084 1819 3084 
Q 2600 3084 3056 2656 
Q 3513 2228 3513 1497 
Q 3513 744 3044 326 
Q 2575 -91 1722 -91 
Q 1428 -91 1123 -41 
Q 819 9 494 109 
L 494 744 
Q 775 591 1075 516 
Q 1375 441 1709 441 
Q 2250 441 2565 725 
Q 2881 1009 2881 1497 
Q 2881 1984 2565 2268 
Q 2250 2553 1709 2553 
Q 1456 2553 1204 2497 
Q 953 2441 691 2322 
L 691 4666 
z
" transform="scale(0.015625)"/>
       </defs>
       <use xlink:href="#DejaVuSans-35"/>
       <use xlink:href="#DejaVuSans-30" x="63.623047"/>
       <use xlink:href="#DejaVuSans-6b" x="127.246094"/>
      </g>
     </g>
    </g>
    <g id="ytick_5">
     <g id="line2d_12">
      <path d="M 59.76 49.350973 
L 447.84 49.350973 
" clip-path="url(#p3d9712245a)" style="fill: none; stroke: #ffffff; stroke-linecap: round"/>
     </g>
     <g id="text_12">
      <!-- 60k -->
      <g style="fill: #262626" transform="translate(29.892813 53.530114) scale(0.11 -0.11)">
       <use xlink:href="#DejaVuSans-36"/>
       <use xlink:href="#DejaVuSans-30" x="63.623047"/>
       <use xlink:href="#DejaVuSans-6b" x="127.246094"/>
      </g>
     </g>
    </g>
    <g id="ytick_6">
     <g id="line2d_13">
      <path d="M 59.76 17.28 
L 447.84 17.28 
" clip-path="url(#p3d9712245a)" style="fill: none; stroke: #ffffff; stroke-linecap: round"/>
     </g>
     <g id="text_13">
      <!-- 70k -->
      <g style="fill: #262626" transform="translate(29.892813 21.459141) scale(0.11 -0.11)">
       <use xlink:href="#DejaVuSans-37"/>
       <use xlink:href="#DejaVuSans-30" x="63.623047"/>
       <use xlink:href="#DejaVuSans-6b" x="127.246094"/>
      </g>
     </g>
    </g>
    <g id="text_14">
     <!-- Real US GDP per capita -->
     <g style="fill: #262626" transform="translate(23.397188 228.656275) rotate(-90) scale(0.12 -0.12)">
      <defs>
       <path id="DejaVuSans-52" d="M 2841 2188 
Q 3044 2119 3236 1894 
Q 3428 1669 3622 1275 
L 4263 0 
L 3584 0 
L 2988 1197 
Q 2756 1666 2539 1819 
Q 2322 1972 1947 1972 
L 1259 1972 
L 1259 0 
L 628 0 
L 628 4666 
L 2053 4666 
Q 2853 4666 3247 4331 
Q 3641 3997 3641 3322 
Q 3641 2881 3436 2590 
Q 3231 2300 2841 2188 
z
M 1259 4147 
L 1259 2491 
L 2053 2491 
Q 2509 2491 2742 2702 
Q 2975 2913 2975 3322 
Q 2975 3731 2742 3939 
Q 2509 4147 2053 4147 
L 1259 4147 
z
" transform="scale(0.015625)"/>
       <path id="DejaVuSans-65" d="M 3597 1894 
L 3597 1613 
L 953 1613 
Q 991 1019 1311 708 
Q 1631 397 2203 397 
Q 2534 397 2845 478 
Q 3156 559 3463 722 
L 3463 178 
Q 3153 47 2828 -22 
Q 2503 -91 2169 -91 
Q 1331 -91 842 396 
Q 353 884 353 1716 
Q 353 2575 817 3079 
Q 1281 3584 2069 3584 
Q 2775 3584 3186 3129 
Q 3597 2675 3597 1894 
z
M 3022 2063 
Q 3016 2534 2758 2815 
Q 2500 3097 2075 3097 
Q 1594 3097 1305 2825 
Q 1016 2553 972 2059 
L 3022 2063 
z
" transform="scale(0.015625)"/>
       <path id="DejaVuSans-61" d="M 2194 1759 
Q 1497 1759 1228 1600 
Q 959 1441 959 1056 
Q 959 750 1161 570 
Q 1363 391 1709 391 
Q 2188 391 2477 730 
Q 2766 1069 2766 1631 
L 2766 1759 
L 2194 1759 
z
M 3341 1997 
L 3341 0 
L 2766 0 
L 2766 531 
Q 2569 213 2275 61 
Q 1981 -91 1556 -91 
Q 1019 -91 701 211 
Q 384 513 384 1019 
Q 384 1609 779 1909 
Q 1175 2209 1959 2209 
L 2766 2209 
L 2766 2266 
Q 2766 2663 2505 2880 
Q 2244 3097 1772 3097 
Q 1472 3097 1187 3025 
Q 903 2953 641 2809 
L 641 3341 
Q 956 3463 1253 3523 
Q 1550 3584 1831 3584 
Q 2591 3584 2966 3190 
Q 3341 2797 3341 1997 
z
" transform="scale(0.015625)"/>
       <path id="DejaVuSans-6c" d="M 603 4863 
L 1178 4863 
L 1178 0 
L 603 0 
L 603 4863 
z
" transform="scale(0.015625)"/>
       <path id="DejaVuSans-20" transform="scale(0.015625)"/>
       <path id="DejaVuSans-55" d="M 556 4666 
L 1191 4666 
L 1191 1831 
Q 1191 1081 1462 751 
Q 1734 422 2344 422 
Q 2950 422 3222 751 
Q 3494 1081 3494 1831 
L 3494 4666 
L 4128 4666 
L 4128 1753 
Q 4128 841 3676 375 
Q 3225 -91 2344 -91 
Q 1459 -91 1007 375 
Q 556 841 556 1753 
L 556 4666 
z
" transform="scale(0.015625)"/>
       <path id="DejaVuSans-53" d="M 3425 4513 
L 3425 3897 
Q 3066 4069 2747 4153 
Q 2428 4238 2131 4238 
Q 1616 4238 1336 4038 
Q 1056 3838 1056 3469 
Q 1056 3159 1242 3001 
Q 1428 2844 1947 2747 
L 2328 2669 
Q 3034 2534 3370 2195 
Q 3706 1856 3706 1288 
Q 3706 609 3251 259 
Q 2797 -91 1919 -91 
Q 1588 -91 1214 -16 
Q 841 59 441 206 
L 441 856 
Q 825 641 1194 531 
Q 1563 422 1919 422 
Q 2459 422 2753 634 
Q 3047 847 3047 1241 
Q 3047 1584 2836 1778 
Q 2625 1972 2144 2069 
L 1759 2144 
Q 1053 2284 737 2584 
Q 422 2884 422 3419 
Q 422 4038 858 4394 
Q 1294 4750 2059 4750 
Q 2388 4750 2728 4690 
Q 3069 4631 3425 4513 
z
" transform="scale(0.015625)"/>
       <path id="DejaVuSans-47" d="M 3809 666 
L 3809 1919 
L 2778 1919 
L 2778 2438 
L 4434 2438 
L 4434 434 
Q 4069 175 3628 42 
Q 3188 -91 2688 -91 
Q 1594 -91 976 548 
Q 359 1188 359 2328 
Q 359 3472 976 4111 
Q 1594 4750 2688 4750 
Q 3144 4750 3555 4637 
Q 3966 4525 4313 4306 
L 4313 3634 
Q 3963 3931 3569 4081 
Q 3175 4231 2741 4231 
Q 1884 4231 1454 3753 
Q 1025 3275 1025 2328 
Q 1025 1384 1454 906 
Q 1884 428 2741 428 
Q 3075 428 3337 486 
Q 3600 544 3809 666 
z
" transform="scale(0.015625)"/>
       <path id="DejaVuSans-44" d="M 1259 4147 
L 1259 519 
L 2022 519 
Q 2988 519 3436 956 
Q 3884 1394 3884 2338 
Q 3884 3275 3436 3711 
Q 2988 4147 2022 4147 
L 1259 4147 
z
M 628 4666 
L 1925 4666 
Q 3281 4666 3915 4102 
Q 4550 3538 4550 2338 
Q 4550 1131 3912 565 
Q 3275 0 1925 0 
L 628 0 
L 628 4666 
z
" transform="scale(0.015625)"/>
       <path id="DejaVuSans-50" d="M 1259 4147 
L 1259 2394 
L 2053 2394 
Q 2494 2394 2734 2622 
Q 2975 2850 2975 3272 
Q 2975 3691 2734 3919 
Q 2494 4147 2053 4147 
L 1259 4147 
z
M 628 4666 
L 2053 4666 
Q 2838 4666 3239 4311 
Q 3641 3956 3641 3272 
Q 3641 2581 3239 2228 
Q 2838 1875 2053 1875 
L 1259 1875 
L 1259 0 
L 628 0 
L 628 4666 
z
" transform="scale(0.015625)"/>
       <path id="DejaVuSans-70" d="M 1159 525 
L 1159 -1331 
L 581 -1331 
L 581 3500 
L 1159 3500 
L 1159 2969 
Q 1341 3281 1617 3432 
Q 1894 3584 2278 3584 
Q 2916 3584 3314 3078 
Q 3713 2572 3713 1747 
Q 3713 922 3314 415 
Q 2916 -91 2278 -91 
Q 1894 -91 1617 61 
Q 1341 213 1159 525 
z
M 3116 1747 
Q 3116 2381 2855 2742 
Q 2594 3103 2138 3103 
Q 1681 3103 1420 2742 
Q 1159 2381 1159 1747 
Q 1159 1113 1420 752 
Q 1681 391 2138 391 
Q 2594 391 2855 752 
Q 3116 1113 3116 1747 
z
" transform="scale(0.015625)"/>
       <path id="DejaVuSans-72" d="M 2631 2963 
Q 2534 3019 2420 3045 
Q 2306 3072 2169 3072 
Q 1681 3072 1420 2755 
Q 1159 2438 1159 1844 
L 1159 0 
L 581 0 
L 581 3500 
L 1159 3500 
L 1159 2956 
Q 1341 3275 1631 3429 
Q 1922 3584 2338 3584 
Q 2397 3584 2469 3576 
Q 2541 3569 2628 3553 
L 2631 2963 
z
" transform="scale(0.015625)"/>
       <path id="DejaVuSans-63" d="M 3122 3366 
L 3122 2828 
Q 2878 2963 2633 3030 
Q 2388 3097 2138 3097 
Q 1578 3097 1268 2742 
Q 959 2388 959 1747 
Q 959 1106 1268 751 
Q 1578 397 2138 397 
Q 2388 397 2633 464 
Q 2878 531 3122 666 
L 3122 134 
Q 2881 22 2623 -34 
Q 2366 -91 2075 -91 
Q 1284 -91 818 406 
Q 353 903 353 1747 
Q 353 2603 823 3093 
Q 1294 3584 2113 3584 
Q 2378 3584 2631 3529 
Q 2884 3475 3122 3366 
z
" transform="scale(0.015625)"/>
       <path id="DejaVuSans-69" d="M 603 3500 
L 1178 3500 
L 1178 0 
L 603 0 
L 603 3500 
z
M 603 4863 
L 1178 4863 
L 1178 4134 
L 603 4134 
L 603 4863 
z
" transform="scale(0.015625)"/>
       <path id="DejaVuSans-74" d="M 1172 4494 
L 1172 3500 
L 2356 3500 
L 2356 3053 
L 1172 3053 
L 1172 1153 
Q 1172 725 1289 603 
Q 1406 481 1766 481 
L 2356 481 
L 2356 0 
L 1766 0 
Q 1100 0 847 248 
Q 594 497 594 1153 
L 594 3053 
L 172 3053 
L 172 3500 
L 594 3500 
L 594 4494 
L 1172 4494 
z
" transform="scale(0.015625)"/>
      </defs>
      <use xlink:href="#DejaVuSans-52"/>
      <use xlink:href="#DejaVuSans-65" x="64.982422"/>
      <use xlink:href="#DejaVuSans-61" x="126.505859"/>
      <use xlink:href="#DejaVuSans-6c" x="187.785156"/>
      <use xlink:href="#DejaVuSans-20" x="215.568359"/>
      <use xlink:href="#DejaVuSans-55" x="247.355469"/>
      <use xlink:href="#DejaVuSans-53" x="320.548828"/>
      <use xlink:href="#DejaVuSans-20" x="384.025391"/>
      <use xlink:href="#DejaVuSans-47" x="415.8125"/>
      <use xlink:href="#DejaVuSans-44" x="493.302734"/>
      <use xlink:href="#DejaVuSans-50" x="570.304688"/>
      <use xlink:href="#DejaVuSans-20" x="630.607422"/>
      <use xlink:href="#DejaVuSans-70" x="662.394531"/>
      <use xlink:href="#DejaVuSans-65" x="725.871094"/>
      <use xlink:href="#DejaVuSans-72" x="787.394531"/>
      <use xlink:href="#DejaVuSans-20" x="828.507812"/>
      <use xlink:href="#DejaVuSans-63" x="860.294922"/>
      <use xlink:href="#DejaVuSans-61" x="915.275391"/>
      <use xlink:href="#DejaVuSans-70" x="976.554688"/>
      <use xlink:href="#DejaVuSans-69" x="1040.03125"/>
      <use xlink:href="#DejaVuSans-74" x="1067.814453"/>
      <use xlink:href="#DejaVuSans-61" x="1107.023438"/>
     </g>
    </g>
   </g>
   <g id="line2d_14">
    <path d="M -1 330.770446 
L -0.869199 330.156503 
L 0.624949 324.640915 
L 2.135698 317.637202 
L 3.663049 314.637157 
L 5.1904 312.685482 
L 6.684548 309.937423 
L 8.195298 306.651127 
L 9.722649 307.189264 
L 11.25 305.816782 
L 12.760749 306.185865 
L 14.271499 305.590893 
L 15.79885 299.825368 
L 17.326201 296.762133 
L 18.820349 295.932412 
L 20.331099 298.053058 
L 21.85845 302.196593 
L 23.385801 304.087271 
L 24.879949 304.701614 
L 26.390698 303.321884 
L 27.918049 300.299772 
L 29.4454 295.309458 
L 30.939548 292.780257 
L 32.450298 290.933783 
L 33.977649 290.701357 
L 35.505 292.367272 
L 37.015749 291.499331 
L 38.526499 292.657392 
L 40.05385 290.292474 
L 41.581201 289.895411 
L 43.075349 291.199732 
L 44.586099 290.104878 
L 46.11345 293.216455 
L 47.640801 299.467388 
L 49.134949 298.902803 
L 52.173049 291.188644 
L 53.7004 288.139801 
L 55.194548 284.307373 
L 56.705298 285.048853 
L 58.232649 285.372062 
L 59.76 281.971332 
L 61.270749 284.339556 
L 62.781499 284.361015 
L 64.30885 287.877733 
L 65.836201 287.169618 
L 67.330349 284.46834 
L 71.895801 275.291131 
L 73.389949 274.143834 
L 74.900698 272.414401 
L 76.428049 272.566421 
L 79.449548 269.337195 
L 80.960298 265.607528 
L 82.487649 265.0494 
L 84.015 261.356719 
L 85.525749 259.758575 
L 87.036499 257.285207 
L 88.56385 257.379432 
L 90.091201 252.97788 
L 91.585349 250.930286 
L 94.62345 242.988432 
L 96.150801 238.499107 
L 97.644949 238.335638 
L 102.2104 234.830612 
L 103.704548 235.21998 
L 105.215298 233.843533 
L 106.742649 232.861116 
L 108.27 229.108785 
L 109.780749 226.135432 
L 111.291499 225.091804 
L 112.81885 224.833728 
L 114.346201 222.039679 
L 115.840349 221.888639 
L 117.351099 221.095494 
L 118.87845 222.724708 
L 120.405801 223.548129 
L 121.899949 223.900878 
L 123.410698 222.700773 
L 124.938049 225.665556 
L 126.4654 220.723758 
L 127.959548 220.202865 
L 129.470298 219.141445 
L 130.997649 219.290503 
L 132.525 216.004746 
L 134.035749 211.829085 
L 135.546499 210.410492 
L 137.07385 207.50557 
L 138.601201 202.870812 
L 140.095349 201.079947 
L 141.606099 202.696827 
L 143.13345 201.238193 
L 144.660801 203.459087 
L 146.154949 203.408183 
L 147.665698 205.917257 
L 149.193049 207.260993 
L 150.7204 210.230089 
L 152.214548 209.248138 
L 153.725298 206.329791 
L 155.252649 204.085501 
L 156.78 199.904078 
L 158.290749 198.827262 
L 159.801499 198.223551 
L 161.32885 197.275361 
L 162.856201 195.307908 
L 164.350349 191.805834 
L 165.861099 188.673106 
L 167.38845 189.263279 
L 168.915801 189.079942 
L 170.409949 181.718602 
L 171.920698 180.249758 
L 173.448049 178.07541 
L 174.9754 178.22997 
L 176.469548 178.552337 
L 177.980298 177.638115 
L 179.507649 177.766636 
L 181.035 177.69594 
L 182.545749 182.611492 
L 184.056499 183.4818 
L 185.58385 180.197723 
L 187.111201 176.587228 
L 188.605349 178.603962 
L 190.116099 176.695916 
L 191.64345 179.515965 
L 193.170801 183.217686 
L 194.664949 182.729956 
L 196.175698 184.057409 
L 197.703049 184.488504 
L 199.2304 182.184265 
L 200.724548 177.933832 
L 205.29 166.890459 
L 206.800749 163.748088 
L 208.311499 162.257159 
L 209.83885 161.061383 
L 211.366201 159.442313 
L 212.860349 158.057814 
L 214.371099 155.43737 
L 215.89845 154.417898 
L 217.425801 152.895145 
L 218.919949 152.399511 
L 220.430698 150.930953 
L 221.958049 150.315998 
L 223.4854 149.186741 
L 224.979548 147.390362 
L 226.490298 146.111144 
L 228.017649 143.080352 
L 229.545 142.423041 
L 231.055749 140.141354 
L 232.566499 139.466511 
L 234.09385 137.232715 
L 235.621201 135.54673 
L 237.115349 134.432022 
L 238.626099 133.468671 
L 240.15345 133.629787 
L 241.680801 131.838566 
L 243.174949 131.730345 
L 244.685698 132.328841 
L 246.213049 134.96508 
L 247.7404 136.583047 
L 249.234548 135.630705 
L 250.745298 135.321213 
L 252.272649 135.305488 
L 253.8 133.442696 
L 255.310749 131.895276 
L 256.821499 130.615346 
L 258.34885 129.175234 
L 259.876201 129.440038 
L 261.370349 128.865027 
L 262.881099 128.585728 
L 264.40845 126.43504 
L 265.935801 124.983572 
L 267.429949 122.795568 
L 268.940698 122.253374 
L 270.468049 120.518025 
L 271.9954 120.342357 
L 273.489548 120.313093 
L 275.000298 119.218669 
L 276.527649 118.448733 
L 278.055 117.412136 
L 279.565749 114.56056 
L 281.076499 113.382664 
L 282.60385 111.897362 
L 284.131201 111.107338 
L 285.625349 108.266664 
L 287.136099 106.374438 
L 288.66345 105.255474 
L 290.190801 103.709772 
L 291.684949 102.363285 
L 293.195698 100.4085 
L 294.723049 97.713669 
L 296.2504 96.296655 
L 297.744548 95.135381 
L 299.255298 93.054439 
L 300.782649 90.296355 
L 302.31 90.068508 
L 303.820749 86.82983 
L 305.331499 87.183044 
L 306.85885 86.493794 
L 308.386201 87.653542 
L 309.880349 86.846438 
L 311.391099 88.225399 
L 312.91845 88.187784 
L 314.445801 86.904578 
L 315.939949 86.096231 
L 317.450698 85.782032 
L 318.978049 86.030045 
L 320.5054 85.369334 
L 321.999548 83.996824 
L 323.510298 81.084718 
L 325.037649 79.179055 
L 326.565 78.408093 
L 328.075749 77.254999 
L 331.11385 74.212267 
L 332.641201 72.356632 
L 334.135349 71.780365 
L 335.646099 70.682537 
L 337.17345 70.05342 
L 338.700801 67.72997 
L 340.194949 67.661801 
L 341.705698 67.885325 
L 343.233049 66.638181 
L 344.7604 66.472458 
L 346.254548 65.668321 
L 349.292649 64.236855 
L 350.82 65.58208 
L 352.330749 64.803779 
L 353.841499 66.404701 
L 355.36885 71.498615 
L 356.896201 74.294343 
L 358.390349 75.093344 
L 359.901099 74.842346 
L 361.42845 73.086018 
L 362.955801 72.496104 
L 364.449949 70.886257 
L 365.960698 69.731925 
L 367.488049 69.090421 
L 369.0154 69.961514 
L 370.509548 68.934163 
L 372.020298 69.422381 
L 373.547649 67.5331 
L 375.075 66.163964 
L 376.585749 65.608324 
L 379.62385 65.93477 
L 381.151201 64.229406 
L 382.645349 64.024657 
L 385.68345 61.333336 
L 387.210801 62.427105 
L 388.704949 60.139351 
L 390.215698 58.075264 
L 391.743049 57.475874 
L 393.2704 55.970592 
L 394.764548 55.059793 
L 396.275298 54.668127 
L 397.802649 54.72505 
L 399.33 53.894087 
L 400.840749 53.600139 
L 402.351499 52.551691 
L 406.900349 50.268411 
L 408.411099 49.007975 
L 409.93845 47.026913 
L 411.465801 45.595112 
L 412.959949 44.769227 
L 414.470698 43.80138 
L 415.998049 43.811509 
L 417.5254 42.901876 
L 419.019548 41.421305 
L 420.530298 39.381914 
L 422.057649 38.35322 
L 423.585 41.41463 
L 425.095749 58.629247 
L 426.606499 43.19118 
L 428.13385 41.154451 
L 429.661201 38.461784 
L 431.155349 35.426991 
L 432.666099 33.946964 
L 434.19345 30.634304 
L 435.720801 31.791091 
L 437.214949 32.292027 
L 440.253049 30.156309 
L 443.274548 28.399411 
L 444.785298 26.237911 
L 446.312649 24.806206 
L 447.84 24.224593 
L 447.84 24.224593 
" clip-path="url(#p3d9712245a)" style="fill: none; stroke: #1a1a1a; stroke-width: 1.5; stroke-linecap: round"/>
   </g>
   <g id="line2d_15">
    <path d="M -1 330.770446 
L -0.869199 330.156503 
L 0.624949 324.640915 
L 2.135698 317.637202 
L 3.663049 314.637157 
L 5.1904 312.685482 
L 6.684548 309.937423 
L 8.195298 306.651127 
L 9.722649 307.189264 
L 11.25 305.816782 
L 12.760749 306.185865 
L 14.271499 305.590893 
L 15.79885 299.825368 
L 17.326201 296.762133 
L 18.820349 295.932412 
L 20.331099 298.053058 
L 21.85845 302.196593 
L 23.385801 304.087271 
L 24.879949 304.701614 
L 26.390698 303.321884 
L 27.918049 300.299772 
L 29.4454 295.309458 
L 30.939548 292.780257 
L 32.450298 290.933783 
L 33.977649 290.701357 
L 35.505 292.367272 
L 37.015749 291.499331 
L 38.526499 292.657392 
L 40.05385 290.292474 
L 41.581201 289.895411 
L 43.075349 291.199732 
L 44.586099 290.104878 
L 46.11345 293.216455 
L 47.640801 299.467388 
L 49.134949 298.902803 
L 52.173049 291.188644 
L 53.7004 288.139801 
L 55.194548 284.307373 
L 56.705298 285.048853 
L 58.232649 285.372062 
L 59.76 281.971332 
L 61.270749 284.339556 
L 62.781499 284.361015 
L 64.30885 287.877733 
L 65.836201 287.169618 
L 67.330349 284.46834 
L 71.895801 275.291131 
L 73.389949 274.143834 
L 74.900698 272.414401 
L 76.428049 272.566421 
L 79.449548 269.337195 
L 80.960298 265.607528 
L 82.487649 265.0494 
L 84.015 261.356719 
L 85.525749 259.758575 
L 87.036499 257.285207 
L 88.56385 257.379432 
L 90.091201 252.97788 
L 91.585349 250.930286 
L 94.62345 242.988432 
L 96.150801 238.499107 
L 97.644949 238.335638 
L 102.2104 234.830612 
L 103.704548 235.21998 
L 105.215298 233.843533 
L 106.742649 232.861116 
L 108.27 229.108785 
L 109.780749 226.135432 
L 111.291499 225.091804 
L 112.81885 224.833728 
L 114.346201 222.039679 
L 115.840349 221.888639 
L 117.351099 221.095494 
L 118.87845 222.724708 
L 120.405801 223.548129 
L 121.899949 223.900878 
L 123.410698 222.700773 
L 124.938049 225.665556 
L 126.4654 220.723758 
L 127.959548 220.202865 
L 129.470298 219.141445 
L 130.997649 219.290503 
L 132.525 216.004746 
L 134.035749 211.829085 
L 135.546499 210.410492 
L 137.07385 207.50557 
L 138.601201 202.870812 
L 140.095349 201.079947 
L 141.606099 202.696827 
L 143.13345 201.238193 
L 144.660801 203.459087 
L 146.154949 203.408183 
L 147.665698 205.917257 
L 149.193049 207.260993 
L 150.7204 210.230089 
L 152.214548 209.248138 
L 153.725298 206.329791 
L 155.252649 204.085501 
L 156.78 199.904078 
L 158.290749 198.827262 
L 159.801499 198.223551 
L 161.32885 197.275361 
L 162.856201 195.307908 
L 164.350349 191.805834 
L 165.861099 188.673106 
L 167.38845 189.263279 
L 168.915801 189.079942 
L 170.409949 181.718602 
L 171.920698 180.249758 
L 173.448049 178.07541 
L 174.9754 178.22997 
L 176.469548 178.552337 
L 177.980298 177.638115 
L 179.507649 177.766636 
L 181.035 177.69594 
L 182.545749 182.611492 
L 184.056499 183.4818 
L 185.58385 180.197723 
L 187.111201 176.587228 
L 188.605349 178.603962 
L 190.116099 176.695916 
L 191.64345 179.515965 
L 193.170801 183.217686 
L 194.664949 182.729956 
L 196.175698 184.057409 
L 197.703049 184.488504 
L 199.2304 182.184265 
L 200.724548 177.933832 
L 205.29 166.890459 
L 206.800749 163.748088 
L 208.311499 162.257159 
L 209.83885 161.061383 
L 211.366201 159.442313 
L 212.860349 158.057814 
L 214.371099 155.43737 
L 215.89845 154.417898 
L 217.425801 152.895145 
L 218.919949 152.399511 
L 220.430698 150.930953 
L 221.958049 150.315998 
L 223.4854 149.186741 
L 224.979548 147.390362 
L 226.490298 146.111144 
L 228.017649 143.080352 
L 229.545 142.423041 
L 231.055749 140.141354 
L 232.566499 139.466511 
L 234.09385 137.232715 
L 235.621201 135.54673 
L 237.115349 134.432022 
L 238.626099 133.468671 
L 240.15345 133.629787 
L 241.680801 131.838566 
L 243.174949 131.730345 
L 244.685698 132.328841 
L 246.213049 134.96508 
L 247.7404 136.583047 
L 249.234548 135.630705 
L 250.745298 135.321213 
L 252.272649 135.305488 
L 253.8 133.442696 
L 255.310749 131.895276 
L 256.821499 130.615346 
L 258.34885 129.175234 
L 259.876201 129.440038 
L 261.370349 128.865027 
L 262.881099 128.585728 
L 264.40845 126.43504 
L 265.935801 124.983572 
L 267.429949 122.795568 
L 268.940698 122.253374 
L 270.468049 120.518025 
L 271.9954 120.342357 
L 273.489548 120.313093 
L 275.000298 119.218669 
L 276.527649 118.448733 
L 278.055 117.412136 
L 279.565749 114.56056 
L 281.076499 113.382664 
L 282.60385 111.897362 
L 284.131201 111.107338 
L 285.625349 108.266664 
L 287.136099 106.374438 
L 288.66345 105.255474 
L 290.190801 103.709772 
L 291.684949 102.363285 
L 293.195698 100.4085 
L 294.723049 97.713669 
L 296.2504 96.296655 
L 297.744548 95.135381 
L 299.255298 93.054439 
L 300.782649 90.296355 
L 302.31 90.068508 
L 303.820749 86.82983 
L 305.331499 87.183044 
L 306.85885 86.493794 
L 308.386201 87.653542 
L 309.880349 86.846438 
L 311.391099 88.225399 
L 312.91845 88.187784 
L 314.445801 86.904578 
L 315.939949 86.096231 
L 317.450698 85.782032 
L 318.978049 86.030045 
L 320.5054 85.369334 
L 321.999548 83.996824 
L 323.510298 81.084718 
L 325.037649 79.179055 
L 326.565 78.408093 
L 328.075749 77.254999 
L 331.11385 74.212267 
L 332.641201 72.356632 
L 334.135349 71.780365 
L 335.646099 70.682537 
L 337.17345 70.05342 
L 338.700801 67.72997 
L 340.194949 67.661801 
L 341.705698 67.885325 
L 343.233049 66.638181 
L 344.7604 66.472458 
L 346.254548 65.668321 
L 349.292649 64.236855 
L 350.82 65.58208 
L 352.330749 64.803779 
L 353.841499 66.404701 
L 355.36885 71.498615 
L 356.896201 74.294343 
L 358.390349 75.093344 
L 359.901099 74.842346 
L 361.42845 73.086018 
L 362.955801 72.496104 
L 364.449949 70.886257 
L 365.960698 69.731925 
L 367.488049 69.090421 
L 369.0154 69.961514 
L 370.509548 68.934163 
L 372.020298 69.422381 
L 373.547649 67.5331 
L 375.075 66.163964 
L 376.585749 65.608324 
L 379.62385 65.93477 
L 381.151201 64.229406 
L 382.645349 64.024657 
L 385.68345 61.333336 
L 387.210801 62.427105 
L 388.704949 60.139351 
L 390.215698 58.075264 
L 391.743049 57.475874 
L 393.2704 55.970592 
L 394.764548 55.059793 
L 396.275298 54.668127 
L 397.802649 54.72505 
L 399.33 53.894087 
L 400.840749 53.600139 
L 402.351499 52.551691 
L 406.900349 50.268411 
L 408.411099 49.007975 
L 409.93845 47.026913 
L 411.465801 45.595112 
L 412.959949 44.769227 
L 414.470698 43.80138 
L 415.998049 43.811509 
L 417.5254 42.901876 
L 419.019548 41.421305 
L 420.530298 39.381914 
L 422.057649 38.35322 
L 423.585 41.41463 
L 425.095749 58.629247 
L 426.606499 43.19118 
L 428.13385 41.154451 
L 429.661201 38.461784 
L 431.155349 35.426991 
L 432.666099 33.946964 
L 434.19345 30.634304 
L 435.720801 31.791091 
L 437.214949 32.292027 
L 440.253049 30.156309 
L 443.274548 28.399411 
L 444.785298 26.237911 
L 446.312649 24.806206 
L 447.84 24.224593 
L 447.84 24.224593 
" clip-path="url(#p3d9712245a)" style="fill: none; stroke: #1a1a1a; stroke-width: 1.5; stroke-linecap: round"/>
   </g>
   <g id="line2d_16">
    <path d="M 346.254548 65.668321 
L 347.765298 64.904775 
L 349.292649 64.135677 
L 350.82 63.369411 
L 352.330749 62.614241 
L 353.841499 61.861801 
L 355.36885 61.10385 
L 356.896201 60.348649 
L 358.390349 59.612509 
L 359.901099 58.870829 
L 361.42845 58.123677 
L 362.955801 57.379198 
L 364.449949 56.653472 
L 365.960698 55.922247 
L 367.488049 55.185591 
L 369.0154 54.451533 
L 370.509548 53.735931 
L 372.020298 53.014871 
L 373.547649 52.288419 
" clip-path="url(#p3d9712245a)" style="fill: none; stroke-dasharray: 3.7,1.6; stroke-dashoffset: 0; stroke: #000000"/>
   </g>
   <g id="line2d_17">
    <path d="M 240.15345 133.629787 
L 241.680801 132.430307 
L 243.174949 131.263557 
L 244.685698 130.090458 
L 246.213049 128.911154 
L 247.7404 127.738497 
L 249.234548 126.597693 
L 250.745298 125.450538 
L 252.272649 124.297172 
L 253.8 123.150164 
L 255.310749 122.021811 
L 256.821499 120.899544 
L 258.34885 119.771066 
L 259.876201 118.648676 
L 261.370349 117.556513 
L 262.881099 116.458014 
L 264.40845 115.353308 
L 265.935801 114.254438 
L 267.429949 113.185042 
" clip-path="url(#p3d9712245a)" style="fill: none; stroke-dasharray: 3.7,1.6; stroke-dashoffset: 0; stroke: #000000"/>
   </g>
   <g id="line2d_18">
    <path d="M 173.448049 178.07541 
L 174.9754 176.217251 
L 176.469548 174.415405 
L 177.980298 172.609268 
L 179.507649 170.799084 
L 181.035 169.004514 
L 182.545749 167.244549 
L 184.056499 165.499347 
L 185.58385 163.749725 
L 187.111201 162.014693 
L 188.605349 160.331267 
L 190.116099 158.642873 
L 191.64345 156.949741 
L 193.170801 155.270276 
L 194.664949 153.640337 
L 196.175698 152.005169 
L 197.703049 150.364994 
L 199.2304 148.737648 
L 200.724548 147.157902 
" clip-path="url(#p3d9712245a)" style="fill: none; stroke-dasharray: 3.7,1.6; stroke-dashoffset: 0; stroke: #000000"/>
   </g>
   <g id="line2d_19">
    <path d="M 96.150801 238.499107 
L 97.644949 235.808815 
L 99.155698 233.123547 
L 100.683049 230.443551 
L 102.2104 227.797638 
L 103.704548 225.241403 
L 105.215298 222.688309 
L 106.742649 220.138618 
L 108.27 217.619797 
L 109.780749 215.157998 
L 111.291499 212.724989 
L 112.81885 210.29383 
L 114.346201 207.890752 
L 115.840349 205.566472 
L 117.351099 203.242473 
L 118.87845 200.919032 
L 120.405801 198.621252 
L 121.899949 196.397716 
L 123.410698 194.173378 
" clip-path="url(#p3d9712245a)" style="fill: none; stroke-dasharray: 3.7,1.6; stroke-dashoffset: 0; stroke: #000000"/>
   </g>
   <g id="line2d_20">
    <path d="M 346.254548 65.668321 
L 347.765298 64.904775 
L 349.292649 64.135677 
L 350.82 63.369411 
L 352.330749 62.614241 
L 353.841499 61.861801 
L 355.36885 61.10385 
L 356.896201 60.348649 
L 358.390349 59.612509 
L 359.901099 58.870829 
L 361.42845 58.123677 
L 362.955801 57.379198 
L 364.449949 56.653472 
L 365.960698 55.922247 
L 367.488049 55.185591 
L 369.0154 54.451533 
L 370.509548 53.735931 
L 372.020298 53.014871 
L 373.547649 52.288419 
" clip-path="url(#p3d9712245a)" style="fill: none; stroke-dasharray: 3.7,1.6; stroke-dashoffset: 0; stroke: #000000"/>
   </g>
   <g id="line2d_21">
    <path d="M 240.15345 133.629787 
L 241.680801 132.430307 
L 243.174949 131.263557 
L 244.685698 130.090458 
L 246.213049 128.911154 
L 247.7404 127.738497 
L 249.234548 126.597693 
L 250.745298 125.450538 
L 252.272649 124.297172 
L 253.8 123.150164 
L 255.310749 122.021811 
L 256.821499 120.899544 
L 258.34885 119.771066 
L 259.876201 118.648676 
L 261.370349 117.556513 
L 262.881099 116.458014 
L 264.40845 115.353308 
L 265.935801 114.254438 
L 267.429949 113.185042 
" clip-path="url(#p3d9712245a)" style="fill: none; stroke-dasharray: 3.7,1.6; stroke-dashoffset: 0; stroke: #000000"/>
   </g>
   <g id="line2d_22">
    <path d="M 173.448049 178.07541 
L 174.9754 176.217251 
L 176.469548 174.415405 
L 177.980298 172.609268 
L 179.507649 170.799084 
L 181.035 169.004514 
L 182.545749 167.244549 
L 184.056499 165.499347 
L 185.58385 163.749725 
L 187.111201 162.014693 
L 188.605349 160.331267 
L 190.116099 158.642873 
L 191.64345 156.949741 
L 193.170801 155.270276 
L 194.664949 153.640337 
L 196.175698 152.005169 
L 197.703049 150.364994 
L 199.2304 148.737648 
L 200.724548 147.157902 
" clip-path="url(#p3d9712245a)" style="fill: none; stroke-dasharray: 3.7,1.6; stroke-dashoffset: 0; stroke: #000000"/>
   </g>
   <g id="line2d_23">
    <path d="M 96.150801 238.499107 
L 97.644949 235.808815 
L 99.155698 233.123547 
L 100.683049 230.443551 
L 102.2104 227.797638 
L 103.704548 225.241403 
L 105.215298 222.688309 
L 106.742649 220.138618 
L 108.27 217.619797 
L 109.780749 215.157998 
L 111.291499 212.724989 
L 112.81885 210.29383 
L 114.346201 207.890752 
L 115.840349 205.566472 
L 117.351099 203.242473 
L 118.87845 200.919032 
L 120.405801 198.621252 
L 121.899949 196.397716 
L 123.410698 194.173378 
" clip-path="url(#p3d9712245a)" style="fill: none; stroke-dasharray: 3.7,1.6; stroke-dashoffset: 0; stroke: #000000"/>
   </g>
   <g id="patch_3">
    <path d="M 59.76 299.836926 
L 59.76 17.28 
" style="fill: none; stroke: #ffffff; stroke-width: 1.25; stroke-linejoin: miter; stroke-linecap: square"/>
   </g>
   <g id="patch_4">
    <path d="M 447.84 299.836926 
L 447.84 17.28 
" style="fill: none; stroke: #ffffff; stroke-width: 1.25; stroke-linejoin: miter; stroke-linecap: square"/>
   </g>
   <g id="patch_5">
    <path d="M 59.76 299.836926 
L 447.84 299.836926 
" style="fill: none; stroke: #ffffff; stroke-width: 1.25; stroke-linejoin: miter; stroke-linecap: square"/>
   </g>
   <g id="patch_6">
    <path d="M 59.76 17.28 
L 447.84 17.28 
" style="fill: none; stroke: #ffffff; stroke-width: 1.25; stroke-linejoin: miter; stroke-linecap: square"/>
   </g>
  </g>
 </g>
 <defs>
  <clipPath id="p3d9712245a">
   <rect x="59.76" y="17.28" width="388.08" height="282.556926"/>
  </clipPath>
 </defs>
</svg>
