<?xml version="1.0" encoding="utf-8" standalone="no"?>
<!DOCTYPE svg PUBLIC "-//W3C//DTD SVG 1.1//EN"
  "http://www.w3.org/Graphics/SVG/1.1/DTD/svg11.dtd">
<svg xmlns:xlink="http://www.w3.org/1999/xlink" width="460.8pt" height="345.6pt" viewBox="0 0 460.8 345.6" xmlns="http://www.w3.org/2000/svg" version="1.1">
 <metadata>
  <rdf:RDF xmlns:dc="http://purl.org/dc/elements/1.1/" xmlns:cc="http://creativecommons.org/ns#" xmlns:rdf="http://www.w3.org/1999/02/22-rdf-syntax-ns#">
   <cc:Work>
    <dc:type rdf:resource="http://purl.org/dc/dcmitype/StillImage"/>
    <dc:date>2024-05-05T01:44:12.024158</dc:date>
    <dc:format>image/svg+xml</dc:format>
    <dc:creator>
     <cc:Agent>
      <dc:title>Matplotlib v3.8.3, https://matplotlib.org/</dc:title>
     </cc:Agent>
    </dc:creator>
   </cc:Work>
  </rdf:RDF>
 </metadata>
 <defs>
  <style type="text/css">*{stroke-linejoin: round; stroke-linecap: butt}</style>
 </defs>
 <g id="figure_1">
  <g id="patch_1">
   <path d="M 0 345.6 
L 460.8 345.6 
L 460.8 0 
L 0 0 
L 0 345.6 
z
" style="fill: none"/>
  </g>
  <g id="axes_1">
   <g id="patch_2">
    <path d="M 42.8 299.836926 
L 447.84 299.836926 
L 447.84 17.28 
L 42.8 17.28 
L 42.8 299.836926 
z
" style="fill: none"/>
   </g>
   <g id="matplotlib.axis_1">
    <g id="xtick_1">
     <g id="line2d_1">
      <path d="M 42.8 299.836926 
L 42.8 17.28 
" clip-path="url(#pc3393cd58f)" style="fill: none; stroke: #ffffff; stroke-linecap: round"/>
     </g>
     <g id="text_1">
      <!-- 1960 -->
      <g style="fill: #262626" transform="translate(17.411791 330.57291) rotate(-30) scale(0.11 -0.11)">
       <defs>
        <path id="DejaVuSans-31" d="M 794 531 
L 1825 531 
L 1825 4091 
L 703 3866 
L 703 4441 
L 1819 4666 
L 2450 4666 
L 2450 531 
L 3481 531 
L 3481 0 
L 794 0 
L 794 531 
z
" transform="scale(0.015625)"/>
        <path id="DejaVuSans-39" d="M 703 97 
L 703 672 
Q 941 559 1184 500 
Q 1428 441 1663 441 
Q 2288 441 2617 861 
Q 2947 1281 2994 2138 
Q 2813 1869 2534 1725 
Q 2256 1581 1919 1581 
Q 1219 1581 811 2004 
Q 403 2428 403 3163 
Q 403 3881 828 4315 
Q 1253 4750 1959 4750 
Q 2769 4750 3195 4129 
Q 3622 3509 3622 2328 
Q 3622 1225 3098 567 
Q 2575 -91 1691 -91 
Q 1453 -91 1209 -44 
Q 966 3 703 97 
z
M 1959 2075 
Q 2384 2075 2632 2365 
Q 2881 2656 2881 3163 
Q 2881 3666 2632 3958 
Q 2384 4250 1959 4250 
Q 1534 4250 1286 3958 
Q 1038 3666 1038 3163 
Q 1038 2656 1286 2365 
Q 1534 2075 1959 2075 
z
" transform="scale(0.015625)"/>
        <path id="DejaVuSans-36" d="M 2113 2584 
Q 1688 2584 1439 2293 
Q 1191 2003 1191 1497 
Q 1191 994 1439 701 
Q 1688 409 2113 409 
Q 2538 409 2786 701 
Q 3034 994 3034 1497 
Q 3034 2003 2786 2293 
Q 2538 2584 2113 2584 
z
M 3366 4563 
L 3366 3988 
Q 3128 4100 2886 4159 
Q 2644 4219 2406 4219 
Q 1781 4219 1451 3797 
Q 1122 3375 1075 2522 
Q 1259 2794 1537 2939 
Q 1816 3084 2150 3084 
Q 2853 3084 3261 2657 
Q 3669 2231 3669 1497 
Q 3669 778 3244 343 
Q 2819 -91 2113 -91 
Q 1303 -91 875 529 
Q 447 1150 447 2328 
Q 447 3434 972 4092 
Q 1497 4750 2381 4750 
Q 2619 4750 2861 4703 
Q 3103 4656 3366 4563 
z
" transform="scale(0.015625)"/>
        <path id="DejaVuSans-30" d="M 2034 4250 
Q 1547 4250 1301 3770 
Q 1056 3291 1056 2328 
Q 1056 1369 1301 889 
Q 1547 409 2034 409 
Q 2525 409 2770 889 
Q 3016 1369 3016 2328 
Q 3016 3291 2770 3770 
Q 2525 4250 2034 4250 
z
M 2034 4750 
Q 2819 4750 3233 4129 
Q 3647 3509 3647 2328 
Q 3647 1150 3233 529 
Q 2819 -91 2034 -91 
Q 1250 -91 836 529 
Q 422 1150 422 2328 
Q 422 3509 836 4129 
Q 1250 4750 2034 4750 
z
" transform="scale(0.015625)"/>
       </defs>
       <use xlink:href="#DejaVuSans-31"/>
       <use xlink:href="#DejaVuSans-39" x="63.623047"/>
       <use xlink:href="#DejaVuSans-36" x="127.246094"/>
       <use xlink:href="#DejaVuSans-30" x="190.869141"/>
      </g>
     </g>
    </g>
    <g id="xtick_2">
     <g id="line2d_2">
      <path d="M 106.096164 299.836926 
L 106.096164 17.28 
" clip-path="url(#pc3393cd58f)" style="fill: none; stroke: #ffffff; stroke-linecap: round"/>
     </g>
     <g id="text_2">
      <!-- 1970 -->
      <g style="fill: #262626" transform="translate(80.707954 330.57291) rotate(-30) scale(0.11 -0.11)">
       <defs>
        <path id="DejaVuSans-37" d="M 525 4666 
L 3525 4666 
L 3525 4397 
L 1831 0 
L 1172 0 
L 2766 4134 
L 525 4134 
L 525 4666 
z
" transform="scale(0.015625)"/>
       </defs>
       <use xlink:href="#DejaVuSans-31"/>
       <use xlink:href="#DejaVuSans-39" x="63.623047"/>
       <use xlink:href="#DejaVuSans-37" x="127.246094"/>
       <use xlink:href="#DejaVuSans-30" x="190.869141"/>
      </g>
     </g>
    </g>
    <g id="xtick_3">
     <g id="line2d_3">
      <path d="M 169.375 299.836926 
L 169.375 17.28 
" clip-path="url(#pc3393cd58f)" style="fill: none; stroke: #ffffff; stroke-linecap: round"/>
     </g>
     <g id="text_3">
      <!-- 1980 -->
      <g style="fill: #262626" transform="translate(143.986791 330.57291) rotate(-30) scale(0.11 -0.11)">
       <defs>
        <path id="DejaVuSans-38" d="M 2034 2216 
Q 1584 2216 1326 1975 
Q 1069 1734 1069 1313 
Q 1069 891 1326 650 
Q 1584 409 2034 409 
Q 2484 409 2743 651 
Q 3003 894 3003 1313 
Q 3003 1734 2745 1975 
Q 2488 2216 2034 2216 
z
M 1403 2484 
Q 997 2584 770 2862 
Q 544 3141 544 3541 
Q 544 4100 942 4425 
Q 1341 4750 2034 4750 
Q 2731 4750 3128 4425 
Q 3525 4100 3525 3541 
Q 3525 3141 3298 2862 
Q 3072 2584 2669 2484 
Q 3125 2378 3379 2068 
Q 3634 1759 3634 1313 
Q 3634 634 3220 271 
Q 2806 -91 2034 -91 
Q 1263 -91 848 271 
Q 434 634 434 1313 
Q 434 1759 690 2068 
Q 947 2378 1403 2484 
z
M 1172 3481 
Q 1172 3119 1398 2916 
Q 1625 2713 2034 2713 
Q 2441 2713 2670 2916 
Q 2900 3119 2900 3481 
Q 2900 3844 2670 4047 
Q 2441 4250 2034 4250 
Q 1625 4250 1398 4047 
Q 1172 3844 1172 3481 
z
" transform="scale(0.015625)"/>
       </defs>
       <use xlink:href="#DejaVuSans-31"/>
       <use xlink:href="#DejaVuSans-39" x="63.623047"/>
       <use xlink:href="#DejaVuSans-38" x="127.246094"/>
       <use xlink:href="#DejaVuSans-30" x="190.869141"/>
      </g>
     </g>
    </g>
    <g id="xtick_4">
     <g id="line2d_4">
      <path d="M 232.671164 299.836926 
L 232.671164 17.28 
" clip-path="url(#pc3393cd58f)" style="fill: none; stroke: #ffffff; stroke-linecap: round"/>
     </g>
     <g id="text_4">
      <!-- 1990 -->
      <g style="fill: #262626" transform="translate(207.282954 330.57291) rotate(-30) scale(0.11 -0.11)">
       <use xlink:href="#DejaVuSans-31"/>
       <use xlink:href="#DejaVuSans-39" x="63.623047"/>
       <use xlink:href="#DejaVuSans-39" x="127.246094"/>
       <use xlink:href="#DejaVuSans-30" x="190.869141"/>
      </g>
     </g>
    </g>
    <g id="xtick_5">
     <g id="line2d_5">
      <path d="M 295.95 299.836926 
L 295.95 17.28 
" clip-path="url(#pc3393cd58f)" style="fill: none; stroke: #ffffff; stroke-linecap: round"/>
     </g>
     <g id="text_5">
      <!-- 2000 -->
      <g style="fill: #262626" transform="translate(270.561791 330.57291) rotate(-30) scale(0.11 -0.11)">
       <defs>
        <path id="DejaVuSans-32" d="M 1228 531 
L 3431 531 
L 3431 0 
L 469 0 
L 469 531 
Q 828 903 1448 1529 
Q 2069 2156 2228 2338 
Q 2531 2678 2651 2914 
Q 2772 3150 2772 3378 
Q 2772 3750 2511 3984 
Q 2250 4219 1831 4219 
Q 1534 4219 1204 4116 
Q 875 4013 500 3803 
L 500 4441 
Q 881 4594 1212 4672 
Q 1544 4750 1819 4750 
Q 2544 4750 2975 4387 
Q 3406 4025 3406 3419 
Q 3406 3131 3298 2873 
Q 3191 2616 2906 2266 
Q 2828 2175 2409 1742 
Q 1991 1309 1228 531 
z
" transform="scale(0.015625)"/>
       </defs>
       <use xlink:href="#DejaVuSans-32"/>
       <use xlink:href="#DejaVuSans-30" x="63.623047"/>
       <use xlink:href="#DejaVuSans-30" x="127.246094"/>
       <use xlink:href="#DejaVuSans-30" x="190.869141"/>
      </g>
     </g>
    </g>
    <g id="xtick_6">
     <g id="line2d_6">
      <path d="M 359.246164 299.836926 
L 359.246164 17.28 
" clip-path="url(#pc3393cd58f)" style="fill: none; stroke: #ffffff; stroke-linecap: round"/>
     </g>
     <g id="text_6">
      <!-- 2010 -->
      <g style="fill: #262626" transform="translate(333.857954 330.57291) rotate(-30) scale(0.11 -0.11)">
       <use xlink:href="#DejaVuSans-32"/>
       <use xlink:href="#DejaVuSans-30" x="63.623047"/>
       <use xlink:href="#DejaVuSans-31" x="127.246094"/>
       <use xlink:href="#DejaVuSans-30" x="190.869141"/>
      </g>
     </g>
    </g>
    <g id="xtick_7">
     <g id="line2d_7">
      <path d="M 422.525 299.836926 
L 422.525 17.28 
" clip-path="url(#pc3393cd58f)" style="fill: none; stroke: #ffffff; stroke-linecap: round"/>
     </g>
     <g id="text_7">
      <!-- 2020 -->
      <g style="fill: #262626" transform="translate(397.136791 330.57291) rotate(-30) scale(0.11 -0.11)">
       <use xlink:href="#DejaVuSans-32"/>
       <use xlink:href="#DejaVuSans-30" x="63.623047"/>
       <use xlink:href="#DejaVuSans-32" x="127.246094"/>
       <use xlink:href="#DejaVuSans-30" x="190.869141"/>
      </g>
     </g>
    </g>
   </g>
   <g id="matplotlib.axis_2">
    <g id="ytick_1">
     <g id="line2d_8">
      <path d="M 42.8 277.916722 
L 447.84 277.916722 
" clip-path="url(#pc3393cd58f)" style="fill: none; stroke: #ffffff; stroke-linecap: round"/>
     </g>
     <g id="text_8">
      <!-- 20k -->
      <g style="fill: #262626" transform="translate(12.932812 282.095863) scale(0.11 -0.11)">
       <defs>
        <path id="DejaVuSans-6b" d="M 581 4863 
L 1159 4863 
L 1159 1991 
L 2875 3500 
L 3609 3500 
L 1753 1863 
L 3688 0 
L 2938 0 
L 1159 1709 
L 1159 0 
L 581 0 
L 581 4863 
z
" transform="scale(0.015625)"/>
       </defs>
       <use xlink:href="#DejaVuSans-32"/>
       <use xlink:href="#DejaVuSans-30" x="63.623047"/>
       <use xlink:href="#DejaVuSans-6b" x="127.246094"/>
      </g>
     </g>
    </g>
    <g id="ytick_2">
     <g id="line2d_9">
      <path d="M 42.8 193.559905 
L 447.84 193.559905 
" clip-path="url(#pc3393cd58f)" style="fill: none; stroke: #ffffff; stroke-linecap: round"/>
     </g>
     <g id="text_9">
      <!-- 30k -->
      <g style="fill: #262626" transform="translate(12.932812 197.739045) scale(0.11 -0.11)">
       <defs>
        <path id="DejaVuSans-33" d="M 2597 2516 
Q 3050 2419 3304 2112 
Q 3559 1806 3559 1356 
Q 3559 666 3084 287 
Q 2609 -91 1734 -91 
Q 1441 -91 1130 -33 
Q 819 25 488 141 
L 488 750 
Q 750 597 1062 519 
Q 1375 441 1716 441 
Q 2309 441 2620 675 
Q 2931 909 2931 1356 
Q 2931 1769 2642 2001 
Q 2353 2234 1838 2234 
L 1294 2234 
L 1294 2753 
L 1863 2753 
Q 2328 2753 2575 2939 
Q 2822 3125 2822 3475 
Q 2822 3834 2567 4026 
Q 2313 4219 1838 4219 
Q 1578 4219 1281 4162 
Q 984 4106 628 3988 
L 628 4550 
Q 988 4650 1302 4700 
Q 1616 4750 1894 4750 
Q 2613 4750 3031 4423 
Q 3450 4097 3450 3541 
Q 3450 3153 3228 2886 
Q 3006 2619 2597 2516 
z
" transform="scale(0.015625)"/>
       </defs>
       <use xlink:href="#DejaVuSans-33"/>
       <use xlink:href="#DejaVuSans-30" x="63.623047"/>
       <use xlink:href="#DejaVuSans-6b" x="127.246094"/>
      </g>
     </g>
    </g>
    <g id="ytick_3">
     <g id="line2d_10">
      <path d="M 42.8 133.707791 
L 447.84 133.707791 
" clip-path="url(#pc3393cd58f)" style="fill: none; stroke: #ffffff; stroke-linecap: round"/>
     </g>
     <g id="text_10">
      <!-- 40k -->
      <g style="fill: #262626" transform="translate(12.932812 137.886931) scale(0.11 -0.11)">
       <defs>
        <path id="DejaVuSans-34" d="M 2419 4116 
L 825 1625 
L 2419 1625 
L 2419 4116 
z
M 2253 4666 
L 3047 4666 
L 3047 1625 
L 3713 1625 
L 3713 1100 
L 3047 1100 
L 3047 0 
L 2419 0 
L 2419 1100 
L 313 1100 
L 313 1709 
L 2253 4666 
z
" transform="scale(0.015625)"/>
       </defs>
       <use xlink:href="#DejaVuSans-34"/>
       <use xlink:href="#DejaVuSans-30" x="63.623047"/>
       <use xlink:href="#DejaVuSans-6b" x="127.246094"/>
      </g>
     </g>
    </g>
    <g id="ytick_4">
     <g id="line2d_11">
      <path d="M 42.8 87.282884 
L 447.84 87.282884 
" clip-path="url(#pc3393cd58f)" style="fill: none; stroke: #ffffff; stroke-linecap: round"/>
     </g>
     <g id="text_11">
      <!-- 50k -->
      <g style="fill: #262626" transform="translate(12.932812 91.462025) scale(0.11 -0.11)">
       <defs>
        <path id="DejaVuSans-35" d="M 691 4666 
L 3169 4666 
L 3169 4134 
L 1269 4134 
L 1269 2991 
Q 1406 3038 1543 3061 
Q 1681 3084 1819 3084 
Q 2600 3084 3056 2656 
Q 3513 2228 3513 1497 
Q 3513 744 3044 326 
Q 2575 -91 1722 -91 
Q 1428 -91 1123 -41 
Q 819 9 494 109 
L 494 744 
Q 775 591 1075 516 
Q 1375 441 1709 441 
Q 2250 441 2565 725 
Q 2881 1009 2881 1497 
Q 2881 1984 2565 2268 
Q 2250 2553 1709 2553 
Q 1456 2553 1204 2497 
Q 953 2441 691 2322 
L 691 4666 
z
" transform="scale(0.015625)"/>
       </defs>
       <use xlink:href="#DejaVuSans-35"/>
       <use xlink:href="#DejaVuSans-30" x="63.623047"/>
       <use xlink:href="#DejaVuSans-6b" x="127.246094"/>
      </g>
     </g>
    </g>
    <g id="ytick_5">
     <g id="line2d_12">
      <path d="M 42.8 49.350973 
L 447.84 49.350973 
" clip-path="url(#pc3393cd58f)" style="fill: none; stroke: #ffffff; stroke-linecap: round"/>
     </g>
     <g id="text_12">
      <!-- 60k -->
      <g style="fill: #262626" transform="translate(12.932812 53.530114) scale(0.11 -0.11)">
       <use xlink:href="#DejaVuSans-36"/>
       <use xlink:href="#DejaVuSans-30" x="63.623047"/>
       <use xlink:href="#DejaVuSans-6b" x="127.246094"/>
      </g>
     </g>
    </g>
    <g id="ytick_6">
     <g id="line2d_13">
      <path d="M 42.8 17.28 
L 447.84 17.28 
" clip-path="url(#pc3393cd58f)" style="fill: none; stroke: #ffffff; stroke-linecap: round"/>
     </g>
     <g id="text_13">
      <!-- 70k -->
      <g style="fill: #262626" transform="translate(12.932812 21.459141) scale(0.11 -0.11)">
       <use xlink:href="#DejaVuSans-37"/>
       <use xlink:href="#DejaVuSans-30" x="63.623047"/>
       <use xlink:href="#DejaVuSans-6b" x="127.246094"/>
      </g>
     </g>
    </g>
   </g>
   <g id="line2d_14">
    <path d="M -1 296.502352 
L 0.071191 295.932412 
L 1.647964 298.053058 
L 3.242064 302.196593 
L 4.836164 304.087271 
L 6.395609 304.701614 
L 7.972382 303.321884 
L 9.566482 300.299772 
L 11.160582 295.309458 
L 12.720027 292.780257 
L 14.2968 290.933783 
L 15.8909 290.701357 
L 17.485 292.367272 
L 19.061773 291.499331 
L 20.638546 292.657392 
L 22.232645 290.292474 
L 23.826745 289.895411 
L 25.386191 291.199732 
L 26.962964 290.104878 
L 28.557064 293.216455 
L 30.151164 299.467388 
L 31.710609 298.902803 
L 34.881482 291.188644 
L 36.475582 288.139801 
L 38.035027 284.307373 
L 39.6118 285.048853 
L 41.2059 285.372062 
L 42.8 281.971332 
L 44.376773 284.339556 
L 45.953546 284.361015 
L 47.547645 287.877733 
L 49.141745 287.169618 
L 50.701191 284.46834 
L 55.466164 275.291131 
L 57.025609 274.143834 
L 58.602382 272.414401 
L 60.196482 272.566421 
L 63.350027 269.337195 
L 64.9268 265.607528 
L 66.5209 265.0494 
L 68.115 261.356719 
L 69.691773 259.758575 
L 71.268546 257.285207 
L 72.862645 257.379432 
L 74.456745 252.97788 
L 76.016191 250.930286 
L 79.187064 242.988432 
L 80.781164 238.499107 
L 82.340609 238.335638 
L 87.105582 234.830612 
L 88.665027 235.21998 
L 90.2418 233.843533 
L 91.8359 232.861116 
L 93.43 229.108785 
L 95.006773 226.135432 
L 96.583546 225.091804 
L 98.177645 224.833728 
L 99.771745 222.039679 
L 101.331191 221.888639 
L 102.907964 221.095494 
L 104.502064 222.724708 
L 106.096164 223.548129 
L 107.655609 223.900878 
L 109.232382 222.700773 
L 110.826482 225.665556 
L 112.420582 220.723758 
L 113.980027 220.202865 
L 115.5568 219.141445 
L 117.1509 219.290503 
L 118.745 216.004746 
L 120.321773 211.829085 
L 121.898546 210.410492 
L 123.492645 207.50557 
L 125.086745 202.870812 
L 126.646191 201.079947 
L 128.222964 202.696827 
L 129.817064 201.238193 
L 131.411164 203.459087 
L 132.970609 203.408183 
L 134.547382 205.917257 
L 136.141482 207.260993 
L 137.735582 210.230089 
L 139.295027 209.248138 
L 140.8718 206.329791 
L 142.4659 204.085501 
L 144.06 199.904078 
L 145.636773 198.827262 
L 147.213546 198.223551 
L 148.807645 197.275361 
L 150.401745 195.307908 
L 151.961191 191.805834 
L 153.537964 188.673106 
L 155.132064 189.263279 
L 156.726164 189.079942 
L 158.285609 181.718602 
L 159.862382 180.249758 
L 161.456482 178.07541 
L 163.050582 178.22997 
L 164.610027 178.552337 
L 166.1868 177.638115 
L 167.7809 177.766636 
L 169.375 177.69594 
L 170.951773 182.611492 
L 172.528546 183.4818 
L 174.122645 180.197723 
L 175.716745 176.587228 
L 177.276191 178.603962 
L 178.852964 176.695916 
L 180.447064 179.515965 
L 182.041164 183.217686 
L 183.600609 182.729956 
L 185.177382 184.057409 
L 186.771482 184.488504 
L 188.365582 182.184265 
L 189.925027 177.933832 
L 194.69 166.890459 
L 196.266773 163.748088 
L 197.843546 162.257159 
L 199.437645 161.061383 
L 201.031745 159.442313 
L 202.591191 158.057814 
L 204.167964 155.43737 
L 205.762064 154.417898 
L 207.356164 152.895145 
L 208.915609 152.399511 
L 210.492382 150.930953 
L 212.086482 150.315998 
L 213.680582 149.186741 
L 215.240027 147.390362 
L 216.8168 146.111144 
L 218.4109 143.080352 
L 220.005 142.423041 
L 221.581773 140.141354 
L 223.158546 139.466511 
L 224.752645 137.232715 
L 226.346745 135.54673 
L 227.906191 134.432022 
L 229.482964 133.468671 
L 231.077064 133.629787 
L 232.671164 131.838566 
L 234.230609 131.730345 
L 235.807382 132.328841 
L 237.401482 134.96508 
L 238.995582 136.583047 
L 240.555027 135.630705 
L 242.1318 135.321213 
L 243.7259 135.305488 
L 245.32 133.442696 
L 246.896773 131.895276 
L 248.473546 130.615346 
L 250.067645 129.175234 
L 251.661745 129.440038 
L 253.221191 128.865027 
L 254.797964 128.585728 
L 256.392064 126.43504 
L 257.986164 124.983572 
L 259.545609 122.795568 
L 261.122382 122.253374 
L 262.716482 120.518025 
L 264.310582 120.342357 
L 265.870027 120.313093 
L 267.4468 119.218669 
L 269.0409 118.448733 
L 270.635 117.412136 
L 272.211773 114.56056 
L 273.788546 113.382664 
L 275.382645 111.897362 
L 276.976745 111.107338 
L 278.536191 108.266664 
L 280.112964 106.374438 
L 281.707064 105.255474 
L 283.301164 103.709772 
L 284.860609 102.363285 
L 286.437382 100.4085 
L 288.031482 97.713669 
L 289.625582 96.296655 
L 291.185027 95.135381 
L 292.7618 93.054439 
L 294.3559 90.296355 
L 295.95 90.068508 
L 297.526773 86.82983 
L 299.103546 87.183044 
L 300.697645 86.493794 
L 302.291745 87.653542 
L 303.851191 86.846438 
L 305.427964 88.225399 
L 307.022064 88.187784 
L 308.616164 86.904578 
L 310.175609 86.096231 
L 311.752382 85.782032 
L 313.346482 86.030045 
L 314.940582 85.369334 
L 316.500027 83.996824 
L 318.0768 81.084718 
L 319.6709 79.179055 
L 321.265 78.408093 
L 322.841773 77.254999 
L 326.012645 74.212267 
L 327.606745 72.356632 
L 329.166191 71.780365 
L 330.742964 70.682537 
L 332.337064 70.05342 
L 333.931164 67.72997 
L 335.490609 67.661801 
L 337.067382 67.885325 
L 338.661482 66.638181 
L 340.255582 66.472458 
L 341.815027 65.668321 
L 344.9859 64.236855 
L 346.58 65.58208 
L 348.156773 64.803779 
L 349.733546 66.404701 
L 351.327645 71.498615 
L 352.921745 74.294343 
L 354.481191 75.093344 
L 356.057964 74.842346 
L 357.652064 73.086018 
L 359.246164 72.496104 
L 360.805609 70.886257 
L 362.382382 69.731925 
L 363.976482 69.090421 
L 365.570582 69.961514 
L 367.130027 68.934163 
L 368.7068 69.422381 
L 370.3009 67.5331 
L 371.895 66.163964 
L 373.471773 65.608324 
L 376.642645 65.93477 
L 378.236745 64.229406 
L 379.796191 64.024657 
L 382.967064 61.333336 
L 384.561164 62.427105 
L 386.120609 60.139351 
L 387.697382 58.075264 
L 389.291482 57.475874 
L 390.885582 55.970592 
L 392.445027 55.059793 
L 394.0218 54.668127 
L 395.6159 54.72505 
L 397.21 53.894087 
L 398.786773 53.600139 
L 400.363546 52.551691 
L 405.111191 50.268411 
L 406.687964 49.007975 
L 408.282064 47.026913 
L 409.876164 45.595112 
L 411.435609 44.769227 
L 413.012382 43.80138 
L 414.606482 43.811509 
L 416.200582 42.901876 
L 417.760027 41.421305 
L 419.3368 39.381914 
L 420.9309 38.35322 
L 422.525 41.41463 
L 424.101773 58.629247 
L 425.678546 43.19118 
L 427.272645 41.154451 
L 428.866745 38.461784 
L 430.426191 35.426991 
L 432.002964 33.946964 
L 433.597064 30.634304 
L 435.191164 31.791091 
L 436.750609 32.292027 
L 439.921482 30.156309 
L 443.075027 28.399411 
L 444.6518 26.237911 
L 446.2459 24.806206 
L 447.84 24.224593 
L 447.84 24.224593 
" clip-path="url(#pc3393cd58f)" style="fill: none; stroke: #1a1a1a; stroke-width: 1.5; stroke-linecap: round"/>
   </g>
   <g id="line2d_15">
    <path d="M 341.815027 65.668321 
L 343.3918 64.904775 
L 344.9859 64.135677 
L 346.58 63.369411 
L 348.156773 62.614241 
L 349.733546 61.861801 
L 351.327645 61.10385 
L 352.921745 60.348649 
L 354.481191 59.612509 
L 356.057964 58.870829 
L 357.652064 58.123677 
L 359.246164 57.379198 
L 360.805609 56.653472 
L 362.382382 55.922247 
L 363.976482 55.185591 
L 365.570582 54.451533 
L 367.130027 53.735931 
L 368.7068 53.014871 
L 370.3009 52.288419 
" clip-path="url(#pc3393cd58f)" style="fill: none; stroke-dasharray: 3.7,1.6; stroke-dashoffset: 0; stroke: #000000"/>
   </g>
   <g id="line2d_16">
    <path d="M 231.077064 133.629787 
L 232.671164 132.430307 
L 234.230609 131.263557 
L 235.807382 130.090458 
L 237.401482 128.911154 
L 238.995582 127.738497 
L 240.555027 126.597693 
L 242.1318 125.450538 
L 243.7259 124.297172 
L 245.32 123.150164 
L 246.896773 122.021811 
L 248.473546 120.899544 
L 250.067645 119.771066 
L 251.661745 118.648676 
L 253.221191 117.556513 
L 254.797964 116.458014 
L 256.392064 115.353308 
L 257.986164 114.254438 
L 259.545609 113.185042 
" clip-path="url(#pc3393cd58f)" style="fill: none; stroke-dasharray: 3.7,1.6; stroke-dashoffset: 0; stroke: #000000"/>
   </g>
   <g id="line2d_17">
    <path d="M 161.456482 178.07541 
L 163.050582 176.217251 
L 164.610027 174.415405 
L 166.1868 172.609268 
L 167.7809 170.799084 
L 169.375 169.004514 
L 170.951773 167.244549 
L 172.528546 165.499347 
L 174.122645 163.749725 
L 175.716745 162.014693 
L 177.276191 160.331267 
L 178.852964 158.642873 
L 180.447064 156.949741 
L 182.041164 155.270276 
L 183.600609 153.640337 
L 185.177382 152.005169 
L 186.771482 150.364994 
L 188.365582 148.737648 
L 189.925027 147.157902 
" clip-path="url(#pc3393cd58f)" style="fill: none; stroke-dasharray: 3.7,1.6; stroke-dashoffset: 0; stroke: #000000"/>
   </g>
   <g id="line2d_18">
    <path d="M 80.781164 238.499107 
L 82.340609 235.808815 
L 83.917382 233.123547 
L 85.511482 230.443551 
L 87.105582 227.797638 
L 88.665027 225.241403 
L 90.2418 222.688309 
L 91.8359 220.138618 
L 93.43 217.619797 
L 95.006773 215.157998 
L 96.583546 212.724989 
L 98.177645 210.29383 
L 99.771745 207.890752 
L 101.331191 205.566472 
L 102.907964 203.242473 
L 104.502064 200.919032 
L 106.096164 198.621252 
L 107.655609 196.397716 
L 109.232382 194.173378 
" clip-path="url(#pc3393cd58f)" style="fill: none; stroke-dasharray: 3.7,1.6; stroke-dashoffset: 0; stroke: #000000"/>
   </g>
   <g id="patch_3">
    <path d="M 42.8 299.836926 
L 42.8 17.28 
" style="fill: none; stroke: #ffffff; stroke-width: 1.25; stroke-linejoin: miter; stroke-linecap: square"/>
   </g>
   <g id="patch_4">
    <path d="M 447.84 299.836926 
L 447.84 17.28 
" style="fill: none; stroke: #ffffff; stroke-width: 1.25; stroke-linejoin: miter; stroke-linecap: square"/>
   </g>
   <g id="patch_5">
    <path d="M 42.8 299.836926 
L 447.84 299.836926 
" style="fill: none; stroke: #ffffff; stroke-width: 1.25; stroke-linejoin: miter; stroke-linecap: square"/>
   </g>
   <g id="patch_6">
    <path d="M 42.8 17.28 
L 447.84 17.28 
" style="fill: none; stroke: #ffffff; stroke-width: 1.25; stroke-linejoin: miter; stroke-linecap: square"/>
   </g>
  </g>
 </g>
 <defs>
  <clipPath id="pc3393cd58f">
   <rect x="42.8" y="17.28" width="405.04" height="282.556926"/>
  </clipPath>
 </defs>
</svg>
