<?xml version="1.0" encoding="utf-8" standalone="no"?>
<!DOCTYPE svg PUBLIC "-//W3C//DTD SVG 1.1//EN"
  "http://www.w3.org/Graphics/SVG/1.1/DTD/svg11.dtd">
<svg xmlns:xlink="http://www.w3.org/1999/xlink" width="460.8pt" height="345.6pt" viewBox="0 0 460.8 345.6" xmlns="http://www.w3.org/2000/svg" version="1.1">
 <metadata>
  <rdf:RDF xmlns:dc="http://purl.org/dc/elements/1.1/" xmlns:cc="http://creativecommons.org/ns#" xmlns:rdf="http://www.w3.org/1999/02/22-rdf-syntax-ns#">
   <cc:Work>
    <dc:type rdf:resource="http://purl.org/dc/dcmitype/StillImage"/>
    <dc:date>2024-05-05T00:27:16.628534</dc:date>
    <dc:format>image/svg+xml</dc:format>
    <dc:creator>
     <cc:Agent>
      <dc:title>Matplotlib v3.8.3, https://matplotlib.org/</dc:title>
     </cc:Agent>
    </dc:creator>
   </cc:Work>
  </rdf:RDF>
 </metadata>
 <defs>
  <style type="text/css">*{stroke-linejoin: round; stroke-linecap: butt}</style>
 </defs>
 <g id="figure_1">
  <g id="patch_1">
   <path d="M 0 345.6 
L 460.8 345.6 
L 460.8 0 
L 0 0 
L 0 345.6 
z
" style="fill: none"/>
  </g>
  <g id="axes_1">
   <g id="patch_2">
    <path d="M 56.88 299.836926 
L 447.84 299.836926 
L 447.84 12.96 
L 56.88 12.96 
L 56.88 299.836926 
z
" style="fill: none"/>
   </g>
   <g id="matplotlib.axis_1">
    <g id="xtick_1">
     <g id="line2d_1">
      <path d="M 56.88 299.836926 
L 56.88 12.96 
" clip-path="url(#pbe63da3cfd)" style="fill: none; stroke: #ffffff; stroke-linecap: round"/>
     </g>
     <g id="text_1">
      <!-- 1960 -->
      <g style="fill: #262626" transform="translate(31.491791 330.57291) rotate(-30) scale(0.11 -0.11)">
       <defs>
        <path id="DejaVuSans-31" d="M 794 531 
L 1825 531 
L 1825 4091 
L 703 3866 
L 703 4441 
L 1819 4666 
L 2450 4666 
L 2450 531 
L 3481 531 
L 3481 0 
L 794 0 
L 794 531 
z
" transform="scale(0.015625)"/>
        <path id="DejaVuSans-39" d="M 703 97 
L 703 672 
Q 941 559 1184 500 
Q 1428 441 1663 441 
Q 2288 441 2617 861 
Q 2947 1281 2994 2138 
Q 2813 1869 2534 1725 
Q 2256 1581 1919 1581 
Q 1219 1581 811 2004 
Q 403 2428 403 3163 
Q 403 3881 828 4315 
Q 1253 4750 1959 4750 
Q 2769 4750 3195 4129 
Q 3622 3509 3622 2328 
Q 3622 1225 3098 567 
Q 2575 -91 1691 -91 
Q 1453 -91 1209 -44 
Q 966 3 703 97 
z
M 1959 2075 
Q 2384 2075 2632 2365 
Q 2881 2656 2881 3163 
Q 2881 3666 2632 3958 
Q 2384 4250 1959 4250 
Q 1534 4250 1286 3958 
Q 1038 3666 1038 3163 
Q 1038 2656 1286 2365 
Q 1534 2075 1959 2075 
z
" transform="scale(0.015625)"/>
        <path id="DejaVuSans-36" d="M 2113 2584 
Q 1688 2584 1439 2293 
Q 1191 2003 1191 1497 
Q 1191 994 1439 701 
Q 1688 409 2113 409 
Q 2538 409 2786 701 
Q 3034 994 3034 1497 
Q 3034 2003 2786 2293 
Q 2538 2584 2113 2584 
z
M 3366 4563 
L 3366 3988 
Q 3128 4100 2886 4159 
Q 2644 4219 2406 4219 
Q 1781 4219 1451 3797 
Q 1122 3375 1075 2522 
Q 1259 2794 1537 2939 
Q 1816 3084 2150 3084 
Q 2853 3084 3261 2657 
Q 3669 2231 3669 1497 
Q 3669 778 3244 343 
Q 2819 -91 2113 -91 
Q 1303 -91 875 529 
Q 447 1150 447 2328 
Q 447 3434 972 4092 
Q 1497 4750 2381 4750 
Q 2619 4750 2861 4703 
Q 3103 4656 3366 4563 
z
" transform="scale(0.015625)"/>
        <path id="DejaVuSans-30" d="M 2034 4250 
Q 1547 4250 1301 3770 
Q 1056 3291 1056 2328 
Q 1056 1369 1301 889 
Q 1547 409 2034 409 
Q 2525 409 2770 889 
Q 3016 1369 3016 2328 
Q 3016 3291 2770 3770 
Q 2525 4250 2034 4250 
z
M 2034 4750 
Q 2819 4750 3233 4129 
Q 3647 3509 3647 2328 
Q 3647 1150 3233 529 
Q 2819 -91 2034 -91 
Q 1250 -91 836 529 
Q 422 1150 422 2328 
Q 422 3509 836 4129 
Q 1250 4750 2034 4750 
z
" transform="scale(0.015625)"/>
       </defs>
       <use xlink:href="#DejaVuSans-31"/>
       <use xlink:href="#DejaVuSans-39" x="63.623047"/>
       <use xlink:href="#DejaVuSans-36" x="127.246094"/>
       <use xlink:href="#DejaVuSans-30" x="190.869141"/>
      </g>
     </g>
    </g>
    <g id="xtick_2">
     <g id="line2d_2">
      <path d="M 117.975862 299.836926 
L 117.975862 12.96 
" clip-path="url(#pbe63da3cfd)" style="fill: none; stroke: #ffffff; stroke-linecap: round"/>
     </g>
     <g id="text_2">
      <!-- 1970 -->
      <g style="fill: #262626" transform="translate(92.587653 330.57291) rotate(-30) scale(0.11 -0.11)">
       <defs>
        <path id="DejaVuSans-37" d="M 525 4666 
L 3525 4666 
L 3525 4397 
L 1831 0 
L 1172 0 
L 2766 4134 
L 525 4134 
L 525 4666 
z
" transform="scale(0.015625)"/>
       </defs>
       <use xlink:href="#DejaVuSans-31"/>
       <use xlink:href="#DejaVuSans-39" x="63.623047"/>
       <use xlink:href="#DejaVuSans-37" x="127.246094"/>
       <use xlink:href="#DejaVuSans-30" x="190.869141"/>
      </g>
     </g>
    </g>
    <g id="xtick_3">
     <g id="line2d_3">
      <path d="M 179.055 299.836926 
L 179.055 12.96 
" clip-path="url(#pbe63da3cfd)" style="fill: none; stroke: #ffffff; stroke-linecap: round"/>
     </g>
     <g id="text_3">
      <!-- 1980 -->
      <g style="fill: #262626" transform="translate(153.666791 330.57291) rotate(-30) scale(0.11 -0.11)">
       <defs>
        <path id="DejaVuSans-38" d="M 2034 2216 
Q 1584 2216 1326 1975 
Q 1069 1734 1069 1313 
Q 1069 891 1326 650 
Q 1584 409 2034 409 
Q 2484 409 2743 651 
Q 3003 894 3003 1313 
Q 3003 1734 2745 1975 
Q 2488 2216 2034 2216 
z
M 1403 2484 
Q 997 2584 770 2862 
Q 544 3141 544 3541 
Q 544 4100 942 4425 
Q 1341 4750 2034 4750 
Q 2731 4750 3128 4425 
Q 3525 4100 3525 3541 
Q 3525 3141 3298 2862 
Q 3072 2584 2669 2484 
Q 3125 2378 3379 2068 
Q 3634 1759 3634 1313 
Q 3634 634 3220 271 
Q 2806 -91 2034 -91 
Q 1263 -91 848 271 
Q 434 634 434 1313 
Q 434 1759 690 2068 
Q 947 2378 1403 2484 
z
M 1172 3481 
Q 1172 3119 1398 2916 
Q 1625 2713 2034 2713 
Q 2441 2713 2670 2916 
Q 2900 3119 2900 3481 
Q 2900 3844 2670 4047 
Q 2441 4250 2034 4250 
Q 1625 4250 1398 4047 
Q 1172 3844 1172 3481 
z
" transform="scale(0.015625)"/>
       </defs>
       <use xlink:href="#DejaVuSans-31"/>
       <use xlink:href="#DejaVuSans-39" x="63.623047"/>
       <use xlink:href="#DejaVuSans-38" x="127.246094"/>
       <use xlink:href="#DejaVuSans-30" x="190.869141"/>
      </g>
     </g>
    </g>
    <g id="xtick_4">
     <g id="line2d_4">
      <path d="M 240.150862 299.836926 
L 240.150862 12.96 
" clip-path="url(#pbe63da3cfd)" style="fill: none; stroke: #ffffff; stroke-linecap: round"/>
     </g>
     <g id="text_4">
      <!-- 1990 -->
      <g style="fill: #262626" transform="translate(214.762653 330.57291) rotate(-30) scale(0.11 -0.11)">
       <use xlink:href="#DejaVuSans-31"/>
       <use xlink:href="#DejaVuSans-39" x="63.623047"/>
       <use xlink:href="#DejaVuSans-39" x="127.246094"/>
       <use xlink:href="#DejaVuSans-30" x="190.869141"/>
      </g>
     </g>
    </g>
    <g id="xtick_5">
     <g id="line2d_5">
      <path d="M 301.23 299.836926 
L 301.23 12.96 
" clip-path="url(#pbe63da3cfd)" style="fill: none; stroke: #ffffff; stroke-linecap: round"/>
     </g>
     <g id="text_5">
      <!-- 2000 -->
      <g style="fill: #262626" transform="translate(275.841791 330.57291) rotate(-30) scale(0.11 -0.11)">
       <defs>
        <path id="DejaVuSans-32" d="M 1228 531 
L 3431 531 
L 3431 0 
L 469 0 
L 469 531 
Q 828 903 1448 1529 
Q 2069 2156 2228 2338 
Q 2531 2678 2651 2914 
Q 2772 3150 2772 3378 
Q 2772 3750 2511 3984 
Q 2250 4219 1831 4219 
Q 1534 4219 1204 4116 
Q 875 4013 500 3803 
L 500 4441 
Q 881 4594 1212 4672 
Q 1544 4750 1819 4750 
Q 2544 4750 2975 4387 
Q 3406 4025 3406 3419 
Q 3406 3131 3298 2873 
Q 3191 2616 2906 2266 
Q 2828 2175 2409 1742 
Q 1991 1309 1228 531 
z
" transform="scale(0.015625)"/>
       </defs>
       <use xlink:href="#DejaVuSans-32"/>
       <use xlink:href="#DejaVuSans-30" x="63.623047"/>
       <use xlink:href="#DejaVuSans-30" x="127.246094"/>
       <use xlink:href="#DejaVuSans-30" x="190.869141"/>
      </g>
     </g>
    </g>
    <g id="xtick_6">
     <g id="line2d_6">
      <path d="M 362.325862 299.836926 
L 362.325862 12.96 
" clip-path="url(#pbe63da3cfd)" style="fill: none; stroke: #ffffff; stroke-linecap: round"/>
     </g>
     <g id="text_6">
      <!-- 2010 -->
      <g style="fill: #262626" transform="translate(336.937653 330.57291) rotate(-30) scale(0.11 -0.11)">
       <use xlink:href="#DejaVuSans-32"/>
       <use xlink:href="#DejaVuSans-30" x="63.623047"/>
       <use xlink:href="#DejaVuSans-31" x="127.246094"/>
       <use xlink:href="#DejaVuSans-30" x="190.869141"/>
      </g>
     </g>
    </g>
    <g id="xtick_7">
     <g id="line2d_7">
      <path d="M 423.405 299.836926 
L 423.405 12.96 
" clip-path="url(#pbe63da3cfd)" style="fill: none; stroke: #ffffff; stroke-linecap: round"/>
     </g>
     <g id="text_7">
      <!-- 2020 -->
      <g style="fill: #262626" transform="translate(398.016791 330.57291) rotate(-30) scale(0.11 -0.11)">
       <use xlink:href="#DejaVuSans-32"/>
       <use xlink:href="#DejaVuSans-30" x="63.623047"/>
       <use xlink:href="#DejaVuSans-32" x="127.246094"/>
       <use xlink:href="#DejaVuSans-30" x="190.869141"/>
      </g>
     </g>
    </g>
   </g>
   <g id="matplotlib.axis_2">
    <g id="ytick_1">
     <g id="line2d_8">
      <path d="M 56.88 276.448214 
L 447.84 276.448214 
" clip-path="url(#pbe63da3cfd)" style="fill: none; stroke: #ffffff; stroke-linecap: round"/>
     </g>
     <g id="text_8">
      <!-- 4.3 -->
      <g style="fill: #262626" transform="translate(29.886563 280.627355) scale(0.11 -0.11)">
       <defs>
        <path id="DejaVuSans-34" d="M 2419 4116 
L 825 1625 
L 2419 1625 
L 2419 4116 
z
M 2253 4666 
L 3047 4666 
L 3047 1625 
L 3713 1625 
L 3713 1100 
L 3047 1100 
L 3047 0 
L 2419 0 
L 2419 1100 
L 313 1100 
L 313 1709 
L 2253 4666 
z
" transform="scale(0.015625)"/>
        <path id="DejaVuSans-2e" d="M 684 794 
L 1344 794 
L 1344 0 
L 684 0 
L 684 794 
z
" transform="scale(0.015625)"/>
        <path id="DejaVuSans-33" d="M 2597 2516 
Q 3050 2419 3304 2112 
Q 3559 1806 3559 1356 
Q 3559 666 3084 287 
Q 2609 -91 1734 -91 
Q 1441 -91 1130 -33 
Q 819 25 488 141 
L 488 750 
Q 750 597 1062 519 
Q 1375 441 1716 441 
Q 2309 441 2620 675 
Q 2931 909 2931 1356 
Q 2931 1769 2642 2001 
Q 2353 2234 1838 2234 
L 1294 2234 
L 1294 2753 
L 1863 2753 
Q 2328 2753 2575 2939 
Q 2822 3125 2822 3475 
Q 2822 3834 2567 4026 
Q 2313 4219 1838 4219 
Q 1578 4219 1281 4162 
Q 984 4106 628 3988 
L 628 4550 
Q 988 4650 1302 4700 
Q 1616 4750 1894 4750 
Q 2613 4750 3031 4423 
Q 3450 4097 3450 3541 
Q 3450 3153 3228 2886 
Q 3006 2619 2597 2516 
z
" transform="scale(0.015625)"/>
       </defs>
       <use xlink:href="#DejaVuSans-34"/>
       <use xlink:href="#DejaVuSans-2e" x="63.623047"/>
       <use xlink:href="#DejaVuSans-33" x="95.410156"/>
      </g>
     </g>
    </g>
    <g id="ytick_2">
     <g id="line2d_9">
      <path d="M 56.88 229.670791 
L 447.84 229.670791 
" clip-path="url(#pbe63da3cfd)" style="fill: none; stroke: #ffffff; stroke-linecap: round"/>
     </g>
     <g id="text_9">
      <!-- 4.4 -->
      <g style="fill: #262626" transform="translate(29.886563 233.849931) scale(0.11 -0.11)">
       <use xlink:href="#DejaVuSans-34"/>
       <use xlink:href="#DejaVuSans-2e" x="63.623047"/>
       <use xlink:href="#DejaVuSans-34" x="95.410156"/>
      </g>
     </g>
    </g>
    <g id="ytick_3">
     <g id="line2d_10">
      <path d="M 56.88 182.893367 
L 447.84 182.893367 
" clip-path="url(#pbe63da3cfd)" style="fill: none; stroke: #ffffff; stroke-linecap: round"/>
     </g>
     <g id="text_10">
      <!-- 4.5 -->
      <g style="fill: #262626" transform="translate(29.886563 187.072508) scale(0.11 -0.11)">
       <defs>
        <path id="DejaVuSans-35" d="M 691 4666 
L 3169 4666 
L 3169 4134 
L 1269 4134 
L 1269 2991 
Q 1406 3038 1543 3061 
Q 1681 3084 1819 3084 
Q 2600 3084 3056 2656 
Q 3513 2228 3513 1497 
Q 3513 744 3044 326 
Q 2575 -91 1722 -91 
Q 1428 -91 1123 -41 
Q 819 9 494 109 
L 494 744 
Q 775 591 1075 516 
Q 1375 441 1709 441 
Q 2250 441 2565 725 
Q 2881 1009 2881 1497 
Q 2881 1984 2565 2268 
Q 2250 2553 1709 2553 
Q 1456 2553 1204 2497 
Q 953 2441 691 2322 
L 691 4666 
z
" transform="scale(0.015625)"/>
       </defs>
       <use xlink:href="#DejaVuSans-34"/>
       <use xlink:href="#DejaVuSans-2e" x="63.623047"/>
       <use xlink:href="#DejaVuSans-35" x="95.410156"/>
      </g>
     </g>
    </g>
    <g id="ytick_4">
     <g id="line2d_11">
      <path d="M 56.88 136.115944 
L 447.84 136.115944 
" clip-path="url(#pbe63da3cfd)" style="fill: none; stroke: #ffffff; stroke-linecap: round"/>
     </g>
     <g id="text_11">
      <!-- 4.6 -->
      <g style="fill: #262626" transform="translate(29.886563 140.295085) scale(0.11 -0.11)">
       <use xlink:href="#DejaVuSans-34"/>
       <use xlink:href="#DejaVuSans-2e" x="63.623047"/>
       <use xlink:href="#DejaVuSans-36" x="95.410156"/>
      </g>
     </g>
    </g>
    <g id="ytick_5">
     <g id="line2d_12">
      <path d="M 56.88 89.338521 
L 447.84 89.338521 
" clip-path="url(#pbe63da3cfd)" style="fill: none; stroke: #ffffff; stroke-linecap: round"/>
     </g>
     <g id="text_12">
      <!-- 4.7 -->
      <g style="fill: #262626" transform="translate(29.886563 93.517661) scale(0.11 -0.11)">
       <use xlink:href="#DejaVuSans-34"/>
       <use xlink:href="#DejaVuSans-2e" x="63.623047"/>
       <use xlink:href="#DejaVuSans-37" x="95.410156"/>
      </g>
     </g>
    </g>
    <g id="ytick_6">
     <g id="line2d_13">
      <path d="M 56.88 42.561097 
L 447.84 42.561097 
" clip-path="url(#pbe63da3cfd)" style="fill: none; stroke: #ffffff; stroke-linecap: round"/>
     </g>
     <g id="text_13">
      <!-- 4.8 -->
      <g style="fill: #262626" transform="translate(29.886563 46.740238) scale(0.11 -0.11)">
       <use xlink:href="#DejaVuSans-34"/>
       <use xlink:href="#DejaVuSans-2e" x="63.623047"/>
       <use xlink:href="#DejaVuSans-38" x="95.410156"/>
      </g>
     </g>
    </g>
    <g id="text_14">
     <!-- Real US GDP per capita (Log10) -->
     <g style="fill: #262626" transform="translate(23.390937 251.438463) rotate(-90) scale(0.12 -0.12)">
      <defs>
       <path id="DejaVuSans-52" d="M 2841 2188 
Q 3044 2119 3236 1894 
Q 3428 1669 3622 1275 
L 4263 0 
L 3584 0 
L 2988 1197 
Q 2756 1666 2539 1819 
Q 2322 1972 1947 1972 
L 1259 1972 
L 1259 0 
L 628 0 
L 628 4666 
L 2053 4666 
Q 2853 4666 3247 4331 
Q 3641 3997 3641 3322 
Q 3641 2881 3436 2590 
Q 3231 2300 2841 2188 
z
M 1259 4147 
L 1259 2491 
L 2053 2491 
Q 2509 2491 2742 2702 
Q 2975 2913 2975 3322 
Q 2975 3731 2742 3939 
Q 2509 4147 2053 4147 
L 1259 4147 
z
" transform="scale(0.015625)"/>
       <path id="DejaVuSans-65" d="M 3597 1894 
L 3597 1613 
L 953 1613 
Q 991 1019 1311 708 
Q 1631 397 2203 397 
Q 2534 397 2845 478 
Q 3156 559 3463 722 
L 3463 178 
Q 3153 47 2828 -22 
Q 2503 -91 2169 -91 
Q 1331 -91 842 396 
Q 353 884 353 1716 
Q 353 2575 817 3079 
Q 1281 3584 2069 3584 
Q 2775 3584 3186 3129 
Q 3597 2675 3597 1894 
z
M 3022 2063 
Q 3016 2534 2758 2815 
Q 2500 3097 2075 3097 
Q 1594 3097 1305 2825 
Q 1016 2553 972 2059 
L 3022 2063 
z
" transform="scale(0.015625)"/>
       <path id="DejaVuSans-61" d="M 2194 1759 
Q 1497 1759 1228 1600 
Q 959 1441 959 1056 
Q 959 750 1161 570 
Q 1363 391 1709 391 
Q 2188 391 2477 730 
Q 2766 1069 2766 1631 
L 2766 1759 
L 2194 1759 
z
M 3341 1997 
L 3341 0 
L 2766 0 
L 2766 531 
Q 2569 213 2275 61 
Q 1981 -91 1556 -91 
Q 1019 -91 701 211 
Q 384 513 384 1019 
Q 384 1609 779 1909 
Q 1175 2209 1959 2209 
L 2766 2209 
L 2766 2266 
Q 2766 2663 2505 2880 
Q 2244 3097 1772 3097 
Q 1472 3097 1187 3025 
Q 903 2953 641 2809 
L 641 3341 
Q 956 3463 1253 3523 
Q 1550 3584 1831 3584 
Q 2591 3584 2966 3190 
Q 3341 2797 3341 1997 
z
" transform="scale(0.015625)"/>
       <path id="DejaVuSans-6c" d="M 603 4863 
L 1178 4863 
L 1178 0 
L 603 0 
L 603 4863 
z
" transform="scale(0.015625)"/>
       <path id="DejaVuSans-20" transform="scale(0.015625)"/>
       <path id="DejaVuSans-55" d="M 556 4666 
L 1191 4666 
L 1191 1831 
Q 1191 1081 1462 751 
Q 1734 422 2344 422 
Q 2950 422 3222 751 
Q 3494 1081 3494 1831 
L 3494 4666 
L 4128 4666 
L 4128 1753 
Q 4128 841 3676 375 
Q 3225 -91 2344 -91 
Q 1459 -91 1007 375 
Q 556 841 556 1753 
L 556 4666 
z
" transform="scale(0.015625)"/>
       <path id="DejaVuSans-53" d="M 3425 4513 
L 3425 3897 
Q 3066 4069 2747 4153 
Q 2428 4238 2131 4238 
Q 1616 4238 1336 4038 
Q 1056 3838 1056 3469 
Q 1056 3159 1242 3001 
Q 1428 2844 1947 2747 
L 2328 2669 
Q 3034 2534 3370 2195 
Q 3706 1856 3706 1288 
Q 3706 609 3251 259 
Q 2797 -91 1919 -91 
Q 1588 -91 1214 -16 
Q 841 59 441 206 
L 441 856 
Q 825 641 1194 531 
Q 1563 422 1919 422 
Q 2459 422 2753 634 
Q 3047 847 3047 1241 
Q 3047 1584 2836 1778 
Q 2625 1972 2144 2069 
L 1759 2144 
Q 1053 2284 737 2584 
Q 422 2884 422 3419 
Q 422 4038 858 4394 
Q 1294 4750 2059 4750 
Q 2388 4750 2728 4690 
Q 3069 4631 3425 4513 
z
" transform="scale(0.015625)"/>
       <path id="DejaVuSans-47" d="M 3809 666 
L 3809 1919 
L 2778 1919 
L 2778 2438 
L 4434 2438 
L 4434 434 
Q 4069 175 3628 42 
Q 3188 -91 2688 -91 
Q 1594 -91 976 548 
Q 359 1188 359 2328 
Q 359 3472 976 4111 
Q 1594 4750 2688 4750 
Q 3144 4750 3555 4637 
Q 3966 4525 4313 4306 
L 4313 3634 
Q 3963 3931 3569 4081 
Q 3175 4231 2741 4231 
Q 1884 4231 1454 3753 
Q 1025 3275 1025 2328 
Q 1025 1384 1454 906 
Q 1884 428 2741 428 
Q 3075 428 3337 486 
Q 3600 544 3809 666 
z
" transform="scale(0.015625)"/>
       <path id="DejaVuSans-44" d="M 1259 4147 
L 1259 519 
L 2022 519 
Q 2988 519 3436 956 
Q 3884 1394 3884 2338 
Q 3884 3275 3436 3711 
Q 2988 4147 2022 4147 
L 1259 4147 
z
M 628 4666 
L 1925 4666 
Q 3281 4666 3915 4102 
Q 4550 3538 4550 2338 
Q 4550 1131 3912 565 
Q 3275 0 1925 0 
L 628 0 
L 628 4666 
z
" transform="scale(0.015625)"/>
       <path id="DejaVuSans-50" d="M 1259 4147 
L 1259 2394 
L 2053 2394 
Q 2494 2394 2734 2622 
Q 2975 2850 2975 3272 
Q 2975 3691 2734 3919 
Q 2494 4147 2053 4147 
L 1259 4147 
z
M 628 4666 
L 2053 4666 
Q 2838 4666 3239 4311 
Q 3641 3956 3641 3272 
Q 3641 2581 3239 2228 
Q 2838 1875 2053 1875 
L 1259 1875 
L 1259 0 
L 628 0 
L 628 4666 
z
" transform="scale(0.015625)"/>
       <path id="DejaVuSans-70" d="M 1159 525 
L 1159 -1331 
L 581 -1331 
L 581 3500 
L 1159 3500 
L 1159 2969 
Q 1341 3281 1617 3432 
Q 1894 3584 2278 3584 
Q 2916 3584 3314 3078 
Q 3713 2572 3713 1747 
Q 3713 922 3314 415 
Q 2916 -91 2278 -91 
Q 1894 -91 1617 61 
Q 1341 213 1159 525 
z
M 3116 1747 
Q 3116 2381 2855 2742 
Q 2594 3103 2138 3103 
Q 1681 3103 1420 2742 
Q 1159 2381 1159 1747 
Q 1159 1113 1420 752 
Q 1681 391 2138 391 
Q 2594 391 2855 752 
Q 3116 1113 3116 1747 
z
" transform="scale(0.015625)"/>
       <path id="DejaVuSans-72" d="M 2631 2963 
Q 2534 3019 2420 3045 
Q 2306 3072 2169 3072 
Q 1681 3072 1420 2755 
Q 1159 2438 1159 1844 
L 1159 0 
L 581 0 
L 581 3500 
L 1159 3500 
L 1159 2956 
Q 1341 3275 1631 3429 
Q 1922 3584 2338 3584 
Q 2397 3584 2469 3576 
Q 2541 3569 2628 3553 
L 2631 2963 
z
" transform="scale(0.015625)"/>
       <path id="DejaVuSans-63" d="M 3122 3366 
L 3122 2828 
Q 2878 2963 2633 3030 
Q 2388 3097 2138 3097 
Q 1578 3097 1268 2742 
Q 959 2388 959 1747 
Q 959 1106 1268 751 
Q 1578 397 2138 397 
Q 2388 397 2633 464 
Q 2878 531 3122 666 
L 3122 134 
Q 2881 22 2623 -34 
Q 2366 -91 2075 -91 
Q 1284 -91 818 406 
Q 353 903 353 1747 
Q 353 2603 823 3093 
Q 1294 3584 2113 3584 
Q 2378 3584 2631 3529 
Q 2884 3475 3122 3366 
z
" transform="scale(0.015625)"/>
       <path id="DejaVuSans-69" d="M 603 3500 
L 1178 3500 
L 1178 0 
L 603 0 
L 603 3500 
z
M 603 4863 
L 1178 4863 
L 1178 4134 
L 603 4134 
L 603 4863 
z
" transform="scale(0.015625)"/>
       <path id="DejaVuSans-74" d="M 1172 4494 
L 1172 3500 
L 2356 3500 
L 2356 3053 
L 1172 3053 
L 1172 1153 
Q 1172 725 1289 603 
Q 1406 481 1766 481 
L 2356 481 
L 2356 0 
L 1766 0 
Q 1100 0 847 248 
Q 594 497 594 1153 
L 594 3053 
L 172 3053 
L 172 3500 
L 594 3500 
L 594 4494 
L 1172 4494 
z
" transform="scale(0.015625)"/>
       <path id="DejaVuSans-28" d="M 1984 4856 
Q 1566 4138 1362 3434 
Q 1159 2731 1159 2009 
Q 1159 1288 1364 580 
Q 1569 -128 1984 -844 
L 1484 -844 
Q 1016 -109 783 600 
Q 550 1309 550 2009 
Q 550 2706 781 3412 
Q 1013 4119 1484 4856 
L 1984 4856 
z
" transform="scale(0.015625)"/>
       <path id="DejaVuSans-4c" d="M 628 4666 
L 1259 4666 
L 1259 531 
L 3531 531 
L 3531 0 
L 628 0 
L 628 4666 
z
" transform="scale(0.015625)"/>
       <path id="DejaVuSans-6f" d="M 1959 3097 
Q 1497 3097 1228 2736 
Q 959 2375 959 1747 
Q 959 1119 1226 758 
Q 1494 397 1959 397 
Q 2419 397 2687 759 
Q 2956 1122 2956 1747 
Q 2956 2369 2687 2733 
Q 2419 3097 1959 3097 
z
M 1959 3584 
Q 2709 3584 3137 3096 
Q 3566 2609 3566 1747 
Q 3566 888 3137 398 
Q 2709 -91 1959 -91 
Q 1206 -91 779 398 
Q 353 888 353 1747 
Q 353 2609 779 3096 
Q 1206 3584 1959 3584 
z
" transform="scale(0.015625)"/>
       <path id="DejaVuSans-67" d="M 2906 1791 
Q 2906 2416 2648 2759 
Q 2391 3103 1925 3103 
Q 1463 3103 1205 2759 
Q 947 2416 947 1791 
Q 947 1169 1205 825 
Q 1463 481 1925 481 
Q 2391 481 2648 825 
Q 2906 1169 2906 1791 
z
M 3481 434 
Q 3481 -459 3084 -895 
Q 2688 -1331 1869 -1331 
Q 1566 -1331 1297 -1286 
Q 1028 -1241 775 -1147 
L 775 -588 
Q 1028 -725 1275 -790 
Q 1522 -856 1778 -856 
Q 2344 -856 2625 -561 
Q 2906 -266 2906 331 
L 2906 616 
Q 2728 306 2450 153 
Q 2172 0 1784 0 
Q 1141 0 747 490 
Q 353 981 353 1791 
Q 353 2603 747 3093 
Q 1141 3584 1784 3584 
Q 2172 3584 2450 3431 
Q 2728 3278 2906 2969 
L 2906 3500 
L 3481 3500 
L 3481 434 
z
" transform="scale(0.015625)"/>
       <path id="DejaVuSans-29" d="M 513 4856 
L 1013 4856 
Q 1481 4119 1714 3412 
Q 1947 2706 1947 2009 
Q 1947 1309 1714 600 
Q 1481 -109 1013 -844 
L 513 -844 
Q 928 -128 1133 580 
Q 1338 1288 1338 2009 
Q 1338 2731 1133 3434 
Q 928 4138 513 4856 
z
" transform="scale(0.015625)"/>
      </defs>
      <use xlink:href="#DejaVuSans-52"/>
      <use xlink:href="#DejaVuSans-65" x="64.982422"/>
      <use xlink:href="#DejaVuSans-61" x="126.505859"/>
      <use xlink:href="#DejaVuSans-6c" x="187.785156"/>
      <use xlink:href="#DejaVuSans-20" x="215.568359"/>
      <use xlink:href="#DejaVuSans-55" x="247.355469"/>
      <use xlink:href="#DejaVuSans-53" x="320.548828"/>
      <use xlink:href="#DejaVuSans-20" x="384.025391"/>
      <use xlink:href="#DejaVuSans-47" x="415.8125"/>
      <use xlink:href="#DejaVuSans-44" x="493.302734"/>
      <use xlink:href="#DejaVuSans-50" x="570.304688"/>
      <use xlink:href="#DejaVuSans-20" x="630.607422"/>
      <use xlink:href="#DejaVuSans-70" x="662.394531"/>
      <use xlink:href="#DejaVuSans-65" x="725.871094"/>
      <use xlink:href="#DejaVuSans-72" x="787.394531"/>
      <use xlink:href="#DejaVuSans-20" x="828.507812"/>
      <use xlink:href="#DejaVuSans-63" x="860.294922"/>
      <use xlink:href="#DejaVuSans-61" x="915.275391"/>
      <use xlink:href="#DejaVuSans-70" x="976.554688"/>
      <use xlink:href="#DejaVuSans-69" x="1040.03125"/>
      <use xlink:href="#DejaVuSans-74" x="1067.814453"/>
      <use xlink:href="#DejaVuSans-61" x="1107.023438"/>
      <use xlink:href="#DejaVuSans-20" x="1168.302734"/>
      <use xlink:href="#DejaVuSans-28" x="1200.089844"/>
      <use xlink:href="#DejaVuSans-4c" x="1239.103516"/>
      <use xlink:href="#DejaVuSans-6f" x="1293.066406"/>
      <use xlink:href="#DejaVuSans-67" x="1354.248047"/>
      <use xlink:href="#DejaVuSans-31" x="1417.724609"/>
      <use xlink:href="#DejaVuSans-30" x="1481.347656"/>
      <use xlink:href="#DejaVuSans-29" x="1544.970703"/>
     </g>
    </g>
   </g>
   <g id="line2d_14">
    <path d="M -1 314.424472 
L 0.366745 311.8224 
L 1.905431 309.916669 
L 3.410667 307.233303 
L 4.932628 304.02437 
L 6.471314 304.549838 
L 8.01 303.209667 
L 9.531961 303.570061 
L 11.053922 302.989096 
L 12.592608 297.359298 
L 14.131294 294.368176 
L 15.63653 293.557987 
L 17.158491 295.62871 
L 18.697177 299.674701 
L 20.235862 301.520871 
L 21.741099 302.120751 
L 23.26306 300.773502 
L 24.801745 297.822534 
L 26.340431 292.949698 
L 27.845667 290.480038 
L 29.367628 288.677032 
L 30.906314 288.450077 
L 32.445 290.076775 
L 33.966961 289.229267 
L 35.488922 290.360065 
L 37.027608 288.05082 
L 38.566294 287.663105 
L 40.07153 288.93672 
L 41.593491 287.86764 
L 43.132177 290.905967 
L 44.670862 297.009746 
L 46.176099 296.458451 
L 49.236745 288.925893 
L 50.775431 285.948824 
L 52.280667 282.206616 
L 53.802628 282.930641 
L 55.341314 283.246241 
L 56.88 279.925568 
L 58.401961 282.238042 
L 59.923922 282.258995 
L 61.462608 285.692925 
L 63.001294 285.00148 
L 64.50653 282.363793 
L 69.105862 273.402627 
L 70.611099 272.282339 
L 72.13306 270.593619 
L 73.671745 270.74206 
L 76.715667 267.588855 
L 78.237628 263.946988 
L 79.776314 263.401999 
L 81.315 259.796248 
L 82.836961 258.235727 
L 84.358922 255.820585 
L 85.897608 255.912592 
L 87.436294 251.614658 
L 88.94153 249.615266 
L 92.002177 241.860374 
L 93.540862 237.476733 
L 95.046099 237.317112 
L 99.645431 233.894598 
L 101.150667 234.2748 
L 102.672628 232.930757 
L 104.211314 231.971467 
L 105.75 228.307471 
L 107.271961 225.404114 
L 108.793922 224.385055 
L 110.332608 224.133054 
L 111.871294 221.40478 
L 113.37653 221.257295 
L 114.898491 220.482822 
L 116.437177 222.073682 
L 117.975862 222.877719 
L 119.481099 223.222164 
L 121.00306 222.050311 
L 122.541745 224.945299 
L 124.080431 220.119837 
L 125.585667 219.611206 
L 127.107628 218.574774 
L 128.646314 218.720323 
L 130.185 215.511917 
L 131.706961 211.434556 
L 133.228922 210.049358 
L 134.767608 207.212822 
L 136.306294 202.687172 
L 137.81153 200.938466 
L 139.333491 202.517283 
L 140.872177 201.092986 
L 142.410862 203.261598 
L 143.916099 203.211892 
L 145.43806 205.6619 
L 146.976745 206.974003 
L 148.515431 209.873202 
L 150.020667 208.914368 
L 151.542628 206.064722 
L 153.081314 203.873266 
L 154.62 199.790278 
L 156.141961 198.738812 
L 157.663922 198.149313 
L 159.202608 197.223444 
L 160.741294 195.302308 
L 162.24653 191.882677 
L 163.768491 188.823697 
L 165.307177 189.399977 
L 166.845862 189.220956 
L 168.351099 182.032911 
L 169.87306 180.598645 
L 171.411745 178.475485 
L 172.950431 178.626405 
L 174.455667 178.941184 
L 175.977628 178.048484 
L 177.516314 178.173979 
L 179.055 178.104947 
L 180.576961 182.904781 
L 182.098922 183.754601 
L 183.637608 180.547835 
L 185.176294 177.022336 
L 186.68153 178.991594 
L 188.203491 177.128465 
L 189.742177 179.882127 
L 191.280862 183.496704 
L 192.786099 183.020456 
L 194.30806 184.31666 
L 195.846745 184.737606 
L 197.385431 182.487612 
L 198.890667 178.337239 
L 203.49 167.553841 
L 205.011961 164.485445 
L 206.533922 163.029614 
L 208.072608 161.861989 
L 209.611294 160.281033 
L 211.11653 158.929127 
L 212.638491 156.370371 
L 214.177177 155.374899 
L 215.715862 153.887994 
L 217.221099 153.404027 
L 218.74306 151.970041 
L 220.281745 151.369562 
L 221.820431 150.26689 
L 223.325667 148.5128 
L 224.847628 147.263696 
L 226.386314 144.304253 
L 227.925 143.662416 
L 229.446961 141.434443 
L 230.968922 140.775487 
L 232.507608 138.594277 
L 234.046294 136.947981 
L 235.55153 135.859515 
L 237.073491 134.918843 
L 238.612177 135.076165 
L 240.150862 133.327112 
L 241.656099 133.221439 
L 243.17806 133.805846 
L 244.716745 136.380025 
L 246.255431 137.959902 
L 247.760667 137.02998 
L 249.282628 136.727774 
L 250.821314 136.712419 
L 252.36 134.89348 
L 253.881961 133.382487 
L 256.942608 130.726478 
L 258.481294 130.985049 
L 259.98653 130.423574 
L 261.508491 130.150851 
L 263.047177 128.050792 
L 264.585862 126.633493 
L 266.091099 124.496997 
L 267.61306 123.967568 
L 269.151745 122.273071 
L 270.690431 122.101538 
L 272.195667 122.072963 
L 273.717628 121.004304 
L 275.256314 120.252493 
L 276.795 119.240298 
L 278.316961 116.455852 
L 279.838922 115.305685 
L 281.377608 113.855349 
L 282.916294 113.083923 
L 284.42153 110.310122 
L 285.943491 108.462441 
L 287.482177 107.369819 
L 289.020862 105.860505 
L 290.526099 104.545716 
L 292.04806 102.636949 
L 293.586745 100.005557 
L 295.125431 98.621902 
L 296.630667 97.487966 
L 298.152628 95.456011 
L 299.691314 92.762856 
L 301.23 92.540373 
L 302.751961 89.377937 
L 304.273922 89.722837 
L 305.812608 89.049812 
L 307.351294 90.182258 
L 308.85653 89.394155 
L 310.378491 90.740654 
L 311.917177 90.703924 
L 313.455862 89.450926 
L 314.961099 88.661609 
L 316.48306 88.354806 
L 318.021745 88.59698 
L 319.560431 87.951823 
L 321.065667 86.611624 
L 322.587628 83.768072 
L 324.126314 81.907271 
L 325.665 81.154459 
L 327.186961 80.02851 
L 330.247608 77.057407 
L 331.786294 75.245456 
L 333.29153 74.682756 
L 334.813491 73.610772 
L 336.352177 72.996465 
L 337.890862 70.727711 
L 339.396099 70.661148 
L 340.91806 70.87941 
L 342.456745 69.661625 
L 343.995431 69.499803 
L 345.500667 68.714597 
L 348.561314 67.316829 
L 350.1 68.630386 
L 351.621961 67.870406 
L 353.143922 69.433641 
L 354.682608 74.407638 
L 356.221294 77.137551 
L 357.72653 77.917743 
L 359.248491 77.672654 
L 360.787177 75.957672 
L 362.325862 75.381645 
L 363.831099 73.809695 
L 365.35306 72.682538 
L 366.891745 72.056136 
L 368.430431 72.906722 
L 369.935667 71.903557 
L 371.457628 72.380282 
L 372.996314 70.535476 
L 374.535 69.198571 
L 376.056961 68.656012 
L 379.117608 68.974773 
L 380.656294 67.309555 
L 382.16153 67.109626 
L 385.222177 64.481662 
L 386.760862 65.549683 
L 388.266099 63.315785 
L 389.78806 61.300289 
L 391.326745 60.71501 
L 392.865431 59.245164 
L 394.370667 58.355806 
L 395.892628 57.97336 
L 397.431314 58.028944 
L 398.97 57.217543 
L 400.491961 56.930515 
L 402.013922 55.906748 
L 406.59653 53.677219 
L 408.118491 52.446455 
L 409.657177 50.51203 
L 411.195862 49.113935 
L 412.701099 48.307493 
L 414.22306 47.36243 
L 415.761745 47.372321 
L 417.300431 46.484102 
L 418.805667 45.038385 
L 420.327628 43.047003 
L 421.866314 42.042527 
L 423.405 45.031867 
L 424.926961 61.841231 
L 426.448922 46.766595 
L 427.987608 44.777813 
L 429.526294 42.148535 
L 431.03153 39.185185 
L 432.553491 37.74 
L 434.092177 34.505324 
L 435.630862 35.634878 
L 437.136099 36.124022 
L 440.196745 34.038581 
L 443.240667 32.323043 
L 444.762628 30.212427 
L 446.301314 28.814426 
L 447.84 28.246505 
L 447.84 28.246505 
" clip-path="url(#pbe63da3cfd)" style="fill: none; stroke: #1a1a1a; stroke-width: 1.5; stroke-linecap: round"/>
   </g>
   <g id="line2d_15">
    <path d="M -1 314.424472 
L 0.366745 311.8224 
L 1.905431 309.916669 
L 3.410667 307.233303 
L 4.932628 304.02437 
L 6.471314 304.549838 
L 8.01 303.209667 
L 9.531961 303.570061 
L 11.053922 302.989096 
L 12.592608 297.359298 
L 14.131294 294.368176 
L 15.63653 293.557987 
L 17.158491 295.62871 
L 18.697177 299.674701 
L 20.235862 301.520871 
L 21.741099 302.120751 
L 23.26306 300.773502 
L 24.801745 297.822534 
L 26.340431 292.949698 
L 27.845667 290.480038 
L 29.367628 288.677032 
L 30.906314 288.450077 
L 32.445 290.076775 
L 33.966961 289.229267 
L 35.488922 290.360065 
L 37.027608 288.05082 
L 38.566294 287.663105 
L 40.07153 288.93672 
L 41.593491 287.86764 
L 43.132177 290.905967 
L 44.670862 297.009746 
L 46.176099 296.458451 
L 49.236745 288.925893 
L 50.775431 285.948824 
L 52.280667 282.206616 
L 53.802628 282.930641 
L 55.341314 283.246241 
L 56.88 279.925568 
L 58.401961 282.238042 
L 59.923922 282.258995 
L 61.462608 285.692925 
L 63.001294 285.00148 
L 64.50653 282.363793 
L 69.105862 273.402627 
L 70.611099 272.282339 
L 72.13306 270.593619 
L 73.671745 270.74206 
L 76.715667 267.588855 
L 78.237628 263.946988 
L 79.776314 263.401999 
L 81.315 259.796248 
L 82.836961 258.235727 
L 84.358922 255.820585 
L 85.897608 255.912592 
L 87.436294 251.614658 
L 88.94153 249.615266 
L 92.002177 241.860374 
L 93.540862 237.476733 
L 95.046099 237.317112 
L 99.645431 233.894598 
L 101.150667 234.2748 
L 102.672628 232.930757 
L 104.211314 231.971467 
L 105.75 228.307471 
L 107.271961 225.404114 
L 108.793922 224.385055 
L 110.332608 224.133054 
L 111.871294 221.40478 
L 113.37653 221.257295 
L 114.898491 220.482822 
L 116.437177 222.073682 
L 117.975862 222.877719 
L 119.481099 223.222164 
L 121.00306 222.050311 
L 122.541745 224.945299 
L 124.080431 220.119837 
L 125.585667 219.611206 
L 127.107628 218.574774 
L 128.646314 218.720323 
L 130.185 215.511917 
L 131.706961 211.434556 
L 133.228922 210.049358 
L 134.767608 207.212822 
L 136.306294 202.687172 
L 137.81153 200.938466 
L 139.333491 202.517283 
L 140.872177 201.092986 
L 142.410862 203.261598 
L 143.916099 203.211892 
L 145.43806 205.6619 
L 146.976745 206.974003 
L 148.515431 209.873202 
L 150.020667 208.914368 
L 151.542628 206.064722 
L 153.081314 203.873266 
L 154.62 199.790278 
L 156.141961 198.738812 
L 157.663922 198.149313 
L 159.202608 197.223444 
L 160.741294 195.302308 
L 162.24653 191.882677 
L 163.768491 188.823697 
L 165.307177 189.399977 
L 166.845862 189.220956 
L 168.351099 182.032911 
L 169.87306 180.598645 
L 171.411745 178.475485 
L 172.950431 178.626405 
L 174.455667 178.941184 
L 175.977628 178.048484 
L 177.516314 178.173979 
L 179.055 178.104947 
L 180.576961 182.904781 
L 182.098922 183.754601 
L 183.637608 180.547835 
L 185.176294 177.022336 
L 186.68153 178.991594 
L 188.203491 177.128465 
L 189.742177 179.882127 
L 191.280862 183.496704 
L 192.786099 183.020456 
L 194.30806 184.31666 
L 195.846745 184.737606 
L 197.385431 182.487612 
L 198.890667 178.337239 
L 203.49 167.553841 
L 205.011961 164.485445 
L 206.533922 163.029614 
L 208.072608 161.861989 
L 209.611294 160.281033 
L 211.11653 158.929127 
L 212.638491 156.370371 
L 214.177177 155.374899 
L 215.715862 153.887994 
L 217.221099 153.404027 
L 218.74306 151.970041 
L 220.281745 151.369562 
L 221.820431 150.26689 
L 223.325667 148.5128 
L 224.847628 147.263696 
L 226.386314 144.304253 
L 227.925 143.662416 
L 229.446961 141.434443 
L 230.968922 140.775487 
L 232.507608 138.594277 
L 234.046294 136.947981 
L 235.55153 135.859515 
L 237.073491 134.918843 
L 238.612177 135.076165 
L 240.150862 133.327112 
L 241.656099 133.221439 
L 243.17806 133.805846 
L 244.716745 136.380025 
L 246.255431 137.959902 
L 247.760667 137.02998 
L 249.282628 136.727774 
L 250.821314 136.712419 
L 252.36 134.89348 
L 253.881961 133.382487 
L 256.942608 130.726478 
L 258.481294 130.985049 
L 259.98653 130.423574 
L 261.508491 130.150851 
L 263.047177 128.050792 
L 264.585862 126.633493 
L 266.091099 124.496997 
L 267.61306 123.967568 
L 269.151745 122.273071 
L 270.690431 122.101538 
L 272.195667 122.072963 
L 273.717628 121.004304 
L 275.256314 120.252493 
L 276.795 119.240298 
L 278.316961 116.455852 
L 279.838922 115.305685 
L 281.377608 113.855349 
L 282.916294 113.083923 
L 284.42153 110.310122 
L 285.943491 108.462441 
L 287.482177 107.369819 
L 289.020862 105.860505 
L 290.526099 104.545716 
L 292.04806 102.636949 
L 293.586745 100.005557 
L 295.125431 98.621902 
L 296.630667 97.487966 
L 298.152628 95.456011 
L 299.691314 92.762856 
L 301.23 92.540373 
L 302.751961 89.377937 
L 304.273922 89.722837 
L 305.812608 89.049812 
L 307.351294 90.182258 
L 308.85653 89.394155 
L 310.378491 90.740654 
L 311.917177 90.703924 
L 313.455862 89.450926 
L 314.961099 88.661609 
L 316.48306 88.354806 
L 318.021745 88.59698 
L 319.560431 87.951823 
L 321.065667 86.611624 
L 322.587628 83.768072 
L 324.126314 81.907271 
L 325.665 81.154459 
L 327.186961 80.02851 
L 330.247608 77.057407 
L 331.786294 75.245456 
L 333.29153 74.682756 
L 334.813491 73.610772 
L 336.352177 72.996465 
L 337.890862 70.727711 
L 339.396099 70.661148 
L 340.91806 70.87941 
L 342.456745 69.661625 
L 343.995431 69.499803 
L 345.500667 68.714597 
L 348.561314 67.316829 
L 350.1 68.630386 
L 351.621961 67.870406 
L 353.143922 69.433641 
L 354.682608 74.407638 
L 356.221294 77.137551 
L 357.72653 77.917743 
L 359.248491 77.672654 
L 360.787177 75.957672 
L 362.325862 75.381645 
L 363.831099 73.809695 
L 365.35306 72.682538 
L 366.891745 72.056136 
L 368.430431 72.906722 
L 369.935667 71.903557 
L 371.457628 72.380282 
L 372.996314 70.535476 
L 374.535 69.198571 
L 376.056961 68.656012 
L 379.117608 68.974773 
L 380.656294 67.309555 
L 382.16153 67.109626 
L 385.222177 64.481662 
L 386.760862 65.549683 
L 388.266099 63.315785 
L 389.78806 61.300289 
L 391.326745 60.71501 
L 392.865431 59.245164 
L 394.370667 58.355806 
L 395.892628 57.97336 
L 397.431314 58.028944 
L 398.97 57.217543 
L 400.491961 56.930515 
L 402.013922 55.906748 
L 406.59653 53.677219 
L 408.118491 52.446455 
L 409.657177 50.51203 
L 411.195862 49.113935 
L 412.701099 48.307493 
L 414.22306 47.36243 
L 415.761745 47.372321 
L 417.300431 46.484102 
L 418.805667 45.038385 
L 420.327628 43.047003 
L 421.866314 42.042527 
L 423.405 45.031867 
L 424.926961 61.841231 
L 426.448922 46.766595 
L 427.987608 44.777813 
L 429.526294 42.148535 
L 431.03153 39.185185 
L 432.553491 37.74 
L 434.092177 34.505324 
L 435.630862 35.634878 
L 437.136099 36.124022 
L 440.196745 34.038581 
L 443.240667 32.323043 
L 444.762628 30.212427 
L 446.301314 28.814426 
L 447.84 28.246505 
L 447.84 28.246505 
" clip-path="url(#pbe63da3cfd)" style="fill: none; stroke: #1a1a1a; stroke-width: 1.5; stroke-linecap: round"/>
   </g>
   <g id="line2d_16">
    <path d="M 345.500667 68.714597 
L 347.022628 67.642878 
L 348.561314 66.559382 
L 350.1 65.475885 
L 351.621961 64.404166 
L 353.143922 63.332447 
L 354.682608 62.248951 
L 356.221294 61.165455 
L 357.72653 60.105513 
L 359.248491 59.033793 
L 360.787177 57.950297 
L 362.325862 56.866801 
L 363.831099 55.806859 
L 365.35306 54.73514 
L 366.891745 53.651644 
L 368.430431 52.568147 
L 369.935667 51.508205 
L 371.457628 50.436486 
L 372.996314 49.35299 
" clip-path="url(#pbe63da3cfd)" style="fill: none; stroke-dasharray: 3.7,1.6; stroke-dashoffset: 0; stroke: #000000"/>
   </g>
   <g id="line2d_17">
    <path d="M 238.612177 135.076165 
L 240.150862 133.676619 
L 241.656099 132.307496 
L 243.17806 130.923162 
L 244.716745 129.523615 
L 246.255431 128.124068 
L 247.760667 126.754946 
L 249.282628 125.370611 
L 250.821314 123.971064 
L 252.36 122.571517 
L 253.881961 121.187183 
L 255.403922 119.802848 
L 256.942608 118.403302 
L 258.481294 117.003755 
L 259.98653 115.634632 
L 261.508491 114.250298 
L 263.047177 112.850751 
L 264.585862 111.451204 
L 266.091099 110.082082 
" clip-path="url(#pbe63da3cfd)" style="fill: none; stroke-dasharray: 3.7,1.6; stroke-dashoffset: 0; stroke: #000000"/>
   </g>
   <g id="line2d_18">
    <path d="M 171.411745 178.475485 
L 172.950431 176.433425 
L 174.455667 174.435758 
L 175.977628 172.415895 
L 177.516314 170.373835 
L 179.055 168.331776 
L 180.576961 166.311913 
L 182.098922 164.292049 
L 183.637608 162.24999 
L 185.176294 160.20793 
L 186.68153 158.210264 
L 188.203491 156.1904 
L 189.742177 154.148341 
L 191.280862 152.106281 
L 192.786099 150.108614 
L 194.30806 148.088751 
L 195.846745 146.046692 
L 197.385431 144.004632 
L 198.890667 142.006965 
" clip-path="url(#pbe63da3cfd)" style="fill: none; stroke-dasharray: 3.7,1.6; stroke-dashoffset: 0; stroke: #000000"/>
   </g>
   <g id="line2d_19">
    <path d="M 93.540862 237.476733 
L 95.046099 235.364488 
L 96.56806 233.228773 
L 98.106745 231.069589 
L 99.645431 228.910405 
L 101.150667 226.798159 
L 102.672628 224.662444 
L 104.211314 222.50326 
L 105.75 220.344076 
L 107.271961 218.208361 
L 108.793922 216.072646 
L 110.332608 213.913462 
L 111.871294 211.754278 
L 113.37653 209.642033 
L 114.898491 207.506318 
L 116.437177 205.347134 
L 117.975862 203.187949 
L 119.481099 201.075704 
L 121.00306 198.939989 
" clip-path="url(#pbe63da3cfd)" style="fill: none; stroke-dasharray: 3.7,1.6; stroke-dashoffset: 0; stroke: #000000"/>
   </g>
   <g id="line2d_20">
    <path d="M 345.500667 68.714597 
L 347.022628 67.642878 
L 348.561314 66.559382 
L 350.1 65.475885 
L 351.621961 64.404166 
L 353.143922 63.332447 
L 354.682608 62.248951 
L 356.221294 61.165455 
L 357.72653 60.105513 
L 359.248491 59.033793 
L 360.787177 57.950297 
L 362.325862 56.866801 
L 363.831099 55.806859 
L 365.35306 54.73514 
L 366.891745 53.651644 
L 368.430431 52.568147 
L 369.935667 51.508205 
L 371.457628 50.436486 
L 372.996314 49.35299 
" clip-path="url(#pbe63da3cfd)" style="fill: none; stroke-dasharray: 3.7,1.6; stroke-dashoffset: 0; stroke: #000000"/>
   </g>
   <g id="line2d_21">
    <path d="M 238.612177 135.076165 
L 240.150862 133.676619 
L 241.656099 132.307496 
L 243.17806 130.923162 
L 244.716745 129.523615 
L 246.255431 128.124068 
L 247.760667 126.754946 
L 249.282628 125.370611 
L 250.821314 123.971064 
L 252.36 122.571517 
L 253.881961 121.187183 
L 255.403922 119.802848 
L 256.942608 118.403302 
L 258.481294 117.003755 
L 259.98653 115.634632 
L 261.508491 114.250298 
L 263.047177 112.850751 
L 264.585862 111.451204 
L 266.091099 110.082082 
" clip-path="url(#pbe63da3cfd)" style="fill: none; stroke-dasharray: 3.7,1.6; stroke-dashoffset: 0; stroke: #000000"/>
   </g>
   <g id="line2d_22">
    <path d="M 171.411745 178.475485 
L 172.950431 176.433425 
L 174.455667 174.435758 
L 175.977628 172.415895 
L 177.516314 170.373835 
L 179.055 168.331776 
L 180.576961 166.311913 
L 182.098922 164.292049 
L 183.637608 162.24999 
L 185.176294 160.20793 
L 186.68153 158.210264 
L 188.203491 156.1904 
L 189.742177 154.148341 
L 191.280862 152.106281 
L 192.786099 150.108614 
L 194.30806 148.088751 
L 195.846745 146.046692 
L 197.385431 144.004632 
L 198.890667 142.006965 
" clip-path="url(#pbe63da3cfd)" style="fill: none; stroke-dasharray: 3.7,1.6; stroke-dashoffset: 0; stroke: #000000"/>
   </g>
   <g id="line2d_23">
    <path d="M 93.540862 237.476733 
L 95.046099 235.364488 
L 96.56806 233.228773 
L 98.106745 231.069589 
L 99.645431 228.910405 
L 101.150667 226.798159 
L 102.672628 224.662444 
L 104.211314 222.50326 
L 105.75 220.344076 
L 107.271961 218.208361 
L 108.793922 216.072646 
L 110.332608 213.913462 
L 111.871294 211.754278 
L 113.37653 209.642033 
L 114.898491 207.506318 
L 116.437177 205.347134 
L 117.975862 203.187949 
L 119.481099 201.075704 
L 121.00306 198.939989 
" clip-path="url(#pbe63da3cfd)" style="fill: none; stroke-dasharray: 3.7,1.6; stroke-dashoffset: 0; stroke: #000000"/>
   </g>
   <g id="patch_3">
    <path d="M 56.88 299.836926 
L 56.88 12.96 
" style="fill: none; stroke: #ffffff; stroke-width: 1.25; stroke-linejoin: miter; stroke-linecap: square"/>
   </g>
   <g id="patch_4">
    <path d="M 447.84 299.836926 
L 447.84 12.96 
" style="fill: none; stroke: #ffffff; stroke-width: 1.25; stroke-linejoin: miter; stroke-linecap: square"/>
   </g>
   <g id="patch_5">
    <path d="M 56.88 299.836926 
L 447.84 299.836926 
" style="fill: none; stroke: #ffffff; stroke-width: 1.25; stroke-linejoin: miter; stroke-linecap: square"/>
   </g>
   <g id="patch_6">
    <path d="M 56.88 12.96 
L 447.84 12.96 
" style="fill: none; stroke: #ffffff; stroke-width: 1.25; stroke-linejoin: miter; stroke-linecap: square"/>
   </g>
  </g>
 </g>
 <defs>
  <clipPath id="pbe63da3cfd">
   <rect x="56.88" y="12.96" width="390.96" height="286.876926"/>
  </clipPath>
 </defs>
</svg>
