<?xml version="1.0" encoding="utf-8" standalone="no"?>
<!DOCTYPE svg PUBLIC "-//W3C//DTD SVG 1.1//EN"
  "http://www.w3.org/Graphics/SVG/1.1/DTD/svg11.dtd">
<svg xmlns:xlink="http://www.w3.org/1999/xlink" width="576pt" height="288pt" viewBox="0 0 576 288" xmlns="http://www.w3.org/2000/svg" version="1.1">
 <metadata>
  <rdf:RDF xmlns:dc="http://purl.org/dc/elements/1.1/" xmlns:cc="http://creativecommons.org/ns#" xmlns:rdf="http://www.w3.org/1999/02/22-rdf-syntax-ns#">
   <cc:Work>
    <dc:type rdf:resource="http://purl.org/dc/dcmitype/StillImage"/>
    <dc:date>2024-05-07T22:46:08.445479</dc:date>
    <dc:format>image/svg+xml</dc:format>
    <dc:creator>
     <cc:Agent>
      <dc:title>Matplotlib v3.8.3, https://matplotlib.org/</dc:title>
     </cc:Agent>
    </dc:creator>
   </cc:Work>
  </rdf:RDF>
 </metadata>
 <defs>
  <style type="text/css">*{stroke-linejoin: round; stroke-linecap: butt}</style>
 </defs>
 <g id="figure_1">
  <g id="patch_1">
   <path d="M 0 288 
L 576 288 
L 576 0 
L 0 0 
L 0 288 
z
" style="fill: none"/>
  </g>
  <g id="axes_1">
   <g id="patch_2">
    <path d="M 16.425 237.78 
L 556.11 237.78 
L 556.11 36.836 
L 16.425 36.836 
L 16.425 237.78 
z
" style="fill: none"/>
   </g>
   <g id="matplotlib.axis_1">
    <g id="xtick_1">
     <g id="line2d_1">
      <path d="M 16.425 237.78 
L 16.425 36.836 
" clip-path="url(#pa04f6e70e6)" style="fill: none; stroke: #ffffff; stroke-linecap: round"/>
     </g>
     <g id="text_1">
      <!-- 2 -->
      <g style="fill: #262626" transform="translate(12.925625 255.638281) scale(0.11 -0.11)">
       <defs>
        <path id="DejaVuSans-32" d="M 1228 531 
L 3431 531 
L 3431 0 
L 469 0 
L 469 531 
Q 828 903 1448 1529 
Q 2069 2156 2228 2338 
Q 2531 2678 2651 2914 
Q 2772 3150 2772 3378 
Q 2772 3750 2511 3984 
Q 2250 4219 1831 4219 
Q 1534 4219 1204 4116 
Q 875 4013 500 3803 
L 500 4441 
Q 881 4594 1212 4672 
Q 1544 4750 1819 4750 
Q 2544 4750 2975 4387 
Q 3406 4025 3406 3419 
Q 3406 3131 3298 2873 
Q 3191 2616 2906 2266 
Q 2828 2175 2409 1742 
Q 1991 1309 1228 531 
z
" transform="scale(0.015625)"/>
       </defs>
       <use xlink:href="#DejaVuSans-32"/>
      </g>
     </g>
    </g>
    <g id="xtick_2">
     <g id="line2d_2">
      <path d="M 166.966324 237.78 
L 166.966324 36.836 
" clip-path="url(#pa04f6e70e6)" style="fill: none; stroke: #ffffff; stroke-linecap: round"/>
     </g>
     <g id="text_2">
      <!-- 4 -->
      <g style="fill: #262626" transform="translate(163.466949 255.638281) scale(0.11 -0.11)">
       <defs>
        <path id="DejaVuSans-34" d="M 2419 4116 
L 825 1625 
L 2419 1625 
L 2419 4116 
z
M 2253 4666 
L 3047 4666 
L 3047 1625 
L 3713 1625 
L 3713 1100 
L 3047 1100 
L 3047 0 
L 2419 0 
L 2419 1100 
L 313 1100 
L 313 1709 
L 2253 4666 
z
" transform="scale(0.015625)"/>
       </defs>
       <use xlink:href="#DejaVuSans-34"/>
      </g>
     </g>
    </g>
    <g id="xtick_3">
     <g id="line2d_3">
      <path d="M 255.027353 237.78 
L 255.027353 36.836 
" clip-path="url(#pa04f6e70e6)" style="fill: none; stroke: #ffffff; stroke-linecap: round"/>
     </g>
     <g id="text_3">
      <!-- 6 -->
      <g style="fill: #262626" transform="translate(251.527978 255.638281) scale(0.11 -0.11)">
       <defs>
        <path id="DejaVuSans-36" d="M 2113 2584 
Q 1688 2584 1439 2293 
Q 1191 2003 1191 1497 
Q 1191 994 1439 701 
Q 1688 409 2113 409 
Q 2538 409 2786 701 
Q 3034 994 3034 1497 
Q 3034 2003 2786 2293 
Q 2538 2584 2113 2584 
z
M 3366 4563 
L 3366 3988 
Q 3128 4100 2886 4159 
Q 2644 4219 2406 4219 
Q 1781 4219 1451 3797 
Q 1122 3375 1075 2522 
Q 1259 2794 1537 2939 
Q 1816 3084 2150 3084 
Q 2853 3084 3261 2657 
Q 3669 2231 3669 1497 
Q 3669 778 3244 343 
Q 2819 -91 2113 -91 
Q 1303 -91 875 529 
Q 447 1150 447 2328 
Q 447 3434 972 4092 
Q 1497 4750 2381 4750 
Q 2619 4750 2861 4703 
Q 3103 4656 3366 4563 
z
" transform="scale(0.015625)"/>
       </defs>
       <use xlink:href="#DejaVuSans-36"/>
      </g>
     </g>
    </g>
    <g id="xtick_4">
     <g id="line2d_4">
      <path d="M 405.568676 237.78 
L 405.568676 36.836 
" clip-path="url(#pa04f6e70e6)" style="fill: none; stroke: #ffffff; stroke-linecap: round"/>
     </g>
     <g id="text_4">
      <!-- 12 -->
      <g style="fill: #262626" transform="translate(398.569926 255.638281) scale(0.11 -0.11)">
       <defs>
        <path id="DejaVuSans-31" d="M 794 531 
L 1825 531 
L 1825 4091 
L 703 3866 
L 703 4441 
L 1819 4666 
L 2450 4666 
L 2450 531 
L 3481 531 
L 3481 0 
L 794 0 
L 794 531 
z
" transform="scale(0.015625)"/>
       </defs>
       <use xlink:href="#DejaVuSans-31"/>
       <use xlink:href="#DejaVuSans-32" x="63.623047"/>
      </g>
     </g>
    </g>
    <g id="xtick_5">
     <g id="line2d_5">
      <path d="M 556.11 237.78 
L 556.11 36.836 
" clip-path="url(#pa04f6e70e6)" style="fill: none; stroke: #ffffff; stroke-linecap: round"/>
     </g>
     <g id="text_5">
      <!-- 24 -->
      <g style="fill: #262626" transform="translate(549.11125 255.638281) scale(0.11 -0.11)">
       <use xlink:href="#DejaVuSans-32"/>
       <use xlink:href="#DejaVuSans-34" x="63.623047"/>
      </g>
     </g>
    </g>
    <g id="xtick_6"/>
    <g id="xtick_7"/>
    <g id="xtick_8"/>
    <g id="xtick_9"/>
    <g id="xtick_10"/>
    <g id="xtick_11"/>
    <g id="xtick_12"/>
    <g id="xtick_13"/>
    <g id="xtick_14"/>
    <g id="text_6">
     <!-- Years -->
     <g style="fill: #262626" transform="translate(270.436875 271.044062) scale(0.12 -0.12)">
      <defs>
       <path id="DejaVuSans-59" d="M -13 4666 
L 666 4666 
L 1959 2747 
L 3244 4666 
L 3922 4666 
L 2272 2222 
L 2272 0 
L 1638 0 
L 1638 2222 
L -13 4666 
z
" transform="scale(0.015625)"/>
       <path id="DejaVuSans-65" d="M 3597 1894 
L 3597 1613 
L 953 1613 
Q 991 1019 1311 708 
Q 1631 397 2203 397 
Q 2534 397 2845 478 
Q 3156 559 3463 722 
L 3463 178 
Q 3153 47 2828 -22 
Q 2503 -91 2169 -91 
Q 1331 -91 842 396 
Q 353 884 353 1716 
Q 353 2575 817 3079 
Q 1281 3584 2069 3584 
Q 2775 3584 3186 3129 
Q 3597 2675 3597 1894 
z
M 3022 2063 
Q 3016 2534 2758 2815 
Q 2500 3097 2075 3097 
Q 1594 3097 1305 2825 
Q 1016 2553 972 2059 
L 3022 2063 
z
" transform="scale(0.015625)"/>
       <path id="DejaVuSans-61" d="M 2194 1759 
Q 1497 1759 1228 1600 
Q 959 1441 959 1056 
Q 959 750 1161 570 
Q 1363 391 1709 391 
Q 2188 391 2477 730 
Q 2766 1069 2766 1631 
L 2766 1759 
L 2194 1759 
z
M 3341 1997 
L 3341 0 
L 2766 0 
L 2766 531 
Q 2569 213 2275 61 
Q 1981 -91 1556 -91 
Q 1019 -91 701 211 
Q 384 513 384 1019 
Q 384 1609 779 1909 
Q 1175 2209 1959 2209 
L 2766 2209 
L 2766 2266 
Q 2766 2663 2505 2880 
Q 2244 3097 1772 3097 
Q 1472 3097 1187 3025 
Q 903 2953 641 2809 
L 641 3341 
Q 956 3463 1253 3523 
Q 1550 3584 1831 3584 
Q 2591 3584 2966 3190 
Q 3341 2797 3341 1997 
z
" transform="scale(0.015625)"/>
       <path id="DejaVuSans-72" d="M 2631 2963 
Q 2534 3019 2420 3045 
Q 2306 3072 2169 3072 
Q 1681 3072 1420 2755 
Q 1159 2438 1159 1844 
L 1159 0 
L 581 0 
L 581 3500 
L 1159 3500 
L 1159 2956 
Q 1341 3275 1631 3429 
Q 1922 3584 2338 3584 
Q 2397 3584 2469 3576 
Q 2541 3569 2628 3553 
L 2631 2963 
z
" transform="scale(0.015625)"/>
       <path id="DejaVuSans-73" d="M 2834 3397 
L 2834 2853 
Q 2591 2978 2328 3040 
Q 2066 3103 1784 3103 
Q 1356 3103 1142 2972 
Q 928 2841 928 2578 
Q 928 2378 1081 2264 
Q 1234 2150 1697 2047 
L 1894 2003 
Q 2506 1872 2764 1633 
Q 3022 1394 3022 966 
Q 3022 478 2636 193 
Q 2250 -91 1575 -91 
Q 1294 -91 989 -36 
Q 684 19 347 128 
L 347 722 
Q 666 556 975 473 
Q 1284 391 1588 391 
Q 1994 391 2212 530 
Q 2431 669 2431 922 
Q 2431 1156 2273 1281 
Q 2116 1406 1581 1522 
L 1381 1569 
Q 847 1681 609 1914 
Q 372 2147 372 2553 
Q 372 3047 722 3315 
Q 1072 3584 1716 3584 
Q 2034 3584 2315 3537 
Q 2597 3491 2834 3397 
z
" transform="scale(0.015625)"/>
      </defs>
      <use xlink:href="#DejaVuSans-59"/>
      <use xlink:href="#DejaVuSans-65" x="47.833984"/>
      <use xlink:href="#DejaVuSans-61" x="109.357422"/>
      <use xlink:href="#DejaVuSans-72" x="170.636719"/>
      <use xlink:href="#DejaVuSans-73" x="211.75"/>
     </g>
    </g>
   </g>
   <g id="matplotlib.axis_2"/>
   <g id="line2d_6">
    <path d="M 555.992763 231.381557 
L 537.88351 230.221382 
L 522.513514 229.022016 
L 508.159718 227.698115 
L 497.082717 226.454963 
L 487.68946 225.188969 
L 478.685674 223.755957 
L 471.102378 222.340625 
L 463.774952 220.742871 
L 456.686694 218.940736 
L 449.822481 216.946711 
L 444.106751 215.060047 
L 438.537594 212.989504 
L 433.10768 210.721011 
L 427.810217 208.245522 
L 422.638896 205.559207 
L 417.587849 202.671447 
L 412.651609 199.604687 
L 407.030975 195.821404 
L 401.552139 191.852779 
L 395.455311 187.154972 
L 387.342186 180.579987 
L 376.745684 171.675896 
L 367.30136 163.857355 
L 361.439934 159.273026 
L 356.359346 155.552651 
L 352.009282 152.621765 
L 347.744639 150.003591 
L 343.562126 147.690666 
L 339.458639 145.669174 
L 335.431248 143.91934 
L 331.477182 142.424791 
L 327.593818 141.202203 
L 323.778672 140.225859 
L 320.029389 139.476644 
L 316.343733 138.941527 
L 312.719581 138.613938 
L 307.143924 138.397501 
L 300.733907 138.035344 
L 296.881296 137.614534 
L 294.036034 137.101399 
L 291.693129 136.483283 
L 289.375228 135.637963 
L 286.626012 134.398426 
L 284.361286 133.161205 
L 282.119933 131.690067 
L 279.901474 129.953239 
L 277.705447 127.929594 
L 275.531402 125.608958 
L 273.378905 122.992259 
L 270.823755 119.479108 
L 268.298317 115.562144 
L 265.801908 111.241258 
L 262.92524 105.776761 
L 259.68361 99.121314 
L 254.910116 88.730908 
L 248.704402 75.266723 
L 245.666797 69.285577 
L 243.416153 65.313495 
L 241.558269 62.41347 
L 239.716144 59.941288 
L 238.253612 58.305035 
L 236.800863 56.997881 
L 235.357766 56.025233 
L 234.281702 55.51801 
L 233.210943 55.208757 
L 232.145437 55.103636 
L 231.085132 55.207604 
L 230.029979 55.524386 
L 228.979928 56.056458 
L 227.934929 56.805032 
L 226.894934 57.770051 
L 225.515975 59.390956 
L 224.145717 61.387513 
L 222.78405 63.749166 
L 221.093884 67.190546 
L 219.41677 71.111824 
L 217.421179 76.358189 
L 215.115932 83.089457 
L 212.187547 92.387908 
L 204.566231 117.02313 
L 201.775805 125.208682 
L 199.629991 130.824079 
L 197.807447 135.018454 
L 196.00007 138.613085 
L 194.20761 141.620731 
L 193.020802 143.26849 
L 191.840445 144.569224 
L 190.666468 145.544649 
L 189.498802 146.216562 
L 188.337381 146.606636 
L 187.182138 146.736221 
L 186.033007 146.626138 
L 184.889924 146.296487 
L 183.752826 145.766456 
L 182.339775 144.849775 
L 180.65616 143.465036 
L 178.431452 141.33963 
L 174.049256 136.726931 
L 171.354616 134.082899 
L 169.488065 132.552793 
L 167.900833 131.514966 
L 166.586944 130.888402 
L 165.280956 130.511656 
L 164.24179 130.40751 
L 163.207573 130.490237 
L 162.178257 130.767921 
L 161.153796 131.246154 
L 160.134146 131.927975 
L 158.866277 133.06207 
L 157.605768 134.501606 
L 156.352531 136.250186 
L 154.858132 138.732092 
L 153.127563 142.105855 
L 151.166509 146.493493 
L 148.739834 152.562056 
L 145.625155 161.009364 
L 140.686242 174.419229 
L 138.373278 180.055132 
L 136.540481 184.010017 
L 134.949373 186.977902 
L 133.369837 189.45504 
L 132.025033 191.176939 
L 130.688504 192.528543 
L 129.36015 193.518815 
L 128.259361 194.077854 
L 127.164123 194.413454 
L 126.074381 194.54628 
L 124.773867 194.468603 
L 123.481094 194.173772 
L 121.76928 193.529556 
L 119.016042 192.182465 
L 114.434784 189.892436 
L 112.588134 189.266705 
L 110.959746 188.931382 
L 109.343477 188.816422 
L 107.739146 188.9289 
L 105.552366 189.333951 
L 101.631949 190.127765 
L 99.697962 190.28244 
L 98.163078 190.192955 
L 96.828895 189.911378 
L 95.502858 189.420958 
L 93.997236 188.605326 
L 92.501979 187.524494 
L 90.832029 186.019297 
L 88.625216 183.701599 
L 84.277744 179.064754 
L 82.491671 177.507262 
L 81.073314 176.560765 
L 79.839804 175.996004 
L 78.613261 175.699699 
L 77.567423 175.677812 
L 76.526597 175.881594 
L 75.490736 176.305847 
L 74.288442 177.06639 
L 73.092767 178.091828 
L 71.734294 179.551352 
L 70.2161 181.503402 
L 68.374827 184.277743 
L 66.053741 188.235726 
L 58.916318 200.795552 
L 57.168019 203.222665 
L 55.590778 205.047404 
L 54.180988 206.329247 
L 52.935477 207.151585 
L 51.851485 207.621057 
L 50.772876 207.864844 
L 49.699597 207.888934 
L 48.479452 207.665561 
L 47.114933 207.151157 
L 45.458746 206.253474 
L 39.978842 203.026151 
L 38.666541 202.64136 
L 37.50667 202.546287 
L 36.49684 202.683454 
L 35.491684 203.036356 
L 34.491158 203.613266 
L 33.353315 204.548107 
L 32.221402 205.767317 
L 30.814757 207.649684 
L 29.138722 210.318992 
L 26.51117 215.032568 
L 23.507933 220.289954 
L 21.61818 223.170584 
L 20.011377 225.225159 
L 18.548845 226.752345 
L 17.227763 227.800986 
L 16.438953 228.30153 
L 16.438953 228.30153 
" style="fill: none; stroke: #1a1a1a; stroke-width: 1.5; stroke-linecap: round"/>
   </g>
   <g id="line2d_7">
    <path d="M 554.623686 228.466698 
L 536.639467 227.069288 
L 525.427418 225.974863 
L 514.76588 224.707315 
L 505.847932 223.418699 
L 498.485016 222.140005 
L 491.363551 220.655417 
L 485.602332 219.225111 
L 479.989999 217.584374 
L 475.602269 216.095914 
L 470.239399 214.004861 
L 466.042452 212.144288 
L 461.925074 210.096816 
L 457.884302 207.845509 
L 453.917338 205.375061 
L 450.021535 202.671937 
L 446.194383 199.724499 
L 442.433506 196.523121 
L 438.736647 193.060275 
L 435.101663 189.330601 
L 431.526517 185.330324 
L 428.009271 181.058137 
L 424.548079 176.515318 
L 421.141182 171.708687 
L 416.956366 165.390787 
L 412.850663 158.760241 
L 408.821137 151.848337 
L 404.082362 143.242518 
L 398.681386 132.890778 
L 391.92897 119.367315 
L 379.720305 94.750215 
L 374.886095 85.565544 
L 370.82644 78.35607 
L 367.500414 72.929659 
L 364.875787 69.025538 
L 362.2825 65.548863 
L 359.719813 62.531532 
L 357.817448 60.586823 
L 355.931602 58.926254 
L 354.061991 57.558438 
L 352.208336 56.48914 
L 350.370368 55.72131 
L 348.547824 55.258771 
L 346.740447 55.103636 
L 344.947987 55.256301 
L 343.170199 55.716204 
L 341.406845 56.481692 
L 339.657693 57.548103 
L 337.922515 58.909165 
L 336.201091 60.557031 
L 334.493204 62.48232 
L 332.798642 64.674164 
L 330.559599 67.989822 
L 328.343405 71.724474 
L 326.149596 75.841256 
L 323.438135 81.462574 
L 320.760108 87.539616 
L 317.589464 95.372497 
L 313.94795 105.068609 
L 309.353967 118.04119 
L 295.179373 158.676557 
L 291.426619 168.505639 
L 288.195324 176.321127 
L 285.463398 182.405835 
L 282.76541 187.914228 
L 280.100528 192.854158 
L 277.467947 197.24759 
L 274.866896 201.130069 
L 272.296626 204.549965 
L 269.756419 207.56728 
L 267.245579 210.187908 
L 264.763436 212.4383 
L 262.309339 214.383647 
L 259.480841 216.344519 
L 256.292743 218.272731 
L 252.761199 220.146617 
L 248.903456 221.947013 
L 239.915198 225.714379 
L 233.76633 228.093132 
L 228.83009 229.75921 
L 224.686526 230.925113 
L 220.956477 231.743627 
L 217.28941 232.325498 
L 213.683233 232.66695 
L 210.135957 232.772203 
L 206.645688 232.657975 
L 202.901023 232.317223 
L 198.612318 231.700917 
L 192.333987 230.537015 
L 185.374185 229.287443 
L 181.134912 228.759173 
L 177.52664 228.542877 
L 174.24831 228.569555 
L 171.018731 228.814462 
L 167.573377 229.300059 
L 163.406626 230.133572 
L 157.052012 231.673756 
L 151.121672 233.032532 
L 147.016882 233.7459 
L 143.458333 234.138593 
L 139.725735 234.3288 
L 135.601841 234.311923 
L 130.001087 234.046866 
L 121.54248 233.652664 
L 117.120719 233.68857 
L 112.787188 233.947393 
L 107.9382 234.46784 
L 92.887378 236.268251 
L 87.911342 236.521206 
L 82.157755 236.576931 
L 75.173706 236.415532 
L 65.429811 235.942473 
L 59.115372 235.739971 
L 54.067994 235.809675 
L 46.409047 236.193927 
L 39.593672 236.428823 
L 27.81269 236.746496 
L 16.506817 237.362525 
L 16.506817 237.362525 
" style="fill: none; stroke: #1a1a1a; stroke-opacity: 0.5; stroke-width: 0.5; stroke-linecap: round"/>
   </g>
   <g id="line2d_8">
    <path d="M 554.554353 231.189878 
L 510.829646 230.288607 
L 483.270633 229.70565 
L 470.170066 229.203907 
L 460.838478 228.653075 
L 452.867484 227.974992 
L 446.12505 227.192158 
L 439.585647 226.21967 
L 434.133012 225.210992 
L 428.813924 224.017726 
L 423.621998 222.62182 
L 418.551296 221.009309 
L 413.596285 219.170604 
L 408.751804 217.100698 
L 404.013029 214.799773 
L 399.375446 212.285897 
L 394.834823 209.569786 
L 390.387189 206.665308 
L 385.310843 203.068295 
L 380.350442 199.288414 
L 374.134861 194.24324 
L 366.114803 187.391296 
L 351.524617 174.809385 
L 346.071982 170.44728 
L 341.337512 166.961307 
L 337.277857 164.255472 
L 333.292695 161.88145 
L 329.379342 159.82509 
L 325.535256 158.073592 
L 321.758026 156.602592 
L 317.520131 155.210678 
L 312.336467 153.772422 
L 304.29165 151.573641 
L 300.863628 150.408766 
L 297.967782 149.206308 
L 295.583727 148.008057 
L 293.225558 146.589973 
L 290.892719 144.914578 
L 288.584672 142.946301 
L 286.300894 140.651994 
L 284.040882 138.025616 
L 281.804145 135.11893 
L 279.590209 131.907799 
L 277.398614 128.386656 
L 274.797563 123.765705 
L 272.227293 118.748988 
L 269.266592 112.476171 
L 265.518336 103.95283 
L 259.010427 88.443952 
L 254.646741 78.264286 
L 251.914816 72.379344 
L 249.600209 67.857207 
L 247.690036 64.527135 
L 245.796518 61.643478 
L 243.919365 59.24276 
L 242.429237 57.694474 
L 240.949264 56.496549 
L 239.845865 55.837497 
L 238.748044 55.387191 
L 237.655744 55.146905 
L 236.56891 55.117062 
L 235.487487 55.297225 
L 234.411423 55.686108 
L 233.340664 56.281575 
L 232.275158 57.080655 
L 230.862566 58.456162 
L 229.459102 60.175634 
L 228.06465 62.225467 
L 226.334081 65.227903 
L 224.617193 68.681387 
L 222.574684 73.342609 
L 220.551204 78.505069 
L 218.214062 85.045547 
L 215.245653 94.037498 
L 210.066624 110.64066 
L 205.634119 124.558748 
L 202.83169 132.702929 
L 200.370641 139.205782 
L 198.239865 144.236551 
L 196.129791 148.609693 
L 194.33733 151.828047 
L 192.559542 154.574868 
L 190.796189 156.902607 
L 189.337585 158.475791 
L 187.888712 159.727276 
L 186.449441 160.688462 
L 185.019645 161.390626 
L 183.599201 161.864466 
L 181.90684 162.173363 
L 180.227564 162.244518 
L 178.28468 162.084193 
L 176.359023 161.691482 
L 171.752301 160.454588 
L 168.030554 159.551328 
L 165.671247 159.187111 
L 163.853787 159.088711 
L 162.051409 159.206618 
L 160.263867 159.545834 
L 158.490916 160.127344 
L 156.732322 160.966844 
L 154.987853 162.073802 
L 153.257284 163.451182 
L 151.540396 165.091673 
L 149.594715 167.254725 
L 147.666309 169.734213 
L 145.517125 172.860997 
L 143.153824 176.684604 
L 140.351395 181.638744 
L 136.214409 189.477 
L 127.51245 206.09862 
L 124.471808 211.430129 
L 121.68597 215.858118 
L 119.356316 219.168981 
L 117.259917 221.790651 
L 115.390305 223.792361 
L 113.53665 225.481537 
L 111.698683 226.846726 
L 110.07789 227.786511 
L 108.469103 228.477825 
L 106.673349 228.986791 
L 104.892322 229.259785 
L 103.12578 229.302401 
L 100.986007 229.118439 
L 98.292799 228.645837 
L 94.31459 227.706022 
L 87.842009 226.246668 
L 78.917779 224.239536 
L 73.904925 222.785481 
L 66.513531 220.611031 
L 61.937601 219.530664 
L 54.936152 217.916042 
L 52.599967 217.091509 
L 49.982319 215.922927 
L 46.942588 214.293335 
L 42.905294 212.124646 
L 41.134752 211.418205 
L 39.670248 211.066841 
L 38.360584 210.987518 
L 37.203032 211.128001 
L 36.051616 211.472816 
L 34.906273 212.027952 
L 33.624941 212.89935 
L 32.210048 214.148183 
L 30.524255 215.959265 
L 28.573894 218.375376 
L 22.825745 225.727081 
L 21.076954 227.508952 
L 19.475089 228.81457 
L 18.01702 229.716437 
L 16.568674 230.344421 
L 16.437484 230.388506 
L 16.437484 230.388506 
" style="fill: none; stroke: #1a1a1a; stroke-opacity: 0.5; stroke-width: 0.5; stroke-linecap: round"/>
   </g>
   <g id="line2d_9">
    <path d="M 555.992763 235.874185 
L 539.336259 235.314759 
L 525.228364 234.62501 
L 514.566827 233.902899 
L 505.648878 233.100965 
L 498.285962 232.223469 
L 491.164498 231.133635 
L 485.403279 230.037083 
L 479.790945 228.743656 
L 474.319995 227.226798 
L 470.040345 225.833307 
L 465.843399 224.263207 
L 461.72602 222.500631 
L 457.685248 220.548352 
L 453.718284 218.416666 
L 449.822481 216.092243 
L 445.99533 213.564242 
L 442.234453 210.824415 
L 438.537594 207.867186 
L 434.90261 204.689703 
L 431.327464 201.291864 
L 427.810217 197.676317 
L 424.349025 193.848439 
L 420.098689 188.780193 
L 415.929939 183.446837 
L 411.839701 177.887054 
L 407.030975 170.972069 
L 401.552139 162.676399 
L 393.957476 150.708722 
L 383.041348 133.527404 
L 377.436257 125.10055 
L 373.325373 119.304992 
L 369.958093 114.893466 
L 366.642224 110.906763 
L 363.376219 107.375867 
L 360.798323 104.893197 
L 358.250666 102.721958 
L 355.732549 100.889347 
L 353.243293 99.401495 
L 350.782244 98.252873 
L 348.348771 97.435468 
L 346.541394 97.033545 
L 344.748933 96.806744 
L 342.381768 96.76619 
L 340.040126 97.009848 
L 337.723462 97.519393 
L 335.431248 98.274617 
L 333.162975 99.253618 
L 330.918146 100.430822 
L 328.144351 102.157131 
L 325.405535 104.12494 
L 322.163904 106.734945 
L 318.442157 110.015042 
L 312.206746 115.868644 
L 307.143924 120.529272 
L 304.161929 122.988289 
L 301.220324 125.110854 
L 298.799059 126.572571 
L 296.881296 127.512106 
L 294.980319 128.225494 
L 293.095837 128.693108 
L 291.227566 128.89602 
L 289.375228 128.816766 
L 287.538556 128.500405 
L 285.717286 127.93712 
L 283.911161 127.11111 
L 282.119933 126.018452 
L 280.343356 124.659835 
L 278.581195 123.040554 
L 276.833216 121.17046 
L 274.667842 118.502363 
L 272.523844 115.502481 
L 269.978675 111.528751 
L 267.462988 107.16457 
L 264.564382 101.647939 
L 260.893558 94.135255 
L 249.470488 70.330027 
L 247.180289 66.253271 
L 244.913988 62.696852 
L 243.043302 60.183173 
L 241.558269 58.498438 
L 240.083322 57.128642 
L 238.618323 56.097055 
L 237.526023 55.559307 
L 236.439189 55.230781 
L 235.357766 55.103636 
L 234.281702 55.170598 
L 233.210943 55.438105 
L 232.145437 55.912027 
L 231.085132 56.596783 
L 230.029979 57.495326 
L 228.631036 59.028256 
L 227.241046 60.943022 
L 225.859895 63.234254 
L 224.487472 65.891917 
L 222.78405 69.706624 
L 221.093884 74.034712 
L 219.082895 79.854653 
L 216.760037 87.3886 
L 214.13541 96.755646 
L 210.577568 110.409045 
L 203.01157 139.741364 
L 199.935241 150.699453 
L 197.505171 158.576219 
L 195.101991 165.590325 
L 193.020802 171.008904 
L 191.252663 174.990044 
L 189.498802 178.380002 
L 187.758992 181.22663 
L 186.033007 183.576805 
L 184.320631 185.475439 
L 182.903893 186.743112 
L 181.496336 187.747077 
L 179.819222 188.674242 
L 178.154959 189.358944 
L 176.229302 189.902391 
L 174.049256 190.264841 
L 171.354616 190.472282 
L 163.982774 190.909299 
L 161.409459 191.353182 
L 158.866277 192.040749 
L 156.852958 192.804558 
L 154.858132 193.794399 
L 152.635637 195.148079 
L 150.192583 196.91316 
L 147.536588 199.121787 
L 143.96634 202.404592 
L 137.684166 208.579204 
L 132.472377 213.56554 
L 128.919165 216.662334 
L 126.074381 218.875396 
L 123.266378 220.773444 
L 120.494216 222.367327 
L 117.756994 223.668617 
L 114.847292 224.79853 
L 111.976057 225.671148 
L 108.941282 226.36453 
L 105.948328 226.808202 
L 102.800661 227.044421 
L 99.697962 227.047393 
L 96.828895 226.834367 
L 94.184869 226.403909 
L 91.387253 225.694966 
L 88.259585 224.654637 
L 82.313869 222.363856 
L 78.438604 220.984938 
L 76.008049 220.318165 
L 73.604394 219.882326 
L 71.395999 219.696616 
L 69.042576 219.734366 
L 66.879856 219.982133 
L 64.574608 220.477558 
L 62.293572 221.191965 
L 59.875901 222.181612 
L 57.009779 223.608927 
L 53.090776 225.857797 
L 43.666286 231.413304 
L 40.858136 232.727942 
L 38.230863 233.713 
L 35.634993 234.447816 
L 32.928156 234.96816 
L 29.975123 235.297635 
L 26.923939 235.41637 
L 23.915028 235.313311 
L 21.081257 234.99169 
L 18.283985 234.438751 
L 16.438953 233.975259 
L 16.438953 233.975259 
" style="fill: none; stroke: #1a1a1a; stroke-opacity: 0.5; stroke-width: 0.5; stroke-linecap: round"/>
   </g>
   <g id="line2d_10">
    <path d="M 555.992763 234.852976 
L 504.404261 233.73939 
L 492.33531 233.266248 
L 483.140912 232.712722 
L 475.403216 232.051396 
L 468.983481 231.31309 
L 462.74807 230.377422 
L 456.686694 229.219745 
L 451.761648 228.082918 
L 446.945813 226.766572 
L 442.234453 225.250691 
L 437.623128 223.518042 
L 433.10768 221.55443 
L 428.684203 219.348905 
L 424.349025 216.893922 
L 420.098689 214.18865 
L 415.929939 211.268222 
L 411.839701 208.149254 
L 407.030975 204.164473 
L 402.326419 199.952076 
L 396.963548 194.820639 
L 390.257468 188.046865 
L 383.041348 180.469957 
L 373.325373 169.813793 
L 360.158602 155.445981 
L 353.862937 148.792174 
L 347.142183 142.061801 
L 320.029389 115.320566 
L 306.14537 101.335508 
L 280.343356 75.524326 
L 273.807701 69.439067 
L 269.978675 66.147924 
L 264.976108 62.186699 
L 261.703952 59.875929 
L 258.880706 58.164052 
L 256.489652 56.964303 
L 254.124635 56.029972 
L 251.785095 55.369308 
L 250.239286 55.140862 
L 248.704402 55.117956 
L 247.180289 55.3028 
L 245.666797 55.700063 
L 244.163779 56.316833 
L 242.671091 57.162548 
L 241.188592 58.248907 
L 239.716144 59.589764 
L 238.253612 61.200992 
L 236.800863 63.099281 
L 234.998486 65.847447 
L 233.210943 68.939436 
L 231.437992 72.39043 
L 229.329381 77.021247 
L 227.241046 82.181884 
L 224.829766 88.83157 
L 222.444963 96.071127 
L 219.751158 104.93154 
L 216.1009 117.786722 
L 209.617278 140.762544 
L 207.077071 148.879951 
L 204.878503 155.221082 
L 203.01157 160.038683 
L 201.160549 164.20241 
L 199.629991 167.138588 
L 198.110144 169.579212 
L 196.600859 171.531385 
L 195.400938 172.756446 
L 194.20761 173.703712 
L 193.020802 174.357909 
L 192.134933 174.628398 
L 190.959368 174.718311 
L 189.790131 174.524616 
L 188.627155 174.074955 
L 187.470373 173.396175 
L 186.033007 172.264684 
L 184.605091 170.8629 
L 182.903893 168.885116 
L 180.65616 165.888652 
L 172.967385 155.367814 
L 170.819677 152.947161 
L 168.957698 151.2164 
L 167.374323 150.063297 
L 166.063606 149.3626 
L 164.760751 148.914729 
L 163.465666 148.729826 
L 162.178257 148.813013 
L 160.898435 149.164321 
L 159.62611 149.778688 
L 158.361195 150.642751 
L 157.103605 151.770427 
L 155.604046 153.458619 
L 154.11477 155.481341 
L 152.390091 158.21707 
L 150.435656 161.767298 
L 148.257735 166.195456 
L 144.912682 173.606921 
L 138.603469 187.709118 
L 136.084688 192.736355 
L 134.045375 196.361558 
L 132.24859 199.15459 
L 130.466547 201.522052 
L 128.919165 203.248515 
L 127.382729 204.651028 
L 125.857087 205.739283 
L 124.342087 206.550904 
L 122.6235 207.195446 
L 120.706208 207.644753 
L 118.385605 207.929619 
L 115.674665 207.9984 
L 110.959746 207.861893 
L 106.941404 207.549296 
L 104.959773 207.200753 
L 103.191634 206.658557 
L 101.631949 205.923698 
L 100.083384 204.916347 
L 98.737389 203.778691 
L 97.399685 202.372538 
L 96.070169 200.678332 
L 94.560622 198.375941 
L 92.874829 195.355068 
L 91.016946 191.551312 
L 88.625216 186.077841 
L 82.136213 170.868279 
L 80.367594 167.452838 
L 78.962996 165.195135 
L 77.74138 163.623836 
L 76.699722 162.622952 
L 75.663037 161.951091 
L 74.802896 161.644592 
L 73.946148 161.568039 
L 73.092767 161.719123 
L 72.242726 162.093738 
L 71.395999 162.686035 
L 70.384265 163.668924 
L 69.209834 165.17675 
L 68.041721 167.045655 
L 66.714381 169.579205 
L 65.066534 173.259433 
L 63.10548 178.247568 
L 59.555569 188.01769 
L 56.693643 195.618118 
L 54.649901 200.472844 
L 52.935477 204.005843 
L 51.388568 206.718809 
L 49.852598 208.976231 
L 48.479452 210.570082 
L 47.114933 211.79151 
L 45.758933 212.702362 
L 44.411347 213.3516 
L 42.923772 213.823678 
L 41.005031 214.20816 
L 38.521218 214.456214 
L 33.353315 214.892681 
L 31.235795 215.319077 
L 29.138722 215.961418 
L 26.786262 216.931802 
L 23.779245 218.421158 
L 20.947233 220.100576 
L 18.416374 221.860073 
L 16.438953 223.34041 
L 16.438953 223.34041 
" style="fill: none; stroke: #1a1a1a; stroke-opacity: 0.5; stroke-width: 0.5; stroke-linecap: round"/>
   </g>
   <g id="line2d_11">
    <path d="M 555.288759 234.510061 
L 543.049734 233.583542 
L 532.878668 232.610702 
L 523.162693 231.471252 
L 513.862822 230.15415 
L 504.944874 228.651693 
L 496.378713 226.95807 
L 488.137634 225.07318 
L 480.197865 223.000799 
L 472.538146 220.748127 
L 465.139394 218.325583 
L 457.98441 215.747835 
L 450.085895 212.649371 
L 442.464579 209.422141 
L 434.198605 205.685495 
L 424.505161 201.056208 
L 400.848134 189.596226 
L 394.001098 186.60132 
L 388.820966 184.554202 
L 381.628745 182.01359 
L 373.301135 179.301752 
L 361.379442 175.46716 
L 356.91439 173.753675 
L 352.539288 171.818745 
L 349.46731 170.246487 
L 346.438178 168.455301 
L 343.450714 166.395718 
L 341.089982 164.524343 
L 338.754635 162.431452 
L 336.444132 160.098516 
L 334.15795 157.509449 
L 331.895584 154.654067 
L 329.100369 150.762996 
L 326.340672 146.519847 
L 323.615602 141.929731 
L 320.39002 135.993467 
L 317.211643 129.650794 
L 313.561385 121.861271 
L 308.450909 110.365324 
L 295.224723 80.0531 
L 292.391832 74.299365 
L 289.595418 69.140949 
L 287.292265 65.368609 
L 285.467169 62.752349 
L 283.657281 60.50695 
L 281.862352 58.642958 
L 280.082135 57.168168 
L 278.756484 56.32059 
L 277.438875 55.695839 
L 276.129211 55.294041 
L 274.827398 55.11441 
L 273.533341 55.15525 
L 272.246949 55.413963 
L 270.968131 55.887064 
L 269.6968 56.570072 
L 268.432867 57.454321 
L 266.758984 58.929742 
L 265.097903 60.726604 
L 263.449431 62.824518 
L 261.406281 65.834517 
L 259.382173 69.22698 
L 256.977884 73.721983 
L 254.206111 79.413394 
L 250.693605 87.161006 
L 246.476284 97.048264 
L 237.549608 118.143107 
L 233.577697 126.95292 
L 230.381128 133.483095 
L 226.883706 140.100766 
L 223.100495 146.776167 
L 218.712765 154.086108 
L 215.396896 159.164075 
L 212.45529 163.283734 
L 209.873563 166.521232 
L 207.957211 168.61862 
L 206.057619 170.368605 
L 203.862227 172.061053 
L 201.997964 173.192835 
L 200.456544 173.87056 
L 198.925986 174.28397 
L 197.40614 174.420227 
L 196.197874 174.326496 
L 194.696933 173.958784 
L 193.206295 173.325331 
L 191.725817 172.408091 
L 190.255363 171.203907 
L 188.794798 169.739347 
L 187.054987 167.678643 
L 185.042667 164.923155 
L 182.765475 161.417938 
L 179.115217 155.302077 
L 174.978231 148.500982 
L 172.803642 145.319881 
L 170.918576 142.950296 
L 169.315726 141.301828 
L 167.988995 140.214445 
L 166.670319 139.412466 
L 165.621113 138.992505 
L 164.576951 138.779848 
L 163.537785 138.781281 
L 162.503568 139.000953 
L 161.474252 139.440339 
L 160.449792 140.098224 
L 159.175975 141.221664 
L 157.909585 142.666594 
L 156.650537 144.437629 
L 155.14925 146.976747 
L 153.65827 149.924667 
L 151.931633 153.814507 
L 149.974996 158.75095 
L 147.553731 165.466819 
L 143.498535 177.534611 
L 138.822677 191.293714 
L 136.293228 198.08917 
L 134.019016 203.560496 
L 131.99239 207.831028 
L 130.206684 211.084351 
L 128.435541 213.833135 
L 126.897551 215.823617 
L 125.370376 217.427329 
L 123.853865 218.676244 
L 122.347869 219.605588 
L 120.852244 220.251733 
L 119.366849 220.651151 
L 117.681601 220.850359 
L 116.009329 220.785815 
L 114.349835 220.487423 
L 112.702925 219.97526 
L 111.068409 219.253189 
L 109.446103 218.31166 
L 107.435115 216.877764 
L 105.641009 215.335009 
L 103.861603 213.524146 
L 102.096657 211.428497 
L 99.958798 208.503279 
L 97.650342 204.944357 
L 94.610079 199.804973 
L 89.758661 191.598162 
L 87.738319 188.652801 
L 86.099178 186.667481 
L 84.652476 185.288866 
L 83.39447 184.398967 
L 82.321948 183.885923 
L 81.254697 183.608666 
L 80.192664 183.565144 
L 79.1358 183.746588 
L 78.084053 184.137698 
L 76.863418 184.850522 
L 75.649606 185.83731 
L 74.270647 187.251713 
L 72.559171 189.365912 
L 70.523045 192.279192 
L 67.337716 197.323283 
L 60.780683 207.809705 
L 58.531704 210.919919 
L 56.622371 213.192576 
L 54.886773 214.935421 
L 53.320903 216.208204 
L 51.921208 217.081236 
L 50.530476 217.696661 
L 49.148593 218.061114 
L 47.775447 218.174829 
L 46.410928 218.067237 
L 44.904783 217.726758 
L 43.111089 217.070189 
L 39.860638 215.54617 
L 37.236892 214.395423 
L 35.505173 213.870254 
L 34.072548 213.64379 
L 32.791215 213.645851 
L 31.517398 213.864871 
L 30.251008 214.302693 
L 28.852515 215.028029 
L 27.324503 216.076369 
L 25.258025 217.784244 
L 21.856996 220.893769 
L 18.375531 223.966405 
L 16.523758 225.369149 
L 16.523758 225.369149 
" style="fill: none; stroke: #1a1a1a; stroke-opacity: 0.5; stroke-width: 0.5; stroke-linecap: round"/>
   </g>
   <g id="line2d_12">
    <path d="M 556.002011 235.424019 
L 540.80804 234.775222 
L 529.374599 234.07966 
L 519.841429 233.305518 
L 510.709173 232.33826 
L 503.175983 231.321352 
L 497.091965 230.29173 
L 491.173746 229.064325 
L 485.412527 227.615086 
L 480.911117 226.277712 
L 476.501114 224.765595 
L 472.178877 223.062365 
L 467.940982 221.15077 
L 463.7842 219.012841 
L 459.705485 216.630058 
L 455.701957 213.987024 
L 451.770896 211.123106 
L 447.909723 208.04243 
L 444.115999 204.733408 
L 440.387405 201.189115 
L 436.721745 197.407355 
L 433.116928 193.390682 
L 429.570968 189.146374 
L 425.218413 183.539499 
L 420.951376 177.629188 
L 416.76656 171.459106 
L 411.848949 163.770268 
L 406.24902 154.533165 
L 398.49158 141.21314 
L 388.804184 124.628657 
L 384.474767 117.621387 
L 380.22997 111.174748 
L 376.754932 106.272055 
L 373.334622 101.867523 
L 370.636634 98.739909 
L 367.971751 95.988903 
L 365.339171 93.63154 
L 363.385467 92.128986 
L 361.449182 90.857241 
L 359.530007 89.8173 
L 357.627643 89.00836 
L 355.741797 88.427821 
L 353.872185 88.076517 
L 352.01853 87.965712 
L 350.180563 88.08965 
L 348.358019 88.440245 
L 346.550642 89.008491 
L 344.758181 89.784507 
L 342.980393 90.757592 
L 340.632422 92.34167 
L 338.309563 94.226534 
L 336.011285 96.381139 
L 333.172223 99.403772 
L 330.369794 102.72994 
L 327.053924 107.03303 
L 323.248329 112.346056 
L 315.831527 123.210075 
L 310.684717 130.559575 
L 307.153172 135.245458 
L 304.665342 138.263391 
L 302.205687 140.908074 
L 300.257824 142.733156 
L 298.327276 144.283404 
L 296.413738 145.54423 
L 294.516912 146.501764 
L 292.636508 147.142988 
L 291.236814 147.409041 
L 289.846082 147.485685 
L 288.464199 147.368603 
L 287.091053 147.053868 
L 285.726534 146.536122 
L 283.920409 145.555288 
L 282.129181 144.257845 
L 280.352604 142.641979 
L 278.590443 140.710218 
L 276.842464 138.469407 
L 275.108441 135.930648 
L 272.960202 132.361822 
L 270.833003 128.390109 
L 268.307565 123.16007 
L 265.397863 116.530286 
L 262.119534 108.39864 
L 257.292997 95.683104 
L 251.406858 80.245925 
L 248.331618 72.813329 
L 246.05343 67.884195 
L 244.173027 64.285791 
L 242.308765 61.208877 
L 240.828791 59.158194 
L 239.358835 57.500409 
L 238.26286 56.529393 
L 237.172388 55.802386 
L 236.087364 55.32827 
L 235.007734 55.11528 
L 233.933443 55.170962 
L 232.864441 55.487852 
L 231.800674 56.052248 
L 230.742093 56.867842 
L 229.688646 57.93655 
L 228.640284 59.258445 
L 227.250294 61.411485 
L 225.869143 64.001995 
L 224.49672 67.014988 
L 222.793298 71.343514 
L 221.103132 76.247755 
L 219.092143 82.801506 
L 216.769285 91.236293 
L 214.144658 101.687655 
L 210.266247 118.1742 
L 205.200473 139.591023 
L 202.093335 151.60551 
L 199.639239 160.159157 
L 197.514419 166.717334 
L 195.709545 171.610302 
L 193.919547 175.839774 
L 192.144181 179.451152 
L 190.675716 181.993118 
L 189.217112 184.038523 
L 187.76824 185.639718 
L 186.328968 186.852808 
L 184.899173 187.731737 
L 183.478728 188.327496 
L 182.067513 188.687375 
L 180.38607 188.867913 
L 178.4407 188.821722 
L 175.418466 188.48723 
L 168.702247 187.65678 
L 165.811657 187.527856 
L 163.474914 187.665481 
L 160.907683 188.041231 
L 158.118342 188.668686 
L 154.86738 189.638615 
L 151.664363 190.830917 
L 148.749082 192.13744 
L 146.110687 193.54938 
L 143.033351 195.482302 
L 140.230922 197.497539 
L 137.235217 199.936698 
L 134.054623 202.812554 
L 130.697752 206.182285 
L 126.51887 210.711883 
L 120.715456 217.066551 
L 117.766242 219.998048 
L 115.269832 222.176821 
L 113.006394 223.900195 
L 110.968994 225.190711 
L 108.95053 226.20534 
L 107.149813 226.887318 
L 105.561614 227.263345 
L 103.788664 227.438344 
L 102.030069 227.366323 
L 100.2856 227.050529 
L 98.555032 226.498777 
L 96.458449 225.608969 
L 94.194117 224.396737 
L 91.211269 222.515852 
L 85.005554 218.532746 
L 83.035201 217.605881 
L 81.259351 217.002026 
L 79.497904 216.627795 
L 77.576671 216.455646 
L 75.155792 216.485977 
L 72.421717 216.76929 
L 68.050969 217.217178 
L 65.404353 217.248436 
L 57.970204 217.139811 
L 56.229548 217.437855 
L 54.659149 217.934173 
L 53.100024 218.670118 
L 51.552012 219.645307 
L 49.861846 220.980559 
L 47.881188 222.849166 
L 45.01849 225.903869 
L 41.897746 229.172287 
L 39.98809 230.840948 
L 38.38524 231.966264 
L 36.938298 232.727776 
L 35.500932 233.246129 
L 34.073016 233.543432 
L 32.654427 233.614247 
L 30.964261 233.479678 
L 28.592153 233.049593 
L 22.030993 231.751625 
L 19.088784 231.423009 
L 16.448201 231.295882 
L 16.448201 231.295882 
" style="fill: none; stroke: #1a1a1a; stroke-opacity: 0.5; stroke-width: 0.5; stroke-linecap: round"/>
   </g>
   <g id="patch_3">
    <path d="M 16.425 237.78 
L 16.425 36.836 
" style="fill: none; stroke: #ffffff; stroke-width: 1.25; stroke-linejoin: miter; stroke-linecap: square"/>
   </g>
   <g id="patch_4">
    <path d="M 556.11 237.78 
L 556.11 36.836 
" style="fill: none; stroke: #ffffff; stroke-width: 1.25; stroke-linejoin: miter; stroke-linecap: square"/>
   </g>
   <g id="patch_5">
    <path d="M 16.425 237.78 
L 556.11 237.78 
" style="fill: none; stroke: #ffffff; stroke-width: 1.25; stroke-linejoin: miter; stroke-linecap: square"/>
   </g>
   <g id="patch_6">
    <path d="M 16.425 36.836 
L 556.11 36.836 
" style="fill: none; stroke: #ffffff; stroke-width: 1.25; stroke-linejoin: miter; stroke-linecap: square"/>
   </g>
   <g id="patch_7">
    <path d="M 304.462282 55.457497 
Q 297.149587 63.667613 289.836891 71.877729 
" style="fill: none; stroke: #ffffff; stroke-width: 0.5; stroke-linecap: round"/>
   </g>
   <g id="text_7">
    <!-- TFP -->
    <g style="fill: #262626" transform="translate(302.45805 48.968285) scale(0.12 -0.12)">
     <defs>
      <path id="DejaVuSans-54" d="M -19 4666 
L 3928 4666 
L 3928 4134 
L 2272 4134 
L 2272 0 
L 1638 0 
L 1638 4134 
L -19 4134 
L -19 4666 
z
" transform="scale(0.015625)"/>
      <path id="DejaVuSans-46" d="M 628 4666 
L 3309 4666 
L 3309 4134 
L 1259 4134 
L 1259 2759 
L 3109 2759 
L 3109 2228 
L 1259 2228 
L 1259 0 
L 628 0 
L 628 4666 
z
" transform="scale(0.015625)"/>
      <path id="DejaVuSans-50" d="M 1259 4147 
L 1259 2394 
L 2053 2394 
Q 2494 2394 2734 2622 
Q 2975 2850 2975 3272 
Q 2975 3691 2734 3919 
Q 2494 4147 2053 4147 
L 1259 4147 
z
M 628 4666 
L 2053 4666 
Q 2838 4666 3239 4311 
Q 3641 3956 3641 3272 
Q 3641 2581 3239 2228 
Q 2838 1875 2053 1875 
L 1259 1875 
L 1259 0 
L 628 0 
L 628 4666 
z
" transform="scale(0.015625)"/>
     </defs>
     <use xlink:href="#DejaVuSans-54"/>
     <use xlink:href="#DejaVuSans-46" x="61.083984"/>
     <use xlink:href="#DejaVuSans-50" x="118.603516"/>
    </g>
   </g>
   <g id="patch_8">
    <path d="M 389.722941 68.032614 
Q 338.147857 75.132599 286.572772 82.232584 
" style="fill: none; stroke: #ffffff; stroke-width: 0.5; stroke-linecap: round"/>
   </g>
   <g id="text_8">
    <!-- Investment -->
    <g style="fill: #262626" transform="translate(394.2045 66.048525) scale(0.12 -0.12)">
     <defs>
      <path id="DejaVuSans-49" d="M 628 4666 
L 1259 4666 
L 1259 0 
L 628 0 
L 628 4666 
z
" transform="scale(0.015625)"/>
      <path id="DejaVuSans-6e" d="M 3513 2113 
L 3513 0 
L 2938 0 
L 2938 2094 
Q 2938 2591 2744 2837 
Q 2550 3084 2163 3084 
Q 1697 3084 1428 2787 
Q 1159 2491 1159 1978 
L 1159 0 
L 581 0 
L 581 3500 
L 1159 3500 
L 1159 2956 
Q 1366 3272 1645 3428 
Q 1925 3584 2291 3584 
Q 2894 3584 3203 3211 
Q 3513 2838 3513 2113 
z
" transform="scale(0.015625)"/>
      <path id="DejaVuSans-76" d="M 191 3500 
L 800 3500 
L 1894 563 
L 2988 3500 
L 3597 3500 
L 2284 0 
L 1503 0 
L 191 3500 
z
" transform="scale(0.015625)"/>
      <path id="DejaVuSans-74" d="M 1172 4494 
L 1172 3500 
L 2356 3500 
L 2356 3053 
L 1172 3053 
L 1172 1153 
Q 1172 725 1289 603 
Q 1406 481 1766 481 
L 2356 481 
L 2356 0 
L 1766 0 
Q 1100 0 847 248 
Q 594 497 594 1153 
L 594 3053 
L 172 3053 
L 172 3500 
L 594 3500 
L 594 4494 
L 1172 4494 
z
" transform="scale(0.015625)"/>
      <path id="DejaVuSans-6d" d="M 3328 2828 
Q 3544 3216 3844 3400 
Q 4144 3584 4550 3584 
Q 5097 3584 5394 3201 
Q 5691 2819 5691 2113 
L 5691 0 
L 5113 0 
L 5113 2094 
Q 5113 2597 4934 2840 
Q 4756 3084 4391 3084 
Q 3944 3084 3684 2787 
Q 3425 2491 3425 1978 
L 3425 0 
L 2847 0 
L 2847 2094 
Q 2847 2600 2669 2842 
Q 2491 3084 2119 3084 
Q 1678 3084 1418 2786 
Q 1159 2488 1159 1978 
L 1159 0 
L 581 0 
L 581 3500 
L 1159 3500 
L 1159 2956 
Q 1356 3278 1631 3431 
Q 1906 3584 2284 3584 
Q 2666 3584 2933 3390 
Q 3200 3197 3328 2828 
z
" transform="scale(0.015625)"/>
     </defs>
     <use xlink:href="#DejaVuSans-49"/>
     <use xlink:href="#DejaVuSans-6e" x="29.492188"/>
     <use xlink:href="#DejaVuSans-76" x="92.871094"/>
     <use xlink:href="#DejaVuSans-65" x="152.050781"/>
     <use xlink:href="#DejaVuSans-73" x="213.574219"/>
     <use xlink:href="#DejaVuSans-74" x="265.673828"/>
     <use xlink:href="#DejaVuSans-6d" x="304.882812"/>
     <use xlink:href="#DejaVuSans-65" x="402.294922"/>
     <use xlink:href="#DejaVuSans-6e" x="463.818359"/>
     <use xlink:href="#DejaVuSans-74" x="527.197266"/>
    </g>
   </g>
   <g id="patch_9">
    <path d="M 392.685135 59.889469 
Q 380.220012 66.180264 367.754889 72.47106 
" style="fill: none; stroke: #ffffff; stroke-width: 0.5; stroke-linecap: round"/>
   </g>
   <g id="text_9">
    <!-- Wage -->
    <g style="fill: #262626" transform="translate(394.2045 53.991885) scale(0.12 -0.12)">
     <defs>
      <path id="DejaVuSans-57" d="M 213 4666 
L 850 4666 
L 1831 722 
L 2809 4666 
L 3519 4666 
L 4500 722 
L 5478 4666 
L 6119 4666 
L 4947 0 
L 4153 0 
L 3169 4050 
L 2175 0 
L 1381 0 
L 213 4666 
z
" transform="scale(0.015625)"/>
      <path id="DejaVuSans-67" d="M 2906 1791 
Q 2906 2416 2648 2759 
Q 2391 3103 1925 3103 
Q 1463 3103 1205 2759 
Q 947 2416 947 1791 
Q 947 1169 1205 825 
Q 1463 481 1925 481 
Q 2391 481 2648 825 
Q 2906 1169 2906 1791 
z
M 3481 434 
Q 3481 -459 3084 -895 
Q 2688 -1331 1869 -1331 
Q 1566 -1331 1297 -1286 
Q 1028 -1241 775 -1147 
L 775 -588 
Q 1028 -725 1275 -790 
Q 1522 -856 1778 -856 
Q 2344 -856 2625 -561 
Q 2906 -266 2906 331 
L 2906 616 
Q 2728 306 2450 153 
Q 2172 0 1784 0 
Q 1141 0 747 490 
Q 353 981 353 1791 
Q 353 2603 747 3093 
Q 1141 3584 1784 3584 
Q 2172 3584 2450 3431 
Q 2728 3278 2906 2969 
L 2906 3500 
L 3481 3500 
L 3481 434 
z
" transform="scale(0.015625)"/>
     </defs>
     <use xlink:href="#DejaVuSans-57"/>
     <use xlink:href="#DejaVuSans-61" x="92.501953"/>
     <use xlink:href="#DejaVuSans-67" x="153.78125"/>
     <use xlink:href="#DejaVuSans-65" x="217.257812"/>
    </g>
   </g>
   <g id="patch_10">
    <path d="M 418.27206 81.438396 
Q 390.35829 86.364639 362.444519 91.290881 
" style="fill: none; stroke: #ffffff; stroke-width: 0.5; stroke-linecap: round"/>
   </g>
   <g id="text_10">
    <!-- Unemployment -->
    <g style="fill: #262626" transform="translate(421.18875 76.095725) scale(0.12 -0.12)">
     <defs>
      <path id="DejaVuSans-55" d="M 556 4666 
L 1191 4666 
L 1191 1831 
Q 1191 1081 1462 751 
Q 1734 422 2344 422 
Q 2950 422 3222 751 
Q 3494 1081 3494 1831 
L 3494 4666 
L 4128 4666 
L 4128 1753 
Q 4128 841 3676 375 
Q 3225 -91 2344 -91 
Q 1459 -91 1007 375 
Q 556 841 556 1753 
L 556 4666 
z
" transform="scale(0.015625)"/>
      <path id="DejaVuSans-70" d="M 1159 525 
L 1159 -1331 
L 581 -1331 
L 581 3500 
L 1159 3500 
L 1159 2969 
Q 1341 3281 1617 3432 
Q 1894 3584 2278 3584 
Q 2916 3584 3314 3078 
Q 3713 2572 3713 1747 
Q 3713 922 3314 415 
Q 2916 -91 2278 -91 
Q 1894 -91 1617 61 
Q 1341 213 1159 525 
z
M 3116 1747 
Q 3116 2381 2855 2742 
Q 2594 3103 2138 3103 
Q 1681 3103 1420 2742 
Q 1159 2381 1159 1747 
Q 1159 1113 1420 752 
Q 1681 391 2138 391 
Q 2594 391 2855 752 
Q 3116 1113 3116 1747 
z
" transform="scale(0.015625)"/>
      <path id="DejaVuSans-6c" d="M 603 4863 
L 1178 4863 
L 1178 0 
L 603 0 
L 603 4863 
z
" transform="scale(0.015625)"/>
      <path id="DejaVuSans-6f" d="M 1959 3097 
Q 1497 3097 1228 2736 
Q 959 2375 959 1747 
Q 959 1119 1226 758 
Q 1494 397 1959 397 
Q 2419 397 2687 759 
Q 2956 1122 2956 1747 
Q 2956 2369 2687 2733 
Q 2419 3097 1959 3097 
z
M 1959 3584 
Q 2709 3584 3137 3096 
Q 3566 2609 3566 1747 
Q 3566 888 3137 398 
Q 2709 -91 1959 -91 
Q 1206 -91 779 398 
Q 353 888 353 1747 
Q 353 2609 779 3096 
Q 1206 3584 1959 3584 
z
" transform="scale(0.015625)"/>
      <path id="DejaVuSans-79" d="M 2059 -325 
Q 1816 -950 1584 -1140 
Q 1353 -1331 966 -1331 
L 506 -1331 
L 506 -850 
L 844 -850 
Q 1081 -850 1212 -737 
Q 1344 -625 1503 -206 
L 1606 56 
L 191 3500 
L 800 3500 
L 1894 763 
L 2988 3500 
L 3597 3500 
L 2059 -325 
z
" transform="scale(0.015625)"/>
     </defs>
     <use xlink:href="#DejaVuSans-55"/>
     <use xlink:href="#DejaVuSans-6e" x="73.193359"/>
     <use xlink:href="#DejaVuSans-65" x="136.572266"/>
     <use xlink:href="#DejaVuSans-6d" x="198.095703"/>
     <use xlink:href="#DejaVuSans-70" x="295.507812"/>
     <use xlink:href="#DejaVuSans-6c" x="358.984375"/>
     <use xlink:href="#DejaVuSans-6f" x="386.767578"/>
     <use xlink:href="#DejaVuSans-79" x="447.949219"/>
     <use xlink:href="#DejaVuSans-6d" x="507.128906"/>
     <use xlink:href="#DejaVuSans-65" x="604.541016"/>
     <use xlink:href="#DejaVuSans-6e" x="666.064453"/>
     <use xlink:href="#DejaVuSans-74" x="729.443359"/>
    </g>
   </g>
   <g id="patch_11">
    <path d="M 416.71098 90.260762 
Q 385.31878 95.356666 353.92658 100.452569 
" style="fill: none; stroke: #ffffff; stroke-width: 0.5; stroke-linecap: round"/>
   </g>
   <g id="text_11">
    <!-- Hours worked -->
    <g style="fill: #262626" transform="translate(421.18875 86.142925) scale(0.12 -0.12)">
     <defs>
      <path id="DejaVuSans-48" d="M 628 4666 
L 1259 4666 
L 1259 2753 
L 3553 2753 
L 3553 4666 
L 4184 4666 
L 4184 0 
L 3553 0 
L 3553 2222 
L 1259 2222 
L 1259 0 
L 628 0 
L 628 4666 
z
" transform="scale(0.015625)"/>
      <path id="DejaVuSans-75" d="M 544 1381 
L 544 3500 
L 1119 3500 
L 1119 1403 
Q 1119 906 1312 657 
Q 1506 409 1894 409 
Q 2359 409 2629 706 
Q 2900 1003 2900 1516 
L 2900 3500 
L 3475 3500 
L 3475 0 
L 2900 0 
L 2900 538 
Q 2691 219 2414 64 
Q 2138 -91 1772 -91 
Q 1169 -91 856 284 
Q 544 659 544 1381 
z
M 1991 3584 
L 1991 3584 
z
" transform="scale(0.015625)"/>
      <path id="DejaVuSans-20" transform="scale(0.015625)"/>
      <path id="DejaVuSans-77" d="M 269 3500 
L 844 3500 
L 1563 769 
L 2278 3500 
L 2956 3500 
L 3675 769 
L 4391 3500 
L 4966 3500 
L 4050 0 
L 3372 0 
L 2619 2869 
L 1863 0 
L 1184 0 
L 269 3500 
z
" transform="scale(0.015625)"/>
      <path id="DejaVuSans-6b" d="M 581 4863 
L 1159 4863 
L 1159 1991 
L 2875 3500 
L 3609 3500 
L 1753 1863 
L 3688 0 
L 2938 0 
L 1159 1709 
L 1159 0 
L 581 0 
L 581 4863 
z
" transform="scale(0.015625)"/>
      <path id="DejaVuSans-64" d="M 2906 2969 
L 2906 4863 
L 3481 4863 
L 3481 0 
L 2906 0 
L 2906 525 
Q 2725 213 2448 61 
Q 2172 -91 1784 -91 
Q 1150 -91 751 415 
Q 353 922 353 1747 
Q 353 2572 751 3078 
Q 1150 3584 1784 3584 
Q 2172 3584 2448 3432 
Q 2725 3281 2906 2969 
z
M 947 1747 
Q 947 1113 1208 752 
Q 1469 391 1925 391 
Q 2381 391 2643 752 
Q 2906 1113 2906 1747 
Q 2906 2381 2643 2742 
Q 2381 3103 1925 3103 
Q 1469 3103 1208 2742 
Q 947 2381 947 1747 
z
" transform="scale(0.015625)"/>
     </defs>
     <use xlink:href="#DejaVuSans-48"/>
     <use xlink:href="#DejaVuSans-6f" x="75.195312"/>
     <use xlink:href="#DejaVuSans-75" x="136.376953"/>
     <use xlink:href="#DejaVuSans-72" x="199.755859"/>
     <use xlink:href="#DejaVuSans-73" x="240.869141"/>
     <use xlink:href="#DejaVuSans-20" x="292.96875"/>
     <use xlink:href="#DejaVuSans-77" x="324.755859"/>
     <use xlink:href="#DejaVuSans-6f" x="406.542969"/>
     <use xlink:href="#DejaVuSans-72" x="467.724609"/>
     <use xlink:href="#DejaVuSans-6b" x="508.837891"/>
     <use xlink:href="#DejaVuSans-65" x="563.123047"/>
     <use xlink:href="#DejaVuSans-64" x="624.646484"/>
    </g>
   </g>
   <g id="patch_12">
    <path d="M 457.179581 198.505935 
Q 422.917292 202.499845 388.655003 206.493756 
" style="fill: none; stroke: #ffffff; stroke-width: 0.5; stroke-linecap: round"/>
   </g>
   <g id="text_12">
    <!-- Consumption -->
    <g style="fill: #262626" transform="translate(461.665125 196.662125) scale(0.12 -0.12)">
     <defs>
      <path id="DejaVuSans-43" d="M 4122 4306 
L 4122 3641 
Q 3803 3938 3442 4084 
Q 3081 4231 2675 4231 
Q 1875 4231 1450 3742 
Q 1025 3253 1025 2328 
Q 1025 1406 1450 917 
Q 1875 428 2675 428 
Q 3081 428 3442 575 
Q 3803 722 4122 1019 
L 4122 359 
Q 3791 134 3420 21 
Q 3050 -91 2638 -91 
Q 1578 -91 968 557 
Q 359 1206 359 2328 
Q 359 3453 968 4101 
Q 1578 4750 2638 4750 
Q 3056 4750 3426 4639 
Q 3797 4528 4122 4306 
z
" transform="scale(0.015625)"/>
      <path id="DejaVuSans-69" d="M 603 3500 
L 1178 3500 
L 1178 0 
L 603 0 
L 603 3500 
z
M 603 4863 
L 1178 4863 
L 1178 4134 
L 603 4134 
L 603 4863 
z
" transform="scale(0.015625)"/>
     </defs>
     <use xlink:href="#DejaVuSans-43"/>
     <use xlink:href="#DejaVuSans-6f" x="69.824219"/>
     <use xlink:href="#DejaVuSans-6e" x="131.005859"/>
     <use xlink:href="#DejaVuSans-73" x="194.384766"/>
     <use xlink:href="#DejaVuSans-75" x="246.484375"/>
     <use xlink:href="#DejaVuSans-6d" x="309.863281"/>
     <use xlink:href="#DejaVuSans-70" x="407.275391"/>
     <use xlink:href="#DejaVuSans-74" x="470.751953"/>
     <use xlink:href="#DejaVuSans-69" x="509.960938"/>
     <use xlink:href="#DejaVuSans-6f" x="537.744141"/>
     <use xlink:href="#DejaVuSans-6e" x="598.925781"/>
    </g>
   </g>
   <g id="legend_1">
    <g id="line2d_13">
     <path d="M 26.325 31.149881 
L 37.325 31.149881 
L 48.325 31.149881 
" style="fill: none; stroke: #1a1a1a; stroke-width: 1.5; stroke-linecap: round"/>
    </g>
    <g id="text_13">
     <!-- GDP -->
     <g style="fill: #262626" transform="translate(57.125 34.999881) scale(0.11 -0.11)">
      <defs>
       <path id="DejaVuSans-47" d="M 3809 666 
L 3809 1919 
L 2778 1919 
L 2778 2438 
L 4434 2438 
L 4434 434 
Q 4069 175 3628 42 
Q 3188 -91 2688 -91 
Q 1594 -91 976 548 
Q 359 1188 359 2328 
Q 359 3472 976 4111 
Q 1594 4750 2688 4750 
Q 3144 4750 3555 4637 
Q 3966 4525 4313 4306 
L 4313 3634 
Q 3963 3931 3569 4081 
Q 3175 4231 2741 4231 
Q 1884 4231 1454 3753 
Q 1025 3275 1025 2328 
Q 1025 1384 1454 906 
Q 1884 428 2741 428 
Q 3075 428 3337 486 
Q 3600 544 3809 666 
z
" transform="scale(0.015625)"/>
       <path id="DejaVuSans-44" d="M 1259 4147 
L 1259 519 
L 2022 519 
Q 2988 519 3436 956 
Q 3884 1394 3884 2338 
Q 3884 3275 3436 3711 
Q 2988 4147 2022 4147 
L 1259 4147 
z
M 628 4666 
L 1925 4666 
Q 3281 4666 3915 4102 
Q 4550 3538 4550 2338 
Q 4550 1131 3912 565 
Q 3275 0 1925 0 
L 628 0 
L 628 4666 
z
" transform="scale(0.015625)"/>
      </defs>
      <use xlink:href="#DejaVuSans-47"/>
      <use xlink:href="#DejaVuSans-44" x="77.490234"/>
      <use xlink:href="#DejaVuSans-50" x="154.492188"/>
     </g>
    </g>
    <g id="line2d_14">
     <path d="M 102.750937 31.149881 
L 113.750937 31.149881 
L 124.750937 31.149881 
" style="fill: none; stroke: #1a1a1a; stroke-opacity: 0.5; stroke-width: 0.5; stroke-linecap: round"/>
    </g>
    <g id="text_14">
     <!-- Others -->
     <g style="fill: #262626" transform="translate(133.550938 34.999881) scale(0.11 -0.11)">
      <defs>
       <path id="DejaVuSans-4f" d="M 2522 4238 
Q 1834 4238 1429 3725 
Q 1025 3213 1025 2328 
Q 1025 1447 1429 934 
Q 1834 422 2522 422 
Q 3209 422 3611 934 
Q 4013 1447 4013 2328 
Q 4013 3213 3611 3725 
Q 3209 4238 2522 4238 
z
M 2522 4750 
Q 3503 4750 4090 4092 
Q 4678 3434 4678 2328 
Q 4678 1225 4090 567 
Q 3503 -91 2522 -91 
Q 1538 -91 948 565 
Q 359 1222 359 2328 
Q 359 3434 948 4092 
Q 1538 4750 2522 4750 
z
" transform="scale(0.015625)"/>
       <path id="DejaVuSans-68" d="M 3513 2113 
L 3513 0 
L 2938 0 
L 2938 2094 
Q 2938 2591 2744 2837 
Q 2550 3084 2163 3084 
Q 1697 3084 1428 2787 
Q 1159 2491 1159 1978 
L 1159 0 
L 581 0 
L 581 4863 
L 1159 4863 
L 1159 2956 
Q 1366 3272 1645 3428 
Q 1925 3584 2291 3584 
Q 2894 3584 3203 3211 
Q 3513 2838 3513 2113 
z
" transform="scale(0.015625)"/>
      </defs>
      <use xlink:href="#DejaVuSans-4f"/>
      <use xlink:href="#DejaVuSans-74" x="78.710938"/>
      <use xlink:href="#DejaVuSans-68" x="117.919922"/>
      <use xlink:href="#DejaVuSans-65" x="181.298828"/>
      <use xlink:href="#DejaVuSans-72" x="242.822266"/>
      <use xlink:href="#DejaVuSans-73" x="283.935547"/>
     </g>
    </g>
   </g>
  </g>
 </g>
 <defs>
  <clipPath id="pa04f6e70e6">
   <rect x="16.425" y="36.836" width="539.685" height="200.944"/>
  </clipPath>
 </defs>
</svg>
