<?xml version="1.0" encoding="utf-8" standalone="no"?>
<!DOCTYPE svg PUBLIC "-//W3C//DTD SVG 1.1//EN"
  "http://www.w3.org/Graphics/SVG/1.1/DTD/svg11.dtd">
<svg xmlns:xlink="http://www.w3.org/1999/xlink" width="460.8pt" height="345.6pt" viewBox="0 0 460.8 345.6" xmlns="http://www.w3.org/2000/svg" version="1.1">
 <metadata>
  <rdf:RDF xmlns:dc="http://purl.org/dc/elements/1.1/" xmlns:cc="http://creativecommons.org/ns#" xmlns:rdf="http://www.w3.org/1999/02/22-rdf-syntax-ns#">
   <cc:Work>
    <dc:type rdf:resource="http://purl.org/dc/dcmitype/StillImage"/>
    <dc:date>2024-05-07T15:22:34.663365</dc:date>
    <dc:format>image/svg+xml</dc:format>
    <dc:creator>
     <cc:Agent>
      <dc:title>Matplotlib v3.8.3, https://matplotlib.org/</dc:title>
     </cc:Agent>
    </dc:creator>
   </cc:Work>
  </rdf:RDF>
 </metadata>
 <defs>
  <style type="text/css">*{stroke-linejoin: round; stroke-linecap: butt}</style>
 </defs>
 <g id="figure_1">
  <g id="patch_1">
   <path d="M 0 345.6 
L 460.8 345.6 
L 460.8 0 
L 0 0 
L 0 345.6 
z
" style="fill: none"/>
  </g>
  <g id="axes_1">
   <g id="patch_2">
    <path d="M 57.6 307.584 
L 414.72 307.584 
L 414.72 41.472 
L 57.6 41.472 
L 57.6 307.584 
z
" style="fill: none"/>
   </g>
   <g id="matplotlib.axis_1">
    <g id="xtick_1">
     <g id="line2d_1">
      <path d="M 57.6 307.584 
L 57.6 41.472 
" clip-path="url(#p7e6226e71b)" style="fill: none; stroke: #ffffff; stroke-linecap: round"/>
     </g>
     <g id="text_1">
      <!-- 4 -->
      <g style="fill: #262626" transform="translate(54.100625 325.442281) scale(0.11 -0.11)">
       <defs>
        <path id="DejaVuSans-34" d="M 2419 4116 
L 825 1625 
L 2419 1625 
L 2419 4116 
z
M 2253 4666 
L 3047 4666 
L 3047 1625 
L 3713 1625 
L 3713 1100 
L 3047 1100 
L 3047 0 
L 2419 0 
L 2419 1100 
L 313 1100 
L 313 1709 
L 2253 4666 
z
" transform="scale(0.015625)"/>
       </defs>
       <use xlink:href="#DejaVuSans-34"/>
      </g>
     </g>
    </g>
    <g id="xtick_2">
     <g id="line2d_2">
      <path d="M 111.070094 307.584 
L 111.070094 41.472 
" clip-path="url(#p7e6226e71b)" style="fill: none; stroke: #ffffff; stroke-linecap: round"/>
     </g>
     <g id="text_2">
      <!-- 6 -->
      <g style="fill: #262626" transform="translate(107.570719 325.442281) scale(0.11 -0.11)">
       <defs>
        <path id="DejaVuSans-36" d="M 2113 2584 
Q 1688 2584 1439 2293 
Q 1191 2003 1191 1497 
Q 1191 994 1439 701 
Q 1688 409 2113 409 
Q 2538 409 2786 701 
Q 3034 994 3034 1497 
Q 3034 2003 2786 2293 
Q 2538 2584 2113 2584 
z
M 3366 4563 
L 3366 3988 
Q 3128 4100 2886 4159 
Q 2644 4219 2406 4219 
Q 1781 4219 1451 3797 
Q 1122 3375 1075 2522 
Q 1259 2794 1537 2939 
Q 1816 3084 2150 3084 
Q 2853 3084 3261 2657 
Q 3669 2231 3669 1497 
Q 3669 778 3244 343 
Q 2819 -91 2113 -91 
Q 1303 -91 875 529 
Q 447 1150 447 2328 
Q 447 3434 972 4092 
Q 1497 4750 2381 4750 
Q 2619 4750 2861 4703 
Q 3103 4656 3366 4563 
z
" transform="scale(0.015625)"/>
       </defs>
       <use xlink:href="#DejaVuSans-36"/>
      </g>
     </g>
    </g>
    <g id="xtick_3">
     <g id="line2d_3">
      <path d="M 202.477824 307.584 
L 202.477824 41.472 
" clip-path="url(#p7e6226e71b)" style="fill: none; stroke: #ffffff; stroke-linecap: round"/>
     </g>
     <g id="text_3">
      <!-- 12 -->
      <g style="fill: #262626" transform="translate(195.479074 325.442281) scale(0.11 -0.11)">
       <defs>
        <path id="DejaVuSans-31" d="M 794 531 
L 1825 531 
L 1825 4091 
L 703 3866 
L 703 4441 
L 1819 4666 
L 2450 4666 
L 2450 531 
L 3481 531 
L 3481 0 
L 794 0 
L 794 531 
z
" transform="scale(0.015625)"/>
        <path id="DejaVuSans-32" d="M 1228 531 
L 3431 531 
L 3431 0 
L 469 0 
L 469 531 
Q 828 903 1448 1529 
Q 2069 2156 2228 2338 
Q 2531 2678 2651 2914 
Q 2772 3150 2772 3378 
Q 2772 3750 2511 3984 
Q 2250 4219 1831 4219 
Q 1534 4219 1204 4116 
Q 875 4013 500 3803 
L 500 4441 
Q 881 4594 1212 4672 
Q 1544 4750 1819 4750 
Q 2544 4750 2975 4387 
Q 3406 4025 3406 3419 
Q 3406 3131 3298 2873 
Q 3191 2616 2906 2266 
Q 2828 2175 2409 1742 
Q 1991 1309 1228 531 
z
" transform="scale(0.015625)"/>
       </defs>
       <use xlink:href="#DejaVuSans-31"/>
       <use xlink:href="#DejaVuSans-32" x="63.623047"/>
      </g>
     </g>
    </g>
    <g id="xtick_4">
     <g id="line2d_4">
      <path d="M 293.885554 307.584 
L 293.885554 41.472 
" clip-path="url(#p7e6226e71b)" style="fill: none; stroke: #ffffff; stroke-linecap: round"/>
     </g>
     <g id="text_4">
      <!-- 24 -->
      <g style="fill: #262626" transform="translate(286.886804 325.442281) scale(0.11 -0.11)">
       <use xlink:href="#DejaVuSans-32"/>
       <use xlink:href="#DejaVuSans-34" x="63.623047"/>
      </g>
     </g>
    </g>
    <g id="xtick_5">
     <g id="line2d_5">
      <path d="M 331.823189 307.584 
L 331.823189 41.472 
" clip-path="url(#p7e6226e71b)" style="fill: none; stroke: #ffffff; stroke-linecap: round"/>
     </g>
     <g id="text_5">
      <!-- 32 -->
      <g style="fill: #262626" transform="translate(324.824439 325.442281) scale(0.11 -0.11)">
       <defs>
        <path id="DejaVuSans-33" d="M 2597 2516 
Q 3050 2419 3304 2112 
Q 3559 1806 3559 1356 
Q 3559 666 3084 287 
Q 2609 -91 1734 -91 
Q 1441 -91 1130 -33 
Q 819 25 488 141 
L 488 750 
Q 750 597 1062 519 
Q 1375 441 1716 441 
Q 2309 441 2620 675 
Q 2931 909 2931 1356 
Q 2931 1769 2642 2001 
Q 2353 2234 1838 2234 
L 1294 2234 
L 1294 2753 
L 1863 2753 
Q 2328 2753 2575 2939 
Q 2822 3125 2822 3475 
Q 2822 3834 2567 4026 
Q 2313 4219 1838 4219 
Q 1578 4219 1281 4162 
Q 984 4106 628 3988 
L 628 4550 
Q 988 4650 1302 4700 
Q 1616 4750 1894 4750 
Q 2613 4750 3031 4423 
Q 3450 4097 3450 3541 
Q 3450 3153 3228 2886 
Q 3006 2619 2597 2516 
z
" transform="scale(0.015625)"/>
       </defs>
       <use xlink:href="#DejaVuSans-33"/>
       <use xlink:href="#DejaVuSans-32" x="63.623047"/>
      </g>
     </g>
    </g>
    <g id="xtick_6">
     <g id="line2d_6">
      <path d="M 361.249906 307.584 
L 361.249906 41.472 
" clip-path="url(#p7e6226e71b)" style="fill: none; stroke: #ffffff; stroke-linecap: round"/>
     </g>
     <g id="text_6">
      <!-- 40 -->
      <g style="fill: #262626" transform="translate(354.251156 325.442281) scale(0.11 -0.11)">
       <defs>
        <path id="DejaVuSans-30" d="M 2034 4250 
Q 1547 4250 1301 3770 
Q 1056 3291 1056 2328 
Q 1056 1369 1301 889 
Q 1547 409 2034 409 
Q 2525 409 2770 889 
Q 3016 1369 3016 2328 
Q 3016 3291 2770 3770 
Q 2525 4250 2034 4250 
z
M 2034 4750 
Q 2819 4750 3233 4129 
Q 3647 3509 3647 2328 
Q 3647 1150 3233 529 
Q 2819 -91 2034 -91 
Q 1250 -91 836 529 
Q 422 1150 422 2328 
Q 422 3509 836 4129 
Q 1250 4750 2034 4750 
z
" transform="scale(0.015625)"/>
       </defs>
       <use xlink:href="#DejaVuSans-34"/>
       <use xlink:href="#DejaVuSans-30" x="63.623047"/>
      </g>
     </g>
    </g>
    <g id="xtick_7">
     <g id="line2d_7">
      <path d="M 390.676622 307.584 
L 390.676622 41.472 
" clip-path="url(#p7e6226e71b)" style="fill: none; stroke: #ffffff; stroke-linecap: round"/>
     </g>
     <g id="text_7">
      <!-- 50 -->
      <g style="fill: #262626" transform="translate(383.677872 325.442281) scale(0.11 -0.11)">
       <defs>
        <path id="DejaVuSans-35" d="M 691 4666 
L 3169 4666 
L 3169 4134 
L 1269 4134 
L 1269 2991 
Q 1406 3038 1543 3061 
Q 1681 3084 1819 3084 
Q 2600 3084 3056 2656 
Q 3513 2228 3513 1497 
Q 3513 744 3044 326 
Q 2575 -91 1722 -91 
Q 1428 -91 1123 -41 
Q 819 9 494 109 
L 494 744 
Q 775 591 1075 516 
Q 1375 441 1709 441 
Q 2250 441 2565 725 
Q 2881 1009 2881 1497 
Q 2881 1984 2565 2268 
Q 2250 2553 1709 2553 
Q 1456 2553 1204 2497 
Q 953 2441 691 2322 
L 691 4666 
z
" transform="scale(0.015625)"/>
       </defs>
       <use xlink:href="#DejaVuSans-35"/>
       <use xlink:href="#DejaVuSans-30" x="63.623047"/>
      </g>
     </g>
    </g>
    <g id="xtick_8">
     <g id="line2d_8">
      <path d="M 414.72 307.584 
L 414.72 41.472 
" clip-path="url(#p7e6226e71b)" style="fill: none; stroke: #ffffff; stroke-linecap: round"/>
     </g>
     <g id="text_8">
      <!-- 60 -->
      <g style="fill: #262626" transform="translate(407.72125 325.442281) scale(0.11 -0.11)">
       <use xlink:href="#DejaVuSans-36"/>
       <use xlink:href="#DejaVuSans-30" x="63.623047"/>
      </g>
     </g>
    </g>
    <g id="xtick_9"/>
    <g id="xtick_10"/>
    <g id="xtick_11"/>
    <g id="xtick_12"/>
    <g id="xtick_13"/>
    <g id="xtick_14"/>
    <g id="xtick_15"/>
    <g id="xtick_16"/>
   </g>
   <g id="matplotlib.axis_2">
    <g id="ytick_1">
     <g id="line2d_9">
      <path d="M 57.6 307.584 
L 414.72 307.584 
" clip-path="url(#p7e6226e71b)" style="fill: none; stroke: #ffffff; stroke-linecap: round"/>
     </g>
     <g id="text_9">
      <!-- 0.0 -->
      <g style="fill: #262626" transform="translate(30.606563 311.763141) scale(0.11 -0.11)">
       <defs>
        <path id="DejaVuSans-2e" d="M 684 794 
L 1344 794 
L 1344 0 
L 684 0 
L 684 794 
z
" transform="scale(0.015625)"/>
       </defs>
       <use xlink:href="#DejaVuSans-30"/>
       <use xlink:href="#DejaVuSans-2e" x="63.623047"/>
       <use xlink:href="#DejaVuSans-30" x="95.410156"/>
      </g>
     </g>
    </g>
    <g id="ytick_2">
     <g id="line2d_10">
      <path d="M 57.6 254.3616 
L 414.72 254.3616 
" clip-path="url(#p7e6226e71b)" style="fill: none; stroke: #ffffff; stroke-linecap: round"/>
     </g>
     <g id="text_10">
      <!-- 0.2 -->
      <g style="fill: #262626" transform="translate(30.606563 258.540741) scale(0.11 -0.11)">
       <use xlink:href="#DejaVuSans-30"/>
       <use xlink:href="#DejaVuSans-2e" x="63.623047"/>
       <use xlink:href="#DejaVuSans-32" x="95.410156"/>
      </g>
     </g>
    </g>
    <g id="ytick_3">
     <g id="line2d_11">
      <path d="M 57.6 201.1392 
L 414.72 201.1392 
" clip-path="url(#p7e6226e71b)" style="fill: none; stroke: #ffffff; stroke-linecap: round"/>
     </g>
     <g id="text_11">
      <!-- 0.4 -->
      <g style="fill: #262626" transform="translate(30.606563 205.318341) scale(0.11 -0.11)">
       <use xlink:href="#DejaVuSans-30"/>
       <use xlink:href="#DejaVuSans-2e" x="63.623047"/>
       <use xlink:href="#DejaVuSans-34" x="95.410156"/>
      </g>
     </g>
    </g>
    <g id="ytick_4">
     <g id="line2d_12">
      <path d="M 57.6 147.9168 
L 414.72 147.9168 
" clip-path="url(#p7e6226e71b)" style="fill: none; stroke: #ffffff; stroke-linecap: round"/>
     </g>
     <g id="text_12">
      <!-- 0.6 -->
      <g style="fill: #262626" transform="translate(30.606563 152.095941) scale(0.11 -0.11)">
       <use xlink:href="#DejaVuSans-30"/>
       <use xlink:href="#DejaVuSans-2e" x="63.623047"/>
       <use xlink:href="#DejaVuSans-36" x="95.410156"/>
      </g>
     </g>
    </g>
    <g id="ytick_5">
     <g id="line2d_13">
      <path d="M 57.6 94.6944 
L 414.72 94.6944 
" clip-path="url(#p7e6226e71b)" style="fill: none; stroke: #ffffff; stroke-linecap: round"/>
     </g>
     <g id="text_13">
      <!-- 0.8 -->
      <g style="fill: #262626" transform="translate(30.606563 98.873541) scale(0.11 -0.11)">
       <defs>
        <path id="DejaVuSans-38" d="M 2034 2216 
Q 1584 2216 1326 1975 
Q 1069 1734 1069 1313 
Q 1069 891 1326 650 
Q 1584 409 2034 409 
Q 2484 409 2743 651 
Q 3003 894 3003 1313 
Q 3003 1734 2745 1975 
Q 2488 2216 2034 2216 
z
M 1403 2484 
Q 997 2584 770 2862 
Q 544 3141 544 3541 
Q 544 4100 942 4425 
Q 1341 4750 2034 4750 
Q 2731 4750 3128 4425 
Q 3525 4100 3525 3541 
Q 3525 3141 3298 2862 
Q 3072 2584 2669 2484 
Q 3125 2378 3379 2068 
Q 3634 1759 3634 1313 
Q 3634 634 3220 271 
Q 2806 -91 2034 -91 
Q 1263 -91 848 271 
Q 434 634 434 1313 
Q 434 1759 690 2068 
Q 947 2378 1403 2484 
z
M 1172 3481 
Q 1172 3119 1398 2916 
Q 1625 2713 2034 2713 
Q 2441 2713 2670 2916 
Q 2900 3119 2900 3481 
Q 2900 3844 2670 4047 
Q 2441 4250 2034 4250 
Q 1625 4250 1398 4047 
Q 1172 3844 1172 3481 
z
" transform="scale(0.015625)"/>
       </defs>
       <use xlink:href="#DejaVuSans-30"/>
       <use xlink:href="#DejaVuSans-2e" x="63.623047"/>
       <use xlink:href="#DejaVuSans-38" x="95.410156"/>
      </g>
     </g>
    </g>
    <g id="ytick_6">
     <g id="line2d_14">
      <path d="M 57.6 41.472 
L 414.72 41.472 
" clip-path="url(#p7e6226e71b)" style="fill: none; stroke: #ffffff; stroke-linecap: round"/>
     </g>
     <g id="text_14">
      <!-- 1.0 -->
      <g style="fill: #262626" transform="translate(30.606563 45.651141) scale(0.11 -0.11)">
       <use xlink:href="#DejaVuSans-31"/>
       <use xlink:href="#DejaVuSans-2e" x="63.623047"/>
       <use xlink:href="#DejaVuSans-30" x="95.410156"/>
      </g>
     </g>
    </g>
   </g>
   <g id="line2d_15">
    <path d="M 461.8 60.092152 
L 454.651496 70.692391 
L 446.656717 86.002981 
L 439.119038 103.327356 
L 431.989005 121.913184 
L 425.22478 141.003819 
L 412.655895 177.926623 
L 406.793886 194.588908 
L 401.181402 209.5193 
L 395.798064 222.526707 
L 390.625892 233.398467 
L 385.648943 242.089848 
L 380.853016 248.697953 
L 376.225401 253.354394 
L 371.754686 256.284905 
L 367.430578 257.733677 
L 363.243766 257.766697 
L 359.185801 256.532896 
L 355.248987 254.233887 
L 351.426299 250.969247 
L 347.711308 246.733083 
L 344.09811 241.621071 
L 340.581275 235.914665 
L 337.155798 229.780861 
L 330.560749 217.272529 
L 327.382921 211.59181 
L 324.279873 206.750023 
L 321.248165 203.075301 
L 318.284592 200.841318 
L 315.386157 200.182834 
L 312.550059 201.211865 
L 309.773672 203.90213 
L 307.054535 208.172711 
L 304.390334 213.775267 
L 301.778892 220.414216 
L 299.218162 227.726374 
L 291.821449 249.812332 
L 289.445286 256.204877 
L 287.111181 261.753373 
L 284.817671 266.405136 
L 282.563369 270.214164 
L 280.346956 273.185593 
L 278.167179 275.398635 
L 276.022848 277.007194 
L 273.912827 278.124046 
L 271.836037 278.881567 
L 269.791446 279.366442 
L 267.778071 279.63296 
L 265.794974 279.673177 
L 263.841257 279.500087 
L 261.916062 279.082294 
L 260.01857 278.330106 
L 258.147992 277.203383 
L 256.303578 275.767806 
L 254.484605 274.060493 
L 247.449685 266.545099 
L 245.748068 265.2431 
L 244.068128 264.450623 
L 242.40932 264.266103 
L 240.771119 264.740754 
L 239.15302 265.877637 
L 237.554534 267.66295 
L 235.975192 270.023406 
L 234.414541 272.83938 
L 231.347577 279.250712 
L 228.350324 285.722985 
L 226.876862 288.674137 
L 225.419681 291.315472 
L 223.978427 293.60244 
L 222.552754 295.539054 
L 221.142329 297.099201 
L 219.746829 298.284028 
L 218.365942 299.147738 
L 216.999366 299.731986 
L 215.646805 300.079909 
L 214.307977 300.220266 
L 212.982604 300.218174 
L 210.371163 299.894844 
L 206.548475 299.018232 
L 202.833484 298.202634 
L 200.413719 297.85401 
L 198.037556 297.68599 
L 194.551711 297.684831 
L 190.042776 297.947663 
L 186.75945 298.368035 
L 184.615118 298.856123 
L 182.505097 299.551079 
L 180.428307 300.460475 
L 173.406767 303.963998 
L 171.467417 304.600843 
L 169.556173 305.027267 
L 166.740263 305.363657 
L 163.983225 305.442551 
L 161.28265 305.244168 
L 159.51251 304.925028 
L 156.901068 304.197048 
L 152.660398 302.91531 
L 151.001591 302.628714 
L 149.36339 302.55309 
L 147.74529 302.687142 
L 144.567462 303.295757 
L 142.233357 303.659687 
L 139.939847 303.71842 
L 135.469132 303.536316 
L 134.011952 303.739067 
L 132.570697 304.140509 
L 130.437926 305.004949 
L 127.646849 306.159155 
L 125.591636 306.713312 
L 123.567962 306.972015 
L 121.574874 307.012207 
L 118.963433 306.840918 
L 112.037697 306.193163 
L 103.718594 306.01039 
L 101.435013 306.389189 
L 98.635046 306.885451 
L 96.437104 307.015537 
L 87.994319 307.027745 
L 84.464034 307.197761 
L 82.488365 307.067151 
L 77.67493 306.559469 
L 75.797695 306.741561 
L 71.669145 307.321991 
L 69.430153 307.351953 
L 62.089963 307.148981 
L 58.363306 307.154284 
L 53.552798 307.128495 
L 47.400149 307.418346 
L 43.330799 307.431098 
L 39.030196 307.5161 
L 32.495362 307.45859 
L 27.879319 307.540137 
L 3.674034 307.481726 
L -1 307.372744 
L -1 307.372744 
" clip-path="url(#p7e6226e71b)" style="fill: none; stroke: #4c72b0; stroke-width: 1.5; stroke-linecap: round"/>
   </g>
   <g id="line2d_16">
    <path d="M 461.8 307.375464 
L 413.083362 307.106573 
L 381.280483 306.717415 
L 363.671234 306.308825 
L 348.138775 305.697806 
L 334.244517 304.881447 
L 312.977526 303.297399 
L 299.645629 302.410678 
L 287.538648 301.854859 
L 251.347707 300.475816 
L 246.175535 300.009693 
L 242.836787 299.497016 
L 239.580487 298.728939 
L 236.402659 297.637954 
L 233.29961 296.186644 
L 230.267902 294.377439 
L 227.304329 292.261369 
L 222.980221 288.778109 
L 218.79341 285.407734 
L 216.074272 283.534084 
L 214.735444 282.772138 
L 213.410071 282.149617 
L 212.097886 281.676157 
L 210.79863 281.357333 
L 209.512049 281.194309 
L 208.237899 281.183767 
L 206.975942 281.318112 
L 204.48769 281.941879 
L 199.647753 283.570024 
L 198.465023 283.780212 
L 197.292807 283.792675 
L 196.130918 283.548345 
L 194.979178 282.994405 
L 193.837409 282.076675 
L 192.705441 280.755447 
L 191.583106 279.004429 
L 190.470243 276.809142 
L 189.366693 274.167838 
L 188.272301 271.091602 
L 187.186917 267.603659 
L 185.042585 259.569748 
L 182.932565 250.559018 
L 177.800653 227.735432 
L 175.802532 220.056543 
L 173.834235 213.882421 
L 172.860994 211.412152 
L 171.894884 209.357266 
L 170.9358 207.705964 
L 169.98364 206.435232 
L 169.038307 205.513969 
L 168.099702 204.915498 
L 167.16773 204.5975 
L 166.242298 204.520616 
L 165.323315 204.650925 
L 164.410692 204.962074 
L 163.504342 205.436933 
L 162.604178 206.068674 
L 161.710117 206.861195 
L 160.822077 207.828882 
L 159.939977 208.956833 
L 158.193283 211.745694 
L 156.469422 215.285715 
L 154.767805 219.550879 
L 152.255853 226.919951 
L 148.979325 236.765138 
L 147.371092 240.6586 
L 146.574271 242.145089 
L 145.782236 243.252625 
L 144.994929 243.948521 
L 144.212295 244.210853 
L 143.434278 244.029846 
L 142.660824 243.408482 
L 141.89188 242.362316 
L 141.127394 240.918497 
L 140.367315 239.119796 
L 138.860173 234.67988 
L 136.631272 226.810629 
L 133.716822 216.505431 
L 132.283401 212.196798 
L 130.865393 208.667635 
L 129.46247 205.924416 
L 128.074316 203.90391 
L 127.38568 203.161899 
L 126.700621 202.589572 
L 126.019103 202.188825 
L 125.341089 201.973021 
L 124.666543 201.966158 
L 123.995429 202.201353 
L 123.327714 202.718767 
L 122.663363 203.563079 
L 122.002341 204.773911 
L 121.344617 206.381221 
L 120.690157 208.415821 
L 120.038928 210.897115 
L 118.746041 217.213854 
L 117.465705 225.232222 
L 113.697635 251.593353 
L 113.07996 254.579285 
L 112.465164 256.580583 
L 111.853221 257.38423 
L 111.244105 256.786607 
L 110.637789 254.614691 
L 110.034248 250.752653 
L 109.433456 245.130219 
L 108.83539 237.72709 
L 107.647332 217.751845 
L 106.469883 191.757891 
L 104.723189 146.02591 
L 102.999328 100.185466 
L 101.86248 74.364796 
L 100.73535 55.161529 
L 100.175377 48.557709 
L 99.617771 44.073916 
L 99.062514 41.726921 
L 98.509584 41.472 
L 97.958963 43.20574 
L 97.410632 46.772541 
L 96.864571 51.935321 
L 95.779187 66.057523 
L 94.167678 92.627546 
L 92.049183 128.42628 
L 90.482351 150.660062 
L 89.448044 162.653941 
L 88.421786 172.547846 
L 87.403453 180.738972 
L 85.890548 190.972718 
L 80.969324 222.34952 
L 76.691972 251.675259 
L 75.76 256.580128 
L 74.834568 260.161243 
L 74.374276 261.384274 
L 73.915585 262.211671 
L 73.458485 262.644543 
L 73.002963 262.695316 
L 72.549009 262.386952 
L 72.096612 261.749722 
L 71.645762 260.816147 
L 70.74866 258.225755 
L 69.85762 254.923253 
L 68.532247 249.071627 
L 67.220062 242.327673 
L 65.920806 234.715371 
L 64.208139 223.319716 
L 61.680136 206.390792 
L 60.848123 201.990203 
L 60.021328 198.727272 
L 59.609866 197.578342 
L 59.199683 196.762552 
L 58.790773 196.276602 
L 58.383127 196.107811 
L 57.976737 196.234916 
L 57.571595 196.6245 
L 56.765027 198.028883 
L 55.56435 201.034888 
L 53.980265 204.979564 
L 53.195301 206.397699 
L 52.414983 207.304781 
L 51.639254 207.699848 
L 50.868062 207.657473 
L 49.339077 207.184342 
L 48.959585 207.216985 
L 48.581181 207.41324 
L 48.203861 207.826274 
L 47.827617 208.504782 
L 47.452443 209.495721 
L 46.705282 212.56173 
L 45.962331 217.195254 
L 45.223542 223.388065 
L 44.123062 235.112123 
L 40.519737 277.018023 
L 39.457663 285.557042 
L 38.404074 291.713892 
L 37.706329 294.697686 
L 37.012257 296.929802 
L 36.321818 298.401138 
L 35.97795 298.810593 
L 35.634976 298.966204 
L 35.292891 298.85382 
L 34.951692 298.453815 
L 34.611373 297.747209 
L 33.933359 295.381008 
L 33.258813 291.779601 
L 32.253419 284.491324 
L 29.282427 260.407512 
L 28.306786 255.099601 
L 27.660346 252.621212 
L 27.01706 250.885251 
L 26.376896 249.763549 
L 25.739825 249.127438 
L 25.105816 248.925923 
L 24.789952 248.997005 
L 24.160483 249.527322 
L 23.534004 250.609566 
L 22.910488 252.290429 
L 22.289906 254.550037 
L 21.364474 258.806374 
L 18.32578 274.033927 
L 17.129641 278.389834 
L 16.239602 280.872786 
L 15.355531 282.662915 
L 14.769426 283.33983 
L 14.477347 283.46808 
L 14.185914 283.429279 
L 13.895123 283.209383 
L 13.604972 282.79339 
L 13.026579 281.33958 
L 12.450711 279.059814 
L 11.591598 274.308819 
L 10.172063 264.520281 
L 8.767647 255.139364 
L 7.654784 249.054754 
L 6.551234 244.229133 
L 5.729589 241.37994 
L 5.184657 239.938631 
L 4.641967 238.997807 
L 4.371457 238.747807 
L 4.101501 238.659648 
L 3.832096 238.74019 
L 3.563241 238.991506 
L 3.027169 239.990366 
L 2.493268 241.579662 
L 1.696447 244.77558 
L 0.117105 252.402429 
L -1 257.986248 
L -1 257.986248 
" clip-path="url(#p7e6226e71b)" style="fill: none; stroke: #dd8452; stroke-width: 1.5; stroke-linecap: round"/>
   </g>
   <g id="patch_3">
    <path d="M 57.6 307.584 
L 57.6 41.472 
" style="fill: none; stroke: #ffffff; stroke-width: 1.25; stroke-linejoin: miter; stroke-linecap: square"/>
   </g>
   <g id="patch_4">
    <path d="M 414.72 307.584 
L 414.72 41.472 
" style="fill: none; stroke: #ffffff; stroke-width: 1.25; stroke-linejoin: miter; stroke-linecap: square"/>
   </g>
   <g id="patch_5">
    <path d="M 57.6 307.584 
L 414.72 307.584 
" style="fill: none; stroke: #ffffff; stroke-width: 1.25; stroke-linejoin: miter; stroke-linecap: square"/>
   </g>
   <g id="patch_6">
    <path d="M 57.6 41.472 
L 414.72 41.472 
" style="fill: none; stroke: #ffffff; stroke-width: 1.25; stroke-linejoin: miter; stroke-linecap: square"/>
   </g>
  </g>
 </g>
 <defs>
  <clipPath id="p7e6226e71b">
   <rect x="57.6" y="41.472" width="357.12" height="266.112"/>
  </clipPath>
 </defs>
</svg>
