<?xml version="1.0" encoding="utf-8" standalone="no"?>
<!DOCTYPE svg PUBLIC "-//W3C//DTD SVG 1.1//EN"
  "http://www.w3.org/Graphics/SVG/1.1/DTD/svg11.dtd">
<svg xmlns:xlink="http://www.w3.org/1999/xlink" width="576pt" height="288pt" viewBox="0 0 576 288" xmlns="http://www.w3.org/2000/svg" version="1.1">
 <metadata>
  <rdf:RDF xmlns:dc="http://purl.org/dc/elements/1.1/" xmlns:cc="http://creativecommons.org/ns#" xmlns:rdf="http://www.w3.org/1999/02/22-rdf-syntax-ns#">
   <cc:Work>
    <dc:type rdf:resource="http://purl.org/dc/dcmitype/StillImage"/>
    <dc:date>2024-05-07T22:55:59.473580</dc:date>
    <dc:format>image/svg+xml</dc:format>
    <dc:creator>
     <cc:Agent>
      <dc:title>Matplotlib v3.8.3, https://matplotlib.org/</dc:title>
     </cc:Agent>
    </dc:creator>
   </cc:Work>
  </rdf:RDF>
 </metadata>
 <defs>
  <style type="text/css">*{stroke-linejoin: round; stroke-linecap: butt}</style>
 </defs>
 <g id="figure_1">
  <g id="patch_1">
   <path d="M 0 288 
L 576 288 
L 576 0 
L 0 0 
L 0 288 
z
" style="fill: none"/>
  </g>
  <g id="axes_1">
   <g id="patch_2">
    <path d="M 29.92 237.78 
L 556.11 237.78 
L 556.11 42.38 
L 29.92 42.38 
L 29.92 237.78 
z
" style="fill: none"/>
   </g>
   <g id="matplotlib.axis_1">
    <g id="xtick_1">
     <g id="line2d_1">
      <path d="M 29.92 237.78 
L 29.92 42.38 
" clip-path="url(#p2681d09b82)" style="fill: none; stroke: #ffffff; stroke-linecap: round"/>
     </g>
     <g id="text_1">
      <!-- 2 -->
      <g style="fill: #262626" transform="translate(26.420625 255.638281) scale(0.11 -0.11)">
       <defs>
        <path id="DejaVuSans-32" d="M 1228 531 
L 3431 531 
L 3431 0 
L 469 0 
L 469 531 
Q 828 903 1448 1529 
Q 2069 2156 2228 2338 
Q 2531 2678 2651 2914 
Q 2772 3150 2772 3378 
Q 2772 3750 2511 3984 
Q 2250 4219 1831 4219 
Q 1534 4219 1204 4116 
Q 875 4013 500 3803 
L 500 4441 
Q 881 4594 1212 4672 
Q 1544 4750 1819 4750 
Q 2544 4750 2975 4387 
Q 3406 4025 3406 3419 
Q 3406 3131 3298 2873 
Q 3191 2616 2906 2266 
Q 2828 2175 2409 1742 
Q 1991 1309 1228 531 
z
" transform="scale(0.015625)"/>
       </defs>
       <use xlink:href="#DejaVuSans-32"/>
      </g>
     </g>
    </g>
    <g id="xtick_2">
     <g id="line2d_2">
      <path d="M 176.696989 237.78 
L 176.696989 42.38 
" clip-path="url(#p2681d09b82)" style="fill: none; stroke: #ffffff; stroke-linecap: round"/>
     </g>
     <g id="text_2">
      <!-- 4 -->
      <g style="fill: #262626" transform="translate(173.197614 255.638281) scale(0.11 -0.11)">
       <defs>
        <path id="DejaVuSans-34" d="M 2419 4116 
L 825 1625 
L 2419 1625 
L 2419 4116 
z
M 2253 4666 
L 3047 4666 
L 3047 1625 
L 3713 1625 
L 3713 1100 
L 3047 1100 
L 3047 0 
L 2419 0 
L 2419 1100 
L 313 1100 
L 313 1709 
L 2253 4666 
z
" transform="scale(0.015625)"/>
       </defs>
       <use xlink:href="#DejaVuSans-34"/>
      </g>
     </g>
    </g>
    <g id="xtick_3">
     <g id="line2d_3">
      <path d="M 262.556023 237.78 
L 262.556023 42.38 
" clip-path="url(#p2681d09b82)" style="fill: none; stroke: #ffffff; stroke-linecap: round"/>
     </g>
     <g id="text_3">
      <!-- 6 -->
      <g style="fill: #262626" transform="translate(259.056648 255.638281) scale(0.11 -0.11)">
       <defs>
        <path id="DejaVuSans-36" d="M 2113 2584 
Q 1688 2584 1439 2293 
Q 1191 2003 1191 1497 
Q 1191 994 1439 701 
Q 1688 409 2113 409 
Q 2538 409 2786 701 
Q 3034 994 3034 1497 
Q 3034 2003 2786 2293 
Q 2538 2584 2113 2584 
z
M 3366 4563 
L 3366 3988 
Q 3128 4100 2886 4159 
Q 2644 4219 2406 4219 
Q 1781 4219 1451 3797 
Q 1122 3375 1075 2522 
Q 1259 2794 1537 2939 
Q 1816 3084 2150 3084 
Q 2853 3084 3261 2657 
Q 3669 2231 3669 1497 
Q 3669 778 3244 343 
Q 2819 -91 2113 -91 
Q 1303 -91 875 529 
Q 447 1150 447 2328 
Q 447 3434 972 4092 
Q 1497 4750 2381 4750 
Q 2619 4750 2861 4703 
Q 3103 4656 3366 4563 
z
" transform="scale(0.015625)"/>
       </defs>
       <use xlink:href="#DejaVuSans-36"/>
      </g>
     </g>
    </g>
    <g id="xtick_4">
     <g id="line2d_4">
      <path d="M 409.333011 237.78 
L 409.333011 42.38 
" clip-path="url(#p2681d09b82)" style="fill: none; stroke: #ffffff; stroke-linecap: round"/>
     </g>
     <g id="text_4">
      <!-- 12 -->
      <g style="fill: #262626" transform="translate(402.334261 255.638281) scale(0.11 -0.11)">
       <defs>
        <path id="DejaVuSans-31" d="M 794 531 
L 1825 531 
L 1825 4091 
L 703 3866 
L 703 4441 
L 1819 4666 
L 2450 4666 
L 2450 531 
L 3481 531 
L 3481 0 
L 794 0 
L 794 531 
z
" transform="scale(0.015625)"/>
       </defs>
       <use xlink:href="#DejaVuSans-31"/>
       <use xlink:href="#DejaVuSans-32" x="63.623047"/>
      </g>
     </g>
    </g>
    <g id="xtick_5">
     <g id="line2d_5">
      <path d="M 556.11 237.78 
L 556.11 42.38 
" clip-path="url(#p2681d09b82)" style="fill: none; stroke: #ffffff; stroke-linecap: round"/>
     </g>
     <g id="text_5">
      <!-- 24 -->
      <g style="fill: #262626" transform="translate(549.11125 255.638281) scale(0.11 -0.11)">
       <use xlink:href="#DejaVuSans-32"/>
       <use xlink:href="#DejaVuSans-34" x="63.623047"/>
      </g>
     </g>
    </g>
    <g id="xtick_6"/>
    <g id="xtick_7"/>
    <g id="xtick_8"/>
    <g id="xtick_9"/>
    <g id="xtick_10"/>
    <g id="xtick_11"/>
    <g id="xtick_12"/>
    <g id="xtick_13"/>
    <g id="xtick_14"/>
    <g id="text_6">
     <!-- Years -->
     <g style="fill: #262626" transform="translate(277.184375 271.044062) scale(0.12 -0.12)">
      <defs>
       <path id="DejaVuSans-59" d="M -13 4666 
L 666 4666 
L 1959 2747 
L 3244 4666 
L 3922 4666 
L 2272 2222 
L 2272 0 
L 1638 0 
L 1638 2222 
L -13 4666 
z
" transform="scale(0.015625)"/>
       <path id="DejaVuSans-65" d="M 3597 1894 
L 3597 1613 
L 953 1613 
Q 991 1019 1311 708 
Q 1631 397 2203 397 
Q 2534 397 2845 478 
Q 3156 559 3463 722 
L 3463 178 
Q 3153 47 2828 -22 
Q 2503 -91 2169 -91 
Q 1331 -91 842 396 
Q 353 884 353 1716 
Q 353 2575 817 3079 
Q 1281 3584 2069 3584 
Q 2775 3584 3186 3129 
Q 3597 2675 3597 1894 
z
M 3022 2063 
Q 3016 2534 2758 2815 
Q 2500 3097 2075 3097 
Q 1594 3097 1305 2825 
Q 1016 2553 972 2059 
L 3022 2063 
z
" transform="scale(0.015625)"/>
       <path id="DejaVuSans-61" d="M 2194 1759 
Q 1497 1759 1228 1600 
Q 959 1441 959 1056 
Q 959 750 1161 570 
Q 1363 391 1709 391 
Q 2188 391 2477 730 
Q 2766 1069 2766 1631 
L 2766 1759 
L 2194 1759 
z
M 3341 1997 
L 3341 0 
L 2766 0 
L 2766 531 
Q 2569 213 2275 61 
Q 1981 -91 1556 -91 
Q 1019 -91 701 211 
Q 384 513 384 1019 
Q 384 1609 779 1909 
Q 1175 2209 1959 2209 
L 2766 2209 
L 2766 2266 
Q 2766 2663 2505 2880 
Q 2244 3097 1772 3097 
Q 1472 3097 1187 3025 
Q 903 2953 641 2809 
L 641 3341 
Q 956 3463 1253 3523 
Q 1550 3584 1831 3584 
Q 2591 3584 2966 3190 
Q 3341 2797 3341 1997 
z
" transform="scale(0.015625)"/>
       <path id="DejaVuSans-72" d="M 2631 2963 
Q 2534 3019 2420 3045 
Q 2306 3072 2169 3072 
Q 1681 3072 1420 2755 
Q 1159 2438 1159 1844 
L 1159 0 
L 581 0 
L 581 3500 
L 1159 3500 
L 1159 2956 
Q 1341 3275 1631 3429 
Q 1922 3584 2338 3584 
Q 2397 3584 2469 3576 
Q 2541 3569 2628 3553 
L 2631 2963 
z
" transform="scale(0.015625)"/>
       <path id="DejaVuSans-73" d="M 2834 3397 
L 2834 2853 
Q 2591 2978 2328 3040 
Q 2066 3103 1784 3103 
Q 1356 3103 1142 2972 
Q 928 2841 928 2578 
Q 928 2378 1081 2264 
Q 1234 2150 1697 2047 
L 1894 2003 
Q 2506 1872 2764 1633 
Q 3022 1394 3022 966 
Q 3022 478 2636 193 
Q 2250 -91 1575 -91 
Q 1294 -91 989 -36 
Q 684 19 347 128 
L 347 722 
Q 666 556 975 473 
Q 1284 391 1588 391 
Q 1994 391 2212 530 
Q 2431 669 2431 922 
Q 2431 1156 2273 1281 
Q 2116 1406 1581 1522 
L 1381 1569 
Q 847 1681 609 1914 
Q 372 2147 372 2553 
Q 372 3047 722 3315 
Q 1072 3584 1716 3584 
Q 2034 3584 2315 3537 
Q 2597 3491 2834 3397 
z
" transform="scale(0.015625)"/>
      </defs>
      <use xlink:href="#DejaVuSans-59"/>
      <use xlink:href="#DejaVuSans-65" x="47.833984"/>
      <use xlink:href="#DejaVuSans-61" x="109.357422"/>
      <use xlink:href="#DejaVuSans-72" x="170.636719"/>
      <use xlink:href="#DejaVuSans-73" x="211.75"/>
     </g>
    </g>
   </g>
   <g id="matplotlib.axis_2">
    <g id="text_7">
     <!-- Spectral density -->
     <g style="fill: #262626" transform="translate(23.424375 188.757812) rotate(-90) scale(0.12 -0.12)">
      <defs>
       <path id="DejaVuSans-53" d="M 3425 4513 
L 3425 3897 
Q 3066 4069 2747 4153 
Q 2428 4238 2131 4238 
Q 1616 4238 1336 4038 
Q 1056 3838 1056 3469 
Q 1056 3159 1242 3001 
Q 1428 2844 1947 2747 
L 2328 2669 
Q 3034 2534 3370 2195 
Q 3706 1856 3706 1288 
Q 3706 609 3251 259 
Q 2797 -91 1919 -91 
Q 1588 -91 1214 -16 
Q 841 59 441 206 
L 441 856 
Q 825 641 1194 531 
Q 1563 422 1919 422 
Q 2459 422 2753 634 
Q 3047 847 3047 1241 
Q 3047 1584 2836 1778 
Q 2625 1972 2144 2069 
L 1759 2144 
Q 1053 2284 737 2584 
Q 422 2884 422 3419 
Q 422 4038 858 4394 
Q 1294 4750 2059 4750 
Q 2388 4750 2728 4690 
Q 3069 4631 3425 4513 
z
" transform="scale(0.015625)"/>
       <path id="DejaVuSans-70" d="M 1159 525 
L 1159 -1331 
L 581 -1331 
L 581 3500 
L 1159 3500 
L 1159 2969 
Q 1341 3281 1617 3432 
Q 1894 3584 2278 3584 
Q 2916 3584 3314 3078 
Q 3713 2572 3713 1747 
Q 3713 922 3314 415 
Q 2916 -91 2278 -91 
Q 1894 -91 1617 61 
Q 1341 213 1159 525 
z
M 3116 1747 
Q 3116 2381 2855 2742 
Q 2594 3103 2138 3103 
Q 1681 3103 1420 2742 
Q 1159 2381 1159 1747 
Q 1159 1113 1420 752 
Q 1681 391 2138 391 
Q 2594 391 2855 752 
Q 3116 1113 3116 1747 
z
" transform="scale(0.015625)"/>
       <path id="DejaVuSans-63" d="M 3122 3366 
L 3122 2828 
Q 2878 2963 2633 3030 
Q 2388 3097 2138 3097 
Q 1578 3097 1268 2742 
Q 959 2388 959 1747 
Q 959 1106 1268 751 
Q 1578 397 2138 397 
Q 2388 397 2633 464 
Q 2878 531 3122 666 
L 3122 134 
Q 2881 22 2623 -34 
Q 2366 -91 2075 -91 
Q 1284 -91 818 406 
Q 353 903 353 1747 
Q 353 2603 823 3093 
Q 1294 3584 2113 3584 
Q 2378 3584 2631 3529 
Q 2884 3475 3122 3366 
z
" transform="scale(0.015625)"/>
       <path id="DejaVuSans-74" d="M 1172 4494 
L 1172 3500 
L 2356 3500 
L 2356 3053 
L 1172 3053 
L 1172 1153 
Q 1172 725 1289 603 
Q 1406 481 1766 481 
L 2356 481 
L 2356 0 
L 1766 0 
Q 1100 0 847 248 
Q 594 497 594 1153 
L 594 3053 
L 172 3053 
L 172 3500 
L 594 3500 
L 594 4494 
L 1172 4494 
z
" transform="scale(0.015625)"/>
       <path id="DejaVuSans-6c" d="M 603 4863 
L 1178 4863 
L 1178 0 
L 603 0 
L 603 4863 
z
" transform="scale(0.015625)"/>
       <path id="DejaVuSans-20" transform="scale(0.015625)"/>
       <path id="DejaVuSans-64" d="M 2906 2969 
L 2906 4863 
L 3481 4863 
L 3481 0 
L 2906 0 
L 2906 525 
Q 2725 213 2448 61 
Q 2172 -91 1784 -91 
Q 1150 -91 751 415 
Q 353 922 353 1747 
Q 353 2572 751 3078 
Q 1150 3584 1784 3584 
Q 2172 3584 2448 3432 
Q 2725 3281 2906 2969 
z
M 947 1747 
Q 947 1113 1208 752 
Q 1469 391 1925 391 
Q 2381 391 2643 752 
Q 2906 1113 2906 1747 
Q 2906 2381 2643 2742 
Q 2381 3103 1925 3103 
Q 1469 3103 1208 2742 
Q 947 2381 947 1747 
z
" transform="scale(0.015625)"/>
       <path id="DejaVuSans-6e" d="M 3513 2113 
L 3513 0 
L 2938 0 
L 2938 2094 
Q 2938 2591 2744 2837 
Q 2550 3084 2163 3084 
Q 1697 3084 1428 2787 
Q 1159 2491 1159 1978 
L 1159 0 
L 581 0 
L 581 3500 
L 1159 3500 
L 1159 2956 
Q 1366 3272 1645 3428 
Q 1925 3584 2291 3584 
Q 2894 3584 3203 3211 
Q 3513 2838 3513 2113 
z
" transform="scale(0.015625)"/>
       <path id="DejaVuSans-69" d="M 603 3500 
L 1178 3500 
L 1178 0 
L 603 0 
L 603 3500 
z
M 603 4863 
L 1178 4863 
L 1178 4134 
L 603 4134 
L 603 4863 
z
" transform="scale(0.015625)"/>
       <path id="DejaVuSans-79" d="M 2059 -325 
Q 1816 -950 1584 -1140 
Q 1353 -1331 966 -1331 
L 506 -1331 
L 506 -850 
L 844 -850 
Q 1081 -850 1212 -737 
Q 1344 -625 1503 -206 
L 1606 56 
L 191 3500 
L 800 3500 
L 1894 763 
L 2988 3500 
L 3597 3500 
L 2059 -325 
z
" transform="scale(0.015625)"/>
      </defs>
      <use xlink:href="#DejaVuSans-53"/>
      <use xlink:href="#DejaVuSans-70" x="63.476562"/>
      <use xlink:href="#DejaVuSans-65" x="126.953125"/>
      <use xlink:href="#DejaVuSans-63" x="188.476562"/>
      <use xlink:href="#DejaVuSans-74" x="243.457031"/>
      <use xlink:href="#DejaVuSans-72" x="282.666016"/>
      <use xlink:href="#DejaVuSans-61" x="323.779297"/>
      <use xlink:href="#DejaVuSans-6c" x="385.058594"/>
      <use xlink:href="#DejaVuSans-20" x="412.841797"/>
      <use xlink:href="#DejaVuSans-64" x="444.628906"/>
      <use xlink:href="#DejaVuSans-65" x="508.105469"/>
      <use xlink:href="#DejaVuSans-6e" x="569.628906"/>
      <use xlink:href="#DejaVuSans-73" x="633.007812"/>
      <use xlink:href="#DejaVuSans-69" x="685.107422"/>
      <use xlink:href="#DejaVuSans-74" x="712.890625"/>
      <use xlink:href="#DejaVuSans-79" x="752.099609"/>
     </g>
    </g>
   </g>
   <g id="line2d_6">
    <path d="M 555.995695 231.003661 
L 539.755692 229.883538 
L 524.672951 228.625891 
L 510.593454 227.236482 
L 500.911565 226.095955 
L 491.653066 224.796171 
L 482.782473 223.325228 
L 475.314288 221.87516 
L 468.100545 220.242056 
L 462.107094 218.6698 
L 455.322619 216.648337 
L 449.6755 214.740449 
L 444.175075 212.647172 
L 438.813917 210.351057 
L 433.585147 207.839831 
L 428.482384 205.106656 
L 423.499696 202.151496 
L 418.631564 198.996844 
L 413.872837 195.659747 
L 408.452867 191.563254 
L 403.168168 187.29159 
L 396.561775 181.637347 
L 388.062128 174.033587 
L 371.379928 158.931651 
L 365.682155 154.123439 
L 360.743052 150.232437 
L 356.513865 147.175983 
L 352.367492 144.450005 
L 348.300752 142.045618 
L 344.310645 139.947258 
L 340.394335 138.133128 
L 336.549142 136.591184 
L 332.77253 135.335113 
L 329.062094 134.336563 
L 325.415556 133.57618 
L 321.830752 133.04112 
L 318.305627 132.725422 
L 304.764201 131.895699 
L 301.509952 131.36197 
L 299.215732 130.788253 
L 296.946103 129.995746 
L 294.254273 128.756998 
L 292.036929 127.533944 
L 289.842562 126.079667 
L 287.670703 124.356138 
L 285.520893 122.336427 
L 283.39269 120.005088 
L 281.285664 117.358392 
L 279.199396 114.404382 
L 276.722708 110.474334 
L 274.274652 106.105442 
L 271.854575 101.340241 
L 269.065671 95.381885 
L 265.533078 87.294762 
L 254.5353 61.622555 
L 251.964096 56.470722 
L 249.784786 52.635945 
L 247.985672 49.92285 
L 246.557306 48.10658 
L 245.138511 46.633367 
L 243.729158 45.515025 
L 242.678266 44.909623 
L 241.632563 44.511431 
L 240.591998 44.327392 
L 239.556522 44.363184 
L 238.526085 44.623191 
L 237.500638 45.110477 
L 236.480132 45.826773 
L 235.464522 46.772466 
L 234.117907 48.388382 
L 232.779802 50.404285 
L 231.450099 52.810026 
L 229.799628 56.342441 
L 228.161921 60.400879 
L 226.213247 65.859136 
L 223.962229 72.89955 
L 221.102786 82.6835 
L 212.749081 111.900439 
L 210.335899 119.456819 
L 208.246691 125.291028 
L 206.472202 129.628003 
L 204.71246 133.3294 
L 203.257097 135.941504 
L 202.099966 137.686579 
L 200.949124 139.064136 
L 199.804503 140.097171 
L 198.666035 140.808766 
L 197.533656 141.221879 
L 196.4073 141.359117 
L 195.286904 141.242533 
L 194.172404 140.893413 
L 193.063739 140.332077 
L 191.686022 139.361256 
L 190.044506 137.894734 
L 187.875428 135.6438 
L 183.60281 130.758673 
L 180.97555 127.958482 
L 179.155673 126.338007 
L 177.608131 125.238885 
L 176.327096 124.575316 
L 175.053764 124.176319 
L 174.040583 124.066022 
L 173.032226 124.153635 
L 172.028649 124.447719 
L 171.029806 124.954197 
L 170.035651 125.676287 
L 168.799487 126.877362 
L 167.570496 128.401918 
L 166.348598 130.25377 
L 164.891566 132.882259 
L 163.204271 136.455279 
L 161.292254 141.102053 
L 158.926258 147.52903 
L 155.657657 157.174239 
L 151.074049 170.677102 
L 148.818922 176.645864 
L 147.031954 180.834328 
L 145.480633 183.977498 
L 143.940593 186.600937 
L 142.629416 188.424532 
L 141.326308 189.855963 
L 140.246477 190.755835 
L 139.172124 191.398187 
L 138.103195 191.798958 
L 137.039635 191.980873 
L 135.770373 191.941619 
L 134.508675 191.66421 
L 133.046132 191.108795 
L 130.974155 190.058242 
L 124.676916 186.73608 
L 123.081772 186.242514 
L 121.498554 185.97009 
L 120.122882 185.934006 
L 118.561552 186.10366 
L 116.240932 186.616789 
L 113.185811 187.285377 
L 111.298504 187.472987 
L 109.800676 187.407841 
L 108.498713 187.140133 
L 107.204705 186.65279 
L 105.918557 185.94298 
L 104.458176 184.86921 
L 102.827197 183.339974 
L 100.850688 181.143074 
L 95.552135 175.063082 
L 93.988082 173.667462 
L 92.607445 172.746282 
L 91.406728 172.22765 
L 90.382934 172.012876 
L 89.364065 172.029467 
L 88.350076 172.284728 
L 87.340918 172.772075 
L 86.169615 173.619204 
L 85.004754 174.742974 
L 83.681285 176.325911 
L 82.202203 178.429612 
L 80.408354 181.403118 
L 78.147034 185.622254 
L 71.660212 198.093171 
L 69.953132 200.751334 
L 68.259703 202.939929 
L 66.884173 204.340277 
L 65.668936 205.251494 
L 64.611295 205.783767 
L 63.55891 206.075176 
L 62.51173 206.133996 
L 61.469702 205.970278 
L 60.285059 205.552043 
L 58.813514 204.76447 
L 56.625196 203.279639 
L 54.028719 201.5473 
L 52.599871 200.859061 
L 51.463695 200.538991 
L 50.474516 200.465361 
L 49.489937 200.610629 
L 48.509915 200.984374 
L 47.534407 201.595357 
L 46.425017 202.58541 
L 45.321408 203.876628 
L 43.949937 205.870168 
L 42.315811 208.697128 
L 39.753962 213.68909 
L 36.825822 219.256981 
L 34.983323 222.307742 
L 33.416698 224.483662 
L 32.119974 225.972248 
L 30.831142 227.114029 
L 29.933604 227.741726 
L 29.933604 227.741726 
" style="fill: none; stroke: #1a1a1a; stroke-width: 1.5; stroke-linecap: round"/>
   </g>
   <g id="line2d_7">
    <path d="M 554.660852 227.916649 
L 537.126334 226.436706 
L 526.194646 225.277644 
L 517.071506 224.114493 
L 508.325242 222.778359 
L 501.105641 221.455794 
L 495.271817 220.195538 
L 489.594414 218.759841 
L 484.065264 217.115811 
L 479.743595 215.62561 
L 475.508365 213.960306 
L 471.356184 212.125587 
L 467.283858 210.107412 
L 463.288373 207.886663 
L 459.366882 205.445821 
L 455.516696 202.76913 
L 451.735266 199.842746 
L 448.020181 196.654867 
L 444.369152 193.195844 
L 440.780008 189.458275 
L 437.250685 185.436998 
L 433.779223 181.12847 
L 430.363755 176.532094 
L 427.002503 171.649802 
L 423.693773 166.49595 
L 419.629264 159.7366 
L 415.641303 152.651833 
L 411.727062 145.277097 
L 407.123523 136.111134 
L 401.876242 125.110707 
L 395.315339 110.784716 
L 384.812967 87.74984 
L 380.084601 77.916577 
L 376.114089 70.160436 
L 372.861269 64.293547 
L 370.294517 60.051439 
L 367.758506 56.252923 
L 365.252507 52.932839 
L 363.39228 50.775262 
L 361.548253 48.91522 
L 359.720146 47.362356 
L 357.907686 46.124247 
L 356.110608 45.204105 
L 354.328653 44.606136 
L 352.561568 44.333182 
L 350.809107 44.386271 
L 349.071031 44.764891 
L 347.347105 45.468176 
L 345.6371 46.491992 
L 343.940794 47.830264 
L 342.257968 49.475231 
L 340.588411 51.417494 
L 338.931914 53.646064 
L 336.743218 57.040999 
L 334.576914 60.888788 
L 332.432547 65.151413 
L 329.782269 70.998769 
L 327.164752 77.34184 
L 324.065851 85.541638 
L 320.506869 95.733855 
L 316.511384 107.887857 
L 307.788 135.426164 
L 302.628722 151.264084 
L 298.953933 161.903736 
L 295.789987 170.408743 
L 292.67262 178.103773 
L 290.036639 184.039057 
L 287.433068 189.369864 
L 284.86112 194.117003 
L 282.320036 198.31577 
L 279.809085 202.015194 
L 277.327559 205.277011 
L 274.874778 208.124926 
L 272.450082 210.568597 
L 270.052837 212.678207 
L 267.289925 214.800361 
L 264.175833 216.881418 
L 260.726363 218.89825 
L 256.958391 220.834119 
L 250.340527 223.87194 
L 243.923235 226.673795 
L 239.063083 228.56799 
L 234.98422 229.939457 
L 231.313051 230.945771 
L 227.704445 231.698597 
L 224.156306 232.19929 
L 220.981517 232.433852 
L 217.543362 232.457838 
L 214.16014 232.259508 
L 210.529975 231.829929 
L 206.078071 231.065842 
L 191.605627 228.347369 
L 188.069504 228.039872 
L 184.856986 227.989971 
L 181.692477 228.173823 
L 178.574564 228.575602 
L 174.99409 229.269564 
L 170.229728 230.448608 
L 161.011012 232.803733 
L 157.246389 233.507643 
L 153.776823 233.923529 
L 150.13756 234.12497 
L 146.116785 234.107096 
L 140.656079 233.826384 
L 132.616484 233.41292 
L 128.301106 233.439705 
L 124.271404 233.685375 
L 119.73011 234.19314 
L 103.563538 236.246401 
L 98.732429 236.471636 
L 93.145838 236.496781 
L 86.19689 236.292773 
L 68.914282 235.629101 
L 63.752987 235.830135 
L 52.367167 236.351771 
L 41.292516 236.669104 
L 29.999771 237.337869 
L 29.999771 237.337869 
" style="fill: none; stroke: #1a1a1a; stroke-opacity: 0.5; stroke-width: 0.5; stroke-linecap: round"/>
   </g>
   <g id="line2d_8">
    <path d="M 554.593252 230.800662 
L 513.211189 229.870094 
L 485.092005 229.228773 
L 472.319022 228.697398 
L 463.220774 228.114033 
L 455.449096 227.395902 
L 448.87526 226.566833 
L 442.499376 225.53691 
L 437.183086 224.468659 
L 431.997004 223.204917 
L 426.934904 221.726568 
L 421.990996 220.018822 
L 417.159887 218.071521 
L 413.216487 216.261804 
L 408.579344 213.865129 
L 404.041575 211.238906 
L 399.599011 208.397494 
L 395.24774 205.353257 
L 390.281747 201.575434 
L 385.429551 197.59683 
L 380.017002 192.872647 
L 372.79367 186.230585 
L 354.261054 168.981576 
L 349.581207 165.036843 
L 345.569501 161.923772 
L 341.632386 159.159735 
L 337.767139 156.742903 
L 333.971184 154.658868 
L 330.242078 152.892255 
L 326.57751 151.411918 
L 322.465644 150.006763 
L 316.939117 148.391673 
L 311.070258 146.642612 
L 307.720401 145.439059 
L 304.890678 144.204556 
L 302.561123 142.977199 
L 300.256917 141.525155 
L 297.977515 139.808398 
L 295.722388 137.788807 
L 293.491024 135.430722 
L 291.282929 132.713946 
L 289.097621 129.69645 
L 286.934636 126.361441 
L 284.793521 122.697609 
L 282.252437 117.878054 
L 279.741486 112.631171 
L 276.849185 106.049536 
L 273.187634 97.068919 
L 267.614827 82.687986 
L 262.568195 69.780867 
L 259.521316 62.610676 
L 257.264587 57.821458 
L 255.402178 54.29471 
L 253.556008 51.240742 
L 252.090573 49.164263 
L 250.635211 47.434112 
L 249.189782 46.071256 
L 248.112149 45.300044 
L 247.039973 44.749256 
L 245.973197 44.420544 
L 244.911769 44.314653 
L 243.855635 44.431428 
L 242.804743 44.769803 
L 241.75904 45.327816 
L 240.718475 46.102615 
L 239.338963 47.466336 
L 237.968379 49.197544 
L 236.60661 51.282459 
L 234.916621 54.361037 
L 233.240013 57.927842 
L 231.245451 62.769078 
L 229.269502 68.153806 
L 226.987292 75.004841 
L 224.088707 84.465411 
L 219.657211 99.842503 
L 214.703665 116.865344 
L 211.66553 126.49701 
L 209.26602 133.383925 
L 207.188525 138.711815 
L 205.131214 143.343237 
L 203.383574 146.751669 
L 201.650241 149.660719 
L 199.93098 152.125937 
L 198.508849 153.792034 
L 197.096206 155.117433 
L 195.692925 156.135386 
L 194.298881 156.87902 
L 192.913955 157.380846 
L 191.538028 157.672285 
L 189.898631 157.786217 
L 188.271828 157.687837 
L 186.657428 157.400131 
L 183.201221 156.439839 
L 177.991747 154.987475 
L 175.688655 154.576178 
L 173.662282 154.441153 
L 171.904973 154.566024 
L 170.162129 154.925274 
L 168.433511 155.541128 
L 166.962989 156.286016 
L 165.260187 157.417532 
L 163.570969 158.83542 
L 161.895119 160.534972 
L 159.995964 162.784349 
L 158.11369 165.369853 
L 156.01594 168.642001 
L 153.709224 172.656272 
L 150.97393 177.873295 
L 147.158431 185.690707 
L 137.803607 205.070008 
L 134.844914 210.631385 
L 132.341384 214.900401 
L 130.072196 218.365886 
L 128.03019 221.099487 
L 126.20907 223.181532 
L 124.403479 224.932948 
L 122.811333 226.201 
L 121.231069 227.196289 
L 119.66251 227.928433 
L 118.105485 228.419986 
L 116.367409 228.737445 
L 114.643483 228.807029 
L 112.744327 228.658635 
L 110.300618 228.229421 
L 106.962914 227.404151 
L 100.441304 225.772854 
L 90.6797 223.390359 
L 86.129291 221.955851 
L 78.756051 219.597021 
L 74.452275 218.490403 
L 67.315552 216.691927 
L 65.039417 215.803431 
L 62.489032 214.551713 
L 59.527383 212.815818 
L 55.738145 210.609425 
L 54.011877 209.86126 
L 52.583993 209.489144 
L 51.448577 209.401578 
L 50.319218 209.523647 
L 49.195849 209.861325 
L 48.078409 210.421354 
L 46.828297 211.314197 
L 45.447885 212.607479 
L 43.803183 214.500342 
L 41.90037 217.038305 
L 35.89748 225.330557 
L 34.325039 227.031058 
L 32.893821 228.285066 
L 31.472211 229.240198 
L 30.060082 229.905271 
L 29.932172 229.95196 
L 29.932172 229.95196 
" style="fill: none; stroke: #1a1a1a; stroke-opacity: 0.5; stroke-width: 0.5; stroke-linecap: round"/>
   </g>
   <g id="line2d_9">
    <path d="M 555.995695 235.761626 
L 539.755692 235.16916 
L 526.00057 234.438674 
L 515.605627 233.673915 
L 506.910675 232.824618 
L 499.731871 231.895297 
L 493.930017 230.950641 
L 488.282898 229.827866 
L 482.782473 228.501925 
L 477.421315 226.945163 
L 473.228021 225.513564 
L 469.116155 223.899051 
L 465.082616 222.084936 
L 461.124473 220.064741 
L 457.238962 217.856081 
L 453.423464 215.446587 
L 449.6755 212.824108 
L 445.992721 209.979215 
L 442.372899 206.905287 
L 438.813917 203.59858 
L 435.313764 200.058255 
L 431.870527 196.286392 
L 428.482384 192.287964 
L 424.322045 186.98409 
L 420.241872 181.387901 
L 416.238833 175.544697 
L 411.532985 168.263189 
L 406.171827 159.506097 
L 399.472534 148.090345 
L 387.368987 127.370179 
L 381.904053 118.44563 
L 377.895963 112.307782 
L 374.612883 107.635709 
L 371.379928 103.413548 
L 368.195591 99.674115 
L 365.682155 97.044818 
L 363.198204 94.745344 
L 360.743052 92.804497 
L 358.316041 91.228772 
L 356.513865 90.283164 
L 354.726897 89.536258 
L 352.954883 88.983772 
L 351.197575 88.620598 
L 349.45473 88.440837 
L 347.726113 88.437824 
L 345.443024 88.695873 
L 343.184289 89.235512 
L 340.949392 90.03534 
L 338.737838 91.072162 
L 336.549142 92.318892 
L 333.844706 94.147157 
L 331.174375 96.231187 
L 328.013803 98.99534 
L 324.385119 102.469162 
L 318.305627 108.668481 
L 313.369403 113.604369 
L 310.461973 116.208617 
L 308.069243 118.109749 
L 305.703247 119.720901 
L 303.829301 120.772485 
L 301.971794 121.589856 
L 300.13044 122.152071 
L 298.304959 122.438883 
L 296.946103 122.461569 
L 295.147753 122.242843 
L 293.364547 121.782336 
L 291.596232 121.047486 
L 289.842562 120.031708 
L 288.103297 118.733286 
L 286.3782 117.155394 
L 284.667044 115.306062 
L 282.547362 112.63265 
L 280.448688 109.590695 
L 277.957431 105.519474 
L 275.495142 101.036572 
L 272.658199 95.317262 
L 269.461845 88.339924 
L 263.981757 75.719027 
L 258.63992 63.589001 
L 256.0187 58.217318 
L 253.797479 54.165953 
L 251.964096 51.236536 
L 250.14645 48.761915 
L 248.703484 47.141375 
L 247.270285 45.866685 
L 246.201715 45.152471 
L 245.138511 44.657036 
L 244.080618 44.381621 
L 243.027984 44.315139 
L 241.980557 44.456069 
L 240.938285 44.811628 
L 239.901118 45.387524 
L 238.869007 46.187924 
L 237.841902 47.215429 
L 236.480132 48.940253 
L 235.127064 51.068509 
L 233.782587 53.593267 
L 232.113907 57.288291 
L 230.458274 61.550336 
L 228.815485 66.341565 
L 226.860814 72.727663 
L 224.602939 80.917165 
L 221.734889 92.305561 
L 217.349286 110.882426 
L 212.143202 132.728843 
L 209.139543 144.451592 
L 206.76692 152.905218 
L 204.420586 160.447996 
L 202.388657 166.298212 
L 200.662388 170.623771 
L 198.950079 174.314759 
L 197.251505 177.421925 
L 195.566447 179.995161 
L 193.894693 182.082447 
L 192.511576 183.483257 
L 191.137435 184.600786 
L 189.50015 185.629259 
L 187.875428 186.394452 
L 185.995541 187.007983 
L 184.132197 187.384772 
L 181.760311 187.632189 
L 172.780886 188.299081 
L 170.532145 188.802601 
L 168.307034 189.517708 
L 166.348598 190.388935 
L 164.408108 191.493026 
L 162.246104 192.982067 
L 159.869486 194.904844 
L 157.052313 197.512842 
L 153.582747 201.03593 
L 141.109901 214.025202 
L 137.890055 216.898099 
L 135.138585 219.034217 
L 132.422408 220.846022 
L 129.945719 222.232645 
L 127.294931 223.469802 
L 124.676916 224.458608 
L 121.69581 225.332741 
L 118.950806 225.907157 
L 116.04869 226.284014 
L 113.185811 226.434964 
L 110.174141 226.3658 
L 107.573615 226.083367 
L 105.187108 225.601007 
L 102.466456 224.803815 
L 99.424727 223.665964 
L 89.025529 219.559732 
L 86.670809 218.992628 
L 84.507484 218.690183 
L 82.366036 218.618074 
L 80.246028 218.76219 
L 78.147034 219.126117 
L 75.909608 219.751371 
L 73.695576 220.604878 
L 71.193278 221.819064 
L 68.259703 223.510034 
L 64.159633 226.150334 
L 57.643597 230.369724 
L 54.746775 231.950047 
L 52.17309 233.099431 
L 49.630311 233.980672 
L 47.256514 234.571929 
L 44.634562 234.999698 
L 41.773893 235.236871 
L 38.817882 235.256654 
L 36.034215 235.05194 
L 33.546809 234.656052 
L 30.574314 233.933211 
L 29.933604 233.750549 
L 29.933604 233.750549 
" style="fill: none; stroke: #1a1a1a; stroke-opacity: 0.5; stroke-width: 0.5; stroke-linecap: round"/>
   </g>
   <g id="line2d_10">
    <path d="M 555.995695 234.680105 
L 505.69718 233.500749 
L 493.930017 232.999662 
L 484.965528 232.413445 
L 477.421315 231.713061 
L 471.162108 230.93115 
L 465.082616 229.940221 
L 459.172806 228.714171 
L 454.370912 227.510203 
L 449.6755 226.116112 
L 445.081948 224.510702 
L 440.585931 222.675721 
L 436.183393 220.596138 
L 431.870527 218.260353 
L 427.643751 215.660377 
L 423.499696 212.79533 
L 419.435187 209.70242 
L 415.447227 206.399244 
L 411.532985 202.900493 
L 406.929447 198.476032 
L 401.682166 193.071221 
L 395.840294 186.709376 
L 388.062128 177.895339 
L 379.890525 168.190676 
L 365.682155 151.315026 
L 358.920191 143.536496 
L 352.367492 136.408623 
L 325.932661 108.088034 
L 312.88205 93.808296 
L 287.238992 65.941402 
L 280.866762 59.496744 
L 277.133483 56.011224 
L 272.256006 51.816046 
L 269.065671 49.3688 
L 266.313022 47.55582 
L 263.981757 46.285212 
L 261.675878 45.295699 
L 259.77331 44.690489 
L 258.263468 44.394188 
L 256.764315 44.315393 
L 255.275701 44.455787 
L 253.797479 44.819666 
L 252.329505 45.413904 
L 250.871637 46.24788 
L 249.423738 47.333398 
L 247.985672 48.68457 
L 246.557306 50.317686 
L 245.138511 52.251059 
L 243.378281 55.081677 
L 241.632563 58.2829 
L 239.901118 61.860246 
L 237.841902 66.669938 
L 235.802518 72.043275 
L 233.782587 77.95363 
L 231.450099 85.454816 
L 228.815485 94.68425 
L 225.567654 106.942744 
L 217.659549 137.272912 
L 215.190081 145.622976 
L 213.052672 152.118336 
L 211.237623 156.997169 
L 209.437999 161.163456 
L 207.949908 164.063308 
L 206.472202 166.439299 
L 205.297417 167.971977 
L 204.129114 169.193357 
L 202.967221 170.127258 
L 202.099966 170.61216 
L 201.236249 170.898624 
L 200.37604 170.999358 
L 199.234504 170.866542 
L 198.099089 170.455391 
L 196.969729 169.794575 
L 195.566447 168.659427 
L 194.172404 167.228265 
L 192.511576 165.186126 
L 190.590266 162.458962 
L 181.760311 149.485523 
L 179.933706 147.372152 
L 178.380488 145.876635 
L 176.83858 144.713547 
L 175.562178 144.023908 
L 174.293424 143.604594 
L 173.032226 143.465293 
L 172.028649 143.558566 
L 171.029806 143.833675 
L 169.78784 144.429293 
L 168.553117 145.291556 
L 167.325552 146.429577 
L 166.105062 147.841447 
L 164.649699 149.869551 
L 162.964322 152.649769 
L 161.054461 156.297913 
L 158.926258 160.889083 
L 156.121523 167.539065 
L 148.370764 186.263571 
L 145.922709 191.412668 
L 143.940593 195.076695 
L 142.194155 197.866637 
L 140.462003 200.20519 
L 138.957906 201.888512 
L 137.464418 203.22695 
L 135.981389 204.248633 
L 134.508675 204.996383 
L 132.83802 205.577035 
L 130.974155 205.973389 
L 128.922255 206.193333 
L 126.082593 206.232942 
L 121.301481 206.045807 
L 117.785183 205.707159 
L 115.856623 205.290403 
L 114.326322 204.73837 
L 112.996321 204.042244 
L 111.674622 203.125918 
L 110.361121 201.959487 
L 109.055717 200.512386 
L 107.758312 198.762622 
L 106.285232 196.376316 
L 104.640174 193.225855 
L 102.827197 189.243837 
L 100.671917 183.944325 
L 93.642078 166.143086 
L 92.092019 162.974351 
L 90.723649 160.643946 
L 89.533537 159.043502 
L 88.518737 158.041214 
L 87.67677 157.472587 
L 86.838138 157.147986 
L 86.002813 157.066911 
L 85.170771 157.226919 
L 84.341986 157.623659 
L 83.516431 158.250937 
L 82.529996 159.291877 
L 81.384932 160.888756 
L 80.246028 162.868039 
L 78.951879 165.551223 
L 77.345237 169.448807 
L 75.43322 174.731545 
L 71.816086 185.546885 
L 69.027765 193.546892 
L 67.036569 198.63434 
L 65.366214 202.320966 
L 63.859058 205.144923 
L 62.362554 207.484383 
L 61.024684 209.124953 
L 59.695214 210.378963 
L 58.374038 211.31054 
L 57.061054 211.969858 
L 55.467274 212.487026 
L 53.599051 212.859783 
L 51.1806 213.09782 
L 46.840358 213.477097 
L 44.771753 213.885039 
L 42.723162 214.517771 
L 40.559624 215.439516 
L 37.620398 216.967522 
L 34.983323 218.609399 
L 32.637711 220.314872 
L 29.933604 222.487599 
L 29.933604 222.487599 
" style="fill: none; stroke: #1a1a1a; stroke-opacity: 0.5; stroke-width: 0.5; stroke-linecap: round"/>
   </g>
   <g id="line2d_11">
    <path d="M 555.309294 234.316936 
L 543.37631 233.335696 
L 533.459575 232.3054 
L 523.986551 231.098654 
L 514.919226 229.703762 
L 506.224275 228.112569 
L 499.045471 226.587604 
L 492.10208 224.913559 
L 485.379153 223.092455 
L 478.863118 221.128292 
L 471.506144 218.663934 
L 464.396215 216.025368 
L 457.517276 213.234296 
L 449.919889 209.897413 
L 442.585669 206.438517 
L 433.761291 202.009549 
L 422.813296 196.228148 
L 407.766466 188.277543 
L 400.995765 184.939462 
L 395.153893 182.304637 
L 390.171206 180.298493 
L 382.57072 177.480265 
L 372.627371 174.070666 
L 366.248743 171.786924 
L 362.511803 170.245664 
L 358.23379 168.233123 
L 355.230131 166.607737 
L 352.268482 164.76146 
L 349.347685 162.641066 
L 347.039712 160.714465 
L 344.756623 158.558552 
L 342.497888 156.153089 
L 340.262992 153.480374 
L 338.051437 150.525411 
L 335.319084 146.477568 
L 332.621539 142.05853 
L 329.957926 137.269575 
L 327.327402 132.129271 
L 324.21331 125.546139 
L 320.637155 117.407327 
L 316.126239 106.51591 
L 311.224297 94.174734 
L 304.546803 77.361858 
L 301.285394 69.682246 
L 298.529332 63.68742 
L 295.808681 58.337585 
L 293.567872 54.457083 
L 291.792143 51.783294 
L 290.031181 49.505328 
L 288.284743 47.633636 
L 286.552591 46.175733 
L 285.262712 45.356684 
L 283.980643 44.773774 
L 282.70629 44.426816 
L 281.439559 44.314653 
L 280.180362 44.435172 
L 278.928608 44.785304 
L 277.68421 45.36105 
L 276.447082 46.156661 
L 274.808742 47.541675 
L 273.18298 49.276946 
L 271.569605 51.342244 
L 269.96843 53.714411 
L 267.983838 57.07109 
L 266.017673 60.809308 
L 263.682122 65.710133 
L 260.607594 72.754152 
L 256.826164 82.034382 
L 250.548764 98.282042 
L 245.16032 111.956589 
L 241.294156 121.20784 
L 238.182606 128.053836 
L 234.778121 134.999186 
L 230.763699 142.631063 
L 226.498942 150.262078 
L 223.275829 155.531328 
L 220.416385 159.784876 
L 218.218766 162.705829 
L 216.353076 164.869647 
L 214.503681 166.665501 
L 212.670297 168.17965 
L 210.852652 169.378276 
L 209.349775 170.096028 
L 207.85749 170.533854 
L 206.671187 170.673129 
L 205.491494 170.621572 
L 204.318336 170.380105 
L 202.86097 169.81901 
L 201.413566 168.973709 
L 199.975987 167.816722 
L 198.548103 166.372438 
L 196.847255 164.301762 
L 194.880047 161.489951 
L 192.653961 157.866566 
L 189.63081 152.438245 
L 184.508556 143.228106 
L 182.388343 139.859127 
L 180.550414 137.349593 
L 178.987643 135.603766 
L 177.694087 134.452161 
L 176.408386 133.602816 
L 175.385415 133.158052 
L 174.367363 132.932836 
L 173.354182 132.934353 
L 172.345826 133.166999 
L 171.342248 133.632336 
L 170.343405 134.329076 
L 169.10144 135.518867 
L 167.866717 137.049136 
L 166.639151 138.924769 
L 165.175405 141.613849 
L 163.721708 144.735874 
L 162.038245 148.855451 
L 159.893275 154.769453 
L 157.300812 162.673855 
L 152.438003 178.47883 
L 148.806541 189.912119 
L 146.345553 196.965232 
L 144.353077 202.075308 
L 142.379173 206.522605 
L 140.639907 209.90039 
L 138.914811 212.74576 
L 137.416794 214.793855 
L 135.929301 216.436396 
L 134.452184 217.708399 
L 132.985299 218.647411 
L 131.528506 219.292036 
L 130.081667 219.680837 
L 128.644646 219.850484 
L 127.217312 219.804835 
L 125.597767 219.518268 
L 123.990515 219.003576 
L 122.395371 218.267018 
L 120.812153 217.298448 
L 118.849632 215.808451 
L 117.098782 214.204515 
L 115.362289 212.319348 
L 113.639921 210.133924 
L 111.742467 207.364831 
L 109.48774 203.657473 
L 106.702679 198.60175 
L 101.240095 188.56651 
L 99.450106 185.751317 
L 97.851952 183.648743 
L 96.441426 182.188706 
L 95.214876 181.246249 
L 94.169173 180.702905 
L 93.128609 180.409272 
L 92.093133 180.36318 
L 91.062696 180.555341 
L 90.037248 180.96955 
L 89.016743 181.598062 
L 87.832336 182.60396 
L 86.486791 184.06451 
L 84.983203 186.030891 
L 83.159866 188.787876 
L 80.535455 193.218094 
L 72.380823 207.268179 
L 70.351462 210.183592 
L 68.649371 212.278055 
L 66.960852 214.025244 
L 65.437433 215.273051 
L 64.075663 216.10583 
L 62.722595 216.669547 
L 61.527083 216.945212 
L 60.190152 217.010693 
L 58.861608 216.849216 
L 57.395158 216.44459 
L 55.64872 215.710097 
L 51.771115 213.72319 
L 49.788116 212.852061 
L 48.103058 212.361875 
L 46.709015 212.194547 
L 45.462174 212.271597 
L 44.222633 212.582476 
L 42.990305 213.119507 
L 41.62941 213.962262 
L 40.007799 215.252263 
L 37.59843 217.500766 
L 31.046099 223.815296 
L 30.016288 224.636156 
L 30.016288 224.636156 
" style="fill: none; stroke: #1a1a1a; stroke-opacity: 0.5; stroke-width: 0.5; stroke-linecap: round"/>
   </g>
   <g id="line2d_12">
    <path d="M 556.004712 235.284873 
L 542.626299 234.677132 
L 531.404896 233.963921 
L 522.051445 233.169908 
L 513.093728 232.177394 
L 505.706196 231.134824 
L 499.740888 230.083562 
L 493.939034 228.827478 
L 488.291914 227.341843 
L 483.880204 225.969165 
L 479.558535 224.415592 
L 475.323305 222.664048 
L 471.171124 220.696478 
L 467.098798 218.494026 
L 463.103313 216.037207 
L 459.181823 213.306093 
L 455.331636 210.327933 
L 451.550206 207.124042 
L 447.835121 203.680927 
L 444.184092 199.990012 
L 440.594948 196.047715 
L 437.065626 191.855483 
L 433.594164 187.419779 
L 430.178696 182.752022 
L 425.985401 176.616228 
L 421.873536 170.185637 
L 417.839996 163.507022 
L 413.099027 155.233534 
L 406.938464 143.964055 
L 390.866623 114.164039 
L 386.687124 107.037062 
L 383.266138 101.561403 
L 379.899542 96.572389 
L 377.244279 92.976171 
L 374.621899 89.761546 
L 372.031599 86.950822 
L 369.472602 84.560591 
L 367.573446 83.050541 
L 365.691172 81.785494 
L 363.825482 80.76587 
L 361.976087 79.990183 
L 360.142704 79.455049 
L 358.325058 79.167707 
L 356.522881 79.134116 
L 354.735914 79.346389 
L 352.9639 79.795633 
L 351.206591 80.471993 
L 349.463747 81.364711 
L 347.735129 82.462176 
L 345.452041 84.222423 
L 343.193305 86.293182 
L 340.958409 88.641109 
L 338.197556 91.912301 
L 335.472236 95.49049 
L 332.247487 100.098504 
L 328.02282 106.580801 
L 315.339123 126.412592 
L 311.919715 131.152443 
L 309.510651 134.116171 
L 307.128686 136.66308 
L 305.24222 138.379128 
L 303.372412 139.792457 
L 301.518969 140.888175 
L 300.139457 141.493057 
L 298.768873 141.90582 
L 297.407103 142.121254 
L 296.054035 142.134523 
L 294.709558 141.941192 
L 293.373564 141.537244 
L 292.045945 140.918667 
L 290.726599 140.108437 
L 288.980161 138.734366 
L 287.248008 137.023066 
L 285.52991 134.977214 
L 283.82564 132.60406 
L 282.134977 129.91536 
L 280.040455 126.135757 
L 277.966448 121.929472 
L 275.504159 116.390543 
L 272.667215 109.369201 
L 269.470861 100.757294 
L 264.765014 87.29077 
L 259.02606 70.941862 
L 256.027717 63.070292 
L 253.806496 57.85004 
L 251.973113 54.039112 
L 250.155467 50.780473 
L 248.712501 48.608676 
L 247.279302 46.852981 
L 246.210732 45.824617 
L 245.147528 45.054672 
L 244.089635 44.552554 
L 243.037001 44.326985 
L 241.989574 44.385956 
L 240.947302 44.721561 
L 239.910135 45.31929 
L 238.878024 46.183054 
L 237.850919 47.314881 
L 236.828771 48.714848 
L 235.473538 50.995048 
L 234.126924 53.738555 
L 232.788819 56.929497 
L 231.127991 61.513668 
L 229.480088 66.707558 
L 227.519385 73.648377 
L 225.25461 82.581328 
L 222.695613 93.649954 
L 218.602091 112.574276 
L 213.975081 133.791919 
L 210.945638 146.51599 
L 208.552907 155.574821 
L 206.481219 162.520327 
L 204.721477 167.702277 
L 202.976238 172.181545 
L 201.245266 176.006213 
L 199.81352 178.698309 
L 198.391389 180.864517 
L 196.978746 182.56028 
L 195.575464 183.845015 
L 194.181421 184.775854 
L 192.796495 185.406799 
L 191.420568 185.787933 
L 189.78117 185.979134 
L 187.884445 185.930215 
L 185.203973 185.61534 
L 178.131739 184.674262 
L 175.571195 184.559932 
L 173.292883 184.705685 
L 170.789846 185.103628 
L 168.070254 185.76814 
L 165.142726 186.707699 
L 162.016255 187.952677 
L 159.170688 189.31744 
L 156.595423 190.790597 
L 153.821308 192.652421 
L 151.083066 194.745368 
L 148.379781 197.08291 
L 145.268957 200.068882 
L 142.203172 203.340431 
L 138.325566 207.828444 
L 130.160024 217.444272 
L 127.709608 219.946706 
L 125.086604 222.289869 
L 123.090788 223.800454 
L 121.113608 225.020269 
L 119.154719 225.955924 
L 117.600551 226.47179 
L 116.057707 226.757696 
L 114.526023 226.830738 
L 113.005338 226.699434 
L 111.495496 226.363408 
L 109.809693 225.75665 
L 107.767329 224.792812 
L 105.561533 223.489068 
L 102.655766 221.484889 
L 96.961186 217.499139 
L 95.038516 216.491458 
L 93.305655 215.82783 
L 91.58686 215.407561 
L 89.881904 215.212387 
L 87.685787 215.202429 
L 85.512213 215.395936 
L 79.768811 216.027285 
L 77.194258 216.019211 
L 71.046879 215.8625 
L 69.344788 216.09264 
L 67.809216 216.521865 
L 66.2847 217.19946 
L 64.771081 218.13094 
L 63.268204 219.311724 
L 61.478719 221.019353 
L 59.262922 223.471715 
L 54.181152 229.245531 
L 52.324272 230.899962 
L 50.765684 231.977655 
L 49.358673 232.678276 
L 47.960949 233.134215 
L 46.710837 233.338497 
L 45.192877 233.344233 
L 43.412843 233.114187 
L 40.568641 232.483125 
L 35.911585 231.485014 
L 33.165734 231.107574 
L 30.198673 230.919674 
L 29.942621 230.912926 
L 29.942621 230.912926 
" style="fill: none; stroke: #1a1a1a; stroke-opacity: 0.5; stroke-width: 0.5; stroke-linecap: round"/>
   </g>
   <g id="patch_3">
    <path d="M 29.92 237.78 
L 29.92 42.38 
" style="fill: none; stroke: #ffffff; stroke-width: 1.25; stroke-linejoin: miter; stroke-linecap: square"/>
   </g>
   <g id="patch_4">
    <path d="M 556.11 237.78 
L 556.11 42.38 
" style="fill: none; stroke: #ffffff; stroke-width: 1.25; stroke-linejoin: miter; stroke-linecap: square"/>
   </g>
   <g id="patch_5">
    <path d="M 29.92 237.78 
L 556.11 237.78 
" style="fill: none; stroke: #ffffff; stroke-width: 1.25; stroke-linejoin: miter; stroke-linecap: square"/>
   </g>
   <g id="patch_6">
    <path d="M 29.92 42.38 
L 556.11 42.38 
" style="fill: none; stroke: #ffffff; stroke-width: 1.25; stroke-linejoin: miter; stroke-linecap: square"/>
   </g>
   <g id="patch_7">
    <path d="M 304.535431 59.09602 
Q 301.126358 60.909381 297.717284 62.722743 
" style="fill: none; stroke: #ffffff; stroke-width: 0.5; stroke-linecap: round"/>
   </g>
   <g id="text_8">
    <!-- TFP -->
    <g style="fill: #262626" transform="translate(308.8007 54.429125) scale(0.12 -0.12)">
     <defs>
      <path id="DejaVuSans-54" d="M -19 4666 
L 3928 4666 
L 3928 4134 
L 2272 4134 
L 2272 0 
L 1638 0 
L 1638 4134 
L -19 4134 
L -19 4666 
z
" transform="scale(0.015625)"/>
      <path id="DejaVuSans-46" d="M 628 4666 
L 3309 4666 
L 3309 4134 
L 1259 4134 
L 1259 2759 
L 3109 2759 
L 3109 2228 
L 1259 2228 
L 1259 0 
L 628 0 
L 628 4666 
z
" transform="scale(0.015625)"/>
      <path id="DejaVuSans-50" d="M 1259 4147 
L 1259 2394 
L 2053 2394 
Q 2494 2394 2734 2622 
Q 2975 2850 2975 3272 
Q 2975 3691 2734 3919 
Q 2494 4147 2053 4147 
L 1259 4147 
z
M 628 4666 
L 2053 4666 
Q 2838 4666 3239 4311 
Q 3641 3956 3641 3272 
Q 3641 2581 3239 2228 
Q 2838 1875 2053 1875 
L 1259 1875 
L 1259 0 
L 628 0 
L 628 4666 
z
" transform="scale(0.015625)"/>
     </defs>
     <use xlink:href="#DejaVuSans-54"/>
     <use xlink:href="#DejaVuSans-46" x="61.083984"/>
     <use xlink:href="#DejaVuSans-50" x="118.603516"/>
    </g>
   </g>
   <g id="patch_8">
    <path d="M 393.758486 68.548659 
Q 343.568753 70.894894 293.379019 73.241129 
" style="fill: none; stroke: #ffffff; stroke-width: 0.5; stroke-linecap: round"/>
   </g>
   <g id="text_9">
    <!-- Investment -->
    <g style="fill: #262626" transform="translate(398.253 70.061125) scale(0.12 -0.12)">
     <defs>
      <path id="DejaVuSans-49" d="M 628 4666 
L 1259 4666 
L 1259 0 
L 628 0 
L 628 4666 
z
" transform="scale(0.015625)"/>
      <path id="DejaVuSans-76" d="M 191 3500 
L 800 3500 
L 1894 563 
L 2988 3500 
L 3597 3500 
L 2284 0 
L 1503 0 
L 191 3500 
z
" transform="scale(0.015625)"/>
      <path id="DejaVuSans-6d" d="M 3328 2828 
Q 3544 3216 3844 3400 
Q 4144 3584 4550 3584 
Q 5097 3584 5394 3201 
Q 5691 2819 5691 2113 
L 5691 0 
L 5113 0 
L 5113 2094 
Q 5113 2597 4934 2840 
Q 4756 3084 4391 3084 
Q 3944 3084 3684 2787 
Q 3425 2491 3425 1978 
L 3425 0 
L 2847 0 
L 2847 2094 
Q 2847 2600 2669 2842 
Q 2491 3084 2119 3084 
Q 1678 3084 1418 2786 
Q 1159 2488 1159 1978 
L 1159 0 
L 581 0 
L 581 3500 
L 1159 3500 
L 1159 2956 
Q 1356 3278 1631 3431 
Q 1906 3584 2284 3584 
Q 2666 3584 2933 3390 
Q 3200 3197 3328 2828 
z
" transform="scale(0.015625)"/>
     </defs>
     <use xlink:href="#DejaVuSans-49"/>
     <use xlink:href="#DejaVuSans-6e" x="29.492188"/>
     <use xlink:href="#DejaVuSans-76" x="92.871094"/>
     <use xlink:href="#DejaVuSans-65" x="152.050781"/>
     <use xlink:href="#DejaVuSans-73" x="213.574219"/>
     <use xlink:href="#DejaVuSans-74" x="265.673828"/>
     <use xlink:href="#DejaVuSans-6d" x="304.882812"/>
     <use xlink:href="#DejaVuSans-65" x="402.294922"/>
     <use xlink:href="#DejaVuSans-6e" x="463.818359"/>
     <use xlink:href="#DejaVuSans-74" x="527.197266"/>
    </g>
   </g>
   <g id="patch_9">
    <path d="M 393.761789 53.731836 
Q 380.559733 54.750321 367.357676 55.768805 
" style="fill: none; stroke: #ffffff; stroke-width: 0.5; stroke-linecap: round"/>
   </g>
   <g id="text_10">
    <!-- Wage -->
    <g style="fill: #262626" transform="translate(398.253 55.406125) scale(0.12 -0.12)">
     <defs>
      <path id="DejaVuSans-57" d="M 213 4666 
L 850 4666 
L 1831 722 
L 2809 4666 
L 3519 4666 
L 4500 722 
L 5478 4666 
L 6119 4666 
L 4947 0 
L 4153 0 
L 3169 4050 
L 2175 0 
L 1381 0 
L 213 4666 
z
" transform="scale(0.015625)"/>
      <path id="DejaVuSans-67" d="M 2906 1791 
Q 2906 2416 2648 2759 
Q 2391 3103 1925 3103 
Q 1463 3103 1205 2759 
Q 947 2416 947 1791 
Q 947 1169 1205 825 
Q 1463 481 1925 481 
Q 2391 481 2648 825 
Q 2906 1169 2906 1791 
z
M 3481 434 
Q 3481 -459 3084 -895 
Q 2688 -1331 1869 -1331 
Q 1566 -1331 1297 -1286 
Q 1028 -1241 775 -1147 
L 775 -588 
Q 1028 -725 1275 -790 
Q 1522 -856 1778 -856 
Q 2344 -856 2625 -561 
Q 2906 -266 2906 331 
L 2906 616 
Q 2728 306 2450 153 
Q 2172 0 1784 0 
Q 1141 0 747 490 
Q 353 981 353 1791 
Q 353 2603 747 3093 
Q 1141 3584 1784 3584 
Q 2172 3584 2450 3431 
Q 2728 3278 2906 2969 
L 2906 3500 
L 3481 3500 
L 3481 434 
z
" transform="scale(0.015625)"/>
     </defs>
     <use xlink:href="#DejaVuSans-57"/>
     <use xlink:href="#DejaVuSans-61" x="92.501953"/>
     <use xlink:href="#DejaVuSans-67" x="153.78125"/>
     <use xlink:href="#DejaVuSans-65" x="217.257812"/>
    </g>
   </g>
   <g id="patch_10">
    <path d="M 420.066428 81.667747 
Q 393.715395 82.31324 367.364363 82.958733 
" style="fill: none; stroke: #ffffff; stroke-width: 0.5; stroke-linecap: round"/>
   </g>
   <g id="text_11">
    <!-- Unemployment -->
    <g style="fill: #262626" transform="translate(424.5625 83.739125) scale(0.12 -0.12)">
     <defs>
      <path id="DejaVuSans-55" d="M 556 4666 
L 1191 4666 
L 1191 1831 
Q 1191 1081 1462 751 
Q 1734 422 2344 422 
Q 2950 422 3222 751 
Q 3494 1081 3494 1831 
L 3494 4666 
L 4128 4666 
L 4128 1753 
Q 4128 841 3676 375 
Q 3225 -91 2344 -91 
Q 1459 -91 1007 375 
Q 556 841 556 1753 
L 556 4666 
z
" transform="scale(0.015625)"/>
      <path id="DejaVuSans-6f" d="M 1959 3097 
Q 1497 3097 1228 2736 
Q 959 2375 959 1747 
Q 959 1119 1226 758 
Q 1494 397 1959 397 
Q 2419 397 2687 759 
Q 2956 1122 2956 1747 
Q 2956 2369 2687 2733 
Q 2419 3097 1959 3097 
z
M 1959 3584 
Q 2709 3584 3137 3096 
Q 3566 2609 3566 1747 
Q 3566 888 3137 398 
Q 2709 -91 1959 -91 
Q 1206 -91 779 398 
Q 353 888 353 1747 
Q 353 2609 779 3096 
Q 1206 3584 1959 3584 
z
" transform="scale(0.015625)"/>
     </defs>
     <use xlink:href="#DejaVuSans-55"/>
     <use xlink:href="#DejaVuSans-6e" x="73.193359"/>
     <use xlink:href="#DejaVuSans-65" x="136.572266"/>
     <use xlink:href="#DejaVuSans-6d" x="198.095703"/>
     <use xlink:href="#DejaVuSans-70" x="295.507812"/>
     <use xlink:href="#DejaVuSans-6c" x="358.984375"/>
     <use xlink:href="#DejaVuSans-6f" x="386.767578"/>
     <use xlink:href="#DejaVuSans-79" x="447.949219"/>
     <use xlink:href="#DejaVuSans-6d" x="507.128906"/>
     <use xlink:href="#DejaVuSans-65" x="604.541016"/>
     <use xlink:href="#DejaVuSans-6e" x="666.064453"/>
     <use xlink:href="#DejaVuSans-74" x="729.443359"/>
    </g>
   </g>
   <g id="patch_11">
    <path d="M 420.066508 94.072065 
Q 389.560849 93.398561 359.05519 92.725056 
" style="fill: none; stroke: #ffffff; stroke-width: 0.5; stroke-linecap: round"/>
   </g>
   <g id="text_12">
    <!-- Hours worked -->
    <g style="fill: #262626" transform="translate(424.5625 98.394125) scale(0.12 -0.12)">
     <defs>
      <path id="DejaVuSans-48" d="M 628 4666 
L 1259 4666 
L 1259 2753 
L 3553 2753 
L 3553 4666 
L 4184 4666 
L 4184 0 
L 3553 0 
L 3553 2222 
L 1259 2222 
L 1259 0 
L 628 0 
L 628 4666 
z
" transform="scale(0.015625)"/>
      <path id="DejaVuSans-75" d="M 544 1381 
L 544 3500 
L 1119 3500 
L 1119 1403 
Q 1119 906 1312 657 
Q 1506 409 1894 409 
Q 2359 409 2629 706 
Q 2900 1003 2900 1516 
L 2900 3500 
L 3475 3500 
L 3475 0 
L 2900 0 
L 2900 538 
Q 2691 219 2414 64 
Q 2138 -91 1772 -91 
Q 1169 -91 856 284 
Q 544 659 544 1381 
z
M 1991 3584 
L 1991 3584 
z
" transform="scale(0.015625)"/>
      <path id="DejaVuSans-77" d="M 269 3500 
L 844 3500 
L 1563 769 
L 2278 3500 
L 2956 3500 
L 3675 769 
L 4391 3500 
L 4966 3500 
L 4050 0 
L 3372 0 
L 2619 2869 
L 1863 0 
L 1184 0 
L 269 3500 
z
" transform="scale(0.015625)"/>
      <path id="DejaVuSans-6b" d="M 581 4863 
L 1159 4863 
L 1159 1991 
L 2875 3500 
L 3609 3500 
L 1753 1863 
L 3688 0 
L 2938 0 
L 1159 1709 
L 1159 0 
L 581 0 
L 581 4863 
z
" transform="scale(0.015625)"/>
     </defs>
     <use xlink:href="#DejaVuSans-48"/>
     <use xlink:href="#DejaVuSans-6f" x="75.195312"/>
     <use xlink:href="#DejaVuSans-75" x="136.376953"/>
     <use xlink:href="#DejaVuSans-72" x="199.755859"/>
     <use xlink:href="#DejaVuSans-73" x="240.869141"/>
     <use xlink:href="#DejaVuSans-20" x="292.96875"/>
     <use xlink:href="#DejaVuSans-77" x="324.755859"/>
     <use xlink:href="#DejaVuSans-6f" x="406.542969"/>
     <use xlink:href="#DejaVuSans-72" x="467.724609"/>
     <use xlink:href="#DejaVuSans-6b" x="508.837891"/>
     <use xlink:href="#DejaVuSans-65" x="563.123047"/>
     <use xlink:href="#DejaVuSans-64" x="624.646484"/>
    </g>
   </g>
   <g id="patch_12">
    <path d="M 459.533614 198.733478 
Q 426.457284 201.722176 393.380955 204.710874 
" style="fill: none; stroke: #ffffff; stroke-width: 0.5; stroke-linecap: round"/>
   </g>
   <g id="text_13">
    <!-- Consumption -->
    <g style="fill: #262626" transform="translate(464.02675 198.048125) scale(0.12 -0.12)">
     <defs>
      <path id="DejaVuSans-43" d="M 4122 4306 
L 4122 3641 
Q 3803 3938 3442 4084 
Q 3081 4231 2675 4231 
Q 1875 4231 1450 3742 
Q 1025 3253 1025 2328 
Q 1025 1406 1450 917 
Q 1875 428 2675 428 
Q 3081 428 3442 575 
Q 3803 722 4122 1019 
L 4122 359 
Q 3791 134 3420 21 
Q 3050 -91 2638 -91 
Q 1578 -91 968 557 
Q 359 1206 359 2328 
Q 359 3453 968 4101 
Q 1578 4750 2638 4750 
Q 3056 4750 3426 4639 
Q 3797 4528 4122 4306 
z
" transform="scale(0.015625)"/>
     </defs>
     <use xlink:href="#DejaVuSans-43"/>
     <use xlink:href="#DejaVuSans-6f" x="69.824219"/>
     <use xlink:href="#DejaVuSans-6e" x="131.005859"/>
     <use xlink:href="#DejaVuSans-73" x="194.384766"/>
     <use xlink:href="#DejaVuSans-75" x="246.484375"/>
     <use xlink:href="#DejaVuSans-6d" x="309.863281"/>
     <use xlink:href="#DejaVuSans-70" x="407.275391"/>
     <use xlink:href="#DejaVuSans-74" x="470.751953"/>
     <use xlink:href="#DejaVuSans-69" x="509.960938"/>
     <use xlink:href="#DejaVuSans-6f" x="537.744141"/>
     <use xlink:href="#DejaVuSans-6e" x="598.925781"/>
    </g>
   </g>
   <g id="legend_1">
    <g id="line2d_13">
     <path d="M 39.82 32.363281 
L 50.82 32.363281 
L 61.82 32.363281 
" style="fill: none; stroke: #1a1a1a; stroke-width: 1.5; stroke-linecap: round"/>
    </g>
    <g id="text_14">
     <!-- GDP -->
     <g style="fill: #262626" transform="translate(70.62 36.213281) scale(0.11 -0.11)">
      <defs>
       <path id="DejaVuSans-47" d="M 3809 666 
L 3809 1919 
L 2778 1919 
L 2778 2438 
L 4434 2438 
L 4434 434 
Q 4069 175 3628 42 
Q 3188 -91 2688 -91 
Q 1594 -91 976 548 
Q 359 1188 359 2328 
Q 359 3472 976 4111 
Q 1594 4750 2688 4750 
Q 3144 4750 3555 4637 
Q 3966 4525 4313 4306 
L 4313 3634 
Q 3963 3931 3569 4081 
Q 3175 4231 2741 4231 
Q 1884 4231 1454 3753 
Q 1025 3275 1025 2328 
Q 1025 1384 1454 906 
Q 1884 428 2741 428 
Q 3075 428 3337 486 
Q 3600 544 3809 666 
z
" transform="scale(0.015625)"/>
       <path id="DejaVuSans-44" d="M 1259 4147 
L 1259 519 
L 2022 519 
Q 2988 519 3436 956 
Q 3884 1394 3884 2338 
Q 3884 3275 3436 3711 
Q 2988 4147 2022 4147 
L 1259 4147 
z
M 628 4666 
L 1925 4666 
Q 3281 4666 3915 4102 
Q 4550 3538 4550 2338 
Q 4550 1131 3912 565 
Q 3275 0 1925 0 
L 628 0 
L 628 4666 
z
" transform="scale(0.015625)"/>
      </defs>
      <use xlink:href="#DejaVuSans-47"/>
      <use xlink:href="#DejaVuSans-44" x="77.490234"/>
      <use xlink:href="#DejaVuSans-50" x="154.492188"/>
     </g>
    </g>
    <g id="line2d_14">
     <path d="M 116.245937 32.363281 
L 127.245937 32.363281 
L 138.245937 32.363281 
" style="fill: none; stroke: #1a1a1a; stroke-opacity: 0.5; stroke-width: 0.5; stroke-linecap: round"/>
    </g>
    <g id="text_15">
     <!-- Others -->
     <g style="fill: #262626" transform="translate(147.045938 36.213281) scale(0.11 -0.11)">
      <defs>
       <path id="DejaVuSans-4f" d="M 2522 4238 
Q 1834 4238 1429 3725 
Q 1025 3213 1025 2328 
Q 1025 1447 1429 934 
Q 1834 422 2522 422 
Q 3209 422 3611 934 
Q 4013 1447 4013 2328 
Q 4013 3213 3611 3725 
Q 3209 4238 2522 4238 
z
M 2522 4750 
Q 3503 4750 4090 4092 
Q 4678 3434 4678 2328 
Q 4678 1225 4090 567 
Q 3503 -91 2522 -91 
Q 1538 -91 948 565 
Q 359 1222 359 2328 
Q 359 3434 948 4092 
Q 1538 4750 2522 4750 
z
" transform="scale(0.015625)"/>
       <path id="DejaVuSans-68" d="M 3513 2113 
L 3513 0 
L 2938 0 
L 2938 2094 
Q 2938 2591 2744 2837 
Q 2550 3084 2163 3084 
Q 1697 3084 1428 2787 
Q 1159 2491 1159 1978 
L 1159 0 
L 581 0 
L 581 4863 
L 1159 4863 
L 1159 2956 
Q 1366 3272 1645 3428 
Q 1925 3584 2291 3584 
Q 2894 3584 3203 3211 
Q 3513 2838 3513 2113 
z
" transform="scale(0.015625)"/>
      </defs>
      <use xlink:href="#DejaVuSans-4f"/>
      <use xlink:href="#DejaVuSans-74" x="78.710938"/>
      <use xlink:href="#DejaVuSans-68" x="117.919922"/>
      <use xlink:href="#DejaVuSans-65" x="181.298828"/>
      <use xlink:href="#DejaVuSans-72" x="242.822266"/>
      <use xlink:href="#DejaVuSans-73" x="283.935547"/>
     </g>
    </g>
   </g>
  </g>
 </g>
 <defs>
  <clipPath id="p2681d09b82">
   <rect x="29.92" y="42.38" width="526.19" height="195.4"/>
  </clipPath>
 </defs>
</svg>
