<?xml version="1.0" encoding="utf-8" standalone="no"?>
<!DOCTYPE svg PUBLIC "-//W3C//DTD SVG 1.1//EN"
  "http://www.w3.org/Graphics/SVG/1.1/DTD/svg11.dtd">
<svg xmlns:xlink="http://www.w3.org/1999/xlink" width="576pt" height="288pt" viewBox="0 0 576 288" xmlns="http://www.w3.org/2000/svg" version="1.1">
 <metadata>
  <rdf:RDF xmlns:dc="http://purl.org/dc/elements/1.1/" xmlns:cc="http://creativecommons.org/ns#" xmlns:rdf="http://www.w3.org/1999/02/22-rdf-syntax-ns#">
   <cc:Work>
    <dc:type rdf:resource="http://purl.org/dc/dcmitype/StillImage"/>
    <dc:date>2024-05-07T22:43:36.458031</dc:date>
    <dc:format>image/svg+xml</dc:format>
    <dc:creator>
     <cc:Agent>
      <dc:title>Matplotlib v3.8.3, https://matplotlib.org/</dc:title>
     </cc:Agent>
    </dc:creator>
   </cc:Work>
  </rdf:RDF>
 </metadata>
 <defs>
  <style type="text/css">*{stroke-linejoin: round; stroke-linecap: butt}</style>
 </defs>
 <g id="figure_1">
  <g id="patch_1">
   <path d="M 0 288 
L 576 288 
L 576 0 
L 0 0 
L 0 288 
z
" style="fill: none"/>
  </g>
  <g id="axes_1">
   <g id="patch_2">
    <path d="M 16.425 237.78 
L 556.11 237.78 
L 556.11 36.836 
L 16.425 36.836 
L 16.425 237.78 
z
" style="fill: none"/>
   </g>
   <g id="matplotlib.axis_1">
    <g id="xtick_1">
     <g id="line2d_1">
      <path d="M 16.425 237.78 
L 16.425 36.836 
" clip-path="url(#p2ade311856)" style="fill: none; stroke: #ffffff; stroke-linecap: round"/>
     </g>
     <g id="text_1">
      <!-- 2 -->
      <g style="fill: #262626" transform="translate(12.925625 255.638281) scale(0.11 -0.11)">
       <defs>
        <path id="DejaVuSans-32" d="M 1228 531 
L 3431 531 
L 3431 0 
L 469 0 
L 469 531 
Q 828 903 1448 1529 
Q 2069 2156 2228 2338 
Q 2531 2678 2651 2914 
Q 2772 3150 2772 3378 
Q 2772 3750 2511 3984 
Q 2250 4219 1831 4219 
Q 1534 4219 1204 4116 
Q 875 4013 500 3803 
L 500 4441 
Q 881 4594 1212 4672 
Q 1544 4750 1819 4750 
Q 2544 4750 2975 4387 
Q 3406 4025 3406 3419 
Q 3406 3131 3298 2873 
Q 3191 2616 2906 2266 
Q 2828 2175 2409 1742 
Q 1991 1309 1228 531 
z
" transform="scale(0.015625)"/>
       </defs>
       <use xlink:href="#DejaVuSans-32"/>
      </g>
     </g>
    </g>
    <g id="xtick_2">
     <g id="line2d_2">
      <path d="M 166.966324 237.78 
L 166.966324 36.836 
" clip-path="url(#p2ade311856)" style="fill: none; stroke: #ffffff; stroke-linecap: round"/>
     </g>
     <g id="text_2">
      <!-- 4 -->
      <g style="fill: #262626" transform="translate(163.466949 255.638281) scale(0.11 -0.11)">
       <defs>
        <path id="DejaVuSans-34" d="M 2419 4116 
L 825 1625 
L 2419 1625 
L 2419 4116 
z
M 2253 4666 
L 3047 4666 
L 3047 1625 
L 3713 1625 
L 3713 1100 
L 3047 1100 
L 3047 0 
L 2419 0 
L 2419 1100 
L 313 1100 
L 313 1709 
L 2253 4666 
z
" transform="scale(0.015625)"/>
       </defs>
       <use xlink:href="#DejaVuSans-34"/>
      </g>
     </g>
    </g>
    <g id="xtick_3">
     <g id="line2d_3">
      <path d="M 255.027353 237.78 
L 255.027353 36.836 
" clip-path="url(#p2ade311856)" style="fill: none; stroke: #ffffff; stroke-linecap: round"/>
     </g>
     <g id="text_3">
      <!-- 6 -->
      <g style="fill: #262626" transform="translate(251.527978 255.638281) scale(0.11 -0.11)">
       <defs>
        <path id="DejaVuSans-36" d="M 2113 2584 
Q 1688 2584 1439 2293 
Q 1191 2003 1191 1497 
Q 1191 994 1439 701 
Q 1688 409 2113 409 
Q 2538 409 2786 701 
Q 3034 994 3034 1497 
Q 3034 2003 2786 2293 
Q 2538 2584 2113 2584 
z
M 3366 4563 
L 3366 3988 
Q 3128 4100 2886 4159 
Q 2644 4219 2406 4219 
Q 1781 4219 1451 3797 
Q 1122 3375 1075 2522 
Q 1259 2794 1537 2939 
Q 1816 3084 2150 3084 
Q 2853 3084 3261 2657 
Q 3669 2231 3669 1497 
Q 3669 778 3244 343 
Q 2819 -91 2113 -91 
Q 1303 -91 875 529 
Q 447 1150 447 2328 
Q 447 3434 972 4092 
Q 1497 4750 2381 4750 
Q 2619 4750 2861 4703 
Q 3103 4656 3366 4563 
z
" transform="scale(0.015625)"/>
       </defs>
       <use xlink:href="#DejaVuSans-36"/>
      </g>
     </g>
    </g>
    <g id="xtick_4">
     <g id="line2d_4">
      <path d="M 405.568676 237.78 
L 405.568676 36.836 
" clip-path="url(#p2ade311856)" style="fill: none; stroke: #ffffff; stroke-linecap: round"/>
     </g>
     <g id="text_4">
      <!-- 12 -->
      <g style="fill: #262626" transform="translate(398.569926 255.638281) scale(0.11 -0.11)">
       <defs>
        <path id="DejaVuSans-31" d="M 794 531 
L 1825 531 
L 1825 4091 
L 703 3866 
L 703 4441 
L 1819 4666 
L 2450 4666 
L 2450 531 
L 3481 531 
L 3481 0 
L 794 0 
L 794 531 
z
" transform="scale(0.015625)"/>
       </defs>
       <use xlink:href="#DejaVuSans-31"/>
       <use xlink:href="#DejaVuSans-32" x="63.623047"/>
      </g>
     </g>
    </g>
    <g id="xtick_5">
     <g id="line2d_5">
      <path d="M 556.11 237.78 
L 556.11 36.836 
" clip-path="url(#p2ade311856)" style="fill: none; stroke: #ffffff; stroke-linecap: round"/>
     </g>
     <g id="text_5">
      <!-- 24 -->
      <g style="fill: #262626" transform="translate(549.11125 255.638281) scale(0.11 -0.11)">
       <use xlink:href="#DejaVuSans-32"/>
       <use xlink:href="#DejaVuSans-34" x="63.623047"/>
      </g>
     </g>
    </g>
    <g id="xtick_6"/>
    <g id="xtick_7"/>
    <g id="xtick_8"/>
    <g id="xtick_9"/>
    <g id="xtick_10"/>
    <g id="xtick_11"/>
    <g id="xtick_12"/>
    <g id="xtick_13"/>
    <g id="xtick_14"/>
    <g id="text_6">
     <!-- Years -->
     <g style="fill: #262626" transform="translate(270.436875 271.044062) scale(0.12 -0.12)">
      <defs>
       <path id="DejaVuSans-59" d="M -13 4666 
L 666 4666 
L 1959 2747 
L 3244 4666 
L 3922 4666 
L 2272 2222 
L 2272 0 
L 1638 0 
L 1638 2222 
L -13 4666 
z
" transform="scale(0.015625)"/>
       <path id="DejaVuSans-65" d="M 3597 1894 
L 3597 1613 
L 953 1613 
Q 991 1019 1311 708 
Q 1631 397 2203 397 
Q 2534 397 2845 478 
Q 3156 559 3463 722 
L 3463 178 
Q 3153 47 2828 -22 
Q 2503 -91 2169 -91 
Q 1331 -91 842 396 
Q 353 884 353 1716 
Q 353 2575 817 3079 
Q 1281 3584 2069 3584 
Q 2775 3584 3186 3129 
Q 3597 2675 3597 1894 
z
M 3022 2063 
Q 3016 2534 2758 2815 
Q 2500 3097 2075 3097 
Q 1594 3097 1305 2825 
Q 1016 2553 972 2059 
L 3022 2063 
z
" transform="scale(0.015625)"/>
       <path id="DejaVuSans-61" d="M 2194 1759 
Q 1497 1759 1228 1600 
Q 959 1441 959 1056 
Q 959 750 1161 570 
Q 1363 391 1709 391 
Q 2188 391 2477 730 
Q 2766 1069 2766 1631 
L 2766 1759 
L 2194 1759 
z
M 3341 1997 
L 3341 0 
L 2766 0 
L 2766 531 
Q 2569 213 2275 61 
Q 1981 -91 1556 -91 
Q 1019 -91 701 211 
Q 384 513 384 1019 
Q 384 1609 779 1909 
Q 1175 2209 1959 2209 
L 2766 2209 
L 2766 2266 
Q 2766 2663 2505 2880 
Q 2244 3097 1772 3097 
Q 1472 3097 1187 3025 
Q 903 2953 641 2809 
L 641 3341 
Q 956 3463 1253 3523 
Q 1550 3584 1831 3584 
Q 2591 3584 2966 3190 
Q 3341 2797 3341 1997 
z
" transform="scale(0.015625)"/>
       <path id="DejaVuSans-72" d="M 2631 2963 
Q 2534 3019 2420 3045 
Q 2306 3072 2169 3072 
Q 1681 3072 1420 2755 
Q 1159 2438 1159 1844 
L 1159 0 
L 581 0 
L 581 3500 
L 1159 3500 
L 1159 2956 
Q 1341 3275 1631 3429 
Q 1922 3584 2338 3584 
Q 2397 3584 2469 3576 
Q 2541 3569 2628 3553 
L 2631 2963 
z
" transform="scale(0.015625)"/>
       <path id="DejaVuSans-73" d="M 2834 3397 
L 2834 2853 
Q 2591 2978 2328 3040 
Q 2066 3103 1784 3103 
Q 1356 3103 1142 2972 
Q 928 2841 928 2578 
Q 928 2378 1081 2264 
Q 1234 2150 1697 2047 
L 1894 2003 
Q 2506 1872 2764 1633 
Q 3022 1394 3022 966 
Q 3022 478 2636 193 
Q 2250 -91 1575 -91 
Q 1294 -91 989 -36 
Q 684 19 347 128 
L 347 722 
Q 666 556 975 473 
Q 1284 391 1588 391 
Q 1994 391 2212 530 
Q 2431 669 2431 922 
Q 2431 1156 2273 1281 
Q 2116 1406 1581 1522 
L 1381 1569 
Q 847 1681 609 1914 
Q 372 2147 372 2553 
Q 372 3047 722 3315 
Q 1072 3584 1716 3584 
Q 2034 3584 2315 3537 
Q 2597 3491 2834 3397 
z
" transform="scale(0.015625)"/>
      </defs>
      <use xlink:href="#DejaVuSans-59"/>
      <use xlink:href="#DejaVuSans-65" x="47.833984"/>
      <use xlink:href="#DejaVuSans-61" x="109.357422"/>
      <use xlink:href="#DejaVuSans-72" x="170.636719"/>
      <use xlink:href="#DejaVuSans-73" x="211.75"/>
     </g>
    </g>
   </g>
   <g id="matplotlib.axis_2"/>
   <g id="line2d_6">
    <path d="M 555.992763 230.741713 
L 539.336259 229.57829 
L 523.866697 228.272027 
L 509.426108 226.828908 
L 499.495911 225.644293 
L 489.999963 224.294264 
L 480.901869 222.76646 
L 473.242151 221.260338 
L 465.843399 219.564104 
L 459.696237 217.931071 
L 452.737763 215.831466 
L 446.945813 213.849825 
L 441.304322 211.67563 
L 435.805668 209.290756 
L 430.442797 206.682455 
L 425.209165 203.843626 
L 420.098689 200.77423 
L 415.105706 197.497631 
L 410.224933 194.031534 
L 404.665959 189.776685 
L 399.245725 185.339895 
L 392.4699 179.46708 
L 383.752266 171.569387 
L 366.642224 155.883666 
L 360.798323 150.889587 
L 355.732549 146.848172 
L 351.394897 143.673568 
L 347.142183 140.842213 
L 342.971145 138.344882 
L 338.878705 136.165406 
L 334.861955 134.281149 
L 330.918146 132.679599 
L 327.044676 131.374974 
L 323.239081 130.337823 
L 319.499021 129.548046 
L 315.822279 128.992303 
L 312.206746 128.664401 
L 298.318028 127.802604 
L 295.454006 127.345039 
L 293.095837 126.787879 
L 290.762998 126.014829 
L 288.454951 124.994407 
L 285.717286 123.544059 
L 283.461967 122.085116 
L 281.229828 120.353508 
L 279.020397 118.318918 
L 276.833216 115.962894 
L 274.667842 113.279119 
L 272.523844 110.273504 
L 269.978675 106.264848 
L 267.462988 101.802291 
L 264.976108 96.916212 
L 262.110285 90.784011 
L 258.480364 82.427003 
L 251.785095 66.237446 
L 247.941008 57.301066 
L 245.290066 51.670773 
L 243.043302 47.393888 
L 241.188592 44.293503 
L 239.349587 41.674865 
L 237.889513 39.963253 
L 236.439189 38.617687 
L 234.998486 37.64005 
L 233.924195 37.15386 
L 232.855193 36.887842 
L 231.791426 36.848336 
L 230.732845 37.040344 
L 229.679398 37.46751 
L 228.631036 38.132094 
L 227.58771 39.034965 
L 226.549373 40.175592 
L 225.1726 42.062746 
L 223.804499 44.360616 
L 222.444963 47.056524 
L 220.757423 50.955176 
L 219.082895 55.364191 
L 217.090356 61.233729 
L 214.788599 68.72533 
L 211.542123 80.179072 
L 205.191225 102.821068 
L 202.392808 112.043656 
L 200.24092 118.447526 
L 198.413264 123.277178 
L 196.600859 127.451598 
L 194.803454 130.97185 
L 193.316896 133.40092 
L 192.134933 134.924929 
L 190.959368 136.085108 
L 189.790131 136.905433 
L 188.627155 137.409801 
L 187.470373 137.621805 
L 186.31972 137.564516 
L 185.175132 137.26026 
L 184.036543 136.730413 
L 182.621651 135.781552 
L 180.935858 134.303954 
L 178.708298 132.001874 
L 175.409218 128.202872 
L 172.159504 124.534259 
L 170.286052 122.709883 
L 168.692999 121.420001 
L 167.374323 120.581847 
L 166.063606 119.998787 
L 165.020698 119.737498 
L 163.982774 119.673346 
L 162.949786 119.817231 
L 161.921688 120.177367 
L 160.898435 120.759206 
L 159.879979 121.565388 
L 158.613589 122.879081 
L 157.354541 124.531772 
L 156.10275 126.521142 
L 154.610062 129.324394 
L 152.881461 133.110277 
L 150.922618 138.004828 
L 148.498651 144.736035 
L 145.149914 154.784109 
L 140.686242 168.083152 
L 138.373278 174.282645 
L 136.540481 178.633019 
L 134.949373 181.897692 
L 133.369837 184.622544 
L 132.025033 186.516633 
L 130.688504 188.003397 
L 129.580979 188.938055 
L 128.479073 189.605238 
L 127.382729 190.021501 
L 126.291892 190.210449 
L 125.206507 190.195004 
L 123.911163 189.944545 
L 122.40963 189.399701 
L 120.494216 188.444942 
L 113.40693 184.686263 
L 111.772414 184.202459 
L 110.150108 183.949203 
L 108.740463 183.940358 
L 107.140565 184.141003 
L 104.762601 184.689613 
L 101.826298 185.333442 
L 99.890588 185.528305 
L 98.354347 185.46064 
L 97.018992 185.182583 
L 95.691797 184.676401 
L 94.372664 183.939153 
L 92.874829 182.823875 
L 91.387253 181.426907 
L 89.358332 179.171332 
L 83.561551 172.460919 
L 81.958701 171.051033 
L 80.720167 170.232319 
L 79.488656 169.693639 
L 78.438604 169.470563 
L 77.393605 169.487795 
L 76.35361 169.752923 
L 75.318571 170.25911 
L 74.288442 170.995029 
L 73.092767 172.123011 
L 71.734294 173.728487 
L 70.2161 175.875742 
L 68.541572 178.634004 
L 66.38381 182.63631 
L 62.780353 189.897795 
L 60.036244 195.154422 
L 58.119892 198.374905 
L 56.535747 200.620415 
L 55.11983 202.288676 
L 53.86894 203.441738 
L 52.78029 204.178164 
L 51.697069 204.658328 
L 50.619225 204.892183 
L 49.546703 204.884337 
L 48.479452 204.654117 
L 47.266123 204.163869 
L 45.758933 203.297786 
L 43.220473 201.515906 
L 41.005031 200.062773 
L 39.540527 199.377425 
L 38.375992 199.075373 
L 37.362121 199.030492 
L 36.352961 199.214431 
L 35.348469 199.637447 
L 34.348601 200.307541 
L 33.211503 201.375811 
L 32.080327 202.754654 
L 30.674593 204.864433 
L 28.999634 207.834611 
L 26.236426 213.30848 
L 23.372404 218.784748 
L 21.61818 221.709642 
L 20.011377 223.969674 
L 18.681396 225.515804 
L 17.35951 226.701722 
L 16.438953 227.353683 
L 16.438953 227.353683 
" style="fill: none; stroke: #1a1a1a; stroke-width: 1.5; stroke-linecap: round"/>
   </g>
   <g id="line2d_7">
    <path d="M 554.623686 227.535368 
L 536.639467 225.998217 
L 525.427418 224.79435 
L 516.0703 223.586236 
L 507.099724 222.198451 
L 499.694965 220.824761 
L 493.711523 219.515788 
L 487.888514 218.024593 
L 482.217559 216.31701 
L 477.785054 214.769204 
L 473.441205 213.039525 
L 469.182534 211.133882 
L 465.005767 209.037692 
L 460.907811 206.731098 
L 456.885747 204.195902 
L 452.936816 201.41574 
L 449.058406 198.376232 
L 445.248041 195.065121 
L 441.503375 191.472386 
L 437.822182 187.590336 
L 434.202344 183.413611 
L 430.641851 178.938532 
L 427.138788 174.164477 
L 423.691331 169.093453 
L 420.297743 163.740372 
L 416.128993 156.719731 
L 412.038755 149.361093 
L 408.024126 141.701277 
L 403.302522 132.180992 
L 397.920666 120.75533 
L 391.191498 105.875549 
L 380.419775 81.95023 
L 375.570143 71.73685 
L 371.497801 63.680885 
L 368.161557 57.587203 
L 365.528976 53.181111 
L 362.927925 49.235759 
L 360.357655 45.787332 
L 358.44972 43.546352 
L 356.5584 41.614408 
L 354.683408 40.001516 
L 352.824465 38.715545 
L 350.981298 37.759835 
L 349.153641 37.13875 
L 347.341237 36.855245 
L 346.141315 36.85439 
L 344.947987 37.003932 
L 343.761179 37.303642 
L 341.99304 38.034113 
L 340.23918 39.097507 
L 338.499369 40.487511 
L 336.773385 42.196066 
L 335.061009 44.21341 
L 333.362028 46.528128 
L 331.1172 50.054299 
L 328.895337 54.050829 
L 326.695974 58.478232 
L 323.977725 64.551625 
L 321.293078 71.139896 
L 318.641211 78.196131 
L 315.501129 87.161472 
L 311.38375 99.678134 
L 305.350439 118.880304 
L 297.558205 143.559749 
L 293.294891 156.298054 
L 290.035887 165.364786 
L 286.825065 173.600977 
L 284.110215 179.977109 
L 281.428882 185.721623 
L 278.780249 190.851003 
L 276.163528 195.396962 
L 273.577959 199.405776 
L 271.022809 202.937305 
L 268.497371 206.043008 
L 266.000962 208.712671 
L 263.532921 211.011845 
L 260.688547 213.315983 
L 257.880942 215.301091 
L 254.716074 217.27482 
L 251.209869 219.211474 
L 247.379343 221.075665 
L 236.638243 225.939926 
L 231.637046 227.949766 
L 227.4401 229.418092 
L 223.66287 230.511554 
L 219.950212 231.340571 
L 216.629272 231.868034 
L 213.358349 232.176742 
L 210.135957 232.271423 
L 206.645688 232.145773 
L 202.901023 231.770945 
L 198.612318 231.093009 
L 192.924165 229.939346 
L 185.659768 228.486632 
L 181.69539 227.917021 
L 178.354013 227.649828 
L 175.063265 227.618229 
L 171.821634 227.829008 
L 168.627676 228.263731 
L 164.959805 228.999571 
L 160.079033 230.234002 
L 151.121672 232.557785 
L 147.256204 233.30477 
L 143.929451 233.730685 
L 140.420728 233.962584 
L 136.511519 233.987957 
L 131.554794 233.771928 
L 120.905262 233.230648 
L 116.704256 233.296135 
L 112.582971 233.583368 
L 107.9382 234.136624 
L 93.073883 236.102039 
L 88.276053 236.383001 
L 82.868673 236.460865 
L 76.379815 236.32498 
L 68.407264 235.928642 
L 60.074955 235.549285 
L 55.318884 235.570851 
L 49.592971 235.844822 
L 40.910393 236.263953 
L 26.298238 236.743995 
L 16.638007 237.317862 
L 16.506817 237.320778 
L 16.506817 237.320778 
" style="fill: none; stroke: #1a1a1a; stroke-opacity: 0.5; stroke-width: 0.5; stroke-linecap: round"/>
   </g>
   <g id="line2d_8">
    <path d="M 554.554353 230.530866 
L 512.110979 229.564326 
L 483.270633 228.898215 
L 470.170066 228.346298 
L 460.838478 227.740382 
L 452.867484 226.994491 
L 446.12505 226.133374 
L 439.585647 225.063637 
L 434.133012 223.954092 
L 428.813924 222.641498 
L 423.621998 221.106002 
L 419.388234 219.644923 
L 415.235426 218.011948 
L 411.160537 216.20315 
L 407.160696 214.217075 
L 402.456139 211.604931 
L 397.851333 208.764854 
L 393.342136 205.705736 
L 388.924657 202.446836 
L 383.881987 198.427369 
L 378.953748 194.222055 
L 372.777449 188.637351 
L 364.806454 181.097624 
L 352.755132 169.638772 
L 347.271904 164.738959 
L 342.511489 160.796488 
L 338.430036 157.715466 
L 334.423871 155.001237 
L 330.490267 152.640984 
L 326.626641 150.620399 
L 322.830548 148.91801 
L 319.099667 147.493285 
L 314.912835 146.128941 
L 302.32616 142.249009 
L 299.410878 141.041439 
L 297.011017 139.848019 
L 294.637385 138.438272 
L 292.289413 136.770006 
L 289.966555 134.802762 
L 287.668277 132.498411 
L 285.394065 129.821714 
L 283.143421 126.809265 
L 280.915861 123.480973 
L 278.710916 119.811913 
L 276.094195 114.963343 
L 273.508626 109.655988 
L 270.530525 102.956314 
L 267.176247 94.786935 
L 262.240006 82.038968 
L 254.646741 62.312714 
L 251.914816 55.839278 
L 249.600209 50.864928 
L 247.690036 47.201849 
L 245.796518 44.029825 
L 244.2935 41.873078 
L 242.800812 40.076045 
L 241.318313 38.660506 
L 240.213043 37.859482 
L 239.113368 37.287403 
L 238.019234 36.945983 
L 236.930584 36.836 
L 235.847363 36.957288 
L 234.769519 37.308744 
L 233.696997 37.888328 
L 232.629746 38.693077 
L 231.214853 40.109515 
L 229.809119 41.907645 
L 228.412424 44.073155 
L 227.024655 46.589175 
L 225.30232 50.196938 
L 223.253388 55.124597 
L 221.223605 60.628957 
L 218.879254 67.662772 
L 215.901802 77.419563 
L 211.671844 92.221304 
L 205.947744 112.191232 
L 202.83169 122.195222 
L 200.370641 129.34836 
L 198.239865 134.882206 
L 196.429978 139.050442 
L 194.635048 142.679779 
L 192.854832 145.783833 
L 191.089088 148.423285 
L 189.628523 150.228681 
L 188.177715 151.67333 
L 186.736534 152.791736 
L 185.304853 153.618372 
L 183.882547 154.187174 
L 182.469496 154.531042 
L 180.785881 154.690823 
L 179.115217 154.622164 
L 177.457307 154.356368 
L 174.721941 153.621142 
L 167.76714 151.672414 
L 165.410677 151.299278 
L 163.595387 151.22383 
L 161.795144 151.387098 
L 160.0097 151.797006 
L 158.490916 152.362078 
L 156.982679 153.135761 
L 155.484844 154.124934 
L 153.750327 155.555152 
L 152.029552 157.280138 
L 150.079503 159.57398 
L 148.146808 162.216826 
L 145.992887 165.573843 
L 143.624432 169.70581 
L 140.815963 175.092457 
L 137.126953 182.708749 
L 126.639343 204.668415 
L 123.825743 209.970342 
L 121.260533 214.362311 
L 118.935414 217.918842 
L 116.843055 220.71262 
L 114.977012 222.836602 
L 113.126867 224.616537 
L 111.495421 225.898009 
L 109.876139 226.896846 
L 108.26884 227.624348 
L 106.673349 228.10747 
L 105.089494 228.387893 
L 103.321355 228.460167 
L 101.373492 228.306037 
L 98.86711 227.860231 
L 95.443805 227.003059 
L 88.937984 225.351931 
L 78.742982 222.834109 
L 74.075869 221.344148 
L 66.678754 218.941983 
L 62.423293 217.823087 
L 54.623205 215.822862 
L 52.445112 214.953898 
L 49.982319 213.73722 
L 47.093568 212.038429 
L 42.905294 209.559111 
L 41.134752 208.782025 
L 39.816254 208.421353 
L 38.650939 208.304247 
L 37.491842 208.403389 
L 36.338898 208.725711 
L 35.192043 209.278385 
L 34.051212 210.060836 
L 32.7749 211.199502 
L 31.22508 212.91047 
L 29.407619 215.260377 
L 26.366147 219.661952 
L 23.502125 223.66428 
L 21.747901 225.776052 
L 20.141098 227.36446 
L 18.678566 228.497359 
L 17.357483 229.260544 
L 16.437484 229.649357 
L 16.437484 229.649357 
" style="fill: none; stroke: #1a1a1a; stroke-opacity: 0.5; stroke-width: 0.5; stroke-linecap: round"/>
   </g>
   <g id="line2d_9">
    <path d="M 555.992763 235.683603 
L 539.336259 235.068234 
L 526.598623 234.395915 
L 515.871246 233.625419 
L 506.90067 232.773659 
L 499.495911 231.843926 
L 493.512469 230.896897 
L 487.68946 229.769709 
L 482.018505 228.436933 
L 476.491866 226.870355 
L 472.169629 225.42827 
L 467.931734 223.800446 
L 463.774952 221.969685 
L 459.696237 219.92259 
L 455.692709 217.678408 
L 451.761648 215.229213 
L 447.900475 212.561694 
L 444.106751 209.66534 
L 440.378157 206.53254 
L 436.712497 203.158652 
L 433.10768 199.542049 
L 429.56172 195.684134 
L 426.072726 191.589326 
L 422.638896 187.265017 
L 418.421575 181.56578 
L 414.284588 175.594911 
L 409.42203 168.126243 
L 404.665959 160.404919 
L 398.482332 149.893218 
L 379.521252 117.217509 
L 375.371089 110.574904 
L 371.298747 104.492109 
L 367.962503 99.915067 
L 364.676733 95.827194 
L 362.083446 92.927606 
L 359.520759 90.366733 
L 356.987958 88.160514 
L 354.484354 86.334878 
L 352.625411 85.213087 
L 350.782244 84.30016 
L 348.954587 83.592231 
L 347.142183 83.084561 
L 345.344778 82.77157 
L 343.562126 82.646861 
L 341.793987 82.703256 
L 340.040126 82.932833 
L 337.723462 83.493333 
L 335.431248 84.324079 
L 333.162975 85.40098 
L 330.918146 86.695904 
L 328.144351 88.594844 
L 325.405535 90.759434 
L 322.163904 93.630439 
L 318.442157 97.238547 
L 312.719581 103.141605 
L 307.644929 108.32271 
L 304.656094 111.081945 
L 301.707833 113.48374 
L 299.281157 115.157174 
L 297.359152 116.249408 
L 295.454006 117.098375 
L 293.565427 117.682324 
L 291.693129 117.980223 
L 290.299422 118.003786 
L 288.454951 117.776605 
L 286.626012 117.298296 
L 284.812346 116.53504 
L 283.0137 115.479995 
L 281.229828 114.131381 
L 279.460488 112.492494 
L 277.705447 110.571674 
L 275.531402 107.794917 
L 273.378905 104.635372 
L 270.823755 100.406773 
L 268.298317 95.750578 
L 265.801908 90.686476 
L 262.517381 83.487196 
L 257.681888 72.260371 
L 251.39761 57.705118 
L 248.704402 52.03137 
L 246.422224 47.729114 
L 244.538559 44.597745 
L 242.671091 41.929104 
L 241.188592 40.160112 
L 239.716144 38.74394 
L 238.618323 37.92876 
L 237.526023 37.337238 
L 236.439189 36.975859 
L 235.357766 36.836 
L 234.281702 36.909658 
L 233.210943 37.203916 
L 232.145437 37.725229 
L 231.085132 38.478462 
L 230.029979 39.466859 
L 228.631036 41.153082 
L 227.241046 43.259325 
L 225.859895 45.779679 
L 224.487472 48.703109 
L 222.78405 52.899286 
L 221.093884 57.660184 
L 219.082895 64.062119 
L 216.760037 72.34946 
L 214.13541 82.653211 
L 210.577568 97.67195 
L 203.01157 129.9375 
L 199.935241 141.991398 
L 197.505171 150.655841 
L 195.101991 158.371358 
L 193.020802 164.331795 
L 191.252663 168.711049 
L 189.498802 172.440002 
L 187.758992 175.571293 
L 186.033007 178.156486 
L 184.605091 179.929386 
L 183.186502 181.384346 
L 181.777119 182.545075 
L 180.097843 183.613305 
L 178.431452 184.408077 
L 176.77775 184.970998 
L 174.864211 185.393123 
L 172.428464 185.674608 
L 167.637419 185.905444 
L 164.501116 186.15455 
L 161.921688 186.591661 
L 159.62611 187.212552 
L 157.605768 187.96134 
L 155.604046 188.960112 
L 153.620606 190.190724 
L 151.410675 191.820492 
L 148.981285 193.897898 
L 145.863166 196.908744 
L 141.852027 201.126963 
L 132.24859 211.368043 
L 128.699007 214.750361 
L 126.074381 216.984936 
L 123.481094 218.924091 
L 120.918406 220.578214 
L 118.385605 221.951554 
L 115.674665 223.175872 
L 112.997146 224.146813 
L 109.948169 225.001131 
L 107.140565 225.545401 
L 104.172156 225.890113 
L 101.243771 226.001136 
L 98.354347 225.897058 
L 95.880901 225.600812 
L 93.435307 225.082497 
L 90.832029 224.302203 
L 87.712289 223.120368 
L 77.046387 218.855404 
L 74.631276 218.266378 
L 72.412469 217.952241 
L 70.2161 217.877344 
L 68.041721 218.027032 
L 65.888895 218.405027 
L 63.757199 219.00026 
L 61.484688 219.870283 
L 59.075954 221.03208 
L 56.2203 222.667658 
L 52.315391 225.181501 
L 44.411347 230.348987 
L 41.59361 231.871293 
L 39.103094 232.976471 
L 36.640814 233.833804 
L 34.206138 234.447916 
L 31.516941 234.892222 
L 28.582905 235.138563 
L 25.687978 235.163499 
L 22.831132 234.962093 
L 20.278353 234.562592 
L 17.35951 233.858225 
L 16.438953 233.594785 
L 16.438953 233.594785 
" style="fill: none; stroke: #1a1a1a; stroke-opacity: 0.5; stroke-width: 0.5; stroke-linecap: round"/>
   </g>
   <g id="line2d_10">
    <path d="M 555.992763 234.560274 
L 505.648878 233.375807 
L 493.512469 232.87755 
L 484.269149 232.293726 
L 476.491866 231.595732 
L 470.040345 230.815667 
L 463.774952 229.825654 
L 458.688415 228.814092 
L 453.718284 227.635782 
L 448.859352 226.269593 
L 444.106751 224.692371 
L 439.455926 222.883902 
L 434.90261 220.827203 
L 431.327464 218.993925 
L 427.810217 216.98785 
L 424.349025 214.805314 
L 420.098689 211.829515 
L 415.929939 208.617044 
L 411.839701 205.18618 
L 407.825072 201.55218 
L 403.103468 196.956686 
L 398.482332 192.157816 
L 392.4699 185.566029 
L 384.465519 176.420614 
L 376.745684 167.168548 
L 360.158602 147.212579 
L 353.862937 139.893392 
L 347.142183 132.489982 
L 320.029389 103.074623 
L 306.644073 88.242884 
L 280.343356 59.298758 
L 274.237346 53.029918 
L 270.400804 49.368253 
L 265.801908 45.316496 
L 262.517381 42.685297 
L 259.68361 40.704359 
L 257.283749 39.290876 
L 254.910116 38.164463 
L 252.951715 37.453061 
L 251.010815 36.974377 
L 249.470488 36.836 
L 247.941008 36.924592 
L 246.422224 37.243941 
L 244.913988 37.800521 
L 243.416153 38.603432 
L 241.928577 39.664313 
L 240.451121 40.997235 
L 238.983647 42.618566 
L 237.526023 44.546819 
L 236.078116 46.792517 
L 234.281702 49.96868 
L 232.500025 53.525393 
L 230.732845 57.483856 
L 228.631036 62.773865 
L 226.549373 68.639033 
L 224.145717 76.151392 
L 221.430867 85.480274 
L 218.416682 96.723313 
L 213.159295 117.459107 
L 209.298123 132.231275 
L 206.761624 141.032411 
L 204.566231 147.895149 
L 202.701969 153.079659 
L 200.853573 157.533998 
L 199.32517 160.654998 
L 197.807447 163.231033 
L 196.600859 164.906524 
L 195.400938 166.254091 
L 194.20761 167.296083 
L 193.316896 167.871372 
L 192.429822 168.236144 
L 191.546355 168.403613 
L 190.666468 168.386923 
L 189.498802 168.100647 
L 188.337381 167.540284 
L 187.182138 166.735103 
L 185.746672 165.426944 
L 184.320631 163.831426 
L 182.621651 161.603428 
L 180.097843 157.844117 
L 173.507647 147.862017 
L 171.354616 145.083422 
L 169.488065 143.060185 
L 167.900833 141.674281 
L 166.586944 140.796601 
L 165.280956 140.191056 
L 163.982774 139.870969 
L 162.949786 139.825895 
L 161.921688 139.970105 
L 160.898435 140.302753 
L 159.62611 140.978557 
L 158.361195 141.929026 
L 157.103605 143.16947 
L 155.853255 144.690419 
L 154.362275 146.856698 
L 152.635637 149.80585 
L 150.679 153.653833 
L 148.498651 158.474349 
L 145.387404 166.004723 
L 138.373278 183.2302 
L 135.85715 188.701022 
L 133.819962 192.628888 
L 132.025033 195.643308 
L 130.244816 198.18891 
L 128.699007 200.037964 
L 127.164123 201.529429 
L 125.64001 202.680328 
L 124.126518 203.533409 
L 122.6235 204.13699 
L 120.918406 204.588764 
L 118.805693 204.908585 
L 116.505202 205.018817 
L 112.588134 204.946014 
L 108.139119 204.664629 
L 105.750257 204.324843 
L 103.975697 203.847354 
L 102.410391 203.178876 
L 101.049942 202.359606 
L 99.697962 201.300951 
L 98.354347 199.96788 
L 97.018992 198.332364 
L 95.691797 196.375593 
L 94.184869 193.735423 
L 92.501979 190.314849 
L 90.647269 186.037909 
L 88.259585 179.945625 
L 82.491671 165.003443 
L 80.720167 161.1171 
L 79.313294 158.51013 
L 78.089712 156.65453 
L 77.046387 155.43429 
L 76.008049 154.574067 
L 75.146544 154.135484 
L 74.288442 153.950291 
L 73.433718 154.016755 
L 72.582344 154.331145 
L 71.734294 154.887782 
L 70.720986 155.861699 
L 69.712384 157.15489 
L 68.541572 159.044877 
L 67.211183 161.662913 
L 65.724173 165.119909 
L 63.920435 169.947652 
L 61.323272 177.636009 
L 56.851653 190.963456 
L 54.806431 196.358219 
L 53.090776 200.301313 
L 51.542764 203.337146 
L 50.005707 205.872415 
L 48.783846 207.497519 
L 47.568821 208.78586 
L 46.209993 209.894931 
L 44.859614 210.700022 
L 43.51758 211.245497 
L 41.741004 211.716243 
L 39.686534 212.023912 
L 31.798452 212.925728 
L 29.695964 213.566987 
L 27.613636 214.444269 
L 24.731515 215.92866 
L 22.156434 217.508854 
L 19.744728 219.222826 
L 16.438953 221.896451 
L 16.438953 221.896451 
" style="fill: none; stroke: #1a1a1a; stroke-opacity: 0.5; stroke-width: 0.5; stroke-linecap: round"/>
   </g>
   <g id="line2d_11">
    <path d="M 555.288759 234.183067 
L 543.049734 233.163896 
L 532.878668 232.093772 
L 523.162693 230.840377 
L 513.862822 229.391565 
L 506.196665 227.987763 
L 498.791907 226.429712 
L 491.631306 224.716673 
L 484.699274 222.850395 
L 477.98167 220.834696 
L 471.465624 218.675385 
L 464.102708 215.98502 
L 456.981244 213.127572 
L 450.085895 210.136308 
L 442.464579 206.586355 
L 434.198605 202.476044 
L 424.505161 197.383828 
L 400.848134 184.777849 
L 394.751307 181.828668 
L 389.553464 179.534805 
L 383.761514 177.243965 
L 376.041679 174.409092 
L 360.094318 168.723637 
L 356.283954 167.062622 
L 352.539288 165.222619 
L 349.46731 163.493136 
L 346.438178 161.522831 
L 344.044929 159.736473 
L 341.677764 157.735397 
L 339.336121 155.496145 
L 337.019457 152.997695 
L 334.727244 150.221663 
L 332.45897 147.152471 
L 329.656541 142.948154 
L 326.889813 138.358293 
L 324.157887 133.384214 
L 321.4599 128.045205 
L 318.265942 121.207594 
L 314.59807 112.754165 
L 309.971465 101.441726 
L 304.943805 88.623487 
L 298.095054 71.160687 
L 294.750001 63.184209 
L 291.923256 56.957646 
L 289.595418 52.277044 
L 287.292265 48.12747 
L 285.467169 45.249584 
L 283.657281 42.779645 
L 281.862352 40.729253 
L 280.082135 39.106985 
L 278.756484 38.174649 
L 277.438875 37.487423 
L 276.129211 37.045445 
L 274.827398 36.847851 
L 273.533341 36.892775 
L 272.246949 37.177359 
L 270.968131 37.697771 
L 269.6968 38.449079 
L 268.432867 39.421754 
L 266.758984 41.044716 
L 265.097903 43.021264 
L 263.449431 45.328969 
L 261.406281 48.639969 
L 259.382173 52.371678 
L 256.977884 57.316182 
L 254.206111 63.576734 
L 250.693605 72.099106 
L 246.476284 82.97509 
L 237.549608 106.179418 
L 233.577697 115.870212 
L 230.381128 123.053405 
L 226.883706 130.332843 
L 223.100495 137.675783 
L 218.712765 145.716719 
L 215.396896 151.302483 
L 212.45529 155.834107 
L 209.873563 159.395356 
L 207.957211 161.702482 
L 206.057619 163.627465 
L 204.174499 165.248008 
L 202.307566 166.552021 
L 200.763954 167.353161 
L 199.231236 167.867489 
L 198.012803 168.061396 
L 196.801166 168.057459 
L 195.596252 167.855669 
L 194.397986 167.459885 
L 192.909391 166.704637 
L 191.725817 165.8709 
L 190.255363 164.546297 
L 188.794798 162.935281 
L 187.054987 160.668507 
L 185.042667 157.63747 
L 182.765475 153.781732 
L 179.115217 147.054285 
L 175.251592 140.041514 
L 173.074278 136.484007 
L 171.186872 133.809084 
L 169.582047 131.928225 
L 168.253693 130.672946 
L 166.933414 129.725687 
L 165.88294 129.208221 
L 164.837521 128.916478 
L 163.797111 128.858638 
L 162.761661 129.039993 
L 161.731124 129.462906 
L 160.705454 130.126779 
L 159.684605 131.028066 
L 158.415255 132.47812 
L 157.15328 134.281026 
L 155.898596 136.440478 
L 154.402481 139.464863 
L 152.66994 143.524103 
L 150.70667 148.752641 
L 148.519 155.215786 
L 145.397434 165.222462 
L 138.36058 188.061724 
L 135.836476 195.387484 
L 133.792899 200.695097 
L 131.99239 204.83613 
L 130.206684 208.414786 
L 128.435541 211.438448 
L 126.897551 213.627979 
L 125.370376 215.392061 
L 123.853865 216.765868 
L 122.562373 217.662119 
L 121.065275 218.414915 
L 119.578427 218.890617 
L 118.101688 219.130727 
L 116.634923 219.144906 
L 115.177997 218.952643 
L 113.524819 218.50518 
L 111.88413 217.826949 
L 110.255742 216.913196 
L 108.438282 215.6137 
L 106.635904 214.068024 
L 104.848361 212.242995 
L 103.075411 210.113316 
L 101.316817 207.668654 
L 99.186583 204.313274 
L 96.69568 199.931256 
L 92.170824 191.359624 
L 89.389926 186.352026 
L 87.55558 183.474442 
L 86.099178 181.556229 
L 84.832788 180.206764 
L 83.57374 179.179882 
L 82.500334 178.57261 
L 81.432208 178.224355 
L 80.369309 178.134101 
L 79.311587 178.293425 
L 78.258991 178.686671 
L 77.211472 179.301313 
L 75.995718 180.3045 
L 74.614567 181.781674 
L 73.071199 183.78848 
L 71.199635 186.62018 
L 68.673217 190.905663 
L 59.653282 206.583055 
L 57.574939 209.540341 
L 55.831743 211.650661 
L 54.25907 213.252215 
L 52.853335 214.403016 
L 51.456641 215.267987 
L 50.068871 215.853495 
L 48.842699 216.139816 
L 47.62341 216.21255 
L 46.259843 216.069298 
L 44.754742 215.671664 
L 43.111089 214.999208 
L 40.154131 213.478367 
L 37.381827 212.116899 
L 35.648957 211.517 
L 34.215386 211.2438 
L 32.933213 211.220686 
L 31.658565 211.434437 
L 30.391354 211.890144 
L 29.131494 212.572384 
L 27.601525 213.678198 
L 25.66975 215.392467 
L 22.532955 218.51504 
L 18.641364 222.34379 
L 16.523758 224.128064 
L 16.523758 224.128064 
" style="fill: none; stroke: #1a1a1a; stroke-opacity: 0.5; stroke-width: 0.5; stroke-linecap: round"/>
   </g>
   <g id="line2d_12">
    <path d="M 556.002011 235.188421 
L 542.280488 234.557187 
L 530.771293 233.816406 
L 521.177957 232.991699 
L 513.279443 232.122404 
L 505.658126 231.072776 
L 499.505159 230.020693 
L 493.521717 228.760531 
L 487.698708 227.267389 
L 483.15016 225.885983 
L 478.694922 224.320947 
L 474.329243 222.554821 
L 470.049593 220.569093 
L 465.852647 218.344368 
L 461.735268 215.860553 
L 457.694496 213.097048 
L 453.727532 210.061381 
L 449.831729 206.793764 
L 446.004578 203.280706 
L 442.243701 199.512011 
L 438.546842 195.482657 
L 434.911858 191.192842 
L 431.336712 186.647979 
L 427.819465 181.85865 
L 423.501525 175.552518 
L 419.267761 168.93054 
L 415.114954 162.042063 
L 410.234181 153.490515 
L 404.675207 143.274948 
L 394.71435 124.359532 
L 388.076594 111.988967 
L 383.761514 104.381821 
L 379.5305 97.395135 
L 376.066547 92.1063 
L 373.334622 88.276275 
L 370.636634 84.835899 
L 367.971751 81.809794 
L 365.339171 79.216694 
L 363.385467 77.563884 
L 361.449182 76.164965 
L 359.530007 75.02103 
L 357.627643 74.131196 
L 355.741797 73.492603 
L 353.872185 73.106169 
L 352.01853 72.984283 
L 350.180563 73.120615 
L 348.358019 73.50627 
L 346.550642 74.13134 
L 344.758181 74.984958 
L 342.980393 76.055351 
L 341.217039 77.329908 
L 338.887953 79.323665 
L 336.583579 81.622859 
L 334.303398 84.191944 
L 331.48643 87.726171 
L 328.153599 92.344941 
L 324.328855 98.108536 
L 318.979194 106.656492 
L 311.704368 118.278865 
L 308.156339 123.571231 
L 305.160634 127.679291 
L 302.695395 130.67369 
L 300.743155 132.754274 
L 298.808307 134.536659 
L 296.890544 136.004621 
L 294.989567 137.142696 
L 293.574675 137.770961 
L 292.16894 138.199679 
L 290.772246 138.423441 
L 289.384476 138.437224 
L 288.005518 138.236419 
L 286.63526 137.816856 
L 285.273592 137.174366 
L 283.920409 136.332816 
L 282.129181 134.905629 
L 280.352604 133.128177 
L 278.590443 131.003239 
L 276.842464 128.538348 
L 275.108441 125.745712 
L 272.960202 121.820004 
L 270.833003 117.45112 
L 268.307565 111.698077 
L 265.811156 105.48238 
L 262.934488 97.742762 
L 258.889954 86.158153 
L 251.020063 63.424477 
L 248.331618 56.316662 
L 246.05343 50.894614 
L 244.173027 46.936371 
L 242.308765 43.551764 
L 240.828791 41.296014 
L 239.358835 39.47245 
L 238.26286 38.404333 
L 237.172388 37.604624 
L 236.087364 37.083096 
L 235.007734 36.848808 
L 233.933443 36.910059 
L 232.864441 37.258637 
L 231.800674 37.879472 
L 230.742093 38.776626 
L 229.688646 39.952205 
L 228.640284 41.406289 
L 227.250294 43.774634 
L 225.869143 46.624194 
L 224.49672 49.938487 
L 222.793298 54.699865 
L 221.103132 60.094531 
L 219.092143 67.303656 
L 216.769285 76.581923 
L 214.144658 88.07842 
L 210.266247 106.21362 
L 205.200473 129.772126 
L 202.402056 141.732433 
L 199.944489 151.286377 
L 197.816695 158.641729 
L 196.009318 164.147752 
L 194.216858 168.919391 
L 192.43907 173.000122 
L 190.968616 175.90026 
L 189.50805 178.255483 
L 188.057242 180.109527 
L 186.616061 181.524473 
L 185.18438 182.560206 
L 183.762075 183.273535 
L 182.349023 183.717356 
L 180.945106 183.939875 
L 179.272298 183.974638 
L 176.786998 183.751704 
L 166.596192 182.506725 
L 164.510364 182.558146 
L 162.187505 182.831827 
L 159.635358 183.354071 
L 156.611849 184.217873 
L 153.629854 185.300698 
L 150.688248 186.589027 
L 147.785953 188.108703 
L 145.159162 189.753434 
L 142.329347 191.782468 
L 139.535929 194.063795 
L 136.549729 196.807047 
L 133.604031 199.793511 
L 130.254064 203.534663 
L 126.083629 208.543206 
L 121.14006 214.505073 
L 117.975577 218.004041 
L 115.476774 220.428767 
L 113.211189 222.353717 
L 111.171876 223.80358 
L 109.151534 224.949473 
L 107.349157 225.729247 
L 105.759505 226.172864 
L 104.181404 226.385299 
L 102.614687 226.381028 
L 101.05919 226.165456 
L 99.514756 225.734709 
L 97.408933 224.867352 
L 95.323332 223.756763 
L 92.884077 222.179664 
L 88.817511 219.214159 
L 85.726502 217.049296 
L 83.749626 215.923741 
L 81.967949 215.159621 
L 80.200769 214.647533 
L 78.447852 214.378917 
L 76.362858 214.31186 
L 74.126476 214.449101 
L 66.393058 215.210105 
L 63.440343 215.100945 
L 59.564817 214.970741 
L 57.652682 215.116803 
L 56.071997 215.446841 
L 54.659149 215.94959 
L 53.100024 216.75913 
L 51.552012 217.831837 
L 49.861846 219.300615 
L 47.881188 221.356082 
L 45.168222 224.535953 
L 41.897746 228.311516 
L 40.134392 230.019121 
L 38.530466 231.285809 
L 37.082559 232.151238 
L 35.644241 232.746782 
L 34.215386 233.099074 
L 32.795869 233.199399 
L 31.104607 233.069609 
L 28.869884 232.641407 
L 21.896388 231.127052 
L 18.955989 230.776151 
L 16.448201 230.647471 
L 16.448201 230.647471 
" style="fill: none; stroke: #1a1a1a; stroke-opacity: 0.5; stroke-width: 0.5; stroke-linecap: round"/>
   </g>
   <g id="patch_3">
    <path d="M 16.425 237.78 
L 16.425 36.836 
" style="fill: none; stroke: #ffffff; stroke-width: 1.25; stroke-linejoin: miter; stroke-linecap: square"/>
   </g>
   <g id="patch_4">
    <path d="M 556.11 237.78 
L 556.11 36.836 
" style="fill: none; stroke: #ffffff; stroke-width: 1.25; stroke-linejoin: miter; stroke-linecap: square"/>
   </g>
   <g id="patch_5">
    <path d="M 16.425 237.78 
L 556.11 237.78 
" style="fill: none; stroke: #ffffff; stroke-width: 1.25; stroke-linejoin: miter; stroke-linecap: square"/>
   </g>
   <g id="patch_6">
    <path d="M 16.425 36.836 
L 556.11 36.836 
" style="fill: none; stroke: #ffffff; stroke-width: 1.25; stroke-linejoin: miter; stroke-linecap: square"/>
   </g>
   <g id="patch_7">
    <path d="M 298.139752 52.531027 
Q 294.232165 54.315587 290.324577 56.100147 
" style="fill: none; stroke: #ffffff; stroke-width: 0.5; stroke-linecap: round"/>
   </g>
   <g id="text_7">
    <!-- TFP -->
    <g style="fill: #262626" transform="translate(302.45805 48.968285) scale(0.12 -0.12)">
     <defs>
      <path id="DejaVuSans-54" d="M -19 4666 
L 3928 4666 
L 3928 4134 
L 2272 4134 
L 2272 0 
L 1638 0 
L 1638 4134 
L -19 4134 
L -19 4666 
z
" transform="scale(0.015625)"/>
      <path id="DejaVuSans-46" d="M 628 4666 
L 3309 4666 
L 3309 4134 
L 1259 4134 
L 1259 2759 
L 3109 2759 
L 3109 2228 
L 1259 2228 
L 1259 0 
L 628 0 
L 628 4666 
z
" transform="scale(0.015625)"/>
      <path id="DejaVuSans-50" d="M 1259 4147 
L 1259 2394 
L 2053 2394 
Q 2494 2394 2734 2622 
Q 2975 2850 2975 3272 
Q 2975 3691 2734 3919 
Q 2494 4147 2053 4147 
L 1259 4147 
z
M 628 4666 
L 2053 4666 
Q 2838 4666 3239 4311 
Q 3641 3956 3641 3272 
Q 3641 2581 3239 2228 
Q 2838 1875 2053 1875 
L 1259 1875 
L 1259 0 
L 628 0 
L 628 4666 
z
" transform="scale(0.015625)"/>
     </defs>
     <use xlink:href="#DejaVuSans-54"/>
     <use xlink:href="#DejaVuSans-46" x="61.083984"/>
     <use xlink:href="#DejaVuSans-50" x="118.603516"/>
    </g>
   </g>
   <g id="patch_8">
    <path d="M 389.709866 63.873546 
Q 338.15082 65.396065 286.591774 66.918584 
" style="fill: none; stroke: #ffffff; stroke-width: 0.5; stroke-linecap: round"/>
   </g>
   <g id="text_8">
    <!-- Investment -->
    <g style="fill: #262626" transform="translate(394.2045 66.048525) scale(0.12 -0.12)">
     <defs>
      <path id="DejaVuSans-49" d="M 628 4666 
L 1259 4666 
L 1259 0 
L 628 0 
L 628 4666 
z
" transform="scale(0.015625)"/>
      <path id="DejaVuSans-6e" d="M 3513 2113 
L 3513 0 
L 2938 0 
L 2938 2094 
Q 2938 2591 2744 2837 
Q 2550 3084 2163 3084 
Q 1697 3084 1428 2787 
Q 1159 2491 1159 1978 
L 1159 0 
L 581 0 
L 581 3500 
L 1159 3500 
L 1159 2956 
Q 1366 3272 1645 3428 
Q 1925 3584 2291 3584 
Q 2894 3584 3203 3211 
Q 3513 2838 3513 2113 
z
" transform="scale(0.015625)"/>
      <path id="DejaVuSans-76" d="M 191 3500 
L 800 3500 
L 1894 563 
L 2988 3500 
L 3597 3500 
L 2284 0 
L 1503 0 
L 191 3500 
z
" transform="scale(0.015625)"/>
      <path id="DejaVuSans-74" d="M 1172 4494 
L 1172 3500 
L 2356 3500 
L 2356 3053 
L 1172 3053 
L 1172 1153 
Q 1172 725 1289 603 
Q 1406 481 1766 481 
L 2356 481 
L 2356 0 
L 1766 0 
Q 1100 0 847 248 
Q 594 497 594 1153 
L 594 3053 
L 172 3053 
L 172 3500 
L 594 3500 
L 594 4494 
L 1172 4494 
z
" transform="scale(0.015625)"/>
      <path id="DejaVuSans-6d" d="M 3328 2828 
Q 3544 3216 3844 3400 
Q 4144 3584 4550 3584 
Q 5097 3584 5394 3201 
Q 5691 2819 5691 2113 
L 5691 0 
L 5113 0 
L 5113 2094 
Q 5113 2597 4934 2840 
Q 4756 3084 4391 3084 
Q 3944 3084 3684 2787 
Q 3425 2491 3425 1978 
L 3425 0 
L 2847 0 
L 2847 2094 
Q 2847 2600 2669 2842 
Q 2491 3084 2119 3084 
Q 1678 3084 1418 2786 
Q 1159 2488 1159 1978 
L 1159 0 
L 581 0 
L 581 3500 
L 1159 3500 
L 1159 2956 
Q 1356 3278 1631 3431 
Q 1906 3584 2284 3584 
Q 2666 3584 2933 3390 
Q 3200 3197 3328 2828 
z
" transform="scale(0.015625)"/>
     </defs>
     <use xlink:href="#DejaVuSans-49"/>
     <use xlink:href="#DejaVuSans-6e" x="29.492188"/>
     <use xlink:href="#DejaVuSans-76" x="92.871094"/>
     <use xlink:href="#DejaVuSans-65" x="152.050781"/>
     <use xlink:href="#DejaVuSans-73" x="213.574219"/>
     <use xlink:href="#DejaVuSans-74" x="265.673828"/>
     <use xlink:href="#DejaVuSans-6d" x="304.882812"/>
     <use xlink:href="#DejaVuSans-65" x="402.294922"/>
     <use xlink:href="#DejaVuSans-6e" x="463.818359"/>
     <use xlink:href="#DejaVuSans-74" x="527.197266"/>
    </g>
   </g>
   <g id="patch_9">
    <path d="M 389.721533 53.629009 
Q 378.836414 55.142079 367.951296 56.65515 
" style="fill: none; stroke: #ffffff; stroke-width: 0.5; stroke-linecap: round"/>
   </g>
   <g id="text_9">
    <!-- Wage -->
    <g style="fill: #262626" transform="translate(394.2045 53.991885) scale(0.12 -0.12)">
     <defs>
      <path id="DejaVuSans-57" d="M 213 4666 
L 850 4666 
L 1831 722 
L 2809 4666 
L 3519 4666 
L 4500 722 
L 5478 4666 
L 6119 4666 
L 4947 0 
L 4153 0 
L 3169 4050 
L 2175 0 
L 1381 0 
L 213 4666 
z
" transform="scale(0.015625)"/>
      <path id="DejaVuSans-67" d="M 2906 1791 
Q 2906 2416 2648 2759 
Q 2391 3103 1925 3103 
Q 1463 3103 1205 2759 
Q 947 2416 947 1791 
Q 947 1169 1205 825 
Q 1463 481 1925 481 
Q 2391 481 2648 825 
Q 2906 1169 2906 1791 
z
M 3481 434 
Q 3481 -459 3084 -895 
Q 2688 -1331 1869 -1331 
Q 1566 -1331 1297 -1286 
Q 1028 -1241 775 -1147 
L 775 -588 
Q 1028 -725 1275 -790 
Q 1522 -856 1778 -856 
Q 2344 -856 2625 -561 
Q 2906 -266 2906 331 
L 2906 616 
Q 2728 306 2450 153 
Q 2172 0 1784 0 
Q 1141 0 747 490 
Q 353 981 353 1791 
Q 353 2603 747 3093 
Q 1141 3584 1784 3584 
Q 2172 3584 2450 3431 
Q 2728 3278 2906 2969 
L 2906 3500 
L 3481 3500 
L 3481 434 
z
" transform="scale(0.015625)"/>
     </defs>
     <use xlink:href="#DejaVuSans-57"/>
     <use xlink:href="#DejaVuSans-61" x="92.501953"/>
     <use xlink:href="#DejaVuSans-67" x="153.78125"/>
     <use xlink:href="#DejaVuSans-65" x="217.257812"/>
    </g>
   </g>
   <g id="patch_10">
    <path d="M 416.685908 74.793679 
Q 389.579327 75.869544 362.472746 76.945409 
" style="fill: none; stroke: #ffffff; stroke-width: 0.5; stroke-linecap: round"/>
   </g>
   <g id="text_10">
    <!-- Unemployment -->
    <g style="fill: #262626" transform="translate(421.18875 76.095725) scale(0.12 -0.12)">
     <defs>
      <path id="DejaVuSans-55" d="M 556 4666 
L 1191 4666 
L 1191 1831 
Q 1191 1081 1462 751 
Q 1734 422 2344 422 
Q 2950 422 3222 751 
Q 3494 1081 3494 1831 
L 3494 4666 
L 4128 4666 
L 4128 1753 
Q 4128 841 3676 375 
Q 3225 -91 2344 -91 
Q 1459 -91 1007 375 
Q 556 841 556 1753 
L 556 4666 
z
" transform="scale(0.015625)"/>
      <path id="DejaVuSans-70" d="M 1159 525 
L 1159 -1331 
L 581 -1331 
L 581 3500 
L 1159 3500 
L 1159 2969 
Q 1341 3281 1617 3432 
Q 1894 3584 2278 3584 
Q 2916 3584 3314 3078 
Q 3713 2572 3713 1747 
Q 3713 922 3314 415 
Q 2916 -91 2278 -91 
Q 1894 -91 1617 61 
Q 1341 213 1159 525 
z
M 3116 1747 
Q 3116 2381 2855 2742 
Q 2594 3103 2138 3103 
Q 1681 3103 1420 2742 
Q 1159 2381 1159 1747 
Q 1159 1113 1420 752 
Q 1681 391 2138 391 
Q 2594 391 2855 752 
Q 3116 1113 3116 1747 
z
" transform="scale(0.015625)"/>
      <path id="DejaVuSans-6c" d="M 603 4863 
L 1178 4863 
L 1178 0 
L 603 0 
L 603 4863 
z
" transform="scale(0.015625)"/>
      <path id="DejaVuSans-6f" d="M 1959 3097 
Q 1497 3097 1228 2736 
Q 959 2375 959 1747 
Q 959 1119 1226 758 
Q 1494 397 1959 397 
Q 2419 397 2687 759 
Q 2956 1122 2956 1747 
Q 2956 2369 2687 2733 
Q 2419 3097 1959 3097 
z
M 1959 3584 
Q 2709 3584 3137 3096 
Q 3566 2609 3566 1747 
Q 3566 888 3137 398 
Q 2709 -91 1959 -91 
Q 1206 -91 779 398 
Q 353 888 353 1747 
Q 353 2609 779 3096 
Q 1206 3584 1959 3584 
z
" transform="scale(0.015625)"/>
      <path id="DejaVuSans-79" d="M 2059 -325 
Q 1816 -950 1584 -1140 
Q 1353 -1331 966 -1331 
L 506 -1331 
L 506 -850 
L 844 -850 
Q 1081 -850 1212 -737 
Q 1344 -625 1503 -206 
L 1606 56 
L 191 3500 
L 800 3500 
L 1894 763 
L 2988 3500 
L 3597 3500 
L 2059 -325 
z
" transform="scale(0.015625)"/>
     </defs>
     <use xlink:href="#DejaVuSans-55"/>
     <use xlink:href="#DejaVuSans-6e" x="73.193359"/>
     <use xlink:href="#DejaVuSans-65" x="136.572266"/>
     <use xlink:href="#DejaVuSans-6d" x="198.095703"/>
     <use xlink:href="#DejaVuSans-70" x="295.507812"/>
     <use xlink:href="#DejaVuSans-6c" x="358.984375"/>
     <use xlink:href="#DejaVuSans-6f" x="386.767578"/>
     <use xlink:href="#DejaVuSans-79" x="447.949219"/>
     <use xlink:href="#DejaVuSans-6d" x="507.128906"/>
     <use xlink:href="#DejaVuSans-65" x="604.541016"/>
     <use xlink:href="#DejaVuSans-6e" x="666.064453"/>
     <use xlink:href="#DejaVuSans-74" x="729.443359"/>
    </g>
   </g>
   <g id="patch_11">
    <path d="M 416.686542 84.58846 
Q 385.318041 85.791955 353.949541 86.99545 
" style="fill: none; stroke: #ffffff; stroke-width: 0.5; stroke-linecap: round"/>
   </g>
   <g id="text_11">
    <!-- Hours worked -->
    <g style="fill: #262626" transform="translate(421.18875 86.142925) scale(0.12 -0.12)">
     <defs>
      <path id="DejaVuSans-48" d="M 628 4666 
L 1259 4666 
L 1259 2753 
L 3553 2753 
L 3553 4666 
L 4184 4666 
L 4184 0 
L 3553 0 
L 3553 2222 
L 1259 2222 
L 1259 0 
L 628 0 
L 628 4666 
z
" transform="scale(0.015625)"/>
      <path id="DejaVuSans-75" d="M 544 1381 
L 544 3500 
L 1119 3500 
L 1119 1403 
Q 1119 906 1312 657 
Q 1506 409 1894 409 
Q 2359 409 2629 706 
Q 2900 1003 2900 1516 
L 2900 3500 
L 3475 3500 
L 3475 0 
L 2900 0 
L 2900 538 
Q 2691 219 2414 64 
Q 2138 -91 1772 -91 
Q 1169 -91 856 284 
Q 544 659 544 1381 
z
M 1991 3584 
L 1991 3584 
z
" transform="scale(0.015625)"/>
      <path id="DejaVuSans-20" transform="scale(0.015625)"/>
      <path id="DejaVuSans-77" d="M 269 3500 
L 844 3500 
L 1563 769 
L 2278 3500 
L 2956 3500 
L 3675 769 
L 4391 3500 
L 4966 3500 
L 4050 0 
L 3372 0 
L 2619 2869 
L 1863 0 
L 1184 0 
L 269 3500 
z
" transform="scale(0.015625)"/>
      <path id="DejaVuSans-6b" d="M 581 4863 
L 1159 4863 
L 1159 1991 
L 2875 3500 
L 3609 3500 
L 1753 1863 
L 3688 0 
L 2938 0 
L 1159 1709 
L 1159 0 
L 581 0 
L 581 4863 
z
" transform="scale(0.015625)"/>
      <path id="DejaVuSans-64" d="M 2906 2969 
L 2906 4863 
L 3481 4863 
L 3481 0 
L 2906 0 
L 2906 525 
Q 2725 213 2448 61 
Q 2172 -91 1784 -91 
Q 1150 -91 751 415 
Q 353 922 353 1747 
Q 353 2572 751 3078 
Q 1150 3584 1784 3584 
Q 2172 3584 2448 3432 
Q 2725 3281 2906 2969 
z
M 947 1747 
Q 947 1113 1208 752 
Q 1469 391 1925 391 
Q 2381 391 2643 752 
Q 2906 1113 2906 1747 
Q 2906 2381 2643 2742 
Q 2381 3103 1925 3103 
Q 1469 3103 1208 2742 
Q 947 2381 947 1747 
z
" transform="scale(0.015625)"/>
     </defs>
     <use xlink:href="#DejaVuSans-48"/>
     <use xlink:href="#DejaVuSans-6f" x="75.195312"/>
     <use xlink:href="#DejaVuSans-75" x="136.376953"/>
     <use xlink:href="#DejaVuSans-72" x="199.755859"/>
     <use xlink:href="#DejaVuSans-73" x="240.869141"/>
     <use xlink:href="#DejaVuSans-20" x="292.96875"/>
     <use xlink:href="#DejaVuSans-77" x="324.755859"/>
     <use xlink:href="#DejaVuSans-6f" x="406.542969"/>
     <use xlink:href="#DejaVuSans-72" x="467.724609"/>
     <use xlink:href="#DejaVuSans-6b" x="508.837891"/>
     <use xlink:href="#DejaVuSans-65" x="563.123047"/>
     <use xlink:href="#DejaVuSans-64" x="624.646484"/>
    </g>
   </g>
   <g id="patch_12">
    <path d="M 457.170731 197.309713 
Q 422.917046 200.375461 388.66336 203.441209 
" style="fill: none; stroke: #ffffff; stroke-width: 0.5; stroke-linecap: round"/>
   </g>
   <g id="text_12">
    <!-- Consumption -->
    <g style="fill: #262626" transform="translate(461.665125 196.662125) scale(0.12 -0.12)">
     <defs>
      <path id="DejaVuSans-43" d="M 4122 4306 
L 4122 3641 
Q 3803 3938 3442 4084 
Q 3081 4231 2675 4231 
Q 1875 4231 1450 3742 
Q 1025 3253 1025 2328 
Q 1025 1406 1450 917 
Q 1875 428 2675 428 
Q 3081 428 3442 575 
Q 3803 722 4122 1019 
L 4122 359 
Q 3791 134 3420 21 
Q 3050 -91 2638 -91 
Q 1578 -91 968 557 
Q 359 1206 359 2328 
Q 359 3453 968 4101 
Q 1578 4750 2638 4750 
Q 3056 4750 3426 4639 
Q 3797 4528 4122 4306 
z
" transform="scale(0.015625)"/>
      <path id="DejaVuSans-69" d="M 603 3500 
L 1178 3500 
L 1178 0 
L 603 0 
L 603 3500 
z
M 603 4863 
L 1178 4863 
L 1178 4134 
L 603 4134 
L 603 4863 
z
" transform="scale(0.015625)"/>
     </defs>
     <use xlink:href="#DejaVuSans-43"/>
     <use xlink:href="#DejaVuSans-6f" x="69.824219"/>
     <use xlink:href="#DejaVuSans-6e" x="131.005859"/>
     <use xlink:href="#DejaVuSans-73" x="194.384766"/>
     <use xlink:href="#DejaVuSans-75" x="246.484375"/>
     <use xlink:href="#DejaVuSans-6d" x="309.863281"/>
     <use xlink:href="#DejaVuSans-70" x="407.275391"/>
     <use xlink:href="#DejaVuSans-74" x="470.751953"/>
     <use xlink:href="#DejaVuSans-69" x="509.960938"/>
     <use xlink:href="#DejaVuSans-6f" x="537.744141"/>
     <use xlink:href="#DejaVuSans-6e" x="598.925781"/>
    </g>
   </g>
   <g id="legend_1">
    <g id="line2d_13">
     <path d="M 26.325 31.149881 
L 37.325 31.149881 
L 48.325 31.149881 
" style="fill: none; stroke: #1a1a1a; stroke-width: 1.5; stroke-linecap: round"/>
    </g>
    <g id="text_13">
     <!-- GDP -->
     <g style="fill: #262626" transform="translate(57.125 34.999881) scale(0.11 -0.11)">
      <defs>
       <path id="DejaVuSans-47" d="M 3809 666 
L 3809 1919 
L 2778 1919 
L 2778 2438 
L 4434 2438 
L 4434 434 
Q 4069 175 3628 42 
Q 3188 -91 2688 -91 
Q 1594 -91 976 548 
Q 359 1188 359 2328 
Q 359 3472 976 4111 
Q 1594 4750 2688 4750 
Q 3144 4750 3555 4637 
Q 3966 4525 4313 4306 
L 4313 3634 
Q 3963 3931 3569 4081 
Q 3175 4231 2741 4231 
Q 1884 4231 1454 3753 
Q 1025 3275 1025 2328 
Q 1025 1384 1454 906 
Q 1884 428 2741 428 
Q 3075 428 3337 486 
Q 3600 544 3809 666 
z
" transform="scale(0.015625)"/>
       <path id="DejaVuSans-44" d="M 1259 4147 
L 1259 519 
L 2022 519 
Q 2988 519 3436 956 
Q 3884 1394 3884 2338 
Q 3884 3275 3436 3711 
Q 2988 4147 2022 4147 
L 1259 4147 
z
M 628 4666 
L 1925 4666 
Q 3281 4666 3915 4102 
Q 4550 3538 4550 2338 
Q 4550 1131 3912 565 
Q 3275 0 1925 0 
L 628 0 
L 628 4666 
z
" transform="scale(0.015625)"/>
      </defs>
      <use xlink:href="#DejaVuSans-47"/>
      <use xlink:href="#DejaVuSans-44" x="77.490234"/>
      <use xlink:href="#DejaVuSans-50" x="154.492188"/>
     </g>
    </g>
    <g id="line2d_14">
     <path d="M 102.750937 31.149881 
L 113.750937 31.149881 
L 124.750937 31.149881 
" style="fill: none; stroke: #1a1a1a; stroke-opacity: 0.5; stroke-width: 0.5; stroke-linecap: round"/>
    </g>
    <g id="text_14">
     <!-- Others -->
     <g style="fill: #262626" transform="translate(133.550938 34.999881) scale(0.11 -0.11)">
      <defs>
       <path id="DejaVuSans-4f" d="M 2522 4238 
Q 1834 4238 1429 3725 
Q 1025 3213 1025 2328 
Q 1025 1447 1429 934 
Q 1834 422 2522 422 
Q 3209 422 3611 934 
Q 4013 1447 4013 2328 
Q 4013 3213 3611 3725 
Q 3209 4238 2522 4238 
z
M 2522 4750 
Q 3503 4750 4090 4092 
Q 4678 3434 4678 2328 
Q 4678 1225 4090 567 
Q 3503 -91 2522 -91 
Q 1538 -91 948 565 
Q 359 1222 359 2328 
Q 359 3434 948 4092 
Q 1538 4750 2522 4750 
z
" transform="scale(0.015625)"/>
       <path id="DejaVuSans-68" d="M 3513 2113 
L 3513 0 
L 2938 0 
L 2938 2094 
Q 2938 2591 2744 2837 
Q 2550 3084 2163 3084 
Q 1697 3084 1428 2787 
Q 1159 2491 1159 1978 
L 1159 0 
L 581 0 
L 581 4863 
L 1159 4863 
L 1159 2956 
Q 1366 3272 1645 3428 
Q 1925 3584 2291 3584 
Q 2894 3584 3203 3211 
Q 3513 2838 3513 2113 
z
" transform="scale(0.015625)"/>
      </defs>
      <use xlink:href="#DejaVuSans-4f"/>
      <use xlink:href="#DejaVuSans-74" x="78.710938"/>
      <use xlink:href="#DejaVuSans-68" x="117.919922"/>
      <use xlink:href="#DejaVuSans-65" x="181.298828"/>
      <use xlink:href="#DejaVuSans-72" x="242.822266"/>
      <use xlink:href="#DejaVuSans-73" x="283.935547"/>
     </g>
    </g>
   </g>
  </g>
 </g>
 <defs>
  <clipPath id="p2ade311856">
   <rect x="16.425" y="36.836" width="539.685" height="200.944"/>
  </clipPath>
 </defs>
</svg>
