<?xml version="1.0" encoding="utf-8" standalone="no"?>
<!DOCTYPE svg PUBLIC "-//W3C//DTD SVG 1.1//EN"
  "http://www.w3.org/Graphics/SVG/1.1/DTD/svg11.dtd">
<svg xmlns:xlink="http://www.w3.org/1999/xlink" width="460.8pt" height="345.6pt" viewBox="0 0 460.8 345.6" xmlns="http://www.w3.org/2000/svg" version="1.1">
 <metadata>
  <rdf:RDF xmlns:dc="http://purl.org/dc/elements/1.1/" xmlns:cc="http://creativecommons.org/ns#" xmlns:rdf="http://www.w3.org/1999/02/22-rdf-syntax-ns#">
   <cc:Work>
    <dc:type rdf:resource="http://purl.org/dc/dcmitype/StillImage"/>
    <dc:date>2024-05-07T20:59:38.663812</dc:date>
    <dc:format>image/svg+xml</dc:format>
    <dc:creator>
     <cc:Agent>
      <dc:title>Matplotlib v3.8.3, https://matplotlib.org/</dc:title>
     </cc:Agent>
    </dc:creator>
   </cc:Work>
  </rdf:RDF>
 </metadata>
 <defs>
  <style type="text/css">*{stroke-linejoin: round; stroke-linecap: butt}</style>
 </defs>
 <g id="figure_1">
  <g id="patch_1">
   <path d="M 0 345.6 
L 460.8 345.6 
L 460.8 0 
L 0 0 
L 0 345.6 
z
" style="fill: none"/>
  </g>
  <g id="axes_1">
   <g id="patch_2">
    <path d="M 16.425 295.38 
L 440.91 295.38 
L 440.91 42.7112 
L 16.425 42.7112 
L 16.425 295.38 
z
" style="fill: none"/>
   </g>
   <g id="matplotlib.axis_1">
    <g id="xtick_1">
     <g id="line2d_1">
      <path d="M 16.425 295.38 
L 16.425 42.7112 
" clip-path="url(#pfb56eb3118)" style="fill: none; stroke: #ffffff; stroke-linecap: round"/>
     </g>
     <g id="text_1">
      <!-- 2 -->
      <g style="fill: #262626" transform="translate(12.925625 313.238281) scale(0.11 -0.11)">
       <defs>
        <path id="DejaVuSans-32" d="M 1228 531 
L 3431 531 
L 3431 0 
L 469 0 
L 469 531 
Q 828 903 1448 1529 
Q 2069 2156 2228 2338 
Q 2531 2678 2651 2914 
Q 2772 3150 2772 3378 
Q 2772 3750 2511 3984 
Q 2250 4219 1831 4219 
Q 1534 4219 1204 4116 
Q 875 4013 500 3803 
L 500 4441 
Q 881 4594 1212 4672 
Q 1544 4750 1819 4750 
Q 2544 4750 2975 4387 
Q 3406 4025 3406 3419 
Q 3406 3131 3298 2873 
Q 3191 2616 2906 2266 
Q 2828 2175 2409 1742 
Q 1991 1309 1228 531 
z
" transform="scale(0.015625)"/>
       </defs>
       <use xlink:href="#DejaVuSans-32"/>
      </g>
     </g>
    </g>
    <g id="xtick_2">
     <g id="line2d_2">
      <path d="M 134.832096 295.38 
L 134.832096 42.7112 
" clip-path="url(#pfb56eb3118)" style="fill: none; stroke: #ffffff; stroke-linecap: round"/>
     </g>
     <g id="text_2">
      <!-- 4 -->
      <g style="fill: #262626" transform="translate(131.332721 313.238281) scale(0.11 -0.11)">
       <defs>
        <path id="DejaVuSans-34" d="M 2419 4116 
L 825 1625 
L 2419 1625 
L 2419 4116 
z
M 2253 4666 
L 3047 4666 
L 3047 1625 
L 3713 1625 
L 3713 1100 
L 3047 1100 
L 3047 0 
L 2419 0 
L 2419 1100 
L 313 1100 
L 313 1709 
L 2253 4666 
z
" transform="scale(0.015625)"/>
       </defs>
       <use xlink:href="#DejaVuSans-34"/>
      </g>
     </g>
    </g>
    <g id="xtick_3">
     <g id="line2d_3">
      <path d="M 204.095807 295.38 
L 204.095807 42.7112 
" clip-path="url(#pfb56eb3118)" style="fill: none; stroke: #ffffff; stroke-linecap: round"/>
     </g>
     <g id="text_3">
      <!-- 6 -->
      <g style="fill: #262626" transform="translate(200.596432 313.238281) scale(0.11 -0.11)">
       <defs>
        <path id="DejaVuSans-36" d="M 2113 2584 
Q 1688 2584 1439 2293 
Q 1191 2003 1191 1497 
Q 1191 994 1439 701 
Q 1688 409 2113 409 
Q 2538 409 2786 701 
Q 3034 994 3034 1497 
Q 3034 2003 2786 2293 
Q 2538 2584 2113 2584 
z
M 3366 4563 
L 3366 3988 
Q 3128 4100 2886 4159 
Q 2644 4219 2406 4219 
Q 1781 4219 1451 3797 
Q 1122 3375 1075 2522 
Q 1259 2794 1537 2939 
Q 1816 3084 2150 3084 
Q 2853 3084 3261 2657 
Q 3669 2231 3669 1497 
Q 3669 778 3244 343 
Q 2819 -91 2113 -91 
Q 1303 -91 875 529 
Q 447 1150 447 2328 
Q 447 3434 972 4092 
Q 1497 4750 2381 4750 
Q 2619 4750 2861 4703 
Q 3103 4656 3366 4563 
z
" transform="scale(0.015625)"/>
       </defs>
       <use xlink:href="#DejaVuSans-36"/>
      </g>
     </g>
    </g>
    <g id="xtick_4">
     <g id="line2d_4">
      <path d="M 322.502904 295.38 
L 322.502904 42.7112 
" clip-path="url(#pfb56eb3118)" style="fill: none; stroke: #ffffff; stroke-linecap: round"/>
     </g>
     <g id="text_4">
      <!-- 12 -->
      <g style="fill: #262626" transform="translate(315.504154 313.238281) scale(0.11 -0.11)">
       <defs>
        <path id="DejaVuSans-31" d="M 794 531 
L 1825 531 
L 1825 4091 
L 703 3866 
L 703 4441 
L 1819 4666 
L 2450 4666 
L 2450 531 
L 3481 531 
L 3481 0 
L 794 0 
L 794 531 
z
" transform="scale(0.015625)"/>
       </defs>
       <use xlink:href="#DejaVuSans-31"/>
       <use xlink:href="#DejaVuSans-32" x="63.623047"/>
      </g>
     </g>
    </g>
    <g id="xtick_5">
     <g id="line2d_5">
      <path d="M 440.91 295.38 
L 440.91 42.7112 
" clip-path="url(#pfb56eb3118)" style="fill: none; stroke: #ffffff; stroke-linecap: round"/>
     </g>
     <g id="text_5">
      <!-- 24 -->
      <g style="fill: #262626" transform="translate(433.91125 313.238281) scale(0.11 -0.11)">
       <use xlink:href="#DejaVuSans-32"/>
       <use xlink:href="#DejaVuSans-34" x="63.623047"/>
      </g>
     </g>
    </g>
    <g id="xtick_6"/>
    <g id="xtick_7"/>
    <g id="xtick_8"/>
    <g id="xtick_9"/>
    <g id="xtick_10"/>
    <g id="xtick_11"/>
    <g id="xtick_12"/>
    <g id="xtick_13"/>
    <g id="xtick_14"/>
    <g id="text_6">
     <!-- Years -->
     <g style="fill: #262626" transform="translate(212.836875 328.644063) scale(0.12 -0.12)">
      <defs>
       <path id="DejaVuSans-59" d="M -13 4666 
L 666 4666 
L 1959 2747 
L 3244 4666 
L 3922 4666 
L 2272 2222 
L 2272 0 
L 1638 0 
L 1638 2222 
L -13 4666 
z
" transform="scale(0.015625)"/>
       <path id="DejaVuSans-65" d="M 3597 1894 
L 3597 1613 
L 953 1613 
Q 991 1019 1311 708 
Q 1631 397 2203 397 
Q 2534 397 2845 478 
Q 3156 559 3463 722 
L 3463 178 
Q 3153 47 2828 -22 
Q 2503 -91 2169 -91 
Q 1331 -91 842 396 
Q 353 884 353 1716 
Q 353 2575 817 3079 
Q 1281 3584 2069 3584 
Q 2775 3584 3186 3129 
Q 3597 2675 3597 1894 
z
M 3022 2063 
Q 3016 2534 2758 2815 
Q 2500 3097 2075 3097 
Q 1594 3097 1305 2825 
Q 1016 2553 972 2059 
L 3022 2063 
z
" transform="scale(0.015625)"/>
       <path id="DejaVuSans-61" d="M 2194 1759 
Q 1497 1759 1228 1600 
Q 959 1441 959 1056 
Q 959 750 1161 570 
Q 1363 391 1709 391 
Q 2188 391 2477 730 
Q 2766 1069 2766 1631 
L 2766 1759 
L 2194 1759 
z
M 3341 1997 
L 3341 0 
L 2766 0 
L 2766 531 
Q 2569 213 2275 61 
Q 1981 -91 1556 -91 
Q 1019 -91 701 211 
Q 384 513 384 1019 
Q 384 1609 779 1909 
Q 1175 2209 1959 2209 
L 2766 2209 
L 2766 2266 
Q 2766 2663 2505 2880 
Q 2244 3097 1772 3097 
Q 1472 3097 1187 3025 
Q 903 2953 641 2809 
L 641 3341 
Q 956 3463 1253 3523 
Q 1550 3584 1831 3584 
Q 2591 3584 2966 3190 
Q 3341 2797 3341 1997 
z
" transform="scale(0.015625)"/>
       <path id="DejaVuSans-72" d="M 2631 2963 
Q 2534 3019 2420 3045 
Q 2306 3072 2169 3072 
Q 1681 3072 1420 2755 
Q 1159 2438 1159 1844 
L 1159 0 
L 581 0 
L 581 3500 
L 1159 3500 
L 1159 2956 
Q 1341 3275 1631 3429 
Q 1922 3584 2338 3584 
Q 2397 3584 2469 3576 
Q 2541 3569 2628 3553 
L 2631 2963 
z
" transform="scale(0.015625)"/>
       <path id="DejaVuSans-73" d="M 2834 3397 
L 2834 2853 
Q 2591 2978 2328 3040 
Q 2066 3103 1784 3103 
Q 1356 3103 1142 2972 
Q 928 2841 928 2578 
Q 928 2378 1081 2264 
Q 1234 2150 1697 2047 
L 1894 2003 
Q 2506 1872 2764 1633 
Q 3022 1394 3022 966 
Q 3022 478 2636 193 
Q 2250 -91 1575 -91 
Q 1294 -91 989 -36 
Q 684 19 347 128 
L 347 722 
Q 666 556 975 473 
Q 1284 391 1588 391 
Q 1994 391 2212 530 
Q 2431 669 2431 922 
Q 2431 1156 2273 1281 
Q 2116 1406 1581 1522 
L 1381 1569 
Q 847 1681 609 1914 
Q 372 2147 372 2553 
Q 372 3047 722 3315 
Q 1072 3584 1716 3584 
Q 2034 3584 2315 3537 
Q 2597 3491 2834 3397 
z
" transform="scale(0.015625)"/>
      </defs>
      <use xlink:href="#DejaVuSans-59"/>
      <use xlink:href="#DejaVuSans-65" x="47.833984"/>
      <use xlink:href="#DejaVuSans-61" x="109.357422"/>
      <use xlink:href="#DejaVuSans-72" x="170.636719"/>
      <use xlink:href="#DejaVuSans-73" x="211.75"/>
     </g>
    </g>
   </g>
   <g id="matplotlib.axis_2"/>
   <g id="line2d_6">
    <path d="M 440.817788 286.529995 
L 428.867089 285.207391 
L 417.698058 283.736636 
L 407.214687 282.120437 
L 399.26789 280.70332 
L 392.605334 279.298109 
L 386.192906 277.730277 
L 380.012504 275.982646 
L 374.88736 274.319025 
L 369.911513 272.475168 
L 365.076511 270.421777 
L 360.3746 268.175419 
L 355.798648 265.721375 
L 352.076816 263.495858 
L 348.434347 261.091027 
L 344.867926 258.495938 
L 341.374444 255.703002 
L 337.950976 252.708097 
L 334.594771 249.51095 
L 330.652473 245.432359 
L 326.799107 241.112225 
L 323.030748 236.575065 
L 318.736887 231.054496 
L 313.958245 224.534751 
L 307.59853 215.436467 
L 288.807591 188.154226 
L 284.787986 182.885223 
L 281.346784 178.707276 
L 277.973537 174.963029 
L 274.665612 171.644851 
L 271.420529 168.736097 
L 268.235943 166.211702 
L 265.10964 164.040687 
L 262.47475 162.479623 
L 259.879885 161.179692 
L 257.323847 160.120812 
L 254.805492 159.288164 
L 252.323725 158.671573 
L 249.877497 158.265719 
L 247.465805 158.070251 
L 242.742223 157.72776 
L 239.283324 157.301569 
L 237.015698 156.836142 
L 235.148736 156.265983 
L 233.301958 155.465265 
L 231.838777 154.612061 
L 230.02725 153.282813 
L 228.234733 151.738696 
L 226.46083 149.904208 
L 224.705159 147.726869 
L 222.967348 145.168557 
L 221.247038 142.206071 
L 219.54388 138.831468 
L 217.522255 134.249494 
L 215.524275 129.116788 
L 213.549394 123.410947 
L 211.273856 116.106801 
L 208.709825 107.101805 
L 205.245967 94.04158 
L 198.522099 68.444158 
L 196.141219 60.420106 
L 194.377087 55.162002 
L 192.920767 51.379108 
L 191.476757 48.215829 
L 190.330274 46.176691 
L 189.191434 44.600798 
L 188.342259 43.72222 
L 187.497285 43.11088 
L 186.656469 42.776387 
L 185.819772 42.726711 
L 184.987153 42.968144 
L 184.158573 43.505267 
L 183.333992 44.340921 
L 182.513372 45.476198 
L 181.425309 47.454578 
L 180.344132 49.957814 
L 179.269756 52.974003 
L 177.936218 57.438429 
L 176.349593 63.720065 
L 174.77757 70.848634 
L 172.703793 81.419786 
L 170.146479 95.744514 
L 164.406008 128.355143 
L 162.21122 139.676989 
L 160.283693 148.467625 
L 158.614765 154.995009 
L 157.197119 159.692062 
L 155.791141 163.578726 
L 154.860211 165.614093 
L 153.934326 167.184461 
L 153.013432 168.319953 
L 152.097477 169.050671 
L 151.413719 169.351014 
L 150.732686 169.452803 
L 150.054359 169.368145 
L 149.154091 168.985571 
L 148.258544 168.319337 
L 147.367666 167.394872 
L 146.260564 165.92586 
L 144.722576 163.501965 
L 142.549197 159.612864 
L 138.705464 152.632212 
L 137.233729 150.395757 
L 135.982256 148.833597 
L 134.94632 147.840316 
L 133.916628 147.176337 
L 133.097321 146.908295 
L 132.281924 146.891872 
L 131.470401 147.139939 
L 130.662714 147.661964 
L 129.858829 148.463925 
L 129.058709 149.548249 
L 128.0638 151.283351 
L 127.074652 153.447773 
L 125.895186 156.595866 
L 124.529357 160.96715 
L 122.981665 166.760375 
L 121.066563 174.921075 
L 118.608602 186.458819 
L 113.613894 210.17856 
L 111.800445 217.681627 
L 110.184639 223.435043 
L 108.761086 227.631171 
L 107.525135 230.559771 
L 106.47282 232.514056 
L 105.426947 233.965697 
L 104.560251 234.80462 
L 103.697931 235.328032 
L 102.839942 235.565617 
L 101.98624 235.546196 
L 101.136784 235.303374 
L 100.12298 234.770718 
L 98.780535 233.771424 
L 96.456345 231.695094 
L 94.00074 229.507908 
L 92.544143 228.527521 
L 91.259736 227.955493 
L 90.143748 227.69267 
L 89.035003 227.681548 
L 87.776615 227.933841 
L 86.061331 228.560038 
L 83.749721 229.394883 
L 82.225846 229.668647 
L 81.167164 229.643671 
L 80.264915 229.427424 
L 79.367407 229.006653 
L 78.326239 228.244692 
L 77.291379 227.19798 
L 76.116308 225.656752 
L 74.803943 223.534956 
L 72.925929 220.02333 
L 69.935163 214.40864 
L 68.529185 212.205586 
L 67.412676 210.845029 
L 66.441681 210.012834 
L 65.613769 209.591619 
L 64.926895 209.459415 
L 64.242772 209.542841 
L 63.561378 209.842139 
L 62.747276 210.478623 
L 61.937036 211.403975 
L 60.996588 212.82231 
L 59.928091 214.841049 
L 58.601801 217.867455 
L 57.023726 222.12679 
L 54.942051 228.496235 
L 50.474941 242.500783 
L 48.969862 246.437325 
L 47.60176 249.405782 
L 46.490496 251.344472 
L 45.508739 252.639289 
L 44.654305 253.426547 
L 43.804124 253.895283 
L 43.07875 254.054601 
L 42.356443 253.9915 
L 41.517594 253.66553 
L 40.563926 253.015718 
L 39.379279 251.898866 
L 37.150836 249.383822 
L 35.642691 247.851625 
L 34.606336 247.092255 
L 33.804607 246.742654 
L 33.006622 246.646492 
L 32.32559 246.791229 
L 31.647262 247.153572 
L 30.859269 247.8624 
L 30.074894 248.88326 
L 29.182854 250.42471 
L 28.184845 252.604948 
L 26.972923 255.796103 
L 25.334036 260.783288 
L 21.676427 272.099048 
L 20.192823 275.933427 
L 18.826633 278.849897 
L 17.783103 280.605163 
L 16.745909 281.938711 
L 16.435975 282.269855 
L 16.435975 282.269855 
" style="fill: none; stroke: #1a1a1a; stroke-width: 1.5; stroke-linecap: round"/>
   </g>
   <g id="line2d_7">
    <path d="M 440.825062 292.121325 
L 431.198553 291.427942 
L 423.198581 290.652044 
L 415.556557 289.679527 
L 409.267798 288.653753 
L 403.202356 287.413817 
L 398.307313 286.182351 
L 394.489828 285.0226 
L 390.755792 283.687865 
L 387.101635 282.161349 
L 383.524011 280.424355 
L 380.019778 278.456465 
L 376.585988 276.235723 
L 373.219863 273.738851 
L 369.918787 270.941461 
L 366.680295 267.81829 
L 363.502058 264.343433 
L 360.381874 260.526359 
L 357.31766 256.417628 
L 354.307444 252.000276 
L 351.349356 247.261485 
L 348.441621 242.194939 
L 345.582553 236.800886 
L 342.770549 231.086135 
L 339.319415 223.512591 
L 335.936625 215.499147 
L 332.619524 207.100694 
L 328.722199 196.599642 
L 324.284928 183.914158 
L 318.744161 167.320229 
L 308.744644 137.209219 
L 304.791485 126.125524 
L 301.474384 117.47636 
L 298.758503 110.960628 
L 296.085125 105.166338 
L 293.976144 101.097419 
L 291.892882 97.562126 
L 289.834721 94.58023 
L 288.307211 92.714526 
L 286.79324 91.169259 
L 285.292568 89.944148 
L 283.804965 89.036423 
L 282.330205 88.442619 
L 280.868068 88.178874 
L 279.418339 88.243248 
L 277.980811 88.624997 
L 276.555278 89.312078 
L 275.141543 90.291222 
L 273.739412 91.547997 
L 272.348696 93.066888 
L 270.511847 95.47113 
L 268.694539 98.270246 
L 266.896361 101.420101 
L 264.674934 105.780077 
L 262.0468 111.509936 
L 259.03089 118.698406 
L 254.812766 129.425862 
L 248.273199 146.10351 
L 245.094962 153.559356 
L 242.749497 158.508086 
L 240.819247 162.057195 
L 239.290598 164.488462 
L 237.775508 166.534465 
L 236.273737 168.175256 
L 235.15601 169.128514 
L 234.045549 169.835647 
L 232.94226 170.28955 
L 231.846051 170.483576 
L 230.756831 170.411582 
L 229.674513 170.067953 
L 228.599009 169.447636 
L 227.530234 168.552064 
L 226.468104 167.412011 
L 225.062126 165.507347 
L 223.667626 163.162568 
L 222.284417 160.382667 
L 220.912319 157.178597 
L 219.21255 152.603164 
L 217.529529 147.436913 
L 215.531549 140.540781 
L 213.229729 131.693548 
L 210.636505 120.718259 
L 207.133906 104.729321 
L 200.640216 74.814804 
L 198.229942 64.838786 
L 196.444295 58.316015 
L 194.970383 53.618457 
L 193.50908 49.671691 
L 192.348971 47.102724 
L 191.196688 45.094054 
L 190.337548 43.974586 
L 189.482707 43.200905 
L 188.632123 42.784708 
L 188.06741 42.7112 
L 187.504559 42.804322 
L 186.663743 43.242627 
L 185.827046 44.023272 
L 184.994427 45.15136 
L 184.165847 46.629545 
L 183.067288 49.144853 
L 181.975748 52.275616 
L 180.891139 56.007016 
L 179.544991 61.480638 
L 178.209368 67.795756 
L 176.620284 76.372595 
L 174.784844 87.554094 
L 172.711066 101.613132 
L 169.646853 124.202452 
L 164.413282 163.027369 
L 161.97636 179.281972 
L 160.051548 190.737585 
L 158.384946 199.449409 
L 156.734447 206.894316 
L 155.332316 212.305966 
L 153.9416 216.896941 
L 152.791257 219.993988 
L 151.648608 222.445003 
L 150.513552 224.328465 
L 149.385988 225.720317 
L 148.265818 226.69285 
L 147.152945 227.313639 
L 146.047276 227.644555 
L 144.948717 227.740849 
L 143.422507 227.602589 
L 141.265593 227.14841 
L 136.822826 226.148548 
L 134.540972 225.878885 
L 132.90038 225.943542 
L 131.275395 226.236874 
L 129.465574 226.792903 
L 127.476898 227.63715 
L 125.315767 228.793246 
L 122.988939 230.304728 
L 120.883502 231.927052 
L 118.803699 233.822732 
L 116.748914 236.017888 
L 114.535164 238.697912 
L 112.349735 241.699452 
L 109.834911 245.548756 
L 107.356572 249.771834 
L 104.222075 255.597097 
L 96.793716 269.680445 
L 94.822633 272.837419 
L 92.874034 275.573351 
L 91.26701 277.471926 
L 89.833503 278.853918 
L 88.411924 279.937569 
L 87.314374 280.544082 
L 86.22383 280.918096 
L 85.140204 281.075939 
L 84.063408 281.027465 
L 82.993358 280.775767 
L 81.929969 280.317093 
L 80.422233 279.364764 
L 78.927689 278.157 
L 77.151326 276.404477 
L 74.666019 273.586078 
L 70.933552 269.313026 
L 69.378656 267.897742 
L 67.977292 266.936932 
L 66.725819 266.343107 
L 65.483447 266.000391 
L 64.11355 265.868839 
L 62.484043 265.942503 
L 60.602392 266.289383 
L 57.293002 266.910361 
L 55.597128 266.999897 
L 53.404549 266.863152 
L 50.608239 266.693673 
L 49.227064 266.809228 
L 47.981067 267.144079 
L 46.867389 267.689929 
L 45.760924 268.50149 
L 44.661579 269.581424 
L 43.448326 271.092003 
L 42.003706 273.290942 
L 40.214942 276.470003 
L 35.881122 284.416369 
L 34.498847 286.394561 
L 33.355433 287.691486 
L 32.219622 288.640772 
L 31.20381 289.216109 
L 30.194002 289.543002 
L 29.190128 289.618139 
L 28.081589 289.480716 
L 26.651159 289.075558 
L 19.883851 286.820405 
L 17.790377 286.500647 
L 16.443249 286.411493 
L 16.443249 286.411493 
" style="fill: none; stroke: #4c72b0; stroke-width: 1.5; stroke-linecap: round"/>
   </g>
   <g id="patch_3">
    <path d="M 16.425 295.38 
L 16.425 42.7112 
" style="fill: none; stroke: #ffffff; stroke-width: 1.25; stroke-linejoin: miter; stroke-linecap: square"/>
   </g>
   <g id="patch_4">
    <path d="M 440.91 295.38 
L 440.91 42.7112 
" style="fill: none; stroke: #ffffff; stroke-width: 1.25; stroke-linejoin: miter; stroke-linecap: square"/>
   </g>
   <g id="patch_5">
    <path d="M 16.425 295.38 
L 440.91 295.38 
" style="fill: none; stroke: #ffffff; stroke-width: 1.25; stroke-linejoin: miter; stroke-linecap: square"/>
   </g>
   <g id="patch_6">
    <path d="M 16.425 42.7112 
L 440.91 42.7112 
" style="fill: none; stroke: #ffffff; stroke-width: 1.25; stroke-linejoin: miter; stroke-linecap: square"/>
   </g>
   <g id="legend_1">
    <g id="line2d_8">
     <path d="M 26.325 31.852601 
L 37.325 31.852601 
L 48.325 31.852601 
" style="fill: none; stroke: #1a1a1a; stroke-width: 1.5; stroke-linecap: round"/>
    </g>
    <g id="text_7">
     <!-- GDP -->
     <g style="fill: #262626" transform="translate(57.125 35.702601) scale(0.11 -0.11)">
      <defs>
       <path id="DejaVuSans-47" d="M 3809 666 
L 3809 1919 
L 2778 1919 
L 2778 2438 
L 4434 2438 
L 4434 434 
Q 4069 175 3628 42 
Q 3188 -91 2688 -91 
Q 1594 -91 976 548 
Q 359 1188 359 2328 
Q 359 3472 976 4111 
Q 1594 4750 2688 4750 
Q 3144 4750 3555 4637 
Q 3966 4525 4313 4306 
L 4313 3634 
Q 3963 3931 3569 4081 
Q 3175 4231 2741 4231 
Q 1884 4231 1454 3753 
Q 1025 3275 1025 2328 
Q 1025 1384 1454 906 
Q 1884 428 2741 428 
Q 3075 428 3337 486 
Q 3600 544 3809 666 
z
" transform="scale(0.015625)"/>
       <path id="DejaVuSans-44" d="M 1259 4147 
L 1259 519 
L 2022 519 
Q 2988 519 3436 956 
Q 3884 1394 3884 2338 
Q 3884 3275 3436 3711 
Q 2988 4147 2022 4147 
L 1259 4147 
z
M 628 4666 
L 1925 4666 
Q 3281 4666 3915 4102 
Q 4550 3538 4550 2338 
Q 4550 1131 3912 565 
Q 3275 0 1925 0 
L 628 0 
L 628 4666 
z
" transform="scale(0.015625)"/>
       <path id="DejaVuSans-50" d="M 1259 4147 
L 1259 2394 
L 2053 2394 
Q 2494 2394 2734 2622 
Q 2975 2850 2975 3272 
Q 2975 3691 2734 3919 
Q 2494 4147 2053 4147 
L 1259 4147 
z
M 628 4666 
L 2053 4666 
Q 2838 4666 3239 4311 
Q 3641 3956 3641 3272 
Q 3641 2581 3239 2228 
Q 2838 1875 2053 1875 
L 1259 1875 
L 1259 0 
L 628 0 
L 628 4666 
z
" transform="scale(0.015625)"/>
      </defs>
      <use xlink:href="#DejaVuSans-47"/>
      <use xlink:href="#DejaVuSans-44" x="77.490234"/>
      <use xlink:href="#DejaVuSans-50" x="154.492188"/>
     </g>
    </g>
    <g id="line2d_9">
     <path d="M 102.750937 31.852601 
L 113.750937 31.852601 
L 124.750937 31.852601 
" style="fill: none; stroke: #4c72b0; stroke-width: 1.5; stroke-linecap: round"/>
    </g>
    <g id="text_8">
     <!-- Unemployment -->
     <g style="fill: #262626" transform="translate(133.550938 35.702601) scale(0.11 -0.11)">
      <defs>
       <path id="DejaVuSans-55" d="M 556 4666 
L 1191 4666 
L 1191 1831 
Q 1191 1081 1462 751 
Q 1734 422 2344 422 
Q 2950 422 3222 751 
Q 3494 1081 3494 1831 
L 3494 4666 
L 4128 4666 
L 4128 1753 
Q 4128 841 3676 375 
Q 3225 -91 2344 -91 
Q 1459 -91 1007 375 
Q 556 841 556 1753 
L 556 4666 
z
" transform="scale(0.015625)"/>
       <path id="DejaVuSans-6e" d="M 3513 2113 
L 3513 0 
L 2938 0 
L 2938 2094 
Q 2938 2591 2744 2837 
Q 2550 3084 2163 3084 
Q 1697 3084 1428 2787 
Q 1159 2491 1159 1978 
L 1159 0 
L 581 0 
L 581 3500 
L 1159 3500 
L 1159 2956 
Q 1366 3272 1645 3428 
Q 1925 3584 2291 3584 
Q 2894 3584 3203 3211 
Q 3513 2838 3513 2113 
z
" transform="scale(0.015625)"/>
       <path id="DejaVuSans-6d" d="M 3328 2828 
Q 3544 3216 3844 3400 
Q 4144 3584 4550 3584 
Q 5097 3584 5394 3201 
Q 5691 2819 5691 2113 
L 5691 0 
L 5113 0 
L 5113 2094 
Q 5113 2597 4934 2840 
Q 4756 3084 4391 3084 
Q 3944 3084 3684 2787 
Q 3425 2491 3425 1978 
L 3425 0 
L 2847 0 
L 2847 2094 
Q 2847 2600 2669 2842 
Q 2491 3084 2119 3084 
Q 1678 3084 1418 2786 
Q 1159 2488 1159 1978 
L 1159 0 
L 581 0 
L 581 3500 
L 1159 3500 
L 1159 2956 
Q 1356 3278 1631 3431 
Q 1906 3584 2284 3584 
Q 2666 3584 2933 3390 
Q 3200 3197 3328 2828 
z
" transform="scale(0.015625)"/>
       <path id="DejaVuSans-70" d="M 1159 525 
L 1159 -1331 
L 581 -1331 
L 581 3500 
L 1159 3500 
L 1159 2969 
Q 1341 3281 1617 3432 
Q 1894 3584 2278 3584 
Q 2916 3584 3314 3078 
Q 3713 2572 3713 1747 
Q 3713 922 3314 415 
Q 2916 -91 2278 -91 
Q 1894 -91 1617 61 
Q 1341 213 1159 525 
z
M 3116 1747 
Q 3116 2381 2855 2742 
Q 2594 3103 2138 3103 
Q 1681 3103 1420 2742 
Q 1159 2381 1159 1747 
Q 1159 1113 1420 752 
Q 1681 391 2138 391 
Q 2594 391 2855 752 
Q 3116 1113 3116 1747 
z
" transform="scale(0.015625)"/>
       <path id="DejaVuSans-6c" d="M 603 4863 
L 1178 4863 
L 1178 0 
L 603 0 
L 603 4863 
z
" transform="scale(0.015625)"/>
       <path id="DejaVuSans-6f" d="M 1959 3097 
Q 1497 3097 1228 2736 
Q 959 2375 959 1747 
Q 959 1119 1226 758 
Q 1494 397 1959 397 
Q 2419 397 2687 759 
Q 2956 1122 2956 1747 
Q 2956 2369 2687 2733 
Q 2419 3097 1959 3097 
z
M 1959 3584 
Q 2709 3584 3137 3096 
Q 3566 2609 3566 1747 
Q 3566 888 3137 398 
Q 2709 -91 1959 -91 
Q 1206 -91 779 398 
Q 353 888 353 1747 
Q 353 2609 779 3096 
Q 1206 3584 1959 3584 
z
" transform="scale(0.015625)"/>
       <path id="DejaVuSans-79" d="M 2059 -325 
Q 1816 -950 1584 -1140 
Q 1353 -1331 966 -1331 
L 506 -1331 
L 506 -850 
L 844 -850 
Q 1081 -850 1212 -737 
Q 1344 -625 1503 -206 
L 1606 56 
L 191 3500 
L 800 3500 
L 1894 763 
L 2988 3500 
L 3597 3500 
L 2059 -325 
z
" transform="scale(0.015625)"/>
       <path id="DejaVuSans-74" d="M 1172 4494 
L 1172 3500 
L 2356 3500 
L 2356 3053 
L 1172 3053 
L 1172 1153 
Q 1172 725 1289 603 
Q 1406 481 1766 481 
L 2356 481 
L 2356 0 
L 1766 0 
Q 1100 0 847 248 
Q 594 497 594 1153 
L 594 3053 
L 172 3053 
L 172 3500 
L 594 3500 
L 594 4494 
L 1172 4494 
z
" transform="scale(0.015625)"/>
      </defs>
      <use xlink:href="#DejaVuSans-55"/>
      <use xlink:href="#DejaVuSans-6e" x="73.193359"/>
      <use xlink:href="#DejaVuSans-65" x="136.572266"/>
      <use xlink:href="#DejaVuSans-6d" x="198.095703"/>
      <use xlink:href="#DejaVuSans-70" x="295.507812"/>
      <use xlink:href="#DejaVuSans-6c" x="358.984375"/>
      <use xlink:href="#DejaVuSans-6f" x="386.767578"/>
      <use xlink:href="#DejaVuSans-79" x="447.949219"/>
      <use xlink:href="#DejaVuSans-6d" x="507.128906"/>
      <use xlink:href="#DejaVuSans-65" x="604.541016"/>
      <use xlink:href="#DejaVuSans-6e" x="666.064453"/>
      <use xlink:href="#DejaVuSans-74" x="729.443359"/>
     </g>
    </g>
   </g>
  </g>
 </g>
 <defs>
  <clipPath id="pfb56eb3118">
   <rect x="16.425" y="42.7112" width="424.485" height="252.6688"/>
  </clipPath>
 </defs>
</svg>
