<?xml version="1.0" encoding="utf-8" standalone="no"?>
<!DOCTYPE svg PUBLIC "-//W3C//DTD SVG 1.1//EN"
  "http://www.w3.org/Graphics/SVG/1.1/DTD/svg11.dtd">
<svg xmlns:xlink="http://www.w3.org/1999/xlink" width="460.8pt" height="345.6pt" viewBox="0 0 460.8 345.6" xmlns="http://www.w3.org/2000/svg" version="1.1">
 <metadata>
  <rdf:RDF xmlns:dc="http://purl.org/dc/elements/1.1/" xmlns:cc="http://creativecommons.org/ns#" xmlns:rdf="http://www.w3.org/1999/02/22-rdf-syntax-ns#">
   <cc:Work>
    <dc:type rdf:resource="http://purl.org/dc/dcmitype/StillImage"/>
    <dc:date>2024-05-05T17:06:25.439118</dc:date>
    <dc:format>image/svg+xml</dc:format>
    <dc:creator>
     <cc:Agent>
      <dc:title>Matplotlib v3.8.3, https://matplotlib.org/</dc:title>
     </cc:Agent>
    </dc:creator>
   </cc:Work>
  </rdf:RDF>
 </metadata>
 <defs>
  <style type="text/css">*{stroke-linejoin: round; stroke-linecap: butt}</style>
 </defs>
 <g id="figure_1">
  <g id="patch_1">
   <path d="M 0 345.6 
L 460.8 345.6 
L 460.8 0 
L 0 0 
L 0 345.6 
z
" style="fill: none"/>
  </g>
  <g id="axes_1">
   <g id="patch_2">
    <path d="M 57.6 307.584 
L 414.72 307.584 
L 414.72 41.472 
L 57.6 41.472 
L 57.6 307.584 
z
" style="fill: none"/>
   </g>
   <g id="matplotlib.axis_1">
    <g id="xtick_1">
     <g id="line2d_1">
      <defs>
       <path id="m78f0b088a1" d="M 0 0 
L 0 3.5 
" style="stroke: #000000; stroke-width: 0.8"/>
      </defs>
      <g>
       <use xlink:href="#m78f0b088a1" x="57.6" y="307.584" style="stroke: #000000; stroke-width: 0.8"/>
      </g>
     </g>
     <g id="text_1">
      <!-- 4 -->
      <g transform="translate(54.41875 322.182437) scale(0.1 -0.1)">
       <defs>
        <path id="DejaVuSans-34" d="M 2419 4116 
L 825 1625 
L 2419 1625 
L 2419 4116 
z
M 2253 4666 
L 3047 4666 
L 3047 1625 
L 3713 1625 
L 3713 1100 
L 3047 1100 
L 3047 0 
L 2419 0 
L 2419 1100 
L 313 1100 
L 313 1709 
L 2253 4666 
z
" transform="scale(0.015625)"/>
       </defs>
       <use xlink:href="#DejaVuSans-34"/>
      </g>
     </g>
    </g>
    <g id="xtick_2">
     <g id="line2d_2">
      <g>
       <use xlink:href="#m78f0b088a1" x="111.070094" y="307.584" style="stroke: #000000; stroke-width: 0.8"/>
      </g>
     </g>
     <g id="text_2">
      <!-- 6 -->
      <g transform="translate(107.888844 322.182437) scale(0.1 -0.1)">
       <defs>
        <path id="DejaVuSans-36" d="M 2113 2584 
Q 1688 2584 1439 2293 
Q 1191 2003 1191 1497 
Q 1191 994 1439 701 
Q 1688 409 2113 409 
Q 2538 409 2786 701 
Q 3034 994 3034 1497 
Q 3034 2003 2786 2293 
Q 2538 2584 2113 2584 
z
M 3366 4563 
L 3366 3988 
Q 3128 4100 2886 4159 
Q 2644 4219 2406 4219 
Q 1781 4219 1451 3797 
Q 1122 3375 1075 2522 
Q 1259 2794 1537 2939 
Q 1816 3084 2150 3084 
Q 2853 3084 3261 2657 
Q 3669 2231 3669 1497 
Q 3669 778 3244 343 
Q 2819 -91 2113 -91 
Q 1303 -91 875 529 
Q 447 1150 447 2328 
Q 447 3434 972 4092 
Q 1497 4750 2381 4750 
Q 2619 4750 2861 4703 
Q 3103 4656 3366 4563 
z
" transform="scale(0.015625)"/>
       </defs>
       <use xlink:href="#DejaVuSans-36"/>
      </g>
     </g>
    </g>
    <g id="xtick_3">
     <g id="line2d_3">
      <g>
       <use xlink:href="#m78f0b088a1" x="202.477824" y="307.584" style="stroke: #000000; stroke-width: 0.8"/>
      </g>
     </g>
     <g id="text_3">
      <!-- 12 -->
      <g transform="translate(196.115324 322.182437) scale(0.1 -0.1)">
       <defs>
        <path id="DejaVuSans-31" d="M 794 531 
L 1825 531 
L 1825 4091 
L 703 3866 
L 703 4441 
L 1819 4666 
L 2450 4666 
L 2450 531 
L 3481 531 
L 3481 0 
L 794 0 
L 794 531 
z
" transform="scale(0.015625)"/>
        <path id="DejaVuSans-32" d="M 1228 531 
L 3431 531 
L 3431 0 
L 469 0 
L 469 531 
Q 828 903 1448 1529 
Q 2069 2156 2228 2338 
Q 2531 2678 2651 2914 
Q 2772 3150 2772 3378 
Q 2772 3750 2511 3984 
Q 2250 4219 1831 4219 
Q 1534 4219 1204 4116 
Q 875 4013 500 3803 
L 500 4441 
Q 881 4594 1212 4672 
Q 1544 4750 1819 4750 
Q 2544 4750 2975 4387 
Q 3406 4025 3406 3419 
Q 3406 3131 3298 2873 
Q 3191 2616 2906 2266 
Q 2828 2175 2409 1742 
Q 1991 1309 1228 531 
z
" transform="scale(0.015625)"/>
       </defs>
       <use xlink:href="#DejaVuSans-31"/>
       <use xlink:href="#DejaVuSans-32" x="63.623047"/>
      </g>
     </g>
    </g>
    <g id="xtick_4">
     <g id="line2d_4">
      <g>
       <use xlink:href="#m78f0b088a1" x="293.885554" y="307.584" style="stroke: #000000; stroke-width: 0.8"/>
      </g>
     </g>
     <g id="text_4">
      <!-- 24 -->
      <g transform="translate(287.523054 322.182437) scale(0.1 -0.1)">
       <use xlink:href="#DejaVuSans-32"/>
       <use xlink:href="#DejaVuSans-34" x="63.623047"/>
      </g>
     </g>
    </g>
    <g id="xtick_5">
     <g id="line2d_5">
      <g>
       <use xlink:href="#m78f0b088a1" x="331.823189" y="307.584" style="stroke: #000000; stroke-width: 0.8"/>
      </g>
     </g>
     <g id="text_5">
      <!-- 32 -->
      <g transform="translate(325.460689 322.182437) scale(0.1 -0.1)">
       <defs>
        <path id="DejaVuSans-33" d="M 2597 2516 
Q 3050 2419 3304 2112 
Q 3559 1806 3559 1356 
Q 3559 666 3084 287 
Q 2609 -91 1734 -91 
Q 1441 -91 1130 -33 
Q 819 25 488 141 
L 488 750 
Q 750 597 1062 519 
Q 1375 441 1716 441 
Q 2309 441 2620 675 
Q 2931 909 2931 1356 
Q 2931 1769 2642 2001 
Q 2353 2234 1838 2234 
L 1294 2234 
L 1294 2753 
L 1863 2753 
Q 2328 2753 2575 2939 
Q 2822 3125 2822 3475 
Q 2822 3834 2567 4026 
Q 2313 4219 1838 4219 
Q 1578 4219 1281 4162 
Q 984 4106 628 3988 
L 628 4550 
Q 988 4650 1302 4700 
Q 1616 4750 1894 4750 
Q 2613 4750 3031 4423 
Q 3450 4097 3450 3541 
Q 3450 3153 3228 2886 
Q 3006 2619 2597 2516 
z
" transform="scale(0.015625)"/>
       </defs>
       <use xlink:href="#DejaVuSans-33"/>
       <use xlink:href="#DejaVuSans-32" x="63.623047"/>
      </g>
     </g>
    </g>
    <g id="xtick_6">
     <g id="line2d_6">
      <g>
       <use xlink:href="#m78f0b088a1" x="361.249906" y="307.584" style="stroke: #000000; stroke-width: 0.8"/>
      </g>
     </g>
     <g id="text_6">
      <!-- 40 -->
      <g transform="translate(354.887406 322.182437) scale(0.1 -0.1)">
       <defs>
        <path id="DejaVuSans-30" d="M 2034 4250 
Q 1547 4250 1301 3770 
Q 1056 3291 1056 2328 
Q 1056 1369 1301 889 
Q 1547 409 2034 409 
Q 2525 409 2770 889 
Q 3016 1369 3016 2328 
Q 3016 3291 2770 3770 
Q 2525 4250 2034 4250 
z
M 2034 4750 
Q 2819 4750 3233 4129 
Q 3647 3509 3647 2328 
Q 3647 1150 3233 529 
Q 2819 -91 2034 -91 
Q 1250 -91 836 529 
Q 422 1150 422 2328 
Q 422 3509 836 4129 
Q 1250 4750 2034 4750 
z
" transform="scale(0.015625)"/>
       </defs>
       <use xlink:href="#DejaVuSans-34"/>
       <use xlink:href="#DejaVuSans-30" x="63.623047"/>
      </g>
     </g>
    </g>
    <g id="xtick_7">
     <g id="line2d_7">
      <g>
       <use xlink:href="#m78f0b088a1" x="390.676622" y="307.584" style="stroke: #000000; stroke-width: 0.8"/>
      </g>
     </g>
     <g id="text_7">
      <!-- 50 -->
      <g transform="translate(384.314122 322.182437) scale(0.1 -0.1)">
       <defs>
        <path id="DejaVuSans-35" d="M 691 4666 
L 3169 4666 
L 3169 4134 
L 1269 4134 
L 1269 2991 
Q 1406 3038 1543 3061 
Q 1681 3084 1819 3084 
Q 2600 3084 3056 2656 
Q 3513 2228 3513 1497 
Q 3513 744 3044 326 
Q 2575 -91 1722 -91 
Q 1428 -91 1123 -41 
Q 819 9 494 109 
L 494 744 
Q 775 591 1075 516 
Q 1375 441 1709 441 
Q 2250 441 2565 725 
Q 2881 1009 2881 1497 
Q 2881 1984 2565 2268 
Q 2250 2553 1709 2553 
Q 1456 2553 1204 2497 
Q 953 2441 691 2322 
L 691 4666 
z
" transform="scale(0.015625)"/>
       </defs>
       <use xlink:href="#DejaVuSans-35"/>
       <use xlink:href="#DejaVuSans-30" x="63.623047"/>
      </g>
     </g>
    </g>
    <g id="xtick_8">
     <g id="line2d_8">
      <g>
       <use xlink:href="#m78f0b088a1" x="414.72" y="307.584" style="stroke: #000000; stroke-width: 0.8"/>
      </g>
     </g>
     <g id="text_8">
      <!-- 60 -->
      <g transform="translate(408.3575 322.182437) scale(0.1 -0.1)">
       <use xlink:href="#DejaVuSans-36"/>
       <use xlink:href="#DejaVuSans-30" x="63.623047"/>
      </g>
     </g>
    </g>
    <g id="xtick_9">
     <g id="line2d_9">
      <defs>
       <path id="m6f309b1e96" d="M 0 0 
L 0 2 
" style="stroke: #000000; stroke-width: 0.6"/>
      </defs>
      <g>
       <use xlink:href="#m6f309b1e96" x="87.026716" y="307.584" style="stroke: #000000; stroke-width: 0.6"/>
      </g>
     </g>
    </g>
    <g id="xtick_10">
     <g id="line2d_10">
      <g>
       <use xlink:href="#m6f309b1e96" x="140.496811" y="307.584" style="stroke: #000000; stroke-width: 0.6"/>
      </g>
     </g>
    </g>
    <g id="xtick_11">
     <g id="line2d_11">
      <g>
       <use xlink:href="#m6f309b1e96" x="178.434446" y="307.584" style="stroke: #000000; stroke-width: 0.6"/>
      </g>
     </g>
    </g>
    <g id="xtick_12">
     <g id="line2d_12">
      <g>
       <use xlink:href="#m6f309b1e96" x="207.861162" y="307.584" style="stroke: #000000; stroke-width: 0.6"/>
      </g>
     </g>
    </g>
    <g id="xtick_13">
     <g id="line2d_13">
      <g>
       <use xlink:href="#m6f309b1e96" x="231.90454" y="307.584" style="stroke: #000000; stroke-width: 0.6"/>
      </g>
     </g>
    </g>
    <g id="xtick_14">
     <g id="line2d_14">
      <g>
       <use xlink:href="#m6f309b1e96" x="252.232927" y="307.584" style="stroke: #000000; stroke-width: 0.6"/>
      </g>
     </g>
    </g>
    <g id="xtick_15">
     <g id="line2d_15">
      <g>
       <use xlink:href="#m6f309b1e96" x="269.842176" y="307.584" style="stroke: #000000; stroke-width: 0.6"/>
      </g>
     </g>
    </g>
    <g id="xtick_16">
     <g id="line2d_16">
      <g>
       <use xlink:href="#m6f309b1e96" x="285.374635" y="307.584" style="stroke: #000000; stroke-width: 0.6"/>
      </g>
     </g>
    </g>
   </g>
   <g id="matplotlib.axis_2">
    <g id="ytick_1">
     <g id="line2d_17">
      <defs>
       <path id="m60cf58f07c" d="M 0 0 
L -3.5 0 
" style="stroke: #000000; stroke-width: 0.8"/>
      </defs>
      <g>
       <use xlink:href="#m60cf58f07c" x="57.6" y="307.584" style="stroke: #000000; stroke-width: 0.8"/>
      </g>
     </g>
     <g id="text_9">
      <!-- 0 -->
      <g transform="translate(44.2375 311.383219) scale(0.1 -0.1)">
       <use xlink:href="#DejaVuSans-30"/>
      </g>
     </g>
    </g>
    <g id="ytick_2">
     <g id="line2d_18">
      <g>
       <use xlink:href="#m60cf58f07c" x="57.6" y="274.416467" style="stroke: #000000; stroke-width: 0.8"/>
      </g>
     </g>
     <g id="text_10">
      <!-- 25 -->
      <g transform="translate(37.875 278.215686) scale(0.1 -0.1)">
       <use xlink:href="#DejaVuSans-32"/>
       <use xlink:href="#DejaVuSans-35" x="63.623047"/>
      </g>
     </g>
    </g>
    <g id="ytick_3">
     <g id="line2d_19">
      <g>
       <use xlink:href="#m60cf58f07c" x="57.6" y="241.248934" style="stroke: #000000; stroke-width: 0.8"/>
      </g>
     </g>
     <g id="text_11">
      <!-- 50 -->
      <g transform="translate(37.875 245.048153) scale(0.1 -0.1)">
       <use xlink:href="#DejaVuSans-35"/>
       <use xlink:href="#DejaVuSans-30" x="63.623047"/>
      </g>
     </g>
    </g>
    <g id="ytick_4">
     <g id="line2d_20">
      <g>
       <use xlink:href="#m60cf58f07c" x="57.6" y="208.081401" style="stroke: #000000; stroke-width: 0.8"/>
      </g>
     </g>
     <g id="text_12">
      <!-- 75 -->
      <g transform="translate(37.875 211.88062) scale(0.1 -0.1)">
       <defs>
        <path id="DejaVuSans-37" d="M 525 4666 
L 3525 4666 
L 3525 4397 
L 1831 0 
L 1172 0 
L 2766 4134 
L 525 4134 
L 525 4666 
z
" transform="scale(0.015625)"/>
       </defs>
       <use xlink:href="#DejaVuSans-37"/>
       <use xlink:href="#DejaVuSans-35" x="63.623047"/>
      </g>
     </g>
    </g>
    <g id="ytick_5">
     <g id="line2d_21">
      <g>
       <use xlink:href="#m60cf58f07c" x="57.6" y="174.913868" style="stroke: #000000; stroke-width: 0.8"/>
      </g>
     </g>
     <g id="text_13">
      <!-- 100 -->
      <g transform="translate(31.5125 178.713087) scale(0.1 -0.1)">
       <use xlink:href="#DejaVuSans-31"/>
       <use xlink:href="#DejaVuSans-30" x="63.623047"/>
       <use xlink:href="#DejaVuSans-30" x="127.246094"/>
      </g>
     </g>
    </g>
    <g id="ytick_6">
     <g id="line2d_22">
      <g>
       <use xlink:href="#m60cf58f07c" x="57.6" y="141.746335" style="stroke: #000000; stroke-width: 0.8"/>
      </g>
     </g>
     <g id="text_14">
      <!-- 125 -->
      <g transform="translate(31.5125 145.545554) scale(0.1 -0.1)">
       <use xlink:href="#DejaVuSans-31"/>
       <use xlink:href="#DejaVuSans-32" x="63.623047"/>
       <use xlink:href="#DejaVuSans-35" x="127.246094"/>
      </g>
     </g>
    </g>
    <g id="ytick_7">
     <g id="line2d_23">
      <g>
       <use xlink:href="#m60cf58f07c" x="57.6" y="108.578802" style="stroke: #000000; stroke-width: 0.8"/>
      </g>
     </g>
     <g id="text_15">
      <!-- 150 -->
      <g transform="translate(31.5125 112.378021) scale(0.1 -0.1)">
       <use xlink:href="#DejaVuSans-31"/>
       <use xlink:href="#DejaVuSans-35" x="63.623047"/>
       <use xlink:href="#DejaVuSans-30" x="127.246094"/>
      </g>
     </g>
    </g>
    <g id="ytick_8">
     <g id="line2d_24">
      <g>
       <use xlink:href="#m60cf58f07c" x="57.6" y="75.411269" style="stroke: #000000; stroke-width: 0.8"/>
      </g>
     </g>
     <g id="text_16">
      <!-- 175 -->
      <g transform="translate(31.5125 79.210488) scale(0.1 -0.1)">
       <use xlink:href="#DejaVuSans-31"/>
       <use xlink:href="#DejaVuSans-37" x="63.623047"/>
       <use xlink:href="#DejaVuSans-35" x="127.246094"/>
      </g>
     </g>
    </g>
    <g id="ytick_9">
     <g id="line2d_25">
      <g>
       <use xlink:href="#m60cf58f07c" x="57.6" y="42.243736" style="stroke: #000000; stroke-width: 0.8"/>
      </g>
     </g>
     <g id="text_17">
      <!-- 200 -->
      <g transform="translate(31.5125 46.042955) scale(0.1 -0.1)">
       <use xlink:href="#DejaVuSans-32"/>
       <use xlink:href="#DejaVuSans-30" x="63.623047"/>
       <use xlink:href="#DejaVuSans-30" x="127.246094"/>
      </g>
     </g>
    </g>
   </g>
   <g id="line2d_26">
    <path d="M 420.228275 -1 
L 412.655895 41.472 
L 406.793886 74.00856 
L 401.181402 103.829678 
L 395.798064 130.451997 
L 390.625892 153.668731 
L 385.648943 173.349867 
L 380.853016 189.062808 
L 376.225401 200.961949 
L 371.754686 209.193728 
L 367.430578 213.887423 
L 363.243766 215.147029 
L 359.185801 213.135415 
L 355.248987 208.417345 
L 351.426299 201.28065 
L 347.711308 192.125541 
L 344.09811 181.479544 
L 340.581275 169.964349 
L 333.81705 147.023871 
L 330.560749 136.928185 
L 327.382921 128.546749 
L 324.279873 122.342905 
L 321.248165 118.636211 
L 318.284592 117.582365 
L 315.386157 119.109251 
L 312.550059 123.238558 
L 309.773672 129.706538 
L 307.054535 138.141739 
L 304.390334 148.088351 
L 301.778892 159.034843 
L 291.821449 203.096568 
L 289.445286 212.165348 
L 287.111181 220.026361 
L 284.817671 226.706091 
L 282.563369 232.1397 
L 280.346956 236.391798 
L 278.167179 239.659602 
L 276.022848 242.118277 
L 273.912827 243.90993 
L 271.836037 245.134677 
L 269.791446 245.887691 
L 267.778071 246.238321 
L 265.794974 246.176935 
L 263.841257 245.678243 
L 261.916062 244.702884 
L 260.01857 243.199897 
L 258.147992 241.124499 
L 256.303578 238.595646 
L 254.484605 235.678829 
L 250.92024 229.133931 
L 249.173545 225.903637 
L 247.449685 223.055954 
L 245.748068 220.817313 
L 244.068128 219.380035 
L 242.40932 218.960404 
L 240.771119 219.695951 
L 239.15302 221.636806 
L 237.554534 224.742556 
L 235.975192 228.863125 
L 234.414541 233.908548 
L 232.872143 239.665643 
L 229.840435 252.326882 
L 226.876862 264.897602 
L 225.419681 270.608358 
L 223.978427 275.679673 
L 222.552754 279.999119 
L 221.142329 283.503567 
L 219.746829 286.183147 
L 218.365942 288.081875 
L 216.999366 289.273985 
L 215.646805 289.815877 
L 214.307977 289.836335 
L 212.982604 289.464001 
L 211.670419 288.819295 
L 209.084582 287.110973 
L 206.548475 285.455885 
L 205.29848 284.792006 
L 204.060223 284.269455 
L 202.833484 283.891193 
L 201.618051 283.642779 
L 200.413719 283.516899 
L 198.037556 283.598042 
L 195.703451 283.979624 
L 193.409942 284.58796 
L 191.155639 285.393852 
L 188.939226 286.429064 
L 186.75945 287.754492 
L 184.615118 289.382674 
L 182.505097 291.305631 
L 178.383716 295.585464 
L 176.370341 297.590095 
L 174.387244 299.285343 
L 172.433527 300.583713 
L 170.508333 301.48835 
L 168.61084 302.071968 
L 166.740263 302.426026 
L 164.895848 302.589753 
L 163.076875 302.555108 
L 161.28265 302.24439 
L 159.51251 301.629526 
L 157.765816 300.711787 
L 152.660398 297.60453 
L 151.001591 297.048972 
L 149.36339 296.881584 
L 147.74529 297.059383 
L 143.006811 298.061499 
L 141.464413 298.075426 
L 139.184123 297.789499 
L 137.685545 297.602189 
L 136.203805 297.638448 
L 134.738529 298.035262 
L 133.289355 298.852102 
L 131.855934 300.026045 
L 126.958213 304.510428 
L 125.591636 305.331127 
L 124.239075 305.870395 
L 122.900247 306.16758 
L 121.574874 306.271795 
L 119.611461 306.1458 
L 117.676852 305.76088 
L 112.037697 304.356942 
L 109.005989 304.012808 
L 106.629826 303.889686 
L 104.875386 303.994103 
L 103.143981 304.385697 
L 100.870244 305.25522 
L 98.635046 306.065892 
L 96.983165 306.344523 
L 95.35172 306.304863 
L 90.575096 305.801473 
L 89.020577 305.937282 
L 84.962611 306.505328 
L 83.4725 306.416688 
L 81.51152 305.999681 
L 79.579273 305.570339 
L 78.148444 305.491374 
L 76.732972 305.707024 
L 74.869005 306.292703 
L 73.031017 306.85744 
L 71.669145 307.096104 
L 69.87492 307.145439 
L 67.665933 306.922072 
L 64.206758 306.523012 
L 61.670651 306.533391 
L 57.54927 306.594181 
L 53.947039 306.541249 
L 51.987516 306.781378 
L 48.91161 307.226945 
L 46.650866 307.277563 
L 43.330799 307.342027 
L 39.737294 307.473567 
L 32.160232 307.420616 
L 28.85496 307.53233 
L 4.485566 307.437838 
L -1 307.104226 
L -1 307.104226 
" clip-path="url(#p05b3ecc9ca)" style="fill: none; stroke: #1f77b4; stroke-width: 1.5; stroke-linecap: square"/>
   </g>
   <g id="line2d_27">
    <path d="M 420.228275 -1 
L 412.655895 41.472 
L 406.793886 74.00856 
L 401.181402 103.829678 
L 395.798064 130.451997 
L 390.625892 153.668731 
L 385.648943 173.349867 
L 380.853016 189.062808 
L 376.225401 200.961949 
L 371.754686 209.193728 
L 367.430578 213.887423 
L 363.243766 215.147029 
L 359.185801 213.135415 
L 355.248987 208.417345 
L 351.426299 201.28065 
L 347.711308 192.125541 
L 344.09811 181.479544 
L 340.581275 169.964349 
L 333.81705 147.023871 
L 330.560749 136.928185 
L 327.382921 128.546749 
L 324.279873 122.342905 
L 321.248165 118.636211 
L 318.284592 117.582365 
L 315.386157 119.109251 
L 312.550059 123.238558 
L 309.773672 129.706538 
L 307.054535 138.141739 
L 304.390334 148.088351 
L 301.778892 159.034843 
L 291.821449 203.096568 
L 289.445286 212.165348 
L 287.111181 220.026361 
L 284.817671 226.706091 
L 282.563369 232.1397 
L 280.346956 236.391798 
L 278.167179 239.659602 
L 276.022848 242.118277 
L 273.912827 243.90993 
L 271.836037 245.134677 
L 269.791446 245.887691 
L 267.778071 246.238321 
L 265.794974 246.176935 
L 263.841257 245.678243 
L 261.916062 244.702884 
L 260.01857 243.199897 
L 258.147992 241.124499 
L 256.303578 238.595646 
L 254.484605 235.678829 
L 250.92024 229.133931 
L 249.173545 225.903637 
L 247.449685 223.055954 
L 245.748068 220.817313 
L 244.068128 219.380035 
L 242.40932 218.960404 
L 240.771119 219.695951 
L 239.15302 221.636806 
L 237.554534 224.742556 
L 235.975192 228.863125 
L 234.414541 233.908548 
L 232.872143 239.665643 
L 229.840435 252.326882 
L 226.876862 264.897602 
L 225.419681 270.608358 
L 223.978427 275.679673 
L 222.552754 279.999119 
L 221.142329 283.503567 
L 219.746829 286.183147 
L 218.365942 288.081875 
L 216.999366 289.273985 
L 215.646805 289.815877 
L 214.307977 289.836335 
L 212.982604 289.464001 
L 211.670419 288.819295 
L 209.084582 287.110973 
L 206.548475 285.455885 
L 205.29848 284.792006 
L 204.060223 284.269455 
L 202.833484 283.891193 
L 201.618051 283.642779 
L 200.413719 283.516899 
L 198.037556 283.598042 
L 195.703451 283.979624 
L 193.409942 284.58796 
L 191.155639 285.393852 
L 188.939226 286.429064 
L 186.75945 287.754492 
L 184.615118 289.382674 
L 182.505097 291.305631 
L 178.383716 295.585464 
L 176.370341 297.590095 
L 174.387244 299.285343 
L 172.433527 300.583713 
L 170.508333 301.48835 
L 168.61084 302.071968 
L 166.740263 302.426026 
L 164.895848 302.589753 
L 163.076875 302.555108 
L 161.28265 302.24439 
L 159.51251 301.629526 
L 157.765816 300.711787 
L 152.660398 297.60453 
L 151.001591 297.048972 
L 149.36339 296.881584 
L 147.74529 297.059383 
L 143.006811 298.061499 
L 141.464413 298.075426 
L 139.184123 297.789499 
L 137.685545 297.602189 
L 136.203805 297.638448 
L 134.738529 298.035262 
L 133.289355 298.852102 
L 131.855934 300.026045 
L 126.958213 304.510428 
L 125.591636 305.331127 
L 124.239075 305.870395 
L 122.900247 306.16758 
L 121.574874 306.271795 
L 119.611461 306.1458 
L 117.676852 305.76088 
L 112.037697 304.356942 
L 109.005989 304.012808 
L 106.629826 303.889686 
L 104.875386 303.994103 
L 103.143981 304.385697 
L 100.870244 305.25522 
L 98.635046 306.065892 
L 96.983165 306.344523 
L 95.35172 306.304863 
L 90.575096 305.801473 
L 89.020577 305.937282 
L 84.962611 306.505328 
L 83.4725 306.416688 
L 81.51152 305.999681 
L 79.579273 305.570339 
L 78.148444 305.491374 
L 76.732972 305.707024 
L 74.869005 306.292703 
L 73.031017 306.85744 
L 71.669145 307.096104 
L 69.87492 307.145439 
L 67.665933 306.922072 
L 64.206758 306.523012 
L 61.670651 306.533391 
L 57.54927 306.594181 
L 53.947039 306.541249 
L 51.987516 306.781378 
L 48.91161 307.226945 
L 46.650866 307.277563 
L 43.330799 307.342027 
L 39.737294 307.473567 
L 32.160232 307.420616 
L 28.85496 307.53233 
L 4.485566 307.437838 
L -1 307.104226 
L -1 307.104226 
" clip-path="url(#p05b3ecc9ca)" style="fill: none; stroke: #ff7f0e; stroke-width: 1.5; stroke-linecap: square"/>
   </g>
   <g id="line2d_28">
    <path d="M 420.228275 -1 
L 412.655895 41.472 
L 406.793886 74.00856 
L 401.181402 103.829678 
L 395.798064 130.451997 
L 390.625892 153.668731 
L 385.648943 173.349867 
L 380.853016 189.062808 
L 376.225401 200.961949 
L 371.754686 209.193728 
L 367.430578 213.887423 
L 363.243766 215.147029 
L 359.185801 213.135415 
L 355.248987 208.417345 
L 351.426299 201.28065 
L 347.711308 192.125541 
L 344.09811 181.479544 
L 340.581275 169.964349 
L 333.81705 147.023871 
L 330.560749 136.928185 
L 327.382921 128.546749 
L 324.279873 122.342905 
L 321.248165 118.636211 
L 318.284592 117.582365 
L 315.386157 119.109251 
L 312.550059 123.238558 
L 309.773672 129.706538 
L 307.054535 138.141739 
L 304.390334 148.088351 
L 301.778892 159.034843 
L 291.821449 203.096568 
L 289.445286 212.165348 
L 287.111181 220.026361 
L 284.817671 226.706091 
L 282.563369 232.1397 
L 280.346956 236.391798 
L 278.167179 239.659602 
L 276.022848 242.118277 
L 273.912827 243.90993 
L 271.836037 245.134677 
L 269.791446 245.887691 
L 267.778071 246.238321 
L 265.794974 246.176935 
L 263.841257 245.678243 
L 261.916062 244.702884 
L 260.01857 243.199897 
L 258.147992 241.124499 
L 256.303578 238.595646 
L 254.484605 235.678829 
L 250.92024 229.133931 
L 249.173545 225.903637 
L 247.449685 223.055954 
L 245.748068 220.817313 
L 244.068128 219.380035 
L 242.40932 218.960404 
L 240.771119 219.695951 
L 239.15302 221.636806 
L 237.554534 224.742556 
L 235.975192 228.863125 
L 234.414541 233.908548 
L 232.872143 239.665643 
L 229.840435 252.326882 
L 226.876862 264.897602 
L 225.419681 270.608358 
L 223.978427 275.679673 
L 222.552754 279.999119 
L 221.142329 283.503567 
L 219.746829 286.183147 
L 218.365942 288.081875 
L 216.999366 289.273985 
L 215.646805 289.815877 
L 214.307977 289.836335 
L 212.982604 289.464001 
L 211.670419 288.819295 
L 209.084582 287.110973 
L 206.548475 285.455885 
L 205.29848 284.792006 
L 204.060223 284.269455 
L 202.833484 283.891193 
L 201.618051 283.642779 
L 200.413719 283.516899 
L 198.037556 283.598042 
L 195.703451 283.979624 
L 193.409942 284.58796 
L 191.155639 285.393852 
L 188.939226 286.429064 
L 186.75945 287.754492 
L 184.615118 289.382674 
L 182.505097 291.305631 
L 178.383716 295.585464 
L 176.370341 297.590095 
L 174.387244 299.285343 
L 172.433527 300.583713 
L 170.508333 301.48835 
L 168.61084 302.071968 
L 166.740263 302.426026 
L 164.895848 302.589753 
L 163.076875 302.555108 
L 161.28265 302.24439 
L 159.51251 301.629526 
L 157.765816 300.711787 
L 152.660398 297.60453 
L 151.001591 297.048972 
L 149.36339 296.881584 
L 147.74529 297.059383 
L 143.006811 298.061499 
L 141.464413 298.075426 
L 139.184123 297.789499 
L 137.685545 297.602189 
L 136.203805 297.638448 
L 134.738529 298.035262 
L 133.289355 298.852102 
L 131.855934 300.026045 
L 126.958213 304.510428 
L 125.591636 305.331127 
L 124.239075 305.870395 
L 122.900247 306.16758 
L 121.574874 306.271795 
L 119.611461 306.1458 
L 117.676852 305.76088 
L 112.037697 304.356942 
L 109.005989 304.012808 
L 106.629826 303.889686 
L 104.875386 303.994103 
L 103.143981 304.385697 
L 100.870244 305.25522 
L 98.635046 306.065892 
L 96.983165 306.344523 
L 95.35172 306.304863 
L 90.575096 305.801473 
L 89.020577 305.937282 
L 84.962611 306.505328 
L 83.4725 306.416688 
L 81.51152 305.999681 
L 79.579273 305.570339 
L 78.148444 305.491374 
L 76.732972 305.707024 
L 74.869005 306.292703 
L 73.031017 306.85744 
L 71.669145 307.096104 
L 69.87492 307.145439 
L 67.665933 306.922072 
L 64.206758 306.523012 
L 61.670651 306.533391 
L 57.54927 306.594181 
L 53.947039 306.541249 
L 51.987516 306.781378 
L 48.91161 307.226945 
L 46.650866 307.277563 
L 43.330799 307.342027 
L 39.737294 307.473567 
L 32.160232 307.420616 
L 28.85496 307.53233 
L 4.485566 307.437838 
L -1 307.104226 
L -1 307.104226 
" clip-path="url(#p05b3ecc9ca)" style="fill: none; stroke: #2ca02c; stroke-width: 1.5; stroke-linecap: round"/>
   </g>
   <g id="patch_3">
    <path d="M 57.6 307.584 
L 57.6 41.472 
" style="fill: none; stroke: #000000; stroke-width: 0.8; stroke-linejoin: miter; stroke-linecap: square"/>
   </g>
   <g id="patch_4">
    <path d="M 414.72 307.584 
L 414.72 41.472 
" style="fill: none; stroke: #000000; stroke-width: 0.8; stroke-linejoin: miter; stroke-linecap: square"/>
   </g>
   <g id="patch_5">
    <path d="M 57.6 307.584 
L 414.72 307.584 
" style="fill: none; stroke: #000000; stroke-width: 0.8; stroke-linejoin: miter; stroke-linecap: square"/>
   </g>
   <g id="patch_6">
    <path d="M 57.6 41.472 
L 414.72 41.472 
" style="fill: none; stroke: #000000; stroke-width: 0.8; stroke-linejoin: miter; stroke-linecap: square"/>
   </g>
  </g>
 </g>
 <defs>
  <clipPath id="p05b3ecc9ca">
   <rect x="57.6" y="41.472" width="357.12" height="266.112"/>
  </clipPath>
 </defs>
</svg>
