<?xml version="1.0" encoding="utf-8" standalone="no"?>
<!DOCTYPE svg PUBLIC "-//W3C//DTD SVG 1.1//EN"
  "http://www.w3.org/Graphics/SVG/1.1/DTD/svg11.dtd">
<svg xmlns:xlink="http://www.w3.org/1999/xlink" width="460.8pt" height="345.6pt" viewBox="0 0 460.8 345.6" xmlns="http://www.w3.org/2000/svg" version="1.1">
 <metadata>
  <rdf:RDF xmlns:dc="http://purl.org/dc/elements/1.1/" xmlns:cc="http://creativecommons.org/ns#" xmlns:rdf="http://www.w3.org/1999/02/22-rdf-syntax-ns#">
   <cc:Work>
    <dc:type rdf:resource="http://purl.org/dc/dcmitype/StillImage"/>
    <dc:date>2024-05-07T20:53:43.099319</dc:date>
    <dc:format>image/svg+xml</dc:format>
    <dc:creator>
     <cc:Agent>
      <dc:title>Matplotlib v3.8.3, https://matplotlib.org/</dc:title>
     </cc:Agent>
    </dc:creator>
   </cc:Work>
  </rdf:RDF>
 </metadata>
 <defs>
  <style type="text/css">*{stroke-linejoin: round; stroke-linecap: butt}</style>
 </defs>
 <g id="figure_1">
  <g id="patch_1">
   <path d="M 0 345.6 
L 460.8 345.6 
L 460.8 0 
L 0 0 
L 0 345.6 
z
" style="fill: none"/>
  </g>
  <g id="axes_1">
   <g id="patch_2">
    <path d="M 29.39 295.38 
L 440.91 295.38 
L 440.91 42.7112 
L 29.39 42.7112 
L 29.39 295.38 
z
" style="fill: none"/>
   </g>
   <g id="matplotlib.axis_1">
    <g id="xtick_1">
     <g id="line2d_1">
      <path d="M 29.39 295.38 
L 29.39 42.7112 
" clip-path="url(#pa69a1763fc)" style="fill: none; stroke: #ffffff; stroke-linecap: round"/>
     </g>
     <g id="text_1">
      <!-- 2 -->
      <g style="fill: #262626" transform="translate(25.890625 313.238281) scale(0.11 -0.11)">
       <defs>
        <path id="DejaVuSans-32" d="M 1228 531 
L 3431 531 
L 3431 0 
L 469 0 
L 469 531 
Q 828 903 1448 1529 
Q 2069 2156 2228 2338 
Q 2531 2678 2651 2914 
Q 2772 3150 2772 3378 
Q 2772 3750 2511 3984 
Q 2250 4219 1831 4219 
Q 1534 4219 1204 4116 
Q 875 4013 500 3803 
L 500 4441 
Q 881 4594 1212 4672 
Q 1544 4750 1819 4750 
Q 2544 4750 2975 4387 
Q 3406 4025 3406 3419 
Q 3406 3131 3298 2873 
Q 3191 2616 2906 2266 
Q 2828 2175 2409 1742 
Q 1991 1309 1228 531 
z
" transform="scale(0.015625)"/>
       </defs>
       <use xlink:href="#DejaVuSans-32"/>
      </g>
     </g>
    </g>
    <g id="xtick_2">
     <g id="line2d_2">
      <path d="M 144.180601 295.38 
L 144.180601 42.7112 
" clip-path="url(#pa69a1763fc)" style="fill: none; stroke: #ffffff; stroke-linecap: round"/>
     </g>
     <g id="text_2">
      <!-- 4 -->
      <g style="fill: #262626" transform="translate(140.681226 313.238281) scale(0.11 -0.11)">
       <defs>
        <path id="DejaVuSans-34" d="M 2419 4116 
L 825 1625 
L 2419 1625 
L 2419 4116 
z
M 2253 4666 
L 3047 4666 
L 3047 1625 
L 3713 1625 
L 3713 1100 
L 3047 1100 
L 3047 0 
L 2419 0 
L 2419 1100 
L 313 1100 
L 313 1709 
L 2253 4666 
z
" transform="scale(0.015625)"/>
       </defs>
       <use xlink:href="#DejaVuSans-34"/>
      </g>
     </g>
    </g>
    <g id="xtick_3">
     <g id="line2d_3">
      <path d="M 211.328798 295.38 
L 211.328798 42.7112 
" clip-path="url(#pa69a1763fc)" style="fill: none; stroke: #ffffff; stroke-linecap: round"/>
     </g>
     <g id="text_3">
      <!-- 6 -->
      <g style="fill: #262626" transform="translate(207.829423 313.238281) scale(0.11 -0.11)">
       <defs>
        <path id="DejaVuSans-36" d="M 2113 2584 
Q 1688 2584 1439 2293 
Q 1191 2003 1191 1497 
Q 1191 994 1439 701 
Q 1688 409 2113 409 
Q 2538 409 2786 701 
Q 3034 994 3034 1497 
Q 3034 2003 2786 2293 
Q 2538 2584 2113 2584 
z
M 3366 4563 
L 3366 3988 
Q 3128 4100 2886 4159 
Q 2644 4219 2406 4219 
Q 1781 4219 1451 3797 
Q 1122 3375 1075 2522 
Q 1259 2794 1537 2939 
Q 1816 3084 2150 3084 
Q 2853 3084 3261 2657 
Q 3669 2231 3669 1497 
Q 3669 778 3244 343 
Q 2819 -91 2113 -91 
Q 1303 -91 875 529 
Q 447 1150 447 2328 
Q 447 3434 972 4092 
Q 1497 4750 2381 4750 
Q 2619 4750 2861 4703 
Q 3103 4656 3366 4563 
z
" transform="scale(0.015625)"/>
       </defs>
       <use xlink:href="#DejaVuSans-36"/>
      </g>
     </g>
    </g>
    <g id="xtick_4">
     <g id="line2d_4">
      <path d="M 326.119399 295.38 
L 326.119399 42.7112 
" clip-path="url(#pa69a1763fc)" style="fill: none; stroke: #ffffff; stroke-linecap: round"/>
     </g>
     <g id="text_4">
      <!-- 12 -->
      <g style="fill: #262626" transform="translate(319.120649 313.238281) scale(0.11 -0.11)">
       <defs>
        <path id="DejaVuSans-31" d="M 794 531 
L 1825 531 
L 1825 4091 
L 703 3866 
L 703 4441 
L 1819 4666 
L 2450 4666 
L 2450 531 
L 3481 531 
L 3481 0 
L 794 0 
L 794 531 
z
" transform="scale(0.015625)"/>
       </defs>
       <use xlink:href="#DejaVuSans-31"/>
       <use xlink:href="#DejaVuSans-32" x="63.623047"/>
      </g>
     </g>
    </g>
    <g id="xtick_5">
     <g id="line2d_5">
      <path d="M 440.91 295.38 
L 440.91 42.7112 
" clip-path="url(#pa69a1763fc)" style="fill: none; stroke: #ffffff; stroke-linecap: round"/>
     </g>
     <g id="text_5">
      <!-- 24 -->
      <g style="fill: #262626" transform="translate(433.91125 313.238281) scale(0.11 -0.11)">
       <use xlink:href="#DejaVuSans-32"/>
       <use xlink:href="#DejaVuSans-34" x="63.623047"/>
      </g>
     </g>
    </g>
    <g id="xtick_6"/>
    <g id="xtick_7"/>
    <g id="xtick_8"/>
    <g id="xtick_9"/>
    <g id="xtick_10"/>
    <g id="xtick_11"/>
    <g id="xtick_12"/>
    <g id="xtick_13"/>
    <g id="xtick_14"/>
    <g id="text_6">
     <!-- Years -->
     <g style="fill: #262626" transform="translate(219.319375 328.644063) scale(0.12 -0.12)">
      <defs>
       <path id="DejaVuSans-59" d="M -13 4666 
L 666 4666 
L 1959 2747 
L 3244 4666 
L 3922 4666 
L 2272 2222 
L 2272 0 
L 1638 0 
L 1638 2222 
L -13 4666 
z
" transform="scale(0.015625)"/>
       <path id="DejaVuSans-65" d="M 3597 1894 
L 3597 1613 
L 953 1613 
Q 991 1019 1311 708 
Q 1631 397 2203 397 
Q 2534 397 2845 478 
Q 3156 559 3463 722 
L 3463 178 
Q 3153 47 2828 -22 
Q 2503 -91 2169 -91 
Q 1331 -91 842 396 
Q 353 884 353 1716 
Q 353 2575 817 3079 
Q 1281 3584 2069 3584 
Q 2775 3584 3186 3129 
Q 3597 2675 3597 1894 
z
M 3022 2063 
Q 3016 2534 2758 2815 
Q 2500 3097 2075 3097 
Q 1594 3097 1305 2825 
Q 1016 2553 972 2059 
L 3022 2063 
z
" transform="scale(0.015625)"/>
       <path id="DejaVuSans-61" d="M 2194 1759 
Q 1497 1759 1228 1600 
Q 959 1441 959 1056 
Q 959 750 1161 570 
Q 1363 391 1709 391 
Q 2188 391 2477 730 
Q 2766 1069 2766 1631 
L 2766 1759 
L 2194 1759 
z
M 3341 1997 
L 3341 0 
L 2766 0 
L 2766 531 
Q 2569 213 2275 61 
Q 1981 -91 1556 -91 
Q 1019 -91 701 211 
Q 384 513 384 1019 
Q 384 1609 779 1909 
Q 1175 2209 1959 2209 
L 2766 2209 
L 2766 2266 
Q 2766 2663 2505 2880 
Q 2244 3097 1772 3097 
Q 1472 3097 1187 3025 
Q 903 2953 641 2809 
L 641 3341 
Q 956 3463 1253 3523 
Q 1550 3584 1831 3584 
Q 2591 3584 2966 3190 
Q 3341 2797 3341 1997 
z
" transform="scale(0.015625)"/>
       <path id="DejaVuSans-72" d="M 2631 2963 
Q 2534 3019 2420 3045 
Q 2306 3072 2169 3072 
Q 1681 3072 1420 2755 
Q 1159 2438 1159 1844 
L 1159 0 
L 581 0 
L 581 3500 
L 1159 3500 
L 1159 2956 
Q 1341 3275 1631 3429 
Q 1922 3584 2338 3584 
Q 2397 3584 2469 3576 
Q 2541 3569 2628 3553 
L 2631 2963 
z
" transform="scale(0.015625)"/>
       <path id="DejaVuSans-73" d="M 2834 3397 
L 2834 2853 
Q 2591 2978 2328 3040 
Q 2066 3103 1784 3103 
Q 1356 3103 1142 2972 
Q 928 2841 928 2578 
Q 928 2378 1081 2264 
Q 1234 2150 1697 2047 
L 1894 2003 
Q 2506 1872 2764 1633 
Q 3022 1394 3022 966 
Q 3022 478 2636 193 
Q 2250 -91 1575 -91 
Q 1294 -91 989 -36 
Q 684 19 347 128 
L 347 722 
Q 666 556 975 473 
Q 1284 391 1588 391 
Q 1994 391 2212 530 
Q 2431 669 2431 922 
Q 2431 1156 2273 1281 
Q 2116 1406 1581 1522 
L 1381 1569 
Q 847 1681 609 1914 
Q 372 2147 372 2553 
Q 372 3047 722 3315 
Q 1072 3584 1716 3584 
Q 2034 3584 2315 3537 
Q 2597 3491 2834 3397 
z
" transform="scale(0.015625)"/>
      </defs>
      <use xlink:href="#DejaVuSans-59"/>
      <use xlink:href="#DejaVuSans-65" x="47.833984"/>
      <use xlink:href="#DejaVuSans-61" x="109.357422"/>
      <use xlink:href="#DejaVuSans-72" x="170.636719"/>
      <use xlink:href="#DejaVuSans-73" x="211.75"/>
     </g>
    </g>
   </g>
   <g id="matplotlib.axis_2">
    <g id="ytick_1">
     <g id="line2d_6">
      <path d="M 29.39 295.38 
L 440.91 295.38 
" clip-path="url(#pa69a1763fc)" style="fill: none; stroke: #ffffff; stroke-linecap: round"/>
     </g>
     <g id="text_7">
      <!-- 0 -->
      <g style="fill: #262626" transform="translate(12.89125 299.559141) scale(0.11 -0.11)">
       <defs>
        <path id="DejaVuSans-30" d="M 2034 4250 
Q 1547 4250 1301 3770 
Q 1056 3291 1056 2328 
Q 1056 1369 1301 889 
Q 1547 409 2034 409 
Q 2525 409 2770 889 
Q 3016 1369 3016 2328 
Q 3016 3291 2770 3770 
Q 2525 4250 2034 4250 
z
M 2034 4750 
Q 2819 4750 3233 4129 
Q 3647 3509 3647 2328 
Q 3647 1150 3233 529 
Q 2819 -91 2034 -91 
Q 1250 -91 836 529 
Q 422 1150 422 2328 
Q 422 3509 836 4129 
Q 1250 4750 2034 4750 
z
" transform="scale(0.015625)"/>
       </defs>
       <use xlink:href="#DejaVuSans-30"/>
      </g>
     </g>
    </g>
    <g id="ytick_2">
     <g id="line2d_7">
      <path d="M 29.39 42.7112 
L 440.91 42.7112 
" clip-path="url(#pa69a1763fc)" style="fill: none; stroke: #ffffff; stroke-linecap: round"/>
     </g>
     <g id="text_8">
      <!-- 1 -->
      <g style="fill: #262626" transform="translate(12.89125 46.890341) scale(0.11 -0.11)">
       <use xlink:href="#DejaVuSans-31"/>
      </g>
     </g>
    </g>
   </g>
   <g id="line2d_8">
    <path d="M 440.820605 286.529995 
L 429.234915 285.207391 
L 418.407018 283.736636 
L 408.24384 282.120437 
L 400.539761 280.70332 
L 394.080698 279.298109 
L 387.864125 277.730277 
L 381.87249 275.982646 
L 376.903883 274.319025 
L 372.080012 272.475168 
L 367.392686 270.421777 
L 362.834384 268.175419 
L 358.398195 265.721375 
L 354.790038 263.495858 
L 351.258821 261.091027 
L 347.801329 258.495938 
L 344.414548 255.703002 
L 341.095643 252.708097 
L 337.841946 249.51095 
L 334.020057 245.432359 
L 330.284384 241.112225 
L 326.631122 236.575065 
L 322.468408 231.054496 
L 317.835719 224.534751 
L 311.670248 215.436467 
L 293.453239 188.154226 
L 289.556404 182.885223 
L 286.220306 178.707276 
L 282.950088 174.963029 
L 279.743197 171.644851 
L 276.597227 168.736097 
L 273.509908 166.211702 
L 270.479092 164.040687 
L 267.924679 162.479623 
L 265.409069 161.179692 
L 262.9311 160.120812 
L 260.489662 159.288164 
L 258.083695 158.671573 
L 255.712182 158.265719 
L 253.37415 158.070251 
L 248.79484 157.72776 
L 245.441586 157.301569 
L 243.24322 156.836142 
L 241.43328 156.265983 
L 239.642908 155.465265 
L 238.224417 154.612061 
L 236.46822 153.282813 
L 234.730451 151.738696 
L 233.010728 149.904208 
L 231.30868 147.726869 
L 229.623947 145.168557 
L 227.95618 142.206071 
L 226.305042 138.831468 
L 224.345163 134.249494 
L 222.408207 129.116788 
L 220.493644 123.410947 
L 218.287608 116.106801 
L 215.801891 107.101805 
L 212.443829 94.04158 
L 205.925327 68.444158 
L 203.617166 60.420106 
L 201.906915 55.162002 
L 200.214146 50.694678 
L 198.816603 47.663516 
L 197.706999 45.739477 
L 196.604779 44.278904 
L 195.782903 43.488239 
L 194.965085 42.968194 
L 194.151285 42.727836 
L 193.341465 42.774582 
L 192.535586 43.114155 
L 191.73361 43.750558 
L 190.935498 44.686052 
L 190.141214 45.921142 
L 189.088061 48.031554 
L 188.041563 50.664356 
L 186.742671 54.669264 
L 185.453888 59.429209 
L 183.920471 66.008715 
L 182.149247 74.686948 
L 180.14792 85.623398 
L 176.946479 104.551923 
L 173.089354 127.024013 
L 170.723487 139.676989 
L 168.854832 148.467625 
L 167.236878 154.995009 
L 165.862531 159.692062 
L 164.499496 163.578726 
L 163.372141 166.049104 
L 162.47575 167.507925 
L 161.584185 168.539409 
L 160.697394 169.173606 
L 160.035403 169.406402 
L 159.376048 169.44471 
L 158.719307 169.300542 
L 157.847685 168.844586 
L 156.980626 168.111472 
L 155.903148 166.843565 
L 154.61936 164.928264 
L 152.922978 161.988509 
L 146.711956 150.689796 
L 145.295632 148.833597 
L 144.291336 147.840316 
L 143.293094 147.176337 
L 142.498811 146.908295 
L 141.708318 146.891872 
L 140.921581 147.139939 
L 140.138564 147.661964 
L 139.359232 148.463925 
L 138.583549 149.548249 
L 137.619028 151.283351 
L 136.660092 153.447773 
L 135.51665 156.595866 
L 134.192537 160.96715 
L 132.692116 166.760375 
L 130.835507 174.921075 
L 128.452619 186.458819 
L 123.610464 210.17856 
L 121.677619 218.372093 
L 120.112809 224.00812 
L 118.734172 228.092376 
L 117.537207 230.920979 
L 116.518079 232.79045 
L 115.505184 234.160145 
L 114.665811 234.93338 
L 113.830672 235.397565 
L 112.999723 235.581284 
L 112.172922 235.51435 
L 111.350229 235.231267 
L 110.368361 234.660978 
L 109.068195 233.631455 
L 106.49809 231.229398 
L 104.438855 229.382941 
L 103.184244 228.527521 
L 101.939067 227.955493 
L 100.857164 227.69267 
L 99.782283 227.681548 
L 98.562331 227.933841 
L 96.899436 228.560038 
L 94.658429 229.394883 
L 93.181097 229.668647 
L 92.154751 229.643671 
L 91.280059 229.427424 
L 90.409964 229.006653 
L 89.400596 228.244692 
L 88.397344 227.19798 
L 87.258162 225.656752 
L 85.985881 223.534956 
L 84.165227 220.02333 
L 81.128998 214.168012 
L 79.767084 212.013767 
L 78.68556 210.704619 
L 77.744985 209.92347 
L 76.943009 209.548518 
L 76.277649 209.45867 
L 75.614952 209.58556 
L 74.954896 209.927487 
L 74.166285 210.613252 
L 73.381413 211.584987 
L 72.470405 213.052648 
L 71.306425 215.404347 
L 70.022636 218.534962 
L 68.495113 222.888073 
L 66.354959 229.744684 
L 62.766752 241.417283 
L 61.183142 245.831677 
L 59.854891 248.910816 
L 58.656566 251.153552 
L 57.70411 252.500378 
L 56.875181 253.333845 
L 56.05038 253.847259 
L 55.346663 254.043777 
L 54.645924 254.016696 
L 53.832125 253.727216 
L 52.906939 253.110774 
L 51.757678 252.021753 
L 49.822054 249.781201 
L 48.132738 247.954018 
L 47.127358 247.16067 
L 46.238783 246.742654 
L 45.465172 246.646492 
L 44.80494 246.791229 
L 44.14733 247.153572 
L 43.383405 247.8624 
L 42.622987 248.88326 
L 41.758192 250.42471 
L 40.790666 252.604948 
L 39.615758 255.796103 
L 37.921546 261.130224 
L 34.584248 271.798701 
L 33.145064 275.683737 
L 31.819787 278.647533 
L 30.807511 280.450143 
L 29.801385 281.821763 
L 29.40064 282.269855 
L 29.40064 282.269855 
" style="fill: none; stroke: #1a1a1a; stroke-width: 1.5; stroke-linecap: round"/>
   </g>
   <g id="line2d_9">
    <path d="M 440.827657 292.121325 
L 431.495169 291.427942 
L 423.739539 290.652044 
L 416.330925 289.679527 
L 410.234242 288.653753 
L 404.354057 287.413817 
L 399.608522 286.182351 
L 395.907634 285.0226 
L 392.287647 283.687865 
L 388.745098 282.161349 
L 385.276745 280.424355 
L 381.879542 278.456465 
L 378.550629 276.235723 
L 375.287315 273.738851 
L 372.087064 270.941461 
L 368.947485 267.81829 
L 365.866321 264.343433 
L 362.841436 260.526359 
L 359.870812 256.417628 
L 356.952537 252.000276 
L 354.084797 247.261485 
L 351.265873 242.194939 
L 348.494129 236.800886 
L 345.768012 231.086135 
L 342.422286 223.512591 
L 339.142816 215.499147 
L 335.927028 207.100694 
L 332.148739 196.599642 
L 327.846995 183.914158 
L 322.47546 167.320229 
L 312.781356 137.209219 
L 308.948938 126.125524 
L 305.733151 117.47636 
L 303.100221 110.960628 
L 300.508496 105.166338 
L 298.463929 101.097419 
L 296.444296 97.562126 
L 294.448997 94.58023 
L 292.968142 92.714526 
L 291.500412 91.169259 
L 290.045575 89.944148 
L 288.603408 89.036423 
L 287.173691 88.442619 
L 285.756212 88.178874 
L 284.350762 88.243248 
L 282.957139 88.624997 
L 281.575147 89.312078 
L 280.204591 90.291222 
L 278.845285 91.547997 
L 277.497046 93.066888 
L 275.716299 95.47113 
L 273.954497 98.270246 
L 272.211241 101.420101 
L 270.057663 105.780077 
L 267.5098 111.509936 
L 264.586004 118.698406 
L 260.496714 129.425862 
L 254.156884 146.10351 
L 251.07572 153.559356 
L 248.801892 158.508086 
L 246.930597 162.057195 
L 245.080211 165.036876 
L 243.614646 166.983409 
L 242.161936 168.519899 
L 241.080706 169.391932 
L 240.006489 170.015423 
L 238.939195 170.383414 
L 237.878736 170.489425 
L 236.825024 170.327482 
L 235.777974 169.892157 
L 234.737503 169.176036 
L 233.703528 168.19938 
L 232.675968 166.977154 
L 231.315732 164.96232 
L 229.966577 162.508059 
L 228.628325 159.620858 
L 226.970575 155.422525 
L 225.329255 150.604574 
L 223.380905 144.07738 
L 221.455211 136.843451 
L 219.236508 127.673467 
L 216.426883 114.980371 
L 211.546741 91.535533 
L 207.97875 74.814804 
L 205.642093 64.838786 
L 203.910985 58.316015 
L 202.197785 52.766709 
L 200.783534 48.978759 
L 199.660764 46.546738 
L 198.545556 44.683236 
L 197.714051 43.677675 
L 196.886699 43.021901 
L 196.06346 42.727305 
L 195.516899 42.736756 
L 194.972136 42.912763 
L 194.158337 43.464505 
L 193.348517 44.360513 
L 192.542638 45.605131 
L 191.740662 47.200162 
L 190.677365 49.870288 
L 189.620852 53.152909 
L 188.30962 58.091172 
L 187.008687 63.90973 
L 185.460939 71.956687 
L 183.673328 82.618858 
L 181.653695 96.207933 
L 179.163305 114.664142 
L 171.909247 169.753117 
L 169.793576 183.756271 
L 167.935404 194.626059 
L 166.326432 202.794146 
L 164.732943 209.707381 
L 163.15464 215.458943 
L 162.036419 218.837147 
L 160.925698 221.537054 
L 159.822378 223.638257 
L 158.726359 225.217849 
L 157.637546 226.349713 
L 156.555845 227.103434 
L 155.481164 227.543279 
L 154.413411 227.72725 
L 153.14113 227.688095 
L 151.459818 227.398798 
L 144.49876 225.92201 
L 143.101218 225.880092 
L 141.518335 226.064106 
L 139.755491 226.519194 
L 137.818535 227.274149 
L 135.713728 228.346039 
L 133.447679 229.772453 
L 131.212219 231.460053 
L 129.189222 233.274685 
L 127.190639 235.395962 
L 125.037527 237.997723 
L 122.91205 240.92005 
L 120.46632 244.69665 
L 118.227179 248.529955 
L 115.34402 253.947164 
L 110.702056 263.259086 
L 107.624658 269.110352 
L 105.551543 272.5905 
L 103.660662 275.363245 
L 102.101255 277.299134 
L 100.556394 278.853918 
L 99.178235 279.937569 
L 98.114207 280.544082 
L 97.056972 280.918096 
L 96.006443 281.075939 
L 94.962536 281.027465 
L 93.925168 280.775767 
L 92.894258 280.317093 
L 91.432573 279.364764 
L 89.983676 278.157 
L 88.261569 276.404477 
L 85.85217 273.586078 
L 82.233703 269.313026 
L 80.726298 267.897742 
L 79.367736 266.936932 
L 78.154486 266.343107 
L 76.950061 266.000391 
L 75.622003 265.868839 
L 74.042267 265.942503 
L 72.218086 266.289383 
L 69.009775 266.910361 
L 67.365698 266.999897 
L 65.240087 266.863152 
L 62.529184 266.693673 
L 61.190194 266.809228 
L 59.982254 267.144079 
L 58.90259 267.689929 
L 57.82992 268.50149 
L 56.764152 269.581424 
L 55.587955 271.092003 
L 54.187458 273.290942 
L 52.453329 276.470003 
L 48.251876 284.416369 
L 46.800636 286.539582 
L 45.692887 287.802045 
L 44.592498 288.717068 
L 43.499373 289.312532 
L 42.630039 289.562684 
L 41.657462 289.613622 
L 40.476461 289.432009 
L 38.985448 288.958909 
L 33.562037 287.014523 
L 31.623888 286.617033 
L 29.607943 286.420306 
L 29.407691 286.411493 
L 29.407691 286.411493 
" style="fill: none; stroke: #4c72b0; stroke-width: 1.5; stroke-linecap: round"/>
   </g>
   <g id="patch_3">
    <path d="M 29.39 295.38 
L 29.39 42.7112 
" style="fill: none; stroke: #ffffff; stroke-width: 1.25; stroke-linejoin: miter; stroke-linecap: square"/>
   </g>
   <g id="patch_4">
    <path d="M 440.91 295.38 
L 440.91 42.7112 
" style="fill: none; stroke: #ffffff; stroke-width: 1.25; stroke-linejoin: miter; stroke-linecap: square"/>
   </g>
   <g id="patch_5">
    <path d="M 29.39 295.38 
L 440.91 295.38 
" style="fill: none; stroke: #ffffff; stroke-width: 1.25; stroke-linejoin: miter; stroke-linecap: square"/>
   </g>
   <g id="patch_6">
    <path d="M 29.39 42.7112 
L 440.91 42.7112 
" style="fill: none; stroke: #ffffff; stroke-width: 1.25; stroke-linejoin: miter; stroke-linecap: square"/>
   </g>
   <g id="legend_1">
    <g id="line2d_10">
     <path d="M 39.29 31.852601 
L 50.29 31.852601 
L 61.29 31.852601 
" style="fill: none; stroke: #1a1a1a; stroke-width: 1.5; stroke-linecap: round"/>
    </g>
    <g id="text_9">
     <!-- GDP -->
     <g style="fill: #262626" transform="translate(70.09 35.702601) scale(0.11 -0.11)">
      <defs>
       <path id="DejaVuSans-47" d="M 3809 666 
L 3809 1919 
L 2778 1919 
L 2778 2438 
L 4434 2438 
L 4434 434 
Q 4069 175 3628 42 
Q 3188 -91 2688 -91 
Q 1594 -91 976 548 
Q 359 1188 359 2328 
Q 359 3472 976 4111 
Q 1594 4750 2688 4750 
Q 3144 4750 3555 4637 
Q 3966 4525 4313 4306 
L 4313 3634 
Q 3963 3931 3569 4081 
Q 3175 4231 2741 4231 
Q 1884 4231 1454 3753 
Q 1025 3275 1025 2328 
Q 1025 1384 1454 906 
Q 1884 428 2741 428 
Q 3075 428 3337 486 
Q 3600 544 3809 666 
z
" transform="scale(0.015625)"/>
       <path id="DejaVuSans-44" d="M 1259 4147 
L 1259 519 
L 2022 519 
Q 2988 519 3436 956 
Q 3884 1394 3884 2338 
Q 3884 3275 3436 3711 
Q 2988 4147 2022 4147 
L 1259 4147 
z
M 628 4666 
L 1925 4666 
Q 3281 4666 3915 4102 
Q 4550 3538 4550 2338 
Q 4550 1131 3912 565 
Q 3275 0 1925 0 
L 628 0 
L 628 4666 
z
" transform="scale(0.015625)"/>
       <path id="DejaVuSans-50" d="M 1259 4147 
L 1259 2394 
L 2053 2394 
Q 2494 2394 2734 2622 
Q 2975 2850 2975 3272 
Q 2975 3691 2734 3919 
Q 2494 4147 2053 4147 
L 1259 4147 
z
M 628 4666 
L 2053 4666 
Q 2838 4666 3239 4311 
Q 3641 3956 3641 3272 
Q 3641 2581 3239 2228 
Q 2838 1875 2053 1875 
L 1259 1875 
L 1259 0 
L 628 0 
L 628 4666 
z
" transform="scale(0.015625)"/>
      </defs>
      <use xlink:href="#DejaVuSans-47"/>
      <use xlink:href="#DejaVuSans-44" x="77.490234"/>
      <use xlink:href="#DejaVuSans-50" x="154.492188"/>
     </g>
    </g>
    <g id="line2d_11">
     <path d="M 115.715937 31.852601 
L 126.715937 31.852601 
L 137.715937 31.852601 
" style="fill: none; stroke: #4c72b0; stroke-width: 1.5; stroke-linecap: round"/>
    </g>
    <g id="text_10">
     <!-- Unemployment -->
     <g style="fill: #262626" transform="translate(146.515938 35.702601) scale(0.11 -0.11)">
      <defs>
       <path id="DejaVuSans-55" d="M 556 4666 
L 1191 4666 
L 1191 1831 
Q 1191 1081 1462 751 
Q 1734 422 2344 422 
Q 2950 422 3222 751 
Q 3494 1081 3494 1831 
L 3494 4666 
L 4128 4666 
L 4128 1753 
Q 4128 841 3676 375 
Q 3225 -91 2344 -91 
Q 1459 -91 1007 375 
Q 556 841 556 1753 
L 556 4666 
z
" transform="scale(0.015625)"/>
       <path id="DejaVuSans-6e" d="M 3513 2113 
L 3513 0 
L 2938 0 
L 2938 2094 
Q 2938 2591 2744 2837 
Q 2550 3084 2163 3084 
Q 1697 3084 1428 2787 
Q 1159 2491 1159 1978 
L 1159 0 
L 581 0 
L 581 3500 
L 1159 3500 
L 1159 2956 
Q 1366 3272 1645 3428 
Q 1925 3584 2291 3584 
Q 2894 3584 3203 3211 
Q 3513 2838 3513 2113 
z
" transform="scale(0.015625)"/>
       <path id="DejaVuSans-6d" d="M 3328 2828 
Q 3544 3216 3844 3400 
Q 4144 3584 4550 3584 
Q 5097 3584 5394 3201 
Q 5691 2819 5691 2113 
L 5691 0 
L 5113 0 
L 5113 2094 
Q 5113 2597 4934 2840 
Q 4756 3084 4391 3084 
Q 3944 3084 3684 2787 
Q 3425 2491 3425 1978 
L 3425 0 
L 2847 0 
L 2847 2094 
Q 2847 2600 2669 2842 
Q 2491 3084 2119 3084 
Q 1678 3084 1418 2786 
Q 1159 2488 1159 1978 
L 1159 0 
L 581 0 
L 581 3500 
L 1159 3500 
L 1159 2956 
Q 1356 3278 1631 3431 
Q 1906 3584 2284 3584 
Q 2666 3584 2933 3390 
Q 3200 3197 3328 2828 
z
" transform="scale(0.015625)"/>
       <path id="DejaVuSans-70" d="M 1159 525 
L 1159 -1331 
L 581 -1331 
L 581 3500 
L 1159 3500 
L 1159 2969 
Q 1341 3281 1617 3432 
Q 1894 3584 2278 3584 
Q 2916 3584 3314 3078 
Q 3713 2572 3713 1747 
Q 3713 922 3314 415 
Q 2916 -91 2278 -91 
Q 1894 -91 1617 61 
Q 1341 213 1159 525 
z
M 3116 1747 
Q 3116 2381 2855 2742 
Q 2594 3103 2138 3103 
Q 1681 3103 1420 2742 
Q 1159 2381 1159 1747 
Q 1159 1113 1420 752 
Q 1681 391 2138 391 
Q 2594 391 2855 752 
Q 3116 1113 3116 1747 
z
" transform="scale(0.015625)"/>
       <path id="DejaVuSans-6c" d="M 603 4863 
L 1178 4863 
L 1178 0 
L 603 0 
L 603 4863 
z
" transform="scale(0.015625)"/>
       <path id="DejaVuSans-6f" d="M 1959 3097 
Q 1497 3097 1228 2736 
Q 959 2375 959 1747 
Q 959 1119 1226 758 
Q 1494 397 1959 397 
Q 2419 397 2687 759 
Q 2956 1122 2956 1747 
Q 2956 2369 2687 2733 
Q 2419 3097 1959 3097 
z
M 1959 3584 
Q 2709 3584 3137 3096 
Q 3566 2609 3566 1747 
Q 3566 888 3137 398 
Q 2709 -91 1959 -91 
Q 1206 -91 779 398 
Q 353 888 353 1747 
Q 353 2609 779 3096 
Q 1206 3584 1959 3584 
z
" transform="scale(0.015625)"/>
       <path id="DejaVuSans-79" d="M 2059 -325 
Q 1816 -950 1584 -1140 
Q 1353 -1331 966 -1331 
L 506 -1331 
L 506 -850 
L 844 -850 
Q 1081 -850 1212 -737 
Q 1344 -625 1503 -206 
L 1606 56 
L 191 3500 
L 800 3500 
L 1894 763 
L 2988 3500 
L 3597 3500 
L 2059 -325 
z
" transform="scale(0.015625)"/>
       <path id="DejaVuSans-74" d="M 1172 4494 
L 1172 3500 
L 2356 3500 
L 2356 3053 
L 1172 3053 
L 1172 1153 
Q 1172 725 1289 603 
Q 1406 481 1766 481 
L 2356 481 
L 2356 0 
L 1766 0 
Q 1100 0 847 248 
Q 594 497 594 1153 
L 594 3053 
L 172 3053 
L 172 3500 
L 594 3500 
L 594 4494 
L 1172 4494 
z
" transform="scale(0.015625)"/>
      </defs>
      <use xlink:href="#DejaVuSans-55"/>
      <use xlink:href="#DejaVuSans-6e" x="73.193359"/>
      <use xlink:href="#DejaVuSans-65" x="136.572266"/>
      <use xlink:href="#DejaVuSans-6d" x="198.095703"/>
      <use xlink:href="#DejaVuSans-70" x="295.507812"/>
      <use xlink:href="#DejaVuSans-6c" x="358.984375"/>
      <use xlink:href="#DejaVuSans-6f" x="386.767578"/>
      <use xlink:href="#DejaVuSans-79" x="447.949219"/>
      <use xlink:href="#DejaVuSans-6d" x="507.128906"/>
      <use xlink:href="#DejaVuSans-65" x="604.541016"/>
      <use xlink:href="#DejaVuSans-6e" x="666.064453"/>
      <use xlink:href="#DejaVuSans-74" x="729.443359"/>
     </g>
    </g>
   </g>
  </g>
 </g>
 <defs>
  <clipPath id="pa69a1763fc">
   <rect x="29.39" y="42.7112" width="411.52" height="252.6688"/>
  </clipPath>
 </defs>
</svg>
