<?xml version="1.0" encoding="utf-8" standalone="no"?>
<!DOCTYPE svg PUBLIC "-//W3C//DTD SVG 1.1//EN"
  "http://www.w3.org/Graphics/SVG/1.1/DTD/svg11.dtd">
<svg xmlns:xlink="http://www.w3.org/1999/xlink" width="576pt" height="288pt" viewBox="0 0 576 288" xmlns="http://www.w3.org/2000/svg" version="1.1">
 <metadata>
  <rdf:RDF xmlns:dc="http://purl.org/dc/elements/1.1/" xmlns:cc="http://creativecommons.org/ns#" xmlns:rdf="http://www.w3.org/1999/02/22-rdf-syntax-ns#">
   <cc:Work>
    <dc:type rdf:resource="http://purl.org/dc/dcmitype/StillImage"/>
    <dc:date>2024-05-07T22:49:48.760474</dc:date>
    <dc:format>image/svg+xml</dc:format>
    <dc:creator>
     <cc:Agent>
      <dc:title>Matplotlib v3.8.3, https://matplotlib.org/</dc:title>
     </cc:Agent>
    </dc:creator>
   </cc:Work>
  </rdf:RDF>
 </metadata>
 <defs>
  <style type="text/css">*{stroke-linejoin: round; stroke-linecap: butt}</style>
 </defs>
 <g id="figure_1">
  <g id="patch_1">
   <path d="M 0 288 
L 576 288 
L 576 0 
L 0 0 
L 0 288 
z
" style="fill: none"/>
  </g>
  <g id="axes_1">
   <g id="patch_2">
    <path d="M 16.425 237.78 
L 556.11 237.78 
L 556.11 36.836 
L 16.425 36.836 
L 16.425 237.78 
z
" style="fill: none"/>
   </g>
   <g id="matplotlib.axis_1">
    <g id="xtick_1">
     <g id="line2d_1">
      <path d="M 16.425 237.78 
L 16.425 36.836 
" clip-path="url(#pf15c7a70f2)" style="fill: none; stroke: #ffffff; stroke-linecap: round"/>
     </g>
     <g id="text_1">
      <!-- 2 -->
      <g style="fill: #262626" transform="translate(12.925625 255.638281) scale(0.11 -0.11)">
       <defs>
        <path id="DejaVuSans-32" d="M 1228 531 
L 3431 531 
L 3431 0 
L 469 0 
L 469 531 
Q 828 903 1448 1529 
Q 2069 2156 2228 2338 
Q 2531 2678 2651 2914 
Q 2772 3150 2772 3378 
Q 2772 3750 2511 3984 
Q 2250 4219 1831 4219 
Q 1534 4219 1204 4116 
Q 875 4013 500 3803 
L 500 4441 
Q 881 4594 1212 4672 
Q 1544 4750 1819 4750 
Q 2544 4750 2975 4387 
Q 3406 4025 3406 3419 
Q 3406 3131 3298 2873 
Q 3191 2616 2906 2266 
Q 2828 2175 2409 1742 
Q 1991 1309 1228 531 
z
" transform="scale(0.015625)"/>
       </defs>
       <use xlink:href="#DejaVuSans-32"/>
      </g>
     </g>
    </g>
    <g id="xtick_2">
     <g id="line2d_2">
      <path d="M 166.966324 237.78 
L 166.966324 36.836 
" clip-path="url(#pf15c7a70f2)" style="fill: none; stroke: #ffffff; stroke-linecap: round"/>
     </g>
     <g id="text_2">
      <!-- 4 -->
      <g style="fill: #262626" transform="translate(163.466949 255.638281) scale(0.11 -0.11)">
       <defs>
        <path id="DejaVuSans-34" d="M 2419 4116 
L 825 1625 
L 2419 1625 
L 2419 4116 
z
M 2253 4666 
L 3047 4666 
L 3047 1625 
L 3713 1625 
L 3713 1100 
L 3047 1100 
L 3047 0 
L 2419 0 
L 2419 1100 
L 313 1100 
L 313 1709 
L 2253 4666 
z
" transform="scale(0.015625)"/>
       </defs>
       <use xlink:href="#DejaVuSans-34"/>
      </g>
     </g>
    </g>
    <g id="xtick_3">
     <g id="line2d_3">
      <path d="M 255.027353 237.78 
L 255.027353 36.836 
" clip-path="url(#pf15c7a70f2)" style="fill: none; stroke: #ffffff; stroke-linecap: round"/>
     </g>
     <g id="text_3">
      <!-- 6 -->
      <g style="fill: #262626" transform="translate(251.527978 255.638281) scale(0.11 -0.11)">
       <defs>
        <path id="DejaVuSans-36" d="M 2113 2584 
Q 1688 2584 1439 2293 
Q 1191 2003 1191 1497 
Q 1191 994 1439 701 
Q 1688 409 2113 409 
Q 2538 409 2786 701 
Q 3034 994 3034 1497 
Q 3034 2003 2786 2293 
Q 2538 2584 2113 2584 
z
M 3366 4563 
L 3366 3988 
Q 3128 4100 2886 4159 
Q 2644 4219 2406 4219 
Q 1781 4219 1451 3797 
Q 1122 3375 1075 2522 
Q 1259 2794 1537 2939 
Q 1816 3084 2150 3084 
Q 2853 3084 3261 2657 
Q 3669 2231 3669 1497 
Q 3669 778 3244 343 
Q 2819 -91 2113 -91 
Q 1303 -91 875 529 
Q 447 1150 447 2328 
Q 447 3434 972 4092 
Q 1497 4750 2381 4750 
Q 2619 4750 2861 4703 
Q 3103 4656 3366 4563 
z
" transform="scale(0.015625)"/>
       </defs>
       <use xlink:href="#DejaVuSans-36"/>
      </g>
     </g>
    </g>
    <g id="xtick_4">
     <g id="line2d_4">
      <path d="M 405.568676 237.78 
L 405.568676 36.836 
" clip-path="url(#pf15c7a70f2)" style="fill: none; stroke: #ffffff; stroke-linecap: round"/>
     </g>
     <g id="text_4">
      <!-- 12 -->
      <g style="fill: #262626" transform="translate(398.569926 255.638281) scale(0.11 -0.11)">
       <defs>
        <path id="DejaVuSans-31" d="M 794 531 
L 1825 531 
L 1825 4091 
L 703 3866 
L 703 4441 
L 1819 4666 
L 2450 4666 
L 2450 531 
L 3481 531 
L 3481 0 
L 794 0 
L 794 531 
z
" transform="scale(0.015625)"/>
       </defs>
       <use xlink:href="#DejaVuSans-31"/>
       <use xlink:href="#DejaVuSans-32" x="63.623047"/>
      </g>
     </g>
    </g>
    <g id="xtick_5">
     <g id="line2d_5">
      <path d="M 556.11 237.78 
L 556.11 36.836 
" clip-path="url(#pf15c7a70f2)" style="fill: none; stroke: #ffffff; stroke-linecap: round"/>
     </g>
     <g id="text_5">
      <!-- 24 -->
      <g style="fill: #262626" transform="translate(549.11125 255.638281) scale(0.11 -0.11)">
       <use xlink:href="#DejaVuSans-32"/>
       <use xlink:href="#DejaVuSans-34" x="63.623047"/>
      </g>
     </g>
    </g>
    <g id="xtick_6"/>
    <g id="xtick_7"/>
    <g id="xtick_8"/>
    <g id="xtick_9"/>
    <g id="xtick_10"/>
    <g id="xtick_11"/>
    <g id="xtick_12"/>
    <g id="xtick_13"/>
    <g id="xtick_14"/>
    <g id="text_6">
     <!-- Years -->
     <g style="fill: #262626" transform="translate(270.436875 271.044062) scale(0.12 -0.12)">
      <defs>
       <path id="DejaVuSans-59" d="M -13 4666 
L 666 4666 
L 1959 2747 
L 3244 4666 
L 3922 4666 
L 2272 2222 
L 2272 0 
L 1638 0 
L 1638 2222 
L -13 4666 
z
" transform="scale(0.015625)"/>
       <path id="DejaVuSans-65" d="M 3597 1894 
L 3597 1613 
L 953 1613 
Q 991 1019 1311 708 
Q 1631 397 2203 397 
Q 2534 397 2845 478 
Q 3156 559 3463 722 
L 3463 178 
Q 3153 47 2828 -22 
Q 2503 -91 2169 -91 
Q 1331 -91 842 396 
Q 353 884 353 1716 
Q 353 2575 817 3079 
Q 1281 3584 2069 3584 
Q 2775 3584 3186 3129 
Q 3597 2675 3597 1894 
z
M 3022 2063 
Q 3016 2534 2758 2815 
Q 2500 3097 2075 3097 
Q 1594 3097 1305 2825 
Q 1016 2553 972 2059 
L 3022 2063 
z
" transform="scale(0.015625)"/>
       <path id="DejaVuSans-61" d="M 2194 1759 
Q 1497 1759 1228 1600 
Q 959 1441 959 1056 
Q 959 750 1161 570 
Q 1363 391 1709 391 
Q 2188 391 2477 730 
Q 2766 1069 2766 1631 
L 2766 1759 
L 2194 1759 
z
M 3341 1997 
L 3341 0 
L 2766 0 
L 2766 531 
Q 2569 213 2275 61 
Q 1981 -91 1556 -91 
Q 1019 -91 701 211 
Q 384 513 384 1019 
Q 384 1609 779 1909 
Q 1175 2209 1959 2209 
L 2766 2209 
L 2766 2266 
Q 2766 2663 2505 2880 
Q 2244 3097 1772 3097 
Q 1472 3097 1187 3025 
Q 903 2953 641 2809 
L 641 3341 
Q 956 3463 1253 3523 
Q 1550 3584 1831 3584 
Q 2591 3584 2966 3190 
Q 3341 2797 3341 1997 
z
" transform="scale(0.015625)"/>
       <path id="DejaVuSans-72" d="M 2631 2963 
Q 2534 3019 2420 3045 
Q 2306 3072 2169 3072 
Q 1681 3072 1420 2755 
Q 1159 2438 1159 1844 
L 1159 0 
L 581 0 
L 581 3500 
L 1159 3500 
L 1159 2956 
Q 1341 3275 1631 3429 
Q 1922 3584 2338 3584 
Q 2397 3584 2469 3576 
Q 2541 3569 2628 3553 
L 2631 2963 
z
" transform="scale(0.015625)"/>
       <path id="DejaVuSans-73" d="M 2834 3397 
L 2834 2853 
Q 2591 2978 2328 3040 
Q 2066 3103 1784 3103 
Q 1356 3103 1142 2972 
Q 928 2841 928 2578 
Q 928 2378 1081 2264 
Q 1234 2150 1697 2047 
L 1894 2003 
Q 2506 1872 2764 1633 
Q 3022 1394 3022 966 
Q 3022 478 2636 193 
Q 2250 -91 1575 -91 
Q 1294 -91 989 -36 
Q 684 19 347 128 
L 347 722 
Q 666 556 975 473 
Q 1284 391 1588 391 
Q 1994 391 2212 530 
Q 2431 669 2431 922 
Q 2431 1156 2273 1281 
Q 2116 1406 1581 1522 
L 1381 1569 
Q 847 1681 609 1914 
Q 372 2147 372 2553 
Q 372 3047 722 3315 
Q 1072 3584 1716 3584 
Q 2034 3584 2315 3537 
Q 2597 3491 2834 3397 
z
" transform="scale(0.015625)"/>
      </defs>
      <use xlink:href="#DejaVuSans-59"/>
      <use xlink:href="#DejaVuSans-65" x="47.833984"/>
      <use xlink:href="#DejaVuSans-61" x="109.357422"/>
      <use xlink:href="#DejaVuSans-72" x="170.636719"/>
      <use xlink:href="#DejaVuSans-73" x="211.75"/>
     </g>
    </g>
   </g>
   <g id="matplotlib.axis_2"/>
   <g id="line2d_6">
    <path d="M 555.992763 230.811399 
L 539.336259 229.659495 
L 523.866697 228.366165 
L 509.426108 226.937335 
L 499.495911 225.764448 
L 489.999963 224.427786 
L 480.901869 222.915109 
L 473.242151 221.423899 
L 465.843399 219.74446 
L 459.696237 218.127595 
L 452.737763 216.048778 
L 446.945813 214.086758 
L 441.304322 211.93409 
L 435.805668 209.572828 
L 430.442797 206.990351 
L 425.209165 204.17963 
L 420.098689 201.140624 
L 415.105706 197.896466 
L 410.224933 194.464687 
L 404.665959 190.251966 
L 399.245725 185.859104 
L 392.4699 180.044435 
L 383.752266 172.224937 
L 366.642224 156.694521 
L 360.798323 151.749888 
L 355.732549 147.748487 
L 351.394897 144.605315 
L 347.142183 141.801993 
L 342.971145 139.329388 
L 338.878705 137.171492 
L 334.861955 135.30589 
L 330.918146 133.720197 
L 327.044676 132.428489 
L 323.239081 131.401607 
L 319.499021 130.61965 
L 315.822279 130.069409 
L 312.206746 129.744753 
L 298.318028 128.891489 
L 295.454006 128.438454 
L 293.095837 127.886811 
L 290.762998 127.121415 
L 288.454951 126.111096 
L 285.717286 124.675108 
L 283.461967 123.23061 
L 281.229828 121.516147 
L 279.020397 119.501701 
L 276.833216 117.169004 
L 274.667842 114.511801 
L 272.523844 111.535945 
L 269.978675 107.566978 
L 267.462988 103.148605 
L 264.976108 98.310903 
L 262.110285 92.239417 
L 258.480364 83.965152 
L 251.785095 67.935887 
L 247.941008 59.087986 
L 245.290066 53.513438 
L 243.043302 49.278899 
L 241.188592 46.209211 
L 239.349587 43.6165 
L 237.889513 41.921835 
L 236.439189 40.589591 
L 234.998486 39.621634 
L 233.924195 39.140257 
L 232.855193 38.876874 
L 231.791426 38.837758 
L 230.732845 39.027866 
L 229.679398 39.450802 
L 228.631036 40.108806 
L 227.58771 41.002737 
L 226.549373 42.132071 
L 225.1726 44.000541 
L 223.804499 46.275659 
L 222.444963 48.944875 
L 220.757423 52.804927 
L 219.082895 57.170288 
L 217.090356 62.981712 
L 214.788599 70.399139 
L 211.542123 81.739477 
L 205.191225 104.157295 
L 202.392808 113.28857 
L 200.24092 119.629036 
L 198.413264 124.41087 
L 196.600859 128.543958 
L 194.803454 132.029357 
L 193.316896 134.434376 
L 192.134933 135.943296 
L 190.959368 137.091988 
L 189.790131 137.904191 
L 188.627155 138.403565 
L 187.470373 138.613471 
L 186.31972 138.556748 
L 185.175132 138.255505 
L 184.036543 137.730904 
L 182.621651 136.791437 
L 180.935858 135.32847 
L 178.708298 133.049183 
L 175.409218 129.287794 
L 172.159504 125.655504 
L 170.286052 123.849191 
L 168.692999 122.57208 
L 167.374323 121.742225 
L 166.063606 121.164938 
L 165.020698 120.906236 
L 163.982774 120.842719 
L 162.949786 120.985179 
L 161.921688 121.341749 
L 160.898435 121.917828 
L 159.879979 122.716028 
L 158.613589 124.016714 
L 157.354541 125.653042 
L 156.10275 127.622715 
L 154.610062 130.398212 
L 152.881461 134.146611 
L 150.922618 138.992701 
L 148.498651 145.657262 
L 145.149914 155.60585 
L 140.686242 168.77322 
L 138.373278 174.911332 
L 136.540481 179.218633 
L 134.949373 182.450982 
L 133.369837 185.148855 
L 132.025033 187.024191 
L 130.688504 188.496235 
L 129.580979 189.421639 
L 128.479073 190.082216 
L 127.382729 190.494357 
L 126.291892 190.681434 
L 125.206507 190.666142 
L 123.911163 190.418163 
L 122.40963 189.878714 
L 120.494216 188.933408 
L 113.40693 185.211943 
L 111.772414 184.73293 
L 110.150108 184.482182 
L 108.740463 184.473424 
L 106.941404 184.708999 
L 104.172156 185.364801 
L 101.826298 185.852715 
L 99.890588 186.045648 
L 98.354347 185.978653 
L 97.018992 185.70335 
L 95.691797 185.20218 
L 94.372664 184.47223 
L 92.874829 183.367995 
L 91.387253 181.984858 
L 89.358332 179.751616 
L 83.561551 173.107643 
L 81.958701 171.711716 
L 80.720167 170.901108 
L 79.488656 170.367762 
L 78.438604 170.146894 
L 77.393605 170.163956 
L 76.35361 170.426458 
L 75.318571 170.927633 
L 74.288442 171.656267 
L 73.092767 172.773081 
L 71.734294 174.36266 
L 70.2161 176.488656 
L 68.541572 179.219608 
L 66.38381 183.182287 
L 62.780353 190.371876 
L 60.036244 195.576457 
L 58.119892 198.765054 
L 56.535747 200.988332 
L 55.11983 202.640075 
L 53.86894 203.781721 
L 52.78029 204.510856 
L 51.697069 204.986266 
L 50.619225 205.217805 
L 49.546703 205.210036 
L 48.479452 204.982096 
L 47.266123 204.496702 
L 45.758933 203.639194 
L 43.220473 201.874956 
L 41.005031 200.43621 
L 39.540527 199.757649 
L 38.375992 199.458587 
L 37.362121 199.414151 
L 36.352961 199.596268 
L 35.348469 200.015096 
L 34.348601 200.678555 
L 33.211503 201.736249 
L 32.080327 203.10144 
L 30.674593 205.19033 
L 28.999634 208.1311 
L 26.236426 213.550773 
L 23.372404 218.97282 
L 21.61818 221.868754 
L 20.011377 224.10641 
L 18.681396 225.637231 
L 17.35951 226.811408 
L 16.438953 227.456914 
L 16.438953 227.456914 
" style="fill: none; stroke: #1a1a1a; stroke-width: 1.5; stroke-linecap: round"/>
   </g>
   <g id="line2d_7">
    <path d="M 554.623686 227.6368 
L 536.639467 226.114868 
L 525.427418 224.92292 
L 516.0703 223.726768 
L 507.099724 222.352724 
L 499.694965 220.992635 
L 493.711523 219.696622 
L 487.888514 218.220191 
L 482.217559 216.529515 
L 477.785054 214.997034 
L 473.441205 213.28448 
L 469.182534 211.397705 
L 465.005767 209.32227 
L 460.907811 207.038513 
L 456.885747 204.528418 
L 452.936816 201.775782 
L 449.058406 198.766368 
L 445.248041 195.488041 
L 441.503375 191.930877 
L 437.822182 188.087263 
L 434.202344 183.951892 
L 430.641851 179.521121 
L 427.138788 174.794333 
L 423.691331 169.773518 
L 420.297743 164.473438 
L 416.128993 157.522308 
L 412.038755 150.236528 
L 408.024126 142.652552 
L 403.302522 133.226527 
L 397.920666 121.91399 
L 391.191498 107.181534 
L 380.419775 83.493099 
L 375.570143 73.380841 
L 371.497801 65.404638 
L 368.161557 59.37129 
L 365.528976 55.008823 
L 362.927925 51.102534 
L 360.357655 47.68825 
L 358.44972 45.469457 
L 356.5584 43.556641 
L 354.683408 41.959719 
L 352.824465 40.686481 
L 350.981298 39.740232 
L 349.153641 39.125297 
L 347.341237 38.844599 
L 346.141315 38.843753 
L 344.947987 38.991813 
L 343.170199 39.492698 
L 341.406845 40.326398 
L 339.657693 41.487835 
L 337.922515 42.97018 
L 336.201091 44.764886 
L 334.493204 46.861734 
L 332.798642 49.248892 
L 330.559599 52.860004 
L 328.343405 56.927447 
L 326.149596 61.411071 
L 323.438135 67.533298 
L 320.760108 74.151859 
L 317.589464 82.682719 
L 313.94795 93.242842 
L 309.353967 107.371395 
L 295.179373 151.627735 
L 291.426619 162.332676 
L 288.195324 170.844594 
L 285.463398 177.471503 
L 282.76541 183.470743 
L 280.100528 188.850865 
L 277.467947 193.635791 
L 274.866896 197.864233 
L 272.296626 201.588873 
L 269.756419 204.875057 
L 267.245579 207.729207 
L 264.763436 210.180128 
L 262.309339 212.298824 
L 259.480841 214.434427 
L 256.292743 216.53446 
L 252.761199 218.575325 
L 248.903456 220.536153 
L 240.282375 224.476096 
L 234.480756 226.945284 
L 229.878452 228.683318 
L 225.715029 230.025319 
L 221.967427 230.988145 
L 218.283395 231.692494 
L 214.987653 232.106367 
L 211.741176 232.304971 
L 208.225224 232.285865 
L 204.765285 232.043704 
L 200.746084 231.521416 
L 195.899351 230.637096 
L 183.668534 228.266181 
L 180.018276 227.854535 
L 176.702407 227.704308 
L 173.436402 227.793779 
L 170.218784 228.117031 
L 166.785998 228.69649 
L 162.634183 229.643014 
L 155.057186 231.659318 
L 150.148836 232.816649 
L 146.300492 233.491691 
L 142.753567 233.871578 
L 139.032959 234.034574 
L 134.922075 233.980118 
L 128.898061 233.642661 
L 121.755303 233.289014 
L 117.537981 233.309695 
L 113.400995 233.551588 
L 108.939517 234.038498 
L 101.442825 235.131167 
L 95.324527 235.912352 
L 90.477274 236.296989 
L 85.555535 236.461647 
L 79.512348 236.429528 
L 72.27217 236.161197 
L 58.318945 235.553661 
L 53.44524 235.659373 
L 33.552369 236.413787 
L 27.674575 236.662983 
L 16.506817 237.325325 
L 16.506817 237.325325 
" style="fill: none; stroke: #1a1a1a; stroke-opacity: 0.5; stroke-width: 0.5; stroke-linecap: round"/>
   </g>
   <g id="line2d_8">
    <path d="M 554.554353 230.60264 
L 512.110979 229.645669 
L 483.270633 228.986153 
L 470.170066 228.439701 
L 460.838478 227.839784 
L 452.867484 227.101278 
L 446.12505 226.248687 
L 439.585647 225.189542 
L 434.133012 224.090982 
L 428.813924 222.791384 
L 423.621998 221.271091 
L 418.551296 219.514891 
L 414.414309 217.863502 
L 410.354654 216.037544 
L 406.369493 214.036074 
L 401.68186 211.410807 
L 397.093269 208.56199 
L 392.599621 205.498638 
L 388.197067 202.2414 
L 383.171069 198.232181 
L 377.565978 193.437853 
L 371.428468 187.880652 
L 362.213167 179.188504 
L 352.755132 170.313438 
L 347.271904 165.462138 
L 342.511489 161.558701 
L 338.430036 158.508184 
L 334.423871 155.820829 
L 330.490267 153.483945 
L 326.626641 151.483365 
L 322.830548 149.797831 
L 319.099667 148.387213 
L 314.912835 147.036377 
L 302.32616 143.19486 
L 299.410878 141.999247 
L 296.534211 140.556976 
L 294.165755 139.113291 
L 291.82285 137.405478 
L 289.504949 135.393894 
L 287.211525 133.041317 
L 284.942067 130.317549 
L 282.696078 127.275398 
L 280.473077 123.913212 
L 278.2726 120.212852 
L 275.661123 115.333977 
L 273.080675 110.007912 
L 270.108396 103.305727 
L 266.760581 95.164698 
L 261.833673 82.520515 
L 255.039837 65.0143 
L 251.914816 57.640672 
L 249.600209 52.715572 
L 247.690036 49.088761 
L 245.796518 45.948144 
L 244.2935 43.81275 
L 242.800812 42.03351 
L 241.318313 40.631986 
L 240.213043 39.838893 
L 239.113368 39.272478 
L 238.019234 38.934439 
L 236.930584 38.825545 
L 235.847363 38.945632 
L 234.769519 39.293608 
L 233.696997 39.867454 
L 232.629746 40.664235 
L 231.214853 42.066649 
L 229.809119 43.846975 
L 228.412424 45.991045 
L 227.024655 48.482154 
L 225.30232 52.054196 
L 223.253388 56.933066 
L 221.223605 62.382928 
L 218.879254 69.347101 
L 215.901802 79.00729 
L 211.671844 93.662479 
L 205.947744 113.434685 
L 202.83169 123.339626 
L 200.370641 130.42194 
L 198.239865 135.900996 
L 196.429978 140.027962 
L 194.635048 143.621365 
L 192.854832 146.694686 
L 191.089088 149.308005 
L 189.628523 151.095526 
L 188.177715 152.525872 
L 186.736534 153.633204 
L 185.304853 154.451655 
L 183.882547 155.014825 
L 182.469496 155.355289 
L 180.785881 155.513488 
L 179.115217 155.445509 
L 177.457307 155.182344 
L 174.721941 154.454398 
L 167.76714 152.524964 
L 165.410677 152.155523 
L 163.595387 152.080822 
L 161.795144 152.242473 
L 160.0097 152.648322 
L 158.490916 153.2078 
L 156.982679 153.973823 
L 155.484844 154.953202 
L 153.750327 156.36926 
L 152.029552 158.077166 
L 150.079503 160.348297 
L 148.146808 162.964976 
L 145.992887 166.288755 
L 143.624432 170.379812 
L 140.815963 175.713126 
L 137.126953 183.254009 
L 126.639343 204.996253 
L 123.825743 210.245685 
L 121.260533 214.594169 
L 118.935414 218.115487 
L 116.843055 220.881604 
L 114.977012 222.984557 
L 113.126867 224.746868 
L 111.495421 226.015652 
L 109.876139 227.0046 
L 108.26884 227.724899 
L 106.673349 228.203237 
L 105.089494 228.480885 
L 103.321355 228.552443 
L 101.373492 228.399838 
L 98.86711 227.958447 
L 95.443805 227.109761 
L 88.937984 225.474982 
L 78.742982 222.982088 
L 74.075869 221.506879 
L 66.678754 219.128498 
L 62.423293 218.02068 
L 54.623205 216.040259 
L 52.445112 215.179899 
L 49.982319 213.975267 
L 47.093568 212.293296 
L 42.905294 209.838526 
L 41.134752 209.069134 
L 39.816254 208.712033 
L 38.650939 208.596086 
L 37.491842 208.694246 
L 36.338898 209.013377 
L 35.192043 209.560579 
L 33.909029 210.447621 
L 32.633549 211.603353 
L 31.084734 213.324768 
L 29.129355 215.866403 
L 22.016861 225.598441 
L 20.408074 227.230523 
L 18.943749 228.408228 
L 17.489231 229.280375 
L 16.437484 229.729858 
L 16.437484 229.729858 
" style="fill: none; stroke: #1a1a1a; stroke-opacity: 0.5; stroke-width: 0.5; stroke-linecap: round"/>
   </g>
   <g id="line2d_9">
    <path d="M 555.992763 235.70436 
L 539.336259 235.095084 
L 526.598623 234.429421 
L 515.871246 233.666553 
L 506.90067 232.823226 
L 499.495911 231.902699 
L 493.512469 230.965047 
L 487.68946 229.849019 
L 482.018505 228.529438 
L 476.491866 226.978371 
L 472.169629 225.550564 
L 467.931734 223.938858 
L 463.774952 222.126223 
L 459.696237 220.099396 
L 455.692709 217.877434 
L 451.761648 215.452488 
L 447.900475 212.81138 
L 444.106751 209.943703 
L 440.378157 206.841921 
L 436.712497 203.501438 
L 433.10768 199.920643 
L 429.56172 196.100925 
L 426.072726 192.046659 
L 422.638896 187.765166 
L 418.421575 182.122357 
L 414.284588 176.210605 
L 409.42203 168.815884 
L 404.665959 161.171009 
L 398.482332 150.763384 
L 379.521252 118.411197 
L 375.371089 111.834361 
L 371.298747 105.811791 
L 367.962503 101.280066 
L 364.676733 97.232668 
L 362.083446 94.361788 
L 359.520759 91.82627 
L 356.987958 89.641895 
L 354.484354 87.834335 
L 352.625411 86.72365 
L 350.782244 85.819763 
L 348.954587 85.118842 
L 347.142183 84.616199 
L 345.344778 84.306307 
L 343.562126 84.182833 
L 341.793987 84.238669 
L 340.040126 84.465973 
L 337.723462 85.020923 
L 335.431248 85.843444 
L 333.162975 86.909683 
L 330.918146 88.191786 
L 328.144351 90.071925 
L 325.405535 92.215083 
L 322.163904 95.057663 
L 318.442157 98.630046 
L 312.719581 104.474658 
L 307.644929 109.604465 
L 304.656094 112.336381 
L 301.707833 114.714396 
L 299.281157 116.371261 
L 297.359152 117.452681 
L 295.454006 118.293243 
L 293.565427 118.87141 
L 291.693129 119.166359 
L 290.299422 119.189689 
L 288.454951 118.964757 
L 286.626012 118.491184 
L 284.812346 117.735485 
L 283.0137 116.690886 
L 281.229828 115.355625 
L 279.460488 113.732964 
L 277.705447 111.831162 
L 275.531402 109.081898 
L 273.378905 105.953635 
L 270.823755 101.766904 
L 268.298317 97.15681 
L 265.801908 92.142847 
L 262.517381 85.014848 
L 257.681888 73.899179 
L 251.39761 59.488038 
L 248.704402 53.870465 
L 246.422224 49.610806 
L 244.538559 46.51044 
L 242.671091 43.868222 
L 241.188592 42.116744 
L 239.716144 40.714594 
L 238.253612 39.687133 
L 237.16314 39.177641 
L 236.078116 38.894412 
L 234.998486 38.826044 
L 233.924195 38.970972 
L 232.855193 39.336619 
L 231.791426 39.928856 
L 230.732845 40.751965 
L 229.679398 41.808623 
L 228.282704 43.582384 
L 226.894934 45.771024 
L 225.515975 48.367417 
L 223.804499 52.167277 
L 222.106404 56.550248 
L 220.421483 61.477416 
L 218.416682 68.044704 
L 216.1009 76.466564 
L 213.484179 86.840775 
L 209.617278 103.175943 
L 203.321613 129.748272 
L 200.24092 141.803625 
L 197.807447 150.497102 
L 195.400938 158.253889 
L 193.316896 164.27009 
L 191.546355 168.718376 
L 189.790131 172.514087 
L 188.047994 175.709412 
L 186.31972 178.355656 
L 184.889924 180.177106 
L 183.46948 181.678573 
L 182.058265 182.884739 
L 180.376822 183.993209 
L 178.708298 184.822446 
L 177.052494 185.415091 
L 175.136544 185.86495 
L 172.967385 186.146952 
L 169.488065 186.341214 
L 164.760751 186.635499 
L 162.178257 187.043686 
L 159.879979 187.634168 
L 157.605768 188.454594 
L 155.604046 189.443477 
L 153.620606 190.661905 
L 151.410675 192.275537 
L 148.981285 194.332374 
L 145.863166 197.31341 
L 141.852027 201.489864 
L 132.24859 211.629548 
L 128.699007 214.978377 
L 126.074381 217.190827 
L 123.481094 219.110783 
L 120.918406 220.748529 
L 118.385605 222.108271 
L 115.674665 223.320468 
L 112.997146 224.281795 
L 109.948169 225.127654 
L 107.140565 225.666536 
L 104.172156 226.007835 
L 101.243771 226.117758 
L 98.354347 226.014711 
L 95.880901 225.721398 
L 93.435307 225.208215 
L 90.832029 224.435647 
L 87.712289 223.265513 
L 77.046387 219.042776 
L 74.631276 218.459582 
L 72.412469 218.148555 
L 70.2161 218.0744 
L 68.041721 218.222606 
L 65.888895 218.596858 
L 63.594086 219.239852 
L 61.323272 220.117575 
L 58.756799 221.366211 
L 55.905311 223.008789 
L 51.851485 225.614428 
L 44.710089 230.247877 
L 41.888498 231.784636 
L 39.394618 232.908369 
L 36.92905 233.78573 
L 34.491158 234.420818 
L 31.798452 234.885145 
L 28.999634 235.143419 
L 26.099184 235.199437 
L 23.236959 235.032963 
L 20.679434 234.671686 
L 17.887299 234.038774 
L 16.438953 233.636223 
L 16.438953 233.636223 
" style="fill: none; stroke: #1a1a1a; stroke-opacity: 0.5; stroke-width: 0.5; stroke-linecap: round"/>
   </g>
   <g id="line2d_10">
    <path d="M 555.992763 234.592153 
L 505.648878 233.419413 
L 493.512469 232.926089 
L 484.269149 232.348046 
L 476.491866 231.656962 
L 470.040345 230.884621 
L 463.774952 229.90441 
L 458.688415 228.902863 
L 453.718284 227.73622 
L 448.859352 226.383557 
L 444.106751 224.821952 
L 439.455926 223.031388 
L 434.90261 220.995052 
L 430.442797 218.69958 
L 426.939734 216.669968 
L 423.492277 214.464981 
L 419.258513 211.468087 
L 415.105706 208.243339 
L 411.030816 204.804751 
L 407.030975 201.16903 
L 402.326419 196.581271 
L 396.963548 190.992577 
L 390.257468 183.615199 
L 383.041348 175.363121 
L 373.325373 163.757399 
L 360.158602 148.109286 
L 353.862937 140.862566 
L 347.142183 133.532457 
L 320.029389 104.40834 
L 306.644073 89.723449 
L 280.343356 61.065899 
L 274.237346 54.859127 
L 270.400804 51.233716 
L 265.801908 47.222076 
L 262.517381 44.616928 
L 259.68361 42.655603 
L 257.283749 41.256115 
L 254.910116 40.140854 
L 252.562145 39.320212 
L 251.010815 38.962551 
L 249.470488 38.825545 
L 247.941008 38.91326 
L 246.422224 39.229447 
L 244.913988 39.780516 
L 243.416153 40.575477 
L 241.928577 41.625854 
L 240.451121 42.945579 
L 238.983647 44.550857 
L 237.526023 46.460018 
L 236.078116 48.683482 
L 234.281702 51.828198 
L 232.500025 55.349696 
L 230.732845 59.268966 
L 228.631036 64.506599 
L 226.549373 70.313696 
L 224.145717 77.751675 
L 221.430867 86.988192 
L 218.416682 98.119914 
L 213.159295 118.650403 
L 209.298123 133.276311 
L 206.761624 141.990308 
L 204.566231 148.785098 
L 202.701969 153.918277 
L 200.853573 158.328513 
L 199.32517 161.418612 
L 197.807447 163.969141 
L 196.600859 165.628043 
L 195.400938 166.962268 
L 194.20761 167.993944 
L 193.316896 168.563537 
L 192.429822 168.924697 
L 191.546355 169.090508 
L 190.666468 169.073983 
L 189.498802 168.790541 
L 188.337381 168.235727 
L 187.182138 167.438518 
L 185.746672 166.14331 
L 184.320631 164.56359 
L 182.621651 162.357651 
L 180.097843 158.635561 
L 173.507647 148.752294 
L 171.354616 146.00121 
L 169.488065 143.998005 
L 167.900833 142.625823 
L 166.586944 141.756833 
L 165.280956 141.157284 
L 163.982774 140.840365 
L 162.949786 140.795738 
L 161.921688 140.93852 
L 160.898435 141.267875 
L 159.62611 141.936987 
L 158.361195 142.878045 
L 157.103605 144.106207 
L 155.604046 145.944833 
L 154.11477 148.147797 
L 152.390091 151.127304 
L 150.435656 154.993889 
L 148.257735 159.816636 
L 144.912682 167.888528 
L 138.603469 183.247356 
L 136.084688 188.722565 
L 134.045375 192.670805 
L 132.24859 195.712722 
L 130.466547 198.291146 
L 128.919165 200.171452 
L 127.382729 201.698941 
L 125.857087 202.88417 
L 124.342087 203.768113 
L 122.837581 204.397907 
L 121.130812 204.872642 
L 119.016042 205.212806 
L 116.713334 205.340477 
L 112.997146 205.28569 
L 108.53983 205.028484 
L 105.948328 204.694715 
L 104.172156 204.248497 
L 102.605439 203.619068 
L 101.243771 202.83987 
L 99.890588 201.827748 
L 98.545784 200.548592 
L 97.209255 198.973408 
L 95.880901 197.082229 
L 94.372664 194.521104 
L 92.688324 191.182288 
L 90.832029 186.993028 
L 88.442324 180.995155 
L 82.491671 165.724003 
L 80.720167 161.876138 
L 79.313294 159.29498 
L 78.089712 157.457753 
L 77.046387 156.249594 
L 76.008049 155.397888 
L 75.146544 154.963647 
L 74.288442 154.780288 
L 73.433718 154.846094 
L 72.582344 155.157371 
L 71.734294 155.708497 
L 70.720986 156.672771 
L 69.712384 157.953158 
L 68.541572 159.824433 
L 67.211183 162.416547 
L 65.724173 165.839315 
L 63.920435 170.619259 
L 61.323272 178.231494 
L 56.851653 191.426986 
L 54.806431 196.768336 
L 53.090776 200.672389 
L 51.542764 203.678164 
L 50.005707 206.188332 
L 48.783846 207.797346 
L 47.568821 209.072931 
L 46.209993 210.171021 
L 44.859614 210.96814 
L 43.51758 211.508214 
L 41.741004 211.9743 
L 39.686534 212.278923 
L 31.798452 213.17181 
L 29.695964 213.80672 
L 27.613636 214.675315 
L 24.731515 216.14501 
L 22.156434 217.709558 
L 19.744728 219.406561 
L 16.438953 222.053714 
L 16.438953 222.053714 
" style="fill: none; stroke: #1a1a1a; stroke-opacity: 0.5; stroke-width: 0.5; stroke-linecap: round"/>
   </g>
   <g id="line2d_11">
    <path d="M 555.288759 234.21868 
L 543.049734 233.2096 
L 532.878668 232.150072 
L 523.162693 230.909087 
L 513.862822 229.474619 
L 506.196665 228.084716 
L 498.791907 226.542091 
L 491.631306 224.846013 
L 484.699274 222.998213 
L 477.98167 221.002471 
L 471.465624 218.86454 
L 464.102708 216.200812 
L 456.981244 213.371655 
L 450.085895 210.410008 
L 442.464579 206.895203 
L 434.198605 202.825588 
L 424.505161 197.78379 
L 400.848134 185.302622 
L 394.751307 182.382642 
L 389.553464 180.11149 
L 383.761514 177.843332 
L 376.041679 175.036527 
L 360.094318 169.407363 
L 356.283954 167.762794 
L 352.539288 165.941009 
L 349.46731 164.228649 
L 346.438178 162.277852 
L 344.044929 160.509182 
L 341.677764 158.527918 
L 339.336121 156.310836 
L 337.019457 153.837124 
L 334.727244 151.088577 
L 332.45897 148.049774 
L 329.656541 143.887083 
L 326.889813 139.342666 
L 324.157887 134.417836 
L 321.4599 129.131688 
L 318.265942 122.361776 
L 314.59807 113.992045 
L 309.971465 102.79161 
L 304.943805 90.100284 
L 298.095054 72.810383 
L 294.750001 64.91288 
L 291.923256 58.747966 
L 289.595418 54.113707 
L 287.292265 50.005218 
L 285.467169 47.155825 
L 283.657281 44.710342 
L 281.862352 42.680251 
L 280.082135 41.074044 
L 278.756484 40.15094 
L 277.438875 39.470517 
L 276.129211 39.032916 
L 274.827398 38.837278 
L 273.533341 38.881757 
L 272.246949 39.163524 
L 270.968131 39.678783 
L 269.6968 40.422652 
L 268.432867 41.385697 
L 266.758984 42.99259 
L 265.097903 44.949568 
L 263.449431 47.234425 
L 261.406281 50.512642 
L 259.382173 54.207404 
L 256.977884 59.102952 
L 254.206111 65.301519 
L 250.693605 73.739511 
L 246.476284 84.507812 
L 237.549608 107.482394 
L 233.577697 117.077239 
L 230.381128 124.189312 
L 226.883706 131.396676 
L 223.100495 138.666914 
L 218.712765 146.628237 
L 215.396896 152.158696 
L 212.45529 156.645452 
L 209.873563 160.171441 
L 207.957211 162.455725 
L 206.057619 164.361648 
L 204.174499 165.966147 
L 202.307566 167.257248 
L 200.763954 168.050457 
L 199.231236 168.559692 
L 198.012803 168.751679 
L 196.801166 168.747782 
L 195.596252 168.54799 
L 194.397986 168.156124 
L 192.909391 167.408354 
L 191.725817 166.582872 
L 190.255363 165.271383 
L 188.794798 163.676318 
L 187.054987 161.431987 
L 185.042667 158.43096 
L 182.765475 154.613398 
L 179.115217 147.952559 
L 175.251592 141.009222 
L 173.074278 137.486937 
L 171.186872 134.838499 
L 169.582047 132.976263 
L 168.253693 131.733412 
L 166.933414 130.795532 
L 165.88294 130.283189 
L 164.837521 129.994335 
L 163.797111 129.937067 
L 162.761661 130.116627 
L 161.731124 130.535353 
L 160.705454 131.192653 
L 159.684605 132.085015 
L 158.415255 133.520713 
L 157.15328 135.305769 
L 155.898596 137.443839 
L 154.402481 140.43828 
L 152.66994 144.457329 
L 150.70667 149.6341 
L 148.27728 156.773406 
L 145.159162 166.71828 
L 138.591505 187.855558 
L 136.064732 195.183574 
L 134.019016 200.511233 
L 131.99239 205.162307 
L 130.206684 208.705531 
L 128.435541 211.699255 
L 126.897551 213.867108 
L 125.370376 215.613724 
L 123.853865 216.973929 
L 122.347869 217.986086 
L 120.852244 218.689808 
L 119.366849 219.124818 
L 117.891543 219.330904 
L 116.426191 219.314165 
L 114.763521 219.050129 
L 113.113483 218.54944 
L 111.475887 217.820763 
L 109.850545 216.855205 
L 107.835826 215.351744 
L 106.03842 213.732693 
L 104.255768 211.82737 
L 102.487629 209.614818 
L 100.539767 206.80105 
L 98.417104 203.351104 
L 95.745196 198.554071 
L 89.205792 186.556158 
L 87.372995 183.754496 
L 85.917812 181.902994 
L 84.652476 180.611438 
L 83.39447 179.642241 
L 82.321948 179.083481 
L 81.254697 178.781517 
L 80.192664 178.734117 
L 79.1358 178.93173 
L 78.084053 179.357691 
L 77.037375 180.004036 
L 75.822593 181.038474 
L 74.442539 182.540464 
L 72.900389 184.562636 
L 71.030289 187.397843 
L 68.338571 191.953759 
L 59.9748 206.40248 
L 57.893392 209.400611 
L 56.147649 211.554499 
L 54.415825 213.35126 
L 52.853335 214.634471 
L 51.456641 215.490878 
L 50.068871 216.070589 
L 48.842699 216.354075 
L 47.62341 216.426089 
L 46.259843 216.284255 
L 44.754742 215.890558 
L 43.111089 215.22476 
L 40.154131 213.718977 
L 37.381827 212.370989 
L 35.648957 211.77703 
L 34.215386 211.506535 
L 32.933213 211.48365 
L 31.658565 211.695284 
L 30.391354 212.146479 
L 29.131494 212.821964 
L 27.601525 213.91683 
L 25.66975 215.614126 
L 22.532955 218.705782 
L 18.641364 222.496624 
L 16.523758 224.263232 
L 16.523758 224.263232 
" style="fill: none; stroke: #1a1a1a; stroke-opacity: 0.5; stroke-width: 0.5; stroke-linecap: round"/>
   </g>
   <g id="line2d_12">
    <path d="M 556.002011 235.21408 
L 542.280488 234.589096 
L 530.771293 233.855649 
L 521.177957 233.039108 
L 511.990506 232.018434 
L 504.413509 230.946284 
L 498.29521 229.865195 
L 492.344558 228.573472 
L 486.552609 227.045686 
L 482.027753 225.634061 
L 477.595248 224.03641 
L 473.251399 222.235169 
L 468.992729 220.211775 
L 464.815961 217.946833 
L 460.718005 215.420308 
L 456.695942 212.611705 
L 452.747011 209.549047 
L 448.8686 206.254253 
L 445.058235 202.713449 
L 441.31357 198.917813 
L 437.632376 194.863662 
L 434.012539 190.552486 
L 430.452045 185.99093 
L 426.948982 181.190737 
L 422.648144 174.880855 
L 418.430823 168.267811 
L 414.293836 161.399707 
L 409.431278 152.891479 
L 403.112716 141.302256 
L 386.628688 110.656737 
L 382.341998 103.327549 
L 378.833275 97.696532 
L 375.380337 92.565966 
L 372.656976 88.867714 
L 369.967341 85.561882 
L 367.310608 82.671411 
L 364.685981 80.213363 
L 362.738119 78.660468 
L 360.807571 77.359529 
L 358.894032 76.310976 
L 356.997206 75.513281 
L 355.116803 74.962964 
L 353.252541 74.667469 
L 351.404145 74.632925 
L 349.571347 74.851221 
L 347.753887 75.31321 
L 345.95151 76.008761 
L 344.163967 76.926808 
L 342.391016 78.05541 
L 340.049374 79.8656 
L 337.73271 81.995112 
L 335.440496 84.409655 
L 332.608836 87.773659 
L 329.813621 91.453371 
L 326.506168 96.192126 
L 322.173152 102.858343 
L 309.164161 123.252812 
L 306.154618 127.46909 
L 303.678135 130.598625 
L 301.229572 133.306175 
L 299.290405 135.146255 
L 297.3684 136.678978 
L 295.463254 137.888829 
L 293.574675 138.761149 
L 292.16894 139.185623 
L 290.772246 139.40717 
L 289.384476 139.420816 
L 288.005518 139.221999 
L 286.63526 138.80659 
L 285.273592 138.170462 
L 283.920409 137.337244 
L 282.129181 135.924187 
L 280.352604 134.164333 
L 278.590443 132.060435 
L 276.842464 129.619948 
L 275.108441 126.854963 
L 272.960202 122.968123 
L 270.833003 118.642495 
L 268.307565 112.946413 
L 265.811156 106.792257 
L 262.934488 99.12927 
L 258.889954 87.65936 
L 251.020063 65.15077 
L 248.331618 58.113329 
L 246.05343 52.744965 
L 244.173027 48.825911 
L 242.308765 45.474816 
L 240.828791 43.2414 
L 239.358835 41.435891 
L 238.26286 40.378349 
L 237.172388 39.586559 
L 236.087364 39.070195 
L 235.007734 38.838226 
L 233.933443 38.89887 
L 232.864441 39.243997 
L 231.800674 39.858686 
L 230.742093 40.746956 
L 229.688646 41.910896 
L 228.640284 43.350583 
L 227.250294 45.695479 
L 225.869143 48.516826 
L 224.49672 51.798303 
L 222.793298 56.512539 
L 221.103132 61.853793 
L 219.092143 68.991541 
L 216.769285 78.177943 
L 214.144658 89.560614 
L 210.266247 107.516257 
L 205.200473 130.84151 
L 202.402056 142.683399 
L 199.944489 152.142749 
L 197.816695 159.425276 
L 196.009318 164.876784 
L 194.216858 169.60118 
L 192.43907 173.641507 
L 190.968616 176.51293 
L 189.50805 178.844835 
L 188.057242 180.680521 
L 186.616061 182.081458 
L 185.18438 183.106937 
L 183.762075 183.813203 
L 182.349023 184.25263 
L 180.945106 184.472946 
L 179.272298 184.507365 
L 176.786998 184.286638 
L 166.596192 183.053986 
L 164.510364 183.104897 
L 162.187505 183.375869 
L 159.635358 183.892941 
L 156.611849 184.748191 
L 153.629854 185.820295 
L 150.688248 187.095868 
L 147.785953 188.600498 
L 145.159162 190.228945 
L 142.329347 192.237889 
L 139.535929 194.496628 
L 136.549729 197.21272 
L 133.604031 200.169615 
L 130.254064 203.873725 
L 126.083629 208.832679 
L 121.14006 214.735517 
L 117.975577 218.199842 
L 115.476774 220.600562 
L 113.211189 222.506453 
L 111.171876 223.94196 
L 109.151534 225.076508 
L 107.349157 225.848561 
L 105.759505 226.287786 
L 104.181404 226.498117 
L 102.614687 226.493889 
L 101.05919 226.280451 
L 99.514756 225.85397 
L 97.408933 224.9952 
L 95.323332 223.895607 
L 92.884077 222.334123 
L 88.817511 219.397979 
L 85.726502 217.254551 
L 83.749626 216.140139 
L 81.967949 215.383585 
L 80.200769 214.876567 
L 78.447852 214.610611 
L 76.362858 214.544218 
L 73.955396 214.699144 
L 66.723629 215.43168 
L 63.929683 215.353765 
L 59.404827 215.200579 
L 57.494095 215.364352 
L 55.914559 215.713142 
L 54.502732 216.234193 
L 52.944725 217.061742 
L 51.397816 218.14964 
L 49.708845 219.62921 
L 47.729576 221.685989 
L 44.719337 225.201911 
L 41.897746 228.405263 
L 40.134392 230.095961 
L 38.530466 231.350107 
L 37.082559 232.206968 
L 35.644241 232.796616 
L 34.215386 233.14542 
L 32.795869 233.244751 
L 31.104607 233.116247 
L 28.869884 232.692284 
L 21.896388 231.192922 
L 18.955989 230.845496 
L 16.448201 230.71809 
L 16.448201 230.71809 
" style="fill: none; stroke: #1a1a1a; stroke-opacity: 0.5; stroke-width: 0.5; stroke-linecap: round"/>
   </g>
   <g id="patch_3">
    <path d="M 16.425 237.78 
L 16.425 36.836 
" style="fill: none; stroke: #ffffff; stroke-width: 1.25; stroke-linejoin: miter; stroke-linecap: square"/>
   </g>
   <g id="patch_4">
    <path d="M 556.11 237.78 
L 556.11 36.836 
" style="fill: none; stroke: #ffffff; stroke-width: 1.25; stroke-linejoin: miter; stroke-linecap: square"/>
   </g>
   <g id="patch_5">
    <path d="M 16.425 237.78 
L 556.11 237.78 
" style="fill: none; stroke: #ffffff; stroke-width: 1.25; stroke-linejoin: miter; stroke-linecap: square"/>
   </g>
   <g id="patch_6">
    <path d="M 16.425 36.836 
L 556.11 36.836 
" style="fill: none; stroke: #ffffff; stroke-width: 1.25; stroke-linejoin: miter; stroke-linecap: square"/>
   </g>
   <g id="patch_7">
    <path d="M 298.190085 53.596211 
Q 294.231347 55.69129 290.272608 57.786369 
" style="fill: none; stroke: #ffffff; stroke-width: 0.5; stroke-linecap: round"/>
   </g>
   <g id="text_7">
    <!-- TFP -->
    <g style="fill: #262626" transform="translate(302.45805 48.968285) scale(0.12 -0.12)">
     <defs>
      <path id="DejaVuSans-54" d="M -19 4666 
L 3928 4666 
L 3928 4134 
L 2272 4134 
L 2272 0 
L 1638 0 
L 1638 4134 
L -19 4134 
L -19 4666 
z
" transform="scale(0.015625)"/>
      <path id="DejaVuSans-46" d="M 628 4666 
L 3309 4666 
L 3309 4134 
L 1259 4134 
L 1259 2759 
L 3109 2759 
L 3109 2228 
L 1259 2228 
L 1259 0 
L 628 0 
L 628 4666 
z
" transform="scale(0.015625)"/>
      <path id="DejaVuSans-50" d="M 1259 4147 
L 1259 2394 
L 2053 2394 
Q 2494 2394 2734 2622 
Q 2975 2850 2975 3272 
Q 2975 3691 2734 3919 
Q 2494 4147 2053 4147 
L 1259 4147 
z
M 628 4666 
L 2053 4666 
Q 2838 4666 3239 4311 
Q 3641 3956 3641 3272 
Q 3641 2581 3239 2228 
Q 2838 1875 2053 1875 
L 1259 1875 
L 1259 0 
L 628 0 
L 628 4666 
z
" transform="scale(0.015625)"/>
     </defs>
     <use xlink:href="#DejaVuSans-54"/>
     <use xlink:href="#DejaVuSans-46" x="61.083984"/>
     <use xlink:href="#DejaVuSans-50" x="118.603516"/>
    </g>
   </g>
   <g id="patch_8">
    <path d="M 389.709866 63.591222 
Q 338.15082 66.0817 286.591774 68.572177 
" style="fill: none; stroke: #ffffff; stroke-width: 0.5; stroke-linecap: round"/>
   </g>
   <g id="text_8">
    <!-- Investment -->
    <g style="fill: #262626" transform="translate(394.2045 65.043805) scale(0.12 -0.12)">
     <defs>
      <path id="DejaVuSans-49" d="M 628 4666 
L 1259 4666 
L 1259 0 
L 628 0 
L 628 4666 
z
" transform="scale(0.015625)"/>
      <path id="DejaVuSans-6e" d="M 3513 2113 
L 3513 0 
L 2938 0 
L 2938 2094 
Q 2938 2591 2744 2837 
Q 2550 3084 2163 3084 
Q 1697 3084 1428 2787 
Q 1159 2491 1159 1978 
L 1159 0 
L 581 0 
L 581 3500 
L 1159 3500 
L 1159 2956 
Q 1366 3272 1645 3428 
Q 1925 3584 2291 3584 
Q 2894 3584 3203 3211 
Q 3513 2838 3513 2113 
z
" transform="scale(0.015625)"/>
      <path id="DejaVuSans-76" d="M 191 3500 
L 800 3500 
L 1894 563 
L 2988 3500 
L 3597 3500 
L 2284 0 
L 1503 0 
L 191 3500 
z
" transform="scale(0.015625)"/>
      <path id="DejaVuSans-74" d="M 1172 4494 
L 1172 3500 
L 2356 3500 
L 2356 3053 
L 1172 3053 
L 1172 1153 
Q 1172 725 1289 603 
Q 1406 481 1766 481 
L 2356 481 
L 2356 0 
L 1766 0 
Q 1100 0 847 248 
Q 594 497 594 1153 
L 594 3053 
L 172 3053 
L 172 3500 
L 594 3500 
L 594 4494 
L 1172 4494 
z
" transform="scale(0.015625)"/>
      <path id="DejaVuSans-6d" d="M 3328 2828 
Q 3544 3216 3844 3400 
Q 4144 3584 4550 3584 
Q 5097 3584 5394 3201 
Q 5691 2819 5691 2113 
L 5691 0 
L 5113 0 
L 5113 2094 
Q 5113 2597 4934 2840 
Q 4756 3084 4391 3084 
Q 3944 3084 3684 2787 
Q 3425 2491 3425 1978 
L 3425 0 
L 2847 0 
L 2847 2094 
Q 2847 2600 2669 2842 
Q 2491 3084 2119 3084 
Q 1678 3084 1418 2786 
Q 1159 2488 1159 1978 
L 1159 0 
L 581 0 
L 581 3500 
L 1159 3500 
L 1159 2956 
Q 1356 3278 1631 3431 
Q 1906 3584 2284 3584 
Q 2666 3584 2933 3390 
Q 3200 3197 3328 2828 
z
" transform="scale(0.015625)"/>
     </defs>
     <use xlink:href="#DejaVuSans-49"/>
     <use xlink:href="#DejaVuSans-6e" x="29.492188"/>
     <use xlink:href="#DejaVuSans-76" x="92.871094"/>
     <use xlink:href="#DejaVuSans-65" x="152.050781"/>
     <use xlink:href="#DejaVuSans-73" x="213.574219"/>
     <use xlink:href="#DejaVuSans-74" x="265.673828"/>
     <use xlink:href="#DejaVuSans-6d" x="304.882812"/>
     <use xlink:href="#DejaVuSans-65" x="402.294922"/>
     <use xlink:href="#DejaVuSans-6e" x="463.818359"/>
     <use xlink:href="#DejaVuSans-74" x="527.197266"/>
    </g>
   </g>
   <g id="patch_9">
    <path d="M 389.771792 52.33731 
Q 378.837491 55.270047 367.903189 58.202784 
" style="fill: none; stroke: #ffffff; stroke-width: 0.5; stroke-linecap: round"/>
   </g>
   <g id="text_9">
    <!-- Wage -->
    <g style="fill: #262626" transform="translate(394.2045 49.973005) scale(0.12 -0.12)">
     <defs>
      <path id="DejaVuSans-57" d="M 213 4666 
L 850 4666 
L 1831 722 
L 2809 4666 
L 3519 4666 
L 4500 722 
L 5478 4666 
L 6119 4666 
L 4947 0 
L 4153 0 
L 3169 4050 
L 2175 0 
L 1381 0 
L 213 4666 
z
" transform="scale(0.015625)"/>
      <path id="DejaVuSans-67" d="M 2906 1791 
Q 2906 2416 2648 2759 
Q 2391 3103 1925 3103 
Q 1463 3103 1205 2759 
Q 947 2416 947 1791 
Q 947 1169 1205 825 
Q 1463 481 1925 481 
Q 2391 481 2648 825 
Q 2906 1169 2906 1791 
z
M 3481 434 
Q 3481 -459 3084 -895 
Q 2688 -1331 1869 -1331 
Q 1566 -1331 1297 -1286 
Q 1028 -1241 775 -1147 
L 775 -588 
Q 1028 -725 1275 -790 
Q 1522 -856 1778 -856 
Q 2344 -856 2625 -561 
Q 2906 -266 2906 331 
L 2906 616 
Q 2728 306 2450 153 
Q 2172 0 1784 0 
Q 1141 0 747 490 
Q 353 981 353 1791 
Q 353 2603 747 3093 
Q 1141 3584 1784 3584 
Q 2172 3584 2450 3431 
Q 2728 3278 2906 2969 
L 2906 3500 
L 3481 3500 
L 3481 434 
z
" transform="scale(0.015625)"/>
     </defs>
     <use xlink:href="#DejaVuSans-57"/>
     <use xlink:href="#DejaVuSans-61" x="92.501953"/>
     <use xlink:href="#DejaVuSans-67" x="153.78125"/>
     <use xlink:href="#DejaVuSans-65" x="217.257812"/>
    </g>
   </g>
   <g id="patch_10">
    <path d="M 416.685908 77.133801 
Q 389.579327 77.84874 362.472746 78.563678 
" style="fill: none; stroke: #ffffff; stroke-width: 0.5; stroke-linecap: round"/>
   </g>
   <g id="text_10">
    <!-- Unemployment -->
    <g style="fill: #262626" transform="translate(421.18875 79.109885) scale(0.12 -0.12)">
     <defs>
      <path id="DejaVuSans-55" d="M 556 4666 
L 1191 4666 
L 1191 1831 
Q 1191 1081 1462 751 
Q 1734 422 2344 422 
Q 2950 422 3222 751 
Q 3494 1081 3494 1831 
L 3494 4666 
L 4128 4666 
L 4128 1753 
Q 4128 841 3676 375 
Q 3225 -91 2344 -91 
Q 1459 -91 1007 375 
Q 556 841 556 1753 
L 556 4666 
z
" transform="scale(0.015625)"/>
      <path id="DejaVuSans-70" d="M 1159 525 
L 1159 -1331 
L 581 -1331 
L 581 3500 
L 1159 3500 
L 1159 2969 
Q 1341 3281 1617 3432 
Q 1894 3584 2278 3584 
Q 2916 3584 3314 3078 
Q 3713 2572 3713 1747 
Q 3713 922 3314 415 
Q 2916 -91 2278 -91 
Q 1894 -91 1617 61 
Q 1341 213 1159 525 
z
M 3116 1747 
Q 3116 2381 2855 2742 
Q 2594 3103 2138 3103 
Q 1681 3103 1420 2742 
Q 1159 2381 1159 1747 
Q 1159 1113 1420 752 
Q 1681 391 2138 391 
Q 2594 391 2855 752 
Q 3116 1113 3116 1747 
z
" transform="scale(0.015625)"/>
      <path id="DejaVuSans-6c" d="M 603 4863 
L 1178 4863 
L 1178 0 
L 603 0 
L 603 4863 
z
" transform="scale(0.015625)"/>
      <path id="DejaVuSans-6f" d="M 1959 3097 
Q 1497 3097 1228 2736 
Q 959 2375 959 1747 
Q 959 1119 1226 758 
Q 1494 397 1959 397 
Q 2419 397 2687 759 
Q 2956 1122 2956 1747 
Q 2956 2369 2687 2733 
Q 2419 3097 1959 3097 
z
M 1959 3584 
Q 2709 3584 3137 3096 
Q 3566 2609 3566 1747 
Q 3566 888 3137 398 
Q 2709 -91 1959 -91 
Q 1206 -91 779 398 
Q 353 888 353 1747 
Q 353 2609 779 3096 
Q 1206 3584 1959 3584 
z
" transform="scale(0.015625)"/>
      <path id="DejaVuSans-79" d="M 2059 -325 
Q 1816 -950 1584 -1140 
Q 1353 -1331 966 -1331 
L 506 -1331 
L 506 -850 
L 844 -850 
Q 1081 -850 1212 -737 
Q 1344 -625 1503 -206 
L 1606 56 
L 191 3500 
L 800 3500 
L 1894 763 
L 2988 3500 
L 3597 3500 
L 2059 -325 
z
" transform="scale(0.015625)"/>
     </defs>
     <use xlink:href="#DejaVuSans-55"/>
     <use xlink:href="#DejaVuSans-6e" x="73.193359"/>
     <use xlink:href="#DejaVuSans-65" x="136.572266"/>
     <use xlink:href="#DejaVuSans-6d" x="198.095703"/>
     <use xlink:href="#DejaVuSans-70" x="295.507812"/>
     <use xlink:href="#DejaVuSans-6c" x="358.984375"/>
     <use xlink:href="#DejaVuSans-6f" x="386.767578"/>
     <use xlink:href="#DejaVuSans-79" x="447.949219"/>
     <use xlink:href="#DejaVuSans-6d" x="507.128906"/>
     <use xlink:href="#DejaVuSans-65" x="604.541016"/>
     <use xlink:href="#DejaVuSans-6e" x="666.064453"/>
     <use xlink:href="#DejaVuSans-74" x="729.443359"/>
    </g>
   </g>
   <g id="patch_11">
    <path d="M 416.686542 89.914349 
Q 385.321992 89.260144 353.957443 88.60594 
" style="fill: none; stroke: #ffffff; stroke-width: 0.5; stroke-linecap: round"/>
   </g>
   <g id="text_11">
    <!-- Hours worked -->
    <g style="fill: #262626" transform="translate(421.18875 94.180685) scale(0.12 -0.12)">
     <defs>
      <path id="DejaVuSans-48" d="M 628 4666 
L 1259 4666 
L 1259 2753 
L 3553 2753 
L 3553 4666 
L 4184 4666 
L 4184 0 
L 3553 0 
L 3553 2222 
L 1259 2222 
L 1259 0 
L 628 0 
L 628 4666 
z
" transform="scale(0.015625)"/>
      <path id="DejaVuSans-75" d="M 544 1381 
L 544 3500 
L 1119 3500 
L 1119 1403 
Q 1119 906 1312 657 
Q 1506 409 1894 409 
Q 2359 409 2629 706 
Q 2900 1003 2900 1516 
L 2900 3500 
L 3475 3500 
L 3475 0 
L 2900 0 
L 2900 538 
Q 2691 219 2414 64 
Q 2138 -91 1772 -91 
Q 1169 -91 856 284 
Q 544 659 544 1381 
z
M 1991 3584 
L 1991 3584 
z
" transform="scale(0.015625)"/>
      <path id="DejaVuSans-20" transform="scale(0.015625)"/>
      <path id="DejaVuSans-77" d="M 269 3500 
L 844 3500 
L 1563 769 
L 2278 3500 
L 2956 3500 
L 3675 769 
L 4391 3500 
L 4966 3500 
L 4050 0 
L 3372 0 
L 2619 2869 
L 1863 0 
L 1184 0 
L 269 3500 
z
" transform="scale(0.015625)"/>
      <path id="DejaVuSans-6b" d="M 581 4863 
L 1159 4863 
L 1159 1991 
L 2875 3500 
L 3609 3500 
L 1753 1863 
L 3688 0 
L 2938 0 
L 1159 1709 
L 1159 0 
L 581 0 
L 581 4863 
z
" transform="scale(0.015625)"/>
      <path id="DejaVuSans-64" d="M 2906 2969 
L 2906 4863 
L 3481 4863 
L 3481 0 
L 2906 0 
L 2906 525 
Q 2725 213 2448 61 
Q 2172 -91 1784 -91 
Q 1150 -91 751 415 
Q 353 922 353 1747 
Q 353 2572 751 3078 
Q 1150 3584 1784 3584 
Q 2172 3584 2448 3432 
Q 2725 3281 2906 2969 
z
M 947 1747 
Q 947 1113 1208 752 
Q 1469 391 1925 391 
Q 2381 391 2643 752 
Q 2906 1113 2906 1747 
Q 2906 2381 2643 2742 
Q 2381 3103 1925 3103 
Q 1469 3103 1208 2742 
Q 947 2381 947 1747 
z
" transform="scale(0.015625)"/>
     </defs>
     <use xlink:href="#DejaVuSans-48"/>
     <use xlink:href="#DejaVuSans-6f" x="75.195312"/>
     <use xlink:href="#DejaVuSans-75" x="136.376953"/>
     <use xlink:href="#DejaVuSans-72" x="199.755859"/>
     <use xlink:href="#DejaVuSans-73" x="240.869141"/>
     <use xlink:href="#DejaVuSans-20" x="292.96875"/>
     <use xlink:href="#DejaVuSans-77" x="324.755859"/>
     <use xlink:href="#DejaVuSans-6f" x="406.542969"/>
     <use xlink:href="#DejaVuSans-72" x="467.724609"/>
     <use xlink:href="#DejaVuSans-6b" x="508.837891"/>
     <use xlink:href="#DejaVuSans-65" x="563.123047"/>
     <use xlink:href="#DejaVuSans-64" x="624.646484"/>
    </g>
   </g>
   <g id="patch_12">
    <path d="M 457.170731 197.440107 
Q 422.917046 200.606833 388.66336 203.773559 
" style="fill: none; stroke: #ffffff; stroke-width: 0.5; stroke-linecap: round"/>
   </g>
   <g id="text_12">
    <!-- Consumption -->
    <g style="fill: #262626" transform="translate(461.665125 196.662125) scale(0.12 -0.12)">
     <defs>
      <path id="DejaVuSans-43" d="M 4122 4306 
L 4122 3641 
Q 3803 3938 3442 4084 
Q 3081 4231 2675 4231 
Q 1875 4231 1450 3742 
Q 1025 3253 1025 2328 
Q 1025 1406 1450 917 
Q 1875 428 2675 428 
Q 3081 428 3442 575 
Q 3803 722 4122 1019 
L 4122 359 
Q 3791 134 3420 21 
Q 3050 -91 2638 -91 
Q 1578 -91 968 557 
Q 359 1206 359 2328 
Q 359 3453 968 4101 
Q 1578 4750 2638 4750 
Q 3056 4750 3426 4639 
Q 3797 4528 4122 4306 
z
" transform="scale(0.015625)"/>
      <path id="DejaVuSans-69" d="M 603 3500 
L 1178 3500 
L 1178 0 
L 603 0 
L 603 3500 
z
M 603 4863 
L 1178 4863 
L 1178 4134 
L 603 4134 
L 603 4863 
z
" transform="scale(0.015625)"/>
     </defs>
     <use xlink:href="#DejaVuSans-43"/>
     <use xlink:href="#DejaVuSans-6f" x="69.824219"/>
     <use xlink:href="#DejaVuSans-6e" x="131.005859"/>
     <use xlink:href="#DejaVuSans-73" x="194.384766"/>
     <use xlink:href="#DejaVuSans-75" x="246.484375"/>
     <use xlink:href="#DejaVuSans-6d" x="309.863281"/>
     <use xlink:href="#DejaVuSans-70" x="407.275391"/>
     <use xlink:href="#DejaVuSans-74" x="470.751953"/>
     <use xlink:href="#DejaVuSans-69" x="509.960938"/>
     <use xlink:href="#DejaVuSans-6f" x="537.744141"/>
     <use xlink:href="#DejaVuSans-6e" x="598.925781"/>
    </g>
   </g>
   <g id="legend_1">
    <g id="line2d_13">
     <path d="M 26.325 31.149881 
L 37.325 31.149881 
L 48.325 31.149881 
" style="fill: none; stroke: #1a1a1a; stroke-width: 1.5; stroke-linecap: round"/>
    </g>
    <g id="text_13">
     <!-- GDP -->
     <g style="fill: #262626" transform="translate(57.125 34.999881) scale(0.11 -0.11)">
      <defs>
       <path id="DejaVuSans-47" d="M 3809 666 
L 3809 1919 
L 2778 1919 
L 2778 2438 
L 4434 2438 
L 4434 434 
Q 4069 175 3628 42 
Q 3188 -91 2688 -91 
Q 1594 -91 976 548 
Q 359 1188 359 2328 
Q 359 3472 976 4111 
Q 1594 4750 2688 4750 
Q 3144 4750 3555 4637 
Q 3966 4525 4313 4306 
L 4313 3634 
Q 3963 3931 3569 4081 
Q 3175 4231 2741 4231 
Q 1884 4231 1454 3753 
Q 1025 3275 1025 2328 
Q 1025 1384 1454 906 
Q 1884 428 2741 428 
Q 3075 428 3337 486 
Q 3600 544 3809 666 
z
" transform="scale(0.015625)"/>
       <path id="DejaVuSans-44" d="M 1259 4147 
L 1259 519 
L 2022 519 
Q 2988 519 3436 956 
Q 3884 1394 3884 2338 
Q 3884 3275 3436 3711 
Q 2988 4147 2022 4147 
L 1259 4147 
z
M 628 4666 
L 1925 4666 
Q 3281 4666 3915 4102 
Q 4550 3538 4550 2338 
Q 4550 1131 3912 565 
Q 3275 0 1925 0 
L 628 0 
L 628 4666 
z
" transform="scale(0.015625)"/>
      </defs>
      <use xlink:href="#DejaVuSans-47"/>
      <use xlink:href="#DejaVuSans-44" x="77.490234"/>
      <use xlink:href="#DejaVuSans-50" x="154.492188"/>
     </g>
    </g>
    <g id="line2d_14">
     <path d="M 102.750937 31.149881 
L 113.750937 31.149881 
L 124.750937 31.149881 
" style="fill: none; stroke: #1a1a1a; stroke-opacity: 0.5; stroke-width: 0.5; stroke-linecap: round"/>
    </g>
    <g id="text_14">
     <!-- Others -->
     <g style="fill: #262626" transform="translate(133.550938 34.999881) scale(0.11 -0.11)">
      <defs>
       <path id="DejaVuSans-4f" d="M 2522 4238 
Q 1834 4238 1429 3725 
Q 1025 3213 1025 2328 
Q 1025 1447 1429 934 
Q 1834 422 2522 422 
Q 3209 422 3611 934 
Q 4013 1447 4013 2328 
Q 4013 3213 3611 3725 
Q 3209 4238 2522 4238 
z
M 2522 4750 
Q 3503 4750 4090 4092 
Q 4678 3434 4678 2328 
Q 4678 1225 4090 567 
Q 3503 -91 2522 -91 
Q 1538 -91 948 565 
Q 359 1222 359 2328 
Q 359 3434 948 4092 
Q 1538 4750 2522 4750 
z
" transform="scale(0.015625)"/>
       <path id="DejaVuSans-68" d="M 3513 2113 
L 3513 0 
L 2938 0 
L 2938 2094 
Q 2938 2591 2744 2837 
Q 2550 3084 2163 3084 
Q 1697 3084 1428 2787 
Q 1159 2491 1159 1978 
L 1159 0 
L 581 0 
L 581 4863 
L 1159 4863 
L 1159 2956 
Q 1366 3272 1645 3428 
Q 1925 3584 2291 3584 
Q 2894 3584 3203 3211 
Q 3513 2838 3513 2113 
z
" transform="scale(0.015625)"/>
      </defs>
      <use xlink:href="#DejaVuSans-4f"/>
      <use xlink:href="#DejaVuSans-74" x="78.710938"/>
      <use xlink:href="#DejaVuSans-68" x="117.919922"/>
      <use xlink:href="#DejaVuSans-65" x="181.298828"/>
      <use xlink:href="#DejaVuSans-72" x="242.822266"/>
      <use xlink:href="#DejaVuSans-73" x="283.935547"/>
     </g>
    </g>
   </g>
  </g>
 </g>
 <defs>
  <clipPath id="pf15c7a70f2">
   <rect x="16.425" y="36.836" width="539.685" height="200.944"/>
  </clipPath>
 </defs>
</svg>
