<?xml version="1.0" encoding="utf-8" standalone="no"?>
<!DOCTYPE svg PUBLIC "-//W3C//DTD SVG 1.1//EN"
  "http://www.w3.org/Graphics/SVG/1.1/DTD/svg11.dtd">
<svg xmlns:xlink="http://www.w3.org/1999/xlink" width="460.8pt" height="345.6pt" viewBox="0 0 460.8 345.6" xmlns="http://www.w3.org/2000/svg" version="1.1">
 <metadata>
  <rdf:RDF xmlns:dc="http://purl.org/dc/elements/1.1/" xmlns:cc="http://creativecommons.org/ns#" xmlns:rdf="http://www.w3.org/1999/02/22-rdf-syntax-ns#">
   <cc:Work>
    <dc:type rdf:resource="http://purl.org/dc/dcmitype/StillImage"/>
    <dc:date>2024-05-07T22:40:53.711143</dc:date>
    <dc:format>image/svg+xml</dc:format>
    <dc:creator>
     <cc:Agent>
      <dc:title>Matplotlib v3.8.3, https://matplotlib.org/</dc:title>
     </cc:Agent>
    </dc:creator>
   </cc:Work>
  </rdf:RDF>
 </metadata>
 <defs>
  <style type="text/css">*{stroke-linejoin: round; stroke-linecap: butt}</style>
 </defs>
 <g id="figure_1">
  <g id="patch_1">
   <path d="M 0 345.6 
L 460.8 345.6 
L 460.8 0 
L 0 0 
L 0 345.6 
z
" style="fill: none"/>
  </g>
  <g id="axes_1">
   <g id="patch_2">
    <path d="M 16.425 295.38 
L 431.226 295.38 
L 431.226 42.7112 
L 16.425 42.7112 
L 16.425 295.38 
z
" style="fill: none"/>
   </g>
   <g id="matplotlib.axis_1">
    <g id="xtick_1">
     <g id="line2d_1">
      <path d="M 16.425 295.38 
L 16.425 42.7112 
" clip-path="url(#p576ec62fe6)" style="fill: none; stroke: #ffffff; stroke-linecap: round"/>
     </g>
     <g id="text_1">
      <!-- 2 -->
      <g style="fill: #262626" transform="translate(12.925625 313.238281) scale(0.11 -0.11)">
       <defs>
        <path id="DejaVuSans-32" d="M 1228 531 
L 3431 531 
L 3431 0 
L 469 0 
L 469 531 
Q 828 903 1448 1529 
Q 2069 2156 2228 2338 
Q 2531 2678 2651 2914 
Q 2772 3150 2772 3378 
Q 2772 3750 2511 3984 
Q 2250 4219 1831 4219 
Q 1534 4219 1204 4116 
Q 875 4013 500 3803 
L 500 4441 
Q 881 4594 1212 4672 
Q 1544 4750 1819 4750 
Q 2544 4750 2975 4387 
Q 3406 4025 3406 3419 
Q 3406 3131 3298 2873 
Q 3191 2616 2906 2266 
Q 2828 2175 2409 1742 
Q 1991 1309 1228 531 
z
" transform="scale(0.015625)"/>
       </defs>
       <use xlink:href="#DejaVuSans-32"/>
      </g>
     </g>
    </g>
    <g id="xtick_2">
     <g id="line2d_2">
      <path d="M 132.130813 295.38 
L 132.130813 42.7112 
" clip-path="url(#p576ec62fe6)" style="fill: none; stroke: #ffffff; stroke-linecap: round"/>
     </g>
     <g id="text_2">
      <!-- 4 -->
      <g style="fill: #262626" transform="translate(128.631438 313.238281) scale(0.11 -0.11)">
       <defs>
        <path id="DejaVuSans-34" d="M 2419 4116 
L 825 1625 
L 2419 1625 
L 2419 4116 
z
M 2253 4666 
L 3047 4666 
L 3047 1625 
L 3713 1625 
L 3713 1100 
L 3047 1100 
L 3047 0 
L 2419 0 
L 2419 1100 
L 313 1100 
L 313 1709 
L 2253 4666 
z
" transform="scale(0.015625)"/>
       </defs>
       <use xlink:href="#DejaVuSans-34"/>
      </g>
     </g>
    </g>
    <g id="xtick_3">
     <g id="line2d_3">
      <path d="M 199.814374 295.38 
L 199.814374 42.7112 
" clip-path="url(#p576ec62fe6)" style="fill: none; stroke: #ffffff; stroke-linecap: round"/>
     </g>
     <g id="text_3">
      <!-- 6 -->
      <g style="fill: #262626" transform="translate(196.314999 313.238281) scale(0.11 -0.11)">
       <defs>
        <path id="DejaVuSans-36" d="M 2113 2584 
Q 1688 2584 1439 2293 
Q 1191 2003 1191 1497 
Q 1191 994 1439 701 
Q 1688 409 2113 409 
Q 2538 409 2786 701 
Q 3034 994 3034 1497 
Q 3034 2003 2786 2293 
Q 2538 2584 2113 2584 
z
M 3366 4563 
L 3366 3988 
Q 3128 4100 2886 4159 
Q 2644 4219 2406 4219 
Q 1781 4219 1451 3797 
Q 1122 3375 1075 2522 
Q 1259 2794 1537 2939 
Q 1816 3084 2150 3084 
Q 2853 3084 3261 2657 
Q 3669 2231 3669 1497 
Q 3669 778 3244 343 
Q 2819 -91 2113 -91 
Q 1303 -91 875 529 
Q 447 1150 447 2328 
Q 447 3434 972 4092 
Q 1497 4750 2381 4750 
Q 2619 4750 2861 4703 
Q 3103 4656 3366 4563 
z
" transform="scale(0.015625)"/>
       </defs>
       <use xlink:href="#DejaVuSans-36"/>
      </g>
     </g>
    </g>
    <g id="xtick_4">
     <g id="line2d_4">
      <path d="M 315.520187 295.38 
L 315.520187 42.7112 
" clip-path="url(#p576ec62fe6)" style="fill: none; stroke: #ffffff; stroke-linecap: round"/>
     </g>
     <g id="text_4">
      <!-- 12 -->
      <g style="fill: #262626" transform="translate(308.521437 313.238281) scale(0.11 -0.11)">
       <defs>
        <path id="DejaVuSans-31" d="M 794 531 
L 1825 531 
L 1825 4091 
L 703 3866 
L 703 4441 
L 1819 4666 
L 2450 4666 
L 2450 531 
L 3481 531 
L 3481 0 
L 794 0 
L 794 531 
z
" transform="scale(0.015625)"/>
       </defs>
       <use xlink:href="#DejaVuSans-31"/>
       <use xlink:href="#DejaVuSans-32" x="63.623047"/>
      </g>
     </g>
    </g>
    <g id="xtick_5">
     <g id="line2d_5">
      <path d="M 431.226 295.38 
L 431.226 42.7112 
" clip-path="url(#p576ec62fe6)" style="fill: none; stroke: #ffffff; stroke-linecap: round"/>
     </g>
     <g id="text_5">
      <!-- 24 -->
      <g style="fill: #262626" transform="translate(424.22725 313.238281) scale(0.11 -0.11)">
       <use xlink:href="#DejaVuSans-32"/>
       <use xlink:href="#DejaVuSans-34" x="63.623047"/>
      </g>
     </g>
    </g>
    <g id="xtick_6"/>
    <g id="xtick_7"/>
    <g id="xtick_8"/>
    <g id="xtick_9"/>
    <g id="xtick_10"/>
    <g id="xtick_11"/>
    <g id="xtick_12"/>
    <g id="xtick_13"/>
    <g id="xtick_14"/>
    <g id="text_6">
     <!-- Years -->
     <g style="fill: #262626" transform="translate(207.994875 328.644063) scale(0.12 -0.12)">
      <defs>
       <path id="DejaVuSans-59" d="M -13 4666 
L 666 4666 
L 1959 2747 
L 3244 4666 
L 3922 4666 
L 2272 2222 
L 2272 0 
L 1638 0 
L 1638 2222 
L -13 4666 
z
" transform="scale(0.015625)"/>
       <path id="DejaVuSans-65" d="M 3597 1894 
L 3597 1613 
L 953 1613 
Q 991 1019 1311 708 
Q 1631 397 2203 397 
Q 2534 397 2845 478 
Q 3156 559 3463 722 
L 3463 178 
Q 3153 47 2828 -22 
Q 2503 -91 2169 -91 
Q 1331 -91 842 396 
Q 353 884 353 1716 
Q 353 2575 817 3079 
Q 1281 3584 2069 3584 
Q 2775 3584 3186 3129 
Q 3597 2675 3597 1894 
z
M 3022 2063 
Q 3016 2534 2758 2815 
Q 2500 3097 2075 3097 
Q 1594 3097 1305 2825 
Q 1016 2553 972 2059 
L 3022 2063 
z
" transform="scale(0.015625)"/>
       <path id="DejaVuSans-61" d="M 2194 1759 
Q 1497 1759 1228 1600 
Q 959 1441 959 1056 
Q 959 750 1161 570 
Q 1363 391 1709 391 
Q 2188 391 2477 730 
Q 2766 1069 2766 1631 
L 2766 1759 
L 2194 1759 
z
M 3341 1997 
L 3341 0 
L 2766 0 
L 2766 531 
Q 2569 213 2275 61 
Q 1981 -91 1556 -91 
Q 1019 -91 701 211 
Q 384 513 384 1019 
Q 384 1609 779 1909 
Q 1175 2209 1959 2209 
L 2766 2209 
L 2766 2266 
Q 2766 2663 2505 2880 
Q 2244 3097 1772 3097 
Q 1472 3097 1187 3025 
Q 903 2953 641 2809 
L 641 3341 
Q 956 3463 1253 3523 
Q 1550 3584 1831 3584 
Q 2591 3584 2966 3190 
Q 3341 2797 3341 1997 
z
" transform="scale(0.015625)"/>
       <path id="DejaVuSans-72" d="M 2631 2963 
Q 2534 3019 2420 3045 
Q 2306 3072 2169 3072 
Q 1681 3072 1420 2755 
Q 1159 2438 1159 1844 
L 1159 0 
L 581 0 
L 581 3500 
L 1159 3500 
L 1159 2956 
Q 1341 3275 1631 3429 
Q 1922 3584 2338 3584 
Q 2397 3584 2469 3576 
Q 2541 3569 2628 3553 
L 2631 2963 
z
" transform="scale(0.015625)"/>
       <path id="DejaVuSans-73" d="M 2834 3397 
L 2834 2853 
Q 2591 2978 2328 3040 
Q 2066 3103 1784 3103 
Q 1356 3103 1142 2972 
Q 928 2841 928 2578 
Q 928 2378 1081 2264 
Q 1234 2150 1697 2047 
L 1894 2003 
Q 2506 1872 2764 1633 
Q 3022 1394 3022 966 
Q 3022 478 2636 193 
Q 2250 -91 1575 -91 
Q 1294 -91 989 -36 
Q 684 19 347 128 
L 347 722 
Q 666 556 975 473 
Q 1284 391 1588 391 
Q 1994 391 2212 530 
Q 2431 669 2431 922 
Q 2431 1156 2273 1281 
Q 2116 1406 1581 1522 
L 1381 1569 
Q 847 1681 609 1914 
Q 372 2147 372 2553 
Q 372 3047 722 3315 
Q 1072 3584 1716 3584 
Q 2034 3584 2315 3537 
Q 2597 3491 2834 3397 
z
" transform="scale(0.015625)"/>
      </defs>
      <use xlink:href="#DejaVuSans-59"/>
      <use xlink:href="#DejaVuSans-65" x="47.833984"/>
      <use xlink:href="#DejaVuSans-61" x="109.357422"/>
      <use xlink:href="#DejaVuSans-72" x="170.636719"/>
      <use xlink:href="#DejaVuSans-73" x="211.75"/>
     </g>
    </g>
   </g>
   <g id="matplotlib.axis_2"/>
   <g id="line2d_6">
    <path d="M 431.135892 286.529995 
L 419.457831 285.207391 
L 408.543604 283.736636 
L 398.299396 282.120437 
L 390.533894 280.70332 
L 384.023334 279.298109 
L 377.757196 277.730277 
L 371.717791 275.982646 
L 366.709569 274.319025 
L 361.847239 272.475168 
L 357.122541 270.421777 
L 352.527896 268.175419 
L 348.056338 265.721375 
L 344.419414 263.495858 
L 340.860043 261.091027 
L 337.374985 258.495938 
L 333.961201 255.703002 
L 330.615835 252.708097 
L 327.336197 249.51095 
L 323.483836 245.432359 
L 319.718379 241.112225 
L 316.03599 236.575065 
L 311.840087 231.054496 
L 307.170462 224.534751 
L 300.955835 215.436467 
L 282.593583 188.154226 
L 278.66568 182.885223 
L 275.302984 178.707276 
L 272.006692 174.963029 
L 268.774233 171.644851 
L 265.603181 168.736097 
L 262.491247 166.211702 
L 259.436267 164.040687 
L 256.861488 162.479623 
L 254.325821 161.179692 
L 251.828095 160.120812 
L 249.367193 159.288164 
L 246.942043 158.671573 
L 244.551622 158.265719 
L 242.194949 158.070251 
L 237.579129 157.72776 
L 234.19914 157.301569 
L 231.983246 156.836142 
L 230.158876 156.265983 
L 228.354229 155.465265 
L 226.924429 154.612061 
L 225.15423 153.282813 
L 223.402606 151.738696 
L 221.669172 149.904208 
L 219.953554 147.726869 
L 218.255388 145.168557 
L 216.574325 142.206071 
L 214.910022 138.831468 
L 212.934517 134.249494 
L 210.982118 129.116788 
L 209.052291 123.410947 
L 206.828666 116.106801 
L 204.32313 107.101805 
L 200.938295 94.04158 
L 194.367822 68.444158 
L 192.041259 60.420106 
L 190.317372 55.162002 
L 188.611106 50.694678 
L 187.202421 47.663516 
L 186.08397 45.739477 
L 184.972963 44.278904 
L 184.144534 43.488239 
L 183.320195 42.968194 
L 182.499907 42.727836 
L 181.683631 42.774582 
L 180.871327 43.114155 
L 180.062956 43.750558 
L 179.258481 44.686052 
L 178.457865 45.921142 
L 177.396315 48.031554 
L 176.341473 50.664356 
L 175.032225 54.669264 
L 173.733166 59.429209 
L 172.187524 66.008715 
L 170.402178 74.686948 
L 168.384895 85.623398 
L 165.157929 104.551923 
L 161.270052 127.024013 
L 158.885322 139.676989 
L 157.001768 148.467625 
L 155.370915 154.995009 
L 153.98561 159.692062 
L 152.611708 163.578726 
L 151.702015 165.614093 
L 150.797253 167.184461 
L 149.897368 168.319953 
L 149.002309 169.050671 
L 148.33415 169.351014 
L 147.668654 169.452803 
L 147.005802 169.368145 
L 146.126073 168.985571 
L 145.250955 168.319337 
L 144.380402 167.394872 
L 143.298557 165.92586 
L 141.795656 163.501965 
L 139.671859 159.612864 
L 135.915816 152.632212 
L 134.477656 150.395757 
L 133.254733 148.833597 
L 132.242431 147.840316 
L 131.23623 147.176337 
L 130.435614 146.908295 
L 129.638819 146.891872 
L 128.845809 147.139939 
L 128.056549 147.661964 
L 127.271003 148.463925 
L 126.489137 149.548249 
L 125.516925 151.283351 
L 124.550344 153.447773 
L 123.397785 156.595866 
L 122.063115 160.96715 
L 120.550732 166.760375 
L 118.67932 174.921075 
L 116.277433 186.458819 
L 111.396673 210.17856 
L 109.448417 218.372093 
L 107.871131 224.00812 
L 106.654574 227.631171 
L 105.44682 230.559771 
L 104.418511 232.514056 
L 103.396499 233.965697 
L 102.549576 234.80462 
L 101.706928 235.328032 
L 100.868512 235.565617 
L 100.034286 235.546196 
L 99.204209 235.303374 
L 98.213534 234.770718 
L 96.901715 233.771424 
L 94.630548 231.695094 
L 92.230963 229.507908 
L 90.807597 228.527521 
L 89.552492 227.955493 
L 88.461963 227.69267 
L 87.378513 227.681548 
L 86.148833 227.933841 
L 84.47268 228.560038 
L 82.213807 229.394883 
L 80.724696 229.668647 
L 79.690167 229.643671 
L 78.808501 229.427424 
L 77.931469 229.006653 
L 76.914054 228.244692 
L 75.902802 227.19798 
L 74.754538 225.656752 
L 73.472113 223.534956 
L 71.636943 220.02333 
L 68.576507 214.168012 
L 67.203735 212.013767 
L 66.113587 210.704619 
L 65.165514 209.92347 
L 64.357143 209.548518 
L 63.686479 209.45867 
L 63.018498 209.58556 
L 62.353179 209.927487 
L 61.558281 210.613252 
L 60.767151 211.584987 
L 59.84888 213.052648 
L 58.675619 215.404347 
L 57.381596 218.534962 
L 55.841893 222.888073 
L 53.684676 229.744684 
L 50.067861 241.417283 
L 48.471625 245.831677 
L 47.132784 248.910816 
L 45.924905 251.153552 
L 44.964855 252.500378 
L 44.129317 253.333845 
L 43.29794 253.847259 
L 42.588613 254.043777 
L 41.882286 254.016696 
L 41.061999 253.727216 
L 40.129436 253.110774 
L 38.971013 252.021753 
L 37.134095 249.915544 
L 35.430152 248.059521 
L 34.416072 247.233364 
L 33.519811 246.777992 
L 32.739511 246.642759 
L 32.073573 246.7523 
L 31.410282 247.077644 
L 30.639758 247.742032 
L 29.872774 248.718416 
L 29.000515 250.210789 
L 28.024641 252.341737 
L 26.839602 255.485786 
L 25.237079 260.437315 
L 21.45265 272.396145 
L 20.003791 276.179341 
L 18.66959 279.047088 
L 17.650489 280.755973 
L 16.637572 282.052323 
L 16.435725 282.269855 
L 16.435725 282.269855 
" style="fill: none; stroke: #1a1a1a; stroke-width: 1.5; stroke-linecap: round"/>
   </g>
   <g id="line2d_7">
    <path d="M 430.083621 282.498308 
L 417.370142 280.739429 
L 409.756462 279.450985 
L 402.47495 277.987321 
L 396.476884 276.567009 
L 390.686886 274.954335 
L 386.01072 273.42687 
L 381.461986 271.694135 
L 377.910189 270.133212 
L 374.432392 268.392242 
L 371.025576 266.446017 
L 367.6869 264.271103 
L 364.413693 261.874931 
L 361.203437 259.239163 
L 358.053755 256.33883 
L 354.962403 253.151052 
L 351.927261 249.655251 
L 348.946321 245.833347 
L 346.017681 241.669926 
L 343.139538 237.152388 
L 340.310178 232.271063 
L 337.527977 227.019212 
L 334.791388 221.392207 
L 332.098939 215.389267 
L 329.44923 209.012916 
L 326.195166 200.552051 
L 323.003324 191.636259 
L 319.251971 180.39101 
L 315.583072 168.633833 
L 311.402183 154.428235 
L 306.176177 135.756188 
L 294.583116 93.819645 
L 290.89103 81.414736 
L 287.790108 71.775666 
L 285.249294 64.596339 
L 283.244127 59.486104 
L 281.26276 54.989849 
L 279.304635 51.148857 
L 277.85097 48.719613 
L 276.409854 46.691548 
L 274.981073 45.074557 
L 273.564418 43.872838 
L 272.626617 43.30517 
L 271.694054 42.925774 
L 270.766673 42.735399 
L 269.844416 42.734324 
L 268.927225 42.922359 
L 268.015047 43.299218 
L 267.107826 43.86471 
L 266.20551 44.617258 
L 264.861114 46.092264 
L 263.52746 47.974817 
L 262.204376 50.254063 
L 260.891696 52.917025 
L 259.157362 57.038272 
L 257.440861 61.773692 
L 255.741832 67.076398 
L 253.642078 74.422378 
L 251.568409 82.459875 
L 249.113539 92.90061 
L 246.294419 105.990903 
L 242.738417 123.731799 
L 236.221449 157.793425 
L 231.404096 182.388847 
L 228.148622 197.934116 
L 225.307222 210.373164 
L 222.860063 220.114359 
L 220.448262 228.771973 
L 218.408381 235.348354 
L 216.393126 241.183191 
L 214.401912 246.331695 
L 212.434169 250.866388 
L 210.489353 254.862332 
L 208.566934 258.305805 
L 206.666402 261.268241 
L 204.476123 264.231903 
L 202.31421 266.778936 
L 199.877259 269.304453 
L 197.177553 271.777221 
L 194.520814 273.933729 
L 185.403015 280.684495 
L 181.836623 283.019375 
L 178.610857 284.865661 
L 175.969533 286.129428 
L 173.369353 287.117559 
L 171.063324 287.77615 
L 168.788718 288.212004 
L 166.544691 288.426806 
L 164.33043 288.429173 
L 161.904105 288.204656 
L 159.27526 287.719858 
L 156.453872 286.971717 
L 152.536812 285.68041 
L 146.71835 283.756643 
L 143.883446 283.060835 
L 141.521722 282.699413 
L 139.403315 282.581762 
L 137.311456 282.676539 
L 135.245486 282.979317 
L 133.002068 283.529475 
L 130.38905 284.414592 
L 127.032604 285.805086 
L 120.140094 288.745116 
L 117.350143 289.653647 
L 114.969338 290.1961 
L 112.622013 290.513093 
L 110.130501 290.631165 
L 107.15425 290.531783 
L 102.871609 290.12565 
L 97.873385 289.696237 
L 94.944745 289.669932 
L 92.066602 289.871367 
L 89.081453 290.316965 
L 85.537851 291.086188 
L 77.357104 292.958074 
L 74.051487 293.424957 
L 70.810061 293.665488 
L 66.947087 293.715975 
L 62.373425 293.542641 
L 57.019774 293.113048 
L 50.344276 292.587492 
L 47.0435 292.574462 
L 43.569448 292.791279 
L 34.008338 293.518208 
L 26.029236 293.868836 
L 21.190398 294.416573 
L 17.194994 294.772093 
L 16.487884 294.80257 
L 16.487884 294.80257 
" style="fill: none; stroke: #1a1a1a; stroke-opacity: 0.5; stroke-width: 0.5; stroke-linecap: round"/>
   </g>
   <g id="line2d_8">
    <path d="M 430.030332 286.264874 
L 400.398264 285.146894 
L 375.241783 284.211963 
L 366.809273 283.654928 
L 360.357138 283.039702 
L 354.909114 282.323086 
L 350.376848 281.535519 
L 345.964392 280.560126 
L 341.665574 279.390331 
L 337.474688 277.995178 
L 334.060904 276.638646 
L 330.715538 275.090003 
L 327.4359 273.337217 
L 324.219457 271.371122 
L 321.063821 269.18555 
L 317.966734 266.777424 
L 314.926063 264.146801 
L 311.348893 260.716912 
L 307.846775 257.005983 
L 304.416622 253.030161 
L 301.055538 248.818651 
L 297.217939 243.655977 
L 292.937495 237.511348 
L 287.736818 229.636589 
L 271.176431 204.193589 
L 267.507531 199.170197 
L 264.362089 195.231423 
L 261.274821 191.753207 
L 258.67329 189.129187 
L 256.111682 186.822488 
L 253.588789 184.820766 
L 251.10346 183.099474 
L 248.249917 181.39516 
L 245.047359 179.748264 
L 237.29988 175.929926 
L 235.04406 174.532483 
L 232.818317 172.869304 
L 230.985937 171.211943 
L 229.173452 169.25052 
L 227.380436 166.933198 
L 225.606474 164.210775 
L 223.851167 161.037405 
L 222.114125 157.404731 
L 220.053257 152.530438 
L 218.017522 147.045862 
L 216.006314 140.949226 
L 213.690128 133.111605 
L 211.40564 124.599943 
L 208.513645 112.937358 
L 203.802282 92.827378 
L 199.521837 74.74585 
L 197.124263 65.513163 
L 195.054268 58.438514 
L 193.30019 53.274608 
L 191.852408 49.681542 
L 190.703156 47.305844 
L 189.561762 45.404521 
L 188.42812 43.998136 
L 187.582912 43.278798 
L 186.741962 42.849494 
L 185.905228 42.7112 
L 185.072666 42.863709 
L 184.244237 43.305633 
L 183.419898 44.034407 
L 182.599611 45.046306 
L 181.512127 46.827347 
L 180.431681 49.088332 
L 179.358184 51.811265 
L 178.025949 55.831936 
L 176.441176 61.491264 
L 174.871307 67.938433 
L 173.058259 76.328226 
L 170.755765 88.189485 
L 167.734357 105.144453 
L 161.369755 141.3725 
L 158.985026 153.538389 
L 157.101472 162.128092 
L 155.238934 169.56486 
L 153.626089 175.086233 
L 152.028677 179.703189 
L 150.67153 183.02206 
L 149.548942 185.292181 
L 148.433853 187.108696 
L 147.326164 188.51499 
L 146.225776 189.554409 
L 145.132594 190.269625 
L 144.046526 190.702009 
L 142.967477 190.891018 
L 141.895359 190.873623 
L 140.617841 190.621934 
L 139.139656 190.045621 
L 135.809307 188.427361 
L 133.151484 187.251654 
L 131.536689 186.758966 
L 130.136444 186.546904 
L 128.945512 186.595645 
L 127.763017 186.863007 
L 126.58884 187.364921 
L 125.422864 188.118365 
L 124.264976 189.135889 
L 123.115064 190.425347 
L 121.783436 192.277131 
L 120.462347 194.496773 
L 118.965223 197.434494 
L 117.296854 201.262475 
L 115.462459 206.095024 
L 113.467639 211.984588 
L 110.962774 220.099329 
L 106.927529 234.051107 
L 101.974821 251.005593 
L 99.303912 259.4309 
L 97.001418 265.934386 
L 95.052817 270.78274 
L 93.446181 274.237277 
L 91.854861 277.125685 
L 90.435529 279.264571 
L 89.183953 280.786452 
L 87.941691 281.955258 
L 86.708605 282.788471 
L 85.484562 283.331191 
L 84.420837 283.595265 
L 83.213395 283.661158 
L 81.86538 283.497978 
L 80.232455 283.058154 
L 78.031172 282.215688 
L 72.299168 279.807296 
L 64.591303 276.715914 
L 61.261951 275.004822 
L 54.922962 271.632741 
L 51.903832 270.335517 
L 45.904299 267.838643 
L 44.348127 266.850194 
L 42.452542 265.355025 
L 40.461792 263.481145 
L 36.550132 259.708079 
L 35.303971 258.853951 
L 34.291259 258.431695 
L 33.396199 258.317333 
L 32.61694 258.441584 
L 31.841301 258.780526 
L 30.959248 259.438982 
L 30.081831 260.387291 
L 29.100218 261.782512 
L 27.908256 263.897882 
L 26.40342 267.063622 
L 23.749497 273.352482 
L 21.552354 278.28591 
L 20.103495 281.002337 
L 18.871547 282.846735 
L 17.750193 284.129418 
L 16.737276 284.964787 
L 16.434595 285.156456 
L 16.434595 285.156456 
" style="fill: none; stroke: #1a1a1a; stroke-opacity: 0.5; stroke-width: 0.5; stroke-linecap: round"/>
   </g>
   <g id="line2d_9">
    <path d="M 431.135892 292.743972 
L 419.457831 292.051123 
L 410.670107 291.332582 
L 402.321957 290.420768 
L 395.344838 289.41827 
L 390.533894 288.533497 
L 385.857728 287.464904 
L 381.308994 286.18708 
L 376.880931 284.670384 
L 373.421155 283.262687 
L 370.031633 281.662114 
L 366.709569 279.848823 
L 363.45233 277.801983 
L 360.257435 275.499967 
L 357.122541 272.925931 
L 354.045436 270.104077 
L 351.024029 267.024436 
L 348.056338 263.670274 
L 345.140487 260.028373 
L 342.274697 256.089162 
L 339.457276 251.846805 
L 336.68662 247.299256 
L 333.961201 242.448278 
L 330.615835 235.966683 
L 327.336197 229.039739 
L 324.119754 221.731028 
L 320.340086 212.539076 
L 316.644108 202.974615 
L 311.840087 189.845187 
L 304.316919 168.419988 
L 297.118236 148.181735 
L 292.837791 136.777764 
L 289.697983 129.003422 
L 287.125849 123.130573 
L 284.592747 117.864235 
L 282.097511 113.241292 
L 280.127834 110.021227 
L 278.181127 107.247107 
L 276.256862 104.951536 
L 274.828081 103.540986 
L 273.411426 102.393064 
L 272.006692 101.502907 
L 270.613681 100.864558 
L 269.232198 100.471001 
L 267.862055 100.31419 
L 266.503066 100.385101 
L 265.155052 100.673774 
L 263.817836 101.169366 
L 262.491247 101.86021 
L 260.738704 103.063479 
L 259.004369 104.559134 
L 257.287869 106.316109 
L 255.16677 108.845722 
L 253.072286 111.681809 
L 250.593109 115.392741 
L 247.343796 120.670918 
L 238.721174 134.957461 
L 236.444845 138.137925 
L 234.571332 140.400283 
L 233.087516 141.916142 
L 231.616774 143.140049 
L 230.158876 144.044298 
L 229.073749 144.496473 
L 227.995629 144.742678 
L 226.924429 144.772307 
L 225.860058 144.585743 
L 224.802431 144.229935 
L 223.751463 143.679321 
L 222.707071 142.925492 
L 221.324635 141.59887 
L 219.953554 139.903111 
L 218.593642 137.842359 
L 217.24472 135.427102 
L 215.573753 131.935583 
L 213.919347 127.962742 
L 211.955463 122.645663 
L 210.014416 116.790922 
L 207.778024 109.321413 
L 204.945998 99.042334 
L 194.954565 61.817995 
L 192.909924 55.577152 
L 191.17709 51.05544 
L 189.746677 47.949696 
L 188.611106 45.943148 
L 187.483209 44.396339 
L 186.642259 43.557308 
L 185.805524 43.007119 
L 184.972963 42.740282 
L 184.144534 42.742583 
L 183.320195 43.019124 
L 182.499907 43.578682 
L 181.683631 44.428043 
L 180.871327 45.571969 
L 179.794367 47.559809 
L 178.724311 50.076627 
L 177.66107 53.116617 
L 176.341473 57.63301 
L 175.032225 62.909321 
L 173.474563 70.174148 
L 171.675474 79.81904 
L 169.642837 92.113583 
L 167.136361 108.80952 
L 157.705613 173.491624 
L 155.602921 185.829296 
L 153.526385 196.660388 
L 151.928974 204.002917 
L 150.346704 210.182591 
L 149.002309 214.613592 
L 147.668654 218.314918 
L 146.345571 221.350651 
L 145.032891 223.781706 
L 143.946822 225.386511 
L 142.867774 226.644823 
L 141.582056 227.809772 
L 140.306166 228.656627 
L 139.039953 229.239181 
L 137.574743 229.659411 
L 135.709604 229.927973 
L 129.837661 230.550793 
L 128.253515 231.015321 
L 126.68426 231.69564 
L 125.129621 232.602764 
L 123.781088 233.650829 
L 122.25313 235.128442 
L 120.550732 237.108535 
L 118.67932 239.653856 
L 116.460972 243.08745 
L 113.548301 248.022967 
L 104.589457 263.549883 
L 101.875117 267.639825 
L 99.70176 270.49642 
L 97.720393 272.755106 
L 95.762268 274.654884 
L 93.666571 276.347216 
L 91.755158 277.617594 
L 89.708865 278.706039 
L 87.687353 279.538174 
L 85.690029 280.106143 
L 83.716321 280.4481 
L 81.765677 280.568222 
L 79.690167 280.472874 
L 77.931469 280.175531 
L 76.191107 279.64516 
L 74.325968 278.812793 
L 72.340392 277.677319 
L 69.26715 275.609998 
L 64.626165 272.466765 
L 62.752052 271.45879 
L 61.162248 270.843396 
L 59.587442 270.468267 
L 58.156805 270.350443 
L 56.609969 270.454115 
L 55.204519 270.762881 
L 53.684676 271.331188 
L 52.053648 272.199059 
L 50.438401 273.317323 
L 48.593872 274.862893 
L 46.286352 277.113341 
L 42.9429 280.715403 
L 38.509885 285.474935 
L 36.336757 287.48153 
L 34.416072 288.964513 
L 32.628337 290.072213 
L 30.969547 290.862625 
L 29.218153 291.46072 
L 27.377213 291.866589 
L 25.343437 292.085982 
L 23.33414 292.078318 
L 21.45265 291.855644 
L 19.694951 291.432494 
L 17.75212 290.715782 
L 16.435725 290.117473 
L 16.435725 290.117473 
" style="fill: none; stroke: #1a1a1a; stroke-opacity: 0.5; stroke-width: 0.5; stroke-linecap: round"/>
   </g>
   <g id="line2d_10">
    <path d="M 431.135892 291.331488 
L 393.40379 289.890693 
L 384.938011 289.363543 
L 377.757196 288.688775 
L 371.717791 287.881042 
L 366.709569 286.976651 
L 362.647856 286.036946 
L 358.682629 284.894961 
L 354.809411 283.539884 
L 351.024029 281.967482 
L 347.322586 280.146778 
L 344.419414 278.492706 
L 341.565871 276.649512 
L 338.760289 274.606472 
L 336.001082 272.354661 
L 333.286743 269.887032 
L 330.615835 267.198486 
L 327.98699 264.285916 
L 324.758104 260.359678 
L 321.590491 256.153792 
L 318.481868 251.683578 
L 314.82636 246.006773 
L 311.24919 240.04898 
L 306.595838 231.81248 
L 300.402176 220.332196 
L 294.964294 209.756084 
L 278.181127 176.795397 
L 273.411426 167.978509 
L 266.954834 156.569629 
L 255.16677 135.810737 
L 230.522159 91.155038 
L 218.593642 69.792394 
L 213.919347 62.009911 
L 210.982118 57.509375 
L 207.460971 52.508138 
L 204.945998 49.311996 
L 203.084325 47.255048 
L 201.243187 45.536306 
L 199.724266 44.381621 
L 198.219043 43.487098 
L 197.02456 42.973055 
L 195.838564 42.728054 
L 194.660935 42.76779 
L 193.491556 43.096171 
L 192.330312 43.7205 
L 191.17709 44.651403 
L 190.031781 45.902729 
L 188.894276 47.491421 
L 187.76447 49.437354 
L 186.642259 51.763154 
L 185.250022 55.230615 
L 183.594522 60.07942 
L 181.95528 65.626021 
L 180.331978 71.907555 
L 178.457865 80.164476 
L 176.604559 89.361989 
L 174.511388 100.862354 
L 171.931302 116.406185 
L 167.634654 144.087423 
L 164.422021 164.116154 
L 162.475315 175.02147 
L 160.551049 184.627695 
L 158.885322 191.796817 
L 157.470668 196.914857 
L 156.300879 200.427618 
L 155.139231 203.261032 
L 153.98561 205.442676 
L 153.06842 206.752887 
L 152.38382 207.47626 
L 151.702015 207.934927 
L 151.022984 208.145504 
L 150.346704 208.124518 
L 149.673153 207.88832 
L 149.002309 207.452997 
L 148.112023 206.589961 
L 147.22646 205.436936 
L 146.126073 203.640038 
L 144.815111 201.044109 
L 143.298557 197.538063 
L 139.039953 186.800948 
L 136.743219 181.39159 
L 135.092494 178.043465 
L 133.66138 175.649563 
L 132.444401 174.054649 
L 131.436986 173.08548 
L 130.635408 172.561154 
L 129.837661 172.2683 
L 129.043709 172.211624 
L 128.253515 172.392955 
L 127.467043 172.81123 
L 126.68426 173.462502 
L 125.710915 174.588631 
L 124.743213 176.074905 
L 123.589327 178.32832 
L 122.443362 181.05222 
L 121.116271 184.76051 
L 119.612403 189.598998 
L 117.751423 196.367843 
L 114.816346 208.111758 
L 110.33117 226.124462 
L 108.220353 233.66765 
L 106.481502 239.112184 
L 104.931874 243.252517 
L 103.5664 246.306705 
L 102.212006 248.782104 
L 101.035859 250.467895 
L 99.86794 251.747526 
L 98.708137 252.677956 
L 97.556336 253.322419 
L 96.24965 253.795739 
L 94.791753 254.092447 
L 93.026998 254.188872 
L 90.178865 254.084318 
L 87.224306 253.786128 
L 85.537374 253.451682 
L 84.169725 252.948073 
L 83.113692 252.334378 
L 82.064297 251.465054 
L 81.021457 250.31112 
L 79.985093 248.837098 
L 78.955123 247.001557 
L 77.785743 244.422688 
L 76.624499 241.306134 
L 75.184212 236.699958 
L 73.614119 230.881402 
L 71.496608 222.051452 
L 67.203735 203.8701 
L 65.706611 198.540625 
L 64.4916 194.984249 
L 63.552668 192.810907 
L 62.752052 191.426535 
L 61.955257 190.49725 
L 61.294154 190.073316 
L 60.767151 189.963281 
L 60.241806 190.05534 
L 59.718109 190.346962 
L 59.06579 190.986647 
L 58.286358 192.143019 
L 57.510548 193.703077 
L 56.609969 196.008184 
L 55.586651 199.226957 
L 54.316263 204.016545 
L 52.80445 210.670107 
L 50.314796 222.851811 
L 47.375412 237.063796 
L 45.564239 244.72541 
L 44.129317 249.859373 
L 42.82472 253.743548 
L 41.647507 256.589548 
L 40.595066 258.553598 
L 39.54922 260.042508 
L 38.509885 261.134356 
L 37.476981 261.887255 
L 36.223161 262.485421 
L 34.866014 262.88557 
L 33.073479 263.156513 
L 30.091553 263.56656 
L 28.566089 264.001052 
L 27.054439 264.688787 
L 25.556355 265.640617 
L 23.755145 267.073533 
L 21.86893 268.811201 
L 19.797834 271.046318 
L 17.853812 273.493133 
L 16.435725 275.407882 
L 16.435725 275.407882 
" style="fill: none; stroke: #1a1a1a; stroke-opacity: 0.5; stroke-width: 0.5; stroke-linecap: round"/>
   </g>
   <g id="line2d_11">
    <path d="M 430.594795 290.857184 
L 422.335178 289.750196 
L 415.566892 288.637262 
L 409.062373 287.35881 
L 402.801831 285.904105 
L 396.767625 284.265128 
L 390.943957 282.435798 
L 385.316631 280.411648 
L 379.872838 278.193055 
L 374.600983 275.783092 
L 369.490537 273.18741 
L 364.531909 270.414116 
L 359.716338 267.473602 
L 354.268314 263.854026 
L 348.992492 260.07135 
L 343.160345 255.588876 
L 336.833888 250.408168 
L 329.413635 244.004236 
L 312.487096 229.225186 
L 307.784583 225.467291 
L 303.775822 222.531202 
L 299.861079 219.955851 
L 294.423197 216.627594 
L 287.608855 212.750741 
L 282.052487 209.505711 
L 279.097928 207.531261 
L 276.194756 205.335533 
L 273.813429 203.307563 
L 271.465595 201.020328 
L 269.150326 198.402249 
L 267.320958 196.02494 
L 265.51142 193.362528 
L 263.721289 190.387016 
L 261.95015 187.073599 
L 260.197607 183.400901 
L 258.03249 178.309325 
L 255.895096 172.733423 
L 253.784724 166.670457 
L 251.286998 158.776003 
L 248.826096 150.27077 
L 246.000158 139.72133 
L 242.044328 123.947024 
L 237.417846 104.602764 
L 232.546419 84.387705 
L 229.617779 73.145476 
L 227.096701 64.406833 
L 224.965674 57.891956 
L 223.210367 53.290516 
L 221.81929 50.184793 
L 220.439711 47.606612 
L 219.071439 45.566756 
L 218.052545 44.39443 
L 217.039833 43.530305 
L 216.033228 42.974558 
L 215.032656 42.726101 
L 214.038046 42.782589 
L 213.049328 43.140428 
L 212.066431 43.794798 
L 211.089287 44.7395 
L 210.11783 45.96255 
L 208.831287 48.003278 
L 207.554583 50.488607 
L 205.972313 54.17714 
L 204.404901 58.452174 
L 202.543229 64.253479 
L 200.397198 71.768446 
L 197.677946 82.232084 
L 194.413468 95.712581 
L 184.431866 137.795701 
L 181.686275 148.202275 
L 178.985112 157.615291 
L 175.800376 167.882288 
L 172.160053 178.877151 
L 169.354471 186.642389 
L 166.844225 192.933243 
L 164.862858 197.331947 
L 163.148246 200.582335 
L 161.692468 202.857844 
L 160.249276 204.772573 
L 159.056074 206.046267 
L 157.871341 206.983662 
L 156.929571 207.471377 
L 155.993085 207.715198 
L 155.061824 207.710248 
L 154.135729 207.456515 
L 153.214743 206.958853 
L 152.298811 206.229529 
L 151.387877 205.247455 
L 150.256156 203.658427 
L 149.132056 201.701662 
L 147.793053 198.92336 
L 146.244338 195.18037 
L 144.274015 189.759819 
L 141.040959 179.997199 
L 138.078911 171.312406 
L 136.202122 166.495939 
L 134.756847 163.398935 
L 133.527922 161.28968 
L 132.510684 159.939116 
L 131.701334 159.151502 
L 130.895889 158.64124 
L 130.094311 158.420394 
L 129.495644 158.449929 
L 128.700746 158.753768 
L 127.909616 159.361504 
L 127.122217 160.271458 
L 126.143163 161.825345 
L 125.169818 163.8239 
L 124.009247 166.816844 
L 122.856688 170.427567 
L 121.522018 175.336033 
L 120.009635 181.727457 
L 118.138223 190.629472 
L 115.553 204.145497 
L 109.790073 234.615018 
L 107.679256 244.392188 
L 105.940405 251.440321 
L 104.390777 256.851451 
L 103.025303 260.91202 
L 101.670909 264.280635 
L 100.494762 266.647583 
L 99.326844 268.510364 
L 98.16704 269.916985 
L 97.179296 270.797472 
L 96.197363 271.411421 
L 95.221172 271.790855 
L 94.250656 271.963769 
L 93.285751 271.928701 
L 92.167032 271.652202 
L 91.055761 271.143668 
L 89.951838 270.413311 
L 88.699088 269.302452 
L 87.300891 267.704044 
L 85.914308 265.796915 
L 84.539148 263.542987 
L 83.024363 260.591661 
L 81.5232 257.153569 
L 79.739444 252.483868 
L 77.536224 246.011845 
L 72.081507 229.567486 
L 70.675196 226.135361 
L 69.558615 223.908497 
L 68.449453 222.19745 
L 67.622392 221.273463 
L 66.799408 220.672293 
L 66.116674 220.420652 
L 65.436721 220.392725 
L 64.759527 220.581043 
L 63.950503 221.075515 
L 63.145382 221.848371 
L 62.210955 223.109787 
L 61.149405 224.9672 
L 59.831891 227.794846 
L 58.264478 231.742794 
L 55.940614 238.299472 
L 50.144789 254.89771 
L 48.297538 259.338655 
L 46.834316 262.301291 
L 45.504203 264.538542 
L 44.304139 266.124193 
L 43.231409 267.172006 
L 42.283624 267.809415 
L 41.458703 268.139755 
L 40.520902 268.263109 
L 39.58834 268.144583 
L 38.545397 267.760547 
L 37.394164 267.07366 
L 35.79566 265.804301 
L 32.309663 262.962532 
L 31.089989 262.309237 
L 30.098661 262.013143 
L 29.222395 261.973001 
L 28.350706 262.166486 
L 27.483544 262.602899 
L 26.513342 263.367326 
L 25.441912 264.529998 
L 24.165209 266.268119 
L 22.058831 269.584508 
L 17.822109 276.422671 
L 16.500905 278.213932 
L 16.500905 278.213932 
" style="fill: none; stroke: #1a1a1a; stroke-opacity: 0.5; stroke-width: 0.5; stroke-linecap: round"/>
   </g>
   <g id="line2d_12">
    <path d="M 431.143 292.121325 
L 421.736106 291.427942 
L 413.918641 290.652044 
L 406.450959 289.679527 
L 400.305668 288.653753 
L 394.378601 287.413817 
L 389.59523 286.182351 
L 385.864836 285.0226 
L 382.215987 283.687865 
L 378.645194 282.161349 
L 375.149187 280.424355 
L 371.724899 278.456465 
L 368.369445 276.235723 
L 365.080113 273.738851 
L 361.854347 270.941461 
L 358.689737 267.81829 
L 355.584006 264.343433 
L 352.535004 260.526359 
L 349.540696 256.417628 
L 346.599154 252.000276 
L 343.70855 247.261485 
L 340.867151 242.194939 
L 338.073308 236.800886 
L 335.325456 231.086135 
L 331.953055 223.512591 
L 328.647438 215.499147 
L 325.406012 207.100694 
L 321.597599 196.599642 
L 317.261557 183.914158 
L 311.847195 167.320229 
L 302.075802 137.209219 
L 298.212828 126.125524 
L 294.971402 117.47636 
L 292.31748 110.960628 
L 289.705091 105.166338 
L 287.644223 101.097419 
L 285.608488 97.562126 
L 283.597281 94.58023 
L 282.104619 92.714526 
L 280.625187 91.169259 
L 279.158751 89.944148 
L 277.705085 89.036423 
L 276.26397 88.442619 
L 274.835189 88.178874 
L 273.418534 88.243248 
L 272.0138 88.624997 
L 270.620789 89.312078 
L 269.239306 90.291222 
L 267.869163 91.547997 
L 266.510174 93.066888 
L 264.71523 95.47113 
L 262.939381 98.270246 
L 261.182226 101.420101 
L 259.011477 105.780077 
L 256.443301 111.509936 
L 253.496194 118.698406 
L 249.374301 129.425862 
L 242.983924 146.10351 
L 239.878193 153.559356 
L 237.586237 158.508086 
L 235.700023 162.057195 
L 233.834884 165.036876 
L 232.357633 166.983409 
L 230.893341 168.519899 
L 229.803491 169.391932 
L 228.720709 170.015423 
L 227.644906 170.383414 
L 226.575992 170.489425 
L 225.513879 170.327482 
L 224.458481 169.892157 
L 223.409714 169.176036 
L 222.367495 168.19938 
L 221.331743 166.977154 
L 219.960662 164.96232 
L 218.60075 162.508059 
L 217.251828 159.620858 
L 215.580861 155.422525 
L 213.926455 150.604574 
L 211.962571 144.07738 
L 210.021524 136.843451 
L 207.785132 127.673467 
L 204.953106 114.980371 
L 200.337285 92.986722 
L 196.437617 74.814804 
L 194.08233 64.838786 
L 192.33742 58.316015 
L 190.897133 53.618457 
L 189.469167 49.671691 
L 188.335525 47.102724 
L 187.209529 45.094054 
L 186.369989 43.974586 
L 185.53465 43.200905 
L 184.703471 42.784708 
L 184.151642 42.7112 
L 183.60163 42.804322 
L 182.779997 43.242627 
L 181.962388 44.023272 
L 181.148764 45.15136 
L 180.339086 46.629545 
L 179.265589 49.144853 
L 178.198952 52.275616 
L 176.875168 57.031229 
L 175.5618 62.678613 
L 173.999279 70.540352 
L 172.194632 81.021506 
L 170.409286 92.688082 
L 168.141548 109.010445 
L 163.94032 141.350546 
L 160.79748 164.733389 
L 158.419546 180.796196 
L 156.54129 192.059273 
L 154.914976 200.590258 
L 153.304354 207.856477 
L 151.709123 213.925196 
L 150.353812 218.218377 
L 149.232732 221.04748 
L 148.119131 223.262173 
L 147.01291 224.940058 
L 145.913971 226.155748 
L 144.822219 226.979772 
L 143.737562 227.477539 
L 142.659907 227.708374 
L 141.589164 227.724652 
L 139.890135 227.487757 
L 136.95782 226.774968 
L 134.076127 226.148548 
L 131.84633 225.878885 
L 130.243166 225.943542 
L 128.655252 226.236874 
L 126.88672 226.792903 
L 124.943413 227.63715 
L 122.831585 228.793246 
L 120.55784 230.304728 
L 118.500435 231.927052 
L 116.46808 233.822732 
L 114.460171 236.017888 
L 112.296925 238.697912 
L 110.161353 241.699452 
L 107.703901 245.548756 
L 105.282103 249.771834 
L 102.219114 255.597097 
L 94.960222 269.680445 
L 93.034106 272.837419 
L 91.129962 275.573351 
L 89.5596 277.471926 
L 88.158796 278.853918 
L 86.769649 279.937569 
L 85.697137 280.544082 
L 84.631472 280.918096 
L 83.572568 281.075939 
L 82.520338 281.027465 
L 81.474699 280.775767 
L 80.435569 280.317093 
L 78.962231 279.364764 
L 77.501782 278.157 
L 75.765945 276.404477 
L 73.337336 273.586078 
L 69.69002 269.313026 
L 68.170597 267.897742 
L 66.801203 266.936932 
L 65.57828 266.343107 
L 64.364251 266.000391 
L 63.025606 265.868839 
L 61.433274 265.942503 
L 59.59455 266.289383 
L 56.360659 266.910361 
L 54.703474 266.999897 
L 52.560915 266.863152 
L 49.828399 266.693673 
L 48.478733 266.809228 
L 47.261162 267.144079 
L 46.17289 267.689929 
L 45.091668 268.50149 
L 44.017403 269.581424 
L 42.831829 271.092003 
L 41.420165 273.290942 
L 39.67221 276.470003 
L 35.43726 284.416369 
L 33.974448 286.539582 
L 32.857868 287.802045 
L 31.748706 288.717068 
L 30.646866 289.312532 
L 29.7706 289.562684 
L 28.790269 289.613622 
L 27.599852 289.432009 
L 26.096951 288.958909 
L 20.6303 287.014523 
L 18.676698 286.617033 
L 16.64468 286.420306 
L 16.442833 286.411493 
L 16.442833 286.411493 
" style="fill: none; stroke: #1a1a1a; stroke-opacity: 0.5; stroke-width: 0.5; stroke-linecap: round"/>
   </g>
   <g id="patch_3">
    <path d="M 16.425 295.38 
L 16.425 42.7112 
" style="fill: none; stroke: #ffffff; stroke-width: 1.25; stroke-linejoin: miter; stroke-linecap: square"/>
   </g>
   <g id="patch_4">
    <path d="M 431.226 295.38 
L 431.226 42.7112 
" style="fill: none; stroke: #ffffff; stroke-width: 1.25; stroke-linejoin: miter; stroke-linecap: square"/>
   </g>
   <g id="patch_5">
    <path d="M 16.425 295.38 
L 431.226 295.38 
" style="fill: none; stroke: #ffffff; stroke-width: 1.25; stroke-linejoin: miter; stroke-linecap: square"/>
   </g>
   <g id="patch_6">
    <path d="M 16.425 42.7112 
L 431.226 42.7112 
" style="fill: none; stroke: #ffffff; stroke-width: 1.25; stroke-linejoin: miter; stroke-linecap: square"/>
   </g>
   <g id="patch_7">
    <path d="M 234.010731 61.796515 
Q 230.585557 64.297966 227.160383 66.799417 
" style="fill: none; stroke: #ffffff; stroke-width: 0.5; stroke-linecap: round"/>
   </g>
   <g id="text_7">
    <!-- TFP -->
    <g style="fill: #262626" transform="translate(236.26953 55.619357) scale(0.12 -0.12)">
     <defs>
      <path id="DejaVuSans-54" d="M -19 4666 
L 3928 4666 
L 3928 4134 
L 2272 4134 
L 2272 0 
L 1638 0 
L 1638 4134 
L -19 4134 
L -19 4666 
z
" transform="scale(0.015625)"/>
      <path id="DejaVuSans-46" d="M 628 4666 
L 3309 4666 
L 3309 4134 
L 1259 4134 
L 1259 2759 
L 3109 2759 
L 3109 2228 
L 1259 2228 
L 1259 0 
L 628 0 
L 628 4666 
z
" transform="scale(0.015625)"/>
      <path id="DejaVuSans-50" d="M 1259 4147 
L 1259 2394 
L 2053 2394 
Q 2494 2394 2734 2622 
Q 2975 2850 2975 3272 
Q 2975 3691 2734 3919 
Q 2494 4147 2053 4147 
L 1259 4147 
z
M 628 4666 
L 2053 4666 
Q 2838 4666 3239 4311 
Q 3641 3956 3641 3272 
Q 3641 2581 3239 2228 
Q 2838 1875 2053 1875 
L 1259 1875 
L 1259 0 
L 628 0 
L 628 4666 
z
" transform="scale(0.015625)"/>
     </defs>
     <use xlink:href="#DejaVuSans-54"/>
     <use xlink:href="#DejaVuSans-46" x="61.083984"/>
     <use xlink:href="#DejaVuSans-50" x="118.603516"/>
    </g>
   </g>
   <g id="patch_8">
    <path d="M 302.287384 76.006908 
Q 263.413295 78.25146 224.539206 80.496011 
" style="fill: none; stroke: #ffffff; stroke-width: 0.5; stroke-linecap: round"/>
   </g>
   <g id="text_8">
    <!-- Investment -->
    <g style="fill: #262626" transform="translate(306.7857 77.096205) scale(0.12 -0.12)">
     <defs>
      <path id="DejaVuSans-49" d="M 628 4666 
L 1259 4666 
L 1259 0 
L 628 0 
L 628 4666 
z
" transform="scale(0.015625)"/>
      <path id="DejaVuSans-6e" d="M 3513 2113 
L 3513 0 
L 2938 0 
L 2938 2094 
Q 2938 2591 2744 2837 
Q 2550 3084 2163 3084 
Q 1697 3084 1428 2787 
Q 1159 2491 1159 1978 
L 1159 0 
L 581 0 
L 581 3500 
L 1159 3500 
L 1159 2956 
Q 1366 3272 1645 3428 
Q 1925 3584 2291 3584 
Q 2894 3584 3203 3211 
Q 3513 2838 3513 2113 
z
" transform="scale(0.015625)"/>
      <path id="DejaVuSans-76" d="M 191 3500 
L 800 3500 
L 1894 563 
L 2988 3500 
L 3597 3500 
L 2284 0 
L 1503 0 
L 191 3500 
z
" transform="scale(0.015625)"/>
      <path id="DejaVuSans-74" d="M 1172 4494 
L 1172 3500 
L 2356 3500 
L 2356 3053 
L 1172 3053 
L 1172 1153 
Q 1172 725 1289 603 
Q 1406 481 1766 481 
L 2356 481 
L 2356 0 
L 1766 0 
Q 1100 0 847 248 
Q 594 497 594 1153 
L 594 3053 
L 172 3053 
L 172 3500 
L 594 3500 
L 594 4494 
L 1172 4494 
z
" transform="scale(0.015625)"/>
      <path id="DejaVuSans-6d" d="M 3328 2828 
Q 3544 3216 3844 3400 
Q 4144 3584 4550 3584 
Q 5097 3584 5394 3201 
Q 5691 2819 5691 2113 
L 5691 0 
L 5113 0 
L 5113 2094 
Q 5113 2597 4934 2840 
Q 4756 3084 4391 3084 
Q 3944 3084 3684 2787 
Q 3425 2491 3425 1978 
L 3425 0 
L 2847 0 
L 2847 2094 
Q 2847 2600 2669 2842 
Q 2491 3084 2119 3084 
Q 1678 3084 1418 2786 
Q 1159 2488 1159 1978 
L 1159 0 
L 581 0 
L 581 3500 
L 1159 3500 
L 1159 2956 
Q 1356 3278 1631 3431 
Q 1906 3584 2284 3584 
Q 2666 3584 2933 3390 
Q 3200 3197 3328 2828 
z
" transform="scale(0.015625)"/>
     </defs>
     <use xlink:href="#DejaVuSans-49"/>
     <use xlink:href="#DejaVuSans-6e" x="29.492188"/>
     <use xlink:href="#DejaVuSans-76" x="92.871094"/>
     <use xlink:href="#DejaVuSans-65" x="152.050781"/>
     <use xlink:href="#DejaVuSans-73" x="213.574219"/>
     <use xlink:href="#DejaVuSans-74" x="265.673828"/>
     <use xlink:href="#DejaVuSans-6d" x="304.882812"/>
     <use xlink:href="#DejaVuSans-65" x="402.294922"/>
     <use xlink:href="#DejaVuSans-6e" x="463.818359"/>
     <use xlink:href="#DejaVuSans-74" x="527.197266"/>
    </g>
   </g>
   <g id="patch_9">
    <path d="M 302.34017 63.77836 
Q 294.683866 65.641883 287.027562 67.505406 
" style="fill: none; stroke: #ffffff; stroke-width: 0.5; stroke-linecap: round"/>
   </g>
   <g id="text_9">
    <!-- Wage -->
    <g style="fill: #262626" transform="translate(306.7857 61.936077) scale(0.12 -0.12)">
     <defs>
      <path id="DejaVuSans-57" d="M 213 4666 
L 850 4666 
L 1831 722 
L 2809 4666 
L 3519 4666 
L 4500 722 
L 5478 4666 
L 6119 4666 
L 4947 0 
L 4153 0 
L 3169 4050 
L 2175 0 
L 1381 0 
L 213 4666 
z
" transform="scale(0.015625)"/>
      <path id="DejaVuSans-67" d="M 2906 1791 
Q 2906 2416 2648 2759 
Q 2391 3103 1925 3103 
Q 1463 3103 1205 2759 
Q 947 2416 947 1791 
Q 947 1169 1205 825 
Q 1463 481 1925 481 
Q 2391 481 2648 825 
Q 2906 1169 2906 1791 
z
M 3481 434 
Q 3481 -459 3084 -895 
Q 2688 -1331 1869 -1331 
Q 1566 -1331 1297 -1286 
Q 1028 -1241 775 -1147 
L 775 -588 
Q 1028 -725 1275 -790 
Q 1522 -856 1778 -856 
Q 2344 -856 2625 -561 
Q 2906 -266 2906 331 
L 2906 616 
Q 2728 306 2450 153 
Q 2172 0 1784 0 
Q 1141 0 747 490 
Q 353 981 353 1791 
Q 353 2603 747 3093 
Q 1141 3584 1784 3584 
Q 2172 3584 2450 3431 
Q 2728 3278 2906 2969 
L 2906 3500 
L 3481 3500 
L 3481 434 
z
" transform="scale(0.015625)"/>
     </defs>
     <use xlink:href="#DejaVuSans-57"/>
     <use xlink:href="#DejaVuSans-61" x="92.501953"/>
     <use xlink:href="#DejaVuSans-67" x="153.78125"/>
     <use xlink:href="#DejaVuSans-65" x="217.257812"/>
    </g>
   </g>
   <g id="patch_10">
    <path d="M 323.03172 90.142194 
Q 302.942945 91.620193 282.85417 93.098192 
" style="fill: none; stroke: #ffffff; stroke-width: 0.5; stroke-linecap: round"/>
   </g>
   <g id="text_10">
    <!-- Unemployment -->
    <g style="fill: #262626" transform="translate(327.52575 89.729645) scale(0.12 -0.12)">
     <defs>
      <path id="DejaVuSans-55" d="M 556 4666 
L 1191 4666 
L 1191 1831 
Q 1191 1081 1462 751 
Q 1734 422 2344 422 
Q 2950 422 3222 751 
Q 3494 1081 3494 1831 
L 3494 4666 
L 4128 4666 
L 4128 1753 
Q 4128 841 3676 375 
Q 3225 -91 2344 -91 
Q 1459 -91 1007 375 
Q 556 841 556 1753 
L 556 4666 
z
" transform="scale(0.015625)"/>
      <path id="DejaVuSans-70" d="M 1159 525 
L 1159 -1331 
L 581 -1331 
L 581 3500 
L 1159 3500 
L 1159 2969 
Q 1341 3281 1617 3432 
Q 1894 3584 2278 3584 
Q 2916 3584 3314 3078 
Q 3713 2572 3713 1747 
Q 3713 922 3314 415 
Q 2916 -91 2278 -91 
Q 1894 -91 1617 61 
Q 1341 213 1159 525 
z
M 3116 1747 
Q 3116 2381 2855 2742 
Q 2594 3103 2138 3103 
Q 1681 3103 1420 2742 
Q 1159 2381 1159 1747 
Q 1159 1113 1420 752 
Q 1681 391 2138 391 
Q 2594 391 2855 752 
Q 3116 1113 3116 1747 
z
" transform="scale(0.015625)"/>
      <path id="DejaVuSans-6c" d="M 603 4863 
L 1178 4863 
L 1178 0 
L 603 0 
L 603 4863 
z
" transform="scale(0.015625)"/>
      <path id="DejaVuSans-6f" d="M 1959 3097 
Q 1497 3097 1228 2736 
Q 959 2375 959 1747 
Q 959 1119 1226 758 
Q 1494 397 1959 397 
Q 2419 397 2687 759 
Q 2956 1122 2956 1747 
Q 2956 2369 2687 2733 
Q 2419 3097 1959 3097 
z
M 1959 3584 
Q 2709 3584 3137 3096 
Q 3566 2609 3566 1747 
Q 3566 888 3137 398 
Q 2709 -91 1959 -91 
Q 1206 -91 779 398 
Q 353 888 353 1747 
Q 353 2609 779 3096 
Q 1206 3584 1959 3584 
z
" transform="scale(0.015625)"/>
      <path id="DejaVuSans-79" d="M 2059 -325 
Q 1816 -950 1584 -1140 
Q 1353 -1331 966 -1331 
L 506 -1331 
L 506 -850 
L 844 -850 
Q 1081 -850 1212 -737 
Q 1344 -625 1503 -206 
L 1606 56 
L 191 3500 
L 800 3500 
L 1894 763 
L 2988 3500 
L 3597 3500 
L 2059 -325 
z
" transform="scale(0.015625)"/>
     </defs>
     <use xlink:href="#DejaVuSans-55"/>
     <use xlink:href="#DejaVuSans-6e" x="73.193359"/>
     <use xlink:href="#DejaVuSans-65" x="136.572266"/>
     <use xlink:href="#DejaVuSans-6d" x="198.095703"/>
     <use xlink:href="#DejaVuSans-70" x="295.507812"/>
     <use xlink:href="#DejaVuSans-6c" x="358.984375"/>
     <use xlink:href="#DejaVuSans-6f" x="386.767578"/>
     <use xlink:href="#DejaVuSans-79" x="447.949219"/>
     <use xlink:href="#DejaVuSans-6d" x="507.128906"/>
     <use xlink:href="#DejaVuSans-65" x="604.541016"/>
     <use xlink:href="#DejaVuSans-6e" x="666.064453"/>
     <use xlink:href="#DejaVuSans-74" x="729.443359"/>
    </g>
   </g>
   <g id="patch_11">
    <path d="M 323.029881 102.359136 
Q 299.668684 104.046703 276.307488 105.73427 
" style="fill: none; stroke: #ffffff; stroke-width: 0.5; stroke-linecap: round"/>
   </g>
   <g id="text_11">
    <!-- Hours worked -->
    <g style="fill: #262626" transform="translate(327.52575 102.363085) scale(0.12 -0.12)">
     <defs>
      <path id="DejaVuSans-48" d="M 628 4666 
L 1259 4666 
L 1259 2753 
L 3553 2753 
L 3553 4666 
L 4184 4666 
L 4184 0 
L 3553 0 
L 3553 2222 
L 1259 2222 
L 1259 0 
L 628 0 
L 628 4666 
z
" transform="scale(0.015625)"/>
      <path id="DejaVuSans-75" d="M 544 1381 
L 544 3500 
L 1119 3500 
L 1119 1403 
Q 1119 906 1312 657 
Q 1506 409 1894 409 
Q 2359 409 2629 706 
Q 2900 1003 2900 1516 
L 2900 3500 
L 3475 3500 
L 3475 0 
L 2900 0 
L 2900 538 
Q 2691 219 2414 64 
Q 2138 -91 1772 -91 
Q 1169 -91 856 284 
Q 544 659 544 1381 
z
M 1991 3584 
L 1991 3584 
z
" transform="scale(0.015625)"/>
      <path id="DejaVuSans-20" transform="scale(0.015625)"/>
      <path id="DejaVuSans-77" d="M 269 3500 
L 844 3500 
L 1563 769 
L 2278 3500 
L 2956 3500 
L 3675 769 
L 4391 3500 
L 4966 3500 
L 4050 0 
L 3372 0 
L 2619 2869 
L 1863 0 
L 1184 0 
L 269 3500 
z
" transform="scale(0.015625)"/>
      <path id="DejaVuSans-6b" d="M 581 4863 
L 1159 4863 
L 1159 1991 
L 2875 3500 
L 3609 3500 
L 1753 1863 
L 3688 0 
L 2938 0 
L 1159 1709 
L 1159 0 
L 581 0 
L 581 4863 
z
" transform="scale(0.015625)"/>
      <path id="DejaVuSans-64" d="M 2906 2969 
L 2906 4863 
L 3481 4863 
L 3481 0 
L 2906 0 
L 2906 525 
Q 2725 213 2448 61 
Q 2172 -91 1784 -91 
Q 1150 -91 751 415 
Q 353 922 353 1747 
Q 353 2572 751 3078 
Q 1150 3584 1784 3584 
Q 2172 3584 2448 3432 
Q 2725 3281 2906 2969 
z
M 947 1747 
Q 947 1113 1208 752 
Q 1469 391 1925 391 
Q 2381 391 2643 752 
Q 2906 1113 2906 1747 
Q 2906 2381 2643 2742 
Q 2381 3103 1925 3103 
Q 1469 3103 1208 2742 
Q 947 2381 947 1747 
z
" transform="scale(0.015625)"/>
     </defs>
     <use xlink:href="#DejaVuSans-48"/>
     <use xlink:href="#DejaVuSans-6f" x="75.195312"/>
     <use xlink:href="#DejaVuSans-75" x="136.376953"/>
     <use xlink:href="#DejaVuSans-72" x="199.755859"/>
     <use xlink:href="#DejaVuSans-73" x="240.869141"/>
     <use xlink:href="#DejaVuSans-20" x="292.96875"/>
     <use xlink:href="#DejaVuSans-77" x="324.755859"/>
     <use xlink:href="#DejaVuSans-6f" x="406.542969"/>
     <use xlink:href="#DejaVuSans-72" x="467.724609"/>
     <use xlink:href="#DejaVuSans-6b" x="508.837891"/>
     <use xlink:href="#DejaVuSans-65" x="563.123047"/>
     <use xlink:href="#DejaVuSans-64" x="624.646484"/>
    </g>
   </g>
   <g id="patch_12">
    <path d="M 354.160681 244.560772 
Q 328.566193 248.347356 302.971705 252.133939 
" style="fill: none; stroke: #ffffff; stroke-width: 0.5; stroke-linecap: round"/>
   </g>
   <g id="text_12">
    <!-- Consumption -->
    <g style="fill: #262626" transform="translate(358.635825 241.330925) scale(0.12 -0.12)">
     <defs>
      <path id="DejaVuSans-43" d="M 4122 4306 
L 4122 3641 
Q 3803 3938 3442 4084 
Q 3081 4231 2675 4231 
Q 1875 4231 1450 3742 
Q 1025 3253 1025 2328 
Q 1025 1406 1450 917 
Q 1875 428 2675 428 
Q 3081 428 3442 575 
Q 3803 722 4122 1019 
L 4122 359 
Q 3791 134 3420 21 
Q 3050 -91 2638 -91 
Q 1578 -91 968 557 
Q 359 1206 359 2328 
Q 359 3453 968 4101 
Q 1578 4750 2638 4750 
Q 3056 4750 3426 4639 
Q 3797 4528 4122 4306 
z
" transform="scale(0.015625)"/>
      <path id="DejaVuSans-69" d="M 603 3500 
L 1178 3500 
L 1178 0 
L 603 0 
L 603 3500 
z
M 603 4863 
L 1178 4863 
L 1178 4134 
L 603 4134 
L 603 4863 
z
" transform="scale(0.015625)"/>
     </defs>
     <use xlink:href="#DejaVuSans-43"/>
     <use xlink:href="#DejaVuSans-6f" x="69.824219"/>
     <use xlink:href="#DejaVuSans-6e" x="131.005859"/>
     <use xlink:href="#DejaVuSans-73" x="194.384766"/>
     <use xlink:href="#DejaVuSans-75" x="246.484375"/>
     <use xlink:href="#DejaVuSans-6d" x="309.863281"/>
     <use xlink:href="#DejaVuSans-70" x="407.275391"/>
     <use xlink:href="#DejaVuSans-74" x="470.751953"/>
     <use xlink:href="#DejaVuSans-69" x="509.960938"/>
     <use xlink:href="#DejaVuSans-6f" x="537.744141"/>
     <use xlink:href="#DejaVuSans-6e" x="598.925781"/>
    </g>
   </g>
   <g id="legend_1">
    <g id="line2d_13">
     <path d="M 26.325 31.852601 
L 37.325 31.852601 
L 48.325 31.852601 
" style="fill: none; stroke: #1a1a1a; stroke-width: 1.5; stroke-linecap: round"/>
    </g>
    <g id="text_13">
     <!-- GDP -->
     <g style="fill: #262626" transform="translate(57.125 35.702601) scale(0.11 -0.11)">
      <defs>
       <path id="DejaVuSans-47" d="M 3809 666 
L 3809 1919 
L 2778 1919 
L 2778 2438 
L 4434 2438 
L 4434 434 
Q 4069 175 3628 42 
Q 3188 -91 2688 -91 
Q 1594 -91 976 548 
Q 359 1188 359 2328 
Q 359 3472 976 4111 
Q 1594 4750 2688 4750 
Q 3144 4750 3555 4637 
Q 3966 4525 4313 4306 
L 4313 3634 
Q 3963 3931 3569 4081 
Q 3175 4231 2741 4231 
Q 1884 4231 1454 3753 
Q 1025 3275 1025 2328 
Q 1025 1384 1454 906 
Q 1884 428 2741 428 
Q 3075 428 3337 486 
Q 3600 544 3809 666 
z
" transform="scale(0.015625)"/>
       <path id="DejaVuSans-44" d="M 1259 4147 
L 1259 519 
L 2022 519 
Q 2988 519 3436 956 
Q 3884 1394 3884 2338 
Q 3884 3275 3436 3711 
Q 2988 4147 2022 4147 
L 1259 4147 
z
M 628 4666 
L 1925 4666 
Q 3281 4666 3915 4102 
Q 4550 3538 4550 2338 
Q 4550 1131 3912 565 
Q 3275 0 1925 0 
L 628 0 
L 628 4666 
z
" transform="scale(0.015625)"/>
      </defs>
      <use xlink:href="#DejaVuSans-47"/>
      <use xlink:href="#DejaVuSans-44" x="77.490234"/>
      <use xlink:href="#DejaVuSans-50" x="154.492188"/>
     </g>
    </g>
    <g id="line2d_14">
     <path d="M 102.750937 31.852601 
L 113.750937 31.852601 
L 124.750937 31.852601 
" style="fill: none; stroke: #1a1a1a; stroke-opacity: 0.5; stroke-width: 0.5; stroke-linecap: round"/>
    </g>
    <g id="text_14">
     <!-- Others -->
     <g style="fill: #262626" transform="translate(133.550938 35.702601) scale(0.11 -0.11)">
      <defs>
       <path id="DejaVuSans-4f" d="M 2522 4238 
Q 1834 4238 1429 3725 
Q 1025 3213 1025 2328 
Q 1025 1447 1429 934 
Q 1834 422 2522 422 
Q 3209 422 3611 934 
Q 4013 1447 4013 2328 
Q 4013 3213 3611 3725 
Q 3209 4238 2522 4238 
z
M 2522 4750 
Q 3503 4750 4090 4092 
Q 4678 3434 4678 2328 
Q 4678 1225 4090 567 
Q 3503 -91 2522 -91 
Q 1538 -91 948 565 
Q 359 1222 359 2328 
Q 359 3434 948 4092 
Q 1538 4750 2522 4750 
z
" transform="scale(0.015625)"/>
       <path id="DejaVuSans-68" d="M 3513 2113 
L 3513 0 
L 2938 0 
L 2938 2094 
Q 2938 2591 2744 2837 
Q 2550 3084 2163 3084 
Q 1697 3084 1428 2787 
Q 1159 2491 1159 1978 
L 1159 0 
L 581 0 
L 581 4863 
L 1159 4863 
L 1159 2956 
Q 1366 3272 1645 3428 
Q 1925 3584 2291 3584 
Q 2894 3584 3203 3211 
Q 3513 2838 3513 2113 
z
" transform="scale(0.015625)"/>
      </defs>
      <use xlink:href="#DejaVuSans-4f"/>
      <use xlink:href="#DejaVuSans-74" x="78.710938"/>
      <use xlink:href="#DejaVuSans-68" x="117.919922"/>
      <use xlink:href="#DejaVuSans-65" x="181.298828"/>
      <use xlink:href="#DejaVuSans-72" x="242.822266"/>
      <use xlink:href="#DejaVuSans-73" x="283.935547"/>
     </g>
    </g>
   </g>
  </g>
 </g>
 <defs>
  <clipPath id="p576ec62fe6">
   <rect x="16.425" y="42.7112" width="414.801" height="252.6688"/>
  </clipPath>
 </defs>
</svg>
