<?xml version="1.0" encoding="utf-8" standalone="no"?>
<!DOCTYPE svg PUBLIC "-//W3C//DTD SVG 1.1//EN"
  "http://www.w3.org/Graphics/SVG/1.1/DTD/svg11.dtd">
<svg xmlns:xlink="http://www.w3.org/1999/xlink" width="460.8pt" height="345.6pt" viewBox="0 0 460.8 345.6" xmlns="http://www.w3.org/2000/svg" version="1.1">
 <metadata>
  <rdf:RDF xmlns:dc="http://purl.org/dc/elements/1.1/" xmlns:cc="http://creativecommons.org/ns#" xmlns:rdf="http://www.w3.org/1999/02/22-rdf-syntax-ns#">
   <cc:Work>
    <dc:type rdf:resource="http://purl.org/dc/dcmitype/StillImage"/>
    <dc:date>2024-05-07T21:11:45.210015</dc:date>
    <dc:format>image/svg+xml</dc:format>
    <dc:creator>
     <cc:Agent>
      <dc:title>Matplotlib v3.8.3, https://matplotlib.org/</dc:title>
     </cc:Agent>
    </dc:creator>
   </cc:Work>
  </rdf:RDF>
 </metadata>
 <defs>
  <style type="text/css">*{stroke-linejoin: round; stroke-linecap: butt}</style>
 </defs>
 <g id="figure_1">
  <g id="patch_1">
   <path d="M 0 345.6 
L 460.8 345.6 
L 460.8 0 
L 0 0 
L 0 345.6 
z
" style="fill: none"/>
  </g>
  <g id="axes_1">
   <g id="patch_2">
    <path d="M 16.425 295.38 
L 440.91 295.38 
L 440.91 42.7112 
L 16.425 42.7112 
L 16.425 295.38 
z
" style="fill: none"/>
   </g>
   <g id="matplotlib.axis_1">
    <g id="xtick_1">
     <g id="line2d_1">
      <path d="M 16.425 295.38 
L 16.425 42.7112 
" clip-path="url(#p7265ae87ce)" style="fill: none; stroke: #ffffff; stroke-linecap: round"/>
     </g>
     <g id="text_1">
      <!-- 2 -->
      <g style="fill: #262626" transform="translate(12.925625 313.238281) scale(0.11 -0.11)">
       <defs>
        <path id="DejaVuSans-32" d="M 1228 531 
L 3431 531 
L 3431 0 
L 469 0 
L 469 531 
Q 828 903 1448 1529 
Q 2069 2156 2228 2338 
Q 2531 2678 2651 2914 
Q 2772 3150 2772 3378 
Q 2772 3750 2511 3984 
Q 2250 4219 1831 4219 
Q 1534 4219 1204 4116 
Q 875 4013 500 3803 
L 500 4441 
Q 881 4594 1212 4672 
Q 1544 4750 1819 4750 
Q 2544 4750 2975 4387 
Q 3406 4025 3406 3419 
Q 3406 3131 3298 2873 
Q 3191 2616 2906 2266 
Q 2828 2175 2409 1742 
Q 1991 1309 1228 531 
z
" transform="scale(0.015625)"/>
       </defs>
       <use xlink:href="#DejaVuSans-32"/>
      </g>
     </g>
    </g>
    <g id="xtick_2">
     <g id="line2d_2">
      <path d="M 134.832096 295.38 
L 134.832096 42.7112 
" clip-path="url(#p7265ae87ce)" style="fill: none; stroke: #ffffff; stroke-linecap: round"/>
     </g>
     <g id="text_2">
      <!-- 4 -->
      <g style="fill: #262626" transform="translate(131.332721 313.238281) scale(0.11 -0.11)">
       <defs>
        <path id="DejaVuSans-34" d="M 2419 4116 
L 825 1625 
L 2419 1625 
L 2419 4116 
z
M 2253 4666 
L 3047 4666 
L 3047 1625 
L 3713 1625 
L 3713 1100 
L 3047 1100 
L 3047 0 
L 2419 0 
L 2419 1100 
L 313 1100 
L 313 1709 
L 2253 4666 
z
" transform="scale(0.015625)"/>
       </defs>
       <use xlink:href="#DejaVuSans-34"/>
      </g>
     </g>
    </g>
    <g id="xtick_3">
     <g id="line2d_3">
      <path d="M 204.095807 295.38 
L 204.095807 42.7112 
" clip-path="url(#p7265ae87ce)" style="fill: none; stroke: #ffffff; stroke-linecap: round"/>
     </g>
     <g id="text_3">
      <!-- 6 -->
      <g style="fill: #262626" transform="translate(200.596432 313.238281) scale(0.11 -0.11)">
       <defs>
        <path id="DejaVuSans-36" d="M 2113 2584 
Q 1688 2584 1439 2293 
Q 1191 2003 1191 1497 
Q 1191 994 1439 701 
Q 1688 409 2113 409 
Q 2538 409 2786 701 
Q 3034 994 3034 1497 
Q 3034 2003 2786 2293 
Q 2538 2584 2113 2584 
z
M 3366 4563 
L 3366 3988 
Q 3128 4100 2886 4159 
Q 2644 4219 2406 4219 
Q 1781 4219 1451 3797 
Q 1122 3375 1075 2522 
Q 1259 2794 1537 2939 
Q 1816 3084 2150 3084 
Q 2853 3084 3261 2657 
Q 3669 2231 3669 1497 
Q 3669 778 3244 343 
Q 2819 -91 2113 -91 
Q 1303 -91 875 529 
Q 447 1150 447 2328 
Q 447 3434 972 4092 
Q 1497 4750 2381 4750 
Q 2619 4750 2861 4703 
Q 3103 4656 3366 4563 
z
" transform="scale(0.015625)"/>
       </defs>
       <use xlink:href="#DejaVuSans-36"/>
      </g>
     </g>
    </g>
    <g id="xtick_4">
     <g id="line2d_4">
      <path d="M 322.502904 295.38 
L 322.502904 42.7112 
" clip-path="url(#p7265ae87ce)" style="fill: none; stroke: #ffffff; stroke-linecap: round"/>
     </g>
     <g id="text_4">
      <!-- 12 -->
      <g style="fill: #262626" transform="translate(315.504154 313.238281) scale(0.11 -0.11)">
       <defs>
        <path id="DejaVuSans-31" d="M 794 531 
L 1825 531 
L 1825 4091 
L 703 3866 
L 703 4441 
L 1819 4666 
L 2450 4666 
L 2450 531 
L 3481 531 
L 3481 0 
L 794 0 
L 794 531 
z
" transform="scale(0.015625)"/>
       </defs>
       <use xlink:href="#DejaVuSans-31"/>
       <use xlink:href="#DejaVuSans-32" x="63.623047"/>
      </g>
     </g>
    </g>
    <g id="xtick_5">
     <g id="line2d_5">
      <path d="M 440.91 295.38 
L 440.91 42.7112 
" clip-path="url(#p7265ae87ce)" style="fill: none; stroke: #ffffff; stroke-linecap: round"/>
     </g>
     <g id="text_5">
      <!-- 24 -->
      <g style="fill: #262626" transform="translate(433.91125 313.238281) scale(0.11 -0.11)">
       <use xlink:href="#DejaVuSans-32"/>
       <use xlink:href="#DejaVuSans-34" x="63.623047"/>
      </g>
     </g>
    </g>
    <g id="xtick_6"/>
    <g id="xtick_7"/>
    <g id="xtick_8"/>
    <g id="xtick_9"/>
    <g id="xtick_10"/>
    <g id="xtick_11"/>
    <g id="xtick_12"/>
    <g id="xtick_13"/>
    <g id="xtick_14"/>
    <g id="text_6">
     <!-- Years -->
     <g style="fill: #262626" transform="translate(212.836875 328.644063) scale(0.12 -0.12)">
      <defs>
       <path id="DejaVuSans-59" d="M -13 4666 
L 666 4666 
L 1959 2747 
L 3244 4666 
L 3922 4666 
L 2272 2222 
L 2272 0 
L 1638 0 
L 1638 2222 
L -13 4666 
z
" transform="scale(0.015625)"/>
       <path id="DejaVuSans-65" d="M 3597 1894 
L 3597 1613 
L 953 1613 
Q 991 1019 1311 708 
Q 1631 397 2203 397 
Q 2534 397 2845 478 
Q 3156 559 3463 722 
L 3463 178 
Q 3153 47 2828 -22 
Q 2503 -91 2169 -91 
Q 1331 -91 842 396 
Q 353 884 353 1716 
Q 353 2575 817 3079 
Q 1281 3584 2069 3584 
Q 2775 3584 3186 3129 
Q 3597 2675 3597 1894 
z
M 3022 2063 
Q 3016 2534 2758 2815 
Q 2500 3097 2075 3097 
Q 1594 3097 1305 2825 
Q 1016 2553 972 2059 
L 3022 2063 
z
" transform="scale(0.015625)"/>
       <path id="DejaVuSans-61" d="M 2194 1759 
Q 1497 1759 1228 1600 
Q 959 1441 959 1056 
Q 959 750 1161 570 
Q 1363 391 1709 391 
Q 2188 391 2477 730 
Q 2766 1069 2766 1631 
L 2766 1759 
L 2194 1759 
z
M 3341 1997 
L 3341 0 
L 2766 0 
L 2766 531 
Q 2569 213 2275 61 
Q 1981 -91 1556 -91 
Q 1019 -91 701 211 
Q 384 513 384 1019 
Q 384 1609 779 1909 
Q 1175 2209 1959 2209 
L 2766 2209 
L 2766 2266 
Q 2766 2663 2505 2880 
Q 2244 3097 1772 3097 
Q 1472 3097 1187 3025 
Q 903 2953 641 2809 
L 641 3341 
Q 956 3463 1253 3523 
Q 1550 3584 1831 3584 
Q 2591 3584 2966 3190 
Q 3341 2797 3341 1997 
z
" transform="scale(0.015625)"/>
       <path id="DejaVuSans-72" d="M 2631 2963 
Q 2534 3019 2420 3045 
Q 2306 3072 2169 3072 
Q 1681 3072 1420 2755 
Q 1159 2438 1159 1844 
L 1159 0 
L 581 0 
L 581 3500 
L 1159 3500 
L 1159 2956 
Q 1341 3275 1631 3429 
Q 1922 3584 2338 3584 
Q 2397 3584 2469 3576 
Q 2541 3569 2628 3553 
L 2631 2963 
z
" transform="scale(0.015625)"/>
       <path id="DejaVuSans-73" d="M 2834 3397 
L 2834 2853 
Q 2591 2978 2328 3040 
Q 2066 3103 1784 3103 
Q 1356 3103 1142 2972 
Q 928 2841 928 2578 
Q 928 2378 1081 2264 
Q 1234 2150 1697 2047 
L 1894 2003 
Q 2506 1872 2764 1633 
Q 3022 1394 3022 966 
Q 3022 478 2636 193 
Q 2250 -91 1575 -91 
Q 1294 -91 989 -36 
Q 684 19 347 128 
L 347 722 
Q 666 556 975 473 
Q 1284 391 1588 391 
Q 1994 391 2212 530 
Q 2431 669 2431 922 
Q 2431 1156 2273 1281 
Q 2116 1406 1581 1522 
L 1381 1569 
Q 847 1681 609 1914 
Q 372 2147 372 2553 
Q 372 3047 722 3315 
Q 1072 3584 1716 3584 
Q 2034 3584 2315 3537 
Q 2597 3491 2834 3397 
z
" transform="scale(0.015625)"/>
      </defs>
      <use xlink:href="#DejaVuSans-59"/>
      <use xlink:href="#DejaVuSans-65" x="47.833984"/>
      <use xlink:href="#DejaVuSans-61" x="109.357422"/>
      <use xlink:href="#DejaVuSans-72" x="170.636719"/>
      <use xlink:href="#DejaVuSans-73" x="211.75"/>
     </g>
    </g>
   </g>
   <g id="matplotlib.axis_2"/>
   <g id="line2d_6">
    <path d="M 440.817788 287.33454 
L 428.867089 286.132173 
L 417.698058 284.795124 
L 407.214687 283.325851 
L 398.300039 281.863859 
L 390.748518 280.368411 
L 384.404143 278.89853 
L 378.286981 277.258534 
L 373.212589 275.694458 
L 368.284593 273.957361 
L 363.494784 272.029093 
L 358.835623 269.927345 
L 354.30017 267.627137 
L 349.882028 265.102956 
L 346.285572 262.81397 
L 342.763276 260.34751 
L 339.312141 257.698557 
L 335.929351 254.865285 
L 331.95649 251.234188 
L 328.073929 247.378016 
L 324.277654 243.316014 
L 319.952731 238.355631 
L 315.140432 232.470368 
L 309.30965 224.959175 
L 302.015506 215.208448 
L 292.924063 203.099292 
L 287.793788 196.664622 
L 283.797691 191.986589 
L 280.376183 188.301266 
L 277.021861 185.009151 
L 273.732138 182.100858 
L 270.504573 179.559015 
L 267.33686 177.358759 
L 264.22682 175.479499 
L 261.605408 174.142211 
L 258.597086 172.871957 
L 255.640826 171.890275 
L 252.734857 171.179656 
L 249.877497 170.730654 
L 247.067146 170.534579 
L 241.581458 170.134936 
L 238.524099 169.732484 
L 236.266463 169.245113 
L 234.407627 168.650081 
L 232.568801 167.82096 
L 230.749557 166.702893 
L 228.591735 165.097114 
L 226.81414 163.486416 
L 225.054852 161.572551 
L 223.313499 159.318208 
L 221.589717 156.69955 
L 219.883156 153.706565 
L 217.857535 149.627437 
L 215.855653 145.045145 
L 213.876959 139.944001 
L 211.597083 133.386835 
L 209.028232 125.268727 
L 205.557977 113.43918 
L 198.222668 88.113397 
L 195.845929 80.938295 
L 194.084828 76.270179 
L 192.630986 72.938798 
L 191.189414 70.183196 
L 190.044851 68.43407 
L 188.907906 67.106277 
L 188.060136 66.38749 
L 187.216553 65.914722 
L 186.377115 65.696215 
L 185.541781 65.738711 
L 184.710513 66.047413 
L 183.88327 66.625962 
L 183.060014 67.476411 
L 182.240706 68.59922 
L 181.154373 70.517776 
L 180.074904 72.911232 
L 178.735091 76.552058 
L 177.405704 80.87928 
L 175.823977 86.86065 
L 173.99695 94.749953 
L 171.932571 104.69218 
L 168.630268 121.89993 
L 164.897592 141.108564 
L 162.453698 152.749788 
L 160.523447 160.89266 
L 158.852187 166.97253 
L 157.432578 171.367151 
L 156.024669 175.028834 
L 154.860211 177.410994 
L 153.934326 178.838601 
L 153.013432 179.870867 
L 152.097477 180.535155 
L 151.186406 180.858547 
L 150.506278 180.893373 
L 149.603632 180.683604 
L 148.705731 180.203896 
L 147.812524 179.478053 
L 146.702544 178.260855 
L 145.16059 176.15054 
L 143.198312 173.045455 
L 138.073168 164.691844 
L 136.606847 162.824543 
L 135.359941 161.580459 
L 134.327761 160.852536 
L 133.506483 160.499816 
L 132.689136 160.368862 
L 131.87568 160.472883 
L 131.06608 160.822046 
L 130.260299 161.42338 
L 129.4583 162.280709 
L 128.461068 163.706729 
L 127.469624 165.516815 
L 126.287438 168.200097 
L 125.113376 171.404493 
L 123.753758 175.732132 
L 122.02143 182.066725 
L 119.927723 190.626638 
L 115.631179 209.503247 
L 113.249661 219.360154 
L 111.440054 225.989217 
L 110.006045 230.496472 
L 108.761086 233.790156 
L 107.525135 236.452519 
L 106.47282 238.229142 
L 105.426947 239.548816 
L 104.560251 240.311473 
L 103.697931 240.787302 
L 102.839942 241.003288 
L 101.98624 240.985633 
L 101.136784 240.764886 
L 100.12298 240.280653 
L 98.780535 239.372204 
L 96.291535 237.343281 
L 93.838281 235.382674 
L 92.383063 234.525531 
L 91.099862 234.03846 
L 89.984914 233.830441 
L 88.877197 233.852077 
L 87.619967 234.107932 
L 85.751303 234.750285 
L 83.749721 235.39353 
L 82.225846 235.642406 
L 81.167164 235.619701 
L 80.115003 235.372663 
L 79.069282 234.869861 
L 78.029925 234.101635 
L 76.84978 232.910641 
L 75.677732 231.388583 
L 74.22389 229.119708 
L 68.529185 219.766897 
L 67.412676 218.530027 
L 66.441681 217.773486 
L 65.613769 217.390563 
L 64.789851 217.2697 
L 64.106276 217.385054 
L 63.289579 217.781102 
L 62.476769 218.448942 
L 61.533353 219.55188 
L 60.461504 221.20044 
L 59.263659 223.477993 
L 57.942497 226.462337 
L 56.240123 230.893751 
L 53.782162 238.005431 
L 50.979595 245.987968 
L 49.344891 250.053286 
L 47.973793 252.902911 
L 46.73682 254.99485 
L 45.75365 256.266239 
L 44.897993 257.065989 
L 44.046601 257.573658 
L 43.199432 257.801616 
L 42.476616 257.776996 
L 41.637177 257.513832 
L 40.682843 256.953431 
L 39.497375 255.963412 
L 37.500769 253.926546 
L 35.758231 252.265471 
L 34.721177 251.544246 
L 33.804607 251.164231 
L 33.006622 251.076811 
L 32.32559 251.20839 
L 31.647262 251.537793 
L 30.859269 252.182182 
L 30.074894 253.110237 
L 29.182854 254.511555 
L 28.184845 256.493589 
L 26.972923 259.394639 
L 25.225334 264.24384 
L 21.782893 273.942455 
L 20.298368 277.474306 
L 18.931338 280.168666 
L 17.88717 281.807403 
L 16.849346 283.05433 
L 16.435975 283.461687 
L 16.435975 283.461687 
" style="fill: none; stroke: #1a1a1a; stroke-width: 1.5; stroke-linecap: round"/>
   </g>
   <g id="line2d_7">
    <path d="M 440.825062 292.417568 
L 430.032506 291.696005 
L 420.980039 290.849219 
L 413.434476 289.906497 
L 407.221961 288.912807 
L 401.227475 287.712978 
L 396.387907 286.510343 
L 391.681677 285.069853 
L 388.007873 283.727226 
L 384.411417 282.197659 
L 380.88912 280.462964 
L 377.437986 278.503514 
L 374.055196 276.29843 
L 370.738095 273.825773 
L 367.484181 271.062757 
L 364.291091 267.985956 
L 361.156593 264.586756 
L 358.078576 260.919183 
L 355.05504 256.974871 
L 352.08409 252.740704 
L 349.163928 248.209456 
L 346.292846 243.379857 
L 343.469223 238.25661 
L 340.004087 231.456354 
L 336.607845 224.247821 
L 333.277811 216.678243 
L 329.36561 207.196652 
L 324.911811 195.712959 
L 319.351002 180.637446 
L 308.174275 150.091393 
L 304.791485 141.512295 
L 301.474384 133.649418 
L 298.758503 127.726026 
L 296.085125 122.458489 
L 293.976144 118.759471 
L 291.892882 115.545569 
L 289.834721 112.834755 
L 288.307211 111.13866 
L 286.79324 109.733872 
L 285.292568 108.620134 
L 283.804965 107.79493 
L 282.330205 107.255108 
L 280.868068 107.01534 
L 279.418339 107.073862 
L 277.980811 107.420906 
L 276.555278 108.045526 
L 275.141543 108.935657 
L 273.739412 110.07818 
L 272.348696 111.458989 
L 270.511847 113.644663 
L 268.694539 116.189314 
L 266.896361 119.052819 
L 264.674934 123.016433 
L 262.0468 128.225396 
L 259.03089 134.760369 
L 254.812766 144.512602 
L 248.273199 159.6741 
L 245.094962 166.452142 
L 242.749497 170.950987 
L 240.819247 174.17745 
L 238.910564 176.886251 
L 237.398826 178.655826 
L 235.900348 180.052636 
L 234.785054 180.845393 
L 233.676994 181.412203 
L 232.576075 181.74674 
L 231.482205 181.843113 
L 230.395296 181.695893 
L 229.315259 181.300143 
L 228.242007 180.649124 
L 227.175456 179.761255 
L 225.763669 178.229792 
L 224.363453 176.298 
L 222.974622 173.967693 
L 221.596991 171.246126 
L 219.89043 167.313705 
L 218.200749 162.826231 
L 216.194949 156.777647 
L 214.212428 150.105747 
L 211.928196 141.67626 
L 209.035506 130.060292 
L 198.82933 87.949419 
L 196.74061 80.797365 
L 194.970383 75.59678 
L 193.50908 72.00881 
L 192.348971 69.673386 
L 191.196688 67.847322 
L 190.337548 66.829624 
L 189.482707 66.126278 
L 188.632123 65.747917 
L 187.785753 65.704324 
L 186.943555 65.997089 
L 186.10549 66.602415 
L 185.271516 67.522282 
L 184.441594 68.759871 
L 183.341266 70.905385 
L 182.24798 73.612637 
L 181.161647 76.869967 
L 179.813373 81.6858 
L 178.475658 87.279042 
L 176.884106 94.919646 
L 175.045845 104.930573 
L 172.968916 117.576412 
L 170.153753 136.285708 
L 164.16802 176.610354 
L 161.734569 191.212905 
L 159.812464 201.452066 
L 158.148182 209.207508 
L 156.499958 215.813161 
L 155.099742 220.604141 
L 153.710911 224.645323 
L 152.562115 227.337577 
L 151.420993 229.456933 
L 150.287443 231.074356 
L 149.161365 232.258302 
L 148.042662 233.073708 
L 146.931238 233.581039 
L 145.826998 233.835401 
L 144.511264 233.875138 
L 142.772568 233.659779 
L 139.559458 232.964305 
L 136.614121 232.411625 
L 134.335035 232.191877 
L 132.69641 232.278659 
L 130.871552 232.61761 
L 128.866537 233.237738 
L 126.687865 234.15318 
L 124.536631 235.278889 
L 122.22032 236.731538 
L 120.124277 238.290262 
L 118.053642 240.119223 
L 115.638453 242.596318 
L 113.438954 245.179522 
L 111.087695 248.292974 
L 108.591247 251.957678 
L 105.782134 256.528336 
L 102.163913 262.87958 
L 98.120521 269.88789 
L 95.805331 273.504932 
L 93.68325 276.387745 
L 91.908007 278.450645 
L 90.310003 279.968768 
L 88.88447 281.041325 
L 87.627241 281.757624 
L 86.379196 282.196557 
L 85.140204 282.376308 
L 83.910133 282.310876 
L 82.688857 282.003793 
L 81.476249 281.451308 
L 79.972495 280.515487 
L 78.333513 279.221721 
L 76.416593 277.398863 
L 72.933203 273.693715 
L 70.791612 271.553082 
L 69.238001 270.29585 
L 67.837786 269.451015 
L 66.587331 268.937297 
L 65.345962 268.649569 
L 63.840884 268.549874 
L 62.079083 268.669778 
L 59.403612 269.174016 
L 57.031 269.524121 
L 55.208152 269.572695 
L 52.509839 269.378927 
L 50.230446 269.311379 
L 48.85231 269.473719 
L 47.609034 269.850985 
L 46.49777 270.425678 
L 45.393689 271.245007 
L 44.175243 272.441281 
L 42.844915 274.09051 
L 41.285951 276.414133 
L 39.032755 280.240741 
L 36.344378 284.733099 
L 34.843368 286.798231 
L 33.583504 288.17984 
L 32.446181 289.105717 
L 31.31638 289.729022 
L 30.305908 290.052901 
L 29.301379 290.143919 
L 28.081589 290.017014 
L 26.54162 289.613991 
L 20.094616 287.639121 
L 17.894444 287.317607 
L 16.443249 287.226812 
L 16.443249 287.226812 
" style="fill: none; stroke: #4c72b0; stroke-width: 1.5; stroke-linecap: round"/>
   </g>
   <g id="patch_3">
    <path d="M 16.425 295.38 
L 16.425 42.7112 
" style="fill: none; stroke: #ffffff; stroke-width: 1.25; stroke-linejoin: miter; stroke-linecap: square"/>
   </g>
   <g id="patch_4">
    <path d="M 440.91 295.38 
L 440.91 42.7112 
" style="fill: none; stroke: #ffffff; stroke-width: 1.25; stroke-linejoin: miter; stroke-linecap: square"/>
   </g>
   <g id="patch_5">
    <path d="M 16.425 295.38 
L 440.91 295.38 
" style="fill: none; stroke: #ffffff; stroke-width: 1.25; stroke-linejoin: miter; stroke-linecap: square"/>
   </g>
   <g id="patch_6">
    <path d="M 16.425 42.7112 
L 440.91 42.7112 
" style="fill: none; stroke: #ffffff; stroke-width: 1.25; stroke-linejoin: miter; stroke-linecap: square"/>
   </g>
   <g id="legend_1">
    <g id="line2d_8">
     <path d="M 26.325 31.852601 
L 37.325 31.852601 
L 48.325 31.852601 
" style="fill: none; stroke: #1a1a1a; stroke-width: 1.5; stroke-linecap: round"/>
    </g>
    <g id="text_7">
     <!-- GDP -->
     <g style="fill: #262626" transform="translate(57.125 35.702601) scale(0.11 -0.11)">
      <defs>
       <path id="DejaVuSans-47" d="M 3809 666 
L 3809 1919 
L 2778 1919 
L 2778 2438 
L 4434 2438 
L 4434 434 
Q 4069 175 3628 42 
Q 3188 -91 2688 -91 
Q 1594 -91 976 548 
Q 359 1188 359 2328 
Q 359 3472 976 4111 
Q 1594 4750 2688 4750 
Q 3144 4750 3555 4637 
Q 3966 4525 4313 4306 
L 4313 3634 
Q 3963 3931 3569 4081 
Q 3175 4231 2741 4231 
Q 1884 4231 1454 3753 
Q 1025 3275 1025 2328 
Q 1025 1384 1454 906 
Q 1884 428 2741 428 
Q 3075 428 3337 486 
Q 3600 544 3809 666 
z
" transform="scale(0.015625)"/>
       <path id="DejaVuSans-44" d="M 1259 4147 
L 1259 519 
L 2022 519 
Q 2988 519 3436 956 
Q 3884 1394 3884 2338 
Q 3884 3275 3436 3711 
Q 2988 4147 2022 4147 
L 1259 4147 
z
M 628 4666 
L 1925 4666 
Q 3281 4666 3915 4102 
Q 4550 3538 4550 2338 
Q 4550 1131 3912 565 
Q 3275 0 1925 0 
L 628 0 
L 628 4666 
z
" transform="scale(0.015625)"/>
       <path id="DejaVuSans-50" d="M 1259 4147 
L 1259 2394 
L 2053 2394 
Q 2494 2394 2734 2622 
Q 2975 2850 2975 3272 
Q 2975 3691 2734 3919 
Q 2494 4147 2053 4147 
L 1259 4147 
z
M 628 4666 
L 2053 4666 
Q 2838 4666 3239 4311 
Q 3641 3956 3641 3272 
Q 3641 2581 3239 2228 
Q 2838 1875 2053 1875 
L 1259 1875 
L 1259 0 
L 628 0 
L 628 4666 
z
" transform="scale(0.015625)"/>
      </defs>
      <use xlink:href="#DejaVuSans-47"/>
      <use xlink:href="#DejaVuSans-44" x="77.490234"/>
      <use xlink:href="#DejaVuSans-50" x="154.492188"/>
     </g>
    </g>
    <g id="line2d_9">
     <path d="M 102.750937 31.852601 
L 113.750937 31.852601 
L 124.750937 31.852601 
" style="fill: none; stroke: #4c72b0; stroke-width: 1.5; stroke-linecap: round"/>
    </g>
    <g id="text_8">
     <!-- Unemployment -->
     <g style="fill: #262626" transform="translate(133.550938 35.702601) scale(0.11 -0.11)">
      <defs>
       <path id="DejaVuSans-55" d="M 556 4666 
L 1191 4666 
L 1191 1831 
Q 1191 1081 1462 751 
Q 1734 422 2344 422 
Q 2950 422 3222 751 
Q 3494 1081 3494 1831 
L 3494 4666 
L 4128 4666 
L 4128 1753 
Q 4128 841 3676 375 
Q 3225 -91 2344 -91 
Q 1459 -91 1007 375 
Q 556 841 556 1753 
L 556 4666 
z
" transform="scale(0.015625)"/>
       <path id="DejaVuSans-6e" d="M 3513 2113 
L 3513 0 
L 2938 0 
L 2938 2094 
Q 2938 2591 2744 2837 
Q 2550 3084 2163 3084 
Q 1697 3084 1428 2787 
Q 1159 2491 1159 1978 
L 1159 0 
L 581 0 
L 581 3500 
L 1159 3500 
L 1159 2956 
Q 1366 3272 1645 3428 
Q 1925 3584 2291 3584 
Q 2894 3584 3203 3211 
Q 3513 2838 3513 2113 
z
" transform="scale(0.015625)"/>
       <path id="DejaVuSans-6d" d="M 3328 2828 
Q 3544 3216 3844 3400 
Q 4144 3584 4550 3584 
Q 5097 3584 5394 3201 
Q 5691 2819 5691 2113 
L 5691 0 
L 5113 0 
L 5113 2094 
Q 5113 2597 4934 2840 
Q 4756 3084 4391 3084 
Q 3944 3084 3684 2787 
Q 3425 2491 3425 1978 
L 3425 0 
L 2847 0 
L 2847 2094 
Q 2847 2600 2669 2842 
Q 2491 3084 2119 3084 
Q 1678 3084 1418 2786 
Q 1159 2488 1159 1978 
L 1159 0 
L 581 0 
L 581 3500 
L 1159 3500 
L 1159 2956 
Q 1356 3278 1631 3431 
Q 1906 3584 2284 3584 
Q 2666 3584 2933 3390 
Q 3200 3197 3328 2828 
z
" transform="scale(0.015625)"/>
       <path id="DejaVuSans-70" d="M 1159 525 
L 1159 -1331 
L 581 -1331 
L 581 3500 
L 1159 3500 
L 1159 2969 
Q 1341 3281 1617 3432 
Q 1894 3584 2278 3584 
Q 2916 3584 3314 3078 
Q 3713 2572 3713 1747 
Q 3713 922 3314 415 
Q 2916 -91 2278 -91 
Q 1894 -91 1617 61 
Q 1341 213 1159 525 
z
M 3116 1747 
Q 3116 2381 2855 2742 
Q 2594 3103 2138 3103 
Q 1681 3103 1420 2742 
Q 1159 2381 1159 1747 
Q 1159 1113 1420 752 
Q 1681 391 2138 391 
Q 2594 391 2855 752 
Q 3116 1113 3116 1747 
z
" transform="scale(0.015625)"/>
       <path id="DejaVuSans-6c" d="M 603 4863 
L 1178 4863 
L 1178 0 
L 603 0 
L 603 4863 
z
" transform="scale(0.015625)"/>
       <path id="DejaVuSans-6f" d="M 1959 3097 
Q 1497 3097 1228 2736 
Q 959 2375 959 1747 
Q 959 1119 1226 758 
Q 1494 397 1959 397 
Q 2419 397 2687 759 
Q 2956 1122 2956 1747 
Q 2956 2369 2687 2733 
Q 2419 3097 1959 3097 
z
M 1959 3584 
Q 2709 3584 3137 3096 
Q 3566 2609 3566 1747 
Q 3566 888 3137 398 
Q 2709 -91 1959 -91 
Q 1206 -91 779 398 
Q 353 888 353 1747 
Q 353 2609 779 3096 
Q 1206 3584 1959 3584 
z
" transform="scale(0.015625)"/>
       <path id="DejaVuSans-79" d="M 2059 -325 
Q 1816 -950 1584 -1140 
Q 1353 -1331 966 -1331 
L 506 -1331 
L 506 -850 
L 844 -850 
Q 1081 -850 1212 -737 
Q 1344 -625 1503 -206 
L 1606 56 
L 191 3500 
L 800 3500 
L 1894 763 
L 2988 3500 
L 3597 3500 
L 2059 -325 
z
" transform="scale(0.015625)"/>
       <path id="DejaVuSans-74" d="M 1172 4494 
L 1172 3500 
L 2356 3500 
L 2356 3053 
L 1172 3053 
L 1172 1153 
Q 1172 725 1289 603 
Q 1406 481 1766 481 
L 2356 481 
L 2356 0 
L 1766 0 
Q 1100 0 847 248 
Q 594 497 594 1153 
L 594 3053 
L 172 3053 
L 172 3500 
L 594 3500 
L 594 4494 
L 1172 4494 
z
" transform="scale(0.015625)"/>
      </defs>
      <use xlink:href="#DejaVuSans-55"/>
      <use xlink:href="#DejaVuSans-6e" x="73.193359"/>
      <use xlink:href="#DejaVuSans-65" x="136.572266"/>
      <use xlink:href="#DejaVuSans-6d" x="198.095703"/>
      <use xlink:href="#DejaVuSans-70" x="295.507812"/>
      <use xlink:href="#DejaVuSans-6c" x="358.984375"/>
      <use xlink:href="#DejaVuSans-6f" x="386.767578"/>
      <use xlink:href="#DejaVuSans-79" x="447.949219"/>
      <use xlink:href="#DejaVuSans-6d" x="507.128906"/>
      <use xlink:href="#DejaVuSans-65" x="604.541016"/>
      <use xlink:href="#DejaVuSans-6e" x="666.064453"/>
      <use xlink:href="#DejaVuSans-74" x="729.443359"/>
     </g>
    </g>
   </g>
  </g>
 </g>
 <defs>
  <clipPath id="p7265ae87ce">
   <rect x="16.425" y="42.7112" width="424.485" height="252.6688"/>
  </clipPath>
 </defs>
</svg>
