<?xml version="1.0" encoding="utf-8" standalone="no"?>
<!DOCTYPE svg PUBLIC "-//W3C//DTD SVG 1.1//EN"
  "http://www.w3.org/Graphics/SVG/1.1/DTD/svg11.dtd">
<svg xmlns:xlink="http://www.w3.org/1999/xlink" width="576pt" height="288pt" viewBox="0 0 576 288" xmlns="http://www.w3.org/2000/svg" version="1.1">
 <metadata>
  <rdf:RDF xmlns:dc="http://purl.org/dc/elements/1.1/" xmlns:cc="http://creativecommons.org/ns#" xmlns:rdf="http://www.w3.org/1999/02/22-rdf-syntax-ns#">
   <cc:Work>
    <dc:type rdf:resource="http://purl.org/dc/dcmitype/StillImage"/>
    <dc:date>2024-05-07T22:54:23.941007</dc:date>
    <dc:format>image/svg+xml</dc:format>
    <dc:creator>
     <cc:Agent>
      <dc:title>Matplotlib v3.8.3, https://matplotlib.org/</dc:title>
     </cc:Agent>
    </dc:creator>
   </cc:Work>
  </rdf:RDF>
 </metadata>
 <defs>
  <style type="text/css">*{stroke-linejoin: round; stroke-linecap: butt}</style>
 </defs>
 <g id="figure_1">
  <g id="patch_1">
   <path d="M 0 288 
L 576 288 
L 576 0 
L 0 0 
L 0 288 
z
" style="fill: none"/>
  </g>
  <g id="axes_1">
   <g id="patch_2">
    <path d="M 29.92 237.78 
L 556.11 237.78 
L 556.11 36.836 
L 29.92 36.836 
L 29.92 237.78 
z
" style="fill: none"/>
   </g>
   <g id="matplotlib.axis_1">
    <g id="xtick_1">
     <g id="line2d_1">
      <path d="M 29.92 237.78 
L 29.92 36.836 
" clip-path="url(#pbdbc290e14)" style="fill: none; stroke: #ffffff; stroke-linecap: round"/>
     </g>
     <g id="text_1">
      <!-- 2 -->
      <g style="fill: #262626" transform="translate(26.420625 255.638281) scale(0.11 -0.11)">
       <defs>
        <path id="DejaVuSans-32" d="M 1228 531 
L 3431 531 
L 3431 0 
L 469 0 
L 469 531 
Q 828 903 1448 1529 
Q 2069 2156 2228 2338 
Q 2531 2678 2651 2914 
Q 2772 3150 2772 3378 
Q 2772 3750 2511 3984 
Q 2250 4219 1831 4219 
Q 1534 4219 1204 4116 
Q 875 4013 500 3803 
L 500 4441 
Q 881 4594 1212 4672 
Q 1544 4750 1819 4750 
Q 2544 4750 2975 4387 
Q 3406 4025 3406 3419 
Q 3406 3131 3298 2873 
Q 3191 2616 2906 2266 
Q 2828 2175 2409 1742 
Q 1991 1309 1228 531 
z
" transform="scale(0.015625)"/>
       </defs>
       <use xlink:href="#DejaVuSans-32"/>
      </g>
     </g>
    </g>
    <g id="xtick_2">
     <g id="line2d_2">
      <path d="M 176.696989 237.78 
L 176.696989 36.836 
" clip-path="url(#pbdbc290e14)" style="fill: none; stroke: #ffffff; stroke-linecap: round"/>
     </g>
     <g id="text_2">
      <!-- 4 -->
      <g style="fill: #262626" transform="translate(173.197614 255.638281) scale(0.11 -0.11)">
       <defs>
        <path id="DejaVuSans-34" d="M 2419 4116 
L 825 1625 
L 2419 1625 
L 2419 4116 
z
M 2253 4666 
L 3047 4666 
L 3047 1625 
L 3713 1625 
L 3713 1100 
L 3047 1100 
L 3047 0 
L 2419 0 
L 2419 1100 
L 313 1100 
L 313 1709 
L 2253 4666 
z
" transform="scale(0.015625)"/>
       </defs>
       <use xlink:href="#DejaVuSans-34"/>
      </g>
     </g>
    </g>
    <g id="xtick_3">
     <g id="line2d_3">
      <path d="M 262.556023 237.78 
L 262.556023 36.836 
" clip-path="url(#pbdbc290e14)" style="fill: none; stroke: #ffffff; stroke-linecap: round"/>
     </g>
     <g id="text_3">
      <!-- 6 -->
      <g style="fill: #262626" transform="translate(259.056648 255.638281) scale(0.11 -0.11)">
       <defs>
        <path id="DejaVuSans-36" d="M 2113 2584 
Q 1688 2584 1439 2293 
Q 1191 2003 1191 1497 
Q 1191 994 1439 701 
Q 1688 409 2113 409 
Q 2538 409 2786 701 
Q 3034 994 3034 1497 
Q 3034 2003 2786 2293 
Q 2538 2584 2113 2584 
z
M 3366 4563 
L 3366 3988 
Q 3128 4100 2886 4159 
Q 2644 4219 2406 4219 
Q 1781 4219 1451 3797 
Q 1122 3375 1075 2522 
Q 1259 2794 1537 2939 
Q 1816 3084 2150 3084 
Q 2853 3084 3261 2657 
Q 3669 2231 3669 1497 
Q 3669 778 3244 343 
Q 2819 -91 2113 -91 
Q 1303 -91 875 529 
Q 447 1150 447 2328 
Q 447 3434 972 4092 
Q 1497 4750 2381 4750 
Q 2619 4750 2861 4703 
Q 3103 4656 3366 4563 
z
" transform="scale(0.015625)"/>
       </defs>
       <use xlink:href="#DejaVuSans-36"/>
      </g>
     </g>
    </g>
    <g id="xtick_4">
     <g id="line2d_4">
      <path d="M 409.333011 237.78 
L 409.333011 36.836 
" clip-path="url(#pbdbc290e14)" style="fill: none; stroke: #ffffff; stroke-linecap: round"/>
     </g>
     <g id="text_4">
      <!-- 12 -->
      <g style="fill: #262626" transform="translate(402.334261 255.638281) scale(0.11 -0.11)">
       <defs>
        <path id="DejaVuSans-31" d="M 794 531 
L 1825 531 
L 1825 4091 
L 703 3866 
L 703 4441 
L 1819 4666 
L 2450 4666 
L 2450 531 
L 3481 531 
L 3481 0 
L 794 0 
L 794 531 
z
" transform="scale(0.015625)"/>
       </defs>
       <use xlink:href="#DejaVuSans-31"/>
       <use xlink:href="#DejaVuSans-32" x="63.623047"/>
      </g>
     </g>
    </g>
    <g id="xtick_5">
     <g id="line2d_5">
      <path d="M 556.11 237.78 
L 556.11 36.836 
" clip-path="url(#pbdbc290e14)" style="fill: none; stroke: #ffffff; stroke-linecap: round"/>
     </g>
     <g id="text_5">
      <!-- 24 -->
      <g style="fill: #262626" transform="translate(549.11125 255.638281) scale(0.11 -0.11)">
       <use xlink:href="#DejaVuSans-32"/>
       <use xlink:href="#DejaVuSans-34" x="63.623047"/>
      </g>
     </g>
    </g>
    <g id="xtick_6"/>
    <g id="xtick_7"/>
    <g id="xtick_8"/>
    <g id="xtick_9"/>
    <g id="xtick_10"/>
    <g id="xtick_11"/>
    <g id="xtick_12"/>
    <g id="xtick_13"/>
    <g id="xtick_14"/>
    <g id="text_6">
     <!-- Years -->
     <g style="fill: #262626" transform="translate(277.184375 271.044062) scale(0.12 -0.12)">
      <defs>
       <path id="DejaVuSans-59" d="M -13 4666 
L 666 4666 
L 1959 2747 
L 3244 4666 
L 3922 4666 
L 2272 2222 
L 2272 0 
L 1638 0 
L 1638 2222 
L -13 4666 
z
" transform="scale(0.015625)"/>
       <path id="DejaVuSans-65" d="M 3597 1894 
L 3597 1613 
L 953 1613 
Q 991 1019 1311 708 
Q 1631 397 2203 397 
Q 2534 397 2845 478 
Q 3156 559 3463 722 
L 3463 178 
Q 3153 47 2828 -22 
Q 2503 -91 2169 -91 
Q 1331 -91 842 396 
Q 353 884 353 1716 
Q 353 2575 817 3079 
Q 1281 3584 2069 3584 
Q 2775 3584 3186 3129 
Q 3597 2675 3597 1894 
z
M 3022 2063 
Q 3016 2534 2758 2815 
Q 2500 3097 2075 3097 
Q 1594 3097 1305 2825 
Q 1016 2553 972 2059 
L 3022 2063 
z
" transform="scale(0.015625)"/>
       <path id="DejaVuSans-61" d="M 2194 1759 
Q 1497 1759 1228 1600 
Q 959 1441 959 1056 
Q 959 750 1161 570 
Q 1363 391 1709 391 
Q 2188 391 2477 730 
Q 2766 1069 2766 1631 
L 2766 1759 
L 2194 1759 
z
M 3341 1997 
L 3341 0 
L 2766 0 
L 2766 531 
Q 2569 213 2275 61 
Q 1981 -91 1556 -91 
Q 1019 -91 701 211 
Q 384 513 384 1019 
Q 384 1609 779 1909 
Q 1175 2209 1959 2209 
L 2766 2209 
L 2766 2266 
Q 2766 2663 2505 2880 
Q 2244 3097 1772 3097 
Q 1472 3097 1187 3025 
Q 903 2953 641 2809 
L 641 3341 
Q 956 3463 1253 3523 
Q 1550 3584 1831 3584 
Q 2591 3584 2966 3190 
Q 3341 2797 3341 1997 
z
" transform="scale(0.015625)"/>
       <path id="DejaVuSans-72" d="M 2631 2963 
Q 2534 3019 2420 3045 
Q 2306 3072 2169 3072 
Q 1681 3072 1420 2755 
Q 1159 2438 1159 1844 
L 1159 0 
L 581 0 
L 581 3500 
L 1159 3500 
L 1159 2956 
Q 1341 3275 1631 3429 
Q 1922 3584 2338 3584 
Q 2397 3584 2469 3576 
Q 2541 3569 2628 3553 
L 2631 2963 
z
" transform="scale(0.015625)"/>
       <path id="DejaVuSans-73" d="M 2834 3397 
L 2834 2853 
Q 2591 2978 2328 3040 
Q 2066 3103 1784 3103 
Q 1356 3103 1142 2972 
Q 928 2841 928 2578 
Q 928 2378 1081 2264 
Q 1234 2150 1697 2047 
L 1894 2003 
Q 2506 1872 2764 1633 
Q 3022 1394 3022 966 
Q 3022 478 2636 193 
Q 2250 -91 1575 -91 
Q 1294 -91 989 -36 
Q 684 19 347 128 
L 347 722 
Q 666 556 975 473 
Q 1284 391 1588 391 
Q 1994 391 2212 530 
Q 2431 669 2431 922 
Q 2431 1156 2273 1281 
Q 2116 1406 1581 1522 
L 1381 1569 
Q 847 1681 609 1914 
Q 372 2147 372 2553 
Q 372 3047 722 3315 
Q 1072 3584 1716 3584 
Q 2034 3584 2315 3537 
Q 2597 3491 2834 3397 
z
" transform="scale(0.015625)"/>
      </defs>
      <use xlink:href="#DejaVuSans-59"/>
      <use xlink:href="#DejaVuSans-65" x="47.833984"/>
      <use xlink:href="#DejaVuSans-61" x="109.357422"/>
      <use xlink:href="#DejaVuSans-72" x="170.636719"/>
      <use xlink:href="#DejaVuSans-73" x="211.75"/>
     </g>
    </g>
   </g>
   <g id="matplotlib.axis_2">
    <g id="text_7">
     <!-- Spectral density -->
     <g style="fill: #262626" transform="translate(23.424375 185.985813) rotate(-90) scale(0.12 -0.12)">
      <defs>
       <path id="DejaVuSans-53" d="M 3425 4513 
L 3425 3897 
Q 3066 4069 2747 4153 
Q 2428 4238 2131 4238 
Q 1616 4238 1336 4038 
Q 1056 3838 1056 3469 
Q 1056 3159 1242 3001 
Q 1428 2844 1947 2747 
L 2328 2669 
Q 3034 2534 3370 2195 
Q 3706 1856 3706 1288 
Q 3706 609 3251 259 
Q 2797 -91 1919 -91 
Q 1588 -91 1214 -16 
Q 841 59 441 206 
L 441 856 
Q 825 641 1194 531 
Q 1563 422 1919 422 
Q 2459 422 2753 634 
Q 3047 847 3047 1241 
Q 3047 1584 2836 1778 
Q 2625 1972 2144 2069 
L 1759 2144 
Q 1053 2284 737 2584 
Q 422 2884 422 3419 
Q 422 4038 858 4394 
Q 1294 4750 2059 4750 
Q 2388 4750 2728 4690 
Q 3069 4631 3425 4513 
z
" transform="scale(0.015625)"/>
       <path id="DejaVuSans-70" d="M 1159 525 
L 1159 -1331 
L 581 -1331 
L 581 3500 
L 1159 3500 
L 1159 2969 
Q 1341 3281 1617 3432 
Q 1894 3584 2278 3584 
Q 2916 3584 3314 3078 
Q 3713 2572 3713 1747 
Q 3713 922 3314 415 
Q 2916 -91 2278 -91 
Q 1894 -91 1617 61 
Q 1341 213 1159 525 
z
M 3116 1747 
Q 3116 2381 2855 2742 
Q 2594 3103 2138 3103 
Q 1681 3103 1420 2742 
Q 1159 2381 1159 1747 
Q 1159 1113 1420 752 
Q 1681 391 2138 391 
Q 2594 391 2855 752 
Q 3116 1113 3116 1747 
z
" transform="scale(0.015625)"/>
       <path id="DejaVuSans-63" d="M 3122 3366 
L 3122 2828 
Q 2878 2963 2633 3030 
Q 2388 3097 2138 3097 
Q 1578 3097 1268 2742 
Q 959 2388 959 1747 
Q 959 1106 1268 751 
Q 1578 397 2138 397 
Q 2388 397 2633 464 
Q 2878 531 3122 666 
L 3122 134 
Q 2881 22 2623 -34 
Q 2366 -91 2075 -91 
Q 1284 -91 818 406 
Q 353 903 353 1747 
Q 353 2603 823 3093 
Q 1294 3584 2113 3584 
Q 2378 3584 2631 3529 
Q 2884 3475 3122 3366 
z
" transform="scale(0.015625)"/>
       <path id="DejaVuSans-74" d="M 1172 4494 
L 1172 3500 
L 2356 3500 
L 2356 3053 
L 1172 3053 
L 1172 1153 
Q 1172 725 1289 603 
Q 1406 481 1766 481 
L 2356 481 
L 2356 0 
L 1766 0 
Q 1100 0 847 248 
Q 594 497 594 1153 
L 594 3053 
L 172 3053 
L 172 3500 
L 594 3500 
L 594 4494 
L 1172 4494 
z
" transform="scale(0.015625)"/>
       <path id="DejaVuSans-6c" d="M 603 4863 
L 1178 4863 
L 1178 0 
L 603 0 
L 603 4863 
z
" transform="scale(0.015625)"/>
       <path id="DejaVuSans-20" transform="scale(0.015625)"/>
       <path id="DejaVuSans-64" d="M 2906 2969 
L 2906 4863 
L 3481 4863 
L 3481 0 
L 2906 0 
L 2906 525 
Q 2725 213 2448 61 
Q 2172 -91 1784 -91 
Q 1150 -91 751 415 
Q 353 922 353 1747 
Q 353 2572 751 3078 
Q 1150 3584 1784 3584 
Q 2172 3584 2448 3432 
Q 2725 3281 2906 2969 
z
M 947 1747 
Q 947 1113 1208 752 
Q 1469 391 1925 391 
Q 2381 391 2643 752 
Q 2906 1113 2906 1747 
Q 2906 2381 2643 2742 
Q 2381 3103 1925 3103 
Q 1469 3103 1208 2742 
Q 947 2381 947 1747 
z
" transform="scale(0.015625)"/>
       <path id="DejaVuSans-6e" d="M 3513 2113 
L 3513 0 
L 2938 0 
L 2938 2094 
Q 2938 2591 2744 2837 
Q 2550 3084 2163 3084 
Q 1697 3084 1428 2787 
Q 1159 2491 1159 1978 
L 1159 0 
L 581 0 
L 581 3500 
L 1159 3500 
L 1159 2956 
Q 1366 3272 1645 3428 
Q 1925 3584 2291 3584 
Q 2894 3584 3203 3211 
Q 3513 2838 3513 2113 
z
" transform="scale(0.015625)"/>
       <path id="DejaVuSans-69" d="M 603 3500 
L 1178 3500 
L 1178 0 
L 603 0 
L 603 3500 
z
M 603 4863 
L 1178 4863 
L 1178 4134 
L 603 4134 
L 603 4863 
z
" transform="scale(0.015625)"/>
       <path id="DejaVuSans-79" d="M 2059 -325 
Q 1816 -950 1584 -1140 
Q 1353 -1331 966 -1331 
L 506 -1331 
L 506 -850 
L 844 -850 
Q 1081 -850 1212 -737 
Q 1344 -625 1503 -206 
L 1606 56 
L 191 3500 
L 800 3500 
L 1894 763 
L 2988 3500 
L 3597 3500 
L 2059 -325 
z
" transform="scale(0.015625)"/>
      </defs>
      <use xlink:href="#DejaVuSans-53"/>
      <use xlink:href="#DejaVuSans-70" x="63.476562"/>
      <use xlink:href="#DejaVuSans-65" x="126.953125"/>
      <use xlink:href="#DejaVuSans-63" x="188.476562"/>
      <use xlink:href="#DejaVuSans-74" x="243.457031"/>
      <use xlink:href="#DejaVuSans-72" x="282.666016"/>
      <use xlink:href="#DejaVuSans-61" x="323.779297"/>
      <use xlink:href="#DejaVuSans-6c" x="385.058594"/>
      <use xlink:href="#DejaVuSans-20" x="412.841797"/>
      <use xlink:href="#DejaVuSans-64" x="444.628906"/>
      <use xlink:href="#DejaVuSans-65" x="508.105469"/>
      <use xlink:href="#DejaVuSans-6e" x="569.628906"/>
      <use xlink:href="#DejaVuSans-73" x="633.007812"/>
      <use xlink:href="#DejaVuSans-69" x="685.107422"/>
      <use xlink:href="#DejaVuSans-74" x="712.890625"/>
      <use xlink:href="#DejaVuSans-79" x="752.099609"/>
     </g>
    </g>
   </g>
   <g id="line2d_6">
    <path d="M 555.995695 230.811399 
L 539.755692 229.659495 
L 524.672951 228.366165 
L 510.593454 226.937335 
L 500.911565 225.764448 
L 491.653066 224.427786 
L 482.782473 222.915109 
L 475.314288 221.423899 
L 468.100545 219.74446 
L 462.107094 218.127595 
L 455.322619 216.048778 
L 449.6755 214.086758 
L 444.175075 211.93409 
L 438.813917 209.572828 
L 433.585147 206.990351 
L 428.482384 204.17963 
L 423.499696 201.140624 
L 418.631564 197.896466 
L 413.872837 194.464687 
L 408.452867 190.251966 
L 403.168168 185.859104 
L 396.561775 180.044435 
L 388.062128 172.224937 
L 371.379928 156.694521 
L 365.682155 151.749888 
L 360.743052 147.748487 
L 356.513865 144.605315 
L 352.367492 141.801993 
L 348.300752 139.329388 
L 344.310645 137.171492 
L 340.394335 135.30589 
L 336.549142 133.720197 
L 332.77253 132.428489 
L 329.062094 131.401607 
L 325.415556 130.61965 
L 321.830752 130.069409 
L 318.305627 129.744753 
L 304.764201 128.891489 
L 301.971794 128.438454 
L 299.672592 127.886811 
L 297.398087 127.121415 
L 295.147753 126.111096 
L 292.478544 124.675108 
L 290.27962 123.23061 
L 288.103297 121.516147 
L 285.949113 119.501701 
L 283.816623 117.169004 
L 281.705395 114.511801 
L 279.615009 111.535945 
L 277.133483 107.566978 
L 274.680701 103.148605 
L 272.256006 98.310903 
L 269.461845 92.239417 
L 265.922691 83.965152 
L 259.017043 67.015201 
L 255.646875 59.087986 
L 253.06222 53.513438 
L 250.871637 49.278899 
L 249.063305 46.209211 
L 247.270285 43.6165 
L 245.84672 41.921835 
L 244.432662 40.589591 
L 243.027984 39.621634 
L 241.980557 39.140257 
L 240.938285 38.876874 
L 239.901118 38.837758 
L 238.869007 39.027866 
L 237.841902 39.450802 
L 236.819755 40.108806 
L 235.802518 41.002737 
L 234.453759 42.560538 
L 233.113536 44.531616 
L 231.781743 46.906599 
L 230.458274 49.671891 
L 228.815485 53.640112 
L 226.860814 59.04269 
L 224.602939 66.08782 
L 222.05165 74.863468 
L 217.349286 92.096959 
L 213.356698 106.262616 
L 210.636047 115.177574 
L 208.54389 121.293354 
L 206.76692 125.861485 
L 205.004737 129.776429 
L 203.257097 133.052084 
L 202.099966 134.846672 
L 200.949124 136.263314 
L 199.804503 137.325658 
L 198.666035 138.057443 
L 197.533656 138.482277 
L 196.4073 138.623409 
L 195.286904 138.503517 
L 194.172404 138.144491 
L 193.063739 137.567229 
L 191.686022 136.568863 
L 190.044506 135.060732 
L 187.875428 132.745934 
L 183.867338 128.031355 
L 181.236814 125.107568 
L 179.4147 123.393226 
L 177.86527 122.212071 
L 176.582683 121.479117 
L 175.307818 121.011964 
L 174.293424 120.849343 
L 173.283866 120.88763 
L 172.279098 121.136298 
L 171.279075 121.602121 
L 170.283753 122.289109 
L 169.046143 123.458096 
L 167.815724 124.957603 
L 166.592414 126.795975 
L 165.13371 129.42542 
L 163.444491 133.024044 
L 161.530314 137.732725 
L 159.397347 143.604393 
L 156.586406 152.014151 
L 150.621098 170.058743 
L 148.370764 176.04605 
L 146.587558 180.195169 
L 145.039477 183.277308 
L 143.502632 185.819003 
L 142.194155 187.559388 
L 140.893715 188.898721 
L 139.816082 189.717429 
L 138.743905 190.275366 
L 137.67713 190.595013 
L 136.615702 190.6982 
L 135.348971 190.570692 
L 134.089774 190.215273 
L 132.422408 189.482962 
L 129.74063 187.999095 
L 125.680018 185.717653 
L 123.877842 185.005426 
L 122.288683 184.61196 
L 120.711361 184.454339 
L 119.145702 184.549132 
L 117.204768 184.921977 
L 112.61785 185.934165 
L 110.923052 186.050949 
L 109.427869 185.922117 
L 108.128189 185.583692 
L 106.836436 185.016617 
L 105.552517 184.223424 
L 104.094649 183.046281 
L 102.466456 181.406957 
L 100.314826 178.882731 
L 96.076064 173.832703 
L 94.334653 172.136424 
L 92.951762 171.105586 
L 91.749096 170.490499 
L 90.723649 170.195258 
L 89.703144 170.1308 
L 88.687533 170.31201 
L 87.67677 170.73466 
L 86.670809 171.388983 
L 85.503196 172.426234 
L 84.176617 173.936657 
L 82.694083 175.986738 
L 81.058905 178.647041 
L 78.951879 182.55011 
L 76.068642 188.415087 
L 72.910427 194.706033 
L 70.88256 198.271019 
L 69.335772 200.573462 
L 67.8002 202.475029 
L 66.57971 203.656785 
L 65.366214 204.510856 
L 64.31008 204.986266 
L 63.259187 205.217805 
L 62.213484 205.210036 
L 61.17292 204.982096 
L 59.989931 204.496702 
L 58.520429 203.639194 
L 56.045443 201.874956 
L 53.8854 200.43621 
L 52.457515 199.757649 
L 51.3221 199.458587 
L 50.333581 199.414151 
L 49.349656 199.596268 
L 48.370281 200.015096 
L 47.395415 200.678555 
L 46.286751 201.736249 
L 45.183861 203.10144 
L 43.813277 205.19033 
L 42.180201 208.1311 
L 39.486088 213.550773 
L 36.693682 218.97282 
L 34.983323 221.868754 
L 33.416698 224.10641 
L 32.119974 225.637231 
L 30.831142 226.811408 
L 29.933604 227.456914 
L 29.933604 227.456914 
" style="fill: none; stroke: #1a1a1a; stroke-width: 1.5; stroke-linecap: round"/>
   </g>
   <g id="line2d_7">
    <path d="M 554.660852 227.6368 
L 537.126334 226.114868 
L 526.194646 224.92292 
L 517.071506 223.726768 
L 508.325242 222.352724 
L 501.105641 220.992635 
L 495.271817 219.696622 
L 489.594414 218.220191 
L 484.065264 216.529515 
L 479.743595 214.997034 
L 475.508365 213.28448 
L 471.356184 211.397705 
L 467.283858 209.32227 
L 463.288373 207.038513 
L 459.366882 204.528418 
L 455.516696 201.775782 
L 451.735266 198.766368 
L 448.020181 195.488041 
L 444.369152 191.930877 
L 440.780008 188.087263 
L 437.250685 183.951892 
L 433.779223 179.521121 
L 430.363755 174.794333 
L 427.002503 169.773518 
L 423.693773 164.473438 
L 419.629264 157.522308 
L 415.641303 150.236528 
L 411.727062 142.652552 
L 407.123523 133.226527 
L 401.876242 121.91399 
L 395.315339 107.181534 
L 384.812967 83.493099 
L 380.084601 73.380841 
L 376.114089 65.404638 
L 372.861269 59.37129 
L 370.294517 55.008823 
L 367.758506 51.102534 
L 365.252507 47.68825 
L 363.39228 45.469457 
L 361.548253 43.556641 
L 359.720146 41.959719 
L 357.907686 40.686481 
L 356.110608 39.740232 
L 354.328653 39.125297 
L 352.561568 38.844599 
L 351.391651 38.843753 
L 350.228162 38.991813 
L 348.494828 39.492698 
L 346.775568 40.326398 
L 345.070154 41.487835 
L 343.378365 42.97018 
L 341.699985 44.764886 
L 340.034804 46.861734 
L 338.382616 49.248892 
L 336.199561 52.860004 
L 334.038783 56.927447 
L 331.899831 61.411071 
L 329.256171 67.533298 
L 326.645109 74.151859 
L 323.553748 82.682719 
L 320.003291 93.242842 
L 315.524182 107.371395 
L 301.704029 151.627735 
L 298.045114 162.332676 
L 294.894618 170.844594 
L 292.231005 177.471503 
L 289.600481 183.470743 
L 287.002235 188.850865 
L 284.435483 193.635791 
L 281.899471 197.864233 
L 279.393473 201.588873 
L 276.916784 204.875057 
L 274.468729 207.729207 
L 272.048652 210.180128 
L 269.655921 212.298824 
L 266.89815 214.434427 
L 263.789772 216.53446 
L 260.346535 218.575325 
L 256.585256 220.536153 
L 248.179748 224.476096 
L 242.5232 226.945284 
L 238.035978 228.683318 
L 233.976664 230.025319 
L 230.322771 230.988145 
L 226.730859 231.692494 
L 223.517529 232.106367 
L 220.352232 232.304971 
L 216.924197 232.285865 
L 213.550775 232.043704 
L 209.632075 231.521416 
L 204.906536 230.637096 
L 192.981554 228.266181 
L 189.422572 227.854535 
L 186.189618 227.704308 
L 183.00528 227.793779 
L 179.86812 228.117031 
L 176.521172 228.69649 
L 172.473174 229.643014 
L 165.085642 231.659318 
L 160.300028 232.816649 
L 156.547913 233.491691 
L 153.08968 233.871578 
L 149.462106 234.034574 
L 145.454016 233.980118 
L 139.580636 233.642661 
L 132.616484 233.289014 
L 128.504618 233.309695 
L 124.471078 233.551588 
L 120.121161 234.038498 
L 112.811927 235.131167 
L 106.846618 235.912352 
L 102.120572 236.296989 
L 97.321903 236.461647 
L 91.429828 236.429528 
L 84.370694 236.161197 
L 70.766374 235.553661 
L 66.014537 235.659373 
L 46.619093 236.413787 
L 40.888276 236.662983 
L 29.999771 237.325325 
L 29.999771 237.325325 
" style="fill: none; stroke: #1a1a1a; stroke-opacity: 0.5; stroke-width: 0.5; stroke-linecap: round"/>
   </g>
   <g id="line2d_8">
    <path d="M 554.593252 230.60264 
L 513.211189 229.645669 
L 485.092005 228.986153 
L 472.319022 228.439701 
L 463.220774 227.839784 
L 455.449096 227.101278 
L 448.87526 226.248687 
L 442.499376 225.189542 
L 437.183086 224.090982 
L 431.997004 222.791384 
L 426.934904 221.271091 
L 421.990996 219.514891 
L 417.957456 217.863502 
L 413.999314 216.037544 
L 410.113803 214.036074 
L 405.543386 211.410807 
L 401.069534 208.56199 
L 396.688252 205.498638 
L 392.395785 202.2414 
L 387.495464 198.232181 
L 382.03053 193.437853 
L 376.04649 187.880652 
L 367.061621 179.188504 
L 357.840087 170.313438 
L 352.493969 165.462138 
L 347.85259 161.558701 
L 343.873195 158.508184 
L 339.967205 155.820829 
L 336.131962 153.483945 
L 332.364948 151.483365 
L 328.663777 149.797831 
L 325.026188 148.387213 
L 320.944049 147.036377 
L 308.672108 143.19486 
L 305.829724 141.999247 
L 303.024988 140.556976 
L 300.715757 139.113291 
L 298.431436 137.405478 
L 296.171496 135.393894 
L 293.93542 133.041317 
L 291.72271 130.317549 
L 289.532882 127.275398 
L 287.365469 123.913212 
L 285.220015 120.212852 
L 282.673839 115.333977 
L 280.157915 110.007912 
L 277.25996 103.305727 
L 273.995858 95.164698 
L 269.192149 82.520515 
L 262.184929 64.050014 
L 259.521316 57.640672 
L 257.264587 52.715572 
L 255.402178 49.088761 
L 253.556008 45.948144 
L 252.090573 43.81275 
L 250.635211 42.03351 
L 249.189782 40.631986 
L 248.112149 39.838893 
L 247.039973 39.272478 
L 245.973197 38.934439 
L 244.911769 38.825545 
L 243.855635 38.945632 
L 242.804743 39.293608 
L 241.75904 39.867454 
L 240.718475 40.664235 
L 239.338963 42.066649 
L 237.968379 43.846975 
L 236.60661 45.991045 
L 234.916621 49.15697 
L 233.240013 52.824975 
L 231.245451 57.803568 
L 229.269502 63.341075 
L 226.987292 70.386492 
L 224.088707 80.115482 
L 219.657211 95.928862 
L 214.703665 113.434685 
L 211.66553 123.339626 
L 209.26602 130.42194 
L 207.188525 135.900996 
L 205.131214 140.663824 
L 203.383574 144.168962 
L 201.650241 147.160549 
L 199.93098 149.695711 
L 198.508849 151.409079 
L 197.096206 152.772083 
L 195.692925 153.818919 
L 194.298881 154.583652 
L 192.913955 155.099716 
L 191.538028 155.399423 
L 189.898631 155.516587 
L 188.271828 155.415417 
L 186.657428 155.119548 
L 183.46509 154.213306 
L 177.991747 152.638439 
L 175.688655 152.215472 
L 173.91452 152.077541 
L 172.155126 152.172504 
L 170.41023 152.506019 
L 168.925964 152.998802 
L 167.452029 153.695035 
L 165.988283 154.602771 
L 164.29327 155.934615 
L 162.611717 157.560162 
L 160.706152 159.748706 
L 158.817583 162.279234 
L 156.712883 165.518279 
L 154.398604 169.532284 
L 151.654448 174.798618 
L 148.273518 181.819607 
L 136.53053 206.668141 
L 133.798177 211.750605 
L 131.30692 215.92871 
L 129.048732 219.275849 
L 127.218869 221.619309 
L 125.404684 223.610829 
L 123.60591 225.25573 
L 122.019727 226.418927 
L 120.445337 227.305265 
L 118.882567 227.929786 
L 117.138127 228.369303 
L 115.599487 228.54117 
L 113.881776 228.516561 
L 111.801099 228.255392 
L 108.996363 227.654355 
L 90.850126 223.03296 
L 86.296092 221.564372 
L 78.756051 219.081123 
L 74.610124 217.981832 
L 67.315552 216.093604 
L 65.039417 215.179899 
L 62.638207 213.975267 
L 59.821691 212.293296 
L 55.738145 209.838526 
L 54.011877 209.069134 
L 52.583993 208.68646 
L 51.448577 208.596409 
L 50.319218 208.721942 
L 49.195849 209.0692 
L 48.078409 209.645119 
L 46.828297 210.563294 
L 45.447885 211.89327 
L 43.803183 213.839838 
L 41.90037 216.44981 
L 35.89748 224.977334 
L 34.325039 226.726083 
L 32.893821 228.01567 
L 31.472211 228.997902 
L 30.188069 229.631545 
L 29.932172 229.729858 
L 29.932172 229.729858 
" style="fill: none; stroke: #1a1a1a; stroke-opacity: 0.5; stroke-width: 0.5; stroke-linecap: round"/>
   </g>
   <g id="line2d_9">
    <path d="M 555.995695 235.70436 
L 539.755692 235.095084 
L 527.336564 234.429421 
L 516.877429 233.666553 
L 508.131165 232.823226 
L 500.911565 231.902699 
L 495.077741 230.965047 
L 489.400338 229.849019 
L 483.871187 228.529438 
L 478.482743 226.978371 
L 474.268585 225.550564 
L 470.136661 223.938858 
L 466.08382 222.126223 
L 462.107094 220.099396 
L 458.203676 217.877434 
L 454.370912 215.452488 
L 450.60629 212.81138 
L 446.907428 209.943703 
L 443.27207 206.841921 
L 439.698071 203.501438 
L 436.183393 199.920643 
L 432.726101 196.100925 
L 429.324351 192.046659 
L 425.976385 187.765166 
L 421.864519 182.122357 
L 417.830979 176.210605 
L 413.09001 168.815884 
L 408.452867 161.171009 
L 402.423863 150.763384 
L 383.936911 118.411197 
L 379.223581 110.789476 
L 375.920013 105.811791 
L 372.667193 101.280066 
L 369.463585 97.232668 
L 366.935144 94.361788 
L 364.436537 91.82627 
L 361.96707 89.641895 
L 359.52607 87.834335 
L 357.112888 86.399548 
L 355.320879 85.563785 
L 353.543908 84.92952 
L 351.781725 84.491781 
L 350.034086 84.244771 
L 348.300752 84.181894 
L 346.581491 84.295793 
L 344.310645 84.708581 
L 342.063892 85.400188 
L 339.840728 86.347656 
L 337.640662 87.525353 
L 335.463219 88.908816 
L 332.77253 90.900663 
L 330.115601 93.133833 
L 326.970675 96.055865 
L 322.848805 100.211965 
L 311.910698 111.461361 
L 309.023093 113.965697 
L 306.646475 115.747104 
L 304.296235 117.204053 
L 302.434646 118.106871 
L 300.58928 118.752621 
L 298.759856 119.12028 
L 297.398087 119.201363 
L 296.045019 119.107171 
L 294.254273 118.762619 
L 292.478544 118.14914 
L 290.717582 117.249526 
L 288.971144 116.059502 
L 287.238992 114.57982 
L 285.520893 112.816246 
L 283.816623 110.779511 
L 281.705395 107.873662 
L 279.615009 104.606464 
L 277.133483 100.27864 
L 274.680701 95.525571 
L 271.854575 89.51736 
L 268.275542 81.335229 
L 257.138109 55.408742 
L 254.905177 50.968711 
L 252.695546 47.095383 
L 250.871637 44.357713 
L 249.423738 42.522853 
L 247.985672 41.030996 
L 246.557306 39.907486 
L 245.492319 39.321819 
L 244.432662 38.964018 
L 243.378281 38.825545 
L 242.329124 38.898473 
L 241.285139 39.189818 
L 240.246277 39.70597 
L 239.212486 40.451744 
L 238.183717 41.430355 
L 236.819755 43.099883 
L 235.464522 45.185272 
L 234.117907 47.680673 
L 232.779802 50.575157 
L 231.118974 54.729789 
L 229.471072 59.443548 
L 227.510368 65.782098 
L 225.245593 73.987386 
L 222.686596 84.189119 
L 219.217719 99.059158 
L 211.840912 131.005248 
L 208.841507 142.9398 
L 206.472202 151.518456 
L 204.129114 159.157582 
L 202.099966 165.059005 
L 200.37604 169.3949 
L 198.666035 173.086933 
L 196.969729 176.18722 
L 195.286904 178.746818 
L 193.894693 180.502164 
L 192.511576 181.942719 
L 191.137435 183.091955 
L 189.50015 184.149609 
L 187.875428 184.936512 
L 186.263077 185.493859 
L 184.397387 185.911805 
L 182.022546 186.190503 
L 177.351303 186.419053 
L 174.040583 186.698068 
L 171.778496 187.098477 
L 169.540319 187.713219 
L 167.570496 188.454594 
L 165.618829 189.443477 
L 163.684985 190.661905 
L 161.530314 192.275537 
L 159.161672 194.332374 
L 156.121523 197.31341 
L 152.210683 201.489864 
L 142.847383 211.629548 
L 139.386559 214.978377 
L 136.615702 217.361754 
L 133.880634 219.403284 
L 131.386931 220.99392 
L 128.922255 222.311748 
L 126.284168 223.48407 
L 123.678544 224.409536 
L 120.711361 225.219437 
L 117.979008 225.725345 
L 115.09009 226.036008 
L 112.240054 226.116625 
L 109.427869 225.982922 
L 107.020491 225.657234 
L 104.640174 225.11049 
L 101.926496 224.244821 
L 98.715331 222.968038 
L 89.533537 219.200266 
L 87.173192 218.563383 
L 85.004754 218.19974 
L 82.858297 218.071425 
L 80.73338 218.168426 
L 78.629574 218.490622 
L 76.546464 219.032539 
L 74.325798 219.844053 
L 71.972075 220.951595 
L 69.335772 222.439476 
L 65.668936 224.795423 
L 56.480109 230.845975 
L 53.742177 232.277759 
L 51.3221 233.298259 
L 48.929369 234.075614 
L 46.425017 234.644626 
L 43.813277 235.013498 
L 40.963607 235.19408 
L 38.151777 235.155861 
L 35.508117 234.906948 
L 33.026847 234.454295 
L 30.061591 233.674348 
L 29.933604 233.636223 
L 29.933604 233.636223 
" style="fill: none; stroke: #1a1a1a; stroke-opacity: 0.5; stroke-width: 0.5; stroke-linecap: round"/>
   </g>
   <g id="line2d_10">
    <path d="M 555.995695 234.592153 
L 506.910675 233.419413 
L 495.077741 232.926089 
L 486.065553 232.348046 
L 478.482743 231.656962 
L 472.192545 230.884621 
L 466.08382 229.90441 
L 461.124473 228.902863 
L 456.278623 227.73622 
L 451.54119 226.383557 
L 446.907428 224.821952 
L 442.372899 223.031388 
L 437.93344 220.995052 
L 433.585147 218.69958 
L 430.169679 216.669968 
L 425.976385 213.886104 
L 421.864519 210.840771 
L 417.830979 207.572312 
L 413.872837 204.0927 
L 409.218706 199.664816 
L 404.664672 195.006366 
L 399.472534 189.36377 
L 392.269308 181.154397 
L 386.678107 174.529117 
L 375.920013 161.324611 
L 363.816465 146.610984 
L 358.316041 140.172066 
L 351.781725 132.890561 
L 327.491597 106.180019 
L 309.981259 86.462255 
L 287.238992 61.065899 
L 281.285664 54.859127 
L 277.545056 51.233716 
L 273.061157 47.222076 
L 269.85876 44.616928 
L 267.095849 42.655603 
L 264.755997 41.256115 
L 262.441718 40.140854 
L 260.152458 39.320212 
L 258.63992 38.962551 
L 257.138109 38.825545 
L 255.646875 38.91326 
L 254.166069 39.229447 
L 252.695546 39.780516 
L 251.235165 40.575477 
L 249.784786 41.625854 
L 248.344274 42.945579 
L 246.913495 44.550857 
L 245.492319 46.460018 
L 243.729158 49.283741 
L 241.980557 52.50149 
L 240.246277 56.101294 
L 238.183717 60.950168 
L 236.141054 66.380494 
L 234.117907 72.369589 
L 231.781743 79.994126 
L 229.143024 89.402634 
L 225.890204 101.947204 
L 217.349286 135.551602 
L 215.190081 143.008245 
L 213.052672 149.687894 
L 211.237623 154.705152 
L 209.437999 158.989648 
L 207.949908 161.971776 
L 206.472202 164.41518 
L 205.297417 165.991344 
L 204.129114 167.247378 
L 202.967221 168.207776 
L 202.099966 168.706436 
L 201.236249 169.001028 
L 200.37604 169.10462 
L 199.519312 169.030186 
L 198.382372 168.676129 
L 197.251505 168.058041 
L 196.126645 167.204626 
L 194.72892 165.848569 
L 193.063739 163.862641 
L 191.137435 161.151508 
L 187.336612 155.219895 
L 183.60281 149.503681 
L 181.498401 146.646461 
L 179.674044 144.528842 
L 178.122722 143.044909 
L 176.83858 142.073012 
L 175.562178 141.363807 
L 174.293424 140.932596 
L 173.283866 140.794662 
L 172.279098 140.843701 
L 171.279075 141.080017 
L 170.035651 141.635544 
L 168.799487 142.468804 
L 167.570496 143.580525 
L 166.348598 144.977686 
L 164.891566 147.003107 
L 163.204271 149.800065 
L 161.530314 153.004659 
L 159.397347 157.619034 
L 156.819231 163.80335 
L 147.477284 186.805968 
L 145.25994 191.414089 
L 143.28399 194.99534 
L 141.542937 197.690095 
L 139.816082 199.923996 
L 138.31655 201.502531 
L 136.827562 202.734331 
L 135.348971 203.658549 
L 133.880634 204.321584 
L 132.214907 204.825025 
L 130.151007 205.189093 
L 128.10703 205.331607 
L 124.877157 205.310936 
L 120.31886 205.076209 
L 117.591534 204.765138 
L 115.856623 204.36859 
L 114.326322 203.800895 
L 112.996321 203.085018 
L 111.674622 202.142693 
L 110.361121 200.943167 
L 109.055717 199.455008 
L 107.758312 197.655599 
L 106.285232 195.201587 
L 104.640174 191.96174 
L 102.827197 187.866742 
L 100.671917 182.416869 
L 93.642078 164.110562 
L 92.092019 160.851923 
L 90.723649 158.455398 
L 89.533537 156.809545 
L 88.518737 155.77882 
L 87.67677 155.194059 
L 86.838138 154.860249 
L 86.002813 154.776874 
L 85.170771 154.941421 
L 84.341986 155.349417 
L 83.516431 155.994493 
L 82.529996 157.064967 
L 81.548134 158.447652 
L 80.408354 160.429125 
L 79.113216 163.133655 
L 77.665591 166.664131 
L 75.909608 171.540471 
L 73.067224 180.182629 
L 69.489943 190.989648 
L 67.341691 196.768336 
L 65.668936 200.672389 
L 64.159633 203.678164 
L 62.66101 206.188332 
L 61.469702 207.797346 
L 60.137444 209.211493 
L 58.813514 210.273529 
L 57.497811 211.040144 
L 56.190233 211.555962 
L 54.45926 212.003518 
L 52.315255 212.307402 
L 45.459045 213.040783 
L 43.403826 213.613369 
L 41.368362 214.423691 
L 38.817882 215.703679 
L 36.561624 217.025019 
L 33.93762 218.810254 
L 31.216969 220.967837 
L 29.933604 222.053714 
L 29.933604 222.053714 
" style="fill: none; stroke: #1a1a1a; stroke-opacity: 0.5; stroke-width: 0.5; stroke-linecap: round"/>
   </g>
   <g id="line2d_11">
    <path d="M 555.309294 234.21868 
L 543.37631 233.2096 
L 533.459575 232.150072 
L 523.986551 230.909087 
L 514.919226 229.474619 
L 507.444765 228.084716 
L 500.225164 226.542091 
L 493.243616 224.846013 
L 486.484923 222.998213 
L 479.935294 221.002471 
L 473.582185 218.86454 
L 466.403381 216.200812 
L 459.45999 213.371655 
L 452.737063 210.410008 
L 445.30632 206.895203 
L 437.247039 202.825588 
L 427.795983 197.78379 
L 404.730508 185.302622 
L 398.786134 182.382642 
L 393.718264 180.11149 
L 388.071145 177.843332 
L 380.544347 175.036527 
L 364.995755 169.407363 
L 361.280669 167.762794 
L 357.62964 165.941009 
L 354.634478 164.228649 
L 351.681091 162.277852 
L 348.768329 160.034743 
L 346.466628 157.996611 
L 344.189677 155.717224 
L 341.936949 153.176404 
L 339.707934 150.356627 
L 337.502139 147.246806 
L 334.776819 143.009006 
L 332.086129 138.387754 
L 329.4292 133.388618 
L 326.284275 126.92338 
L 323.185374 120.015518 
L 319.626392 111.531879 
L 314.643705 99.011541 
L 301.748245 65.998227 
L 298.986192 59.731784 
L 296.259702 54.113707 
L 294.014141 50.005218 
L 292.234681 47.155825 
L 290.470051 44.710342 
L 288.720004 42.680251 
L 286.984302 41.074044 
L 285.691799 40.15094 
L 284.407138 39.470517 
L 283.130222 39.032916 
L 281.860961 38.837278 
L 280.599263 38.881757 
L 279.345037 39.163524 
L 278.098197 39.678783 
L 276.858656 40.422652 
L 275.626327 41.385697 
L 273.994301 42.99259 
L 272.374756 44.949568 
L 270.767504 47.234425 
L 268.775444 50.512642 
L 266.801949 54.207404 
L 264.45778 59.102952 
L 261.755317 65.301519 
L 258.330642 73.739511 
L 254.218777 84.507812 
L 245.515314 107.482394 
L 241.642723 117.077239 
L 238.526085 124.189312 
L 235.116117 131.396676 
L 231.427506 138.666914 
L 227.149493 146.628237 
L 223.916538 152.158696 
L 221.048489 156.645452 
L 218.531319 160.171441 
L 216.662885 162.455725 
L 214.810794 164.361648 
L 212.670297 166.20491 
L 211.154511 167.257248 
L 209.649498 168.050457 
L 208.155106 168.559692 
L 206.96714 168.751679 
L 205.785801 168.747782 
L 204.611017 168.54799 
L 203.442713 168.156124 
L 201.991341 167.408354 
L 200.549848 166.344685 
L 199.118102 164.974088 
L 197.695972 163.325987 
L 196.001927 161.026586 
L 194.04252 157.973755 
L 191.549633 153.610412 
L 182.91641 137.901388 
L 181.073911 135.187505 
L 179.507286 133.258743 
L 178.210562 131.958555 
L 176.92173 130.957322 
L 175.896283 130.390701 
L 174.875777 130.045105 
L 173.860167 129.929337 
L 172.849404 130.049357 
L 171.843443 130.408232 
L 170.842238 131.006104 
L 169.845744 131.840189 
L 168.606686 133.205972 
L 167.374836 134.919796 
L 166.150111 136.989179 
L 164.68973 139.908669 
L 162.998584 143.851586 
L 161.082241 148.95741 
L 158.946884 155.298173 
L 156.132831 164.389343 
L 148.356956 189.932921 
L 145.901158 197.031322 
L 143.912839 202.138939 
L 142.160982 206.100458 
L 140.4235 209.504641 
L 138.700158 212.36288 
L 137.203654 214.407726 
L 135.717652 216.040141 
L 134.242006 217.296913 
L 132.776571 218.216877 
L 131.321209 218.839795 
L 129.87578 219.205623 
L 128.440151 219.348086 
L 127.01419 219.271481 
L 125.396192 218.9465 
L 123.790464 218.388699 
L 122.19682 217.602285 
L 120.61508 216.576857 
L 118.654377 215.015188 
L 116.905134 213.33496 
L 115.170222 211.362733 
L 113.449409 209.080343 
L 111.553654 206.199666 
L 109.300926 202.354968 
L 106.33409 196.777772 
L 101.419929 187.482949 
L 99.450106 184.27513 
L 97.851952 182.1129 
L 96.617229 180.776796 
L 95.389663 179.760081 
L 94.343099 179.158822 
L 93.301682 178.814015 
L 92.265361 178.724655 
L 91.234087 178.882401 
L 90.207812 179.271754 
L 89.186486 179.88031 
L 88.001132 180.873564 
L 86.654518 182.336113 
L 85.149742 184.323049 
L 83.324977 187.126713 
L 80.861734 191.369765 
L 72.067345 206.891936 
L 70.040971 209.819941 
L 68.341364 211.909367 
L 66.808016 213.495065 
L 65.437433 214.634471 
L 64.075663 215.490878 
L 62.722595 216.070589 
L 61.527083 216.354075 
L 60.338283 216.426089 
L 59.008813 216.284255 
L 57.541347 215.890558 
L 55.938795 215.22476 
L 52.912651 213.641815 
L 50.211483 212.311649 
L 48.523067 211.739683 
L 47.126265 211.493038 
L 45.876973 211.495284 
L 44.635008 211.733819 
L 43.400284 212.210656 
L 42.036761 213.000625 
L 40.546957 214.142382 
L 38.532152 216.002444 
L 35.347815 219.253082 
L 31.821757 222.735491 
L 30.016288 224.263232 
L 30.016288 224.263232 
" style="fill: none; stroke: #1a1a1a; stroke-opacity: 0.5; stroke-width: 0.5; stroke-linecap: round"/>
   </g>
   <g id="line2d_12">
    <path d="M 556.004712 235.21408 
L 542.626299 234.589096 
L 531.404896 233.855649 
L 522.051445 233.039108 
L 513.093728 232.018434 
L 505.706196 230.946284 
L 499.740888 229.865195 
L 493.939034 228.573472 
L 488.291914 227.045686 
L 483.880204 225.634061 
L 479.558535 224.03641 
L 475.323305 222.235169 
L 471.171124 220.211775 
L 467.098798 217.946833 
L 463.103313 215.420308 
L 459.181823 212.611705 
L 455.331636 209.549047 
L 451.550206 206.254253 
L 447.835121 202.713449 
L 444.184092 198.917813 
L 440.594948 194.863662 
L 437.065626 190.552486 
L 433.594164 185.99093 
L 430.178696 181.190737 
L 425.985401 174.880855 
L 421.873536 168.267811 
L 417.839996 161.399707 
L 413.099027 152.891479 
L 406.938464 141.302256 
L 390.866623 110.656737 
L 386.687124 103.327549 
L 383.266138 97.696532 
L 379.899542 92.565966 
L 377.244279 88.867714 
L 374.621899 85.561882 
L 372.031599 82.671411 
L 369.472602 80.213363 
L 367.573446 78.660468 
L 365.691172 77.359529 
L 363.825482 76.310976 
L 361.976087 75.513281 
L 360.142704 74.962964 
L 358.325058 74.667469 
L 356.522881 74.632925 
L 354.735914 74.851221 
L 352.9639 75.31321 
L 351.206591 76.008761 
L 349.463747 76.926808 
L 347.735129 78.05541 
L 345.452041 79.8656 
L 343.193305 81.995112 
L 340.958409 84.409655 
L 338.197556 87.773659 
L 335.472236 91.453371 
L 332.247487 96.192126 
L 328.02282 102.858343 
L 315.339123 123.252812 
L 311.919715 128.127145 
L 309.510651 131.174962 
L 307.128686 133.794133 
L 305.24222 135.55887 
L 303.372412 137.012298 
L 301.518969 138.139105 
L 300.139457 138.761149 
L 298.768873 139.185623 
L 297.407103 139.40717 
L 296.054035 139.420816 
L 294.709558 139.221999 
L 293.373564 138.80659 
L 292.045945 138.170462 
L 290.726599 137.337244 
L 288.980161 135.924187 
L 287.248008 134.164333 
L 285.52991 132.060435 
L 283.82564 129.619948 
L 282.134977 126.854963 
L 280.040455 122.968123 
L 277.966448 118.642495 
L 275.504159 112.946413 
L 272.667215 105.725856 
L 269.470861 96.869608 
L 264.765014 83.021004 
L 259.02606 66.208235 
L 256.027717 58.113329 
L 253.806496 52.744965 
L 251.973113 48.825911 
L 250.155467 45.474816 
L 248.712501 43.2414 
L 247.279302 41.435891 
L 246.210732 40.378349 
L 245.147528 39.586559 
L 244.089635 39.070195 
L 243.037001 38.838226 
L 241.989574 38.89887 
L 240.947302 39.243997 
L 239.910135 39.858686 
L 238.878024 40.746956 
L 237.850919 41.910896 
L 236.828771 43.350583 
L 235.473538 45.695479 
L 234.126924 48.516826 
L 232.788819 51.798303 
L 231.127991 56.512539 
L 229.480088 61.853793 
L 227.519385 68.991541 
L 225.25461 78.177943 
L 222.695613 89.560614 
L 218.602091 109.021868 
L 213.975081 130.84151 
L 210.945638 143.926595 
L 208.552907 153.242449 
L 206.481219 160.385017 
L 204.721477 165.713992 
L 202.976238 170.320348 
L 201.245266 174.253532 
L 199.81352 177.022009 
L 198.391389 179.249678 
L 196.978746 180.993554 
L 195.575464 182.314741 
L 194.181421 183.27199 
L 192.796495 183.920837 
L 191.420568 184.312784 
L 189.78117 184.50941 
L 187.884445 184.459103 
L 185.203973 184.135295 
L 178.131739 183.167516 
L 175.571195 183.049942 
L 173.292883 183.199831 
L 170.789846 183.609064 
L 168.070254 184.29243 
L 165.142726 185.258647 
L 162.016255 186.538947 
L 159.170688 187.942433 
L 156.595423 189.457387 
L 153.821308 191.372036 
L 151.083066 193.524365 
L 148.379781 195.928229 
L 145.268957 198.998921 
L 142.203172 202.363292 
L 138.325566 206.978642 
L 130.365511 216.63759 
L 127.709608 219.44073 
L 125.086604 221.850374 
L 123.090788 223.403818 
L 121.113608 224.658242 
L 119.154719 225.620444 
L 117.600551 226.150947 
L 116.057707 226.444965 
L 114.526023 226.520079 
L 113.005338 226.38505 
L 111.495496 226.03949 
L 109.809693 225.415517 
L 107.767329 224.424333 
L 105.561533 223.083598 
L 102.655766 221.022555 
L 96.961186 216.923719 
L 95.038516 215.887447 
L 93.305655 215.204991 
L 91.58686 214.772798 
L 89.881904 214.572086 
L 87.685787 214.561845 
L 85.512213 214.760842 
L 79.768811 215.410104 
L 77.194258 215.401801 
L 71.046879 215.240644 
L 69.344788 215.477314 
L 67.809216 215.918717 
L 66.436659 216.534132 
L 64.921957 217.46589 
L 63.418013 218.655339 
L 61.775918 220.231555 
L 59.70423 222.540982 
L 53.751194 229.428678 
L 52.040038 230.930525 
L 50.624562 231.897316 
L 49.218484 232.591057 
L 47.821682 233.036651 
L 46.57239 233.223262 
L 45.055419 233.208078 
L 43.276535 232.956057 
L 40.299746 232.267126 
L 35.911585 231.306409 
L 33.165734 230.91826 
L 30.198673 230.725029 
L 29.942621 230.71809 
L 29.942621 230.71809 
" style="fill: none; stroke: #1a1a1a; stroke-opacity: 0.5; stroke-width: 0.5; stroke-linecap: round"/>
   </g>
   <g id="patch_3">
    <path d="M 29.92 237.78 
L 29.92 36.836 
" style="fill: none; stroke: #ffffff; stroke-width: 1.25; stroke-linejoin: miter; stroke-linecap: square"/>
   </g>
   <g id="patch_4">
    <path d="M 556.11 237.78 
L 556.11 36.836 
" style="fill: none; stroke: #ffffff; stroke-width: 1.25; stroke-linejoin: miter; stroke-linecap: square"/>
   </g>
   <g id="patch_5">
    <path d="M 29.92 237.78 
L 556.11 237.78 
" style="fill: none; stroke: #ffffff; stroke-width: 1.25; stroke-linejoin: miter; stroke-linecap: square"/>
   </g>
   <g id="patch_6">
    <path d="M 29.92 36.836 
L 556.11 36.836 
" style="fill: none; stroke: #ffffff; stroke-width: 1.25; stroke-linejoin: miter; stroke-linecap: square"/>
   </g>
   <g id="patch_7">
    <path d="M 304.55059 53.957935 
Q 301.127099 55.854552 297.703608 57.751169 
" style="fill: none; stroke: #ffffff; stroke-width: 0.5; stroke-linecap: round"/>
   </g>
   <g id="text_8">
    <!-- TFP -->
    <g style="fill: #262626" transform="translate(308.8007 48.968285) scale(0.12 -0.12)">
     <defs>
      <path id="DejaVuSans-54" d="M -19 4666 
L 3928 4666 
L 3928 4134 
L 2272 4134 
L 2272 0 
L 1638 0 
L 1638 4134 
L -19 4134 
L -19 4666 
z
" transform="scale(0.015625)"/>
      <path id="DejaVuSans-46" d="M 628 4666 
L 3309 4666 
L 3309 4134 
L 1259 4134 
L 1259 2759 
L 3109 2759 
L 3109 2228 
L 1259 2228 
L 1259 0 
L 628 0 
L 628 4666 
z
" transform="scale(0.015625)"/>
      <path id="DejaVuSans-50" d="M 1259 4147 
L 1259 2394 
L 2053 2394 
Q 2494 2394 2734 2622 
Q 2975 2850 2975 3272 
Q 2975 3691 2734 3919 
Q 2494 4147 2053 4147 
L 1259 4147 
z
M 628 4666 
L 2053 4666 
Q 2838 4666 3239 4311 
Q 3641 3956 3641 3272 
Q 3641 2581 3239 2228 
Q 2838 1875 2053 1875 
L 1259 1875 
L 1259 0 
L 628 0 
L 628 4666 
z
" transform="scale(0.015625)"/>
     </defs>
     <use xlink:href="#DejaVuSans-54"/>
     <use xlink:href="#DejaVuSans-46" x="61.083984"/>
     <use xlink:href="#DejaVuSans-50" x="118.603516"/>
    </g>
   </g>
   <g id="patch_8">
    <path d="M 393.758486 63.627384 
Q 343.568753 66.098893 293.379019 68.570403 
" style="fill: none; stroke: #ffffff; stroke-width: 0.5; stroke-linecap: round"/>
   </g>
   <g id="text_9">
    <!-- Investment -->
    <g style="fill: #262626" transform="translate(398.253 65.043805) scale(0.12 -0.12)">
     <defs>
      <path id="DejaVuSans-49" d="M 628 4666 
L 1259 4666 
L 1259 0 
L 628 0 
L 628 4666 
z
" transform="scale(0.015625)"/>
      <path id="DejaVuSans-76" d="M 191 3500 
L 800 3500 
L 1894 563 
L 2988 3500 
L 3597 3500 
L 2284 0 
L 1503 0 
L 191 3500 
z
" transform="scale(0.015625)"/>
      <path id="DejaVuSans-6d" d="M 3328 2828 
Q 3544 3216 3844 3400 
Q 4144 3584 4550 3584 
Q 5097 3584 5394 3201 
Q 5691 2819 5691 2113 
L 5691 0 
L 5113 0 
L 5113 2094 
Q 5113 2597 4934 2840 
Q 4756 3084 4391 3084 
Q 3944 3084 3684 2787 
Q 3425 2491 3425 1978 
L 3425 0 
L 2847 0 
L 2847 2094 
Q 2847 2600 2669 2842 
Q 2491 3084 2119 3084 
Q 1678 3084 1418 2786 
Q 1159 2488 1159 1978 
L 1159 0 
L 581 0 
L 581 3500 
L 1159 3500 
L 1159 2956 
Q 1356 3278 1631 3431 
Q 1906 3584 2284 3584 
Q 2666 3584 2933 3390 
Q 3200 3197 3328 2828 
z
" transform="scale(0.015625)"/>
     </defs>
     <use xlink:href="#DejaVuSans-49"/>
     <use xlink:href="#DejaVuSans-6e" x="29.492188"/>
     <use xlink:href="#DejaVuSans-76" x="92.871094"/>
     <use xlink:href="#DejaVuSans-65" x="152.050781"/>
     <use xlink:href="#DejaVuSans-73" x="213.574219"/>
     <use xlink:href="#DejaVuSans-74" x="265.673828"/>
     <use xlink:href="#DejaVuSans-6d" x="304.882812"/>
     <use xlink:href="#DejaVuSans-65" x="402.294922"/>
     <use xlink:href="#DejaVuSans-6e" x="463.818359"/>
     <use xlink:href="#DejaVuSans-74" x="527.197266"/>
    </g>
   </g>
   <g id="patch_9">
    <path d="M 393.761789 48.415621 
Q 380.559733 49.506841 367.357676 50.598062 
" style="fill: none; stroke: #ffffff; stroke-width: 0.5; stroke-linecap: round"/>
   </g>
   <g id="text_10">
    <!-- Wage -->
    <g style="fill: #262626" transform="translate(398.253 49.973005) scale(0.12 -0.12)">
     <defs>
      <path id="DejaVuSans-57" d="M 213 4666 
L 850 4666 
L 1831 722 
L 2809 4666 
L 3519 4666 
L 4500 722 
L 5478 4666 
L 6119 4666 
L 4947 0 
L 4153 0 
L 3169 4050 
L 2175 0 
L 1381 0 
L 213 4666 
z
" transform="scale(0.015625)"/>
      <path id="DejaVuSans-67" d="M 2906 1791 
Q 2906 2416 2648 2759 
Q 2391 3103 1925 3103 
Q 1463 3103 1205 2759 
Q 947 2416 947 1791 
Q 947 1169 1205 825 
Q 1463 481 1925 481 
Q 2391 481 2648 825 
Q 2906 1169 2906 1791 
z
M 3481 434 
Q 3481 -459 3084 -895 
Q 2688 -1331 1869 -1331 
Q 1566 -1331 1297 -1286 
Q 1028 -1241 775 -1147 
L 775 -588 
Q 1028 -725 1275 -790 
Q 1522 -856 1778 -856 
Q 2344 -856 2625 -561 
Q 2906 -266 2906 331 
L 2906 616 
Q 2728 306 2450 153 
Q 2172 0 1784 0 
Q 1141 0 747 490 
Q 353 981 353 1791 
Q 353 2603 747 3093 
Q 1141 3584 1784 3584 
Q 2172 3584 2450 3431 
Q 2728 3278 2906 2969 
L 2906 3500 
L 3481 3500 
L 3481 434 
z
" transform="scale(0.015625)"/>
     </defs>
     <use xlink:href="#DejaVuSans-57"/>
     <use xlink:href="#DejaVuSans-61" x="92.501953"/>
     <use xlink:href="#DejaVuSans-67" x="153.78125"/>
     <use xlink:href="#DejaVuSans-65" x="217.257812"/>
    </g>
   </g>
   <g id="patch_10">
    <path d="M 420.066428 77.152867 
Q 393.715395 77.857897 367.364363 78.562927 
" style="fill: none; stroke: #ffffff; stroke-width: 0.5; stroke-linecap: round"/>
   </g>
   <g id="text_11">
    <!-- Unemployment -->
    <g style="fill: #262626" transform="translate(424.5625 79.109885) scale(0.12 -0.12)">
     <defs>
      <path id="DejaVuSans-55" d="M 556 4666 
L 1191 4666 
L 1191 1831 
Q 1191 1081 1462 751 
Q 1734 422 2344 422 
Q 2950 422 3222 751 
Q 3494 1081 3494 1831 
L 3494 4666 
L 4128 4666 
L 4128 1753 
Q 4128 841 3676 375 
Q 3225 -91 2344 -91 
Q 1459 -91 1007 375 
Q 556 841 556 1753 
L 556 4666 
z
" transform="scale(0.015625)"/>
      <path id="DejaVuSans-6f" d="M 1959 3097 
Q 1497 3097 1228 2736 
Q 959 2375 959 1747 
Q 959 1119 1226 758 
Q 1494 397 1959 397 
Q 2419 397 2687 759 
Q 2956 1122 2956 1747 
Q 2956 2369 2687 2733 
Q 2419 3097 1959 3097 
z
M 1959 3584 
Q 2709 3584 3137 3096 
Q 3566 2609 3566 1747 
Q 3566 888 3137 398 
Q 2709 -91 1959 -91 
Q 1206 -91 779 398 
Q 353 888 353 1747 
Q 353 2609 779 3096 
Q 1206 3584 1959 3584 
z
" transform="scale(0.015625)"/>
     </defs>
     <use xlink:href="#DejaVuSans-55"/>
     <use xlink:href="#DejaVuSans-6e" x="73.193359"/>
     <use xlink:href="#DejaVuSans-65" x="136.572266"/>
     <use xlink:href="#DejaVuSans-6d" x="198.095703"/>
     <use xlink:href="#DejaVuSans-70" x="295.507812"/>
     <use xlink:href="#DejaVuSans-6c" x="358.984375"/>
     <use xlink:href="#DejaVuSans-6f" x="386.767578"/>
     <use xlink:href="#DejaVuSans-79" x="447.949219"/>
     <use xlink:href="#DejaVuSans-6d" x="507.128906"/>
     <use xlink:href="#DejaVuSans-65" x="604.541016"/>
     <use xlink:href="#DejaVuSans-6e" x="666.064453"/>
     <use xlink:href="#DejaVuSans-74" x="729.443359"/>
    </g>
   </g>
   <g id="patch_11">
    <path d="M 420.066508 89.899282 
Q 389.560849 89.252867 359.05519 88.606451 
" style="fill: none; stroke: #ffffff; stroke-width: 0.5; stroke-linecap: round"/>
   </g>
   <g id="text_12">
    <!-- Hours worked -->
    <g style="fill: #262626" transform="translate(424.5625 94.180685) scale(0.12 -0.12)">
     <defs>
      <path id="DejaVuSans-48" d="M 628 4666 
L 1259 4666 
L 1259 2753 
L 3553 2753 
L 3553 4666 
L 4184 4666 
L 4184 0 
L 3553 0 
L 3553 2222 
L 1259 2222 
L 1259 0 
L 628 0 
L 628 4666 
z
" transform="scale(0.015625)"/>
      <path id="DejaVuSans-75" d="M 544 1381 
L 544 3500 
L 1119 3500 
L 1119 1403 
Q 1119 906 1312 657 
Q 1506 409 1894 409 
Q 2359 409 2629 706 
Q 2900 1003 2900 1516 
L 2900 3500 
L 3475 3500 
L 3475 0 
L 2900 0 
L 2900 538 
Q 2691 219 2414 64 
Q 2138 -91 1772 -91 
Q 1169 -91 856 284 
Q 544 659 544 1381 
z
M 1991 3584 
L 1991 3584 
z
" transform="scale(0.015625)"/>
      <path id="DejaVuSans-77" d="M 269 3500 
L 844 3500 
L 1563 769 
L 2278 3500 
L 2956 3500 
L 3675 769 
L 4391 3500 
L 4966 3500 
L 4050 0 
L 3372 0 
L 2619 2869 
L 1863 0 
L 1184 0 
L 269 3500 
z
" transform="scale(0.015625)"/>
      <path id="DejaVuSans-6b" d="M 581 4863 
L 1159 4863 
L 1159 1991 
L 2875 3500 
L 3609 3500 
L 1753 1863 
L 3688 0 
L 2938 0 
L 1159 1709 
L 1159 0 
L 581 0 
L 581 4863 
z
" transform="scale(0.015625)"/>
     </defs>
     <use xlink:href="#DejaVuSans-48"/>
     <use xlink:href="#DejaVuSans-6f" x="75.195312"/>
     <use xlink:href="#DejaVuSans-75" x="136.376953"/>
     <use xlink:href="#DejaVuSans-72" x="199.755859"/>
     <use xlink:href="#DejaVuSans-73" x="240.869141"/>
     <use xlink:href="#DejaVuSans-20" x="292.96875"/>
     <use xlink:href="#DejaVuSans-77" x="324.755859"/>
     <use xlink:href="#DejaVuSans-6f" x="406.542969"/>
     <use xlink:href="#DejaVuSans-72" x="467.724609"/>
     <use xlink:href="#DejaVuSans-6b" x="508.837891"/>
     <use xlink:href="#DejaVuSans-65" x="563.123047"/>
     <use xlink:href="#DejaVuSans-64" x="624.646484"/>
    </g>
   </g>
   <g id="patch_12">
    <path d="M 459.533614 197.525719 
Q 426.457284 200.647708 393.380955 203.769697 
" style="fill: none; stroke: #ffffff; stroke-width: 0.5; stroke-linecap: round"/>
   </g>
   <g id="text_13">
    <!-- Consumption -->
    <g style="fill: #262626" transform="translate(464.02675 196.662125) scale(0.12 -0.12)">
     <defs>
      <path id="DejaVuSans-43" d="M 4122 4306 
L 4122 3641 
Q 3803 3938 3442 4084 
Q 3081 4231 2675 4231 
Q 1875 4231 1450 3742 
Q 1025 3253 1025 2328 
Q 1025 1406 1450 917 
Q 1875 428 2675 428 
Q 3081 428 3442 575 
Q 3803 722 4122 1019 
L 4122 359 
Q 3791 134 3420 21 
Q 3050 -91 2638 -91 
Q 1578 -91 968 557 
Q 359 1206 359 2328 
Q 359 3453 968 4101 
Q 1578 4750 2638 4750 
Q 3056 4750 3426 4639 
Q 3797 4528 4122 4306 
z
" transform="scale(0.015625)"/>
     </defs>
     <use xlink:href="#DejaVuSans-43"/>
     <use xlink:href="#DejaVuSans-6f" x="69.824219"/>
     <use xlink:href="#DejaVuSans-6e" x="131.005859"/>
     <use xlink:href="#DejaVuSans-73" x="194.384766"/>
     <use xlink:href="#DejaVuSans-75" x="246.484375"/>
     <use xlink:href="#DejaVuSans-6d" x="309.863281"/>
     <use xlink:href="#DejaVuSans-70" x="407.275391"/>
     <use xlink:href="#DejaVuSans-74" x="470.751953"/>
     <use xlink:href="#DejaVuSans-69" x="509.960938"/>
     <use xlink:href="#DejaVuSans-6f" x="537.744141"/>
     <use xlink:href="#DejaVuSans-6e" x="598.925781"/>
    </g>
   </g>
   <g id="legend_1">
    <g id="line2d_13">
     <path d="M 39.82 31.149881 
L 50.82 31.149881 
L 61.82 31.149881 
" style="fill: none; stroke: #1a1a1a; stroke-width: 1.5; stroke-linecap: round"/>
    </g>
    <g id="text_14">
     <!-- GDP -->
     <g style="fill: #262626" transform="translate(70.62 34.999881) scale(0.11 -0.11)">
      <defs>
       <path id="DejaVuSans-47" d="M 3809 666 
L 3809 1919 
L 2778 1919 
L 2778 2438 
L 4434 2438 
L 4434 434 
Q 4069 175 3628 42 
Q 3188 -91 2688 -91 
Q 1594 -91 976 548 
Q 359 1188 359 2328 
Q 359 3472 976 4111 
Q 1594 4750 2688 4750 
Q 3144 4750 3555 4637 
Q 3966 4525 4313 4306 
L 4313 3634 
Q 3963 3931 3569 4081 
Q 3175 4231 2741 4231 
Q 1884 4231 1454 3753 
Q 1025 3275 1025 2328 
Q 1025 1384 1454 906 
Q 1884 428 2741 428 
Q 3075 428 3337 486 
Q 3600 544 3809 666 
z
" transform="scale(0.015625)"/>
       <path id="DejaVuSans-44" d="M 1259 4147 
L 1259 519 
L 2022 519 
Q 2988 519 3436 956 
Q 3884 1394 3884 2338 
Q 3884 3275 3436 3711 
Q 2988 4147 2022 4147 
L 1259 4147 
z
M 628 4666 
L 1925 4666 
Q 3281 4666 3915 4102 
Q 4550 3538 4550 2338 
Q 4550 1131 3912 565 
Q 3275 0 1925 0 
L 628 0 
L 628 4666 
z
" transform="scale(0.015625)"/>
      </defs>
      <use xlink:href="#DejaVuSans-47"/>
      <use xlink:href="#DejaVuSans-44" x="77.490234"/>
      <use xlink:href="#DejaVuSans-50" x="154.492188"/>
     </g>
    </g>
    <g id="line2d_14">
     <path d="M 116.245937 31.149881 
L 127.245937 31.149881 
L 138.245937 31.149881 
" style="fill: none; stroke: #1a1a1a; stroke-opacity: 0.5; stroke-width: 0.5; stroke-linecap: round"/>
    </g>
    <g id="text_15">
     <!-- Others -->
     <g style="fill: #262626" transform="translate(147.045938 34.999881) scale(0.11 -0.11)">
      <defs>
       <path id="DejaVuSans-4f" d="M 2522 4238 
Q 1834 4238 1429 3725 
Q 1025 3213 1025 2328 
Q 1025 1447 1429 934 
Q 1834 422 2522 422 
Q 3209 422 3611 934 
Q 4013 1447 4013 2328 
Q 4013 3213 3611 3725 
Q 3209 4238 2522 4238 
z
M 2522 4750 
Q 3503 4750 4090 4092 
Q 4678 3434 4678 2328 
Q 4678 1225 4090 567 
Q 3503 -91 2522 -91 
Q 1538 -91 948 565 
Q 359 1222 359 2328 
Q 359 3434 948 4092 
Q 1538 4750 2522 4750 
z
" transform="scale(0.015625)"/>
       <path id="DejaVuSans-68" d="M 3513 2113 
L 3513 0 
L 2938 0 
L 2938 2094 
Q 2938 2591 2744 2837 
Q 2550 3084 2163 3084 
Q 1697 3084 1428 2787 
Q 1159 2491 1159 1978 
L 1159 0 
L 581 0 
L 581 4863 
L 1159 4863 
L 1159 2956 
Q 1366 3272 1645 3428 
Q 1925 3584 2291 3584 
Q 2894 3584 3203 3211 
Q 3513 2838 3513 2113 
z
" transform="scale(0.015625)"/>
      </defs>
      <use xlink:href="#DejaVuSans-4f"/>
      <use xlink:href="#DejaVuSans-74" x="78.710938"/>
      <use xlink:href="#DejaVuSans-68" x="117.919922"/>
      <use xlink:href="#DejaVuSans-65" x="181.298828"/>
      <use xlink:href="#DejaVuSans-72" x="242.822266"/>
      <use xlink:href="#DejaVuSans-73" x="283.935547"/>
     </g>
    </g>
   </g>
  </g>
 </g>
 <defs>
  <clipPath id="pbdbc290e14">
   <rect x="29.92" y="36.836" width="526.19" height="200.944"/>
  </clipPath>
 </defs>
</svg>
