<svg xmlns="http://www.w3.org/2000/svg" version="1.1"  style="font-family:Lato, &#x27;Helvetica Neue&#x27;, Helvetica, Arial, &#x27;Liberation Sans&#x27;, sans-serif;font-size:18px;text-rendering:geometricPrecision;-webkit-font-smoothing:antialiased" width="80%" viewBox="0 0 850 506.25"><defs><pattern id="noDataPattern" patternUnits="userSpaceOnUse" width="4" height="4" patternTransform="rotate(-45 2 2)"><path d="M -1,2 l 6,0" stroke="#ccc" stroke-width="0.7"></path></pattern></defs><rect class="background-fill" fill="None" width="850" height="706.25"></rect><g class="HeaderView"><g transform="translate(769, 16) scale(1)"></g></g><g style="pointer-events:none"><g class="LineChart"><defs><clipPath id="boundsClip-3"><rect x="60.14" y="73.25" width="838" height="470.35"></rect></clipPath></defs><rect x="16" y="83.25" width="818" height="450.35" fill="none"></rect><g class="DualAxisView"><g class="HorizontalAxis"><line x1="70.1" y1="513.1" x2="70.1" y2="518.1" stroke="#999" stroke-width="1"></line><line x1="702.6" y1="513.1" x2="702.6" y2="518.1" stroke="#999" stroke-width="1"></line><line x1="192.2" y1="513.1" x2="192.2" y2="518.1" stroke="#999" stroke-width="1"></line><line x1="314.3" y1="513.1" x2="314.3" y2="518.1" stroke="#999" stroke-width="1"></line><line x1="436.4" y1="513.1" x2="436.4" y2="518.1" stroke="#999" stroke-width="1"></line><line x1="558.5" y1="513.1" x2="558.5" y2="518.1" stroke="#999" stroke-width="1"></line><text x="70.14" y="531.6" fill="#5b5b5b" text-anchor="start" font-size="13.5">1500</text><text x="702.61" y="531.6" fill="#5b5b5b" text-anchor="end" font-size="13.5">2018</text><text x="192.2" y="531.6" fill="#5b5b5b" text-anchor="middle" font-size="13.5">1600</text><text x="314.3" y="531.6" fill="#5b5b5b" text-anchor="middle" font-size="13.5">1700</text><text x="436.4" y="531.6" fill="#5b5b5b" text-anchor="middle" font-size="13.5">1800</text><text x="558.5" y="531.6" fill="#5b5b5b" text-anchor="middle" font-size="13.5">1900</text></g><g class="VerticalAxis"><text x="65.14" y="490.7" dy=".32em" text-anchor="end" fill="#5b5b5b" font-size="13.5">$1,000</text><text x="65.14" y="260.4" dy=".32em" text-anchor="end" fill="#5b5b5b" font-size="13.5">$10,000</text><text x="65.14" y="421.3" dy=".32em" text-anchor="end" fill="#5b5b5b" font-size="13.5">$2,000</text><text x="65.14" y="329.7" dy=".32em" text-anchor="end" fill="#5b5b5b" font-size="13.5">$5,000</text><text x="65.14" y="191" dy=".32em" text-anchor="end" fill="#5b5b5b" font-size="13.5">$20,000</text><text x="65.14" y="99.4" dy=".32em" text-anchor="end" fill="#5b5b5b" font-size="13.5">$50,000</text></g><g class="AxisGridLines horizontalLines"><line x1="70.14" y1="513" x2="702.61" y2="513" stroke="#eee" stroke-width="1" stroke-dasharray="3,2"></line><line x1="70.14" y1="501.2" x2="702.61" y2="501.2" stroke="#eee" stroke-width="1" stroke-dasharray="3,2"></line><line x1="70.14" y1="490.7" x2="702.61" y2="490.7" stroke="#ddd" stroke-width="1" stroke-dasharray="3,2"></line><line x1="70.14" y1="421.3" x2="702.61" y2="421.3" stroke="#ddd" stroke-width="1" stroke-dasharray="3,2"></line><line x1="70.14" y1="380.8" x2="702.61" y2="380.8" stroke="#eee" stroke-width="1" stroke-dasharray="3,2"></line><line x1="70.14" y1="352" x2="702.61" y2="352" stroke="#eee" stroke-width="1" stroke-dasharray="3,2"></line><line x1="70.14" y1="329.7" x2="702.61" y2="329.7" stroke="#ddd" stroke-width="1" stroke-dasharray="3,2"></line><line x1="70.14" y1="311.5" x2="702.61" y2="311.5" stroke="#eee" stroke-width="1" stroke-dasharray="3,2"></line><line x1="70.14" y1="296" x2="702.61" y2="296" stroke="#eee" stroke-width="1" stroke-dasharray="3,2"></line><line x1="70.14" y1="282.7" x2="702.61" y2="282.7" stroke="#eee" stroke-width="1" stroke-dasharray="3,2"></line><line x1="70.14" y1="270.9" x2="702.61" y2="270.9" stroke="#eee" stroke-width="1" stroke-dasharray="3,2"></line><line x1="70.14" y1="260.4" x2="702.61" y2="260.4" stroke="#ddd" stroke-width="1" stroke-dasharray="3,2"></line><line x1="70.14" y1="191" x2="702.61" y2="191" stroke="#ddd" stroke-width="1" stroke-dasharray="3,2"></line><line x1="70.14" y1="150.5" x2="702.61" y2="150.5" stroke="#eee" stroke-width="1" stroke-dasharray="3,2"></line><line x1="70.14" y1="121.7" x2="702.61" y2="121.7" stroke="#eee" stroke-width="1" stroke-dasharray="3,2"></line><line x1="70.14" y1="99.4" x2="702.61" y2="99.4" stroke="#ddd" stroke-width="1" stroke-dasharray="3,2"></line></g></g><g clip-path="url(#boundsClip-3)"><g class="LineLabels" style="cursor:default"><g class="legendMark"><g class="indicator"><path d="M706.61,89.3 H720.11 V96 H733.61" stroke="#999" stroke-width="0.5" fill="none"></path></g><rect x="702.61" y="89.25" width="116.405" height="13.5" fill="#fff" opacity="0"></rect><text font-size="13.50" font-weight="400" x="737.6" y="101.0" fill="#18470f"><tspan x="737.61" y="100.995">United States</tspan></text></g><g class="legendMark"><g class="indicator"><path d="M706.61,125.5 H724.61 V114.2 H733.61" stroke="#999" stroke-width="0.5" fill="none"></path></g><rect x="702.61" y="107.45" width="77.12" height="13.5" fill="#fff" opacity="0"></rect><text font-size="13.50" font-weight="400" x="737.6" y="119.2" fill="#2c8465"><tspan x="737.61" y="119.19500000000001">France</tspan></text></g><g class="legendMark"><g class="indicator"><path d="M706.61,126.7 H724.61 V129.7 H733.61" stroke="#999" stroke-width="0.5" fill="none"></path></g><rect x="702.61" y="122.95" width="131.39" height="13.5" fill="#fff" opacity="0"></rect><text font-size="13.50" font-weight="400" x="737.6" y="134.7" fill="#6d3e91"><tspan x="737.61" y="134.695">United Kingdom</tspan></text></g><g class="legendMark"><g class="indicator"><path d="M706.61,136.9 H715.61 V145.2 H733.61" stroke="#999" stroke-width="0.5" fill="none"></path></g><rect x="702.61" y="138.45" width="59.84" height="13.5" fill="#fff" opacity="0"></rect><text font-size="13.50" font-weight="400" x="737.6" y="150.2" fill="#be5915"><tspan x="737.61" y="150.195">Italy</tspan></text></g><g class="legendMark"><g class="indicator"><path d="M706.61,233.3 H720.11 V233.3 H733.61" stroke="#999" stroke-width="0.5" fill="none"></path></g><rect x="702.61" y="226.55" width="70.37" height="13.5" fill="#fff" opacity="0"></rect><text font-size="13.50" font-weight="400" x="737.6" y="238.3" fill="#c15065"><tspan x="737.61" y="238.29500000000002">China</tspan></text></g><g class="legendMark"><g class="indicator"><path d="M706.61,298.8 H720.11 V298.8 H733.61" stroke="#999" stroke-width="0.5" fill="none"></path></g><rect x="702.61" y="292.05" width="64.43" height="13.5" fill="#fff" opacity="0"></rect><text font-size="13.50" font-weight="400" x="737.6" y="303.8" fill="#cf0a66"><tspan x="737.61" y="303.795">India</tspan></text></g></g><g class="Lines"><rect x="70" y="89" width="632" height="424" fill="rgba(255,255,255,0)" opacity="0"></rect><g><path stroke-linecap="round" stroke-linejoin="round" stroke="#ddd" d="M253.3 501.5L338.8 433.6L405.9 402.3L436.4 397.2L437.7 395.4L438.9 393.7L440.1 395.5L441.3 395.6L442.5 393.4L443.8 391.7L445 390.7L446.2 398L447.4 393.1L448.6 390.4L449.9 388.4L451.1 390.1L452.3 389L453.5 387.1L454.8 387.5L456 391.7L457.2 391.8L458.4 391.5L459.6 391.7L460.9 392.3L462.1 390.8L463.3 388L464.5 389.1L465.7 386.4L467 384.2L468.2 383.5L469.4 383.1L470.6 383.1L471.8 386.5L473.1 379.5L474.3 373.5L475.5 370L476.7 366.5L477.9 371.4L479.2 367.7L480.4 366.2L481.6 369.4L482.8 370.3L484.1 365.6L485.3 370.7L486.5 372.7L487.7 373.6L488.9 372L490.2 366.7L491.4 365.2L492.6 364.6L493.8 362L495 359.5L496.3 362.1L497.5 361.7L498.7 357.7L499.9 352.7L501.1 346.1L502.4 345.8L503.6 348L504.8 346L506 348.2L507.3 347.7L508.5 345L509.7 342.4L510.9 344.5L512.1 341.4L513.4 335.2L514.6 331.9L515.8 337.2L517 338L518.2 334.8L519.5 333.4L520.7 330.8L521.9 333.7L523.1 331.3L524.3 329.8L525.6 327.4L526.8 330.4L528 327.6L529.2 328.7L530.5 327.7L531.7 325.8L532.9 316.3L534.1 307.3L535.3 306.3L536.6 302.6L537.8 302.5L539 303.1L540.2 304.6L541.4 303.9L542.7 301.7L543.9 304.3L545.1 300.3L546.3 300.9L547.5 298.8L548.8 291.5L550 298.4L551.2 303.3L552.4 293.8L553.6 297.7L554.9 290.4L556.1 290.1L557.3 283.2L558.5 282.2L559.8 273.5L561 274.5L562.2 271.6L563.4 274.7L564.6 269.6L565.9 260.6L567.1 260.9L568.3 271.2L569.5 262.4L570.7 264.1L572 263L573.2 260.6L574.4 259.3L575.6 269.8L576.8 269.1L578.1 258.2L579.3 262.7L580.5 255.8L581.7 256L583 258.8L584.2 263.7L585.4 260.3L586.6 250.2L587.8 249.7L589.1 249.5L590.3 245.1L591.5 246.1L592.7 246.8L593.9 242.5L595.2 253.6L596.4 261.1L597.6 278L598.8 282.1L600 274.7L601.3 263.6L602.5 254.8L603.7 248.2L604.9 255.2L606.2 249.3L607.4 242.1L608.6 229.9L609.8 220.7L611 213L612.3 207.3L613.5 210.4L614.7 221L615.9 224.5L617.1 221.6L618.4 225.3L619.6 218.2L620.8 212.6L622 210.6L623.2 207.8L624.5 210.2L625.7 205.1L626.9 205L628.1 204.9L629.4 207.6L630.6 202.1L631.8 201.3L633 200.6L634.2 196.3L635.5 193.5L636.7 189.2L637.9 184.3L639.1 179.1L640.3 177.7L641.6 174.1L642.8 172L644 173L645.2 171.2L646.4 167.1L647.7 162.5L648.9 163.7L650.1 165L651.3 160.8L652.5 157.4L653.8 152.9L655 150.7L656.2 151.8L657.4 150.3L658.7 153.1L659.9 150L661.1 143.8L662.3 140.9L663.5 138.4L664.8 135.8L666 132.6L667.2 130.2L668.4 129.6L669.6 131L670.9 128.9L672.1 127.5L673.3 124.7L674.5 123.2L675.7 120.7L677 117.5L678.2 114.3L679.4 110.9L680.6 108L681.9 108L683.1 107.2L684.3 105.2L685.5 102.5L686.7 100.1L688 98.4L689.2 97.6L690.4 98.8L691.6 102.5L692.8 100.9L694.1 100L695.3 98.6L696.5 97.7L697.7 96.1L698.9 94.3L700.2 93.5L701.4 91.7L702.6 89.3" fill="none" stroke-width="1"></path></g><g><path stroke-linecap="round" stroke-linejoin="round" stroke="#ddd" d="M192.2 467.2L253.3 473.3L314.3 475.6L375.4 484.1L437.7 487.4L449.9 492.4L462.1 497.2L474.3 496.3L486.5 496.4L497.5 496.1L498.7 496.1L510.9 501.6L521.9 506.9L539 503.7L540.2 500.8L541.4 504.1L542.7 499.9L543.9 499.2L545.1 502.2L546.3 497.8L547.5 507.7L548.8 500.1L550 497.8L551.2 496.4L552.4 499L553.6 506.9L554.9 490.3L556.1 490.3L557.3 498.5L558.5 495.3L559.8 493.8L561 486.4L562.2 485.6L563.4 485.8L564.6 488.2L565.9 486.1L567.1 492.8L568.3 492L569.5 479.7L570.7 480.1L572 481L573.2 481.3L574.4 483.6L575.6 478.4L576.8 481L578.1 478.3L579.3 480.1L580.5 493.9L581.7 481.1L583 489.5L584.2 482.8L585.4 479.6L586.6 483.9L587.8 480.1L589.1 479.9L590.3 477.8L591.5 478.9L592.7 478.9L593.9 475.8L595.2 476.1L596.4 478.2L597.6 478.4L598.8 479.7L600 480.1L601.3 482.6L602.5 480.1L603.7 483.1L604.9 484.4L606.2 483.5L607.4 481.8L608.6 481L609.8 482.8L611 479.9L612.3 482.1L613.5 485L614.7 491.6L615.9 492.2L617.1 492.4L618.4 491.2L619.6 492L620.8 491.4L622 490.4L623.2 486.1L624.5 483.8L625.7 483.1L626.9 479.6L628.1 482.6L629.4 477.5L630.6 477.3L631.8 472.4L633 471.8L634.2 471.8L635.5 469L636.7 463.7L637.9 470L639.1 471.2L640.3 465.5L641.6 465.2L642.8 460.9L644 458.2L645.2 459.6L646.4 462.2L647.7 459.9L648.9 461.1L650.1 454.9L651.3 455.8L652.5 450.5L653.8 447.5L655 455.1L656.2 450.4L657.4 446.4L658.7 445.5L659.9 439.8L661.1 438.2L662.3 436.4L663.5 434.4L664.8 432.3L666 424.5L667.2 420.1L668.4 417.1L669.6 418.3L670.9 415.7L672.1 412.9L673.3 409.3L674.5 404.9L675.7 400L677 398.5L678.2 394.6L679.4 391L680.6 389.4L681.9 386.3L683.1 385.2L684.3 379.6L685.5 373.9L686.7 368.4L688 361.7L689.2 355.3L690.4 351.2L691.6 345.5L692.8 339.7L694.1 334.4L695.3 331.1L696.5 326.3L697.7 320.9L698.9 314.9L700.2 309.4L701.4 304.2L702.6 298.8" fill="none" stroke-width="1"></path></g><g><path stroke-linecap="round" stroke-linejoin="round" stroke="#ddd" d="M70.1 437.8L71.4 441.6L72.6 438.2L73.8 434.3L75 434.2L76.2 433.4L77.5 433.2L78.7 435.3L79.9 434.1L81.1 429.8L82.3 433.7L83.6 431.9L84.8 436.7L86 432.7L87.2 433.2L88.5 430.8L89.7 431.9L90.9 431.9L92.1 431.6L93.3 432.8L94.6 434.4L95.8 432.4L97 430.9L98.2 429.3L99.4 428.3L100.7 429.2L101.9 429L103.1 436.8L104.3 436.3L105.5 435.2L106.8 434.4L108 438.2L109.2 435.2L110.4 436.1L111.7 432.1L112.9 439.7L114.1 441.2L115.3 434.2L116.5 440.1L117.8 433L119 436.8L120.2 440L121.4 436.9L122.6 440.6L123.9 435.6L125.1 438.8L126.3 437.3L127.5 429.6L128.7 434.4L130 438.9L131.2 440.3L132.4 443.4L133.6 448.3L134.9 432.9L136.1 442.7L137.3 443.7L138.5 464.8L139.7 455.7L141 429.5L142.2 435L143.4 434.5L144.6 433.1L145.8 434L147.1 425.8L148.3 429.5L149.5 429.7L150.7 418.6L151.9 425.4L153.2 425.9L154.4 426.7L155.6 435.4L156.8 435.4L158.1 439.1L159.3 425.7L160.5 438.2L161.7 427.7L162.9 424.9L164.2 441.8L165.4 428.9L166.6 430.8L167.8 436.6L169 440.3L170.3 451.7L171.5 439.9L172.7 443.8L173.9 457.3L175.1 460.2L176.4 450L177.6 438.2L178.8 451.9L180 446.3L181.2 445.7L182.5 438.1L183.7 432.3L184.9 453.2L186.1 453.3L187.4 458.5L188.6 463.2L189.8 445.6L191 432.5L192.2 438.1L193.5 439.3L194.7 434.6L195.9 429.2L197.1 423L198.3 434.6L199.6 430.2L200.8 440L202 445.5L203.2 431.2L204.4 425.5L205.7 434.3L206.9 439.1L208.1 442.9L209.3 446.5L210.6 438.7L211.8 444.5L213 434.7L214.2 435.3L215.4 444.5L216.7 429.6L217.9 430.1L219.1 444.8L220.3 445.7L221.5 432.9L222.8 432L224 435.8L225.2 435.7L226.4 424L227.6 454.9L228.9 455.9L230.1 453.4L231.3 441.8L232.5 450L233.8 448.8L235 445.5L236.2 448.4L237.4 451.7L238.6 442.2L239.9 441.2L241.1 438.6L242.3 450.2L243.5 441.5L244.7 436.1L246 435L247.2 449.4L248.4 448.5L249.6 449.1L250.8 447.8L252.1 449.6L253.3 453.8L254.5 448.3L255.7 436.4L257 425.4L258.2 426.3L259.4 422.2L260.6 429.9L261.8 436L263.1 437.5L264.3 454.1L265.5 445L266.7 443L267.9 439.7L269.2 423.4L270.4 430.3L271.6 426.1L272.8 414.8L274 412L275.3 424.4L276.5 421.8L277.7 424.7L278.9 427.9L280.1 428.6L281.4 426.6L282.6 431.5L283.8 429L285 412.2L286.3 419.9L287.5 416.3L288.7 423.2L289.9 411.4L291.1 421.1L292.4 414.1L293.6 406.4L294.8 424.1L296 416L297.2 423.9L298.5 413.2L299.7 405.9L300.9 410.3L302.1 403.7L303.3 403.1L304.6 395.3L305.8 411.9L307 394.5L308.2 398.9L309.5 403.4L310.7 404.7L311.9 402.4L313.1 406.3L314.3 402.6L315.6 394.6L316.8 398L318 405.4L319.2 388.5L320.4 393.9L321.7 410.9L322.9 399.6L324.1 393.7L325.3 408.3L326.5 418.1L327.8 409.3L329 409.2L330.2 413.8L331.4 404.6L332.7 407.6L333.9 404.5L335.1 399.7L336.3 394.9L337.5 397.3L338.8 390.8L340 394.7L341.2 393.7L342.4 396.5L343.6 397.9L344.9 395.7L346.1 399.7L347.3 400.8L348.5 396.9L349.7 401L351 397.5L352.2 399.1L353.4 393L354.6 391.4L355.9 392.7L357.1 396L358.3 389.7L359.5 395.8L360.7 394.4L362 395.7L363.2 398L364.4 395.3L365.6 391.9L366.8 394.3L368.1 396.4L369.3 396L370.5 393.5L371.7 389.5L372.9 390.8L374.2 392L375.4 391.2L376.6 394.1L377.8 389.9L379 389.7L380.3 393.3L381.5 390.9L382.7 393.4L383.9 388.3L385.2 387.1L386.4 385.9L387.6 383.7L388.8 380.4L390 383.6L391.3 383.7L392.5 384.2L393.7 385.8L394.9 384.9L396.1 384.5L397.4 383.8L398.6 378.9L399.8 382.4L401 381.1L402.2 384.5L403.5 383.5L404.7 386.5L405.9 384.3L407.1 382.1L408.4 380.2L409.6 381.9L410.8 383.1L412 379.2L413.2 377.4L414.5 379.2L415.7 379.9L416.9 380.5L418.1 382.1L419.3 381.4L420.6 384.2L421.8 385.5L423 384.6L424.2 378.4L425.4 379.3L426.7 376.4L427.9 379.1L429.1 383.3L430.3 374.1L431.6 373.3L432.8 375.4L434 375.5L435.2 374.1L436.4 369.9L437.7 369.7L438.9 369.4L440.1 372.7L441.3 374.2L442.5 369.8L443.8 371.6L445 366.7L446.2 372.8L447.4 371L448.6 366L449.9 368.3L451.1 374.1L452.3 370.4L453.5 374.2L454.8 365.7L456 372.8L457.2 372.7L458.4 374.3L459.6 377.4L460.9 371.1L462.1 371L463.3 370.8L464.5 369.5L465.7 365.6L467 364.8L468.2 371.5L469.4 365.4L470.6 366.5L471.8 367L473.1 363.9L474.3 364.1L475.5 362.2L476.7 362.6L477.9 361.5L479.2 355.5L480.4 353.6L481.6 355.6L482.8 352.9L484.1 355L485.3 351.6L486.5 354.7L487.7 356.9L488.9 353.3L490.2 346.1L491.4 342.8L492.6 344L493.8 346.3L495 343.4L496.3 342L497.5 344L498.7 340.7L499.9 337.5L501.1 335.2L502.4 331.5L503.6 334.9L504.8 329.4L506 329.3L507.3 332.1L508.5 329.1L509.7 328L510.9 329.2L512.1 334.5L513.4 326.4L514.6 324.7L515.8 323.2L517 321L518.2 321.5L519.5 317.7L520.7 317.7L521.9 314.3L523.1 314.9L524.3 315.4L525.6 314.1L526.8 313.6L528 312.3L529.2 312.5L530.5 312.7L531.7 313.5L532.9 315.1L534.1 311.5L535.3 309L536.6 307.1L537.8 307.1L539 307.8L540.2 309.3L541.4 308.7L542.7 305.7L543.9 302.1L545.1 297.8L546.3 298.3L547.5 299.2L548.8 302.6L550 303.7L551.2 298.2L552.4 296.1L553.6 293.1L554.9 292.8L556.1 289.1L557.3 286.1L558.5 287.9L559.8 288.9L561 287.3L562.2 289.4L563.4 289.7L564.6 287.8L565.9 285.4L567.1 284.5L568.3 289.7L569.5 288.4L570.7 286.3L572 284.3L573.2 283.3L574.4 280.1L575.6 281.1L576.8 275L578.1 274.3L579.3 274.7L580.5 275.1L581.7 287.7L583 295.8L584.2 299.1L585.4 290.6L586.6 288L587.8 284.6L589.1 280.2L590.3 284.3L591.5 276.9L592.7 276.2L593.9 273.5L595.2 274.6L596.4 280.3L597.6 280.1L598.8 277.7L600 271.6L601.3 268.2L602.5 264.2L603.7 261.3L604.9 260.5L606.2 260.5L607.4 251.5L608.6 242.7L609.8 240.7L611 239.3L612.3 243.8L613.5 248.6L614.7 253.1L615.9 255.2L617.1 253.1L618.4 250L619.6 250.3L620.8 247.7L622 248.1L623.2 244.6L624.5 240.9L625.7 237.7L626.9 236.9L628.1 235.8L629.4 236.5L630.6 233.1L631.8 228.3L633 225.9L634.2 225.8L635.5 222.6L636.7 218.1L637.9 216.2L639.1 214.9L640.3 213.2L641.6 209.7L642.8 208.4L644 206.3L645.2 204.7L646.4 201.6L647.7 195.3L648.9 196.7L650.1 196.8L651.3 194.5L652.5 192.3L653.8 188.8L655 186.2L656.2 188L657.4 189.5L658.7 187.8L659.9 184.4L661.1 182.1L662.3 178.9L663.5 174.9L664.8 170.6L666 166L667.2 164.2L668.4 164.1L669.6 165.6L670.9 165.6L672.1 163.5L673.3 160L674.5 157.9L675.7 155.7L677 153L678.2 150.2L679.4 147.4L680.6 144.2L681.9 142L683.1 140.1L684.3 137.3L685.5 135.4L686.7 133.3L688 131.7L689.2 130L690.4 131.5L691.6 136.8L692.8 135.8L694.1 135.1L695.3 134.5L696.5 133.3L697.7 131L698.9 129.7L700.2 128.6L701.4 127.4L702.6 126.7" fill="none" stroke-width="1"></path></g><g><path stroke-linecap="round" stroke-linejoin="round" stroke="#ddd" d="M70.1 391.2L71.4 395.2L72.6 396.7L73.8 395.8L75 401.7L76.2 393.8L77.5 384.6L78.7 385.4L79.9 381.4L81.1 380.9L82.3 378.4L83.6 385.1L84.8 383.3L86 380.4L87.2 383.3L88.5 385.9L89.7 384.3L90.9 378.2L92.1 377.4L93.3 380.4L94.6 384.6L95.8 392.6L97 393.8L98.2 392L99.4 380.4L100.7 380.9L101.9 390.9L103.1 399.5L104.3 400.7L105.5 395L106.8 400.4L108 397.3L109.2 397.6L110.4 398.9L111.7 385.4L112.9 382L114.1 384.9L115.3 383L116.5 392.6L117.8 401.3L119 397L120.2 386.5L121.4 385.4L122.6 390.1L123.9 389.2L125.1 391.2L126.3 385.1L127.5 396.7L128.7 396.4L130 391.5L131.2 397.9L132.4 394.4L133.6 386.7L134.9 390.9L136.1 402.3L137.3 404.2L138.5 399.8L139.7 402.9L141 400.7L142.2 402.6L143.4 398.2L144.6 397.6L145.8 404.5L147.1 393.8L148.3 398.9L149.5 397.6L150.7 396.1L151.9 390.1L153.2 395.5L154.4 402.3L155.6 396.1L156.8 398.6L158.1 397.3L159.3 393.8L160.5 394.4L161.7 397.3L162.9 394.1L164.2 395.5L165.4 397.3L166.6 401.3L167.8 400.7L169 398.2L170.3 397.9L171.5 396.1L172.7 397.9L173.9 399.8L175.1 399.2L176.4 397.6L177.6 397.3L178.8 399.8L180 403.3L181.2 406.2L182.5 405.2L183.7 400.4L184.9 402.9L186.1 403.3L187.4 408.5L188.6 406.2L189.8 403.3L191 399.2L192.2 402.9L193.5 407.2L194.7 406.5L195.9 402L197.1 405.2L198.3 404.2L199.6 407.5L200.8 406.8L202 403.6L203.2 399.2L204.4 396.4L205.7 397.6L206.9 399.2L208.1 399.8L209.3 398.6L210.6 400.4L211.8 396.7L213 398.6L214.2 402L215.4 401L216.7 398.2L217.9 394.1L219.1 395.5L220.3 395.8L221.5 395L222.8 391.8L224 393.5L225.2 397.3L226.4 401.3L227.6 402.9L228.9 396.7L230.1 391.2L231.3 385.7L232.5 385.9L233.8 384.3L235 395.2L236.2 392.9L237.4 389.2L238.6 384.9L239.9 384.9L241.1 382.7L242.3 380.7L243.5 387L244.7 392.9L246 392.6L247.2 389.2L248.4 388.1L249.6 392.9L250.8 397.3L252.1 399.5L253.3 400.4L254.5 390.6L255.7 389.8L257 390.9L258.2 389.8L259.4 389.5L260.6 392.3L261.8 395.2L263.1 396.1L264.3 396.1L265.5 394.4L266.7 392.3L267.9 391.5L269.2 391.8L270.4 392L271.6 390.9L272.8 388.1L274 387.8L275.3 388.9L276.5 392.3L277.7 393.8L278.9 392.3L280.1 391.5L281.4 390.9L282.6 391.8L283.8 397.3L285 396.4L286.3 400.1L287.5 400.1L288.7 397.9L289.9 397.6L291.1 395L292.4 393.8L293.6 392.9L294.8 396.1L296 400.7L297.2 397.9L298.5 392.9L299.7 393.8L300.9 394.1L302.1 400.1L303.3 399.8L304.6 397.3L305.8 398.6L307 402.3L308.2 403.6L309.5 403.3L310.7 402L311.9 398.9L313.1 397.9L314.3 395L315.6 395.8L316.8 396.4L318 395.2L319.2 394.7L320.4 394.4L321.7 395.5L322.9 392.6L324.1 392.9L325.3 398.6L326.5 392.6L327.8 387.6L329 386.5L330.2 386.5L331.4 385.1L332.7 387L333.9 387.3L335.1 386.5L336.3 387.3L337.5 384.6L338.8 379.7L340 380.9L341.2 381.7L342.4 378.2L343.6 375.9L344.9 380.4L346.1 382.5L347.3 380.4L348.5 379.9L349.7 379.7L351 381.4L352.2 384.9L353.4 383.8L354.6 390.3L355.9 394.1L357.1 392.6L358.3 390.3L359.5 387L360.7 386.2L362 385.9L363.2 388.7L364.4 390.1L365.6 387.6L366.8 388.4L368.1 388.1L369.3 388.7L370.5 392.3L371.7 394.1L372.9 393.2L374.2 390.3L375.4 391.2L376.6 391.5L377.8 389.2L379 384.3L380.3 384.3L381.5 386.7L382.7 388.1L383.9 388.1L385.2 387.3L386.4 387.6L387.6 385.7L388.8 384.6L390 384.1L391.3 385.9L392.5 388.1L393.7 390.1L394.9 393.8L396.1 392L397.4 390.3L398.6 389.2L399.8 394.1L401 395L402.2 397.9L403.5 397.3L404.7 398.9L405.9 400.1L407.1 395.5L408.4 398.6L409.6 401L410.8 396.7L412 392.9L413.2 395.5L414.5 397L415.7 398.2L416.9 398.6L418.1 397.3L419.3 396.1L420.6 398.9L421.8 396.7L423 397L424.2 402L425.4 400.1L426.7 399.5L427.9 402.6L429.1 401.3L430.3 398.6L431.6 398.2L432.8 397L434 395L435.2 397.9L436.4 402.9L437.7 404.2L438.9 401L440.1 398.2L441.3 394.1L442.5 397.3L443.8 395L445 394.7L446.2 389.2L447.4 388.7L448.6 396.7L449.9 400.1L451.1 397.9L452.3 395.2L453.5 394.1L454.8 398.6L456 400.1L457.2 399.2L458.4 391.8L459.6 392.6L460.9 392.6L462.1 394.4L463.3 393.2L464.5 392.3L465.7 389.8L467 391.2L468.2 388.4L469.4 390.1L470.6 391.2L471.8 391.5L473.1 392.9L474.3 389.5L475.5 388.7L476.7 388.1L477.9 387.3L479.2 384.6L480.4 392L481.6 394.7L482.8 393.2L484.1 394.1L485.3 390.9L486.5 388.9L487.7 388.1L488.9 393.2L490.2 393.2L491.4 392.3L492.6 393.2L493.8 395.5L495 392.9L496.3 393.5L497.5 394.7L498.7 394.7L499.9 396.1L501.1 398.2L502.4 405.2L503.6 404.2L504.8 403.9L506 396.1L507.3 392.3L508.5 395.5L509.7 396.1L510.9 396.7L512.1 393.8L513.4 391.8L514.6 393.5L515.8 388.4L517 395.5L518.2 394.7L519.5 394.1L520.7 391.5L521.9 386.7L523.1 387.3L524.3 395.4L525.6 395.8L526.8 390.8L528 390.3L529.2 392.7L530.5 392.1L531.7 389.7L532.9 389.4L534.1 387.8L535.3 384.9L536.6 383.7L537.8 382.7L539 384.2L540.2 382.8L541.4 380.6L542.7 378.1L543.9 378.6L545.1 381.7L546.3 381.6L547.5 380.3L548.8 380.2L550 378.7L551.2 378.1L552.4 377.3L553.6 375.8L554.9 375.6L556.1 376.1L557.3 374.9L558.5 372.3L559.8 370.7L561 369.1L562.2 368.2L563.4 366.5L564.6 364.4L565.9 361.1L567.1 359.4L568.3 357.3L569.5 356.5L570.7 356.4L572 355.3L573.2 355.2L574.4 350.6L575.6 356.2L576.8 361.4L578.1 353.5L579.3 353.1L580.5 355.7L581.7 359.8L583 357.4L584.2 360.9L585.4 353.8L586.6 346L587.8 344.2L589.1 338.5L590.3 338.5L591.5 341.3L592.7 336L593.9 331.9L595.2 337.4L596.4 339.4L597.6 338L598.8 339.9L600 341L601.3 336.5L602.5 340.9L603.7 332.1L604.9 330.1L606.2 324.9L607.4 327.7L608.6 330.3L609.8 336.7L611 353.7L612.3 375.5L613.5 386.6L614.7 357L615.9 340.3L617.1 333.5L618.4 326L619.6 318.7L620.8 312.2L622 305.5L623.2 299.1L624.5 294.7L625.7 289.8L626.9 285.9L628.1 280.7L629.4 276.1L630.6 270.8L631.8 266.2L633 258.8L634.2 251.9L635.5 245.7L636.7 242.7L637.9 241.2L639.1 236.8L640.3 230.5L641.6 223.1L642.8 218.2L644 216.6L645.2 215.4L646.4 213.1L647.7 207.6L648.9 203.8L650.1 206.6L651.3 200.8L652.5 198.3L653.8 195L655 189.7L656.2 186.3L657.4 186L658.7 185.6L659.9 184.5L661.1 182.1L662.3 179.4L663.5 176.6L664.8 173.5L666 169.7L667.2 166.9L668.4 164.8L669.6 162.6L670.9 161.2L672.1 161.4L673.3 158.6L674.5 155L675.7 153.1L677 150.6L678.2 148.3L679.4 146.1L680.6 141.8L681.9 139.4L683.1 138.6L684.3 138.2L685.5 136.6L686.7 135.4L688 133L689.2 131.4L690.4 132.4L691.6 137.8L692.8 135.7L694.1 134.6L695.3 137.8L696.5 140.7L697.7 141.5L698.9 140.6L700.2 139.7L701.4 137.9L702.6 136.9" fill="none" stroke-width="1"></path></g><g><path stroke-linecap="round" stroke-linejoin="round" stroke="#ddd" d="M70.1 437.9L71.4 437L72.6 437.9L73.8 438.9L75 438.9L76.2 438.9L77.5 440L78.7 440L79.9 438.9L81.1 440L82.3 440L83.6 440L84.8 440L86 441L87.2 441L88.5 441L89.7 441L90.9 442L92.1 441L93.3 441L94.6 441L95.8 441L97 441L98.2 441L99.4 441L100.7 441L101.9 441L103.1 441L104.3 441L105.5 441L106.8 441L108 441L109.2 441L110.4 441L111.7 441L112.9 441L114.1 441L115.3 441L116.5 443L117.8 444.1L119 444.1L120.2 445.2L121.4 445.2L122.6 445.2L123.9 445.2L125.1 446.2L126.3 446.2L127.5 446.2L128.7 447.4L130 449.6L131.2 450.8L132.4 451.9L133.6 453L134.9 453L136.1 453L137.3 454.3L138.5 454.3L139.7 454.3L141 454.3L142.2 454.3L143.4 454.3L144.6 453L145.8 453L147.1 451.9L148.3 451.9L149.5 451.9L150.7 451.9L151.9 453L153.2 453L154.4 451.9L155.6 450.8L156.8 449.6L158.1 448.5L159.3 449.6L160.5 447.4L161.7 447.4L162.9 447.4L164.2 447.4L165.4 447.4L166.6 448.5L167.8 448.5L169 448.5L170.3 447.4L171.5 448.5L172.7 446.2L173.9 446.2L175.1 446.2L176.4 446.2L177.6 445.2L178.8 446.2L180 446.2L181.2 445.2L182.5 445.2L183.7 444.1L184.9 442L186.1 441L187.4 442L188.6 442L189.8 442L191 443L192.2 443L193.5 442L194.7 442L195.9 442L197.1 443L198.3 443L199.6 442L200.8 442L202 442L203.2 442L204.4 442L205.7 441L206.9 441L208.1 441L209.3 441L210.6 441L211.8 441L213 441L214.2 441L215.4 441L216.7 441L217.9 441L219.1 441L220.3 441L221.5 441L222.8 441L224 441L225.2 441L226.4 441L227.6 441L228.9 441L230.1 441L231.3 441L232.5 440L233.8 440L235 440L236.2 440L237.4 440L238.6 440L239.9 440L241.1 440L242.3 440L243.5 437.9L244.7 436L246 435L247.2 435L248.4 435L249.6 437L250.8 438.9L252.1 440L253.3 440L254.5 440L255.7 440L257 440L258.2 440L259.4 440L260.6 438.9L261.8 438.9L263.1 438.9L264.3 438.9L265.5 438.9L266.7 438.9L267.9 437.9L269.2 437L270.4 437L271.6 436L272.8 436L274 436L275.3 435L276.5 435L277.7 435L278.9 435L280.1 435L281.4 435L282.6 435L283.8 435L285 435L286.3 435L287.5 436L288.7 437L289.9 437.9L291.1 437.9L292.4 437.9L293.6 437.9L294.8 437L296 437L297.2 437L298.5 437L299.7 437L300.9 437L302.1 437L303.3 437L304.6 437L305.8 437L307 437.9L308.2 437.9L309.5 437.9L310.7 438.9L311.9 438.9L313.1 438.9L314.3 437.9L315.6 443L316.8 443L318 443L319.2 443L320.4 444.1L321.7 443L322.9 443L324.1 443L325.3 442L326.5 441L327.8 441L329 440L330.2 440L331.4 440L332.7 440L333.9 440L335.1 438.9L336.3 437.9L337.5 437L338.8 436L340 435L341.2 435L342.4 436L343.6 437L344.9 437L346.1 437L347.3 437L348.5 437L349.7 436L351 436L352.2 436L353.4 436L354.6 436L355.9 436L357.1 437L358.3 437L359.5 437.9L360.7 438.9L362 438.9L363.2 440L364.4 440L365.6 440L366.8 440L368.1 440L369.3 438.9L370.5 438.9L371.7 438.9L372.9 438.9L374.2 438.9L375.4 438.9L376.6 440L377.8 440L379 440L380.3 440L381.5 440L382.7 440L383.9 441L385.2 441L386.4 441L387.6 441L388.8 440L390 438.9L391.3 438.9L392.5 437.9L393.7 437L394.9 437L396.1 437L397.4 437.9L398.6 437.9L399.8 437.9L401 437.9L402.2 437.9L403.5 437L404.7 437L405.9 437L407.1 436L408.4 436L409.6 437L410.8 437L412 437L413.2 436L414.5 436L415.7 433L416.9 432.1L418.1 433L419.3 434.1L420.6 428.4L421.8 431.2L423 433L460.9 431.4L462.1 423.7L463.3 427.8L464.5 424.7L465.7 422L467 426.6L468.2 423.9L469.4 426L470.6 426.6L471.8 424.1L473.1 426.6L474.3 425.1L475.5 416.9L476.7 418.7L477.9 418.6L479.2 415.3L480.4 416.9L481.6 415.6L482.8 411.3L484.1 415L485.3 408.4L486.5 406.4L487.7 409.1L488.9 404.4L490.2 401.3L491.4 404.8L492.6 404.9L493.8 394.9L495 401.6L496.3 398.8L497.5 397.2L498.7 399.1L499.9 393.1L501.1 398.4L502.4 394.1L503.6 396L504.8 391.8L506 386.4L507.3 379.8L508.5 386.7L509.7 380.2L510.9 387L512.1 379.1L513.4 376.1L514.6 375.3L515.8 378.6L517 378L518.2 384.5L519.5 375.6L520.7 374.4L521.9 381.1L523.1 379.9L524.3 370.9L525.6 378.7L526.8 367.1L528 364.3L529.2 373.3L530.5 368.6L531.7 370.2L532.9 377.1L534.1 368.9L535.3 365.4L536.6 361.2L537.8 361.2L539 362.8L540.2 364.8L541.4 363.5L542.7 363L543.9 362.1L545.1 359.8L546.3 357.5L547.5 355.1L548.8 352.7L550 351L551.2 347.5L552.4 349.7L553.6 345.2L554.9 347L556.1 342.5L557.3 337.2L558.5 338.4L559.8 340.1L561 342L562.2 339.9L563.4 339.4L564.6 337.7L565.9 336.1L567.1 331.8L568.3 332.7L569.5 328.7L570.7 335.3L572 326.1L573.2 318.3L574.4 319.2L575.6 326.6L576.8 326.2L578.1 319.8L579.3 334.9L580.5 356.6L581.7 340.6L583 326.8L584.2 331.7L585.4 315.6L586.6 311.7L587.8 301L589.1 301.3L590.3 299.3L591.5 301.6L592.7 295.1L593.9 289L595.2 292.9L596.4 299.7L597.6 306.4L598.8 299.6L600 300.7L601.3 303.2L602.5 299.4L603.7 293.9L604.9 294.3L606.2 287.3L607.4 304.3L608.6 324.4L609.8 334.8L611 338.9L612.3 355.5L613.5 349.5L614.7 309.1L615.9 302L617.1 296L618.4 284.1L619.6 279.4L620.8 274.2L622 272.4L623.2 270.2L624.5 266.3L625.7 261.6L626.9 257.6L628.1 252.9L629.4 251.5L630.6 249.7L631.8 243.9L633 239.6L634.2 235.2L635.5 231.6L636.7 226.3L637.9 222.4L639.1 218.4L640.3 214.7L641.6 211.1L642.8 205.2L644 200.5L645.2 196.8L646.4 193.3L647.7 188.9L648.9 186.6L650.1 187.8L651.3 184L652.5 180.7L653.8 178.4L655 175.6L656.2 174.7L657.4 174.2L658.7 172.3L659.9 171.6L661.1 170.7L662.3 169.7L663.5 167.8L664.8 165.7L666 161.9L667.2 158.9L668.4 156.9L669.6 156.3L670.9 155.2L672.1 156.2L673.3 154.2L674.5 152.4L675.7 151.4L677 149.3L678.2 146.2L679.4 143.1L680.6 139.7L681.9 138.2L683.1 137.5L684.3 137.1L685.5 134.8L686.7 133.7L688 131.8L689.2 129.9L690.4 130.2L691.6 133.5L692.8 132L694.1 130.3L695.3 130.7L696.5 130.5L697.7 130.8L698.9 130L700.2 129.2L701.4 127.1L702.6 125.5" fill="none" stroke-width="1"></path></g><g><path stroke-linecap="round" stroke-linejoin="round" stroke="#ddd" d="M70.1 471.8L82.3 466.4L94.6 475.3L106.8 473.5L119 473L131.2 472.8L143.4 472.4L155.6 469.3L167.8 471L180 471L192.2 471L204.4 465.8L216.7 467.4L266.7 462.1L296 466L302.1 456.1L314.3 447.3L326.5 456.6L338.8 463.5L343.6 475L351 469.6L363.2 476L375.4 484.7L387.6 488.5L394.9 491.6L399.8 490.9L412 492.6L424.2 495.3L436.4 498.3L448.6 501.1L460.9 503.2L473.1 507.4L485.3 507L497.5 506L521.9 496.3L542.7 499.9L546.3 494.3L558.5 493.5L572 500.6L574.4 492.2L593.9 490.4L595.2 489.5L596.4 489.2L597.6 486.8L598.8 498.7L600 497.2L601.3 490L602.5 484.4L603.7 487.3L604.9 490.4L619.6 513.1L620.8 495.8L622 486.1L623.2 476.1L624.5 485.9L625.7 479.4L626.9 473.3L628.1 472.8L629.4 474.7L630.6 479.6L631.8 485.1L633 504.1L634.2 498.3L635.5 487.3L636.7 476.5L637.9 468.1L639.1 467.5L640.3 469.4L641.6 474.3L642.8 467.2L644 457.1L645.2 453.8L646.4 454.8L647.7 449.2L648.9 448.8L650.1 444L651.3 448.8L652.5 444.7L653.8 435L655 428.6L656.2 424.9L657.4 423.2L658.7 415.1L659.9 410.6L661.1 401.3L662.3 394.4L663.5 389.6L664.8 383.1L666 379.3L667.2 380L668.4 381.4L669.6 379.1L670.9 373.5L672.1 365.2L673.3 359L674.5 352L675.7 346.7L677 344.5L678.2 344.5L679.4 341L680.6 335.2L681.9 329.8L683.1 323L684.3 317.5L685.5 310.3L686.7 301.5L688 292.2L689.2 284L690.4 280.3L691.6 273.9L692.8 263.8L694.1 258.2L695.3 253.8L696.5 247.9L697.7 242.6L698.9 240.1L700.2 237.5L701.4 236.2L702.6 233.3" fill="none" stroke-width="1"></path></g><g><path fill="none" stroke-linecap="butt" stroke-linejoin="round" stroke="#fff" stroke-width="2.5" d="M253.3 501.5L338.8 433.6L405.9 402.3L436.4 397.2L437.7 395.4L438.9 393.7L440.1 395.5L441.3 395.6L442.5 393.4L443.8 391.7L445 390.7L446.2 398L447.4 393.1L448.6 390.4L449.9 388.4L451.1 390.1L452.3 389L453.5 387.1L454.8 387.5L456 391.7L457.2 391.8L458.4 391.5L459.6 391.7L460.9 392.3L462.1 390.8L463.3 388L464.5 389.1L465.7 386.4L467 384.2L468.2 383.5L469.4 383.1L470.6 383.1L471.8 386.5L473.1 379.5L474.3 373.5L475.5 370L476.7 366.5L477.9 371.4L479.2 367.7L480.4 366.2L481.6 369.4L482.8 370.3L484.1 365.6L485.3 370.7L486.5 372.7L487.7 373.6L488.9 372L490.2 366.7L491.4 365.2L492.6 364.6L493.8 362L495 359.5L496.3 362.1L497.5 361.7L498.7 357.7L499.9 352.7L501.1 346.1L502.4 345.8L503.6 348L504.8 346L506 348.2L507.3 347.7L508.5 345L509.7 342.4L510.9 344.5L512.1 341.4L513.4 335.2L514.6 331.9L515.8 337.2L517 338L518.2 334.8L519.5 333.4L520.7 330.8L521.9 333.7L523.1 331.3L524.3 329.8L525.6 327.4L526.8 330.4L528 327.6L529.2 328.7L530.5 327.7L531.7 325.8L532.9 316.3L534.1 307.3L535.3 306.3L536.6 302.6L537.8 302.5L539 303.1L540.2 304.6L541.4 303.9L542.7 301.7L543.9 304.3L545.1 300.3L546.3 300.9L547.5 298.8L548.8 291.5L550 298.4L551.2 303.3L552.4 293.8L553.6 297.7L554.9 290.4L556.1 290.1L557.3 283.2L558.5 282.2L559.8 273.5L561 274.5L562.2 271.6L563.4 274.7L564.6 269.6L565.9 260.6L567.1 260.9L568.3 271.2L569.5 262.4L570.7 264.1L572 263L573.2 260.6L574.4 259.3L575.6 269.8L576.8 269.1L578.1 258.2L579.3 262.7L580.5 255.8L581.7 256L583 258.8L584.2 263.7L585.4 260.3L586.6 250.2L587.8 249.7L589.1 249.5L590.3 245.1L591.5 246.1L592.7 246.8L593.9 242.5L595.2 253.6L596.4 261.1L597.6 278L598.8 282.1L600 274.7L601.3 263.6L602.5 254.8L603.7 248.2L604.9 255.2L606.2 249.3L607.4 242.1L608.6 229.9L609.8 220.7L611 213L612.3 207.3L613.5 210.4L614.7 221L615.9 224.5L617.1 221.6L618.4 225.3L619.6 218.2L620.8 212.6L622 210.6L623.2 207.8L624.5 210.2L625.7 205.1L626.9 205L628.1 204.9L629.4 207.6L630.6 202.1L631.8 201.3L633 200.6L634.2 196.3L635.5 193.5L636.7 189.2L637.9 184.3L639.1 179.1L640.3 177.7L641.6 174.1L642.8 172L644 173L645.2 171.2L646.4 167.1L647.7 162.5L648.9 163.7L650.1 165L651.3 160.8L652.5 157.4L653.8 152.9L655 150.7L656.2 151.8L657.4 150.3L658.7 153.1L659.9 150L661.1 143.8L662.3 140.9L663.5 138.4L664.8 135.8L666 132.6L667.2 130.2L668.4 129.6L669.6 131L670.9 128.9L672.1 127.5L673.3 124.7L674.5 123.2L675.7 120.7L677 117.5L678.2 114.3L679.4 110.9L680.6 108L681.9 108L683.1 107.2L684.3 105.2L685.5 102.5L686.7 100.1L688 98.4L689.2 97.6L690.4 98.8L691.6 102.5L692.8 100.9L694.1 100L695.3 98.6L696.5 97.7L697.7 96.1L698.9 94.3L700.2 93.5L701.4 91.7L702.6 89.3"></path><polyline points="253.30,501.50 338.80,433.60 405.90,402.30 436.40,397.20 437.70,395.40 438.90,393.70 440.10,395.50 441.30,395.60 442.50,393.40 443.80,391.70 445.00,390.70 446.20,398.00 447.40,393.10 448.60,390.40 449.90,388.40 451.10,390.10 452.30,389.00 453.50,387.10 454.80,387.50 456.00,391.70 457.20,391.80 458.40,391.50 459.60,391.70 460.90,392.30 462.10,390.80 463.30,388.00 464.50,389.10 465.70,386.40 467.00,384.20 468.20,383.50 469.40,383.10 470.60,383.10 471.80,386.50 473.10,379.50 474.30,373.50 475.50,370.00 476.70,366.50 477.90,371.40 479.20,367.70 480.40,366.20 481.60,369.40 482.80,370.30 484.10,365.60 485.30,370.70 486.50,372.70 487.70,373.60 488.90,372.00 490.20,366.70 491.40,365.20 492.60,364.60 493.80,362.00 495.00,359.50 496.30,362.10 497.50,361.70 498.70,357.70 499.90,352.70 501.10,346.10 502.40,345.80 503.60,348.00 504.80,346.00 506.00,348.20 507.30,347.70 508.50,345.00 509.70,342.40 510.90,344.50 512.10,341.40 513.40,335.20 514.60,331.90 515.80,337.20 517.00,338.00 518.20,334.80 519.50,333.40 520.70,330.80 521.90,333.70 523.10,331.30 524.30,329.80 525.60,327.40 526.80,330.40 528.00,327.60 529.20,328.70 530.50,327.70 531.70,325.80 532.90,316.30 534.10,307.30 535.30,306.30 536.60,302.60 537.80,302.50 539.00,303.10 540.20,304.60 541.40,303.90 542.70,301.70 543.90,304.30 545.10,300.30 546.30,300.90 547.50,298.80 548.80,291.50 550.00,298.40 551.20,303.30 552.40,293.80 553.60,297.70 554.90,290.40 556.10,290.10 557.30,283.20 558.50,282.20 559.80,273.50 561.00,274.50 562.20,271.60 563.40,274.70 564.60,269.60 565.90,260.60 567.10,260.90 568.30,271.20 569.50,262.40 570.70,264.10 572.00,263.00 573.20,260.60 574.40,259.30 575.60,269.80 576.80,269.10 578.10,258.20 579.30,262.70 580.50,255.80 581.70,256.00 583.00,258.80 584.20,263.70 585.40,260.30 586.60,250.20 587.80,249.70 589.10,249.50 590.30,245.10 591.50,246.10 592.70,246.80 593.90,242.50 595.20,253.60 596.40,261.10 597.60,278.00 598.80,282.10 600.00,274.70 601.30,263.60 602.50,254.80 603.70,248.20 604.90,255.20 606.20,249.30 607.40,242.10 608.60,229.90 609.80,220.70 611.00,213.00 612.30,207.30 613.50,210.40 614.70,221.00 615.90,224.50 617.10,221.60 618.40,225.30 619.60,218.20 620.80,212.60 622.00,210.60 623.20,207.80 624.50,210.20 625.70,205.10 626.90,205.00 628.10,204.90 629.40,207.60 630.60,202.10 631.80,201.30 633.00,200.60 634.20,196.30 635.50,193.50 636.70,189.20 637.90,184.30 639.10,179.10 640.30,177.70 641.60,174.10 642.80,172.00 644.00,173.00 645.20,171.20 646.40,167.10 647.70,162.50 648.90,163.70 650.10,165.00 651.30,160.80 652.50,157.40 653.80,152.90 655.00,150.70 656.20,151.80 657.40,150.30 658.70,153.10 659.90,150.00 661.10,143.80 662.30,140.90 663.50,138.40 664.80,135.80 666.00,132.60 667.20,130.20 668.40,129.60 669.60,131.00 670.90,128.90 672.10,127.50 673.30,124.70 674.50,123.20 675.70,120.70 677.00,117.50 678.20,114.30 679.40,110.90 680.60,108.00 681.90,108.00 683.10,107.20 684.30,105.20 685.50,102.50 686.70,100.10 688.00,98.40 689.20,97.60 690.40,98.80 691.60,102.50 692.80,100.90 694.10,100.00 695.30,98.60 696.50,97.70 697.70,96.10 698.90,94.30 700.20,93.50 701.40,91.70 702.60,89.30" stroke-linejoin="round" stroke-width="1.5" stroke="#18470F" fill="none" stroke-linecap="butt"></polyline></g><g><path fill="none" stroke-linecap="butt" stroke-linejoin="round" stroke="#fff" stroke-width="2.5" d="M192.2 467.2L253.3 473.3L314.3 475.6L375.4 484.1L437.7 487.4L449.9 492.4L462.1 497.2L474.3 496.3L486.5 496.4L497.5 496.1L498.7 496.1L510.9 501.6L521.9 506.9L539 503.7L540.2 500.8L541.4 504.1L542.7 499.9L543.9 499.2L545.1 502.2L546.3 497.8L547.5 507.7L548.8 500.1L550 497.8L551.2 496.4L552.4 499L553.6 506.9L554.9 490.3L556.1 490.3L557.3 498.5L558.5 495.3L559.8 493.8L561 486.4L562.2 485.6L563.4 485.8L564.6 488.2L565.9 486.1L567.1 492.8L568.3 492L569.5 479.7L570.7 480.1L572 481L573.2 481.3L574.4 483.6L575.6 478.4L576.8 481L578.1 478.3L579.3 480.1L580.5 493.9L581.7 481.1L583 489.5L584.2 482.8L585.4 479.6L586.6 483.9L587.8 480.1L589.1 479.9L590.3 477.8L591.5 478.9L592.7 478.9L593.9 475.8L595.2 476.1L596.4 478.2L597.6 478.4L598.8 479.7L600 480.1L601.3 482.6L602.5 480.1L603.7 483.1L604.9 484.4L606.2 483.5L607.4 481.8L608.6 481L609.8 482.8L611 479.9L612.3 482.1L613.5 485L614.7 491.6L615.9 492.2L617.1 492.4L618.4 491.2L619.6 492L620.8 491.4L622 490.4L623.2 486.1L624.5 483.8L625.7 483.1L626.9 479.6L628.1 482.6L629.4 477.5L630.6 477.3L631.8 472.4L633 471.8L634.2 471.8L635.5 469L636.7 463.7L637.9 470L639.1 471.2L640.3 465.5L641.6 465.2L642.8 460.9L644 458.2L645.2 459.6L646.4 462.2L647.7 459.9L648.9 461.1L650.1 454.9L651.3 455.8L652.5 450.5L653.8 447.5L655 455.1L656.2 450.4L657.4 446.4L658.7 445.5L659.9 439.8L661.1 438.2L662.3 436.4L663.5 434.4L664.8 432.3L666 424.5L667.2 420.1L668.4 417.1L669.6 418.3L670.9 415.7L672.1 412.9L673.3 409.3L674.5 404.9L675.7 400L677 398.5L678.2 394.6L679.4 391L680.6 389.4L681.9 386.3L683.1 385.2L684.3 379.6L685.5 373.9L686.7 368.4L688 361.7L689.2 355.3L690.4 351.2L691.6 345.5L692.8 339.7L694.1 334.4L695.3 331.1L696.5 326.3L697.7 320.9L698.9 314.9L700.2 309.4L701.4 304.2L702.6 298.8"></path><polyline points="192.20,467.20 253.30,473.30 314.30,475.60 375.40,484.10 437.70,487.40 449.90,492.40 462.10,497.20 474.30,496.30 486.50,496.40 497.50,496.10 498.70,496.10 510.90,501.60 521.90,506.90 539.00,503.70 540.20,500.80 541.40,504.10 542.70,499.90 543.90,499.20 545.10,502.20 546.30,497.80 547.50,507.70 548.80,500.10 550.00,497.80 551.20,496.40 552.40,499.00 553.60,506.90 554.90,490.30 556.10,490.30 557.30,498.50 558.50,495.30 559.80,493.80 561.00,486.40 562.20,485.60 563.40,485.80 564.60,488.20 565.90,486.10 567.10,492.80 568.30,492.00 569.50,479.70 570.70,480.10 572.00,481.00 573.20,481.30 574.40,483.60 575.60,478.40 576.80,481.00 578.10,478.30 579.30,480.10 580.50,493.90 581.70,481.10 583.00,489.50 584.20,482.80 585.40,479.60 586.60,483.90 587.80,480.10 589.10,479.90 590.30,477.80 591.50,478.90 592.70,478.90 593.90,475.80 595.20,476.10 596.40,478.20 597.60,478.40 598.80,479.70 600.00,480.10 601.30,482.60 602.50,480.10 603.70,483.10 604.90,484.40 606.20,483.50 607.40,481.80 608.60,481.00 609.80,482.80 611.00,479.90 612.30,482.10 613.50,485.00 614.70,491.60 615.90,492.20 617.10,492.40 618.40,491.20 619.60,492.00 620.80,491.40 622.00,490.40 623.20,486.10 624.50,483.80 625.70,483.10 626.90,479.60 628.10,482.60 629.40,477.50 630.60,477.30 631.80,472.40 633.00,471.80 634.20,471.80 635.50,469.00 636.70,463.70 637.90,470.00 639.10,471.20 640.30,465.50 641.60,465.20 642.80,460.90 644.00,458.20 645.20,459.60 646.40,462.20 647.70,459.90 648.90,461.10 650.10,454.90 651.30,455.80 652.50,450.50 653.80,447.50 655.00,455.10 656.20,450.40 657.40,446.40 658.70,445.50 659.90,439.80 661.10,438.20 662.30,436.40 663.50,434.40 664.80,432.30 666.00,424.50 667.20,420.10 668.40,417.10 669.60,418.30 670.90,415.70 672.10,412.90 673.30,409.30 674.50,404.90 675.70,400.00 677.00,398.50 678.20,394.60 679.40,391.00 680.60,389.40 681.90,386.30 683.10,385.20 684.30,379.60 685.50,373.90 686.70,368.40 688.00,361.70 689.20,355.30 690.40,351.20 691.60,345.50 692.80,339.70 694.10,334.40 695.30,331.10 696.50,326.30 697.70,320.90 698.90,314.90 700.20,309.40 701.40,304.20 702.60,298.80" stroke-linejoin="round" stroke-width="1.5" stroke="#CF0A66" fill="none" stroke-linecap="butt"></polyline></g><g><path fill="none" stroke-linecap="butt" stroke-linejoin="round" stroke="#fff" stroke-width="2.5" d="M70.1 437.8L71.4 441.6L72.6 438.2L73.8 434.3L75 434.2L76.2 433.4L77.5 433.2L78.7 435.3L79.9 434.1L81.1 429.8L82.3 433.7L83.6 431.9L84.8 436.7L86 432.7L87.2 433.2L88.5 430.8L89.7 431.9L90.9 431.9L92.1 431.6L93.3 432.8L94.6 434.4L95.8 432.4L97 430.9L98.2 429.3L99.4 428.3L100.7 429.2L101.9 429L103.1 436.8L104.3 436.3L105.5 435.2L106.8 434.4L108 438.2L109.2 435.2L110.4 436.1L111.7 432.1L112.9 439.7L114.1 441.2L115.3 434.2L116.5 440.1L117.8 433L119 436.8L120.2 440L121.4 436.9L122.6 440.6L123.9 435.6L125.1 438.8L126.3 437.3L127.5 429.6L128.7 434.4L130 438.9L131.2 440.3L132.4 443.4L133.6 448.3L134.9 432.9L136.1 442.7L137.3 443.7L138.5 464.8L139.7 455.7L141 429.5L142.2 435L143.4 434.5L144.6 433.1L145.8 434L147.1 425.8L148.3 429.5L149.5 429.7L150.7 418.6L151.9 425.4L153.2 425.9L154.4 426.7L155.6 435.4L156.8 435.4L158.1 439.1L159.3 425.7L160.5 438.2L161.7 427.7L162.9 424.9L164.2 441.8L165.4 428.9L166.6 430.8L167.8 436.6L169 440.3L170.3 451.7L171.5 439.9L172.7 443.8L173.9 457.3L175.1 460.2L176.4 450L177.6 438.2L178.8 451.9L180 446.3L181.2 445.7L182.5 438.1L183.7 432.3L184.9 453.2L186.1 453.3L187.4 458.5L188.6 463.2L189.8 445.6L191 432.5L192.2 438.1L193.5 439.3L194.7 434.6L195.9 429.2L197.1 423L198.3 434.6L199.6 430.2L200.8 440L202 445.5L203.2 431.2L204.4 425.5L205.7 434.3L206.9 439.1L208.1 442.9L209.3 446.5L210.6 438.7L211.8 444.5L213 434.7L214.2 435.3L215.4 444.5L216.7 429.6L217.9 430.1L219.1 444.8L220.3 445.7L221.5 432.9L222.8 432L224 435.8L225.2 435.7L226.4 424L227.6 454.9L228.9 455.9L230.1 453.4L231.3 441.8L232.5 450L233.8 448.8L235 445.5L236.2 448.4L237.4 451.7L238.6 442.2L239.9 441.2L241.1 438.6L242.3 450.2L243.5 441.5L244.7 436.1L246 435L247.2 449.4L248.4 448.5L249.6 449.1L250.8 447.8L252.1 449.6L253.3 453.8L254.5 448.3L255.7 436.4L257 425.4L258.2 426.3L259.4 422.2L260.6 429.9L261.8 436L263.1 437.5L264.3 454.1L265.5 445L266.7 443L267.9 439.7L269.2 423.4L270.4 430.3L271.6 426.1L272.8 414.8L274 412L275.3 424.4L276.5 421.8L277.7 424.7L278.9 427.9L280.1 428.6L281.4 426.6L282.6 431.5L283.8 429L285 412.2L286.3 419.9L287.5 416.3L288.7 423.2L289.9 411.4L291.1 421.1L292.4 414.1L293.6 406.4L294.8 424.1L296 416L297.2 423.9L298.5 413.2L299.7 405.9L300.9 410.3L302.1 403.7L303.3 403.1L304.6 395.3L305.8 411.9L307 394.5L308.2 398.9L309.5 403.4L310.7 404.7L311.9 402.4L313.1 406.3L314.3 402.6L315.6 394.6L316.8 398L318 405.4L319.2 388.5L320.4 393.9L321.7 410.9L322.9 399.6L324.1 393.7L325.3 408.3L326.5 418.1L327.8 409.3L329 409.2L330.2 413.8L331.4 404.6L332.7 407.6L333.9 404.5L335.1 399.7L336.3 394.9L337.5 397.3L338.8 390.8L340 394.7L341.2 393.7L342.4 396.5L343.6 397.9L344.9 395.7L346.1 399.7L347.3 400.8L348.5 396.9L349.7 401L351 397.5L352.2 399.1L353.4 393L354.6 391.4L355.9 392.7L357.1 396L358.3 389.7L359.5 395.8L360.7 394.4L362 395.7L363.2 398L364.4 395.3L365.6 391.9L366.8 394.3L368.1 396.4L369.3 396L370.5 393.5L371.7 389.5L372.9 390.8L374.2 392L375.4 391.2L376.6 394.1L377.8 389.9L379 389.7L380.3 393.3L381.5 390.9L382.7 393.4L383.9 388.3L385.2 387.1L386.4 385.9L387.6 383.7L388.8 380.4L390 383.6L391.3 383.7L392.5 384.2L393.7 385.8L394.9 384.9L396.1 384.5L397.4 383.8L398.6 378.9L399.8 382.4L401 381.1L402.2 384.5L403.5 383.5L404.7 386.5L405.9 384.3L407.1 382.1L408.4 380.2L409.6 381.9L410.8 383.1L412 379.2L413.2 377.4L414.5 379.2L415.7 379.9L416.9 380.5L418.1 382.1L419.3 381.4L420.6 384.2L421.8 385.5L423 384.6L424.2 378.4L425.4 379.3L426.7 376.4L427.9 379.1L429.1 383.3L430.3 374.1L431.6 373.3L432.8 375.4L434 375.5L435.2 374.1L436.4 369.9L437.7 369.7L438.9 369.4L440.1 372.7L441.3 374.2L442.5 369.8L443.8 371.6L445 366.7L446.2 372.8L447.4 371L448.6 366L449.9 368.3L451.1 374.1L452.3 370.4L453.5 374.2L454.8 365.7L456 372.8L457.2 372.7L458.4 374.3L459.6 377.4L460.9 371.1L462.1 371L463.3 370.8L464.5 369.5L465.7 365.6L467 364.8L468.2 371.5L469.4 365.4L470.6 366.5L471.8 367L473.1 363.9L474.3 364.1L475.5 362.2L476.7 362.6L477.9 361.5L479.2 355.5L480.4 353.6L481.6 355.6L482.8 352.9L484.1 355L485.3 351.6L486.5 354.7L487.7 356.9L488.9 353.3L490.2 346.1L491.4 342.8L492.6 344L493.8 346.3L495 343.4L496.3 342L497.5 344L498.7 340.7L499.9 337.5L501.1 335.2L502.4 331.5L503.6 334.9L504.8 329.4L506 329.3L507.3 332.1L508.5 329.1L509.7 328L510.9 329.2L512.1 334.5L513.4 326.4L514.6 324.7L515.8 323.2L517 321L518.2 321.5L519.5 317.7L520.7 317.7L521.9 314.3L523.1 314.9L524.3 315.4L525.6 314.1L526.8 313.6L528 312.3L529.2 312.5L530.5 312.7L531.7 313.5L532.9 315.1L534.1 311.5L535.3 309L536.6 307.1L537.8 307.1L539 307.8L540.2 309.3L541.4 308.7L542.7 305.7L543.9 302.1L545.1 297.8L546.3 298.3L547.5 299.2L548.8 302.6L550 303.7L551.2 298.2L552.4 296.1L553.6 293.1L554.9 292.8L556.1 289.1L557.3 286.1L558.5 287.9L559.8 288.9L561 287.3L562.2 289.4L563.4 289.7L564.6 287.8L565.9 285.4L567.1 284.5L568.3 289.7L569.5 288.4L570.7 286.3L572 284.3L573.2 283.3L574.4 280.1L575.6 281.1L576.8 275L578.1 274.3L579.3 274.7L580.5 275.1L581.7 287.7L583 295.8L584.2 299.1L585.4 290.6L586.6 288L587.8 284.6L589.1 280.2L590.3 284.3L591.5 276.9L592.7 276.2L593.9 273.5L595.2 274.6L596.4 280.3L597.6 280.1L598.8 277.7L600 271.6L601.3 268.2L602.5 264.2L603.7 261.3L604.9 260.5L606.2 260.5L607.4 251.5L608.6 242.7L609.8 240.7L611 239.3L612.3 243.8L613.5 248.6L614.7 253.1L615.9 255.2L617.1 253.1L618.4 250L619.6 250.3L620.8 247.7L622 248.1L623.2 244.6L624.5 240.9L625.7 237.7L626.9 236.9L628.1 235.8L629.4 236.5L630.6 233.1L631.8 228.3L633 225.9L634.2 225.8L635.5 222.6L636.7 218.1L637.9 216.2L639.1 214.9L640.3 213.2L641.6 209.7L642.8 208.4L644 206.3L645.2 204.7L646.4 201.6L647.7 195.3L648.9 196.7L650.1 196.8L651.3 194.5L652.5 192.3L653.8 188.8L655 186.2L656.2 188L657.4 189.5L658.7 187.8L659.9 184.4L661.1 182.1L662.3 178.9L663.5 174.9L664.8 170.6L666 166L667.2 164.2L668.4 164.1L669.6 165.6L670.9 165.6L672.1 163.5L673.3 160L674.5 157.9L675.7 155.7L677 153L678.2 150.2L679.4 147.4L680.6 144.2L681.9 142L683.1 140.1L684.3 137.3L685.5 135.4L686.7 133.3L688 131.7L689.2 130L690.4 131.5L691.6 136.8L692.8 135.8L694.1 135.1L695.3 134.5L696.5 133.3L697.7 131L698.9 129.7L700.2 128.6L701.4 127.4L702.6 126.7"></path><polyline points="70.10,437.80 71.40,441.60 72.60,438.20 73.80,434.30 75.00,434.20 76.20,433.40 77.50,433.20 78.70,435.30 79.90,434.10 81.10,429.80 82.30,433.70 83.60,431.90 84.80,436.70 86.00,432.70 87.20,433.20 88.50,430.80 89.70,431.90 90.90,431.90 92.10,431.60 93.30,432.80 94.60,434.40 95.80,432.40 97.00,430.90 98.20,429.30 99.40,428.30 100.70,429.20 101.90,429.00 103.10,436.80 104.30,436.30 105.50,435.20 106.80,434.40 108.00,438.20 109.20,435.20 110.40,436.10 111.70,432.10 112.90,439.70 114.10,441.20 115.30,434.20 116.50,440.10 117.80,433.00 119.00,436.80 120.20,440.00 121.40,436.90 122.60,440.60 123.90,435.60 125.10,438.80 126.30,437.30 127.50,429.60 128.70,434.40 130.00,438.90 131.20,440.30 132.40,443.40 133.60,448.30 134.90,432.90 136.10,442.70 137.30,443.70 138.50,464.80 139.70,455.70 141.00,429.50 142.20,435.00 143.40,434.50 144.60,433.10 145.80,434.00 147.10,425.80 148.30,429.50 149.50,429.70 150.70,418.60 151.90,425.40 153.20,425.90 154.40,426.70 155.60,435.40 156.80,435.40 158.10,439.10 159.30,425.70 160.50,438.20 161.70,427.70 162.90,424.90 164.20,441.80 165.40,428.90 166.60,430.80 167.80,436.60 169.00,440.30 170.30,451.70 171.50,439.90 172.70,443.80 173.90,457.30 175.10,460.20 176.40,450.00 177.60,438.20 178.80,451.90 180.00,446.30 181.20,445.70 182.50,438.10 183.70,432.30 184.90,453.20 186.10,453.30 187.40,458.50 188.60,463.20 189.80,445.60 191.00,432.50 192.20,438.10 193.50,439.30 194.70,434.60 195.90,429.20 197.10,423.00 198.30,434.60 199.60,430.20 200.80,440.00 202.00,445.50 203.20,431.20 204.40,425.50 205.70,434.30 206.90,439.10 208.10,442.90 209.30,446.50 210.60,438.70 211.80,444.50 213.00,434.70 214.20,435.30 215.40,444.50 216.70,429.60 217.90,430.10 219.10,444.80 220.30,445.70 221.50,432.90 222.80,432.00 224.00,435.80 225.20,435.70 226.40,424.00 227.60,454.90 228.90,455.90 230.10,453.40 231.30,441.80 232.50,450.00 233.80,448.80 235.00,445.50 236.20,448.40 237.40,451.70 238.60,442.20 239.90,441.20 241.10,438.60 242.30,450.20 243.50,441.50 244.70,436.10 246.00,435.00 247.20,449.40 248.40,448.50 249.60,449.10 250.80,447.80 252.10,449.60 253.30,453.80 254.50,448.30 255.70,436.40 257.00,425.40 258.20,426.30 259.40,422.20 260.60,429.90 261.80,436.00 263.10,437.50 264.30,454.10 265.50,445.00 266.70,443.00 267.90,439.70 269.20,423.40 270.40,430.30 271.60,426.10 272.80,414.80 274.00,412.00 275.30,424.40 276.50,421.80 277.70,424.70 278.90,427.90 280.10,428.60 281.40,426.60 282.60,431.50 283.80,429.00 285.00,412.20 286.30,419.90 287.50,416.30 288.70,423.20 289.90,411.40 291.10,421.10 292.40,414.10 293.60,406.40 294.80,424.10 296.00,416.00 297.20,423.90 298.50,413.20 299.70,405.90 300.90,410.30 302.10,403.70 303.30,403.10 304.60,395.30 305.80,411.90 307.00,394.50 308.20,398.90 309.50,403.40 310.70,404.70 311.90,402.40 313.10,406.30 314.30,402.60 315.60,394.60 316.80,398.00 318.00,405.40 319.20,388.50 320.40,393.90 321.70,410.90 322.90,399.60 324.10,393.70 325.30,408.30 326.50,418.10 327.80,409.30 329.00,409.20 330.20,413.80 331.40,404.60 332.70,407.60 333.90,404.50 335.10,399.70 336.30,394.90 337.50,397.30 338.80,390.80 340.00,394.70 341.20,393.70 342.40,396.50 343.60,397.90 344.90,395.70 346.10,399.70 347.30,400.80 348.50,396.90 349.70,401.00 351.00,397.50 352.20,399.10 353.40,393.00 354.60,391.40 355.90,392.70 357.10,396.00 358.30,389.70 359.50,395.80 360.70,394.40 362.00,395.70 363.20,398.00 364.40,395.30 365.60,391.90 366.80,394.30 368.10,396.40 369.30,396.00 370.50,393.50 371.70,389.50 372.90,390.80 374.20,392.00 375.40,391.20 376.60,394.10 377.80,389.90 379.00,389.70 380.30,393.30 381.50,390.90 382.70,393.40 383.90,388.30 385.20,387.10 386.40,385.90 387.60,383.70 388.80,380.40 390.00,383.60 391.30,383.70 392.50,384.20 393.70,385.80 394.90,384.90 396.10,384.50 397.40,383.80 398.60,378.90 399.80,382.40 401.00,381.10 402.20,384.50 403.50,383.50 404.70,386.50 405.90,384.30 407.10,382.10 408.40,380.20 409.60,381.90 410.80,383.10 412.00,379.20 413.20,377.40 414.50,379.20 415.70,379.90 416.90,380.50 418.10,382.10 419.30,381.40 420.60,384.20 421.80,385.50 423.00,384.60 424.20,378.40 425.40,379.30 426.70,376.40 427.90,379.10 429.10,383.30 430.30,374.10 431.60,373.30 432.80,375.40 434.00,375.50 435.20,374.10 436.40,369.90 437.70,369.70 438.90,369.40 440.10,372.70 441.30,374.20 442.50,369.80 443.80,371.60 445.00,366.70 446.20,372.80 447.40,371.00 448.60,366.00 449.90,368.30 451.10,374.10 452.30,370.40 453.50,374.20 454.80,365.70 456.00,372.80 457.20,372.70 458.40,374.30 459.60,377.40 460.90,371.10 462.10,371.00 463.30,370.80 464.50,369.50 465.70,365.60 467.00,364.80 468.20,371.50 469.40,365.40 470.60,366.50 471.80,367.00 473.10,363.90 474.30,364.10 475.50,362.20 476.70,362.60 477.90,361.50 479.20,355.50 480.40,353.60 481.60,355.60 482.80,352.90 484.10,355.00 485.30,351.60 486.50,354.70 487.70,356.90 488.90,353.30 490.20,346.10 491.40,342.80 492.60,344.00 493.80,346.30 495.00,343.40 496.30,342.00 497.50,344.00 498.70,340.70 499.90,337.50 501.10,335.20 502.40,331.50 503.60,334.90 504.80,329.40 506.00,329.30 507.30,332.10 508.50,329.10 509.70,328.00 510.90,329.20 512.10,334.50 513.40,326.40 514.60,324.70 515.80,323.20 517.00,321.00 518.20,321.50 519.50,317.70 520.70,317.70 521.90,314.30 523.10,314.90 524.30,315.40 525.60,314.10 526.80,313.60 528.00,312.30 529.20,312.50 530.50,312.70 531.70,313.50 532.90,315.10 534.10,311.50 535.30,309.00 536.60,307.10 537.80,307.10 539.00,307.80 540.20,309.30 541.40,308.70 542.70,305.70 543.90,302.10 545.10,297.80 546.30,298.30 547.50,299.20 548.80,302.60 550.00,303.70 551.20,298.20 552.40,296.10 553.60,293.10 554.90,292.80 556.10,289.10 557.30,286.10 558.50,287.90 559.80,288.90 561.00,287.30 562.20,289.40 563.40,289.70 564.60,287.80 565.90,285.40 567.10,284.50 568.30,289.70 569.50,288.40 570.70,286.30 572.00,284.30 573.20,283.30 574.40,280.10 575.60,281.10 576.80,275.00 578.10,274.30 579.30,274.70 580.50,275.10 581.70,287.70 583.00,295.80 584.20,299.10 585.40,290.60 586.60,288.00 587.80,284.60 589.10,280.20 590.30,284.30 591.50,276.90 592.70,276.20 593.90,273.50 595.20,274.60 596.40,280.30 597.60,280.10 598.80,277.70 600.00,271.60 601.30,268.20 602.50,264.20 603.70,261.30 604.90,260.50 606.20,260.50 607.40,251.50 608.60,242.70 609.80,240.70 611.00,239.30 612.30,243.80 613.50,248.60 614.70,253.10 615.90,255.20 617.10,253.10 618.40,250.00 619.60,250.30 620.80,247.70 622.00,248.10 623.20,244.60 624.50,240.90 625.70,237.70 626.90,236.90 628.10,235.80 629.40,236.50 630.60,233.10 631.80,228.30 633.00,225.90 634.20,225.80 635.50,222.60 636.70,218.10 637.90,216.20 639.10,214.90 640.30,213.20 641.60,209.70 642.80,208.40 644.00,206.30 645.20,204.70 646.40,201.60 647.70,195.30 648.90,196.70 650.10,196.80 651.30,194.50 652.50,192.30 653.80,188.80 655.00,186.20 656.20,188.00 657.40,189.50 658.70,187.80 659.90,184.40 661.10,182.10 662.30,178.90 663.50,174.90 664.80,170.60 666.00,166.00 667.20,164.20 668.40,164.10 669.60,165.60 670.90,165.60 672.10,163.50 673.30,160.00 674.50,157.90 675.70,155.70 677.00,153.00 678.20,150.20 679.40,147.40 680.60,144.20 681.90,142.00 683.10,140.10 684.30,137.30 685.50,135.40 686.70,133.30 688.00,131.70 689.20,130.00 690.40,131.50 691.60,136.80 692.80,135.80 694.10,135.10 695.30,134.50 696.50,133.30 697.70,131.00 698.90,129.70 700.20,128.60 701.40,127.40 702.60,126.70" stroke-linejoin="round" stroke-width="1.5" stroke="#6D3E91" fill="none" stroke-linecap="butt"></polyline></g><g><path fill="none" stroke-linecap="butt" stroke-linejoin="round" stroke="#fff" stroke-width="2.5" d="M70.1 391.2L71.4 395.2L72.6 396.7L73.8 395.8L75 401.7L76.2 393.8L77.5 384.6L78.7 385.4L79.9 381.4L81.1 380.9L82.3 378.4L83.6 385.1L84.8 383.3L86 380.4L87.2 383.3L88.5 385.9L89.7 384.3L90.9 378.2L92.1 377.4L93.3 380.4L94.6 384.6L95.8 392.6L97 393.8L98.2 392L99.4 380.4L100.7 380.9L101.9 390.9L103.1 399.5L104.3 400.7L105.5 395L106.8 400.4L108 397.3L109.2 397.6L110.4 398.9L111.7 385.4L112.9 382L114.1 384.9L115.3 383L116.5 392.6L117.8 401.3L119 397L120.2 386.5L121.4 385.4L122.6 390.1L123.9 389.2L125.1 391.2L126.3 385.1L127.5 396.7L128.7 396.4L130 391.5L131.2 397.9L132.4 394.4L133.6 386.7L134.9 390.9L136.1 402.3L137.3 404.2L138.5 399.8L139.7 402.9L141 400.7L142.2 402.6L143.4 398.2L144.6 397.6L145.8 404.5L147.1 393.8L148.3 398.9L149.5 397.6L150.7 396.1L151.9 390.1L153.2 395.5L154.4 402.3L155.6 396.1L156.8 398.6L158.1 397.3L159.3 393.8L160.5 394.4L161.7 397.3L162.9 394.1L164.2 395.5L165.4 397.3L166.6 401.3L167.8 400.7L169 398.2L170.3 397.9L171.5 396.1L172.7 397.9L173.9 399.8L175.1 399.2L176.4 397.6L177.6 397.3L178.8 399.8L180 403.3L181.2 406.2L182.5 405.2L183.7 400.4L184.9 402.9L186.1 403.3L187.4 408.5L188.6 406.2L189.8 403.3L191 399.2L192.2 402.9L193.5 407.2L194.7 406.5L195.9 402L197.1 405.2L198.3 404.2L199.6 407.5L200.8 406.8L202 403.6L203.2 399.2L204.4 396.4L205.7 397.6L206.9 399.2L208.1 399.8L209.3 398.6L210.6 400.4L211.8 396.7L213 398.6L214.2 402L215.4 401L216.7 398.2L217.9 394.1L219.1 395.5L220.3 395.8L221.5 395L222.8 391.8L224 393.5L225.2 397.3L226.4 401.3L227.6 402.9L228.9 396.7L230.1 391.2L231.3 385.7L232.5 385.9L233.8 384.3L235 395.2L236.2 392.9L237.4 389.2L238.6 384.9L239.9 384.9L241.1 382.7L242.3 380.7L243.5 387L244.7 392.9L246 392.6L247.2 389.2L248.4 388.1L249.6 392.9L250.8 397.3L252.1 399.5L253.3 400.4L254.5 390.6L255.7 389.8L257 390.9L258.2 389.8L259.4 389.5L260.6 392.3L261.8 395.2L263.1 396.1L264.3 396.1L265.5 394.4L266.7 392.3L267.9 391.5L269.2 391.8L270.4 392L271.6 390.9L272.8 388.1L274 387.8L275.3 388.9L276.5 392.3L277.7 393.8L278.9 392.3L280.1 391.5L281.4 390.9L282.6 391.8L283.8 397.3L285 396.4L286.3 400.1L287.5 400.1L288.7 397.9L289.9 397.6L291.1 395L292.4 393.8L293.6 392.9L294.8 396.1L296 400.7L297.2 397.9L298.5 392.9L299.7 393.8L300.9 394.1L302.1 400.1L303.3 399.8L304.6 397.3L305.8 398.6L307 402.3L308.2 403.6L309.5 403.3L310.7 402L311.9 398.9L313.1 397.9L314.3 395L315.6 395.8L316.8 396.4L318 395.2L319.2 394.7L320.4 394.4L321.7 395.5L322.9 392.6L324.1 392.9L325.3 398.6L326.5 392.6L327.8 387.6L329 386.5L330.2 386.5L331.4 385.1L332.7 387L333.9 387.3L335.1 386.5L336.3 387.3L337.5 384.6L338.8 379.7L340 380.9L341.2 381.7L342.4 378.2L343.6 375.9L344.9 380.4L346.1 382.5L347.3 380.4L348.5 379.9L349.7 379.7L351 381.4L352.2 384.9L353.4 383.8L354.6 390.3L355.9 394.1L357.1 392.6L358.3 390.3L359.5 387L360.7 386.2L362 385.9L363.2 388.7L364.4 390.1L365.6 387.6L366.8 388.4L368.1 388.1L369.3 388.7L370.5 392.3L371.7 394.1L372.9 393.2L374.2 390.3L375.4 391.2L376.6 391.5L377.8 389.2L379 384.3L380.3 384.3L381.5 386.7L382.7 388.1L383.9 388.1L385.2 387.3L386.4 387.6L387.6 385.7L388.8 384.6L390 384.1L391.3 385.9L392.5 388.1L393.7 390.1L394.9 393.8L396.1 392L397.4 390.3L398.6 389.2L399.8 394.1L401 395L402.2 397.9L403.5 397.3L404.7 398.9L405.9 400.1L407.1 395.5L408.4 398.6L409.6 401L410.8 396.7L412 392.9L413.2 395.5L414.5 397L415.7 398.2L416.9 398.6L418.1 397.3L419.3 396.1L420.6 398.9L421.8 396.7L423 397L424.2 402L425.4 400.1L426.7 399.5L427.9 402.6L429.1 401.3L430.3 398.6L431.6 398.2L432.8 397L434 395L435.2 397.9L436.4 402.9L437.7 404.2L438.9 401L440.1 398.2L441.3 394.1L442.5 397.3L443.8 395L445 394.7L446.2 389.2L447.4 388.7L448.6 396.7L449.9 400.1L451.1 397.9L452.3 395.2L453.5 394.1L454.8 398.6L456 400.1L457.2 399.2L458.4 391.8L459.6 392.6L460.9 392.6L462.1 394.4L463.3 393.2L464.5 392.3L465.7 389.8L467 391.2L468.2 388.4L469.4 390.1L470.6 391.2L471.8 391.5L473.1 392.9L474.3 389.5L475.5 388.7L476.7 388.1L477.9 387.3L479.2 384.6L480.4 392L481.6 394.7L482.8 393.2L484.1 394.1L485.3 390.9L486.5 388.9L487.7 388.1L488.9 393.2L490.2 393.2L491.4 392.3L492.6 393.2L493.8 395.5L495 392.9L496.3 393.5L497.5 394.7L498.7 394.7L499.9 396.1L501.1 398.2L502.4 405.2L503.6 404.2L504.8 403.9L506 396.1L507.3 392.3L508.5 395.5L509.7 396.1L510.9 396.7L512.1 393.8L513.4 391.8L514.6 393.5L515.8 388.4L517 395.5L518.2 394.7L519.5 394.1L520.7 391.5L521.9 386.7L523.1 387.3L524.3 395.4L525.6 395.8L526.8 390.8L528 390.3L529.2 392.7L530.5 392.1L531.7 389.7L532.9 389.4L534.1 387.8L535.3 384.9L536.6 383.7L537.8 382.7L539 384.2L540.2 382.8L541.4 380.6L542.7 378.1L543.9 378.6L545.1 381.7L546.3 381.6L547.5 380.3L548.8 380.2L550 378.7L551.2 378.1L552.4 377.3L553.6 375.8L554.9 375.6L556.1 376.1L557.3 374.9L558.5 372.3L559.8 370.7L561 369.1L562.2 368.2L563.4 366.5L564.6 364.4L565.9 361.1L567.1 359.4L568.3 357.3L569.5 356.5L570.7 356.4L572 355.3L573.2 355.2L574.4 350.6L575.6 356.2L576.8 361.4L578.1 353.5L579.3 353.1L580.5 355.7L581.7 359.8L583 357.4L584.2 360.9L585.4 353.8L586.6 346L587.8 344.2L589.1 338.5L590.3 338.5L591.5 341.3L592.7 336L593.9 331.9L595.2 337.4L596.4 339.4L597.6 338L598.8 339.9L600 341L601.3 336.5L602.5 340.9L603.7 332.1L604.9 330.1L606.2 324.9L607.4 327.7L608.6 330.3L609.8 336.7L611 353.7L612.3 375.5L613.5 386.6L614.7 357L615.9 340.3L617.1 333.5L618.4 326L619.6 318.7L620.8 312.2L622 305.5L623.2 299.1L624.5 294.7L625.7 289.8L626.9 285.9L628.1 280.7L629.4 276.1L630.6 270.8L631.8 266.2L633 258.8L634.2 251.9L635.5 245.7L636.7 242.7L637.9 241.2L639.1 236.8L640.3 230.5L641.6 223.1L642.8 218.2L644 216.6L645.2 215.4L646.4 213.1L647.7 207.6L648.9 203.8L650.1 206.6L651.3 200.8L652.5 198.3L653.8 195L655 189.7L656.2 186.3L657.4 186L658.7 185.6L659.9 184.5L661.1 182.1L662.3 179.4L663.5 176.6L664.8 173.5L666 169.7L667.2 166.9L668.4 164.8L669.6 162.6L670.9 161.2L672.1 161.4L673.3 158.6L674.5 155L675.7 153.1L677 150.6L678.2 148.3L679.4 146.1L680.6 141.8L681.9 139.4L683.1 138.6L684.3 138.2L685.5 136.6L686.7 135.4L688 133L689.2 131.4L690.4 132.4L691.6 137.8L692.8 135.7L694.1 134.6L695.3 137.8L696.5 140.7L697.7 141.5L698.9 140.6L700.2 139.7L701.4 137.9L702.6 136.9"></path><polyline points="70.10,391.20 71.40,395.20 72.60,396.70 73.80,395.80 75.00,401.70 76.20,393.80 77.50,384.60 78.70,385.40 79.90,381.40 81.10,380.90 82.30,378.40 83.60,385.10 84.80,383.30 86.00,380.40 87.20,383.30 88.50,385.90 89.70,384.30 90.90,378.20 92.10,377.40 93.30,380.40 94.60,384.60 95.80,392.60 97.00,393.80 98.20,392.00 99.40,380.40 100.70,380.90 101.90,390.90 103.10,399.50 104.30,400.70 105.50,395.00 106.80,400.40 108.00,397.30 109.20,397.60 110.40,398.90 111.70,385.40 112.90,382.00 114.10,384.90 115.30,383.00 116.50,392.60 117.80,401.30 119.00,397.00 120.20,386.50 121.40,385.40 122.60,390.10 123.90,389.20 125.10,391.20 126.30,385.10 127.50,396.70 128.70,396.40 130.00,391.50 131.20,397.90 132.40,394.40 133.60,386.70 134.90,390.90 136.10,402.30 137.30,404.20 138.50,399.80 139.70,402.90 141.00,400.70 142.20,402.60 143.40,398.20 144.60,397.60 145.80,404.50 147.10,393.80 148.30,398.90 149.50,397.60 150.70,396.10 151.90,390.10 153.20,395.50 154.40,402.30 155.60,396.10 156.80,398.60 158.10,397.30 159.30,393.80 160.50,394.40 161.70,397.30 162.90,394.10 164.20,395.50 165.40,397.30 166.60,401.30 167.80,400.70 169.00,398.20 170.30,397.90 171.50,396.10 172.70,397.90 173.90,399.80 175.10,399.20 176.40,397.60 177.60,397.30 178.80,399.80 180.00,403.30 181.20,406.20 182.50,405.20 183.70,400.40 184.90,402.90 186.10,403.30 187.40,408.50 188.60,406.20 189.80,403.30 191.00,399.20 192.20,402.90 193.50,407.20 194.70,406.50 195.90,402.00 197.10,405.20 198.30,404.20 199.60,407.50 200.80,406.80 202.00,403.60 203.20,399.20 204.40,396.40 205.70,397.60 206.90,399.20 208.10,399.80 209.30,398.60 210.60,400.40 211.80,396.70 213.00,398.60 214.20,402.00 215.40,401.00 216.70,398.20 217.90,394.10 219.10,395.50 220.30,395.80 221.50,395.00 222.80,391.80 224.00,393.50 225.20,397.30 226.40,401.30 227.60,402.90 228.90,396.70 230.10,391.20 231.30,385.70 232.50,385.90 233.80,384.30 235.00,395.20 236.20,392.90 237.40,389.20 238.60,384.90 239.90,384.90 241.10,382.70 242.30,380.70 243.50,387.00 244.70,392.90 246.00,392.60 247.20,389.20 248.40,388.10 249.60,392.90 250.80,397.30 252.10,399.50 253.30,400.40 254.50,390.60 255.70,389.80 257.00,390.90 258.20,389.80 259.40,389.50 260.60,392.30 261.80,395.20 263.10,396.10 264.30,396.10 265.50,394.40 266.70,392.30 267.90,391.50 269.20,391.80 270.40,392.00 271.60,390.90 272.80,388.10 274.00,387.80 275.30,388.90 276.50,392.30 277.70,393.80 278.90,392.30 280.10,391.50 281.40,390.90 282.60,391.80 283.80,397.30 285.00,396.40 286.30,400.10 287.50,400.10 288.70,397.90 289.90,397.60 291.10,395.00 292.40,393.80 293.60,392.90 294.80,396.10 296.00,400.70 297.20,397.90 298.50,392.90 299.70,393.80 300.90,394.10 302.10,400.10 303.30,399.80 304.60,397.30 305.80,398.60 307.00,402.30 308.20,403.60 309.50,403.30 310.70,402.00 311.90,398.90 313.10,397.90 314.30,395.00 315.60,395.80 316.80,396.40 318.00,395.20 319.20,394.70 320.40,394.40 321.70,395.50 322.90,392.60 324.10,392.90 325.30,398.60 326.50,392.60 327.80,387.60 329.00,386.50 330.20,386.50 331.40,385.10 332.70,387.00 333.90,387.30 335.10,386.50 336.30,387.30 337.50,384.60 338.80,379.70 340.00,380.90 341.20,381.70 342.40,378.20 343.60,375.90 344.90,380.40 346.10,382.50 347.30,380.40 348.50,379.90 349.70,379.70 351.00,381.40 352.20,384.90 353.40,383.80 354.60,390.30 355.90,394.10 357.10,392.60 358.30,390.30 359.50,387.00 360.70,386.20 362.00,385.90 363.20,388.70 364.40,390.10 365.60,387.60 366.80,388.40 368.10,388.10 369.30,388.70 370.50,392.30 371.70,394.10 372.90,393.20 374.20,390.30 375.40,391.20 376.60,391.50 377.80,389.20 379.00,384.30 380.30,384.30 381.50,386.70 382.70,388.10 383.90,388.10 385.20,387.30 386.40,387.60 387.60,385.70 388.80,384.60 390.00,384.10 391.30,385.90 392.50,388.10 393.70,390.10 394.90,393.80 396.10,392.00 397.40,390.30 398.60,389.20 399.80,394.10 401.00,395.00 402.20,397.90 403.50,397.30 404.70,398.90 405.90,400.10 407.10,395.50 408.40,398.60 409.60,401.00 410.80,396.70 412.00,392.90 413.20,395.50 414.50,397.00 415.70,398.20 416.90,398.60 418.10,397.30 419.30,396.10 420.60,398.90 421.80,396.70 423.00,397.00 424.20,402.00 425.40,400.10 426.70,399.50 427.90,402.60 429.10,401.30 430.30,398.60 431.60,398.20 432.80,397.00 434.00,395.00 435.20,397.90 436.40,402.90 437.70,404.20 438.90,401.00 440.10,398.20 441.30,394.10 442.50,397.30 443.80,395.00 445.00,394.70 446.20,389.20 447.40,388.70 448.60,396.70 449.90,400.10 451.10,397.90 452.30,395.20 453.50,394.10 454.80,398.60 456.00,400.10 457.20,399.20 458.40,391.80 459.60,392.60 460.90,392.60 462.10,394.40 463.30,393.20 464.50,392.30 465.70,389.80 467.00,391.20 468.20,388.40 469.40,390.10 470.60,391.20 471.80,391.50 473.10,392.90 474.30,389.50 475.50,388.70 476.70,388.10 477.90,387.30 479.20,384.60 480.40,392.00 481.60,394.70 482.80,393.20 484.10,394.10 485.30,390.90 486.50,388.90 487.70,388.10 488.90,393.20 490.20,393.20 491.40,392.30 492.60,393.20 493.80,395.50 495.00,392.90 496.30,393.50 497.50,394.70 498.70,394.70 499.90,396.10 501.10,398.20 502.40,405.20 503.60,404.20 504.80,403.90 506.00,396.10 507.30,392.30 508.50,395.50 509.70,396.10 510.90,396.70 512.10,393.80 513.40,391.80 514.60,393.50 515.80,388.40 517.00,395.50 518.20,394.70 519.50,394.10 520.70,391.50 521.90,386.70 523.10,387.30 524.30,395.40 525.60,395.80 526.80,390.80 528.00,390.30 529.20,392.70 530.50,392.10 531.70,389.70 532.90,389.40 534.10,387.80 535.30,384.90 536.60,383.70 537.80,382.70 539.00,384.20 540.20,382.80 541.40,380.60 542.70,378.10 543.90,378.60 545.10,381.70 546.30,381.60 547.50,380.30 548.80,380.20 550.00,378.70 551.20,378.10 552.40,377.30 553.60,375.80 554.90,375.60 556.10,376.10 557.30,374.90 558.50,372.30 559.80,370.70 561.00,369.10 562.20,368.20 563.40,366.50 564.60,364.40 565.90,361.10 567.10,359.40 568.30,357.30 569.50,356.50 570.70,356.40 572.00,355.30 573.20,355.20 574.40,350.60 575.60,356.20 576.80,361.40 578.10,353.50 579.30,353.10 580.50,355.70 581.70,359.80 583.00,357.40 584.20,360.90 585.40,353.80 586.60,346.00 587.80,344.20 589.10,338.50 590.30,338.50 591.50,341.30 592.70,336.00 593.90,331.90 595.20,337.40 596.40,339.40 597.60,338.00 598.80,339.90 600.00,341.00 601.30,336.50 602.50,340.90 603.70,332.10 604.90,330.10 606.20,324.90 607.40,327.70 608.60,330.30 609.80,336.70 611.00,353.70 612.30,375.50 613.50,386.60 614.70,357.00 615.90,340.30 617.10,333.50 618.40,326.00 619.60,318.70 620.80,312.20 622.00,305.50 623.20,299.10 624.50,294.70 625.70,289.80 626.90,285.90 628.10,280.70 629.40,276.10 630.60,270.80 631.80,266.20 633.00,258.80 634.20,251.90 635.50,245.70 636.70,242.70 637.90,241.20 639.10,236.80 640.30,230.50 641.60,223.10 642.80,218.20 644.00,216.60 645.20,215.40 646.40,213.10 647.70,207.60 648.90,203.80 650.10,206.60 651.30,200.80 652.50,198.30 653.80,195.00 655.00,189.70 656.20,186.30 657.40,186.00 658.70,185.60 659.90,184.50 661.10,182.10 662.30,179.40 663.50,176.60 664.80,173.50 666.00,169.70 667.20,166.90 668.40,164.80 669.60,162.60 670.90,161.20 672.10,161.40 673.30,158.60 674.50,155.00 675.70,153.10 677.00,150.60 678.20,148.30 679.40,146.10 680.60,141.80 681.90,139.40 683.10,138.60 684.30,138.20 685.50,136.60 686.70,135.40 688.00,133.00 689.20,131.40 690.40,132.40 691.60,137.80 692.80,135.70 694.10,134.60 695.30,137.80 696.50,140.70 697.70,141.50 698.90,140.60 700.20,139.70 701.40,137.90 702.60,136.90" stroke-linejoin="round" stroke-width="1.5" stroke="#BE5915" fill="none" stroke-linecap="butt"></polyline></g><g><path fill="none" stroke-linecap="butt" stroke-linejoin="round" stroke="#fff" stroke-width="2.5" d="M70.1 437.9L71.4 437L72.6 437.9L73.8 438.9L75 438.9L76.2 438.9L77.5 440L78.7 440L79.9 438.9L81.1 440L82.3 440L83.6 440L84.8 440L86 441L87.2 441L88.5 441L89.7 441L90.9 442L92.1 441L93.3 441L94.6 441L95.8 441L97 441L98.2 441L99.4 441L100.7 441L101.9 441L103.1 441L104.3 441L105.5 441L106.8 441L108 441L109.2 441L110.4 441L111.7 441L112.9 441L114.1 441L115.3 441L116.5 443L117.8 444.1L119 444.1L120.2 445.2L121.4 445.2L122.6 445.2L123.9 445.2L125.1 446.2L126.3 446.2L127.5 446.2L128.7 447.4L130 449.6L131.2 450.8L132.4 451.9L133.6 453L134.9 453L136.1 453L137.3 454.3L138.5 454.3L139.7 454.3L141 454.3L142.2 454.3L143.4 454.3L144.6 453L145.8 453L147.1 451.9L148.3 451.9L149.5 451.9L150.7 451.9L151.9 453L153.2 453L154.4 451.9L155.6 450.8L156.8 449.6L158.1 448.5L159.3 449.6L160.5 447.4L161.7 447.4L162.9 447.4L164.2 447.4L165.4 447.4L166.6 448.5L167.8 448.5L169 448.5L170.3 447.4L171.5 448.5L172.7 446.2L173.9 446.2L175.1 446.2L176.4 446.2L177.6 445.2L178.8 446.2L180 446.2L181.2 445.2L182.5 445.2L183.7 444.1L184.9 442L186.1 441L187.4 442L188.6 442L189.8 442L191 443L192.2 443L193.5 442L194.7 442L195.9 442L197.1 443L198.3 443L199.6 442L200.8 442L202 442L203.2 442L204.4 442L205.7 441L206.9 441L208.1 441L209.3 441L210.6 441L211.8 441L213 441L214.2 441L215.4 441L216.7 441L217.9 441L219.1 441L220.3 441L221.5 441L222.8 441L224 441L225.2 441L226.4 441L227.6 441L228.9 441L230.1 441L231.3 441L232.5 440L233.8 440L235 440L236.2 440L237.4 440L238.6 440L239.9 440L241.1 440L242.3 440L243.5 437.9L244.7 436L246 435L247.2 435L248.4 435L249.6 437L250.8 438.9L252.1 440L253.3 440L254.5 440L255.7 440L257 440L258.2 440L259.4 440L260.6 438.9L261.8 438.9L263.1 438.9L264.3 438.9L265.5 438.9L266.7 438.9L267.9 437.9L269.2 437L270.4 437L271.6 436L272.8 436L274 436L275.3 435L276.5 435L277.7 435L278.9 435L280.1 435L281.4 435L282.6 435L283.8 435L285 435L286.3 435L287.5 436L288.7 437L289.9 437.9L291.1 437.9L292.4 437.9L293.6 437.9L294.8 437L296 437L297.2 437L298.5 437L299.7 437L300.9 437L302.1 437L303.3 437L304.6 437L305.8 437L307 437.9L308.2 437.9L309.5 437.9L310.7 438.9L311.9 438.9L313.1 438.9L314.3 437.9L315.6 443L316.8 443L318 443L319.2 443L320.4 444.1L321.7 443L322.9 443L324.1 443L325.3 442L326.5 441L327.8 441L329 440L330.2 440L331.4 440L332.7 440L333.9 440L335.1 438.9L336.3 437.9L337.5 437L338.8 436L340 435L341.2 435L342.4 436L343.6 437L344.9 437L346.1 437L347.3 437L348.5 437L349.7 436L351 436L352.2 436L353.4 436L354.6 436L355.9 436L357.1 437L358.3 437L359.5 437.9L360.7 438.9L362 438.9L363.2 440L364.4 440L365.6 440L366.8 440L368.1 440L369.3 438.9L370.5 438.9L371.7 438.9L372.9 438.9L374.2 438.9L375.4 438.9L376.6 440L377.8 440L379 440L380.3 440L381.5 440L382.7 440L383.9 441L385.2 441L386.4 441L387.6 441L388.8 440L390 438.9L391.3 438.9L392.5 437.9L393.7 437L394.9 437L396.1 437L397.4 437.9L398.6 437.9L399.8 437.9L401 437.9L402.2 437.9L403.5 437L404.7 437L405.9 437L407.1 436L408.4 436L409.6 437L410.8 437L412 437L413.2 436L414.5 436L415.7 433L416.9 432.1L418.1 433L419.3 434.1L420.6 428.4L421.8 431.2L423 433L460.9 431.4L462.1 423.7L463.3 427.8L464.5 424.7L465.7 422L467 426.6L468.2 423.9L469.4 426L470.6 426.6L471.8 424.1L473.1 426.6L474.3 425.1L475.5 416.9L476.7 418.7L477.9 418.6L479.2 415.3L480.4 416.9L481.6 415.6L482.8 411.3L484.1 415L485.3 408.4L486.5 406.4L487.7 409.1L488.9 404.4L490.2 401.3L491.4 404.8L492.6 404.9L493.8 394.9L495 401.6L496.3 398.8L497.5 397.2L498.7 399.1L499.9 393.1L501.1 398.4L502.4 394.1L503.6 396L504.8 391.8L506 386.4L507.3 379.8L508.5 386.7L509.7 380.2L510.9 387L512.1 379.1L513.4 376.1L514.6 375.3L515.8 378.6L517 378L518.2 384.5L519.5 375.6L520.7 374.4L521.9 381.1L523.1 379.9L524.3 370.9L525.6 378.7L526.8 367.1L528 364.3L529.2 373.3L530.5 368.6L531.7 370.2L532.9 377.1L534.1 368.9L535.3 365.4L536.6 361.2L537.8 361.2L539 362.8L540.2 364.8L541.4 363.5L542.7 363L543.9 362.1L545.1 359.8L546.3 357.5L547.5 355.1L548.8 352.7L550 351L551.2 347.5L552.4 349.7L553.6 345.2L554.9 347L556.1 342.5L557.3 337.2L558.5 338.4L559.8 340.1L561 342L562.2 339.9L563.4 339.4L564.6 337.7L565.9 336.1L567.1 331.8L568.3 332.7L569.5 328.7L570.7 335.3L572 326.1L573.2 318.3L574.4 319.2L575.6 326.6L576.8 326.2L578.1 319.8L579.3 334.9L580.5 356.6L581.7 340.6L583 326.8L584.2 331.7L585.4 315.6L586.6 311.7L587.8 301L589.1 301.3L590.3 299.3L591.5 301.6L592.7 295.1L593.9 289L595.2 292.9L596.4 299.7L597.6 306.4L598.8 299.6L600 300.7L601.3 303.2L602.5 299.4L603.7 293.9L604.9 294.3L606.2 287.3L607.4 304.3L608.6 324.4L609.8 334.8L611 338.9L612.3 355.5L613.5 349.5L614.7 309.1L615.9 302L617.1 296L618.4 284.1L619.6 279.4L620.8 274.2L622 272.4L623.2 270.2L624.5 266.3L625.7 261.6L626.9 257.6L628.1 252.9L629.4 251.5L630.6 249.7L631.8 243.9L633 239.6L634.2 235.2L635.5 231.6L636.7 226.3L637.9 222.4L639.1 218.4L640.3 214.7L641.6 211.1L642.8 205.2L644 200.5L645.2 196.8L646.4 193.3L647.7 188.9L648.9 186.6L650.1 187.8L651.3 184L652.5 180.7L653.8 178.4L655 175.6L656.2 174.7L657.4 174.2L658.7 172.3L659.9 171.6L661.1 170.7L662.3 169.7L663.5 167.8L664.8 165.7L666 161.9L667.2 158.9L668.4 156.9L669.6 156.3L670.9 155.2L672.1 156.2L673.3 154.2L674.5 152.4L675.7 151.4L677 149.3L678.2 146.2L679.4 143.1L680.6 139.7L681.9 138.2L683.1 137.5L684.3 137.1L685.5 134.8L686.7 133.7L688 131.8L689.2 129.9L690.4 130.2L691.6 133.5L692.8 132L694.1 130.3L695.3 130.7L696.5 130.5L697.7 130.8L698.9 130L700.2 129.2L701.4 127.1L702.6 125.5"></path><polyline points="70.10,437.90 71.40,437.00 72.60,437.90 73.80,438.90 75.00,438.90 76.20,438.90 77.50,440.00 78.70,440.00 79.90,438.90 81.10,440.00 82.30,440.00 83.60,440.00 84.80,440.00 86.00,441.00 87.20,441.00 88.50,441.00 89.70,441.00 90.90,442.00 92.10,441.00 93.30,441.00 94.60,441.00 95.80,441.00 97.00,441.00 98.20,441.00 99.40,441.00 100.70,441.00 101.90,441.00 103.10,441.00 104.30,441.00 105.50,441.00 106.80,441.00 108.00,441.00 109.20,441.00 110.40,441.00 111.70,441.00 112.90,441.00 114.10,441.00 115.30,441.00 116.50,443.00 117.80,444.10 119.00,444.10 120.20,445.20 121.40,445.20 122.60,445.20 123.90,445.20 125.10,446.20 126.30,446.20 127.50,446.20 128.70,447.40 130.00,449.60 131.20,450.80 132.40,451.90 133.60,453.00 134.90,453.00 136.10,453.00 137.30,454.30 138.50,454.30 139.70,454.30 141.00,454.30 142.20,454.30 143.40,454.30 144.60,453.00 145.80,453.00 147.10,451.90 148.30,451.90 149.50,451.90 150.70,451.90 151.90,453.00 153.20,453.00 154.40,451.90 155.60,450.80 156.80,449.60 158.10,448.50 159.30,449.60 160.50,447.40 161.70,447.40 162.90,447.40 164.20,447.40 165.40,447.40 166.60,448.50 167.80,448.50 169.00,448.50 170.30,447.40 171.50,448.50 172.70,446.20 173.90,446.20 175.10,446.20 176.40,446.20 177.60,445.20 178.80,446.20 180.00,446.20 181.20,445.20 182.50,445.20 183.70,444.10 184.90,442.00 186.10,441.00 187.40,442.00 188.60,442.00 189.80,442.00 191.00,443.00 192.20,443.00 193.50,442.00 194.70,442.00 195.90,442.00 197.10,443.00 198.30,443.00 199.60,442.00 200.80,442.00 202.00,442.00 203.20,442.00 204.40,442.00 205.70,441.00 206.90,441.00 208.10,441.00 209.30,441.00 210.60,441.00 211.80,441.00 213.00,441.00 214.20,441.00 215.40,441.00 216.70,441.00 217.90,441.00 219.10,441.00 220.30,441.00 221.50,441.00 222.80,441.00 224.00,441.00 225.20,441.00 226.40,441.00 227.60,441.00 228.90,441.00 230.10,441.00 231.30,441.00 232.50,440.00 233.80,440.00 235.00,440.00 236.20,440.00 237.40,440.00 238.60,440.00 239.90,440.00 241.10,440.00 242.30,440.00 243.50,437.90 244.70,436.00 246.00,435.00 247.20,435.00 248.40,435.00 249.60,437.00 250.80,438.90 252.10,440.00 253.30,440.00 254.50,440.00 255.70,440.00 257.00,440.00 258.20,440.00 259.40,440.00 260.60,438.90 261.80,438.90 263.10,438.90 264.30,438.90 265.50,438.90 266.70,438.90 267.90,437.90 269.20,437.00 270.40,437.00 271.60,436.00 272.80,436.00 274.00,436.00 275.30,435.00 276.50,435.00 277.70,435.00 278.90,435.00 280.10,435.00 281.40,435.00 282.60,435.00 283.80,435.00 285.00,435.00 286.30,435.00 287.50,436.00 288.70,437.00 289.90,437.90 291.10,437.90 292.40,437.90 293.60,437.90 294.80,437.00 296.00,437.00 297.20,437.00 298.50,437.00 299.70,437.00 300.90,437.00 302.10,437.00 303.30,437.00 304.60,437.00 305.80,437.00 307.00,437.90 308.20,437.90 309.50,437.90 310.70,438.90 311.90,438.90 313.10,438.90 314.30,437.90 315.60,443.00 316.80,443.00 318.00,443.00 319.20,443.00 320.40,444.10 321.70,443.00 322.90,443.00 324.10,443.00 325.30,442.00 326.50,441.00 327.80,441.00 329.00,440.00 330.20,440.00 331.40,440.00 332.70,440.00 333.90,440.00 335.10,438.90 336.30,437.90 337.50,437.00 338.80,436.00 340.00,435.00 341.20,435.00 342.40,436.00 343.60,437.00 344.90,437.00 346.10,437.00 347.30,437.00 348.50,437.00 349.70,436.00 351.00,436.00 352.20,436.00 353.40,436.00 354.60,436.00 355.90,436.00 357.10,437.00 358.30,437.00 359.50,437.90 360.70,438.90 362.00,438.90 363.20,440.00 364.40,440.00 365.60,440.00 366.80,440.00 368.10,440.00 369.30,438.90 370.50,438.90 371.70,438.90 372.90,438.90 374.20,438.90 375.40,438.90 376.60,440.00 377.80,440.00 379.00,440.00 380.30,440.00 381.50,440.00 382.70,440.00 383.90,441.00 385.20,441.00 386.40,441.00 387.60,441.00 388.80,440.00 390.00,438.90 391.30,438.90 392.50,437.90 393.70,437.00 394.90,437.00 396.10,437.00 397.40,437.90 398.60,437.90 399.80,437.90 401.00,437.90 402.20,437.90 403.50,437.00 404.70,437.00 405.90,437.00 407.10,436.00 408.40,436.00 409.60,437.00 410.80,437.00 412.00,437.00 413.20,436.00 414.50,436.00 415.70,433.00 416.90,432.10 418.10,433.00 419.30,434.10 420.60,428.40 421.80,431.20 423.00,433.00 460.90,431.40 462.10,423.70 463.30,427.80 464.50,424.70 465.70,422.00 467.00,426.60 468.20,423.90 469.40,426.00 470.60,426.60 471.80,424.10 473.10,426.60 474.30,425.10 475.50,416.90 476.70,418.70 477.90,418.60 479.20,415.30 480.40,416.90 481.60,415.60 482.80,411.30 484.10,415.00 485.30,408.40 486.50,406.40 487.70,409.10 488.90,404.40 490.20,401.30 491.40,404.80 492.60,404.90 493.80,394.90 495.00,401.60 496.30,398.80 497.50,397.20 498.70,399.10 499.90,393.10 501.10,398.40 502.40,394.10 503.60,396.00 504.80,391.80 506.00,386.40 507.30,379.80 508.50,386.70 509.70,380.20 510.90,387.00 512.10,379.10 513.40,376.10 514.60,375.30 515.80,378.60 517.00,378.00 518.20,384.50 519.50,375.60 520.70,374.40 521.90,381.10 523.10,379.90 524.30,370.90 525.60,378.70 526.80,367.10 528.00,364.30 529.20,373.30 530.50,368.60 531.70,370.20 532.90,377.10 534.10,368.90 535.30,365.40 536.60,361.20 537.80,361.20 539.00,362.80 540.20,364.80 541.40,363.50 542.70,363.00 543.90,362.10 545.10,359.80 546.30,357.50 547.50,355.10 548.80,352.70 550.00,351.00 551.20,347.50 552.40,349.70 553.60,345.20 554.90,347.00 556.10,342.50 557.30,337.20 558.50,338.40 559.80,340.10 561.00,342.00 562.20,339.90 563.40,339.40 564.60,337.70 565.90,336.10 567.10,331.80 568.30,332.70 569.50,328.70 570.70,335.30 572.00,326.10 573.20,318.30 574.40,319.20 575.60,326.60 576.80,326.20 578.10,319.80 579.30,334.90 580.50,356.60 581.70,340.60 583.00,326.80 584.20,331.70 585.40,315.60 586.60,311.70 587.80,301.00 589.10,301.30 590.30,299.30 591.50,301.60 592.70,295.10 593.90,289.00 595.20,292.90 596.40,299.70 597.60,306.40 598.80,299.60 600.00,300.70 601.30,303.20 602.50,299.40 603.70,293.90 604.90,294.30 606.20,287.30 607.40,304.30 608.60,324.40 609.80,334.80 611.00,338.90 612.30,355.50 613.50,349.50 614.70,309.10 615.90,302.00 617.10,296.00 618.40,284.10 619.60,279.40 620.80,274.20 622.00,272.40 623.20,270.20 624.50,266.30 625.70,261.60 626.90,257.60 628.10,252.90 629.40,251.50 630.60,249.70 631.80,243.90 633.00,239.60 634.20,235.20 635.50,231.60 636.70,226.30 637.90,222.40 639.10,218.40 640.30,214.70 641.60,211.10 642.80,205.20 644.00,200.50 645.20,196.80 646.40,193.30 647.70,188.90 648.90,186.60 650.10,187.80 651.30,184.00 652.50,180.70 653.80,178.40 655.00,175.60 656.20,174.70 657.40,174.20 658.70,172.30 659.90,171.60 661.10,170.70 662.30,169.70 663.50,167.80 664.80,165.70 666.00,161.90 667.20,158.90 668.40,156.90 669.60,156.30 670.90,155.20 672.10,156.20 673.30,154.20 674.50,152.40 675.70,151.40 677.00,149.30 678.20,146.20 679.40,143.10 680.60,139.70 681.90,138.20 683.10,137.50 684.30,137.10 685.50,134.80 686.70,133.70 688.00,131.80 689.20,129.90 690.40,130.20 691.60,133.50 692.80,132.00 694.10,130.30 695.30,130.70 696.50,130.50 697.70,130.80 698.90,130.00 700.20,129.20 701.40,127.10 702.60,125.50" stroke-linejoin="round" stroke-width="1.5" stroke="#2C8465" fill="none" stroke-linecap="butt"></polyline></g><g><path fill="none" stroke-linecap="butt" stroke-linejoin="round" stroke="#fff" stroke-width="2.5" d="M70.1 471.8L82.3 466.4L94.6 475.3L106.8 473.5L119 473L131.2 472.8L143.4 472.4L155.6 469.3L167.8 471L180 471L192.2 471L204.4 465.8L216.7 467.4L266.7 462.1L296 466L302.1 456.1L314.3 447.3L326.5 456.6L338.8 463.5L343.6 475L351 469.6L363.2 476L375.4 484.7L387.6 488.5L394.9 491.6L399.8 490.9L412 492.6L424.2 495.3L436.4 498.3L448.6 501.1L460.9 503.2L473.1 507.4L485.3 507L497.5 506L521.9 496.3L542.7 499.9L546.3 494.3L558.5 493.5L572 500.6L574.4 492.2L593.9 490.4L595.2 489.5L596.4 489.2L597.6 486.8L598.8 498.7L600 497.2L601.3 490L602.5 484.4L603.7 487.3L604.9 490.4L619.6 513.1L620.8 495.8L622 486.1L623.2 476.1L624.5 485.9L625.7 479.4L626.9 473.3L628.1 472.8L629.4 474.7L630.6 479.6L631.8 485.1L633 504.1L634.2 498.3L635.5 487.3L636.7 476.5L637.9 468.1L639.1 467.5L640.3 469.4L641.6 474.3L642.8 467.2L644 457.1L645.2 453.8L646.4 454.8L647.7 449.2L648.9 448.8L650.1 444L651.3 448.8L652.5 444.7L653.8 435L655 428.6L656.2 424.9L657.4 423.2L658.7 415.1L659.9 410.6L661.1 401.3L662.3 394.4L663.5 389.6L664.8 383.1L666 379.3L667.2 380L668.4 381.4L669.6 379.1L670.9 373.5L672.1 365.2L673.3 359L674.5 352L675.7 346.7L677 344.5L678.2 344.5L679.4 341L680.6 335.2L681.9 329.8L683.1 323L684.3 317.5L685.5 310.3L686.7 301.5L688 292.2L689.2 284L690.4 280.3L691.6 273.9L692.8 263.8L694.1 258.2L695.3 253.8L696.5 247.9L697.7 242.6L698.9 240.1L700.2 237.5L701.4 236.2L702.6 233.3"></path><polyline points="70.10,471.80 82.30,466.40 94.60,475.30 106.80,473.50 119.00,473.00 131.20,472.80 143.40,472.40 155.60,469.30 167.80,471.00 180.00,471.00 192.20,471.00 204.40,465.80 216.70,467.40 266.70,462.10 296.00,466.00 302.10,456.10 314.30,447.30 326.50,456.60 338.80,463.50 343.60,475.00 351.00,469.60 363.20,476.00 375.40,484.70 387.60,488.50 394.90,491.60 399.80,490.90 412.00,492.60 424.20,495.30 436.40,498.30 448.60,501.10 460.90,503.20 473.10,507.40 485.30,507.00 497.50,506.00 521.90,496.30 542.70,499.90 546.30,494.30 558.50,493.50 572.00,500.60 574.40,492.20 593.90,490.40 595.20,489.50 596.40,489.20 597.60,486.80 598.80,498.70 600.00,497.20 601.30,490.00 602.50,484.40 603.70,487.30 604.90,490.40 619.60,513.10 620.80,495.80 622.00,486.10 623.20,476.10 624.50,485.90 625.70,479.40 626.90,473.30 628.10,472.80 629.40,474.70 630.60,479.60 631.80,485.10 633.00,504.10 634.20,498.30 635.50,487.30 636.70,476.50 637.90,468.10 639.10,467.50 640.30,469.40 641.60,474.30 642.80,467.20 644.00,457.10 645.20,453.80 646.40,454.80 647.70,449.20 648.90,448.80 650.10,444.00 651.30,448.80 652.50,444.70 653.80,435.00 655.00,428.60 656.20,424.90 657.40,423.20 658.70,415.10 659.90,410.60 661.10,401.30 662.30,394.40 663.50,389.60 664.80,383.10 666.00,379.30 667.20,380.00 668.40,381.40 669.60,379.10 670.90,373.50 672.10,365.20 673.30,359.00 674.50,352.00 675.70,346.70 677.00,344.50 678.20,344.50 679.40,341.00 680.60,335.20 681.90,329.80 683.10,323.00 684.30,317.50 685.50,310.30 686.70,301.50 688.00,292.20 689.20,284.00 690.40,280.30 691.60,273.90 692.80,263.80 694.10,258.20 695.30,253.80 696.50,247.90 697.70,242.60 698.90,240.10 700.20,237.50 701.40,236.20 702.60,233.30" stroke-linejoin="round" stroke-width="1.5" stroke="#C15065" fill="none" stroke-linecap="butt"></polyline></g></g></g></g></g><g class="SourcesFooter" style="fill:#5b5b5b"></g>
</svg>