<?xml version="1.0" encoding="utf-8" standalone="no"?>
<!DOCTYPE svg PUBLIC "-//W3C//DTD SVG 1.1//EN"
  "http://www.w3.org/Graphics/SVG/1.1/DTD/svg11.dtd">
<svg xmlns:xlink="http://www.w3.org/1999/xlink" width="360pt" height="216pt" viewBox="0 0 360 216" xmlns="http://www.w3.org/2000/svg" version="1.1">
 <metadata>
  <rdf:RDF xmlns:dc="http://purl.org/dc/elements/1.1/" xmlns:cc="http://creativecommons.org/ns#" xmlns:rdf="http://www.w3.org/1999/02/22-rdf-syntax-ns#">
   <cc:Work>
    <dc:type rdf:resource="http://purl.org/dc/dcmitype/StillImage"/>
    <dc:date>2024-03-27T17:53:56.162058</dc:date>
    <dc:format>image/svg+xml</dc:format>
    <dc:creator>
     <cc:Agent>
      <dc:title>Matplotlib v3.8.3, https://matplotlib.org/</dc:title>
     </cc:Agent>
    </dc:creator>
   </cc:Work>
  </rdf:RDF>
 </metadata>
 <defs>
  <style type="text/css">*{stroke-linejoin: round; stroke-linecap: butt}</style>
 </defs>
 <g id="figure_1">
  <g id="patch_1">
   <path d="M 0 216 
L 360 216 
L 360 0 
L 0 0 
L 0 216 
z
" style="fill: none"/>
  </g>
  <g id="axes_1">
   <g id="patch_2">
    <path d="M 57.404668 191.12 
L 349.2 191.12 
L 349.2 10.8 
L 57.404668 10.8 
L 57.404668 191.12 
z
" style="fill: none"/>
   </g>
   <g id="matplotlib.axis_1">
    <g id="text_1">
     <!-- Time -->
     <g transform="translate(191.06874 202.718437) scale(0.1 -0.1)">
      <defs>
       <path id="DejaVuSans-54" d="M -19 4666 
L 3928 4666 
L 3928 4134 
L 2272 4134 
L 2272 0 
L 1638 0 
L 1638 4134 
L -19 4134 
L -19 4666 
z
" transform="scale(0.015625)"/>
       <path id="DejaVuSans-69" d="M 603 3500 
L 1178 3500 
L 1178 0 
L 603 0 
L 603 3500 
z
M 603 4863 
L 1178 4863 
L 1178 4134 
L 603 4134 
L 603 4863 
z
" transform="scale(0.015625)"/>
       <path id="DejaVuSans-6d" d="M 3328 2828 
Q 3544 3216 3844 3400 
Q 4144 3584 4550 3584 
Q 5097 3584 5394 3201 
Q 5691 2819 5691 2113 
L 5691 0 
L 5113 0 
L 5113 2094 
Q 5113 2597 4934 2840 
Q 4756 3084 4391 3084 
Q 3944 3084 3684 2787 
Q 3425 2491 3425 1978 
L 3425 0 
L 2847 0 
L 2847 2094 
Q 2847 2600 2669 2842 
Q 2491 3084 2119 3084 
Q 1678 3084 1418 2786 
Q 1159 2488 1159 1978 
L 1159 0 
L 581 0 
L 581 3500 
L 1159 3500 
L 1159 2956 
Q 1356 3278 1631 3431 
Q 1906 3584 2284 3584 
Q 2666 3584 2933 3390 
Q 3200 3197 3328 2828 
z
" transform="scale(0.015625)"/>
       <path id="DejaVuSans-65" d="M 3597 1894 
L 3597 1613 
L 953 1613 
Q 991 1019 1311 708 
Q 1631 397 2203 397 
Q 2534 397 2845 478 
Q 3156 559 3463 722 
L 3463 178 
Q 3153 47 2828 -22 
Q 2503 -91 2169 -91 
Q 1331 -91 842 396 
Q 353 884 353 1716 
Q 353 2575 817 3079 
Q 1281 3584 2069 3584 
Q 2775 3584 3186 3129 
Q 3597 2675 3597 1894 
z
M 3022 2063 
Q 3016 2534 2758 2815 
Q 2500 3097 2075 3097 
Q 1594 3097 1305 2825 
Q 1016 2553 972 2059 
L 3022 2063 
z
" transform="scale(0.015625)"/>
      </defs>
      <use xlink:href="#DejaVuSans-54"/>
      <use xlink:href="#DejaVuSans-69" x="57.958984"/>
      <use xlink:href="#DejaVuSans-6d" x="85.742188"/>
      <use xlink:href="#DejaVuSans-65" x="183.154297"/>
     </g>
    </g>
   </g>
   <g id="matplotlib.axis_2">
    <g id="ytick_1">
     <g id="line2d_1">
      <defs>
       <path id="mdad2a732c5" d="M 0 0 
L -3.5 0 
" style="stroke: #000000; stroke-width: 0.8"/>
      </defs>
      <g>
       <use xlink:href="#mdad2a732c5" x="57.404668" y="161.066667" style="stroke: #000000; stroke-width: 0.8"/>
      </g>
     </g>
     <g id="text_2">
      <!-- $\vdots$ -->
      <g transform="translate(40.404668 164.865885) scale(0.1 -0.1)">
       <defs>
        <path id="DejaVuSans-22ee" d="M 2868 187 
L 3528 187 
L 3528 -607 
L 2868 -607 
L 2868 187 
z
M 2868 4603 
L 3528 4603 
L 3528 3809 
L 2868 3809 
L 2868 4603 
z
M 2868 2363 
L 3528 2363 
L 3528 1569 
L 2868 1569 
L 2868 2363 
z
" transform="scale(0.015625)"/>
       </defs>
       <use xlink:href="#DejaVuSans-22ee" transform="translate(0 0.078125)"/>
      </g>
     </g>
    </g>
    <g id="ytick_2">
     <g id="line2d_2">
      <g>
       <use xlink:href="#mdad2a732c5" x="57.404668" y="131.013333" style="stroke: #000000; stroke-width: 0.8"/>
      </g>
     </g>
     <g id="text_3">
      <!-- $n-1$ -->
      <g transform="translate(25.404668 134.812552) scale(0.1 -0.1)">
       <defs>
        <path id="DejaVuSans-Oblique-6e" d="M 3566 2113 
L 3156 0 
L 2578 0 
L 2988 2091 
Q 3016 2238 3031 2350 
Q 3047 2463 3047 2528 
Q 3047 2791 2881 2937 
Q 2716 3084 2419 3084 
Q 1956 3084 1622 2776 
Q 1288 2469 1184 1941 
L 800 0 
L 225 0 
L 903 3500 
L 1478 3500 
L 1363 2950 
Q 1603 3253 1940 3418 
Q 2278 3584 2650 3584 
Q 3113 3584 3367 3334 
Q 3622 3084 3622 2631 
Q 3622 2519 3608 2391 
Q 3594 2263 3566 2113 
z
" transform="scale(0.015625)"/>
        <path id="DejaVuSans-2212" d="M 678 2272 
L 4684 2272 
L 4684 1741 
L 678 1741 
L 678 2272 
z
" transform="scale(0.015625)"/>
        <path id="DejaVuSans-31" d="M 794 531 
L 1825 531 
L 1825 4091 
L 703 3866 
L 703 4441 
L 1819 4666 
L 2450 4666 
L 2450 531 
L 3481 531 
L 3481 0 
L 794 0 
L 794 531 
z
" transform="scale(0.015625)"/>
       </defs>
       <use xlink:href="#DejaVuSans-Oblique-6e" transform="translate(0 0.09375)"/>
       <use xlink:href="#DejaVuSans-2212" transform="translate(82.861328 0.09375)"/>
       <use xlink:href="#DejaVuSans-31" transform="translate(186.132812 0.09375)"/>
      </g>
     </g>
    </g>
    <g id="ytick_3">
     <g id="line2d_3">
      <g>
       <use xlink:href="#mdad2a732c5" x="57.404668" y="100.96" style="stroke: #000000; stroke-width: 0.8"/>
      </g>
     </g>
     <g id="text_4">
      <!-- $n$ -->
      <g transform="translate(44.004668 104.759219) scale(0.1 -0.1)">
       <use xlink:href="#DejaVuSans-Oblique-6e"/>
      </g>
     </g>
    </g>
    <g id="ytick_4">
     <g id="line2d_4">
      <g>
       <use xlink:href="#mdad2a732c5" x="57.404668" y="70.906667" style="stroke: #000000; stroke-width: 0.8"/>
      </g>
     </g>
     <g id="text_5">
      <!-- $n+1$ -->
      <g transform="translate(25.404668 74.705885) scale(0.1 -0.1)">
       <defs>
        <path id="DejaVuSans-2b" d="M 2944 4013 
L 2944 2272 
L 4684 2272 
L 4684 1741 
L 2944 1741 
L 2944 0 
L 2419 0 
L 2419 1741 
L 678 1741 
L 678 2272 
L 2419 2272 
L 2419 4013 
L 2944 4013 
z
" transform="scale(0.015625)"/>
       </defs>
       <use xlink:href="#DejaVuSans-Oblique-6e" transform="translate(0 0.09375)"/>
       <use xlink:href="#DejaVuSans-2b" transform="translate(82.861328 0.09375)"/>
       <use xlink:href="#DejaVuSans-31" transform="translate(186.132812 0.09375)"/>
      </g>
     </g>
    </g>
    <g id="ytick_5">
     <g id="line2d_5">
      <g>
       <use xlink:href="#mdad2a732c5" x="57.404668" y="40.853333" style="stroke: #000000; stroke-width: 0.8"/>
      </g>
     </g>
     <g id="text_6">
      <!-- $\vdots$ -->
      <g transform="translate(40.404668 44.652552) scale(0.1 -0.1)">
       <use xlink:href="#DejaVuSans-22ee" transform="translate(0 0.078125)"/>
      </g>
     </g>
    </g>
    <g id="text_7">
     <!-- Generations -->
     <g transform="translate(19.32498 131.457656) rotate(-90) scale(0.1 -0.1)">
      <defs>
       <path id="DejaVuSans-47" d="M 3809 666 
L 3809 1919 
L 2778 1919 
L 2778 2438 
L 4434 2438 
L 4434 434 
Q 4069 175 3628 42 
Q 3188 -91 2688 -91 
Q 1594 -91 976 548 
Q 359 1188 359 2328 
Q 359 3472 976 4111 
Q 1594 4750 2688 4750 
Q 3144 4750 3555 4637 
Q 3966 4525 4313 4306 
L 4313 3634 
Q 3963 3931 3569 4081 
Q 3175 4231 2741 4231 
Q 1884 4231 1454 3753 
Q 1025 3275 1025 2328 
Q 1025 1384 1454 906 
Q 1884 428 2741 428 
Q 3075 428 3337 486 
Q 3600 544 3809 666 
z
" transform="scale(0.015625)"/>
       <path id="DejaVuSans-6e" d="M 3513 2113 
L 3513 0 
L 2938 0 
L 2938 2094 
Q 2938 2591 2744 2837 
Q 2550 3084 2163 3084 
Q 1697 3084 1428 2787 
Q 1159 2491 1159 1978 
L 1159 0 
L 581 0 
L 581 3500 
L 1159 3500 
L 1159 2956 
Q 1366 3272 1645 3428 
Q 1925 3584 2291 3584 
Q 2894 3584 3203 3211 
Q 3513 2838 3513 2113 
z
" transform="scale(0.015625)"/>
       <path id="DejaVuSans-72" d="M 2631 2963 
Q 2534 3019 2420 3045 
Q 2306 3072 2169 3072 
Q 1681 3072 1420 2755 
Q 1159 2438 1159 1844 
L 1159 0 
L 581 0 
L 581 3500 
L 1159 3500 
L 1159 2956 
Q 1341 3275 1631 3429 
Q 1922 3584 2338 3584 
Q 2397 3584 2469 3576 
Q 2541 3569 2628 3553 
L 2631 2963 
z
" transform="scale(0.015625)"/>
       <path id="DejaVuSans-61" d="M 2194 1759 
Q 1497 1759 1228 1600 
Q 959 1441 959 1056 
Q 959 750 1161 570 
Q 1363 391 1709 391 
Q 2188 391 2477 730 
Q 2766 1069 2766 1631 
L 2766 1759 
L 2194 1759 
z
M 3341 1997 
L 3341 0 
L 2766 0 
L 2766 531 
Q 2569 213 2275 61 
Q 1981 -91 1556 -91 
Q 1019 -91 701 211 
Q 384 513 384 1019 
Q 384 1609 779 1909 
Q 1175 2209 1959 2209 
L 2766 2209 
L 2766 2266 
Q 2766 2663 2505 2880 
Q 2244 3097 1772 3097 
Q 1472 3097 1187 3025 
Q 903 2953 641 2809 
L 641 3341 
Q 956 3463 1253 3523 
Q 1550 3584 1831 3584 
Q 2591 3584 2966 3190 
Q 3341 2797 3341 1997 
z
" transform="scale(0.015625)"/>
       <path id="DejaVuSans-74" d="M 1172 4494 
L 1172 3500 
L 2356 3500 
L 2356 3053 
L 1172 3053 
L 1172 1153 
Q 1172 725 1289 603 
Q 1406 481 1766 481 
L 2356 481 
L 2356 0 
L 1766 0 
Q 1100 0 847 248 
Q 594 497 594 1153 
L 594 3053 
L 172 3053 
L 172 3500 
L 594 3500 
L 594 4494 
L 1172 4494 
z
" transform="scale(0.015625)"/>
       <path id="DejaVuSans-6f" d="M 1959 3097 
Q 1497 3097 1228 2736 
Q 959 2375 959 1747 
Q 959 1119 1226 758 
Q 1494 397 1959 397 
Q 2419 397 2687 759 
Q 2956 1122 2956 1747 
Q 2956 2369 2687 2733 
Q 2419 3097 1959 3097 
z
M 1959 3584 
Q 2709 3584 3137 3096 
Q 3566 2609 3566 1747 
Q 3566 888 3137 398 
Q 2709 -91 1959 -91 
Q 1206 -91 779 398 
Q 353 888 353 1747 
Q 353 2609 779 3096 
Q 1206 3584 1959 3584 
z
" transform="scale(0.015625)"/>
       <path id="DejaVuSans-73" d="M 2834 3397 
L 2834 2853 
Q 2591 2978 2328 3040 
Q 2066 3103 1784 3103 
Q 1356 3103 1142 2972 
Q 928 2841 928 2578 
Q 928 2378 1081 2264 
Q 1234 2150 1697 2047 
L 1894 2003 
Q 2506 1872 2764 1633 
Q 3022 1394 3022 966 
Q 3022 478 2636 193 
Q 2250 -91 1575 -91 
Q 1294 -91 989 -36 
Q 684 19 347 128 
L 347 722 
Q 666 556 975 473 
Q 1284 391 1588 391 
Q 1994 391 2212 530 
Q 2431 669 2431 922 
Q 2431 1156 2273 1281 
Q 2116 1406 1581 1522 
L 1381 1569 
Q 847 1681 609 1914 
Q 372 2147 372 2553 
Q 372 3047 722 3315 
Q 1072 3584 1716 3584 
Q 2034 3584 2315 3537 
Q 2597 3491 2834 3397 
z
" transform="scale(0.015625)"/>
      </defs>
      <use xlink:href="#DejaVuSans-47"/>
      <use xlink:href="#DejaVuSans-65" x="77.490234"/>
      <use xlink:href="#DejaVuSans-6e" x="139.013672"/>
      <use xlink:href="#DejaVuSans-65" x="202.392578"/>
      <use xlink:href="#DejaVuSans-72" x="263.916016"/>
      <use xlink:href="#DejaVuSans-61" x="305.029297"/>
      <use xlink:href="#DejaVuSans-74" x="366.308594"/>
      <use xlink:href="#DejaVuSans-69" x="405.517578"/>
      <use xlink:href="#DejaVuSans-6f" x="433.300781"/>
      <use xlink:href="#DejaVuSans-6e" x="494.482422"/>
      <use xlink:href="#DejaVuSans-73" x="557.861328"/>
     </g>
    </g>
   </g>
   <g id="patch_3">
    <path d="M 72.372002 131.013333 
Q 102.795169 131.013333 133.218336 131.013333 
" style="fill: none; stroke: #000000; stroke-linecap: round"/>
    <path d="M 72.372002 121.013333 
L 72.372002 121.013333 
L 72.372002 141.013333 
L 72.372002 141.013333 
" style="fill: none; stroke: #000000; stroke-linecap: round"/>
    <path d="M 133.218336 141.013333 
L 133.218336 141.013333 
L 133.218336 121.013333 
L 133.218336 121.013333 
" style="fill: none; stroke: #000000; stroke-linecap: round"/>
   </g>
   <g id="patch_4">
    <path d="M 137.215409 131.013333 
Q 167.638576 131.013333 198.061743 131.013333 
" style="fill: none; stroke: #000000; stroke-linecap: round"/>
    <path d="M 137.215409 121.013333 
L 137.215409 121.013333 
L 137.215409 141.013333 
L 137.215409 141.013333 
" style="fill: none; stroke: #000000; stroke-linecap: round"/>
    <path d="M 198.061743 141.013333 
L 198.061743 141.013333 
L 198.061743 121.013333 
L 198.061743 121.013333 
" style="fill: none; stroke: #000000; stroke-linecap: round"/>
   </g>
   <g id="text_8">
    <!-- Work -->
    <g transform="translate(89.826372 127.406933) scale(0.1 -0.1)">
     <defs>
      <path id="DejaVuSans-57" d="M 213 4666 
L 850 4666 
L 1831 722 
L 2809 4666 
L 3519 4666 
L 4500 722 
L 5478 4666 
L 6119 4666 
L 4947 0 
L 4153 0 
L 3169 4050 
L 2175 0 
L 1381 0 
L 213 4666 
z
" transform="scale(0.015625)"/>
      <path id="DejaVuSans-6b" d="M 581 4863 
L 1159 4863 
L 1159 1991 
L 2875 3500 
L 3609 3500 
L 1753 1863 
L 3688 0 
L 2938 0 
L 1159 1709 
L 1159 0 
L 581 0 
L 581 4863 
z
" transform="scale(0.015625)"/>
     </defs>
     <use xlink:href="#DejaVuSans-57"/>
     <use xlink:href="#DejaVuSans-6f" x="93.001953"/>
     <use xlink:href="#DejaVuSans-72" x="154.183594"/>
     <use xlink:href="#DejaVuSans-6b" x="195.296875"/>
    </g>
   </g>
   <g id="text_9">
    <!-- Retire -->
    <g transform="translate(148.185438 127.406933) scale(0.1 -0.1)">
     <defs>
      <path id="DejaVuSans-52" d="M 2841 2188 
Q 3044 2119 3236 1894 
Q 3428 1669 3622 1275 
L 4263 0 
L 3584 0 
L 2988 1197 
Q 2756 1666 2539 1819 
Q 2322 1972 1947 1972 
L 1259 1972 
L 1259 0 
L 628 0 
L 628 4666 
L 2053 4666 
Q 2853 4666 3247 4331 
Q 3641 3997 3641 3322 
Q 3641 2881 3436 2590 
Q 3231 2300 2841 2188 
z
M 1259 4147 
L 1259 2491 
L 2053 2491 
Q 2509 2491 2742 2702 
Q 2975 2913 2975 3322 
Q 2975 3731 2742 3939 
Q 2509 4147 2053 4147 
L 1259 4147 
z
" transform="scale(0.015625)"/>
     </defs>
     <use xlink:href="#DejaVuSans-52"/>
     <use xlink:href="#DejaVuSans-65" x="64.982422"/>
     <use xlink:href="#DejaVuSans-74" x="126.505859"/>
     <use xlink:href="#DejaVuSans-69" x="165.714844"/>
     <use xlink:href="#DejaVuSans-72" x="193.498047"/>
     <use xlink:href="#DejaVuSans-65" x="232.361328"/>
    </g>
   </g>
   <g id="patch_5">
    <path d="M 137.215409 100.96 
Q 167.638576 100.96 198.061743 100.96 
" style="fill: none; stroke: #000000; stroke-linecap: round"/>
    <path d="M 137.215409 90.96 
L 137.215409 90.96 
L 137.215409 110.96 
L 137.215409 110.96 
" style="fill: none; stroke: #000000; stroke-linecap: round"/>
    <path d="M 198.061743 110.96 
L 198.061743 110.96 
L 198.061743 90.96 
L 198.061743 90.96 
" style="fill: none; stroke: #000000; stroke-linecap: round"/>
   </g>
   <g id="patch_6">
    <path d="M 202.058816 100.96 
Q 232.481983 100.96 262.905151 100.96 
" style="fill: none; stroke: #000000; stroke-linecap: round"/>
    <path d="M 202.058816 90.96 
L 202.058816 90.96 
L 202.058816 110.96 
L 202.058816 110.96 
" style="fill: none; stroke: #000000; stroke-linecap: round"/>
    <path d="M 262.905151 110.96 
L 262.905151 110.96 
L 262.905151 90.96 
L 262.905151 90.96 
" style="fill: none; stroke: #000000; stroke-linecap: round"/>
   </g>
   <g id="text_10">
    <!-- Work -->
    <g transform="translate(154.669779 97.3536) scale(0.1 -0.1)">
     <use xlink:href="#DejaVuSans-57"/>
     <use xlink:href="#DejaVuSans-6f" x="93.001953"/>
     <use xlink:href="#DejaVuSans-72" x="154.183594"/>
     <use xlink:href="#DejaVuSans-6b" x="195.296875"/>
    </g>
   </g>
   <g id="text_11">
    <!-- Retire -->
    <g transform="translate(213.028845 97.3536) scale(0.1 -0.1)">
     <use xlink:href="#DejaVuSans-52"/>
     <use xlink:href="#DejaVuSans-65" x="64.982422"/>
     <use xlink:href="#DejaVuSans-74" x="126.505859"/>
     <use xlink:href="#DejaVuSans-69" x="165.714844"/>
     <use xlink:href="#DejaVuSans-72" x="193.498047"/>
     <use xlink:href="#DejaVuSans-65" x="232.361328"/>
    </g>
   </g>
   <g id="patch_7">
    <path d="M 202.058816 70.906667 
Q 232.481983 70.906667 262.905151 70.906667 
" style="fill: none; stroke: #000000; stroke-linecap: round"/>
    <path d="M 202.058816 60.906667 
L 202.058816 60.906667 
L 202.058816 80.906667 
L 202.058816 80.906667 
" style="fill: none; stroke: #000000; stroke-linecap: round"/>
    <path d="M 262.905151 80.906667 
L 262.905151 80.906667 
L 262.905151 60.906667 
L 262.905151 60.906667 
" style="fill: none; stroke: #000000; stroke-linecap: round"/>
   </g>
   <g id="patch_8">
    <path d="M 266.902223 70.906667 
Q 297.32539 70.906667 327.748558 70.906667 
" style="fill: none; stroke: #000000; stroke-linecap: round"/>
    <path d="M 266.902223 60.906667 
L 266.902223 60.906667 
L 266.902223 80.906667 
L 266.902223 80.906667 
" style="fill: none; stroke: #000000; stroke-linecap: round"/>
    <path d="M 327.748558 80.906667 
L 327.748558 80.906667 
L 327.748558 60.906667 
L 327.748558 60.906667 
" style="fill: none; stroke: #000000; stroke-linecap: round"/>
   </g>
   <g id="text_12">
    <!-- Work -->
    <g transform="translate(219.513186 67.300267) scale(0.1 -0.1)">
     <use xlink:href="#DejaVuSans-57"/>
     <use xlink:href="#DejaVuSans-6f" x="93.001953"/>
     <use xlink:href="#DejaVuSans-72" x="154.183594"/>
     <use xlink:href="#DejaVuSans-6b" x="195.296875"/>
    </g>
   </g>
   <g id="text_13">
    <!-- Retire -->
    <g transform="translate(277.872252 67.300267) scale(0.1 -0.1)">
     <use xlink:href="#DejaVuSans-52"/>
     <use xlink:href="#DejaVuSans-65" x="64.982422"/>
     <use xlink:href="#DejaVuSans-74" x="126.505859"/>
     <use xlink:href="#DejaVuSans-69" x="165.714844"/>
     <use xlink:href="#DejaVuSans-72" x="193.498047"/>
     <use xlink:href="#DejaVuSans-65" x="232.361328"/>
    </g>
   </g>
   <g id="patch_9">
    <path d="M 72.372002 161.066667 
Q 102.795169 161.066667 133.218336 161.066667 
" style="fill: none; opacity: 0.2; stroke: #000000; stroke-linecap: round"/>
    <path d="M 72.372002 151.066667 
L 72.372002 151.066667 
L 72.372002 171.066667 
L 72.372002 171.066667 
" style="fill: none; opacity: 0.2; stroke: #000000; stroke-linecap: round"/>
    <path d="M 133.218336 171.066667 
L 133.218336 171.066667 
L 133.218336 151.066667 
L 133.218336 151.066667 
" style="fill: none; opacity: 0.2; stroke: #000000; stroke-linecap: round"/>
   </g>
   <g id="patch_10">
    <path d="M 59.402529 161.066667 
Q 63.887548 161.066667 68.372567 161.066667 
" style="fill: none; opacity: 0.2; stroke-dasharray: 1,1.65; stroke-dashoffset: 0; stroke: #000000; stroke-linecap: round"/>
   </g>
   <g id="patch_11">
    <path d="M 266.902223 40.853333 
Q 297.32539 40.853333 327.748558 40.853333 
" style="fill: none; opacity: 0.2; stroke: #000000; stroke-linecap: round"/>
    <path d="M 266.902223 30.853333 
L 266.902223 30.853333 
L 266.902223 50.853333 
L 266.902223 50.853333 
" style="fill: none; opacity: 0.2; stroke: #000000; stroke-linecap: round"/>
    <path d="M 327.748558 50.853333 
L 327.748558 50.853333 
L 327.748558 30.853333 
L 327.748558 30.853333 
" style="fill: none; opacity: 0.2; stroke: #000000; stroke-linecap: round"/>
   </g>
   <g id="patch_12">
    <path d="M 331.744839 40.853333 
Q 336.229858 40.853333 340.714877 40.853333 
" style="fill: none; opacity: 0.2; stroke-dasharray: 1,1.65; stroke-dashoffset: 0; stroke: #000000; stroke-linecap: round"/>
   </g>
   <g id="patch_13">
    <path d="M 58.428893 191.12 
Q 202.813945 191.12 346.639979 191.12 
" style="fill: none; stroke: #000000; stroke-width: 0.5; stroke-linecap: round"/>
    <path d="M 342.639979 189.12 
L 346.639979 191.12 
L 342.639979 193.12 
z
" style="stroke: #000000; stroke-width: 0.5; stroke-linecap: round"/>
   </g>
   <g id="patch_14">
    <path d="M 57.404668 190.925114 
Q 57.404668 101.861633 57.404668 13.35717 
" style="fill: none; stroke: #000000; stroke-width: 0.5; stroke-linecap: round"/>
    <path d="M 55.404668 17.35717 
L 57.404668 13.35717 
L 59.404668 17.35717 
z
" style="stroke: #000000; stroke-width: 0.5; stroke-linecap: round"/>
   </g>
  </g>
 </g>
</svg>
