<?xml version="1.0" encoding="utf-8" standalone="no"?>
<!DOCTYPE svg PUBLIC "-//W3C//DTD SVG 1.1//EN"
  "http://www.w3.org/Graphics/SVG/1.1/DTD/svg11.dtd">
<svg xmlns:xlink="http://www.w3.org/1999/xlink" width="396pt" height="252pt" viewBox="0 0 396 252" xmlns="http://www.w3.org/2000/svg" version="1.1">
 <metadata>
  <rdf:RDF xmlns:dc="http://purl.org/dc/elements/1.1/" xmlns:cc="http://creativecommons.org/ns#" xmlns:rdf="http://www.w3.org/1999/02/22-rdf-syntax-ns#">
   <cc:Work>
    <dc:type rdf:resource="http://purl.org/dc/dcmitype/StillImage"/>
    <dc:date>2024-03-24T22:39:50.914197</dc:date>
    <dc:format>image/svg+xml</dc:format>
    <dc:creator>
     <cc:Agent>
      <dc:title>Matplotlib v3.8.3, https://matplotlib.org/</dc:title>
     </cc:Agent>
    </dc:creator>
   </cc:Work>
  </rdf:RDF>
 </metadata>
 <defs>
  <style type="text/css">*{stroke-linejoin: round; stroke-linecap: butt}</style>
 </defs>
 <g id="figure_1">
  <g id="patch_1">
   <path d="M 0 252 
L 396 252 
L 396 0 
L 0 0 
L 0 252 
z
" style="fill: none"/>
  </g>
  <g id="axes_1">
   <g id="patch_2">
    <path d="M 12.24 220.808 
L 381.521821 220.808 
L 381.521821 19.8 
L 12.24 19.8 
L 12.24 220.808 
z
" style="fill: none"/>
   </g>
   <g id="matplotlib.axis_1">
    <g id="xtick_1">
     <g id="line2d_1">
      <defs>
       <path id="m7e97cd23e0" d="M 0 0 
L 0 3.5 
" style="stroke: #000000; stroke-width: 0.8"/>
      </defs>
      <g>
       <use xlink:href="#m7e97cd23e0" x="185.340854" y="220.808" style="stroke: #000000; stroke-width: 0.8"/>
      </g>
     </g>
     <g id="text_1">
      <!-- $k^*$ -->
      <g transform="translate(178.790854 235.406438) scale(0.1 -0.1)">
       <defs>
        <path id="DejaVuSans-Oblique-6b" d="M 1172 4863 
L 1747 4863 
L 1197 2028 
L 3169 3500 
L 3916 3500 
L 1716 1825 
L 3322 0 
L 2625 0 
L 1131 1709 
L 800 0 
L 225 0 
L 1172 4863 
z
" transform="scale(0.015625)"/>
        <path id="DejaVuSans-2a" d="M 3009 3897 
L 1888 3291 
L 3009 2681 
L 2828 2375 
L 1778 3009 
L 1778 1831 
L 1422 1831 
L 1422 3009 
L 372 2375 
L 191 2681 
L 1313 3291 
L 191 3897 
L 372 4206 
L 1422 3572 
L 1422 4750 
L 1778 4750 
L 1778 3572 
L 2828 4206 
L 3009 3897 
z
" transform="scale(0.015625)"/>
       </defs>
       <use xlink:href="#DejaVuSans-Oblique-6b" transform="translate(0 0.765625)"/>
       <use xlink:href="#DejaVuSans-2a" transform="translate(78.99556 39.046875) scale(0.7)"/>
      </g>
     </g>
    </g>
   </g>
   <g id="matplotlib.axis_2"/>
   <g id="line2d_2">
    <path d="M 12.24 220.808 
L 13.979707 208.467935 
L 15.719414 203.356513 
L 17.459121 199.434381 
L 19.198828 196.127871 
L 20.938535 193.214777 
L 22.678242 190.581138 
L 26.157657 185.905026 
L 29.637071 181.785289 
L 33.116485 178.060762 
L 36.595899 174.635706 
L 40.075313 171.447741 
L 45.294434 167.018905 
L 50.513556 162.927966 
L 55.732677 159.107677 
L 62.691505 154.354718 
L 69.650333 149.919725 
L 76.609162 145.746317 
L 85.307697 140.835241 
L 94.006232 136.208779 
L 102.704768 131.822528 
L 113.14301 126.828867 
L 123.581253 122.087483 
L 135.759202 116.828767 
L 147.937152 111.8235 
L 161.854808 106.370948 
L 175.772465 101.166634 
L 191.429828 95.570022 
L 207.087192 90.213031 
L 224.484263 84.507531 
L 241.881334 79.031451 
L 261.018111 73.242289 
L 281.894596 67.175434 
L 302.771081 61.33922 
L 325.387273 55.248659 
L 349.743172 48.930788 
L 358.441707 46.729966 
L 358.441707 46.729966 
" clip-path="url(#pbf045ddc56)" style="fill: none; stroke: #000000; stroke-width: 1.5; stroke-linecap: square"/>
   </g>
   <g id="line2d_3">
    <path d="M 12.24 220.808 
L 324.163029 -1 
L 324.163029 -1 
" clip-path="url(#pbf045ddc56)" style="fill: none; stroke-dasharray: 5.55,2.4; stroke-dashoffset: 0; stroke: #000000; stroke-width: 1.5"/>
   </g>
   <g id="line2d_4">
    <path d="M 185.340854 220.808 
L 185.340854 19.8 
" clip-path="url(#pbf045ddc56)" style="fill: none; stroke-dasharray: 1.5,2.475; stroke-dashoffset: 0; stroke: #808080; stroke-opacity: 0.5; stroke-width: 1.5"/>
   </g>
   <g id="text_2">
    <!-- $sf(k)$ -->
    <g transform="translate(358.441707 39.9008) scale(0.1 -0.1)">
     <defs>
      <path id="DejaVuSans-Oblique-73" d="M 3200 3397 
L 3091 2853 
Q 2863 2978 2609 3040 
Q 2356 3103 2088 3103 
Q 1634 3103 1373 2948 
Q 1113 2794 1113 2528 
Q 1113 2219 1719 2053 
Q 1766 2041 1788 2034 
L 1972 1978 
Q 2547 1819 2739 1644 
Q 2931 1469 2931 1166 
Q 2931 609 2489 259 
Q 2047 -91 1331 -91 
Q 1053 -91 747 -37 
Q 441 16 72 128 
L 184 722 
Q 500 559 806 475 
Q 1113 391 1394 391 
Q 1816 391 2080 572 
Q 2344 753 2344 1031 
Q 2344 1331 1650 1516 
L 1591 1531 
L 1394 1581 
Q 956 1697 753 1886 
Q 550 2075 550 2369 
Q 550 2928 970 3256 
Q 1391 3584 2113 3584 
Q 2397 3584 2667 3537 
Q 2938 3491 3200 3397 
z
" transform="scale(0.015625)"/>
      <path id="DejaVuSans-Oblique-66" d="M 3059 4863 
L 2969 4384 
L 2419 4384 
Q 2106 4384 1964 4261 
Q 1822 4138 1753 3809 
L 1691 3500 
L 2638 3500 
L 2553 3053 
L 1606 3053 
L 1013 0 
L 434 0 
L 1031 3053 
L 481 3053 
L 563 3500 
L 1113 3500 
L 1159 3744 
Q 1278 4363 1576 4613 
Q 1875 4863 2516 4863 
L 3059 4863 
z
" transform="scale(0.015625)"/>
      <path id="DejaVuSans-28" d="M 1984 4856 
Q 1566 4138 1362 3434 
Q 1159 2731 1159 2009 
Q 1159 1288 1364 580 
Q 1569 -128 1984 -844 
L 1484 -844 
Q 1016 -109 783 600 
Q 550 1309 550 2009 
Q 550 2706 781 3412 
Q 1013 4119 1484 4856 
L 1984 4856 
z
" transform="scale(0.015625)"/>
      <path id="DejaVuSans-29" d="M 513 4856 
L 1013 4856 
Q 1481 4119 1714 3412 
Q 1947 2706 1947 2009 
Q 1947 1309 1714 600 
Q 1481 -109 1013 -844 
L 513 -844 
Q 928 -128 1133 580 
Q 1338 1288 1338 2009 
Q 1338 2731 1133 3434 
Q 928 4138 513 4856 
z
" transform="scale(0.015625)"/>
     </defs>
     <use xlink:href="#DejaVuSans-Oblique-73" transform="translate(0 0.015625)"/>
     <use xlink:href="#DejaVuSans-Oblique-66" transform="translate(52.099609 0.015625)"/>
     <use xlink:href="#DejaVuSans-28" transform="translate(87.304688 0.015625)"/>
     <use xlink:href="#DejaVuSans-Oblique-6b" transform="translate(126.318359 0.015625)"/>
     <use xlink:href="#DejaVuSans-29" transform="translate(184.228516 0.015625)"/>
    </g>
   </g>
   <g id="text_3">
    <!-- $(n+\delta)k$ -->
    <g transform="translate(300.741423 19.8) scale(0.1 -0.1)">
     <defs>
      <path id="DejaVuSans-Oblique-6e" d="M 3566 2113 
L 3156 0 
L 2578 0 
L 2988 2091 
Q 3016 2238 3031 2350 
Q 3047 2463 3047 2528 
Q 3047 2791 2881 2937 
Q 2716 3084 2419 3084 
Q 1956 3084 1622 2776 
Q 1288 2469 1184 1941 
L 800 0 
L 225 0 
L 903 3500 
L 1478 3500 
L 1363 2950 
Q 1603 3253 1940 3418 
Q 2278 3584 2650 3584 
Q 3113 3584 3367 3334 
Q 3622 3084 3622 2631 
Q 3622 2519 3608 2391 
Q 3594 2263 3566 2113 
z
" transform="scale(0.015625)"/>
      <path id="DejaVuSans-2b" d="M 2944 4013 
L 2944 2272 
L 4684 2272 
L 4684 1741 
L 2944 1741 
L 2944 0 
L 2419 0 
L 2419 1741 
L 678 1741 
L 678 2272 
L 2419 2272 
L 2419 4013 
L 2944 4013 
z
" transform="scale(0.015625)"/>
      <path id="DejaVuSans-Oblique-3b4" d="M 3472 4053 
Q 3197 4272 2450 4272 
Q 1659 4272 1588 3906 
Q 1531 3619 2328 3469 
Q 2953 3353 3253 3003 
Q 3616 2581 3447 1716 
Q 3284 888 2763 400 
Q 2238 -91 1488 -91 
Q 741 -91 406 400 
Q 72 888 241 1747 
Q 363 2384 891 2900 
Q 1097 3100 1353 3213 
Q 913 3459 1000 3900 
Q 1166 4750 2544 4750 
Q 3234 4750 3566 4531 
L 3472 4053 
z
M 1753 3056 
Q 1525 2966 1306 2738 
Q 969 2384 847 1747 
Q 722 1113 919 756 
Q 1119 397 1584 397 
Q 2044 397 2381 759 
Q 2722 1122 2838 1716 
Q 2956 2338 2731 2638 
Q 2491 2959 2103 2994 
Q 1906 3013 1753 3056 
z
" transform="scale(0.015625)"/>
     </defs>
     <use xlink:href="#DejaVuSans-28" transform="translate(0 0.015625)"/>
     <use xlink:href="#DejaVuSans-Oblique-6e" transform="translate(39.013672 0.015625)"/>
     <use xlink:href="#DejaVuSans-2b" transform="translate(121.875 0.015625)"/>
     <use xlink:href="#DejaVuSans-Oblique-3b4" transform="translate(225.146484 0.015625)"/>
     <use xlink:href="#DejaVuSans-29" transform="translate(286.328125 0.015625)"/>
     <use xlink:href="#DejaVuSans-Oblique-6b" transform="translate(325.341797 0.015625)"/>
    </g>
   </g>
   <g id="text_4">
    <!-- $\dot{k}&gt;0$ -->
    <g transform="translate(69.940285 210.7576) scale(0.1 -0.1)">
     <defs>
      <path id="DejaVuSans-307" d="M -1894 4863 
L -1319 4863 
L -1319 4134 
L -1894 4134 
L -1894 4863 
z
M -1600 3584 
L -1600 3584 
z
" transform="scale(0.015625)"/>
      <path id="DejaVuSans-3e" d="M 678 3150 
L 678 3719 
L 4684 2266 
L 4684 1747 
L 678 294 
L 678 863 
L 3897 2003 
L 678 3150 
z
" transform="scale(0.015625)"/>
      <path id="DejaVuSans-30" d="M 2034 4250 
Q 1547 4250 1301 3770 
Q 1056 3291 1056 2328 
Q 1056 1369 1301 889 
Q 1547 409 2034 409 
Q 2525 409 2770 889 
Q 3016 1369 3016 2328 
Q 3016 3291 2770 3770 
Q 2525 4250 2034 4250 
z
M 2034 4750 
Q 2819 4750 3233 4129 
Q 3647 3509 3647 2328 
Q 3647 1150 3233 529 
Q 2819 -91 2034 -91 
Q 1250 -91 836 529 
Q 422 1150 422 2328 
Q 422 3509 836 4129 
Q 1250 4750 2034 4750 
z
" transform="scale(0.015625)"/>
     </defs>
     <use xlink:href="#DejaVuSans-307" transform="translate(61.071289 33.015625)"/>
     <use xlink:href="#DejaVuSans-Oblique-6b" transform="translate(0 0.53125)"/>
     <use xlink:href="#DejaVuSans-3e" transform="translate(77.392578 0.53125)"/>
     <use xlink:href="#DejaVuSans-30" transform="translate(180.664062 0.53125)"/>
    </g>
   </g>
   <g id="text_5">
    <!-- $\dot{k}&lt;0$ -->
    <g transform="translate(243.041138 210.7576) scale(0.1 -0.1)">
     <defs>
      <path id="DejaVuSans-3c" d="M 4684 3150 
L 1459 2003 
L 4684 863 
L 4684 294 
L 678 1747 
L 678 2266 
L 4684 3719 
L 4684 3150 
z
" transform="scale(0.015625)"/>
     </defs>
     <use xlink:href="#DejaVuSans-307" transform="translate(61.071289 33.015625)"/>
     <use xlink:href="#DejaVuSans-Oblique-6b" transform="translate(0 0.53125)"/>
     <use xlink:href="#DejaVuSans-3c" transform="translate(77.392578 0.53125)"/>
     <use xlink:href="#DejaVuSans-30" transform="translate(180.664062 0.53125)"/>
    </g>
   </g>
   <g id="patch_3">
    <path d="M 13.319324 220.808 
Q 196.421915 220.808 378.96549 220.808 
" style="fill: none; stroke: #000000; stroke-width: 0.5; stroke-linecap: round"/>
    <path d="M 374.96549 218.808 
L 378.96549 220.808 
L 374.96549 222.808 
z
" style="stroke: #000000; stroke-width: 0.5; stroke-linecap: round"/>
   </g>
   <g id="patch_4">
    <path d="M 12.24 219.613497 
Q 12.24 120.705267 12.24 22.356054 
" style="fill: none; stroke: #000000; stroke-width: 0.5; stroke-linecap: round"/>
    <path d="M 10.24 26.356054 
L 12.24 22.356054 
L 14.24 26.356054 
z
" style="stroke: #000000; stroke-width: 0.5; stroke-linecap: round"/>
   </g>
   <g id="patch_5">
    <path d="M 175.798331 220.808 
Q 179.570144 220.808 182.223922 220.808 
" style="fill: none; opacity: 0.2; stroke: #ff0000; stroke-linecap: round"/>
    <path d="M 178.223922 218.808 
L 182.223922 220.808 
L 178.223922 222.808 
" style="fill: none; opacity: 0.2; stroke: #ff0000; stroke-linecap: round"/>
   </g>
   <g id="patch_6">
    <path d="M 194.883376 220.808 
Q 191.111564 220.808 188.457785 220.808 
" style="fill: none; opacity: 0.2; stroke: #ff0000; stroke-linecap: round"/>
    <path d="M 192.457785 222.808 
L 188.457785 220.808 
L 192.457785 218.808 
" style="fill: none; opacity: 0.2; stroke: #ff0000; stroke-linecap: round"/>
   </g>
   <g id="patch_7">
    <path d="M 166.68776 220.808 
Q 170.459572 220.808 173.113351 220.808 
" style="fill: none; opacity: 0.226671; stroke: #ff0000; stroke-linecap: round"/>
    <path d="M 169.113351 218.808 
L 173.113351 220.808 
L 169.113351 222.808 
" style="fill: none; opacity: 0.226671; stroke: #ff0000; stroke-linecap: round"/>
   </g>
   <g id="patch_8">
    <path d="M 203.993948 220.808 
Q 200.222135 220.808 197.568357 220.808 
" style="fill: none; opacity: 0.226671; stroke: #ff0000; stroke-linecap: round"/>
    <path d="M 201.568357 222.808 
L 197.568357 220.808 
L 201.568357 218.808 
" style="fill: none; opacity: 0.226671; stroke: #ff0000; stroke-linecap: round"/>
   </g>
   <g id="patch_9">
    <path d="M 157.577189 220.808 
Q 161.349001 220.808 164.00278 220.808 
" style="fill: none; opacity: 0.254095; stroke: #ff0000; stroke-linecap: round"/>
    <path d="M 160.00278 218.808 
L 164.00278 220.808 
L 160.00278 222.808 
" style="fill: none; opacity: 0.254095; stroke: #ff0000; stroke-linecap: round"/>
   </g>
   <g id="patch_10">
    <path d="M 213.104519 220.808 
Q 209.332706 220.808 206.678928 220.808 
" style="fill: none; opacity: 0.254095; stroke: #ff0000; stroke-linecap: round"/>
    <path d="M 210.678928 222.808 
L 206.678928 220.808 
L 210.678928 218.808 
" style="fill: none; opacity: 0.254095; stroke: #ff0000; stroke-linecap: round"/>
   </g>
   <g id="patch_11">
    <path d="M 148.466617 220.808 
Q 152.23843 220.808 154.892208 220.808 
" style="fill: none; opacity: 0.282337; stroke: #ff0000; stroke-linecap: round"/>
    <path d="M 150.892208 218.808 
L 154.892208 220.808 
L 150.892208 222.808 
" style="fill: none; opacity: 0.282337; stroke: #ff0000; stroke-linecap: round"/>
   </g>
   <g id="patch_12">
    <path d="M 222.21509 220.808 
Q 218.443278 220.808 215.789499 220.808 
" style="fill: none; opacity: 0.282337; stroke: #ff0000; stroke-linecap: round"/>
    <path d="M 219.789499 222.808 
L 215.789499 220.808 
L 219.789499 218.808 
" style="fill: none; opacity: 0.282337; stroke: #ff0000; stroke-linecap: round"/>
   </g>
   <g id="patch_13">
    <path d="M 139.356046 220.808 
Q 143.127859 220.808 145.781637 220.808 
" style="fill: none; opacity: 0.311477; stroke: #ff0000; stroke-linecap: round"/>
    <path d="M 141.781637 218.808 
L 145.781637 220.808 
L 141.781637 222.808 
" style="fill: none; opacity: 0.311477; stroke: #ff0000; stroke-linecap: round"/>
   </g>
   <g id="patch_14">
    <path d="M 231.325661 220.808 
Q 227.553849 220.808 224.90007 220.808 
" style="fill: none; opacity: 0.311477; stroke: #ff0000; stroke-linecap: round"/>
    <path d="M 228.90007 222.808 
L 224.90007 220.808 
L 228.90007 218.808 
" style="fill: none; opacity: 0.311477; stroke: #ff0000; stroke-linecap: round"/>
   </g>
   <g id="patch_15">
    <path d="M 130.245475 220.808 
Q 134.017287 220.808 136.671066 220.808 
" style="fill: none; opacity: 0.341605; stroke: #ff0000; stroke-linecap: round"/>
    <path d="M 132.671066 218.808 
L 136.671066 220.808 
L 132.671066 222.808 
" style="fill: none; opacity: 0.341605; stroke: #ff0000; stroke-linecap: round"/>
   </g>
   <g id="patch_16">
    <path d="M 240.436233 220.808 
Q 236.66442 220.808 234.010642 220.808 
" style="fill: none; opacity: 0.341605; stroke: #ff0000; stroke-linecap: round"/>
    <path d="M 238.010642 222.808 
L 234.010642 220.808 
L 238.010642 218.808 
" style="fill: none; opacity: 0.341605; stroke: #ff0000; stroke-linecap: round"/>
   </g>
   <g id="patch_17">
    <path d="M 121.134904 220.808 
Q 124.906716 220.808 127.560495 220.808 
" style="fill: none; opacity: 0.37283; stroke: #ff0000; stroke-linecap: round"/>
    <path d="M 123.560495 218.808 
L 127.560495 220.808 
L 123.560495 222.808 
" style="fill: none; opacity: 0.37283; stroke: #ff0000; stroke-linecap: round"/>
   </g>
   <g id="patch_18">
    <path d="M 249.546804 220.808 
Q 245.774991 220.808 243.121213 220.808 
" style="fill: none; opacity: 0.37283; stroke: #ff0000; stroke-linecap: round"/>
    <path d="M 247.121213 222.808 
L 243.121213 220.808 
L 247.121213 218.808 
" style="fill: none; opacity: 0.37283; stroke: #ff0000; stroke-linecap: round"/>
   </g>
   <g id="patch_19">
    <path d="M 112.024332 220.808 
Q 115.796145 220.808 118.449923 220.808 
" style="fill: none; opacity: 0.405281; stroke: #ff0000; stroke-linecap: round"/>
    <path d="M 114.449923 218.808 
L 118.449923 220.808 
L 114.449923 222.808 
" style="fill: none; opacity: 0.405281; stroke: #ff0000; stroke-linecap: round"/>
   </g>
   <g id="patch_20">
    <path d="M 258.657375 220.808 
Q 254.885563 220.808 252.231784 220.808 
" style="fill: none; opacity: 0.405281; stroke: #ff0000; stroke-linecap: round"/>
    <path d="M 256.231784 222.808 
L 252.231784 220.808 
L 256.231784 218.808 
" style="fill: none; opacity: 0.405281; stroke: #ff0000; stroke-linecap: round"/>
   </g>
   <g id="patch_21">
    <path d="M 102.913761 220.808 
Q 106.685574 220.808 109.339352 220.808 
" style="fill: none; opacity: 0.439114; stroke: #ff0000; stroke-linecap: round"/>
    <path d="M 105.339352 218.808 
L 109.339352 220.808 
L 105.339352 222.808 
" style="fill: none; opacity: 0.439114; stroke: #ff0000; stroke-linecap: round"/>
   </g>
   <g id="patch_22">
    <path d="M 267.767946 220.808 
Q 263.996134 220.808 261.342355 220.808 
" style="fill: none; opacity: 0.439114; stroke: #ff0000; stroke-linecap: round"/>
    <path d="M 265.342355 222.808 
L 261.342355 220.808 
L 265.342355 218.808 
" style="fill: none; opacity: 0.439114; stroke: #ff0000; stroke-linecap: round"/>
   </g>
   <g id="patch_23">
    <path d="M 93.80319 220.808 
Q 97.575002 220.808 100.228781 220.808 
" style="fill: none; opacity: 0.474524; stroke: #ff0000; stroke-linecap: round"/>
    <path d="M 96.228781 218.808 
L 100.228781 220.808 
L 96.228781 222.808 
" style="fill: none; opacity: 0.474524; stroke: #ff0000; stroke-linecap: round"/>
   </g>
   <g id="patch_24">
    <path d="M 276.878518 220.808 
Q 273.106705 220.808 270.452927 220.808 
" style="fill: none; opacity: 0.474524; stroke: #ff0000; stroke-linecap: round"/>
    <path d="M 274.452927 222.808 
L 270.452927 220.808 
L 274.452927 218.808 
" style="fill: none; opacity: 0.474524; stroke: #ff0000; stroke-linecap: round"/>
   </g>
   <g id="patch_25">
    <path d="M 84.692619 220.808 
Q 88.464431 220.808 91.11821 220.808 
" style="fill: none; opacity: 0.511753; stroke: #ff0000; stroke-linecap: round"/>
    <path d="M 87.11821 218.808 
L 91.11821 220.808 
L 87.11821 222.808 
" style="fill: none; opacity: 0.511753; stroke: #ff0000; stroke-linecap: round"/>
   </g>
   <g id="patch_26">
    <path d="M 285.989089 220.808 
Q 282.217276 220.808 279.563498 220.808 
" style="fill: none; opacity: 0.511753; stroke: #ff0000; stroke-linecap: round"/>
    <path d="M 283.563498 222.808 
L 279.563498 220.808 
L 283.563498 218.808 
" style="fill: none; opacity: 0.511753; stroke: #ff0000; stroke-linecap: round"/>
   </g>
   <g id="patch_27">
    <path d="M 75.582047 220.808 
Q 79.35386 220.808 82.007638 220.808 
" style="fill: none; opacity: 0.551114; stroke: #ff0000; stroke-linecap: round"/>
    <path d="M 78.007638 218.808 
L 82.007638 220.808 
L 78.007638 222.808 
" style="fill: none; opacity: 0.551114; stroke: #ff0000; stroke-linecap: round"/>
   </g>
   <g id="patch_28">
    <path d="M 295.09966 220.808 
Q 291.327848 220.808 288.674069 220.808 
" style="fill: none; opacity: 0.551114; stroke: #ff0000; stroke-linecap: round"/>
    <path d="M 292.674069 222.808 
L 288.674069 220.808 
L 292.674069 218.808 
" style="fill: none; opacity: 0.551114; stroke: #ff0000; stroke-linecap: round"/>
   </g>
   <g id="patch_29">
    <path d="M 66.471476 220.808 
Q 70.243289 220.808 72.897067 220.808 
" style="fill: none; opacity: 0.593023; stroke: #ff0000; stroke-linecap: round"/>
    <path d="M 68.897067 218.808 
L 72.897067 220.808 
L 68.897067 222.808 
" style="fill: none; opacity: 0.593023; stroke: #ff0000; stroke-linecap: round"/>
   </g>
   <g id="patch_30">
    <path d="M 304.210231 220.808 
Q 300.438419 220.808 297.78464 220.808 
" style="fill: none; opacity: 0.593023; stroke: #ff0000; stroke-linecap: round"/>
    <path d="M 301.78464 222.808 
L 297.78464 220.808 
L 301.78464 218.808 
" style="fill: none; opacity: 0.593023; stroke: #ff0000; stroke-linecap: round"/>
   </g>
   <g id="patch_31">
    <path d="M 57.360905 220.808 
Q 61.132717 220.808 63.786496 220.808 
" style="fill: none; opacity: 0.638049; stroke: #ff0000; stroke-linecap: round"/>
    <path d="M 59.786496 218.808 
L 63.786496 220.808 
L 59.786496 222.808 
" style="fill: none; opacity: 0.638049; stroke: #ff0000; stroke-linecap: round"/>
   </g>
   <g id="patch_32">
    <path d="M 313.320803 220.808 
Q 309.54899 220.808 306.895212 220.808 
" style="fill: none; opacity: 0.638049; stroke: #ff0000; stroke-linecap: round"/>
    <path d="M 310.895212 222.808 
L 306.895212 220.808 
L 310.895212 218.808 
" style="fill: none; opacity: 0.638049; stroke: #ff0000; stroke-linecap: round"/>
   </g>
   <g id="patch_33">
    <path d="M 48.250334 220.808 
Q 52.022146 220.808 54.675925 220.808 
" style="fill: none; opacity: 0.687011; stroke: #ff0000; stroke-linecap: round"/>
    <path d="M 50.675925 218.808 
L 54.675925 220.808 
L 50.675925 222.808 
" style="fill: none; opacity: 0.687011; stroke: #ff0000; stroke-linecap: round"/>
   </g>
   <g id="patch_34">
    <path d="M 322.431374 220.808 
Q 318.659561 220.808 316.005783 220.808 
" style="fill: none; opacity: 0.687011; stroke: #ff0000; stroke-linecap: round"/>
    <path d="M 320.005783 222.808 
L 316.005783 220.808 
L 320.005783 218.808 
" style="fill: none; opacity: 0.687011; stroke: #ff0000; stroke-linecap: round"/>
   </g>
   <g id="patch_35">
    <path d="M 39.139762 220.808 
Q 42.911575 220.808 45.565353 220.808 
" style="fill: none; opacity: 0.741169; stroke: #ff0000; stroke-linecap: round"/>
    <path d="M 41.565353 218.808 
L 45.565353 220.808 
L 41.565353 222.808 
" style="fill: none; opacity: 0.741169; stroke: #ff0000; stroke-linecap: round"/>
   </g>
   <g id="patch_36">
    <path d="M 331.541945 220.808 
Q 327.770133 220.808 325.116354 220.808 
" style="fill: none; opacity: 0.741169; stroke: #ff0000; stroke-linecap: round"/>
    <path d="M 329.116354 222.808 
L 325.116354 220.808 
L 329.116354 218.808 
" style="fill: none; opacity: 0.741169; stroke: #ff0000; stroke-linecap: round"/>
   </g>
   <g id="patch_37">
    <path d="M 30.029191 220.808 
Q 33.801004 220.808 36.454782 220.808 
" style="fill: none; opacity: 0.80264; stroke: #ff0000; stroke-linecap: round"/>
    <path d="M 32.454782 218.808 
L 36.454782 220.808 
L 32.454782 222.808 
" style="fill: none; opacity: 0.80264; stroke: #ff0000; stroke-linecap: round"/>
   </g>
   <g id="patch_38">
    <path d="M 340.652516 220.808 
Q 336.880704 220.808 334.226925 220.808 
" style="fill: none; opacity: 0.80264; stroke: #ff0000; stroke-linecap: round"/>
    <path d="M 338.226925 222.808 
L 334.226925 220.808 
L 338.226925 218.808 
" style="fill: none; opacity: 0.80264; stroke: #ff0000; stroke-linecap: round"/>
   </g>
   <g id="patch_39">
    <path d="M 20.91862 220.808 
Q 24.690432 220.808 27.344211 220.808 
" style="fill: none; opacity: 0.875557; stroke: #ff0000; stroke-linecap: round"/>
    <path d="M 23.344211 218.808 
L 27.344211 220.808 
L 23.344211 222.808 
" style="fill: none; opacity: 0.875557; stroke: #ff0000; stroke-linecap: round"/>
   </g>
   <g id="patch_40">
    <path d="M 349.763088 220.808 
Q 345.991275 220.808 343.337497 220.808 
" style="fill: none; opacity: 0.875557; stroke: #ff0000; stroke-linecap: round"/>
    <path d="M 347.337497 222.808 
L 343.337497 220.808 
L 347.337497 218.808 
" style="fill: none; opacity: 0.875557; stroke: #ff0000; stroke-linecap: round"/>
   </g>
   <g id="patch_41">
    <path d="M 14.237386 220.808 
Q 16.795424 220.808 18.235427 220.808 
" style="fill: none; opacity: 0.970584; stroke: #ff0000; stroke-linecap: round"/>
    <path d="M 14.235427 218.808 
L 18.235427 220.808 
L 14.235427 222.808 
" style="fill: none; opacity: 0.970584; stroke: #ff0000; stroke-linecap: round"/>
   </g>
   <g id="patch_42">
    <path d="M 356.444321 220.808 
Q 353.886284 220.808 352.44628 220.808 
" style="fill: none; opacity: 0.970584; stroke: #ff0000; stroke-linecap: round"/>
    <path d="M 356.44628 222.808 
L 352.44628 220.808 
L 356.44628 218.808 
" style="fill: none; opacity: 0.970584; stroke: #ff0000; stroke-linecap: round"/>
   </g>
   <g id="patch_43">
    <path d="M 12.24 220.808 
Q 12.24 220.808 12.24 220.808 
" style="fill: none; stroke: #ff0000; stroke-linecap: round"/>
   </g>
   <g id="patch_44">
    <path d="M 358.441707 220.808 
Q 358.441707 220.808 358.441707 220.808 
" style="fill: none; stroke: #ff0000; stroke-linecap: round"/>
   </g>
  </g>
 </g>
 <defs>
  <clipPath id="pbf045ddc56">
   <rect x="12.24" y="19.8" width="369.281821" height="201.008"/>
  </clipPath>
 </defs>
</svg>
