<?xml version="1.0" encoding="utf-8" standalone="no"?>
<!DOCTYPE svg PUBLIC "-//W3C//DTD SVG 1.1//EN"
  "http://www.w3.org/Graphics/SVG/1.1/DTD/svg11.dtd">
<!-- Created with matplotlib (https://matplotlib.org/) -->
<svg height="302.345312pt" version="1.1" viewBox="0 0 381.501562 302.345312" width="381.501562pt" xmlns="http://www.w3.org/2000/svg" xmlns:xlink="http://www.w3.org/1999/xlink">
 <defs>
  <style type="text/css">
*{stroke-linecap:butt;stroke-linejoin:round;}
  </style>
 </defs>
 <g id="figure_1">
  <g id="patch_1">
   <path d="M 0 302.345312 
L 381.501562 302.345312 
L 381.501562 0 
L 0 0 
z
" style="fill:none;"/>
  </g>
  <g id="axes_1">
   <g id="patch_2">
    <path d="M 39.501563 279 
L 374.301562 279 
L 374.301562 7.2 
L 39.501563 7.2 
z
" style="fill:#dcdcdc;"/>
   </g>
   <g id="matplotlib.axis_1">
    <g id="xtick_1">
     <g id="line2d_1">
      <path clip-path="url(#p97e5f155e6)" d="M 85.156108 279 
L 85.156108 7.2 
" style="fill:none;stroke:#ffffff;stroke-linecap:round;"/>
     </g>
     <g id="line2d_2"/>
     <g id="text_1">
      <!-- −4 -->
      <defs>
       <path d="M 52.828125 31.203125 
L 5.5625 31.203125 
L 5.5625 39.40625 
L 52.828125 39.40625 
z
" id="ArialMT-8722"/>
       <path d="M 32.328125 0 
L 32.328125 17.140625 
L 1.265625 17.140625 
L 1.265625 25.203125 
L 33.9375 71.578125 
L 41.109375 71.578125 
L 41.109375 25.203125 
L 50.78125 25.203125 
L 50.78125 17.140625 
L 41.109375 17.140625 
L 41.109375 0 
z
M 32.328125 25.203125 
L 32.328125 57.46875 
L 9.90625 25.203125 
z
" id="ArialMT-52"/>
      </defs>
      <g style="fill:#262626;" transform="translate(79.455327 293.157812)scale(0.1 -0.1)">
       <use xlink:href="#ArialMT-8722"/>
       <use x="58.398438" xlink:href="#ArialMT-52"/>
      </g>
     </g>
    </g>
    <g id="xtick_2">
     <g id="line2d_3">
      <path clip-path="url(#p97e5f155e6)" d="M 146.028835 279 
L 146.028835 7.2 
" style="fill:none;stroke:#ffffff;stroke-linecap:round;"/>
     </g>
     <g id="line2d_4"/>
     <g id="text_2">
      <!-- −2 -->
      <defs>
       <path d="M 50.34375 8.453125 
L 50.34375 0 
L 3.03125 0 
Q 2.9375 3.171875 4.046875 6.109375 
Q 5.859375 10.9375 9.828125 15.625 
Q 13.8125 20.3125 21.34375 26.46875 
Q 33.015625 36.03125 37.109375 41.625 
Q 41.21875 47.21875 41.21875 52.203125 
Q 41.21875 57.421875 37.46875 61 
Q 33.734375 64.59375 27.734375 64.59375 
Q 21.390625 64.59375 17.578125 60.78125 
Q 13.765625 56.984375 13.71875 50.25 
L 4.6875 51.171875 
Q 5.609375 61.28125 11.65625 66.578125 
Q 17.71875 71.875 27.9375 71.875 
Q 38.234375 71.875 44.234375 66.15625 
Q 50.25 60.453125 50.25 52 
Q 50.25 47.703125 48.484375 43.546875 
Q 46.734375 39.40625 42.65625 34.8125 
Q 38.578125 30.21875 29.109375 22.21875 
Q 21.1875 15.578125 18.9375 13.203125 
Q 16.703125 10.84375 15.234375 8.453125 
z
" id="ArialMT-50"/>
      </defs>
      <g style="fill:#262626;" transform="translate(140.328054 293.157812)scale(0.1 -0.1)">
       <use xlink:href="#ArialMT-8722"/>
       <use x="58.398438" xlink:href="#ArialMT-50"/>
      </g>
     </g>
    </g>
    <g id="xtick_3">
     <g id="line2d_5">
      <path clip-path="url(#p97e5f155e6)" d="M 206.901562 279 
L 206.901562 7.2 
" style="fill:none;stroke:#ffffff;stroke-linecap:round;"/>
     </g>
     <g id="line2d_6"/>
     <g id="text_3">
      <!-- 0 -->
      <defs>
       <path d="M 4.15625 35.296875 
Q 4.15625 48 6.765625 55.734375 
Q 9.375 63.484375 14.515625 67.671875 
Q 19.671875 71.875 27.484375 71.875 
Q 33.25 71.875 37.59375 69.546875 
Q 41.9375 67.234375 44.765625 62.859375 
Q 47.609375 58.5 49.21875 52.21875 
Q 50.828125 45.953125 50.828125 35.296875 
Q 50.828125 22.703125 48.234375 14.96875 
Q 45.65625 7.234375 40.5 3 
Q 35.359375 -1.21875 27.484375 -1.21875 
Q 17.140625 -1.21875 11.234375 6.203125 
Q 4.15625 15.140625 4.15625 35.296875 
z
M 13.1875 35.296875 
Q 13.1875 17.671875 17.3125 11.828125 
Q 21.4375 6 27.484375 6 
Q 33.546875 6 37.671875 11.859375 
Q 41.796875 17.71875 41.796875 35.296875 
Q 41.796875 52.984375 37.671875 58.78125 
Q 33.546875 64.59375 27.390625 64.59375 
Q 21.34375 64.59375 17.71875 59.46875 
Q 13.1875 52.9375 13.1875 35.296875 
z
" id="ArialMT-48"/>
      </defs>
      <g style="fill:#262626;" transform="translate(204.121094 293.157812)scale(0.1 -0.1)">
       <use xlink:href="#ArialMT-48"/>
      </g>
     </g>
    </g>
    <g id="xtick_4">
     <g id="line2d_7">
      <path clip-path="url(#p97e5f155e6)" d="M 267.77429 279 
L 267.77429 7.2 
" style="fill:none;stroke:#ffffff;stroke-linecap:round;"/>
     </g>
     <g id="line2d_8"/>
     <g id="text_4">
      <!-- 2 -->
      <g style="fill:#262626;" transform="translate(264.993821 293.157812)scale(0.1 -0.1)">
       <use xlink:href="#ArialMT-50"/>
      </g>
     </g>
    </g>
    <g id="xtick_5">
     <g id="line2d_9">
      <path clip-path="url(#p97e5f155e6)" d="M 328.647017 279 
L 328.647017 7.2 
" style="fill:none;stroke:#ffffff;stroke-linecap:round;"/>
     </g>
     <g id="line2d_10"/>
     <g id="text_5">
      <!-- 4 -->
      <g style="fill:#262626;" transform="translate(325.866548 293.157812)scale(0.1 -0.1)">
       <use xlink:href="#ArialMT-52"/>
      </g>
     </g>
    </g>
   </g>
   <g id="matplotlib.axis_2">
    <g id="ytick_1">
     <g id="line2d_11">
      <path clip-path="url(#p97e5f155e6)" d="M 39.501563 251.960698 
L 374.301562 251.960698 
" style="fill:none;stroke:#ffffff;stroke-linecap:round;"/>
     </g>
     <g id="line2d_12"/>
     <g id="text_6">
      <!-- −0.75 -->
      <defs>
       <path d="M 9.078125 0 
L 9.078125 10.015625 
L 19.09375 10.015625 
L 19.09375 0 
z
" id="ArialMT-46"/>
       <path d="M 4.734375 62.203125 
L 4.734375 70.65625 
L 51.078125 70.65625 
L 51.078125 63.8125 
Q 44.234375 56.546875 37.515625 44.484375 
Q 30.8125 32.421875 27.15625 19.671875 
Q 24.515625 10.6875 23.78125 0 
L 14.75 0 
Q 14.890625 8.453125 18.0625 20.40625 
Q 21.234375 32.375 27.171875 43.484375 
Q 33.109375 54.59375 39.796875 62.203125 
z
" id="ArialMT-55"/>
       <path d="M 4.15625 18.75 
L 13.375 19.53125 
Q 14.40625 12.796875 18.140625 9.390625 
Q 21.875 6 27.15625 6 
Q 33.5 6 37.890625 10.78125 
Q 42.28125 15.578125 42.28125 23.484375 
Q 42.28125 31 38.0625 35.34375 
Q 33.84375 39.703125 27 39.703125 
Q 22.75 39.703125 19.328125 37.765625 
Q 15.921875 35.84375 13.96875 32.765625 
L 5.71875 33.84375 
L 12.640625 70.609375 
L 48.25 70.609375 
L 48.25 62.203125 
L 19.671875 62.203125 
L 15.828125 42.96875 
Q 22.265625 47.46875 29.34375 47.46875 
Q 38.71875 47.46875 45.15625 40.96875 
Q 51.609375 34.46875 51.609375 24.265625 
Q 51.609375 14.546875 45.953125 7.46875 
Q 39.0625 -1.21875 27.15625 -1.21875 
Q 17.390625 -1.21875 11.203125 4.25 
Q 5.03125 9.71875 4.15625 18.75 
z
" id="ArialMT-53"/>
      </defs>
      <g style="fill:#262626;" transform="translate(7.2 255.539604)scale(0.1 -0.1)">
       <use xlink:href="#ArialMT-8722"/>
       <use x="58.398438" xlink:href="#ArialMT-48"/>
       <use x="114.013672" xlink:href="#ArialMT-46"/>
       <use x="141.796875" xlink:href="#ArialMT-55"/>
       <use x="197.412109" xlink:href="#ArialMT-53"/>
      </g>
     </g>
    </g>
    <g id="ytick_2">
     <g id="line2d_13">
      <path clip-path="url(#p97e5f155e6)" d="M 39.501563 218.752525 
L 374.301562 218.752525 
" style="fill:none;stroke:#ffffff;stroke-linecap:round;"/>
     </g>
     <g id="line2d_14"/>
     <g id="text_7">
      <!-- −0.50 -->
      <g style="fill:#262626;" transform="translate(7.2 222.331431)scale(0.1 -0.1)">
       <use xlink:href="#ArialMT-8722"/>
       <use x="58.398438" xlink:href="#ArialMT-48"/>
       <use x="114.013672" xlink:href="#ArialMT-46"/>
       <use x="141.796875" xlink:href="#ArialMT-53"/>
       <use x="197.412109" xlink:href="#ArialMT-48"/>
      </g>
     </g>
    </g>
    <g id="ytick_3">
     <g id="line2d_15">
      <path clip-path="url(#p97e5f155e6)" d="M 39.501563 185.544352 
L 374.301562 185.544352 
" style="fill:none;stroke:#ffffff;stroke-linecap:round;"/>
     </g>
     <g id="line2d_16"/>
     <g id="text_8">
      <!-- −0.25 -->
      <g style="fill:#262626;" transform="translate(7.2 189.123258)scale(0.1 -0.1)">
       <use xlink:href="#ArialMT-8722"/>
       <use x="58.398438" xlink:href="#ArialMT-48"/>
       <use x="114.013672" xlink:href="#ArialMT-46"/>
       <use x="141.796875" xlink:href="#ArialMT-50"/>
       <use x="197.412109" xlink:href="#ArialMT-53"/>
      </g>
     </g>
    </g>
    <g id="ytick_4">
     <g id="line2d_17">
      <path clip-path="url(#p97e5f155e6)" d="M 39.501563 152.336178 
L 374.301562 152.336178 
" style="fill:none;stroke:#ffffff;stroke-linecap:round;"/>
     </g>
     <g id="line2d_18"/>
     <g id="text_9">
      <!-- 0.00 -->
      <g style="fill:#262626;" transform="translate(13.040625 155.915085)scale(0.1 -0.1)">
       <use xlink:href="#ArialMT-48"/>
       <use x="55.615234" xlink:href="#ArialMT-46"/>
       <use x="83.398438" xlink:href="#ArialMT-48"/>
       <use x="139.013672" xlink:href="#ArialMT-48"/>
      </g>
     </g>
    </g>
    <g id="ytick_5">
     <g id="line2d_19">
      <path clip-path="url(#p97e5f155e6)" d="M 39.501563 119.128005 
L 374.301562 119.128005 
" style="fill:none;stroke:#ffffff;stroke-linecap:round;"/>
     </g>
     <g id="line2d_20"/>
     <g id="text_10">
      <!-- 0.25 -->
      <g style="fill:#262626;" transform="translate(13.040625 122.706911)scale(0.1 -0.1)">
       <use xlink:href="#ArialMT-48"/>
       <use x="55.615234" xlink:href="#ArialMT-46"/>
       <use x="83.398438" xlink:href="#ArialMT-50"/>
       <use x="139.013672" xlink:href="#ArialMT-53"/>
      </g>
     </g>
    </g>
    <g id="ytick_6">
     <g id="line2d_21">
      <path clip-path="url(#p97e5f155e6)" d="M 39.501563 85.919832 
L 374.301562 85.919832 
" style="fill:none;stroke:#ffffff;stroke-linecap:round;"/>
     </g>
     <g id="line2d_22"/>
     <g id="text_11">
      <!-- 0.50 -->
      <g style="fill:#262626;" transform="translate(13.040625 89.498738)scale(0.1 -0.1)">
       <use xlink:href="#ArialMT-48"/>
       <use x="55.615234" xlink:href="#ArialMT-46"/>
       <use x="83.398438" xlink:href="#ArialMT-53"/>
       <use x="139.013672" xlink:href="#ArialMT-48"/>
      </g>
     </g>
    </g>
    <g id="ytick_7">
     <g id="line2d_23">
      <path clip-path="url(#p97e5f155e6)" d="M 39.501563 52.711659 
L 374.301562 52.711659 
" style="fill:none;stroke:#ffffff;stroke-linecap:round;"/>
     </g>
     <g id="line2d_24"/>
     <g id="text_12">
      <!-- 0.75 -->
      <g style="fill:#262626;" transform="translate(13.040625 56.290565)scale(0.1 -0.1)">
       <use xlink:href="#ArialMT-48"/>
       <use x="55.615234" xlink:href="#ArialMT-46"/>
       <use x="83.398438" xlink:href="#ArialMT-55"/>
       <use x="139.013672" xlink:href="#ArialMT-53"/>
      </g>
     </g>
    </g>
    <g id="ytick_8">
     <g id="line2d_25">
      <path clip-path="url(#p97e5f155e6)" d="M 39.501563 19.503485 
L 374.301562 19.503485 
" style="fill:none;stroke:#ffffff;stroke-linecap:round;"/>
     </g>
     <g id="line2d_26"/>
     <g id="text_13">
      <!-- 1.00 -->
      <defs>
       <path d="M 37.25 0 
L 28.46875 0 
L 28.46875 56 
Q 25.296875 52.984375 20.140625 49.953125 
Q 14.984375 46.921875 10.890625 45.40625 
L 10.890625 53.90625 
Q 18.265625 57.375 23.78125 62.296875 
Q 29.296875 67.234375 31.59375 71.875 
L 37.25 71.875 
z
" id="ArialMT-49"/>
      </defs>
      <g style="fill:#262626;" transform="translate(13.040625 23.082392)scale(0.1 -0.1)">
       <use xlink:href="#ArialMT-49"/>
       <use x="55.615234" xlink:href="#ArialMT-46"/>
       <use x="83.398438" xlink:href="#ArialMT-48"/>
       <use x="139.013672" xlink:href="#ArialMT-48"/>
      </g>
     </g>
    </g>
   </g>
   <g id="line2d_27">
    <path clip-path="url(#p97e5f155e6)" d="M 54.719744 152.336178 
L 125.141135 152.238588 
L 132.302632 152.009315 
L 137.076964 151.648123 
L 140.657712 151.171941 
L 144.238461 150.419994 
L 146.625627 149.705775 
L 149.012792 148.769497 
L 151.399958 147.559092 
L 153.787124 146.016153 
L 156.17429 144.077103 
L 158.561456 141.675106 
L 160.948621 138.742804 
L 163.335787 135.215911 
L 165.722953 131.037595 
L 168.110119 126.163524 
L 170.497284 120.567312 
L 172.88445 114.246039 
L 175.271616 107.225403 
L 177.658782 99.564012 
L 181.23953 87.087228 
L 187.207445 64.944045 
L 190.788194 51.971175 
L 193.175359 43.949296 
L 195.562525 36.717489 
L 197.949691 30.511226 
L 199.143274 27.859873 
L 200.336857 25.541405 
L 201.53044 23.576395 
L 202.724022 21.982484 
L 203.917605 20.774116 
L 205.111188 19.96232 
L 206.304771 19.554545 
L 207.498354 19.554545 
L 208.691937 19.96232 
L 209.88552 20.774116 
L 211.079103 21.982484 
L 212.272685 23.576395 
L 213.466268 25.541405 
L 214.659851 27.859873 
L 215.853434 30.511226 
L 218.2406 36.717489 
L 220.627766 43.949296 
L 223.014931 51.971175 
L 226.59568 64.944045 
L 233.757177 91.356317 
L 237.337926 103.469762 
L 239.725092 110.820292 
L 242.112258 117.496428 
L 244.499423 123.456481 
L 246.886589 128.689664 
L 249.273755 133.211307 
L 251.660921 137.057464 
L 254.048087 140.27938 
L 256.435252 142.938209 
L 258.822418 145.100271 
L 261.209584 146.83306 
L 263.59675 148.202072 
L 265.983915 149.26849 
L 268.371081 150.087653 
L 270.758247 150.708228 
L 274.338996 151.356152 
L 277.919744 151.762309 
L 282.694076 152.066894 
L 289.855573 152.257249 
L 304.178568 152.331314 
L 359.083381 152.336178 
L 359.083381 152.336178 
" style="fill:none;stroke:#4c72b0;stroke-linecap:round;stroke-opacity:0.7;stroke-width:1.75;"/>
   </g>
   <g id="line2d_28">
    <path clip-path="url(#p97e5f155e6)" d="M 54.719744 152.336178 
L 72.623488 151.432141 
L 94.10798 150.573233 
L 128.721883 149.274146 
L 133.496215 148.860493 
L 137.076964 148.378247 
L 140.657712 147.657941 
L 143.044878 146.989968 
L 145.432044 146.122698 
L 147.81921 145.005746 
L 150.206375 143.58155 
L 152.593541 141.786215 
L 154.980707 139.551129 
L 157.367873 136.805469 
L 159.755038 133.479679 
L 162.142204 129.509904 
L 164.52937 124.843309 
L 166.916536 119.444059 
L 169.303702 113.299629 
L 171.690867 106.427008 
L 174.078033 98.878232 
L 177.658782 86.498511 
L 182.433113 68.827386 
L 187.207445 51.409021 
L 189.594611 43.450641 
L 191.981776 36.368106 
L 193.175359 33.24148 
L 194.368942 30.434723 
L 195.562525 27.977988 
L 196.756108 25.898923 
L 197.949691 24.222232 
L 199.143274 22.969269 
L 200.336857 22.157677 
L 201.53044 21.801075 
L 202.724022 21.908809 
L 203.917605 22.485764 
L 205.111188 23.532241 
L 206.304771 25.043917 
L 207.498354 27.011869 
L 208.691937 29.422675 
L 209.88552 32.258589 
L 211.079103 35.497778 
L 213.466268 43.080132 
L 215.853434 51.926399 
L 218.2406 61.752762 
L 221.821349 77.652546 
L 227.789263 104.664817 
L 231.370012 119.671961 
L 233.757177 128.736098 
L 236.144343 136.885568 
L 238.531509 144.038203 
L 240.918675 150.15948 
L 243.305841 155.25727 
L 244.499423 157.434721 
L 245.693006 159.374889 
L 246.886589 161.087431 
L 248.080172 162.583214 
L 249.273755 163.874069 
L 250.467338 164.972544 
L 251.660921 165.891683 
L 252.854504 166.644815 
L 254.048087 167.245355 
L 255.241669 167.706639 
L 257.628835 168.263468 
L 260.016001 168.415046 
L 262.403167 168.252183 
L 264.790333 167.854766 
L 268.371081 166.964451 
L 273.145413 165.493842 
L 282.694076 162.480336 
L 288.66199 160.848444 
L 294.629905 159.460519 
L 300.597819 158.289683 
L 307.759317 157.11569 
L 316.114397 155.988189 
L 325.66306 154.933048 
L 337.598889 153.864071 
L 350.7283 152.915752 
L 359.083381 152.404385 
L 359.083381 152.404385 
" style="fill:none;stroke:#55a868;stroke-linecap:round;stroke-opacity:0.7;stroke-width:1.75;"/>
   </g>
   <g id="line2d_29">
    <path clip-path="url(#p97e5f155e6)" d="M 54.719744 152.336178 
L 70.236322 151.325883 
L 88.140065 150.398918 
L 110.81814 149.46553 
L 125.141135 148.809662 
L 131.109049 148.306027 
L 134.689798 147.820654 
L 138.270546 147.099827 
L 140.657712 146.431826 
L 143.044878 145.563399 
L 145.432044 144.442405 
L 147.81921 143.008947 
L 150.206375 141.196219 
L 152.593541 138.932191 
L 154.980707 136.142298 
L 157.367873 132.753226 
L 159.755038 128.697822 
L 162.142204 123.921032 
L 164.52937 118.38666 
L 166.916536 112.084569 
L 169.303702 105.037817 
L 171.690867 97.309094 
L 175.271616 84.685056 
L 184.820279 49.743032 
L 187.207445 42.195728 
L 189.594611 35.751193 
L 190.788194 33.039511 
L 191.981776 30.716604 
L 193.175359 28.815621 
L 194.368942 27.366524 
L 195.562525 26.395555 
L 196.756108 25.924744 
L 197.949691 25.971479 
L 199.143274 26.54814 
L 200.336857 27.661797 
L 201.53044 29.314006 
L 202.724022 31.500683 
L 203.917605 34.212069 
L 205.111188 37.432797 
L 206.304771 41.142046 
L 207.498354 45.313788 
L 209.88552 54.916715 
L 212.272685 65.943985 
L 214.659851 78.043874 
L 219.434183 103.904494 
L 224.208514 129.38343 
L 226.59568 141.109969 
L 228.982846 151.797201 
L 231.370012 161.252536 
L 233.757177 169.352406 
L 234.95076 172.874008 
L 236.144343 176.040733 
L 237.337926 178.855211 
L 238.531509 181.323424 
L 239.725092 183.454377 
L 240.918675 185.259757 
L 242.112258 186.753559 
L 243.305841 187.951723 
L 244.499423 188.871757 
L 245.693006 189.532373 
L 246.886589 189.95314 
L 248.080172 190.154149 
L 249.273755 190.155707 
L 250.467338 189.978054 
L 251.660921 189.64111 
L 252.854504 189.164256 
L 255.241669 187.864535 
L 257.628835 186.216731 
L 261.209584 183.350345 
L 270.758247 175.347775 
L 274.338996 172.670909 
L 277.919744 170.273378 
L 281.500493 168.160093 
L 285.081242 166.313666 
L 288.66199 164.705532 
L 292.242739 163.303473 
L 297.017071 161.700924 
L 301.791402 160.344525 
L 307.759317 158.917138 
L 313.727231 157.718359 
L 320.888728 156.507801 
L 329.243808 155.332319 
L 338.792472 154.221561 
L 349.534718 153.191857 
L 359.083381 152.424084 
L 359.083381 152.424084 
" style="fill:none;stroke:#c44e52;stroke-linecap:round;stroke-opacity:0.7;stroke-width:1.75;"/>
   </g>
   <g id="line2d_30">
    <path clip-path="url(#p97e5f155e6)" d="M 54.719744 152.336178 
L 70.236322 151.515974 
L 89.333648 150.740039 
L 126.334718 149.359725 
L 131.109049 148.870583 
L 134.689798 148.27879 
L 137.076964 147.720531 
L 139.464129 146.984222 
L 141.851295 146.020205 
L 144.238461 144.770305 
L 146.625627 143.168246 
L 149.012792 141.140912 
L 151.399958 138.61062 
L 153.787124 135.498581 
L 156.17429 131.729658 
L 158.561456 127.238384 
L 160.948621 121.976122 
L 163.335787 115.919038 
L 165.722953 109.076399 
L 168.110119 101.498535 
L 170.497284 93.283667 
L 174.078033 80.112032 
L 180.045948 57.875686 
L 182.433113 49.777737 
L 184.820279 42.665375 
L 186.013862 39.593163 
L 187.207445 36.903065 
L 188.401028 34.637494 
L 189.594611 32.836264 
L 190.788194 31.535874 
L 191.981776 30.76883 
L 193.175359 30.562998 
L 194.368942 30.941015 
L 195.562525 31.919766 
L 196.756108 33.509944 
L 197.949691 35.715704 
L 199.143274 38.534421 
L 200.336857 41.956557 
L 201.53044 45.965646 
L 202.724022 50.538405 
L 203.917605 55.644951 
L 206.304771 67.309079 
L 208.691937 80.602826 
L 212.272685 102.648704 
L 219.434183 148.296324 
L 221.821349 162.241468 
L 224.208514 174.890101 
L 226.59568 185.958572 
L 228.982846 195.253826 
L 230.176429 199.20159 
L 231.370012 202.675517 
L 232.563595 205.676874 
L 233.757177 208.211915 
L 234.95076 210.29148 
L 236.144343 211.93055 
L 237.337926 213.147757 
L 238.531509 213.964878 
L 239.725092 214.406296 
L 240.918675 214.498481 
L 242.112258 214.269454 
L 243.305841 213.74829 
L 244.499423 212.964628 
L 245.693006 211.948226 
L 246.886589 210.728548 
L 249.273755 207.79359 
L 251.660921 204.376749 
L 255.241669 198.763721 
L 261.209584 189.324332 
L 264.790333 184.144274 
L 267.177498 181.003558 
L 269.564664 178.137483 
L 271.95183 175.549342 
L 274.338996 173.231084 
L 276.726161 171.166874 
L 279.113327 169.336082 
L 281.500493 167.715688 
L 285.081242 165.628122 
L 288.66199 163.885192 
L 292.242739 162.41995 
L 295.823488 161.176486 
L 300.597819 159.787274 
L 305.372151 158.633093 
L 311.340065 157.435798 
L 318.501562 156.263143 
L 326.856643 155.157313 
L 336.405306 154.141326 
L 347.147552 153.224839 
L 359.083381 152.408521 
L 359.083381 152.408521 
" style="fill:none;stroke:#8172b2;stroke-linecap:round;stroke-opacity:0.7;stroke-width:1.75;"/>
   </g>
   <g id="line2d_31">
    <path clip-path="url(#p97e5f155e6)" d="M 54.719744 152.336178 
L 76.204236 151.77843 
L 106.043808 151.252214 
L 120.366803 150.915094 
L 126.334718 150.554229 
L 129.915466 150.160357 
L 133.496215 149.534316 
L 135.883381 148.929374 
L 138.270546 148.121243 
L 140.657712 147.054198 
L 143.044878 145.663397 
L 145.432044 143.87564 
L 147.81921 141.611127 
L 150.206375 138.786465 
L 152.593541 135.319072 
L 154.980707 131.133077 
L 157.367873 126.166667 
L 159.755038 120.380645 
L 162.142204 113.767769 
L 164.52937 106.362233 
L 166.916536 98.248434 
L 170.497284 85.076368 
L 176.465199 62.463782 
L 178.852365 54.140567 
L 181.23953 46.815693 
L 182.433113 43.657856 
L 183.626696 40.905419 
L 184.820279 38.60843 
L 186.013862 36.814558 
L 187.207445 35.56822 
L 188.401028 34.909729 
L 189.594611 34.874459 
L 190.788194 35.492069 
L 191.981776 36.785781 
L 193.175359 38.77175 
L 194.368942 41.458532 
L 195.562525 44.84667 
L 196.756108 48.928415 
L 197.949691 53.687575 
L 199.143274 59.099526 
L 200.336857 65.13137 
L 202.724022 78.883758 
L 205.111188 94.531463 
L 208.691937 120.418912 
L 215.853434 173.475958 
L 218.2406 189.368081 
L 220.627766 203.523113 
L 223.014931 215.579714 
L 224.208514 220.740413 
L 225.402097 225.295128 
L 226.59568 229.232849 
L 227.789263 232.550106 
L 228.982846 235.25066 
L 230.176429 237.345078 
L 231.370012 238.850217 
L 232.563595 239.788624 
L 233.757177 240.187878 
L 234.95076 240.07988 
L 236.144343 239.500117 
L 237.337926 238.486913 
L 238.531509 237.080683 
L 239.725092 235.323204 
L 240.918675 233.256922 
L 243.305841 228.367204 
L 245.693006 222.741002 
L 249.273755 213.576884 
L 254.048087 201.293428 
L 257.628835 192.803691 
L 260.016001 187.69027 
L 262.403167 183.075296 
L 264.790333 178.974978 
L 267.177498 175.38074 
L 269.564664 172.265914 
L 271.95183 169.591817 
L 274.338996 167.31294 
L 276.726161 165.381127 
L 279.113327 163.748723 
L 281.500493 162.370774 
L 283.887659 161.206402 
L 287.468407 159.782731 
L 291.049156 158.658701 
L 294.629905 157.756883 
L 299.404236 156.803127 
L 305.372151 155.884958 
L 312.533648 155.044259 
L 320.888728 154.294357 
L 331.630974 153.565309 
L 344.760386 152.905901 
L 359.083381 152.373988 
L 359.083381 152.373988 
" style="fill:none;stroke:#ccb974;stroke-linecap:round;stroke-opacity:0.7;stroke-width:1.75;"/>
   </g>
   <g id="line2d_32">
    <path clip-path="url(#p97e5f155e6)" d="M 54.719744 152.336178 
L 115.592472 152.237436 
L 122.753969 151.982905 
L 127.5283 151.562169 
L 131.109049 150.989776 
L 133.496215 150.420827 
L 135.883381 149.647621 
L 138.270546 148.612637 
L 140.657712 147.248448 
L 143.044878 145.478382 
L 145.432044 143.218283 
L 147.81921 140.379624 
L 150.206375 136.874209 
L 152.593541 132.620585 
L 154.980707 127.552152 
L 157.367873 121.626749 
L 159.755038 114.837265 
L 162.142204 107.222559 
L 164.52937 98.877714 
L 168.110119 85.359943 
L 174.078033 62.440956 
L 176.465199 54.220079 
L 177.658782 50.533172 
L 178.852365 47.207543 
L 180.045948 44.302652 
L 181.23953 41.877056 
L 182.433113 39.987412 
L 183.626696 38.687446 
L 184.820279 38.026902 
L 186.013862 38.050508 
L 187.207445 38.796964 
L 188.401028 40.297992 
L 189.594611 42.57746 
L 190.788194 45.650611 
L 191.981776 49.523419 
L 193.175359 54.192085 
L 194.368942 59.642702 
L 195.562525 65.851087 
L 196.756108 72.782812 
L 199.143274 88.628813 
L 201.53044 106.713335 
L 205.111188 136.701711 
L 211.079103 188.259872 
L 213.466268 207.246456 
L 215.853434 224.278942 
L 218.2406 238.82127 
L 219.434183 245.029655 
L 220.627766 250.480272 
L 221.821349 255.148938 
L 223.014931 259.021746 
L 224.208514 262.094897 
L 225.402097 264.374365 
L 226.59568 265.875393 
L 227.789263 266.621849 
L 228.982846 266.645455 
L 230.176429 265.984911 
L 231.370012 264.684944 
L 232.563595 262.795301 
L 233.757177 260.369705 
L 234.95076 257.464814 
L 236.144343 254.139185 
L 238.531509 246.463515 
L 240.918675 237.812736 
L 250.467338 201.539341 
L 252.854504 193.543806 
L 255.241669 186.333564 
L 257.628835 179.974391 
L 260.016001 174.480809 
L 262.403167 169.826817 
L 264.790333 165.95676 
L 267.177498 162.795496 
L 269.564664 160.257292 
L 271.95183 158.253093 
L 274.338996 156.696073 
L 276.726161 155.50552 
L 279.113327 154.60924 
L 281.500493 153.944731 
L 285.081242 153.270136 
L 288.66199 152.862541 
L 293.436322 152.570193 
L 300.597819 152.399081 
L 316.114397 152.338628 
L 359.083381 152.336178 
L 359.083381 152.336178 
" style="fill:none;stroke:#64b5cd;stroke-linecap:round;stroke-opacity:0.7;stroke-width:1.75;"/>
   </g>
   <g id="patch_3">
    <path d="M 39.501563 279 
L 39.501563 7.2 
" style="fill:none;"/>
   </g>
   <g id="patch_4">
    <path d="M 374.301562 279 
L 374.301562 7.2 
" style="fill:none;"/>
   </g>
   <g id="patch_5">
    <path d="M 39.501563 279 
L 374.301562 279 
" style="fill:none;"/>
   </g>
   <g id="patch_6">
    <path d="M 39.501563 7.2 
L 374.301562 7.2 
" style="fill:none;"/>
   </g>
   <g id="legend_1">
    <g id="line2d_33">
     <path d="M 312 19.857812 
L 332 19.857812 
" style="fill:none;stroke:#4c72b0;stroke-linecap:round;stroke-opacity:0.7;stroke-width:1.75;"/>
    </g>
    <g id="line2d_34"/>
    <g id="text_14">
     <!-- n=0.0 -->
     <defs>
      <path d="M 6.59375 0 
L 6.59375 51.859375 
L 14.5 51.859375 
L 14.5 44.484375 
Q 20.21875 53.03125 31 53.03125 
Q 35.6875 53.03125 39.625 51.34375 
Q 43.5625 49.65625 45.515625 46.921875 
Q 47.46875 44.1875 48.25 40.4375 
Q 48.734375 37.984375 48.734375 31.890625 
L 48.734375 0 
L 39.9375 0 
L 39.9375 31.546875 
Q 39.9375 36.921875 38.90625 39.578125 
Q 37.890625 42.234375 35.28125 43.8125 
Q 32.671875 45.40625 29.15625 45.40625 
Q 23.53125 45.40625 19.453125 41.84375 
Q 15.375 38.28125 15.375 28.328125 
L 15.375 0 
z
" id="ArialMT-110"/>
      <path d="M 52.828125 42.09375 
L 5.5625 42.09375 
L 5.5625 50.296875 
L 52.828125 50.296875 
z
M 52.828125 20.359375 
L 5.5625 20.359375 
L 5.5625 28.5625 
L 52.828125 28.5625 
z
" id="ArialMT-61"/>
     </defs>
     <g style="fill:#262626;" transform="translate(340 23.357812)scale(0.1 -0.1)">
      <use xlink:href="#ArialMT-110"/>
      <use x="55.615234" xlink:href="#ArialMT-61"/>
      <use x="114.013672" xlink:href="#ArialMT-48"/>
      <use x="169.628906" xlink:href="#ArialMT-46"/>
      <use x="197.412109" xlink:href="#ArialMT-48"/>
     </g>
    </g>
    <g id="line2d_35">
     <path d="M 312 34.003125 
L 332 34.003125 
" style="fill:none;stroke:#55a868;stroke-linecap:round;stroke-opacity:0.7;stroke-width:1.75;"/>
    </g>
    <g id="line2d_36"/>
    <g id="text_15">
     <!-- n=0.2 -->
     <g style="fill:#262626;" transform="translate(340 37.503125)scale(0.1 -0.1)">
      <use xlink:href="#ArialMT-110"/>
      <use x="55.615234" xlink:href="#ArialMT-61"/>
      <use x="114.013672" xlink:href="#ArialMT-48"/>
      <use x="169.628906" xlink:href="#ArialMT-46"/>
      <use x="197.412109" xlink:href="#ArialMT-50"/>
     </g>
    </g>
    <g id="line2d_37">
     <path d="M 312 48.148437 
L 332 48.148437 
" style="fill:none;stroke:#c44e52;stroke-linecap:round;stroke-opacity:0.7;stroke-width:1.75;"/>
    </g>
    <g id="line2d_38"/>
    <g id="text_16">
     <!-- n=0.4 -->
     <g style="fill:#262626;" transform="translate(340 51.648437)scale(0.1 -0.1)">
      <use xlink:href="#ArialMT-110"/>
      <use x="55.615234" xlink:href="#ArialMT-61"/>
      <use x="114.013672" xlink:href="#ArialMT-48"/>
      <use x="169.628906" xlink:href="#ArialMT-46"/>
      <use x="197.412109" xlink:href="#ArialMT-52"/>
     </g>
    </g>
    <g id="line2d_39">
     <path d="M 312 62.29375 
L 332 62.29375 
" style="fill:none;stroke:#8172b2;stroke-linecap:round;stroke-opacity:0.7;stroke-width:1.75;"/>
    </g>
    <g id="line2d_40"/>
    <g id="text_17">
     <!-- n=0.6 -->
     <defs>
      <path d="M 49.75 54.046875 
L 41.015625 53.375 
Q 39.84375 58.546875 37.703125 60.890625 
Q 34.125 64.65625 28.90625 64.65625 
Q 24.703125 64.65625 21.53125 62.3125 
Q 17.390625 59.28125 14.984375 53.46875 
Q 12.59375 47.65625 12.5 36.921875 
Q 15.671875 41.75 20.265625 44.09375 
Q 24.859375 46.4375 29.890625 46.4375 
Q 38.671875 46.4375 44.84375 39.96875 
Q 51.03125 33.5 51.03125 23.25 
Q 51.03125 16.5 48.125 10.71875 
Q 45.21875 4.9375 40.140625 1.859375 
Q 35.0625 -1.21875 28.609375 -1.21875 
Q 17.625 -1.21875 10.6875 6.859375 
Q 3.765625 14.9375 3.765625 33.5 
Q 3.765625 54.25 11.421875 63.671875 
Q 18.109375 71.875 29.4375 71.875 
Q 37.890625 71.875 43.28125 67.140625 
Q 48.6875 62.40625 49.75 54.046875 
z
M 13.875 23.1875 
Q 13.875 18.65625 15.796875 14.5 
Q 17.71875 10.359375 21.1875 8.171875 
Q 24.65625 6 28.46875 6 
Q 34.03125 6 38.03125 10.484375 
Q 42.046875 14.984375 42.046875 22.703125 
Q 42.046875 30.125 38.078125 34.390625 
Q 34.125 38.671875 28.125 38.671875 
Q 22.171875 38.671875 18.015625 34.390625 
Q 13.875 30.125 13.875 23.1875 
z
" id="ArialMT-54"/>
     </defs>
     <g style="fill:#262626;" transform="translate(340 65.79375)scale(0.1 -0.1)">
      <use xlink:href="#ArialMT-110"/>
      <use x="55.615234" xlink:href="#ArialMT-61"/>
      <use x="114.013672" xlink:href="#ArialMT-48"/>
      <use x="169.628906" xlink:href="#ArialMT-46"/>
      <use x="197.412109" xlink:href="#ArialMT-54"/>
     </g>
    </g>
    <g id="line2d_41">
     <path d="M 312 76.439062 
L 332 76.439062 
" style="fill:none;stroke:#ccb974;stroke-linecap:round;stroke-opacity:0.7;stroke-width:1.75;"/>
    </g>
    <g id="line2d_42"/>
    <g id="text_18">
     <!-- n=0.8 -->
     <defs>
      <path d="M 17.671875 38.8125 
Q 12.203125 40.828125 9.5625 44.53125 
Q 6.9375 48.25 6.9375 53.421875 
Q 6.9375 61.234375 12.546875 66.546875 
Q 18.171875 71.875 27.484375 71.875 
Q 36.859375 71.875 42.578125 66.421875 
Q 48.296875 60.984375 48.296875 53.171875 
Q 48.296875 48.1875 45.671875 44.5 
Q 43.0625 40.828125 37.75 38.8125 
Q 44.34375 36.671875 47.78125 31.875 
Q 51.21875 27.09375 51.21875 20.453125 
Q 51.21875 11.28125 44.71875 5.03125 
Q 38.234375 -1.21875 27.640625 -1.21875 
Q 17.046875 -1.21875 10.546875 5.046875 
Q 4.046875 11.328125 4.046875 20.703125 
Q 4.046875 27.6875 7.59375 32.390625 
Q 11.140625 37.109375 17.671875 38.8125 
z
M 15.921875 53.71875 
Q 15.921875 48.640625 19.1875 45.40625 
Q 22.46875 42.1875 27.6875 42.1875 
Q 32.765625 42.1875 36.015625 45.375 
Q 39.265625 48.578125 39.265625 53.21875 
Q 39.265625 58.0625 35.90625 61.359375 
Q 32.5625 64.65625 27.59375 64.65625 
Q 22.5625 64.65625 19.234375 61.421875 
Q 15.921875 58.203125 15.921875 53.71875 
z
M 13.09375 20.65625 
Q 13.09375 16.890625 14.875 13.375 
Q 16.65625 9.859375 20.171875 7.921875 
Q 23.6875 6 27.734375 6 
Q 34.03125 6 38.125 10.046875 
Q 42.234375 14.109375 42.234375 20.359375 
Q 42.234375 26.703125 38.015625 30.859375 
Q 33.796875 35.015625 27.4375 35.015625 
Q 21.234375 35.015625 17.15625 30.90625 
Q 13.09375 26.8125 13.09375 20.65625 
z
" id="ArialMT-56"/>
     </defs>
     <g style="fill:#262626;" transform="translate(340 79.939062)scale(0.1 -0.1)">
      <use xlink:href="#ArialMT-110"/>
      <use x="55.615234" xlink:href="#ArialMT-61"/>
      <use x="114.013672" xlink:href="#ArialMT-48"/>
      <use x="169.628906" xlink:href="#ArialMT-46"/>
      <use x="197.412109" xlink:href="#ArialMT-56"/>
     </g>
    </g>
    <g id="line2d_43">
     <path d="M 312 90.584375 
L 332 90.584375 
" style="fill:none;stroke:#64b5cd;stroke-linecap:round;stroke-opacity:0.7;stroke-width:1.75;"/>
    </g>
    <g id="line2d_44"/>
    <g id="text_19">
     <!-- n=1.0 -->
     <g style="fill:#262626;" transform="translate(340 94.084375)scale(0.1 -0.1)">
      <use xlink:href="#ArialMT-110"/>
      <use x="55.615234" xlink:href="#ArialMT-61"/>
      <use x="114.013672" xlink:href="#ArialMT-49"/>
      <use x="169.628906" xlink:href="#ArialMT-46"/>
      <use x="197.412109" xlink:href="#ArialMT-48"/>
     </g>
    </g>
   </g>
  </g>
 </g>
 <defs>
  <clipPath id="p97e5f155e6">
   <rect height="271.8" width="334.8" x="39.501563" y="7.2"/>
  </clipPath>
 </defs>
</svg>
