<?xml version="1.0" encoding="utf-8" standalone="no"?>
<!DOCTYPE svg PUBLIC "-//W3C//DTD SVG 1.1//EN"
  "http://www.w3.org/Graphics/SVG/1.1/DTD/svg11.dtd">
<!-- Created with matplotlib (https://matplotlib.org/) -->
<svg height="302.345312pt" version="1.1" viewBox="0 0 375.940625 302.345312" width="375.940625pt" xmlns="http://www.w3.org/2000/svg" xmlns:xlink="http://www.w3.org/1999/xlink">
 <defs>
  <style type="text/css">
*{stroke-linecap:butt;stroke-linejoin:round;}
  </style>
 </defs>
 <g id="figure_1">
  <g id="patch_1">
   <path d="M 0 302.345312 
L 375.940625 302.345312 
L 375.940625 0 
L 0 0 
z
" style="fill:none;"/>
  </g>
  <g id="axes_1">
   <g id="patch_2">
    <path d="M 33.940625 279 
L 368.740625 279 
L 368.740625 7.2 
L 33.940625 7.2 
z
" style="fill:#dcdcdc;"/>
   </g>
   <g id="matplotlib.axis_1">
    <g id="xtick_1">
     <g id="line2d_1">
      <path clip-path="url(#pce2ed81b47)" d="M 79.59517 279 
L 79.59517 7.2 
" style="fill:none;stroke:#ffffff;stroke-linecap:round;"/>
     </g>
     <g id="line2d_2"/>
     <g id="text_1">
      <!-- −4 -->
      <defs>
       <path d="M 52.828125 31.203125 
L 5.5625 31.203125 
L 5.5625 39.40625 
L 52.828125 39.40625 
z
" id="ArialMT-8722"/>
       <path d="M 32.328125 0 
L 32.328125 17.140625 
L 1.265625 17.140625 
L 1.265625 25.203125 
L 33.9375 71.578125 
L 41.109375 71.578125 
L 41.109375 25.203125 
L 50.78125 25.203125 
L 50.78125 17.140625 
L 41.109375 17.140625 
L 41.109375 0 
z
M 32.328125 25.203125 
L 32.328125 57.46875 
L 9.90625 25.203125 
z
" id="ArialMT-52"/>
      </defs>
      <g style="fill:#262626;" transform="translate(73.894389 293.157812)scale(0.1 -0.1)">
       <use xlink:href="#ArialMT-8722"/>
       <use x="58.398438" xlink:href="#ArialMT-52"/>
      </g>
     </g>
    </g>
    <g id="xtick_2">
     <g id="line2d_3">
      <path clip-path="url(#pce2ed81b47)" d="M 140.467898 279 
L 140.467898 7.2 
" style="fill:none;stroke:#ffffff;stroke-linecap:round;"/>
     </g>
     <g id="line2d_4"/>
     <g id="text_2">
      <!-- −2 -->
      <defs>
       <path d="M 50.34375 8.453125 
L 50.34375 0 
L 3.03125 0 
Q 2.9375 3.171875 4.046875 6.109375 
Q 5.859375 10.9375 9.828125 15.625 
Q 13.8125 20.3125 21.34375 26.46875 
Q 33.015625 36.03125 37.109375 41.625 
Q 41.21875 47.21875 41.21875 52.203125 
Q 41.21875 57.421875 37.46875 61 
Q 33.734375 64.59375 27.734375 64.59375 
Q 21.390625 64.59375 17.578125 60.78125 
Q 13.765625 56.984375 13.71875 50.25 
L 4.6875 51.171875 
Q 5.609375 61.28125 11.65625 66.578125 
Q 17.71875 71.875 27.9375 71.875 
Q 38.234375 71.875 44.234375 66.15625 
Q 50.25 60.453125 50.25 52 
Q 50.25 47.703125 48.484375 43.546875 
Q 46.734375 39.40625 42.65625 34.8125 
Q 38.578125 30.21875 29.109375 22.21875 
Q 21.1875 15.578125 18.9375 13.203125 
Q 16.703125 10.84375 15.234375 8.453125 
z
" id="ArialMT-50"/>
      </defs>
      <g style="fill:#262626;" transform="translate(134.767116 293.157812)scale(0.1 -0.1)">
       <use xlink:href="#ArialMT-8722"/>
       <use x="58.398438" xlink:href="#ArialMT-50"/>
      </g>
     </g>
    </g>
    <g id="xtick_3">
     <g id="line2d_5">
      <path clip-path="url(#pce2ed81b47)" d="M 201.340625 279 
L 201.340625 7.2 
" style="fill:none;stroke:#ffffff;stroke-linecap:round;"/>
     </g>
     <g id="line2d_6"/>
     <g id="text_3">
      <!-- 0 -->
      <defs>
       <path d="M 4.15625 35.296875 
Q 4.15625 48 6.765625 55.734375 
Q 9.375 63.484375 14.515625 67.671875 
Q 19.671875 71.875 27.484375 71.875 
Q 33.25 71.875 37.59375 69.546875 
Q 41.9375 67.234375 44.765625 62.859375 
Q 47.609375 58.5 49.21875 52.21875 
Q 50.828125 45.953125 50.828125 35.296875 
Q 50.828125 22.703125 48.234375 14.96875 
Q 45.65625 7.234375 40.5 3 
Q 35.359375 -1.21875 27.484375 -1.21875 
Q 17.140625 -1.21875 11.234375 6.203125 
Q 4.15625 15.140625 4.15625 35.296875 
z
M 13.1875 35.296875 
Q 13.1875 17.671875 17.3125 11.828125 
Q 21.4375 6 27.484375 6 
Q 33.546875 6 37.671875 11.859375 
Q 41.796875 17.71875 41.796875 35.296875 
Q 41.796875 52.984375 37.671875 58.78125 
Q 33.546875 64.59375 27.390625 64.59375 
Q 21.34375 64.59375 17.71875 59.46875 
Q 13.1875 52.9375 13.1875 35.296875 
z
" id="ArialMT-48"/>
      </defs>
      <g style="fill:#262626;" transform="translate(198.560156 293.157812)scale(0.1 -0.1)">
       <use xlink:href="#ArialMT-48"/>
      </g>
     </g>
    </g>
    <g id="xtick_4">
     <g id="line2d_7">
      <path clip-path="url(#pce2ed81b47)" d="M 262.213352 279 
L 262.213352 7.2 
" style="fill:none;stroke:#ffffff;stroke-linecap:round;"/>
     </g>
     <g id="line2d_8"/>
     <g id="text_4">
      <!-- 2 -->
      <g style="fill:#262626;" transform="translate(259.432884 293.157812)scale(0.1 -0.1)">
       <use xlink:href="#ArialMT-50"/>
      </g>
     </g>
    </g>
    <g id="xtick_5">
     <g id="line2d_9">
      <path clip-path="url(#pce2ed81b47)" d="M 323.08608 279 
L 323.08608 7.2 
" style="fill:none;stroke:#ffffff;stroke-linecap:round;"/>
     </g>
     <g id="line2d_10"/>
     <g id="text_5">
      <!-- 4 -->
      <g style="fill:#262626;" transform="translate(320.305611 293.157812)scale(0.1 -0.1)">
       <use xlink:href="#ArialMT-52"/>
      </g>
     </g>
    </g>
   </g>
   <g id="matplotlib.axis_2">
    <g id="ytick_1">
     <g id="line2d_11">
      <path clip-path="url(#pce2ed81b47)" d="M 33.940625 265.547134 
L 368.740625 265.547134 
" style="fill:none;stroke:#ffffff;stroke-linecap:round;"/>
     </g>
     <g id="line2d_12"/>
     <g id="text_6">
      <!-- −2.0 -->
      <defs>
       <path d="M 9.078125 0 
L 9.078125 10.015625 
L 19.09375 10.015625 
L 19.09375 0 
z
" id="ArialMT-46"/>
      </defs>
      <g style="fill:#262626;" transform="translate(7.2 269.12604)scale(0.1 -0.1)">
       <use xlink:href="#ArialMT-8722"/>
       <use x="58.398438" xlink:href="#ArialMT-50"/>
       <use x="114.013672" xlink:href="#ArialMT-46"/>
       <use x="141.796875" xlink:href="#ArialMT-48"/>
      </g>
     </g>
    </g>
    <g id="ytick_2">
     <g id="line2d_13">
      <path clip-path="url(#pce2ed81b47)" d="M 33.940625 224.543115 
L 368.740625 224.543115 
" style="fill:none;stroke:#ffffff;stroke-linecap:round;"/>
     </g>
     <g id="line2d_14"/>
     <g id="text_7">
      <!-- −1.5 -->
      <defs>
       <path d="M 37.25 0 
L 28.46875 0 
L 28.46875 56 
Q 25.296875 52.984375 20.140625 49.953125 
Q 14.984375 46.921875 10.890625 45.40625 
L 10.890625 53.90625 
Q 18.265625 57.375 23.78125 62.296875 
Q 29.296875 67.234375 31.59375 71.875 
L 37.25 71.875 
z
" id="ArialMT-49"/>
       <path d="M 4.15625 18.75 
L 13.375 19.53125 
Q 14.40625 12.796875 18.140625 9.390625 
Q 21.875 6 27.15625 6 
Q 33.5 6 37.890625 10.78125 
Q 42.28125 15.578125 42.28125 23.484375 
Q 42.28125 31 38.0625 35.34375 
Q 33.84375 39.703125 27 39.703125 
Q 22.75 39.703125 19.328125 37.765625 
Q 15.921875 35.84375 13.96875 32.765625 
L 5.71875 33.84375 
L 12.640625 70.609375 
L 48.25 70.609375 
L 48.25 62.203125 
L 19.671875 62.203125 
L 15.828125 42.96875 
Q 22.265625 47.46875 29.34375 47.46875 
Q 38.71875 47.46875 45.15625 40.96875 
Q 51.609375 34.46875 51.609375 24.265625 
Q 51.609375 14.546875 45.953125 7.46875 
Q 39.0625 -1.21875 27.15625 -1.21875 
Q 17.390625 -1.21875 11.203125 4.25 
Q 5.03125 9.71875 4.15625 18.75 
z
" id="ArialMT-53"/>
      </defs>
      <g style="fill:#262626;" transform="translate(7.2 228.122021)scale(0.1 -0.1)">
       <use xlink:href="#ArialMT-8722"/>
       <use x="58.398438" xlink:href="#ArialMT-49"/>
       <use x="114.013672" xlink:href="#ArialMT-46"/>
       <use x="141.796875" xlink:href="#ArialMT-53"/>
      </g>
     </g>
    </g>
    <g id="ytick_3">
     <g id="line2d_15">
      <path clip-path="url(#pce2ed81b47)" d="M 33.940625 183.539097 
L 368.740625 183.539097 
" style="fill:none;stroke:#ffffff;stroke-linecap:round;"/>
     </g>
     <g id="line2d_16"/>
     <g id="text_8">
      <!-- −1.0 -->
      <g style="fill:#262626;" transform="translate(7.2 187.118003)scale(0.1 -0.1)">
       <use xlink:href="#ArialMT-8722"/>
       <use x="58.398438" xlink:href="#ArialMT-49"/>
       <use x="114.013672" xlink:href="#ArialMT-46"/>
       <use x="141.796875" xlink:href="#ArialMT-48"/>
      </g>
     </g>
    </g>
    <g id="ytick_4">
     <g id="line2d_17">
      <path clip-path="url(#pce2ed81b47)" d="M 33.940625 142.535078 
L 368.740625 142.535078 
" style="fill:none;stroke:#ffffff;stroke-linecap:round;"/>
     </g>
     <g id="line2d_18"/>
     <g id="text_9">
      <!-- −0.5 -->
      <g style="fill:#262626;" transform="translate(7.2 146.113984)scale(0.1 -0.1)">
       <use xlink:href="#ArialMT-8722"/>
       <use x="58.398438" xlink:href="#ArialMT-48"/>
       <use x="114.013672" xlink:href="#ArialMT-46"/>
       <use x="141.796875" xlink:href="#ArialMT-53"/>
      </g>
     </g>
    </g>
    <g id="ytick_5">
     <g id="line2d_19">
      <path clip-path="url(#pce2ed81b47)" d="M 33.940625 101.531059 
L 368.740625 101.531059 
" style="fill:none;stroke:#ffffff;stroke-linecap:round;"/>
     </g>
     <g id="line2d_20"/>
     <g id="text_10">
      <!-- 0.0 -->
      <g style="fill:#262626;" transform="translate(13.040625 105.109966)scale(0.1 -0.1)">
       <use xlink:href="#ArialMT-48"/>
       <use x="55.615234" xlink:href="#ArialMT-46"/>
       <use x="83.398438" xlink:href="#ArialMT-48"/>
      </g>
     </g>
    </g>
    <g id="ytick_6">
     <g id="line2d_21">
      <path clip-path="url(#pce2ed81b47)" d="M 33.940625 60.527041 
L 368.740625 60.527041 
" style="fill:none;stroke:#ffffff;stroke-linecap:round;"/>
     </g>
     <g id="line2d_22"/>
     <g id="text_11">
      <!-- 0.5 -->
      <g style="fill:#262626;" transform="translate(13.040625 64.105947)scale(0.1 -0.1)">
       <use xlink:href="#ArialMT-48"/>
       <use x="55.615234" xlink:href="#ArialMT-46"/>
       <use x="83.398438" xlink:href="#ArialMT-53"/>
      </g>
     </g>
    </g>
    <g id="ytick_7">
     <g id="line2d_23">
      <path clip-path="url(#pce2ed81b47)" d="M 33.940625 19.523022 
L 368.740625 19.523022 
" style="fill:none;stroke:#ffffff;stroke-linecap:round;"/>
     </g>
     <g id="line2d_24"/>
     <g id="text_12">
      <!-- 1.0 -->
      <g style="fill:#262626;" transform="translate(13.040625 23.101928)scale(0.1 -0.1)">
       <use xlink:href="#ArialMT-49"/>
       <use x="55.615234" xlink:href="#ArialMT-46"/>
       <use x="83.398438" xlink:href="#ArialMT-48"/>
      </g>
     </g>
    </g>
   </g>
   <g id="line2d_25">
    <path clip-path="url(#pce2ed81b47)" d="M 49.158807 101.531059 
L 121.967363 101.439798 
L 129.12886 101.23647 
L 133.903192 100.926012 
L 137.483941 100.525998 
L 141.064689 99.907105 
L 143.451855 99.329067 
L 145.839021 98.581789 
L 148.226186 97.629212 
L 150.613352 96.432085 
L 153.000518 94.949143 
L 155.387684 93.138803 
L 157.77485 90.961376 
L 160.162015 88.381774 
L 162.549181 85.372627 
L 164.936347 81.917647 
L 167.323513 78.015029 
L 169.710678 73.68064 
L 172.097844 68.950663 
L 175.678593 61.247766 
L 187.614422 34.615338 
L 190.001588 30.150576 
L 192.388753 26.318963 
L 193.582336 24.682075 
L 194.775919 23.250703 
L 195.969502 22.037549 
L 197.163085 21.053502 
L 198.356668 20.307482 
L 199.550251 19.806297 
L 200.743834 19.554545 
L 201.937416 19.554545 
L 203.130999 19.806297 
L 204.324582 20.307482 
L 205.518165 21.053502 
L 206.711748 22.037549 
L 207.905331 23.250703 
L 209.098914 24.682075 
L 210.292497 26.318963 
L 212.679662 30.150576 
L 215.066828 34.615338 
L 217.453994 39.567873 
L 221.034743 47.577043 
L 228.19624 63.883409 
L 231.776989 71.361988 
L 234.164154 75.900047 
L 236.55132 80.02175 
L 238.938486 83.701358 
L 241.325652 86.932212 
L 243.712818 89.723777 
L 246.099983 92.098311 
L 248.487149 94.087453 
L 250.874315 95.728956 
L 253.261481 97.063766 
L 255.648646 98.133553 
L 258.035812 98.978752 
L 260.422978 99.637135 
L 264.003727 100.348048 
L 267.584475 100.812284 
L 272.358807 101.176765 
L 278.326721 101.394515 
L 289.068967 101.51084 
L 326.070037 101.531055 
L 353.522443 101.531059 
L 353.522443 101.531059 
" style="fill:none;stroke:#4c72b0;stroke-linecap:round;stroke-width:1.75;"/>
   </g>
   <g id="line2d_26">
    <path clip-path="url(#pce2ed81b47)" d="M 49.158807 101.531059 
L 102.870037 101.438019 
L 110.031534 101.186959 
L 114.805866 100.763356 
L 118.386614 100.180622 
L 120.77378 99.59809 
L 123.160946 98.804064 
L 125.548112 97.739831 
L 127.935277 96.33792 
L 130.322443 94.523904 
L 132.709609 92.219767 
L 135.096775 89.349192 
L 137.483941 85.84499 
L 139.871106 81.65874 
L 142.258272 76.772419 
L 144.645438 71.211488 
L 147.032604 65.058481 
L 150.613352 55.073734 
L 154.194101 44.975674 
L 156.581267 38.798387 
L 157.77485 36.048597 
L 158.968432 33.610811 
L 160.162015 31.5532 
L 161.355598 29.94563 
L 162.549181 28.858496 
L 163.742764 28.361419 
L 164.936347 28.521809 
L 166.12993 29.40334 
L 167.323513 31.06434 
L 168.517096 33.556157 
L 169.710678 36.921513 
L 170.904261 41.192917 
L 172.097844 46.39115 
L 173.291427 52.523895 
L 174.48501 59.584542 
L 175.678593 67.551226 
L 178.065759 86.035043 
L 180.452924 107.476474 
L 182.84009 131.121786 
L 190.001588 204.663645 
L 192.388753 225.930304 
L 193.582336 235.255973 
L 194.775919 243.525184 
L 195.969502 250.615774 
L 197.163085 256.421736 
L 198.356668 260.855432 
L 199.550251 263.849446 
L 200.743834 265.358018 
L 201.937416 265.358018 
L 203.130999 263.849446 
L 204.324582 260.855432 
L 205.518165 256.421736 
L 206.711748 250.615774 
L 207.905331 243.525184 
L 209.098914 235.255973 
L 210.292497 225.930304 
L 212.679662 204.663645 
L 215.066828 180.924338 
L 222.228326 107.476474 
L 224.615491 86.035043 
L 227.002657 67.551226 
L 228.19624 59.584542 
L 229.389823 52.523895 
L 230.583406 46.39115 
L 231.776989 41.192917 
L 232.970572 36.921513 
L 234.164154 33.556157 
L 235.357737 31.06434 
L 236.55132 29.40334 
L 237.744903 28.521809 
L 238.938486 28.361419 
L 240.132069 28.858496 
L 241.325652 29.94563 
L 242.519235 31.5532 
L 243.712818 33.610811 
L 244.9064 36.048597 
L 247.293566 41.794717 
L 249.680732 48.283586 
L 255.648646 65.058481 
L 258.035812 71.211488 
L 260.422978 76.772419 
L 262.810144 81.65874 
L 265.197309 85.84499 
L 267.584475 89.349192 
L 269.971641 92.219767 
L 272.358807 94.523904 
L 274.745973 96.33792 
L 277.133138 97.739831 
L 279.520304 98.804064 
L 281.90747 99.59809 
L 284.294636 100.180622 
L 287.875384 100.763356 
L 291.456133 101.1083 
L 296.230465 101.349335 
L 304.585545 101.494729 
L 326.070037 101.530787 
L 353.522443 101.531059 
L 353.522443 101.531059 
" style="fill:none;stroke:#55a868;stroke-linecap:round;stroke-width:1.75;"/>
   </g>
   <g id="line2d_27">
    <path clip-path="url(#pce2ed81b47)" d="M 49.158807 101.531059 
L 102.870037 101.437288 
L 110.031534 101.184255 
L 114.805866 100.757323 
L 118.386614 100.170009 
L 120.77378 99.582899 
L 123.160946 98.782634 
L 125.548112 97.710037 
L 127.935277 96.29711 
L 130.322443 94.468838 
L 132.709609 92.146594 
L 135.096775 89.25346 
L 137.483941 85.721721 
L 139.871106 81.502573 
L 142.258272 76.577853 
L 144.645438 70.973221 
L 147.032604 64.77186 
L 150.613352 54.708649 
L 154.194101 44.531233 
L 156.581267 38.305401 
L 157.77485 35.534002 
L 158.968432 33.077059 
L 160.162015 31.003278 
L 161.355598 29.383075 
L 162.549181 28.287397 
L 163.742764 27.786414 
L 164.936347 27.948065 
L 166.12993 28.836523 
L 167.323513 30.510576 
L 168.517096 33.021975 
L 169.710678 36.413778 
L 170.904261 40.718749 
L 172.097844 45.957832 
L 173.291427 52.138771 
L 174.48501 59.254905 
L 175.678593 67.284195 
L 178.065759 85.913268 
L 180.452924 107.523196 
L 182.84009 131.354325 
L 190.001588 205.474114 
L 192.388753 226.907898 
L 193.582336 236.306853 
L 194.775919 244.641047 
L 195.969502 251.787359 
L 197.163085 257.638947 
L 198.356668 262.107485 
L 199.550251 265.125028 
L 200.743834 266.645455 
L 201.937416 266.645455 
L 203.130999 265.125028 
L 204.324582 262.107485 
L 205.518165 257.638947 
L 206.711748 251.787359 
L 207.905331 244.641047 
L 209.098914 236.306853 
L 210.292497 226.907898 
L 212.679662 205.474114 
L 215.066828 181.548251 
L 222.228326 107.523196 
L 224.615491 85.913268 
L 227.002657 67.284195 
L 228.19624 59.254905 
L 229.389823 52.138771 
L 230.583406 45.957832 
L 231.776989 40.718749 
L 232.970572 36.413778 
L 234.164154 33.021975 
L 235.357737 30.510576 
L 236.55132 28.836523 
L 237.744903 27.948065 
L 238.938486 27.786414 
L 240.132069 28.287397 
L 241.325652 29.383075 
L 242.519235 31.003278 
L 243.712818 33.077059 
L 244.9064 35.534002 
L 247.293566 41.325278 
L 249.680732 47.865139 
L 255.648646 64.77186 
L 258.035812 70.973221 
L 260.422978 76.577853 
L 262.810144 81.502573 
L 265.197309 85.721721 
L 267.584475 89.25346 
L 269.971641 92.146594 
L 272.358807 94.468838 
L 274.745973 96.29711 
L 277.133138 97.710037 
L 279.520304 98.782634 
L 281.90747 99.582899 
L 284.294636 100.170009 
L 287.875384 100.757323 
L 291.456133 101.104978 
L 296.230465 101.347907 
L 304.585545 101.494444 
L 326.070037 101.530785 
L 353.522443 101.531059 
L 353.522443 101.531059 
" style="fill:none;stroke:#c44e52;stroke-dasharray:6.475,2.8;stroke-dashoffset:0;stroke-width:1.75;"/>
   </g>
   <g id="patch_3">
    <path d="M 33.940625 279 
L 33.940625 7.2 
" style="fill:none;"/>
   </g>
   <g id="patch_4">
    <path d="M 368.740625 279 
L 368.740625 7.2 
" style="fill:none;"/>
   </g>
   <g id="patch_5">
    <path d="M 33.940625 279 
L 368.740625 279 
" style="fill:none;"/>
   </g>
   <g id="patch_6">
    <path d="M 33.940625 7.2 
L 368.740625 7.2 
" style="fill:none;"/>
   </g>
   <g id="legend_1">
    <g id="line2d_28">
     <path d="M 281.740625 19.857812 
L 301.740625 19.857812 
" style="fill:none;stroke:#4c72b0;stroke-linecap:round;stroke-width:1.75;"/>
    </g>
    <g id="line2d_29"/>
    <g id="text_13">
     <!-- $f(x)$ -->
     <defs>
      <path d="M 47.796875 75.984375 
L 46.390625 68.5 
L 37.796875 68.5 
Q 32.90625 68.5 30.6875 66.578125 
Q 28.46875 64.65625 27.390625 59.515625 
L 26.421875 54.6875 
L 41.21875 54.6875 
L 39.890625 47.703125 
L 25.09375 47.703125 
L 15.828125 0 
L 6.78125 0 
L 16.109375 47.703125 
L 7.515625 47.703125 
L 8.796875 54.6875 
L 17.390625 54.6875 
L 18.109375 58.5 
Q 19.96875 68.171875 24.625 72.078125 
Q 29.296875 75.984375 39.3125 75.984375 
z
" id="DejaVuSans-Oblique-102"/>
      <path d="M 31 75.875 
Q 24.46875 64.65625 21.28125 53.65625 
Q 18.109375 42.671875 18.109375 31.390625 
Q 18.109375 20.125 21.3125 9.0625 
Q 24.515625 -2 31 -13.1875 
L 23.1875 -13.1875 
Q 15.875 -1.703125 12.234375 9.375 
Q 8.59375 20.453125 8.59375 31.390625 
Q 8.59375 42.28125 12.203125 53.3125 
Q 15.828125 64.359375 23.1875 75.875 
z
" id="DejaVuSans-40"/>
      <path d="M 60.015625 54.6875 
L 34.90625 27.875 
L 50.296875 0 
L 39.984375 0 
L 28.421875 21.6875 
L 8.296875 0 
L -2.59375 0 
L 24.3125 28.8125 
L 10.015625 54.6875 
L 20.3125 54.6875 
L 30.8125 34.90625 
L 49.125 54.6875 
z
" id="DejaVuSans-Oblique-120"/>
      <path d="M 8.015625 75.875 
L 15.828125 75.875 
Q 23.140625 64.359375 26.78125 53.3125 
Q 30.421875 42.28125 30.421875 31.390625 
Q 30.421875 20.453125 26.78125 9.375 
Q 23.140625 -1.703125 15.828125 -13.1875 
L 8.015625 -13.1875 
Q 14.5 -2 17.703125 9.0625 
Q 20.90625 20.125 20.90625 31.390625 
Q 20.90625 42.671875 17.703125 53.65625 
Q 14.5 64.65625 8.015625 75.875 
z
" id="DejaVuSans-41"/>
     </defs>
     <g style="fill:#262626;" transform="translate(309.740625 23.357812)scale(0.1 -0.1)">
      <use transform="translate(0 0.015625)" xlink:href="#DejaVuSans-Oblique-102"/>
      <use transform="translate(35.205078 0.015625)" xlink:href="#DejaVuSans-40"/>
      <use transform="translate(74.21875 0.015625)" xlink:href="#DejaVuSans-Oblique-120"/>
      <use transform="translate(133.398438 0.015625)" xlink:href="#DejaVuSans-41"/>
     </g>
    </g>
    <g id="line2d_30">
     <path d="M 281.740625 35.357812 
L 301.740625 35.357812 
" style="fill:none;stroke:#55a868;stroke-linecap:round;stroke-width:1.75;"/>
    </g>
    <g id="line2d_31"/>
    <g id="text_14">
     <!-- $D^2f(x)$ -->
     <defs>
      <path d="M 16.890625 72.90625 
L 38.09375 72.90625 
Q 54.984375 72.90625 63.59375 65.75 
Q 72.21875 58.59375 72.21875 44.484375 
Q 72.21875 35.15625 68.9375 26.53125 
Q 65.671875 17.921875 59.90625 12.015625 
Q 54.109375 5.953125 45.171875 2.96875 
Q 36.234375 0 24.03125 0 
L 2.6875 0 
z
M 25.203125 64.796875 
L 14.203125 8.109375 
L 27.09375 8.109375 
Q 43.65625 8.109375 52.734375 17.625 
Q 61.8125 27.15625 61.8125 44.484375 
Q 61.8125 54.984375 55.953125 59.890625 
Q 50.09375 64.796875 37.59375 64.796875 
z
" id="DejaVuSans-Oblique-68"/>
      <path d="M 19.1875 8.296875 
L 53.609375 8.296875 
L 53.609375 0 
L 7.328125 0 
L 7.328125 8.296875 
Q 12.9375 14.109375 22.625 23.890625 
Q 32.328125 33.6875 34.8125 36.53125 
Q 39.546875 41.84375 41.421875 45.53125 
Q 43.3125 49.21875 43.3125 52.78125 
Q 43.3125 58.59375 39.234375 62.25 
Q 35.15625 65.921875 28.609375 65.921875 
Q 23.96875 65.921875 18.8125 64.3125 
Q 13.671875 62.703125 7.8125 59.421875 
L 7.8125 69.390625 
Q 13.765625 71.78125 18.9375 73 
Q 24.125 74.21875 28.421875 74.21875 
Q 39.75 74.21875 46.484375 68.546875 
Q 53.21875 62.890625 53.21875 53.421875 
Q 53.21875 48.921875 51.53125 44.890625 
Q 49.859375 40.875 45.40625 35.40625 
Q 44.1875 33.984375 37.640625 27.21875 
Q 31.109375 20.453125 19.1875 8.296875 
z
" id="DejaVuSans-50"/>
     </defs>
     <g style="fill:#262626;" transform="translate(309.740625 38.857812)scale(0.1 -0.1)">
      <use transform="translate(0 0.765625)" xlink:href="#DejaVuSans-Oblique-68"/>
      <use transform="translate(84.018724 39.046875)scale(0.7)" xlink:href="#DejaVuSans-50"/>
      <use transform="translate(131.289232 0.765625)" xlink:href="#DejaVuSans-Oblique-102"/>
      <use transform="translate(166.49431 0.765625)" xlink:href="#DejaVuSans-40"/>
      <use transform="translate(205.507982 0.765625)" xlink:href="#DejaVuSans-Oblique-120"/>
      <use transform="translate(264.687669 0.765625)" xlink:href="#DejaVuSans-41"/>
     </g>
    </g>
    <g id="line2d_32">
     <path d="M 281.740625 51.445312 
L 301.740625 51.445312 
" style="fill:none;stroke:#c44e52;stroke-dasharray:6.475,2.8;stroke-dashoffset:0;stroke-width:1.75;"/>
    </g>
    <g id="line2d_33"/>
    <g id="text_15">
     <!-- $D^2_{Fourier}f(x)$ -->
     <defs>
      <path d="M 16.890625 72.90625 
L 58.6875 72.90625 
L 57.078125 64.59375 
L 25.09375 64.59375 
L 20.90625 43.109375 
L 49.8125 43.109375 
L 48.1875 34.8125 
L 19.28125 34.8125 
L 12.5 0 
L 2.6875 0 
z
" id="DejaVuSans-Oblique-70"/>
      <path d="M 25.390625 -1.421875 
Q 15.765625 -1.421875 10.171875 4.515625 
Q 4.59375 10.453125 4.59375 20.703125 
Q 4.59375 26.65625 6.515625 32.828125 
Q 8.453125 39.015625 11.53125 43.21875 
Q 16.359375 49.75 22.3125 52.875 
Q 28.265625 56 35.796875 56 
Q 45.125 56 50.859375 50.1875 
Q 56.59375 44.390625 56.59375 35.015625 
Q 56.59375 28.515625 54.6875 22.0625 
Q 52.78125 15.625 49.703125 11.375 
Q 44.921875 4.828125 38.96875 1.703125 
Q 33.015625 -1.421875 25.390625 -1.421875 
z
M 13.921875 21 
Q 13.921875 13.578125 17.015625 9.890625 
Q 20.125 6.203125 26.421875 6.203125 
Q 35.453125 6.203125 41.375 14.078125 
Q 47.3125 21.96875 47.3125 34.078125 
Q 47.3125 41.15625 44.140625 44.765625 
Q 40.96875 48.390625 34.8125 48.390625 
Q 29.734375 48.390625 25.78125 46.015625 
Q 21.828125 43.65625 18.703125 38.8125 
Q 16.40625 35.203125 15.15625 30.5625 
Q 13.921875 25.921875 13.921875 21 
z
" id="DejaVuSans-Oblique-111"/>
      <path d="M 6.6875 21.6875 
L 13.09375 54.6875 
L 22.125 54.6875 
L 15.71875 22.015625 
Q 15.234375 19.625 15.015625 17.921875 
Q 14.796875 16.21875 14.796875 15.09375 
Q 14.796875 10.9375 17.328125 8.65625 
Q 19.875 6.390625 24.515625 6.390625 
Q 31.734375 6.390625 37 11.265625 
Q 42.28125 16.15625 43.890625 24.421875 
L 49.90625 54.6875 
L 58.890625 54.6875 
L 48.296875 0 
L 39.3125 0 
L 41.109375 8.59375 
Q 37.3125 3.8125 32.0625 1.1875 
Q 26.8125 -1.421875 20.90625 -1.421875 
Q 13.71875 -1.421875 9.71875 2.515625 
Q 5.71875 6.453125 5.71875 13.484375 
Q 5.71875 14.9375 5.953125 17.140625 
Q 6.203125 19.34375 6.6875 21.6875 
z
" id="DejaVuSans-Oblique-117"/>
      <path d="M 44.578125 46.390625 
Q 43.21875 47.125 41.453125 47.515625 
Q 39.703125 47.90625 37.703125 47.90625 
Q 30.515625 47.90625 25.140625 42.453125 
Q 19.78125 37.015625 18.015625 27.875 
L 12.5 0 
L 3.515625 0 
L 14.203125 54.6875 
L 23.1875 54.6875 
L 21.484375 46.1875 
Q 25.046875 50.921875 30 53.453125 
Q 34.96875 56 40.578125 56 
Q 42.046875 56 43.453125 55.828125 
Q 44.875 55.671875 46.296875 55.28125 
z
" id="DejaVuSans-Oblique-114"/>
      <path d="M 18.3125 75.984375 
L 27.296875 75.984375 
L 25.09375 64.59375 
L 16.109375 64.59375 
z
M 14.203125 54.6875 
L 23.1875 54.6875 
L 12.5 0 
L 3.515625 0 
z
" id="DejaVuSans-Oblique-105"/>
      <path d="M 48.09375 32.234375 
Q 48.25 33.015625 48.3125 33.84375 
Q 48.390625 34.671875 48.390625 35.5 
Q 48.390625 41.453125 44.890625 44.921875 
Q 41.40625 48.390625 35.40625 48.390625 
Q 28.71875 48.390625 23.578125 44.15625 
Q 18.453125 39.9375 15.828125 32.171875 
z
M 55.90625 25.203125 
L 14.109375 25.203125 
Q 13.8125 23.34375 13.71875 22.265625 
Q 13.625 21.1875 13.625 20.40625 
Q 13.625 13.625 17.796875 9.90625 
Q 21.96875 6.203125 29.59375 6.203125 
Q 35.453125 6.203125 40.671875 7.515625 
Q 45.90625 8.84375 50.390625 11.375 
L 48.6875 2.484375 
Q 43.84375 0.53125 38.6875 -0.4375 
Q 33.546875 -1.421875 28.21875 -1.421875 
Q 16.84375 -1.421875 10.71875 4.015625 
Q 4.59375 9.46875 4.59375 19.484375 
Q 4.59375 28.03125 7.640625 35.375 
Q 10.6875 42.71875 16.609375 48.484375 
Q 20.40625 52.09375 25.65625 54.046875 
Q 30.90625 56 36.8125 56 
Q 46.09375 56 51.578125 50.4375 
Q 57.078125 44.875 57.078125 35.5 
Q 57.078125 33.25 56.78125 30.6875 
Q 56.5 28.125 55.90625 25.203125 
z
" id="DejaVuSans-Oblique-101"/>
     </defs>
     <g style="fill:#262626;" transform="translate(309.740625 54.945312)scale(0.1 -0.1)">
      <use transform="translate(0 0.701562)" xlink:href="#DejaVuSans-Oblique-68"/>
      <use transform="translate(84.018724 39.046875)scale(0.7)" xlink:href="#DejaVuSans-50"/>
      <use transform="translate(77.001953 -26.642188)scale(0.7)" xlink:href="#DejaVuSans-Oblique-70"/>
      <use transform="translate(117.265625 -26.642188)scale(0.7)" xlink:href="#DejaVuSans-Oblique-111"/>
      <use transform="translate(160.092773 -26.642188)scale(0.7)" xlink:href="#DejaVuSans-Oblique-117"/>
      <use transform="translate(204.458008 -26.642188)scale(0.7)" xlink:href="#DejaVuSans-Oblique-114"/>
      <use transform="translate(233.237305 -26.642188)scale(0.7)" xlink:href="#DejaVuSans-Oblique-105"/>
      <use transform="translate(252.685547 -26.642188)scale(0.7)" xlink:href="#DejaVuSans-Oblique-101"/>
      <use transform="translate(295.751953 -26.642188)scale(0.7)" xlink:href="#DejaVuSans-Oblique-114"/>
      <use transform="translate(327.265625 0.701562)" xlink:href="#DejaVuSans-Oblique-102"/>
      <use transform="translate(362.470703 0.701562)" xlink:href="#DejaVuSans-40"/>
      <use transform="translate(401.484375 0.701562)" xlink:href="#DejaVuSans-Oblique-120"/>
      <use transform="translate(460.664062 0.701562)" xlink:href="#DejaVuSans-41"/>
     </g>
    </g>
   </g>
  </g>
 </g>
 <defs>
  <clipPath id="pce2ed81b47">
   <rect height="271.8" width="334.8" x="33.940625" y="7.2"/>
  </clipPath>
 </defs>
</svg>
