<?xml version="1.0" encoding="utf-8" standalone="no"?>
<!DOCTYPE svg PUBLIC "-//W3C//DTD SVG 1.1//EN"
  "http://www.w3.org/Graphics/SVG/1.1/DTD/svg11.dtd">
<!-- Created with matplotlib (https://matplotlib.org/) -->
<svg height="144pt" version="1.1" viewBox="0 0 324 144" width="324pt" xmlns="http://www.w3.org/2000/svg" xmlns:xlink="http://www.w3.org/1999/xlink">
 <metadata>
  <rdf:RDF xmlns:cc="http://creativecommons.org/ns#" xmlns:dc="http://purl.org/dc/elements/1.1/" xmlns:rdf="http://www.w3.org/1999/02/22-rdf-syntax-ns#">
   <cc:Work>
    <dc:type rdf:resource="http://purl.org/dc/dcmitype/StillImage"/>
    <dc:date>2021-07-29T13:34:51.305122</dc:date>
    <dc:format>image/svg+xml</dc:format>
    <dc:creator>
     <cc:Agent>
      <dc:title>Matplotlib v3.3.4, https://matplotlib.org/</dc:title>
     </cc:Agent>
    </dc:creator>
   </cc:Work>
  </rdf:RDF>
 </metadata>
 <defs>
  <style type="text/css">*{stroke-linecap:butt;stroke-linejoin:round;}</style>
 </defs>
 <g id="figure_1">
  <g id="patch_1">
   <path d="M 0 144 
L 324 144 
L 324 0 
L 0 0 
z
" style="fill:none;"/>
  </g>
  <g id="axes_1">
   <g id="patch_2">
    <path d="M 27.939467 97.171983 
L 109.100089 97.171983 
L 109.100089 16.765173 
L 27.939467 16.765173 
z
" style="fill:none;opacity:0;"/>
   </g>
   <g id="matplotlib.axis_1">
    <g id="xtick_1">
     <g id="line2d_1">
      <path clip-path="url(#pa908d88d1f)" d="M 27.939467 97.171983 
L 27.939467 16.765173 
" style="fill:none;stroke:#ffffff;stroke-linecap:round;"/>
     </g>
     <g id="text_1">
      <!-- $\mathdefault{0}$ -->
      <g style="fill:#262626;" transform="translate(25.199734 114.28233)scale(0.11 -0.11)">
       <defs>
        <path d="M 42 31.84375 
C 42 37.96875 41.90625 48.421875 37.703125 56.453125 
C 34 63.484375 28.09375 66 22.90625 66 
C 18.09375 66 12 63.78125 8.203125 56.5625 
C 4.203125 49.015625 3.796875 39.671875 3.796875 31.84375 
C 3.796875 26.109375 3.90625 17.375 7 9.734375 
C 11.296875 -0.609375 19 -2 22.90625 -2 
C 27.5 -2 34.5 -0.109375 38.59375 9.4375 
C 41.59375 16.375 42 24.5 42 31.84375 
z
M 22.90625 -0.40625 
C 16.5 -0.40625 12.703125 5.125 11.296875 12.75 
C 10.203125 18.6875 10.203125 27.328125 10.203125 32.953125 
C 10.203125 40.6875 10.203125 47.109375 11.5 53.234375 
C 13.40625 61.78125 19 64.390625 22.90625 64.390625 
C 27 64.390625 32.296875 61.671875 34.203125 53.4375 
C 35.5 47.71875 35.59375 40.984375 35.59375 32.953125 
C 35.59375 26.421875 35.59375 18.375 34.40625 12.453125 
C 32.296875 1.5 26.40625 -0.40625 22.90625 -0.40625 
z
" id="CMR17-48"/>
       </defs>
       <use transform="scale(0.996264)" xlink:href="#CMR17-48"/>
      </g>
     </g>
    </g>
    <g id="xtick_2">
     <g id="line2d_2">
      <path clip-path="url(#pa908d88d1f)" d="M 109.100089 97.171983 
L 109.100089 16.765173 
" style="fill:none;stroke:#ffffff;stroke-linecap:round;"/>
     </g>
     <g id="text_2">
      <!-- $\mathdefault{1}$ -->
      <g style="fill:#262626;" transform="translate(106.360355 114.28233)scale(0.11 -0.11)">
       <defs>
        <path d="M 26.59375 63.796875 
C 26.59375 65.890625 26.5 66 25.09375 66 
C 21.203125 61.359375 15.296875 59.890625 9.703125 59.6875 
C 9.40625 59.6875 8.90625 59.6875 8.796875 59.5 
C 8.703125 59.296875 8.703125 59.09375 8.703125 57 
C 11.796875 57 17 57.59375 21 59.984375 
L 21 7.296875 
C 21 3.796875 20.796875 2.59375 12.203125 2.59375 
L 9.203125 2.59375 
L 9.203125 0 
C 14 0.09375 19 0.1875 23.796875 0.1875 
C 28.59375 0.1875 33.59375 0.09375 38.40625 0 
L 38.40625 2.59375 
L 35.40625 2.59375 
C 26.796875 2.59375 26.59375 3.6875 26.59375 7.296875 
z
" id="CMR17-49"/>
       </defs>
       <use transform="scale(0.996264)" xlink:href="#CMR17-49"/>
      </g>
     </g>
    </g>
    <g id="text_3">
     <!-- $W_{\text{counter}}$ -->
     <g style="fill:#262626;" transform="translate(49.765674 128.715404)scale(0.12 -0.12)">
      <defs>
       <path d="M 90.296875 56.9375 
C 92.59375 60.8125 94.796875 64.484375 100.796875 65.09375 
C 101.703125 65.1875 102.59375 65.296875 102.59375 66.890625 
C 102.59375 68 101.703125 68 101.40625 68 
C 101.203125 68 100.5 67.796875 93.90625 67.796875 
C 90.90625 67.796875 87.796875 68 84.90625 68 
C 84.296875 68 83.09375 68 83.09375 66.09375 
C 83.09375 65.1875 83.90625 65.09375 84.5 65.09375 
C 86.5 64.984375 89.703125 64.390625 89.703125 61.3125 
C 89.703125 60.015625 89.296875 59.328125 88.296875 57.640625 
L 61 10.125 
L 57.40625 61.90625 
C 57.40625 63.09375 58.5 64.984375 64.09375 65.09375 
C 65.40625 65.09375 66.40625 65.09375 66.40625 66.984375 
C 66.40625 68 65.40625 68 64.90625 68 
C 61.40625 68 57.703125 67.796875 54.09375 67.796875 
L 48.90625 67.796875 
C 47.40625 67.796875 45.59375 68 44.09375 68 
C 43.5 68 42.296875 68 42.296875 66.09375 
C 42.296875 65.09375 43 65.09375 44.703125 65.09375 
C 49.296875 65.09375 49.296875 64.984375 49.703125 58.921875 
L 50 55.34375 
L 24.09375 10.125 
L 20.40625 61.40625 
C 20.40625 62.5 20.40625 64.984375 27.203125 65.09375 
C 28.296875 65.09375 29.40625 65.09375 29.40625 66.890625 
C 29.40625 68 28.5 68 27.90625 68 
C 24.40625 68 20.703125 67.796875 17.09375 67.796875 
L 11.90625 67.796875 
C 10.40625 67.796875 8.59375 68 7.09375 68 
C 6.5 68 5.296875 68 5.296875 66.09375 
C 5.296875 65.09375 6.09375 65.09375 7.5 65.09375 
C 12.203125 65.09375 12.296875 64.484375 12.5 61.3125 
L 16.90625 0.296875 
C 17 -1.40625 17.09375 -2 18.296875 -2 
C 19.296875 -2 19.5 -1.609375 20.40625 -0.109375 
L 50.203125 51.671875 
L 53.90625 0.296875 
C 54 -1.40625 54.09375 -2 55.296875 -2 
C 56.296875 -2 56.59375 -1.5 57.40625 -0.109375 
z
" id="CMMI12-87"/>
       <path d="M 38.5 39.6875 
C 38.5 40.390625 33.90625 42.390625 32.703125 42.796875 
C 29.40625 44 25.203125 44 24.09375 44 
C 11.09375 44 3.296875 32.6875 3.296875 21.296875 
C 3.296875 9.296875 12 -1 23.703125 -1 
C 30.40625 -1 35.203125 1.1875 39.09375 3.796875 
L 38.5 10.390625 
C 34.203125 7.09375 29.203125 5.296875 23.796875 5.296875 
C 16 5.296875 10.90625 12.09375 10.90625 21.390625 
C 10.90625 28.59375 14.203125 37.6875 24.203125 37.6875 
C 29.703125 37.6875 32.796875 36.59375 37.40625 33.484375 
z
" id="CMSS17-99"/>
       <path d="M 44.203125 21.1875 
C 44.203125 33.984375 34.703125 44 23.5 44 
C 12 44 2.703125 33.6875 2.703125 21.1875 
C 2.703125 8.5 12.296875 -1 23.40625 -1 
C 34.796875 -1 44.203125 8.796875 44.203125 21.1875 
z
M 23.5 5.296875 
C 16.40625 5.296875 10.296875 11.09375 10.296875 21.984375 
C 10.296875 33.59375 17.40625 37.890625 23.40625 37.890625 
C 29.90625 37.890625 36.59375 33.1875 36.59375 21.984375 
C 36.59375 10.6875 30.09375 5.296875 23.5 5.296875 
z
" id="CMSS17-111"/>
       <path d="M 40.90625 43 
L 33.296875 43 
L 33.296875 15.25 
C 33.296875 7.8125 27.90625 4.796875 22.203125 4.796875 
C 15.59375 4.796875 15 7 15 11.125 
L 15 43 
L 7.40625 43 
L 7.40625 10.625 
C 7.40625 2.796875 10.09375 -1 17 -1 
C 20.40625 -1 28.09375 -0.203125 33.5 4.796875 
L 33.5 -0.203125 
L 40.90625 -0.203125 
z
" id="CMSS17-117"/>
       <path d="M 40.90625 29.34375 
C 40.90625 35.671875 39.40625 44 28.09375 44 
C 21.703125 44 17.5 40.6875 14.703125 37.28125 
L 14.703125 43.484375 
L 7.40625 43.484375 
L 7.40625 0 
L 15 0 
L 15 24.3125 
C 15 30.65625 17.40625 37.890625 24.203125 37.890625 
C 33 37.890625 33.296875 31.953125 33.296875 28.53125 
L 33.296875 0 
L 40.90625 0 
z
" id="CMSS17-110"/>
       <path d="M 16.703125 37.1875 
L 29.703125 37.1875 
L 29.703125 43 
L 16.703125 43 
L 16.703125 55 
L 9.59375 55 
L 9.59375 43 
L 1.703125 43 
L 1.703125 37.1875 
L 9.40625 37.1875 
L 9.40625 11.734375 
C 9.40625 6 10.703125 -1 17.296875 -1 
C 22.296875 -1 26.90625 0.390625 31.296875 2.6875 
L 29.703125 8.609375 
C 27.296875 6.5 24.40625 5.296875 21.296875 5.296875 
C 16.90625 5.296875 16.703125 10.921875 16.703125 13.4375 
z
" id="CMSS17-116"/>
       <path d="M 39.09375 21.484375 
C 39.09375 24.796875 38.90625 31.265625 35.703125 36.671875 
C 32.203125 42.390625 26.5 44 22.203125 44 
C 11.796875 44 3 34.125 3 21.296875 
C 3 9.046875 12.09375 -1 23.59375 -1 
C 28.09375 -1 33.59375 0.296875 38.59375 3.890625 
C 38.59375 4.296875 38.40625 6.46875 38.296875 6.578125 
C 38.296875 6.765625 38 9.828125 38 10.234375 
C 33.203125 6.375 27.703125 5.09375 23.703125 5.09375 
C 17.296875 5.09375 10.40625 10.421875 10.09375 21.484375 
z
M 10.90625 27 
C 12.203125 32.59375 16.59375 37.890625 22.203125 37.890625 
C 23.703125 37.890625 30.703125 37.6875 32.5 27 
z
" id="CMSS17-101"/>
       <path d="M 14.90625 21.390625 
C 14.90625 30.84375 21.796875 37.171875 30.59375 37.375 
L 30.59375 44 
C 24.203125 43.890625 18.203125 40.6875 14.59375 35.46875 
L 14.59375 43.484375 
L 7.5 43.484375 
L 7.5 0 
L 14.90625 0 
z
" id="CMSS17-114"/>
      </defs>
      <use transform="scale(0.996264)" xlink:href="#CMMI12-87"/>
      <use transform="translate(92.095909 -14.943915)scale(0.697382)" xlink:href="#CMSS17-99"/>
      <use transform="translate(121.242955 -14.943915)scale(0.697382)" xlink:href="#CMSS17-111"/>
      <use transform="translate(154.033337 -14.943915)scale(0.697382)" xlink:href="#CMSS17-117"/>
      <use transform="translate(187.776642 -14.943915)scale(0.697382)" xlink:href="#CMSS17-110"/>
      <use transform="translate(221.519947 -14.943915)scale(0.697382)" xlink:href="#CMSS17-116"/>
      <use transform="translate(245.201937 -14.943915)scale(0.697382)" xlink:href="#CMSS17-101"/>
      <use transform="translate(274.348984 -14.943915)scale(0.697382)" xlink:href="#CMSS17-114"/>
     </g>
    </g>
   </g>
   <g id="matplotlib.axis_2">
    <g id="ytick_1">
     <g id="line2d_3">
      <path clip-path="url(#pa908d88d1f)" d="M 27.939467 97.171983 
L 109.100089 97.171983 
" style="fill:none;stroke:#ffffff;stroke-linecap:round;"/>
     </g>
     <g id="text_4">
      <!-- $\mathdefault{0}$ -->
      <g style="fill:#262626;" transform="translate(12.96 100.977156)scale(0.11 -0.11)">
       <use transform="scale(0.996264)" xlink:href="#CMR17-48"/>
      </g>
     </g>
    </g>
    <g id="ytick_2">
     <g id="line2d_4">
      <path clip-path="url(#pa908d88d1f)" d="M 27.939467 16.765173 
L 109.100089 16.765173 
" style="fill:none;stroke:#ffffff;stroke-linecap:round;"/>
     </g>
     <g id="text_5">
      <!-- $\mathdefault{1}$ -->
      <g style="fill:#262626;" transform="translate(12.96 20.570347)scale(0.11 -0.11)">
       <use transform="scale(0.996264)" xlink:href="#CMR17-49"/>
      </g>
     </g>
    </g>
   </g>
   <g id="LineCollection_1">
    <path clip-path="url(#pa908d88d1f)" d="M 28.220849 17.043942 
L 108.818707 96.893215 
L 108.818707 96.893215 
" style="fill:none;stroke:#440154;stroke-width:1.5;"/>
   </g>
   <g id="LineCollection_2">
    <path clip-path="url(#pa908d88d1f)" d="M 34.713699 17.043942 
L 108.818707 90.46067 
L 108.818707 90.46067 
" style="fill:none;stroke:#481c6e;stroke-width:1.5;"/>
   </g>
   <g id="LineCollection_3">
    <path clip-path="url(#pa908d88d1f)" d="M 41.206548 17.043942 
L 108.818707 84.028125 
L 108.818707 84.028125 
" style="fill:none;stroke:#453581;stroke-width:1.5;"/>
   </g>
   <g id="LineCollection_4">
    <path clip-path="url(#pa908d88d1f)" d="M 47.699398 17.043942 
L 108.818707 77.59558 
L 108.818707 77.59558 
" style="fill:none;stroke:#3d4d8a;stroke-width:1.5;"/>
   </g>
   <g id="LineCollection_5">
    <path clip-path="url(#pa908d88d1f)" d="M 54.192248 17.043942 
L 108.818707 71.163036 
L 108.818707 71.163036 
" style="fill:none;stroke:#34618d;stroke-width:1.5;"/>
   </g>
   <g id="LineCollection_6">
    <path clip-path="url(#pa908d88d1f)" d="M 60.685098 17.043942 
L 108.818707 64.730491 
L 108.818707 64.730491 
" style="fill:none;stroke:#2b748e;stroke-width:1.5;"/>
   </g>
   <g id="LineCollection_7">
    <path clip-path="url(#pa908d88d1f)" d="M 67.177947 17.043942 
L 108.818707 58.297946 
L 108.818707 58.297946 
" style="fill:none;stroke:#24878e;stroke-width:1.5;"/>
   </g>
   <g id="LineCollection_8">
    <path clip-path="url(#pa908d88d1f)" d="M 73.670797 17.043942 
L 108.818707 51.865401 
L 108.818707 51.865401 
" style="fill:none;stroke:#1f998a;stroke-width:1.5;"/>
   </g>
   <g id="LineCollection_9">
    <path clip-path="url(#pa908d88d1f)" d="M 80.163647 17.043942 
L 108.818707 45.432857 
L 108.818707 45.432857 
" style="fill:none;stroke:#25ac82;stroke-width:1.5;"/>
   </g>
   <g id="LineCollection_10">
    <path clip-path="url(#pa908d88d1f)" d="M 86.656497 17.043942 
L 108.818707 39.000312 
L 108.818707 39.000312 
" style="fill:none;stroke:#40bd72;stroke-width:1.5;"/>
   </g>
   <g id="LineCollection_11">
    <path clip-path="url(#pa908d88d1f)" d="M 93.149346 17.043942 
L 108.818707 32.567767 
L 108.818707 32.567767 
" style="fill:none;stroke:#67cc5c;stroke-width:1.5;"/>
   </g>
   <g id="LineCollection_12">
    <path clip-path="url(#pa908d88d1f)" d="M 99.642196 17.043942 
L 108.818707 26.135222 
L 108.818707 26.135222 
" style="fill:none;stroke:#98d83e;stroke-width:1.5;"/>
   </g>
   <g id="LineCollection_13">
    <path clip-path="url(#pa908d88d1f)" d="M 106.135046 17.043942 
L 108.818707 19.702677 
L 108.818707 19.702677 
" style="fill:none;stroke:#cde11d;stroke-width:1.5;"/>
   </g>
   <g id="LineCollection_14"/>
   <g id="patch_3">
    <path d="M 27.939467 97.171983 
L 27.939467 16.765173 
" style="fill:none;stroke:#ffffff;stroke-linecap:square;stroke-linejoin:miter;stroke-width:1.25;"/>
   </g>
   <g id="patch_4">
    <path d="M 109.100089 97.171983 
L 109.100089 16.765173 
" style="fill:none;stroke:#ffffff;stroke-linecap:square;stroke-linejoin:miter;stroke-width:1.25;"/>
   </g>
   <g id="patch_5">
    <path d="M 27.939467 97.171983 
L 109.100089 97.171983 
" style="fill:none;stroke:#ffffff;stroke-linecap:square;stroke-linejoin:miter;stroke-width:1.25;"/>
   </g>
   <g id="patch_6">
    <path d="M 27.939467 16.765173 
L 109.100089 16.765173 
" style="fill:none;stroke:#ffffff;stroke-linecap:square;stroke-linejoin:miter;stroke-width:1.25;"/>
   </g>
  </g>
  <g id="axes_2">
   <g id="patch_7">
    <path d="M 127.539556 97.171983 
L 208.700178 97.171983 
L 208.700178 16.765173 
L 127.539556 16.765173 
z
" style="fill:none;opacity:0;"/>
   </g>
   <g id="matplotlib.axis_3">
    <g id="xtick_3">
     <g id="line2d_5">
      <path clip-path="url(#p3569d61737)" d="M 127.539556 97.171983 
L 127.539556 16.765173 
" style="fill:none;stroke:#ffffff;stroke-linecap:round;"/>
     </g>
     <g id="text_6">
      <!-- $\mathdefault{0}$ -->
      <g style="fill:#262626;" transform="translate(124.799822 114.28233)scale(0.11 -0.11)">
       <use transform="scale(0.996264)" xlink:href="#CMR17-48"/>
      </g>
     </g>
    </g>
    <g id="xtick_4">
     <g id="line2d_6">
      <path clip-path="url(#p3569d61737)" d="M 208.700178 97.171983 
L 208.700178 16.765173 
" style="fill:none;stroke:#ffffff;stroke-linecap:round;"/>
     </g>
     <g id="text_7">
      <!-- $\mathdefault{1}$ -->
      <g style="fill:#262626;" transform="translate(205.960444 114.28233)scale(0.11 -0.11)">
       <use transform="scale(0.996264)" xlink:href="#CMR17-49"/>
      </g>
     </g>
    </g>
    <g id="text_8">
     <!-- $C_{\text{ind}}$ -->
     <g style="fill:#262626;" transform="translate(158.549684 128.715404)scale(0.12 -0.12)">
      <defs>
       <path d="M 74.703125 69.09375 
C 74.703125 70 74 70 73.796875 70 
C 73.59375 70 73.203125 70 72.40625 68.984375 
L 65.5 60.640625 
C 62 66.59375 56.5 70 49 70 
C 27.40625 70 5 48.234375 5 24.90625 
C 5 8.328125 16.703125 -2 31.296875 -2 
C 39.296875 -2 46.296875 1.390625 52.09375 6.25 
C 60.796875 13.5 63.40625 23.125 63.40625 23.921875 
C 63.40625 24.8125 62.59375 24.8125 62.296875 24.8125 
C 61.40625 24.8125 61.296875 24.21875 61.09375 23.8125 
C 56.5 8.328125 43 0.890625 33 0.890625 
C 22.40625 0.890625 13.203125 7.640625 13.203125 21.734375 
C 13.203125 24.90625 14.203125 42.171875 25.5 55.171875 
C 31 61.53125 40.40625 67.09375 49.90625 67.09375 
C 60.90625 67.09375 65.796875 58.0625 65.796875 47.9375 
C 65.796875 45.359375 65.5 43.171875 65.5 42.765625 
C 65.5 41.875 66.5 41.875 66.796875 41.875 
C 67.90625 41.875 68 41.984375 68.40625 43.765625 
z
" id="CMMI12-67"/>
       <path d="M 15.296875 66 
L 6.90625 66 
L 6.90625 57.59375 
L 15.296875 57.59375 
z
M 14.796875 43 
L 7.40625 43 
L 7.40625 0 
L 14.796875 0 
z
" id="CMSS17-105"/>
       <path d="M 40.796875 69 
L 33.40625 69 
L 33.40625 38.984375 
C 30.296875 41.59375 25.203125 44 19.59375 44 
C 10.5 44 3.296875 34.046875 3.296875 21.484375 
C 3.296875 8.9375 10.40625 -1 19.296875 -1 
C 26.203125 -1 30.796875 2.6875 33.203125 4.796875 
L 33.203125 -0.203125 
L 40.796875 -0.203125 
z
M 33.203125 13.296875 
C 33.203125 11.875 33.203125 10.359375 30.09375 7.625 
C 28.09375 5.90625 25.703125 5.09375 23.40625 5.09375 
C 18 5.09375 10.90625 9.140625 10.90625 21.390625 
C 10.90625 34.140625 18.90625 37.890625 24.40625 37.890625 
C 28.09375 37.890625 31.09375 36.0625 33.203125 33.03125 
z
" id="CMSS17-100"/>
      </defs>
      <use transform="scale(0.996264)" xlink:href="#CMMI12-67"/>
      <use transform="translate(69.792037 -14.943915)scale(0.697382)" xlink:href="#CMSS17-105"/>
      <use transform="translate(85.318468 -14.943915)scale(0.697382)" xlink:href="#CMSS17-110"/>
      <use transform="translate(119.061773 -14.943915)scale(0.697382)" xlink:href="#CMSS17-100"/>
     </g>
    </g>
   </g>
   <g id="matplotlib.axis_4">
    <g id="ytick_3">
     <g id="line2d_7">
      <path clip-path="url(#p3569d61737)" d="M 127.539556 97.171983 
L 208.700178 97.171983 
" style="fill:none;stroke:#ffffff;stroke-linecap:round;"/>
     </g>
    </g>
    <g id="ytick_4">
     <g id="line2d_8">
      <path clip-path="url(#p3569d61737)" d="M 127.539556 16.765173 
L 208.700178 16.765173 
" style="fill:none;stroke:#ffffff;stroke-linecap:round;"/>
     </g>
    </g>
   </g>
   <g id="LineCollection_15"/>
   <g id="LineCollection_16">
    <path clip-path="url(#p3569d61737)" d="M 134.054995 17.043942 
L 134.962929 26.844203 
L 135.935234 34.98888 
L 136.955531 41.726917 
L 138.047291 47.487697 
L 139.197404 52.389333 
L 140.386739 56.535109 
L 141.674804 60.23812 
L 143.010373 63.426555 
L 144.441338 66.283563 
L 146.007631 68.903237 
L 147.590763 71.135179 
L 149.385316 73.274013 
L 151.292154 75.192521 
L 153.358067 76.951246 
L 155.586566 78.557902 
L 158.074142 80.074344 
L 160.746497 81.45029 
L 163.844417 82.791834 
L 167.332362 84.052292 
L 171.352319 85.256064 
L 175.833728 86.36179 
L 181.136796 87.431382 
L 187.238411 88.426935 
L 194.451899 89.369696 
L 202.988161 90.252447 
L 208.418796 90.717059 
L 208.418796 90.717059 
" style="fill:none;stroke:#481c6e;stroke-width:1.5;"/>
   </g>
   <g id="LineCollection_17">
    <path clip-path="url(#p3569d61737)" d="M 140.570433 17.043942 
L 141.830899 24.111064 
L 143.159828 30.326881 
L 144.557236 35.815872 
L 146.016996 40.663144 
L 147.565974 45.033919 
L 149.145106 48.844649 
L 150.855252 52.389333 
L 152.592836 55.495257 
L 154.498926 58.441899 
L 156.431368 61.032378 
L 158.550103 63.501546 
L 160.805433 65.784304 
L 163.246283 67.929912 
L 165.776063 69.864607 
L 168.608788 71.748117 
L 171.700415 73.527999 
L 175.044753 75.192521 
L 178.688491 76.75829 
L 182.735944 78.25519 
L 187.277593 79.69336 
L 192.369936 81.066283 
L 198.090956 82.372296 
L 204.560145 83.615366 
L 208.418796 84.262135 
L 208.418796 84.262135 
" style="fill:none;stroke:#453581;stroke-width:1.5;"/>
   </g>
   <g id="LineCollection_18">
    <path clip-path="url(#p3569d61737)" d="M 147.085872 17.043942 
L 148.629305 22.908037 
L 150.232349 28.154124 
L 151.896958 32.870874 
L 153.671857 37.238188 
L 155.47988 41.116513 
L 157.394898 44.712092 
L 159.389987 47.998142 
L 161.476181 51.021018 
L 163.766479 53.938723 
L 166.108451 56.563923 
L 168.557399 58.988406 
L 171.293457 61.376135 
L 174.123185 63.550558 
L 177.186479 65.625053 
L 180.507431 67.602966 
L 184.120545 69.491166 
L 188.090765 71.306141 
L 192.443487 73.04081 
L 197.204456 74.689958 
L 202.436501 76.260476 
L 208.240507 77.76443 
L 208.418796 77.807212 
L 208.418796 77.807212 
" style="fill:none;stroke:#3d4d8a;stroke-width:1.5;"/>
   </g>
   <g id="LineCollection_19">
    <path clip-path="url(#p3569d61737)" d="M 153.60131 17.043942 
L 155.391225 22.193448 
L 157.271063 26.934127 
L 159.221494 31.25817 
L 161.25881 35.240679 
L 163.369808 38.889465 
L 165.627277 42.343885 
L 167.968646 45.519142 
L 170.43318 48.486954 
L 172.956166 51.191507 
L 175.66359 53.778337 
L 178.522733 56.211858 
L 181.700485 58.615087 
L 185.04938 60.860321 
L 188.648971 62.999224 
L 192.56614 65.057774 
L 196.705206 66.979578 
L 201.213121 68.826981 
L 206.160652 70.610698 
L 208.418796 71.352288 
L 208.418796 71.352288 
" style="fill:none;stroke:#34618d;stroke-width:1.5;"/>
   </g>
   <g id="LineCollection_20">
    <path clip-path="url(#p3569d61737)" d="M 160.116749 17.043942 
L 162.151258 21.753944 
L 164.247016 26.059827 
L 166.463455 30.109158 
L 168.771287 33.862813 
L 171.178127 37.354565 
L 173.733155 40.663144 
L 176.342795 43.684823 
L 179.052233 46.498114 
L 181.93561 49.184188 
L 185.03185 51.768565 
L 188.404031 54.28413 
L 191.947299 56.643523 
L 195.77047 58.914447 
L 199.821273 61.058471 
L 204.22825 63.133763 
L 208.418796 64.897364 
L 208.418796 64.897364 
" style="fill:none;stroke:#2b748e;stroke-width:1.5;"/>
   </g>
   <g id="LineCollection_21">
    <path clip-path="url(#p3569d61737)" d="M 166.632188 17.043942 
L 168.875553 21.392608 
L 171.232542 25.480476 
L 173.664873 29.260992 
L 176.254361 32.870874 
L 178.931681 36.220699 
L 181.776588 39.417791 
L 184.729834 42.400156 
L 187.808634 45.198133 
L 191.057692 47.856682 
L 194.564929 50.437204 
L 198.301105 52.904778 
L 202.243888 55.241135 
L 206.509804 57.506209 
L 208.418796 58.44244 
L 208.418796 58.44244 
" style="fill:none;stroke:#24878e;stroke-width:1.5;"/>
   </g>
   <g id="LineCollection_22">
    <path clip-path="url(#p3569d61737)" d="M 173.147626 17.043942 
L 175.609313 21.147357 
L 178.190342 25.021368 
L 180.871608 28.648737 
L 183.659079 32.052304 
L 186.588967 35.283384 
L 189.628367 38.312983 
L 192.930738 41.285467 
L 196.398788 44.100155 
L 200.065327 46.7832 
L 203.927341 49.330756 
L 208.059027 51.785628 
L 208.418796 51.987516 
L 208.418796 51.987516 
" style="fill:none;stroke:#1f998a;stroke-width:1.5;"/>
   </g>
   <g id="LineCollection_23">
    <path clip-path="url(#p3569d61737)" d="M 179.663065 17.043942 
L 182.340399 20.958654 
L 185.108578 24.623336 
L 188.053671 28.154124 
L 191.087889 31.449493 
L 194.338298 34.647532 
L 197.689436 37.634395 
L 201.285419 40.537557 
L 205.083217 43.311299 
L 208.418796 45.532592 
L 208.418796 45.532592 
" style="fill:none;stroke:#25ac82;stroke-width:1.5;"/>
   </g>
   <g id="LineCollection_24">
    <path clip-path="url(#p3569d61737)" d="M 186.178503 17.043942 
L 189.079682 20.821408 
L 192.106539 24.400672 
L 195.239787 27.768615 
L 198.538999 30.993661 
L 202.054982 34.116261 
L 205.731716 37.081253 
L 208.418796 39.077669 
L 208.418796 39.077669 
" style="fill:none;stroke:#40bd72;stroke-width:1.5;"/>
   </g>
   <g id="LineCollection_25">
    <path clip-path="url(#p3569d61737)" d="M 192.693942 17.043942 
L 195.797996 20.687766 
L 199.066395 24.182691 
L 202.499725 27.525751 
L 206.098208 30.715989 
L 208.418796 32.622745 
L 208.418796 32.622745 
" style="fill:none;stroke:#67cc5c;stroke-width:1.5;"/>
   </g>
   <g id="LineCollection_26">
    <path clip-path="url(#p3569d61737)" d="M 199.20938 17.043942 
L 202.538408 20.600643 
L 206.034501 24.01106 
L 208.418796 26.167821 
L 208.418796 26.167821 
" style="fill:none;stroke:#98d83e;stroke-width:1.5;"/>
   </g>
   <g id="LineCollection_27">
    <path clip-path="url(#p3569d61737)" d="M 205.724819 17.043942 
L 208.418796 19.712897 
L 208.418796 19.712897 
" style="fill:none;stroke:#cde11d;stroke-width:1.5;"/>
   </g>
   <g id="LineCollection_28"/>
   <g id="patch_8">
    <path d="M 127.539556 97.171983 
L 127.539556 16.765173 
" style="fill:none;stroke:#ffffff;stroke-linecap:square;stroke-linejoin:miter;stroke-width:1.25;"/>
   </g>
   <g id="patch_9">
    <path d="M 208.700178 97.171983 
L 208.700178 16.765173 
" style="fill:none;stroke:#ffffff;stroke-linecap:square;stroke-linejoin:miter;stroke-width:1.25;"/>
   </g>
   <g id="patch_10">
    <path d="M 127.539556 97.171983 
L 208.700178 97.171983 
" style="fill:none;stroke:#ffffff;stroke-linecap:square;stroke-linejoin:miter;stroke-width:1.25;"/>
   </g>
   <g id="patch_11">
    <path d="M 127.539556 16.765173 
L 208.700178 16.765173 
" style="fill:none;stroke:#ffffff;stroke-linecap:square;stroke-linejoin:miter;stroke-width:1.25;"/>
   </g>
  </g>
  <g id="axes_3">
   <g id="patch_12">
    <path d="M 227.139645 97.171983 
L 308.300266 97.171983 
L 308.300266 16.765173 
L 227.139645 16.765173 
z
" style="fill:none;opacity:0;"/>
   </g>
   <g id="matplotlib.axis_5">
    <g id="xtick_5">
     <g id="line2d_9">
      <path clip-path="url(#pf7ad2a5030)" d="M 227.139645 97.171983 
L 227.139645 16.765173 
" style="fill:none;stroke:#ffffff;stroke-linecap:round;"/>
     </g>
     <g id="text_9">
      <!-- $\mathdefault{0}$ -->
      <g style="fill:#262626;" transform="translate(224.399911 114.28233)scale(0.11 -0.11)">
       <use transform="scale(0.996264)" xlink:href="#CMR17-48"/>
      </g>
     </g>
    </g>
    <g id="xtick_6">
     <g id="line2d_10">
      <path clip-path="url(#pf7ad2a5030)" d="M 308.300266 97.171983 
L 308.300266 16.765173 
" style="fill:none;stroke:#ffffff;stroke-linecap:round;"/>
     </g>
     <g id="text_10">
      <!-- $\mathdefault{1}$ -->
      <g style="fill:#262626;" transform="translate(305.560533 114.28233)scale(0.11 -0.11)">
       <use transform="scale(0.996264)" xlink:href="#CMR17-49"/>
      </g>
     </g>
    </g>
    <g id="text_11">
     <!-- $C_{\text{co}}$ -->
     <g style="fill:#262626;" transform="translate(259.533484 128.715404)scale(0.12 -0.12)">
      <use transform="scale(0.996264)" xlink:href="#CMMI12-67"/>
      <use transform="translate(69.792037 -14.943915)scale(0.697382)" xlink:href="#CMSS17-99"/>
      <use transform="translate(98.939083 -14.943915)scale(0.697382)" xlink:href="#CMSS17-111"/>
     </g>
    </g>
   </g>
   <g id="matplotlib.axis_6">
    <g id="ytick_5">
     <g id="line2d_11">
      <path clip-path="url(#pf7ad2a5030)" d="M 227.139645 97.171983 
L 308.300266 97.171983 
" style="fill:none;stroke:#ffffff;stroke-linecap:round;"/>
     </g>
    </g>
    <g id="ytick_6">
     <g id="line2d_12">
      <path clip-path="url(#pf7ad2a5030)" d="M 227.139645 16.765173 
L 308.300266 16.765173 
" style="fill:none;stroke:#ffffff;stroke-linecap:round;"/>
     </g>
    </g>
   </g>
   <g id="LineCollection_29"/>
   <g id="LineCollection_30">
    <path clip-path="url(#pf7ad2a5030)" d="M 233.632495 17.043942 
L 233.661124 90.739438 
L 233.726811 90.739438 
L 308.018885 90.739438 
L 308.018885 90.739438 
" style="fill:none;stroke:#481c6e;stroke-width:1.5;"/>
   </g>
   <g id="LineCollection_31">
    <path clip-path="url(#pf7ad2a5030)" d="M 240.125344 17.043942 
L 240.17608 84.306894 
L 308.018885 84.306894 
L 308.018885 84.306894 
" style="fill:none;stroke:#453581;stroke-width:1.5;"/>
   </g>
   <g id="LineCollection_32">
    <path clip-path="url(#pf7ad2a5030)" d="M 246.618194 17.043942 
L 246.640837 77.874349 
L 308.018885 77.874349 
L 308.018885 77.874349 
" style="fill:none;stroke:#3d4d8a;stroke-width:1.5;"/>
   </g>
   <g id="LineCollection_33">
    <path clip-path="url(#pf7ad2a5030)" d="M 253.111044 17.043942 
L 253.114853 71.441804 
L 308.018885 71.441804 
L 308.018885 71.441804 
" style="fill:none;stroke:#34618d;stroke-width:1.5;"/>
   </g>
   <g id="LineCollection_34">
    <path clip-path="url(#pf7ad2a5030)" d="M 259.603893 17.043942 
L 259.666488 65.009259 
L 308.018885 65.009259 
L 308.018885 65.009259 
" style="fill:none;stroke:#2b748e;stroke-width:1.5;"/>
   </g>
   <g id="LineCollection_35">
    <path clip-path="url(#pf7ad2a5030)" d="M 266.096743 17.043942 
L 266.096743 58.441899 
L 266.232822 58.576714 
L 308.018885 58.576714 
L 308.018885 58.576714 
" style="fill:none;stroke:#24878e;stroke-width:1.5;"/>
   </g>
   <g id="LineCollection_36">
    <path clip-path="url(#pf7ad2a5030)" d="M 272.589593 17.043942 
L 272.68832 52.14417 
L 308.018885 52.14417 
L 308.018885 52.14417 
" style="fill:none;stroke:#1f998a;stroke-width:1.5;"/>
   </g>
   <g id="LineCollection_37">
    <path clip-path="url(#pf7ad2a5030)" d="M 279.082443 17.043942 
L 279.112821 45.711625 
L 308.018885 45.711625 
L 308.018885 45.711625 
" style="fill:none;stroke:#25ac82;stroke-width:1.5;"/>
   </g>
   <g id="LineCollection_38">
    <path clip-path="url(#pf7ad2a5030)" d="M 285.575292 17.043942 
L 285.674769 39.27908 
L 308.018885 39.27908 
L 308.018885 39.27908 
" style="fill:none;stroke:#40bd72;stroke-width:1.5;"/>
   </g>
   <g id="LineCollection_39">
    <path clip-path="url(#pf7ad2a5030)" d="M 292.068142 17.043942 
L 292.166229 32.846535 
L 308.018885 32.846535 
L 308.018885 32.846535 
" style="fill:none;stroke:#67cc5c;stroke-width:1.5;"/>
   </g>
   <g id="LineCollection_40">
    <path clip-path="url(#pf7ad2a5030)" d="M 298.560992 17.043942 
L 298.572172 26.413991 
L 298.659581 26.413991 
L 308.018885 26.413991 
L 308.018885 26.413991 
" style="fill:none;stroke:#98d83e;stroke-width:1.5;"/>
   </g>
   <g id="LineCollection_41">
    <path clip-path="url(#pf7ad2a5030)" d="M 305.053842 17.043942 
L 305.077328 19.981446 
L 305.151783 19.981446 
L 308.018885 19.981446 
L 308.018885 19.981446 
" style="fill:none;stroke:#cde11d;stroke-width:1.5;"/>
   </g>
   <g id="LineCollection_42"/>
   <g id="patch_13">
    <path d="M 227.139645 97.171983 
L 227.139645 16.765173 
" style="fill:none;stroke:#ffffff;stroke-linecap:square;stroke-linejoin:miter;stroke-width:1.25;"/>
   </g>
   <g id="patch_14">
    <path d="M 308.300266 97.171983 
L 308.300266 16.765173 
" style="fill:none;stroke:#ffffff;stroke-linecap:square;stroke-linejoin:miter;stroke-width:1.25;"/>
   </g>
   <g id="patch_15">
    <path d="M 227.139645 97.171983 
L 308.300266 97.171983 
" style="fill:none;stroke:#ffffff;stroke-linecap:square;stroke-linejoin:miter;stroke-width:1.25;"/>
   </g>
   <g id="patch_16">
    <path d="M 227.139645 16.765173 
L 308.300266 16.765173 
" style="fill:none;stroke:#ffffff;stroke-linecap:square;stroke-linejoin:miter;stroke-width:1.25;"/>
   </g>
  </g>
 </g>
 <defs>
  <clipPath id="pa908d88d1f">
   <rect height="80.40681" width="81.160622" x="27.939467" y="16.765173"/>
  </clipPath>
  <clipPath id="p3569d61737">
   <rect height="80.40681" width="81.160622" x="127.539556" y="16.765173"/>
  </clipPath>
  <clipPath id="pf7ad2a5030">
   <rect height="80.40681" width="81.160622" x="227.139645" y="16.765173"/>
  </clipPath>
 </defs>
</svg>
