<?xml version="1.0" encoding="utf-8" standalone="no"?>
<!DOCTYPE svg PUBLIC "-//W3C//DTD SVG 1.1//EN"
  "http://www.w3.org/Graphics/SVG/1.1/DTD/svg11.dtd">
<svg height="216pt" version="1.1" viewBox="0 0 360 216" width="360pt" xmlns="http://www.w3.org/2000/svg" xmlns:xlink="http://www.w3.org/1999/xlink">
 <metadata>
  <rdf:RDF xmlns:cc="http://creativecommons.org/ns#" xmlns:dc="http://purl.org/dc/elements/1.1/" xmlns:rdf="http://www.w3.org/1999/02/22-rdf-syntax-ns#">
   <cc:Work>
    <dc:type rdf:resource="http://purl.org/dc/dcmitype/StillImage"/>
    <dc:date>2021-08-10T13:22:26.400583</dc:date>
    <dc:format>image/svg+xml</dc:format>
    <dc:creator>
     <cc:Agent>
      <dc:title>Matplotlib v3.4.2, https://matplotlib.org/</dc:title>
     </cc:Agent>
    </dc:creator>
   </cc:Work>
  </rdf:RDF>
 </metadata>
 <defs>
  <style type="text/css">*{stroke-linecap:butt;stroke-linejoin:round;}</style>
 </defs>
 <g id="figure_1">
  <g id="patch_1">
   <path d="M 0 216 
L 360 216 
L 360 0 
L 0 0 
z
" style="fill:none;"/>
  </g>
  <g id="axes_1">
   <g id="patch_2">
    <path d="M 48.961405 169.171983 
L 339.376363 169.171983 
L 339.376363 12.96 
L 48.961405 12.96 
z
" style="fill:none;opacity:0;"/>
   </g>
   <g id="matplotlib.axis_1">
    <g id="xtick_1">
     <g id="line2d_1">
      <path clip-path="url(#p895c2b9039)" d="M 48.961405 169.171983 
L 48.961405 12.96 
" style="fill:none;stroke:#ffffff;stroke-linecap:round;"/>
     </g>
     <g id="text_1">
      <!-- $\mathdefault{10^{3}}$ -->
      <g style="fill:#262626;" transform="translate(41.297768 186.28233)scale(0.11 -0.11)">
       <defs>
        <path d="M 1702 4058 
C 1702 4192 1696 4192 1606 4192 
C 1357 3916 979 3827 621 3827 
C 602 3827 570 3827 563 3808 
C 557 3795 557 3782 557 3648 
C 755 3648 1088 3686 1344 3839 
L 1344 461 
C 1344 236 1331 160 781 160 
L 589 160 
L 589 0 
C 896 0 1216 0 1523 0 
C 1830 0 2150 0 2458 0 
L 2458 160 
L 2266 160 
C 1715 160 1702 230 1702 458 
L 1702 4058 
z
" id="CMR17-31" transform="scale(0.015625)"/>
        <path d="M 2688 2025 
C 2688 2416 2682 3080 2413 3591 
C 2176 4039 1798 4198 1466 4198 
C 1158 4198 768 4058 525 3597 
C 269 3118 243 2524 243 2025 
C 243 1661 250 1106 448 619 
C 723 -39 1216 -128 1466 -128 
C 1760 -128 2208 -7 2470 600 
C 2662 1042 2688 1559 2688 2025 
z
M 1466 -26 
C 1056 -26 813 325 723 812 
C 653 1188 653 1738 653 2096 
C 653 2588 653 2997 736 3387 
C 858 3929 1216 4096 1466 4096 
C 1728 4096 2067 3923 2189 3400 
C 2272 3036 2278 2607 2278 2096 
C 2278 1680 2278 1169 2202 792 
C 2067 95 1690 -26 1466 -26 
z
" id="CMR17-30" transform="scale(0.015625)"/>
        <path d="M 1414 2157 
C 1984 2157 2234 1662 2234 1090 
C 2234 320 1824 25 1453 25 
C 1114 25 563 194 390 693 
C 422 680 454 680 486 680 
C 640 680 755 782 755 948 
C 755 1133 614 1216 486 1216 
C 378 1216 211 1165 211 926 
C 211 335 787 -128 1466 -128 
C 2176 -128 2720 430 2720 1085 
C 2720 1707 2208 2157 1600 2227 
C 2086 2328 2554 2756 2554 3329 
C 2554 3820 2048 4179 1472 4179 
C 890 4179 378 3829 378 3329 
C 378 3110 544 3072 627 3072 
C 762 3072 877 3155 877 3321 
C 877 3486 762 3569 627 3569 
C 602 3569 570 3569 544 3557 
C 730 3959 1235 4032 1459 4032 
C 1683 4032 2106 3925 2106 3320 
C 2106 3143 2080 2828 1862 2550 
C 1670 2304 1453 2304 1242 2284 
C 1210 2284 1062 2269 1037 2269 
C 992 2263 966 2257 966 2208 
C 966 2163 973 2157 1101 2157 
L 1414 2157 
z
" id="CMR17-33" transform="scale(0.015625)"/>
       </defs>
       <use transform="scale(0.996264)" xlink:href="#CMR17-31"/>
       <use transform="translate(45.690477 0)scale(0.996264)" xlink:href="#CMR17-30"/>
       <use transform="translate(91.380954 36.153639)scale(0.697382)" xlink:href="#CMR17-33"/>
      </g>
     </g>
    </g>
    <g id="xtick_2">
     <g id="line2d_2">
      <path clip-path="url(#p895c2b9039)" d="M 194.168884 169.171983 
L 194.168884 12.96 
" style="fill:none;stroke:#ffffff;stroke-linecap:round;"/>
     </g>
     <g id="text_2">
      <!-- $\mathdefault{10^{4}}$ -->
      <g style="fill:#262626;" transform="translate(186.505248 186.28233)scale(0.11 -0.11)">
       <defs>
        <path d="M 2150 4122 
C 2150 4256 2144 4256 2029 4256 
L 128 1254 
L 128 1088 
L 1779 1088 
L 1779 457 
C 1779 224 1766 160 1318 160 
L 1197 160 
L 1197 0 
C 1402 0 1747 0 1965 0 
C 2182 0 2528 0 2733 0 
L 2733 160 
L 2611 160 
C 2163 160 2150 224 2150 457 
L 2150 1088 
L 2803 1088 
L 2803 1254 
L 2150 1254 
L 2150 4122 
z
M 1798 3703 
L 1798 1254 
L 256 1254 
L 1798 3703 
z
" id="CMR17-34" transform="scale(0.015625)"/>
       </defs>
       <use transform="scale(0.996264)" xlink:href="#CMR17-31"/>
       <use transform="translate(45.690477 0)scale(0.996264)" xlink:href="#CMR17-30"/>
       <use transform="translate(91.380954 36.153639)scale(0.697382)" xlink:href="#CMR17-34"/>
      </g>
     </g>
    </g>
    <g id="xtick_3">
     <g id="line2d_3">
      <path clip-path="url(#p895c2b9039)" d="M 339.376363 169.171983 
L 339.376363 12.96 
" style="fill:none;stroke:#ffffff;stroke-linecap:round;"/>
     </g>
     <g id="text_3">
      <!-- $\mathdefault{10^{5}}$ -->
      <g style="fill:#262626;" transform="translate(331.712727 186.28233)scale(0.11 -0.11)">
       <defs>
        <path d="M 730 3692 
C 794 3666 1056 3584 1325 3584 
C 1920 3584 2246 3911 2432 4100 
C 2432 4157 2432 4192 2394 4192 
C 2387 4192 2374 4192 2323 4163 
C 2099 4058 1837 3973 1517 3973 
C 1325 3973 1037 3999 723 4139 
C 653 4171 640 4171 634 4171 
C 602 4171 595 4164 595 4037 
L 595 2203 
C 595 2089 595 2057 659 2057 
C 691 2057 704 2070 736 2114 
C 941 2401 1222 2522 1542 2522 
C 1766 2522 2246 2382 2246 1289 
C 2246 1085 2246 715 2054 421 
C 1894 159 1645 25 1370 25 
C 947 25 518 320 403 814 
C 429 807 480 795 506 795 
C 589 795 749 840 749 1038 
C 749 1210 627 1280 506 1280 
C 358 1280 262 1190 262 1011 
C 262 454 704 -128 1382 -128 
C 2042 -128 2669 440 2669 1264 
C 2669 2030 2170 2624 1549 2624 
C 1222 2624 947 2503 730 2274 
L 730 3692 
z
" id="CMR17-35" transform="scale(0.015625)"/>
       </defs>
       <use transform="scale(0.996264)" xlink:href="#CMR17-31"/>
       <use transform="translate(45.690477 0)scale(0.996264)" xlink:href="#CMR17-30"/>
       <use transform="translate(91.380954 36.153639)scale(0.697382)" xlink:href="#CMR17-35"/>
      </g>
     </g>
    </g>
    <g id="xtick_4"/>
    <g id="xtick_5"/>
    <g id="xtick_6"/>
    <g id="xtick_7"/>
    <g id="xtick_8"/>
    <g id="xtick_9"/>
    <g id="xtick_10"/>
    <g id="xtick_11"/>
    <g id="xtick_12"/>
    <g id="xtick_13"/>
    <g id="xtick_14"/>
    <g id="xtick_15"/>
    <g id="xtick_16"/>
    <g id="xtick_17"/>
    <g id="xtick_18"/>
    <g id="xtick_19"/>
    <g id="text_4">
     <!-- $N$ -->
     <g style="fill:#262626;" transform="translate(189.481977 200.715404)scale(0.12 -0.12)">
      <defs>
       <path d="M 4736 3698 
C 4806 3974 4909 4166 5395 4166 
C 5414 4166 5491 4166 5491 4279 
C 5491 4352 5434 4352 5408 4352 
C 5280 4352 4954 4352 4826 4352 
L 4518 4352 
C 4429 4352 4314 4352 4224 4352 
C 4186 4352 4109 4352 4109 4230 
C 4109 4166 4160 4166 4205 4166 
C 4589 4166 4614 4019 4614 3903 
C 4614 3846 4608 3826 4589 3737 
L 3866 850 
L 2496 4249 
C 2451 4352 2445 4352 2304 4352 
L 1523 4352 
C 1395 4352 1338 4352 1338 4230 
C 1338 4166 1382 4166 1504 4166 
C 1536 4166 1914 4166 1914 4115 
C 1914 4102 1901 4051 1894 4032 
L 1043 635 
C 966 320 813 186 390 186 
C 358 186 294 186 294 67 
C 294 0 358 0 378 0 
C 506 0 832 0 960 0 
L 1267 0 
C 1357 0 1466 0 1555 0 
C 1600 0 1670 0 1670 122 
C 1670 180 1606 186 1581 186 
C 1370 186 1165 224 1165 454 
C 1165 505 1178 562 1190 613 
L 2054 4032 
C 2093 3968 2093 3956 2118 3898 
L 3642 115 
C 3674 38 3686 0 3744 0 
C 3808 0 3814 19 3840 128 
L 4736 3698 
z
" id="CMMI12-4e" transform="scale(0.015625)"/>
      </defs>
      <use transform="scale(0.996264)" xlink:href="#CMMI12-4e"/>
     </g>
    </g>
   </g>
   <g id="matplotlib.axis_2">
    <g id="ytick_1">
     <g id="line2d_4">
      <path clip-path="url(#p895c2b9039)" d="M 48.961405 133.278527 
L 339.376363 133.278527 
" style="fill:none;stroke:#ffffff;stroke-linecap:round;"/>
     </g>
     <g id="text_5">
      <!-- $\mathdefault{0.74}$ -->
      <g style="fill:#262626;" transform="translate(19.978861 137.0837)scale(0.11 -0.11)">
       <defs>
        <path d="M 1178 307 
C 1178 492 1024 619 870 619 
C 685 619 557 466 557 313 
C 557 128 710 0 864 0 
C 1050 0 1178 153 1178 307 
z
" id="CMMI12-3a" transform="scale(0.015625)"/>
        <path d="M 2886 3941 
L 2886 4081 
L 1382 4081 
C 634 4081 621 4165 595 4288 
L 480 4288 
L 294 3094 
L 410 3094 
C 429 3215 474 3540 550 3661 
C 589 3712 1062 3712 1171 3712 
L 2579 3712 
L 1869 2661 
C 1395 1954 1069 999 1069 165 
C 1069 89 1069 -128 1299 -128 
C 1530 -128 1530 89 1530 171 
L 1530 465 
C 1530 1508 1709 2196 2003 2636 
L 2886 3941 
z
" id="CMR17-37" transform="scale(0.015625)"/>
       </defs>
       <use transform="scale(0.996264)" xlink:href="#CMR17-30"/>
       <use transform="translate(45.690477 0)scale(0.996264)" xlink:href="#CMMI12-3a"/>
       <use transform="translate(72.787654 0)scale(0.996264)" xlink:href="#CMR17-37"/>
       <use transform="translate(118.478131 0)scale(0.996264)" xlink:href="#CMR17-34"/>
      </g>
     </g>
    </g>
    <g id="ytick_2">
     <g id="line2d_5">
      <path clip-path="url(#p895c2b9039)" d="M 48.961405 91.840394 
L 339.376363 91.840394 
" style="fill:none;stroke:#ffffff;stroke-linecap:round;"/>
     </g>
     <g id="text_6">
      <!-- $\mathdefault{0.75}$ -->
      <g style="fill:#262626;" transform="translate(19.978861 95.645568)scale(0.11 -0.11)">
       <use transform="scale(0.996264)" xlink:href="#CMR17-30"/>
       <use transform="translate(45.690477 0)scale(0.996264)" xlink:href="#CMMI12-3a"/>
       <use transform="translate(72.787654 0)scale(0.996264)" xlink:href="#CMR17-37"/>
       <use transform="translate(118.478131 0)scale(0.996264)" xlink:href="#CMR17-35"/>
      </g>
     </g>
    </g>
    <g id="ytick_3">
     <g id="line2d_6">
      <path clip-path="url(#p895c2b9039)" d="M 48.961405 50.402262 
L 339.376363 50.402262 
" style="fill:none;stroke:#ffffff;stroke-linecap:round;"/>
     </g>
     <g id="text_7">
      <!-- $\mathdefault{0.76}$ -->
      <g style="fill:#262626;" transform="translate(19.978861 54.207435)scale(0.11 -0.11)">
       <defs>
        <path d="M 678 2176 
C 678 3690 1395 4032 1811 4032 
C 1946 4032 2272 4009 2400 3776 
C 2298 3776 2106 3776 2106 3553 
C 2106 3381 2246 3323 2336 3323 
C 2394 3323 2566 3348 2566 3560 
C 2566 3954 2246 4179 1805 4179 
C 1043 4179 243 3390 243 1984 
C 243 253 966 -128 1478 -128 
C 2099 -128 2688 427 2688 1283 
C 2688 2081 2170 2662 1517 2662 
C 1126 2662 838 2407 678 1960 
L 678 2176 
z
M 1478 25 
C 691 25 691 1200 691 1436 
C 691 1896 909 2560 1504 2560 
C 1613 2560 1926 2560 2138 2120 
C 2253 1870 2253 1609 2253 1289 
C 2253 944 2253 690 2118 434 
C 1978 171 1773 25 1478 25 
z
" id="CMR17-36" transform="scale(0.015625)"/>
       </defs>
       <use transform="scale(0.996264)" xlink:href="#CMR17-30"/>
       <use transform="translate(45.690477 0)scale(0.996264)" xlink:href="#CMMI12-3a"/>
       <use transform="translate(72.787654 0)scale(0.996264)" xlink:href="#CMR17-37"/>
       <use transform="translate(118.478131 0)scale(0.996264)" xlink:href="#CMR17-36"/>
      </g>
     </g>
    </g>
    <g id="text_8">
     <!-- $\rho$ -->
     <g style="fill:#262626;" transform="translate(12.96 88.741396)scale(0.12 -0.12)">
      <defs>
       <path d="M 198 -1107 
C 192 -1139 179 -1177 179 -1216 
C 179 -1312 256 -1376 352 -1376 
C 448 -1376 538 -1312 576 -1222 
C 602 -1164 781 -397 986 390 
C 1114 70 1350 -64 1600 -64 
C 2323 -64 3142 830 3142 1795 
C 3142 2478 2726 2816 2285 2816 
C 1722 2816 1037 2235 826 1385 
L 198 -1107 
z
M 1594 64 
C 1158 64 1050 569 1050 645 
C 1050 684 1210 1295 1229 1391 
C 1555 2670 2182 2670 2278 2670 
C 2566 2670 2726 2410 2726 2036 
C 2726 1712 2554 1084 2445 819 
C 2253 381 1920 64 1594 64 
z
" id="CMMI12-1a" transform="scale(0.015625)"/>
      </defs>
      <use transform="scale(0.996264)" xlink:href="#CMMI12-1a"/>
     </g>
    </g>
   </g>
   <g id="PolyCollection_1">
    <defs>
     <path d="M 48.961405 -187.27305 
L 48.961405 -63.943493 
L 49.25211 -54.838327 
L 49.542816 -53.928562 
L 49.833522 -59.199683 
L 50.124227 -65.167291 
L 50.414933 -65.680918 
L 50.705639 -69.390642 
L 50.996344 -64.116333 
L 51.28705 -64.937851 
L 51.577756 -57.497804 
L 51.868461 -68.33008 
L 52.159167 -64.059002 
L 52.449873 -65.055377 
L 52.740578 -57.998264 
L 53.031284 -68.038301 
L 53.32199 -68.618176 
L 53.612695 -61.790064 
L 53.903401 -69.067966 
L 54.194107 -61.534449 
L 54.484812 -61.262586 
L 54.775518 -66.249925 
L 55.066224 -66.577341 
L 55.356929 -65.240149 
L 55.647635 -73.515934 
L 55.938341 -66.668977 
L 56.229046 -63.979062 
L 56.519752 -59.024168 
L 56.810458 -59.813206 
L 57.101163 -63.349197 
L 57.391869 -73.082631 
L 57.682575 -67.150188 
L 57.97328 -62.514664 
L 58.263986 -70.113721 
L 58.554692 -73.907043 
L 58.845397 -65.449958 
L 59.136103 -64.607927 
L 59.426809 -74.801415 
L 59.717514 -75.550894 
L 60.00822 -65.148731 
L 60.298926 -67.676533 
L 60.589631 -63.422676 
L 60.880337 -68.592832 
L 61.171043 -71.802502 
L 61.461748 -69.407038 
L 61.752454 -71.822853 
L 62.04316 -59.024859 
L 62.333865 -67.2092 
L 62.624571 -60.420241 
L 62.915277 -75.292594 
L 63.205982 -73.453422 
L 63.496688 -66.551819 
L 63.787394 -78.633585 
L 64.078099 -66.186481 
L 64.368805 -78.611223 
L 64.659511 -70.293631 
L 64.950216 -74.566486 
L 65.240922 -66.249625 
L 65.531628 -67.454928 
L 65.822333 -69.376592 
L 66.113039 -70.88193 
L 66.403745 -65.003575 
L 66.69445 -71.640207 
L 66.985156 -67.315847 
L 67.275862 -72.401786 
L 67.566567 -79.530938 
L 67.857273 -64.062961 
L 68.147978 -74.972304 
L 68.438684 -75.352368 
L 68.72939 -69.45438 
L 69.020095 -58.852889 
L 69.310801 -73.113437 
L 69.601507 -64.242191 
L 69.892212 -65.288354 
L 70.182918 -72.982044 
L 70.473624 -76.860854 
L 70.764329 -72.722064 
L 71.055035 -73.159542 
L 71.345741 -62.998599 
L 71.636446 -72.34208 
L 71.927152 -80.462476 
L 72.217858 -69.697265 
L 72.508563 -74.25173 
L 72.799269 -74.280483 
L 73.089975 -75.753289 
L 73.38068 -67.600363 
L 73.671386 -73.485815 
L 73.962092 -72.573729 
L 74.252797 -76.160431 
L 74.543503 -76.611107 
L 74.834209 -73.438561 
L 75.124914 -67.827259 
L 75.41562 -72.875235 
L 75.706326 -64.90307 
L 75.997031 -85.299563 
L 76.287737 -72.073901 
L 76.578443 -76.909305 
L 76.869148 -65.083471 
L 77.159854 -71.568331 
L 77.45056 -69.81327 
L 77.741265 -75.099632 
L 78.031971 -69.942108 
L 78.322677 -78.74294 
L 78.613382 -73.655671 
L 78.904088 -85.8684 
L 79.194794 -78.048511 
L 79.485499 -76.647282 
L 79.776205 -75.821005 
L 80.066911 -80.831999 
L 80.357616 -75.523324 
L 80.648322 -79.711681 
L 80.939028 -73.93827 
L 81.229733 -75.040218 
L 81.520439 -70.100666 
L 81.811145 -73.010176 
L 82.10185 -72.43217 
L 82.392556 -77.063973 
L 82.683262 -82.360362 
L 82.973967 -68.301025 
L 83.264673 -80.082012 
L 83.555379 -77.759019 
L 83.846084 -76.333002 
L 84.13679 -78.538791 
L 84.427496 -84.542186 
L 84.718201 -82.116266 
L 85.008907 -79.549421 
L 85.299613 -81.347546 
L 85.590318 -79.770738 
L 85.881024 -81.406244 
L 86.17173 -73.592853 
L 86.462435 -72.609883 
L 86.753141 -84.01048 
L 87.043847 -66.38764 
L 87.334552 -79.865988 
L 87.625258 -75.753618 
L 87.915964 -72.550447 
L 88.206669 -70.99622 
L 88.497375 -83.917071 
L 88.788081 -81.063878 
L 89.078786 -85.902992 
L 89.369492 -83.425762 
L 89.660198 -76.731579 
L 89.950903 -80.307586 
L 90.241609 -88.65951 
L 90.532315 -83.319252 
L 90.82302 -74.176214 
L 91.113726 -84.156328 
L 91.404432 -68.022716 
L 91.695137 -82.06334 
L 91.985843 -81.687006 
L 92.276549 -81.443392 
L 92.567254 -74.312765 
L 92.85796 -76.14075 
L 93.148666 -81.491181 
L 93.439371 -81.549222 
L 93.730077 -74.509158 
L 94.020783 -85.91916 
L 94.311488 -83.525247 
L 94.602194 -75.150988 
L 94.8929 -86.605955 
L 95.183605 -80.689998 
L 95.474311 -84.476472 
L 95.765017 -90.126057 
L 96.055722 -78.90679 
L 96.346428 -82.981739 
L 96.637134 -78.839614 
L 96.927839 -86.377906 
L 97.218545 -84.384259 
L 97.509251 -80.066576 
L 97.799956 -82.045914 
L 98.090662 -83.735673 
L 98.381368 -79.695996 
L 98.672073 -80.531193 
L 98.962779 -78.777924 
L 99.253485 -80.788988 
L 99.54419 -88.149204 
L 99.834896 -84.564162 
L 100.125602 -81.126137 
L 100.416307 -78.995476 
L 100.707013 -84.424103 
L 100.997719 -76.391344 
L 101.288424 -87.418454 
L 101.57913 -87.21556 
L 101.869836 -86.160675 
L 102.160541 -79.470361 
L 102.451247 -85.56965 
L 102.741953 -82.213617 
L 103.032658 -78.094822 
L 103.323364 -80.475377 
L 103.61407 -83.955925 
L 103.904775 -81.52832 
L 104.195481 -88.869113 
L 104.486187 -82.590101 
L 104.776892 -86.652122 
L 105.067598 -90.155228 
L 105.358304 -89.399295 
L 105.649009 -79.36542 
L 105.939715 -85.100373 
L 106.230421 -92.361586 
L 106.521126 -88.707373 
L 106.811832 -89.080864 
L 107.102538 -81.460196 
L 107.393243 -84.659346 
L 107.683949 -81.972449 
L 107.974655 -82.986483 
L 108.26536 -85.581535 
L 108.556066 -85.171549 
L 108.846772 -83.42952 
L 109.137477 -86.965906 
L 109.428183 -86.921399 
L 109.718889 -86.861854 
L 110.009594 -90.869652 
L 110.3003 -84.117909 
L 110.591006 -87.425802 
L 110.881711 -87.151142 
L 111.172417 -85.655297 
L 111.463123 -93.567187 
L 111.753828 -87.596396 
L 112.044534 -84.86428 
L 112.335239 -92.241803 
L 112.625945 -88.6586 
L 112.916651 -93.019794 
L 113.207356 -82.868699 
L 113.498062 -85.073999 
L 113.788768 -86.40997 
L 114.079473 -88.990188 
L 114.370179 -87.140451 
L 114.660885 -87.383698 
L 114.95159 -86.730135 
L 115.242296 -89.767967 
L 115.533002 -88.83981 
L 115.823707 -87.101965 
L 116.114413 -85.147043 
L 116.405119 -88.422898 
L 116.695824 -85.940315 
L 116.98653 -86.995042 
L 117.277236 -92.147984 
L 117.567941 -86.517376 
L 117.858647 -86.110031 
L 118.149353 -88.679991 
L 118.440058 -90.317192 
L 118.730764 -88.645824 
L 119.02147 -89.5708 
L 119.312175 -83.953952 
L 119.602881 -89.858399 
L 119.893587 -86.971514 
L 120.184292 -87.349867 
L 120.474998 -89.449598 
L 120.765704 -92.387358 
L 121.056409 -83.835601 
L 121.347115 -89.635643 
L 121.637821 -90.457536 
L 121.928526 -92.520834 
L 122.219232 -87.121964 
L 122.509938 -88.637083 
L 122.800643 -92.880356 
L 123.091349 -90.726013 
L 123.382055 -101.854505 
L 123.67276 -93.478911 
L 123.963466 -88.636966 
L 124.254172 -90.411326 
L 124.544877 -91.104072 
L 124.835583 -92.018408 
L 125.126289 -92.487222 
L 125.416994 -90.704676 
L 125.7077 -88.978673 
L 125.998406 -86.244624 
L 126.289111 -91.495295 
L 126.579817 -89.912617 
L 126.870523 -92.39553 
L 127.161228 -87.938113 
L 127.451934 -95.103184 
L 127.74264 -89.159096 
L 128.033345 -93.266099 
L 128.324051 -90.309429 
L 128.614757 -93.492779 
L 128.905462 -93.078872 
L 129.196168 -92.098069 
L 129.486874 -95.110291 
L 129.777579 -88.170959 
L 130.068285 -91.470292 
L 130.358991 -92.752104 
L 130.649696 -93.672846 
L 130.940402 -94.523498 
L 131.231108 -95.732513 
L 131.521813 -89.67464 
L 131.812519 -90.233876 
L 132.103225 -89.715092 
L 132.39393 -94.063092 
L 132.684636 -91.284614 
L 132.975342 -95.147619 
L 133.266047 -91.932112 
L 133.556753 -92.292537 
L 133.847459 -89.336982 
L 134.138164 -93.935433 
L 134.42887 -92.609336 
L 134.719576 -93.985001 
L 135.010281 -97.5915 
L 135.300987 -93.943333 
L 135.591693 -95.831203 
L 135.882398 -98.287036 
L 136.173104 -91.840125 
L 136.46381 -92.66564 
L 136.754515 -91.013417 
L 137.045221 -96.90949 
L 137.335927 -96.82241 
L 137.626632 -91.726845 
L 137.917338 -88.821717 
L 138.208044 -96.502895 
L 138.498749 -91.930907 
L 138.789455 -93.096478 
L 139.080161 -95.26351 
L 139.370866 -96.749901 
L 139.661572 -96.820236 
L 139.952278 -89.016236 
L 140.242983 -94.577163 
L 140.533689 -96.347091 
L 140.824395 -93.372189 
L 141.1151 -97.821403 
L 141.405806 -90.469186 
L 141.696512 -93.156146 
L 141.987217 -90.400607 
L 142.277923 -91.253242 
L 142.568629 -94.30592 
L 142.859334 -88.216028 
L 143.15004 -98.368543 
L 143.440746 -91.432853 
L 143.731451 -91.262434 
L 144.022157 -92.689948 
L 144.312863 -95.780903 
L 144.603568 -92.273674 
L 144.894274 -97.026663 
L 145.18498 -97.898283 
L 145.475685 -93.193594 
L 145.766391 -98.648548 
L 146.057097 -93.611045 
L 146.347802 -93.964246 
L 146.638508 -97.418739 
L 146.929214 -96.041984 
L 147.219919 -93.311944 
L 147.510625 -94.419209 
L 147.801331 -100.06019 
L 148.092036 -97.404502 
L 148.382742 -95.969268 
L 148.673448 -102.014882 
L 148.964153 -97.634807 
L 149.254859 -100.738249 
L 149.545565 -92.210441 
L 149.83627 -98.147227 
L 150.126976 -97.280119 
L 150.417682 -94.298237 
L 150.708387 -95.960535 
L 150.999093 -92.183396 
L 151.289799 -95.512071 
L 151.580504 -98.178103 
L 151.87121 -96.463854 
L 152.161916 -90.832092 
L 152.452621 -99.898321 
L 152.743327 -94.494023 
L 153.034033 -92.729419 
L 153.324738 -92.999029 
L 153.615444 -96.526522 
L 153.90615 -95.578087 
L 154.196855 -96.977897 
L 154.487561 -92.389026 
L 154.778267 -94.886518 
L 155.068972 -95.259992 
L 155.359678 -100.524174 
L 155.650384 -96.196587 
L 155.941089 -97.595652 
L 156.231795 -97.864493 
L 156.5225 -95.996347 
L 156.813206 -98.457833 
L 157.103912 -97.012741 
L 157.394617 -97.966776 
L 157.685323 -104.132269 
L 157.976029 -94.226647 
L 158.266734 -97.741467 
L 158.55744 -95.979257 
L 158.848146 -96.796171 
L 159.138851 -99.922005 
L 159.429557 -96.159885 
L 159.720263 -100.487991 
L 160.010968 -99.060308 
L 160.301674 -101.134792 
L 160.59238 -99.175164 
L 160.883085 -98.949427 
L 161.173791 -97.291339 
L 161.464497 -100.246608 
L 161.755202 -97.363648 
L 162.045908 -98.497994 
L 162.336614 -96.664872 
L 162.627319 -96.120992 
L 162.918025 -100.464636 
L 163.208731 -99.182196 
L 163.499436 -98.018285 
L 163.790142 -98.345386 
L 164.080848 -98.283915 
L 164.371553 -101.149112 
L 164.662259 -97.92832 
L 164.952965 -98.228149 
L 165.24367 -97.67588 
L 165.534376 -96.236136 
L 165.825082 -98.931562 
L 166.115787 -101.370763 
L 166.406493 -97.759484 
L 166.697199 -97.035117 
L 166.987904 -97.405367 
L 167.27861 -101.142441 
L 167.569316 -100.901262 
L 167.860021 -103.23859 
L 168.150727 -97.561985 
L 168.441433 -104.705491 
L 168.732138 -99.811523 
L 169.022844 -100.636588 
L 169.31355 -104.385194 
L 169.604255 -104.064114 
L 169.894961 -98.574132 
L 170.185667 -103.303331 
L 170.476372 -101.097276 
L 170.767078 -100.375878 
L 171.057784 -100.680138 
L 171.348489 -99.743761 
L 171.639195 -100.399565 
L 171.929901 -97.312466 
L 172.220606 -99.67448 
L 172.511312 -104.804914 
L 172.802018 -99.623184 
L 173.092723 -97.727494 
L 173.383429 -99.271364 
L 173.674135 -98.304446 
L 173.96484 -99.855166 
L 174.255546 -101.712656 
L 174.546252 -101.997835 
L 174.836957 -103.99293 
L 175.127663 -103.369795 
L 175.418369 -101.930488 
L 175.709074 -97.680842 
L 175.99978 -104.682867 
L 176.290486 -105.508182 
L 176.581191 -100.91724 
L 176.871897 -101.121805 
L 177.162603 -104.392228 
L 177.453308 -100.557641 
L 177.744014 -103.811105 
L 178.03472 -101.998797 
L 178.325425 -104.582605 
L 178.616131 -101.30408 
L 178.906837 -100.134217 
L 179.197542 -102.446129 
L 179.488248 -98.628257 
L 179.778954 -103.016271 
L 180.069659 -102.03344 
L 180.360365 -102.24347 
L 180.651071 -99.744348 
L 180.941776 -102.035501 
L 181.232482 -99.764829 
L 181.523188 -101.783711 
L 181.813893 -103.555719 
L 182.104599 -103.59466 
L 182.395305 -103.324899 
L 182.68601 -104.796257 
L 182.976716 -103.68008 
L 183.267422 -103.589654 
L 183.558127 -103.272796 
L 183.848833 -106.204976 
L 184.139539 -102.767899 
L 184.430244 -100.882438 
L 184.72095 -102.61737 
L 185.011656 -103.52738 
L 185.302361 -100.154143 
L 185.593067 -102.454513 
L 185.883773 -101.574723 
L 186.174478 -98.908276 
L 186.465184 -104.479305 
L 186.75589 -106.348925 
L 187.046595 -101.909856 
L 187.337301 -105.611264 
L 187.628007 -101.093595 
L 187.918712 -104.577492 
L 188.209418 -102.140515 
L 188.500124 -107.038832 
L 188.790829 -103.843213 
L 189.081535 -105.058709 
L 189.372241 -103.109723 
L 189.662946 -105.002799 
L 189.953652 -103.402044 
L 190.244358 -102.504493 
L 190.535063 -104.43832 
L 190.825769 -103.469179 
L 191.116475 -109.185872 
L 191.40718 -105.296113 
L 191.697886 -103.99884 
L 191.988592 -101.439941 
L 192.279297 -107.448726 
L 192.570003 -105.768814 
L 192.860709 -105.641046 
L 193.151414 -106.529405 
L 193.44212 -101.517764 
L 193.732826 -104.310704 
L 194.023531 -105.419882 
L 194.314237 -104.044896 
L 194.604943 -101.77806 
L 194.895648 -106.15482 
L 195.186354 -102.430145 
L 195.47706 -105.099999 
L 195.767765 -103.449349 
L 196.058471 -105.345079 
L 196.349177 -105.352945 
L 196.639882 -103.188446 
L 196.930588 -108.187422 
L 197.221294 -106.691185 
L 197.511999 -104.889076 
L 197.802705 -104.583328 
L 198.093411 -104.937519 
L 198.384116 -108.380542 
L 198.674822 -103.751568 
L 198.965528 -104.827115 
L 199.256233 -102.176091 
L 199.546939 -104.4292 
L 199.837645 -105.154756 
L 200.12835 -106.017221 
L 200.419056 -107.02127 
L 200.709761 -106.251093 
L 201.000467 -104.039437 
L 201.291173 -108.235319 
L 201.581878 -105.035904 
L 201.872584 -104.497988 
L 202.16329 -109.410684 
L 202.453995 -107.265081 
L 202.744701 -104.725059 
L 203.035407 -107.935292 
L 203.326112 -107.38984 
L 203.616818 -107.669332 
L 203.907524 -107.590426 
L 204.198229 -109.12547 
L 204.488935 -106.982222 
L 204.779641 -105.959893 
L 205.070346 -104.716876 
L 205.361052 -109.278553 
L 205.651758 -102.930702 
L 205.942463 -105.500957 
L 206.233169 -106.742431 
L 206.523875 -107.033083 
L 206.81458 -104.810385 
L 207.105286 -105.317665 
L 207.395992 -104.855278 
L 207.686697 -108.734261 
L 207.977403 -107.81515 
L 208.268109 -105.32692 
L 208.558814 -109.134951 
L 208.84952 -104.947675 
L 209.140226 -108.87381 
L 209.430931 -108.241424 
L 209.721637 -107.18307 
L 210.012343 -108.985898 
L 210.303048 -110.258265 
L 210.593754 -108.688665 
L 210.88446 -107.227919 
L 211.175165 -109.876702 
L 211.465871 -108.645812 
L 211.756577 -105.648815 
L 212.047282 -108.56838 
L 212.337988 -104.898771 
L 212.628694 -105.846025 
L 212.919399 -108.285088 
L 213.210105 -108.02261 
L 213.500811 -103.719022 
L 213.791516 -109.292319 
L 214.082222 -107.463262 
L 214.372928 -109.298185 
L 214.663633 -107.525088 
L 214.954339 -107.147582 
L 215.245045 -108.411675 
L 215.53575 -107.800241 
L 215.826456 -105.822419 
L 216.117162 -107.912921 
L 216.407867 -108.902456 
L 216.698573 -107.523482 
L 216.989279 -110.184744 
L 217.279984 -108.671584 
L 217.57069 -109.920866 
L 217.861396 -106.721255 
L 218.152101 -108.211092 
L 218.442807 -109.909589 
L 218.733513 -108.033981 
L 219.024218 -107.814447 
L 219.314924 -105.907339 
L 219.60563 -106.634503 
L 219.896335 -109.546702 
L 220.187041 -108.102843 
L 220.477747 -107.794801 
L 220.768452 -110.290819 
L 221.059158 -108.540187 
L 221.349864 -109.326824 
L 221.640569 -107.371332 
L 221.931275 -108.935268 
L 222.221981 -109.127005 
L 222.512686 -107.36072 
L 222.803392 -108.703375 
L 223.094098 -111.502884 
L 223.384803 -108.944058 
L 223.675509 -109.492917 
L 223.966215 -109.374843 
L 224.25692 -108.502326 
L 224.547626 -110.45355 
L 224.838332 -107.636892 
L 225.129037 -105.406656 
L 225.419743 -107.794466 
L 225.710449 -108.295189 
L 226.001154 -109.941647 
L 226.29186 -109.000849 
L 226.582566 -108.118584 
L 226.873271 -113.061332 
L 227.163977 -109.541619 
L 227.454683 -109.201398 
L 227.745388 -107.818888 
L 228.036094 -109.007494 
L 228.3268 -110.066468 
L 228.617505 -110.131983 
L 228.908211 -109.464161 
L 229.198917 -109.331417 
L 229.489622 -109.522329 
L 229.780328 -111.143942 
L 230.071034 -108.398973 
L 230.361739 -109.059246 
L 230.652445 -109.868734 
L 230.943151 -108.912884 
L 231.233856 -109.734542 
L 231.524562 -109.315103 
L 231.815268 -110.523788 
L 232.105973 -109.813352 
L 232.396679 -110.460034 
L 232.687385 -110.369411 
L 232.97809 -109.523724 
L 233.268796 -110.161314 
L 233.559502 -109.446049 
L 233.850207 -108.134784 
L 234.140913 -110.441786 
L 234.431619 -110.570466 
L 234.722324 -108.458533 
L 235.01303 -109.416305 
L 235.303736 -113.250329 
L 235.594441 -111.860778 
L 235.885147 -110.97638 
L 236.175853 -110.080903 
L 236.466558 -108.908732 
L 236.757264 -111.050226 
L 237.04797 -110.937172 
L 237.338675 -109.678471 
L 237.629381 -108.57912 
L 237.920087 -108.507458 
L 238.210792 -111.146655 
L 238.501498 -108.760672 
L 238.792204 -109.3296 
L 239.082909 -110.381406 
L 239.373615 -109.680935 
L 239.664321 -110.869436 
L 239.955026 -110.094416 
L 240.245732 -110.944075 
L 240.536438 -111.434628 
L 240.827143 -111.097928 
L 241.117849 -111.329267 
L 241.408555 -112.418476 
L 241.69926 -110.388441 
L 241.989966 -111.510223 
L 242.280672 -109.262629 
L 242.571377 -112.727958 
L 242.862083 -109.816122 
L 243.152789 -109.545967 
L 243.443494 -111.930647 
L 243.7342 -111.034848 
L 244.024906 -110.314057 
L 244.315611 -110.933642 
L 244.606317 -110.333764 
L 244.897022 -109.870592 
L 245.187728 -111.139794 
L 245.478434 -111.169898 
L 245.769139 -112.152773 
L 246.059845 -111.460559 
L 246.350551 -112.080334 
L 246.641256 -112.287396 
L 246.931962 -110.681263 
L 247.222668 -111.259964 
L 247.513373 -111.430046 
L 247.804079 -111.589962 
L 248.094785 -110.9649 
L 248.38549 -111.200813 
L 248.676196 -114.08074 
L 248.966902 -113.149876 
L 249.257607 -113.107747 
L 249.548313 -112.604149 
L 249.839019 -112.764072 
L 250.129724 -110.333676 
L 250.42043 -109.600625 
L 250.711136 -108.916169 
L 251.001841 -111.654305 
L 251.292547 -109.563617 
L 251.583253 -111.801653 
L 251.873958 -110.472992 
L 252.164664 -111.149157 
L 252.45537 -112.71032 
L 252.746075 -109.716039 
L 253.036781 -111.712743 
L 253.327487 -111.189699 
L 253.618192 -112.593503 
L 253.908898 -112.153629 
L 254.199604 -111.900103 
L 254.490309 -114.034639 
L 254.781015 -111.914879 
L 255.071721 -110.420986 
L 255.362426 -112.49048 
L 255.653132 -111.944923 
L 255.943838 -111.498396 
L 256.234543 -111.053333 
L 256.525249 -112.438824 
L 256.815955 -112.25821 
L 257.10666 -110.655062 
L 257.397366 -110.663925 
L 257.688072 -112.797105 
L 257.978777 -113.017045 
L 258.269483 -109.529284 
L 258.560189 -112.017762 
L 258.850894 -110.13909 
L 259.1416 -111.727353 
L 259.432306 -112.533982 
L 259.723011 -113.204067 
L 260.013717 -113.628994 
L 260.304423 -111.5832 
L 260.595128 -111.964566 
L 260.885834 -113.858181 
L 261.17654 -114.222423 
L 261.467245 -114.493798 
L 261.757951 -114.061545 
L 262.048657 -112.964993 
L 262.339362 -112.470309 
L 262.630068 -111.578628 
L 262.920774 -113.319842 
L 263.211479 -113.221354 
L 263.502185 -112.515842 
L 263.792891 -111.329558 
L 264.083596 -112.71177 
L 264.374302 -112.245023 
L 264.665008 -113.373741 
L 264.955713 -114.91041 
L 265.246419 -112.104165 
L 265.537125 -113.128419 
L 265.82783 -115.123353 
L 266.118536 -114.110665 
L 266.409242 -113.612657 
L 266.699947 -112.866322 
L 266.990653 -111.021804 
L 267.281359 -114.205421 
L 267.572064 -113.567051 
L 267.86277 -112.991997 
L 268.153476 -112.027836 
L 268.444181 -112.054961 
L 268.734887 -113.994588 
L 269.025593 -114.172632 
L 269.316298 -113.667864 
L 269.607004 -114.567092 
L 269.89771 -113.040463 
L 270.188415 -115.200891 
L 270.479121 -115.701606 
L 270.769827 -112.391368 
L 271.060532 -113.859297 
L 271.351238 -115.493827 
L 271.641944 -111.768072 
L 271.932649 -115.22668 
L 272.223355 -114.186936 
L 272.514061 -112.884731 
L 272.804766 -113.764395 
L 273.095472 -112.400258 
L 273.386178 -112.591232 
L 273.676883 -114.581128 
L 273.967589 -115.427619 
L 274.258295 -113.908003 
L 274.549 -114.275516 
L 274.839706 -114.937652 
L 275.130412 -114.818842 
L 275.421117 -115.112343 
L 275.711823 -114.480487 
L 276.002529 -112.759652 
L 276.293234 -114.148325 
L 276.58394 -113.992701 
L 276.874646 -114.740489 
L 277.165351 -113.82277 
L 277.456057 -115.346831 
L 277.746763 -113.477067 
L 278.037468 -113.687591 
L 278.328174 -114.107933 
L 278.61888 -114.003636 
L 278.909585 -114.446028 
L 279.200291 -113.84528 
L 279.490997 -114.683304 
L 279.781702 -117.127686 
L 280.072408 -115.336993 
L 280.363114 -114.969146 
L 280.653819 -115.392282 
L 280.944525 -115.834954 
L 281.235231 -115.52205 
L 281.525936 -114.188681 
L 281.816642 -114.409027 
L 282.107348 -114.852628 
L 282.398053 -114.53555 
L 282.688759 -115.604839 
L 282.979465 -115.118298 
L 283.27017 -113.229933 
L 283.560876 -115.314278 
L 283.851582 -115.516232 
L 284.142287 -115.785675 
L 284.432993 -115.787331 
L 284.723699 -113.564853 
L 285.014404 -114.996263 
L 285.30511 -115.648891 
L 285.595816 -114.174035 
L 285.886521 -113.107183 
L 286.177227 -114.635612 
L 286.467933 -115.874362 
L 286.758638 -115.781609 
L 287.049344 -115.761002 
L 287.34005 -115.735803 
L 287.630755 -115.6695 
L 287.921461 -115.799582 
L 288.212167 -115.307942 
L 288.502872 -114.523163 
L 288.793578 -114.902219 
L 289.084283 -114.170043 
L 289.374989 -114.821397 
L 289.665695 -114.898985 
L 289.9564 -115.435366 
L 290.247106 -113.647422 
L 290.537812 -115.151385 
L 290.828517 -116.603019 
L 291.119223 -115.333223 
L 291.409929 -116.537876 
L 291.700634 -115.443628 
L 291.99134 -115.781319 
L 292.282046 -115.518799 
L 292.572751 -115.681871 
L 292.863457 -116.601578 
L 293.154163 -117.2844 
L 293.444868 -115.279112 
L 293.735574 -115.829121 
L 294.02628 -116.014611 
L 294.316985 -115.955895 
L 294.607691 -115.560921 
L 294.898397 -116.498891 
L 295.189102 -116.030295 
L 295.479808 -114.420623 
L 295.770514 -115.355355 
L 296.061219 -115.87066 
L 296.351925 -114.179448 
L 296.642631 -115.961571 
L 296.933336 -116.672732 
L 297.224042 -116.141855 
L 297.514748 -115.502362 
L 297.805453 -116.36934 
L 298.096159 -115.370636 
L 298.386865 -115.772976 
L 298.67757 -116.456828 
L 298.968276 -115.044665 
L 299.258982 -115.786064 
L 299.549687 -115.922201 
L 299.840393 -117.368519 
L 300.131099 -114.729224 
L 300.421804 -116.116702 
L 300.71251 -115.745451 
L 301.003216 -116.292982 
L 301.293921 -114.778526 
L 301.584627 -115.965568 
L 301.875333 -115.639606 
L 302.166038 -115.963283 
L 302.456744 -116.488097 
L 302.74745 -115.576886 
L 303.038155 -116.383099 
L 303.328861 -117.116756 
L 303.619567 -116.20527 
L 303.910272 -115.759184 
L 304.200978 -116.596025 
L 304.491684 -116.014958 
L 304.782389 -116.082746 
L 305.073095 -116.548809 
L 305.363801 -116.914756 
L 305.654506 -116.396081 
L 305.945212 -116.872548 
L 306.235918 -116.764488 
L 306.526623 -115.888103 
L 306.817329 -115.428596 
L 307.108035 -116.361953 
L 307.39874 -116.016221 
L 307.689446 -115.096548 
L 307.980152 -116.724524 
L 308.270857 -115.518385 
L 308.561563 -116.271383 
L 308.852269 -116.441624 
L 309.142974 -115.641603 
L 309.43368 -117.13043 
L 309.724386 -116.606206 
L 310.015091 -115.957017 
L 310.305797 -116.8308 
L 310.596503 -115.822029 
L 310.887208 -116.033023 
L 311.177914 -116.721405 
L 311.46862 -116.202442 
L 311.759325 -117.006196 
L 312.050031 -116.066282 
L 312.340737 -116.936283 
L 312.631442 -116.768751 
L 312.922148 -116.750476 
L 313.212854 -116.928629 
L 313.503559 -117.277594 
L 313.794265 -116.112484 
L 314.084971 -116.37247 
L 314.375676 -116.884501 
L 314.666382 -117.054666 
L 314.957088 -116.147601 
L 315.247793 -116.398944 
L 315.538499 -116.728659 
L 315.829205 -116.114872 
L 316.11991 -116.695163 
L 316.410616 -117.509314 
L 316.701322 -116.370007 
L 316.992027 -118.089792 
L 317.282733 -116.482767 
L 317.573439 -117.096963 
L 317.864144 -115.997432 
L 318.15485 -116.951754 
L 318.445556 -117.328769 
L 318.736261 -116.336685 
L 319.026967 -116.907379 
L 319.317673 -116.697116 
L 319.608378 -117.066432 
L 319.899084 -117.118574 
L 320.18979 -116.125385 
L 320.480495 -117.052983 
L 320.771201 -115.885605 
L 321.061907 -116.881084 
L 321.352612 -117.136336 
L 321.643318 -116.784787 
L 321.934024 -117.002197 
L 322.224729 -116.619139 
L 322.515435 -116.603742 
L 322.806141 -117.687211 
L 323.096846 -116.574253 
L 323.387552 -115.940465 
L 323.678258 -117.667652 
L 323.968963 -117.39416 
L 324.259669 -118.077006 
L 324.550375 -117.637778 
L 324.84108 -117.657615 
L 325.131786 -116.626453 
L 325.422492 -116.913266 
L 325.713197 -117.354024 
L 326.003903 -116.914001 
L 326.294609 -116.701877 
L 326.585314 -117.005601 
L 326.87602 -117.60605 
L 327.166726 -118.136599 
L 327.457431 -117.60556 
L 327.748137 -117.222418 
L 328.038843 -116.904303 
L 328.329548 -116.910414 
L 328.620254 -117.111779 
L 328.91096 -116.441249 
L 329.201665 -116.682005 
L 329.492371 -117.542801 
L 329.783077 -117.277016 
L 330.073782 -117.521907 
L 330.364488 -117.307581 
L 330.655194 -117.779446 
L 330.945899 -117.756167 
L 331.236605 -118.484533 
L 331.527311 -118.022124 
L 331.818016 -117.425195 
L 332.108722 -117.723805 
L 332.399428 -118.563244 
L 332.690133 -118.381788 
L 332.980839 -117.792389 
L 333.271544 -117.724383 
L 333.56225 -117.694868 
L 333.852956 -118.061823 
L 334.143661 -117.881512 
L 334.434367 -118.158751 
L 334.725073 -117.349024 
L 335.015778 -118.519944 
L 335.306484 -117.636418 
L 335.59719 -117.542108 
L 335.887895 -118.110572 
L 336.178601 -117.757833 
L 336.469307 -116.899944 
L 336.760012 -117.077227 
L 337.050718 -118.810179 
L 337.341424 -117.579071 
L 337.632129 -118.387284 
L 337.922835 -118.485019 
L 338.213541 -118.208067 
L 338.504246 -118.37026 
L 338.794952 -118.043688 
L 339.085658 -118.118312 
L 339.376363 -118.236372 
L 339.376363 -130.564505 
L 339.376363 -130.564505 
L 339.085658 -130.393333 
L 338.794952 -129.519963 
L 338.504246 -129.925891 
L 338.213541 -130.027079 
L 337.922835 -130.891592 
L 337.632129 -130.960358 
L 337.341424 -130.914166 
L 337.050718 -130.693158 
L 336.760012 -130.243553 
L 336.469307 -130.817372 
L 336.178601 -129.938213 
L 335.887895 -130.564627 
L 335.59719 -130.844849 
L 335.306484 -130.699266 
L 335.015778 -130.955265 
L 334.725073 -129.73788 
L 334.434367 -130.799492 
L 334.143661 -130.421509 
L 333.852956 -130.59338 
L 333.56225 -130.498281 
L 333.271544 -130.305639 
L 332.980839 -129.484597 
L 332.690133 -130.464146 
L 332.399428 -130.727557 
L 332.108722 -130.374226 
L 331.818016 -130.921191 
L 331.527311 -132.696519 
L 331.236605 -131.622694 
L 330.945899 -131.200865 
L 330.655194 -130.387781 
L 330.364488 -131.555753 
L 330.073782 -130.32422 
L 329.783077 -130.368986 
L 329.492371 -129.834456 
L 329.201665 -130.555422 
L 328.91096 -130.662 
L 328.620254 -130.772261 
L 328.329548 -130.112308 
L 328.038843 -131.7724 
L 327.748137 -130.900835 
L 327.457431 -130.711419 
L 327.166726 -131.776443 
L 326.87602 -130.730171 
L 326.585314 -130.813031 
L 326.294609 -131.981276 
L 326.003903 -130.857054 
L 325.713197 -130.645516 
L 325.422492 -130.507569 
L 325.131786 -130.942144 
L 324.84108 -131.695818 
L 324.550375 -130.401607 
L 324.259669 -131.190548 
L 323.968963 -131.32285 
L 323.678258 -130.646072 
L 323.387552 -130.448499 
L 323.096846 -130.803089 
L 322.806141 -131.196173 
L 322.515435 -130.907102 
L 322.224729 -130.986422 
L 321.934024 -131.769672 
L 321.643318 -131.6615 
L 321.352612 -130.363482 
L 321.061907 -130.971254 
L 320.771201 -129.571552 
L 320.480495 -131.836001 
L 320.18979 -131.955704 
L 319.899084 -131.179861 
L 319.608378 -130.970583 
L 319.317673 -130.995445 
L 319.026967 -131.036098 
L 318.736261 -131.200785 
L 318.445556 -132.285241 
L 318.15485 -131.103951 
L 317.864144 -131.515253 
L 317.573439 -131.96831 
L 317.282733 -131.859891 
L 316.992027 -131.853911 
L 316.701322 -130.393813 
L 316.410616 -132.640405 
L 316.11991 -132.498552 
L 315.829205 -131.373914 
L 315.538499 -131.617669 
L 315.247793 -131.145943 
L 314.957088 -131.548975 
L 314.666382 -131.391757 
L 314.375676 -131.345316 
L 314.084971 -131.287564 
L 313.794265 -132.064304 
L 313.503559 -132.498493 
L 313.212854 -132.654748 
L 312.922148 -131.619377 
L 312.631442 -132.31039 
L 312.340737 -132.199951 
L 312.050031 -131.924554 
L 311.759325 -131.522253 
L 311.46862 -131.987916 
L 311.177914 -131.039652 
L 310.887208 -131.728285 
L 310.596503 -131.594329 
L 310.305797 -132.296476 
L 310.015091 -132.723984 
L 309.724386 -131.433975 
L 309.43368 -131.627599 
L 309.142974 -131.772439 
L 308.852269 -133.301664 
L 308.561563 -132.288627 
L 308.270857 -132.451829 
L 307.980152 -132.408741 
L 307.689446 -131.489366 
L 307.39874 -132.316835 
L 307.108035 -132.403915 
L 306.817329 -131.027409 
L 306.526623 -132.332132 
L 306.235918 -131.887519 
L 305.945212 -131.307479 
L 305.654506 -131.138392 
L 305.363801 -131.725625 
L 305.073095 -132.922595 
L 304.782389 -131.814772 
L 304.491684 -131.470402 
L 304.200978 -132.885615 
L 303.910272 -132.842528 
L 303.619567 -131.74319 
L 303.328861 -132.424095 
L 303.038155 -132.37595 
L 302.74745 -133.397613 
L 302.456744 -132.54795 
L 302.166038 -132.279488 
L 301.875333 -132.386375 
L 301.584627 -132.743153 
L 301.293921 -132.226734 
L 301.003216 -132.520791 
L 300.71251 -132.223742 
L 300.421804 -132.806302 
L 300.131099 -131.130067 
L 299.840393 -133.09519 
L 299.549687 -133.033473 
L 299.258982 -132.430797 
L 298.968276 -132.419983 
L 298.67757 -132.357897 
L 298.386865 -131.974145 
L 298.096159 -132.53418 
L 297.805453 -133.591091 
L 297.514748 -131.749768 
L 297.224042 -134.055302 
L 296.933336 -132.568975 
L 296.642631 -134.183732 
L 296.351925 -131.404405 
L 296.061219 -132.727315 
L 295.770514 -132.889696 
L 295.479808 -132.185167 
L 295.189102 -132.007409 
L 294.898397 -132.986671 
L 294.607691 -133.756157 
L 294.316985 -132.475412 
L 294.02628 -135.195157 
L 293.735574 -132.956213 
L 293.444868 -134.21149 
L 293.154163 -133.522535 
L 292.863457 -133.004348 
L 292.572751 -132.15715 
L 292.282046 -133.105809 
L 291.99134 -134.000741 
L 291.700634 -133.89657 
L 291.409929 -133.11983 
L 291.119223 -132.980225 
L 290.828517 -132.714334 
L 290.537812 -132.85644 
L 290.247106 -131.569289 
L 289.9564 -132.572765 
L 289.665695 -132.677726 
L 289.374989 -133.055285 
L 289.084283 -133.3315 
L 288.793578 -133.284298 
L 288.502872 -133.632774 
L 288.212167 -134.009533 
L 287.921461 -134.391916 
L 287.630755 -134.450431 
L 287.34005 -132.669141 
L 287.049344 -134.410998 
L 286.758638 -133.602054 
L 286.467933 -133.568628 
L 286.177227 -132.440935 
L 285.886521 -131.46159 
L 285.595816 -134.315412 
L 285.30511 -133.73177 
L 285.014404 -134.908107 
L 284.723699 -133.783709 
L 284.432993 -134.30939 
L 284.142287 -134.646774 
L 283.851582 -133.868606 
L 283.560876 -135.080312 
L 283.27017 -134.270404 
L 282.979465 -133.869009 
L 282.688759 -134.379453 
L 282.398053 -133.799585 
L 282.107348 -135.038915 
L 281.816642 -134.784199 
L 281.525936 -134.109829 
L 281.235231 -135.099395 
L 280.944525 -134.52407 
L 280.653819 -134.095117 
L 280.363114 -133.550209 
L 280.072408 -135.631356 
L 279.781702 -134.513571 
L 279.490997 -133.177678 
L 279.200291 -135.498909 
L 278.909585 -133.431359 
L 278.61888 -133.99634 
L 278.328174 -134.591052 
L 278.037468 -134.624197 
L 277.746763 -133.693314 
L 277.456057 -134.233905 
L 277.165351 -134.490627 
L 276.874646 -134.51215 
L 276.58394 -134.555776 
L 276.293234 -134.702621 
L 276.002529 -134.370951 
L 275.711823 -134.079073 
L 275.421117 -133.77918 
L 275.130412 -133.560008 
L 274.839706 -133.460221 
L 274.549 -135.319233 
L 274.258295 -132.861901 
L 273.967589 -133.803622 
L 273.676883 -135.036481 
L 273.386178 -134.062237 
L 273.095472 -132.758192 
L 272.804766 -135.357312 
L 272.514061 -134.254624 
L 272.223355 -134.618079 
L 271.932649 -135.211933 
L 271.641944 -134.339441 
L 271.351238 -135.600765 
L 271.060532 -134.367263 
L 270.769827 -133.358051 
L 270.479121 -134.846954 
L 270.188415 -135.828345 
L 269.89771 -135.097532 
L 269.607004 -135.030524 
L 269.316298 -134.983009 
L 269.025593 -135.725199 
L 268.734887 -134.925873 
L 268.444181 -134.134335 
L 268.153476 -134.711101 
L 267.86277 -135.295868 
L 267.572064 -134.919484 
L 267.281359 -134.597359 
L 266.990653 -134.717839 
L 266.699947 -135.976031 
L 266.409242 -136.675507 
L 266.118536 -134.363402 
L 265.82783 -135.950048 
L 265.537125 -134.841911 
L 265.246419 -133.976223 
L 264.955713 -136.009383 
L 264.665008 -135.348666 
L 264.374302 -134.739105 
L 264.083596 -134.359608 
L 263.792891 -134.991272 
L 263.502185 -135.245105 
L 263.211479 -134.125513 
L 262.920774 -136.753555 
L 262.630068 -133.695621 
L 262.339362 -134.303109 
L 262.048657 -135.16821 
L 261.757951 -136.265707 
L 261.467245 -134.876657 
L 261.17654 -135.329419 
L 260.885834 -137.395783 
L 260.595128 -134.823153 
L 260.304423 -135.380318 
L 260.013717 -137.054329 
L 259.723011 -137.226432 
L 259.432306 -137.655604 
L 259.1416 -135.970377 
L 258.850894 -134.854675 
L 258.560189 -136.003896 
L 258.269483 -135.864802 
L 257.978777 -137.212862 
L 257.688072 -137.269154 
L 257.397366 -134.426899 
L 257.10666 -133.944934 
L 256.815955 -136.218978 
L 256.525249 -137.190479 
L 256.234543 -135.959686 
L 255.943838 -135.293446 
L 255.653132 -136.281454 
L 255.362426 -135.451647 
L 255.071721 -135.696939 
L 254.781015 -136.218236 
L 254.490309 -136.959409 
L 254.199604 -136.439649 
L 253.908898 -138.463458 
L 253.618192 -135.58966 
L 253.327487 -134.592779 
L 253.036781 -135.45945 
L 252.746075 -137.875026 
L 252.45537 -137.570935 
L 252.164664 -136.042104 
L 251.873958 -134.581754 
L 251.583253 -137.131341 
L 251.292547 -137.76323 
L 251.001841 -137.029013 
L 250.711136 -135.188495 
L 250.42043 -135.103743 
L 250.129724 -135.378879 
L 249.839019 -136.673042 
L 249.548313 -135.754153 
L 249.257607 -135.900082 
L 248.966902 -138.734818 
L 248.676196 -138.104059 
L 248.38549 -137.12226 
L 248.094785 -135.242507 
L 247.804079 -135.194067 
L 247.513373 -137.813631 
L 247.222668 -136.265292 
L 246.931962 -136.546607 
L 246.641256 -136.12459 
L 246.350551 -137.675013 
L 246.059845 -136.095964 
L 245.769139 -136.649635 
L 245.478434 -137.52454 
L 245.187728 -137.400073 
L 244.897022 -138.210209 
L 244.606317 -137.929308 
L 244.315611 -136.307201 
L 244.024906 -135.618565 
L 243.7342 -135.164981 
L 243.443494 -137.582318 
L 243.152789 -136.734732 
L 242.862083 -137.480646 
L 242.571377 -137.940632 
L 242.280672 -138.330813 
L 241.989966 -137.509973 
L 241.69926 -137.369732 
L 241.408555 -138.995807 
L 241.117849 -138.361714 
L 240.827143 -136.264028 
L 240.536438 -137.942602 
L 240.245732 -139.334482 
L 239.955026 -138.710595 
L 239.664321 -136.336934 
L 239.373615 -136.442836 
L 239.082909 -135.698889 
L 238.792204 -136.116257 
L 238.501498 -138.05456 
L 238.210792 -137.717286 
L 237.920087 -138.686918 
L 237.629381 -137.935662 
L 237.338675 -137.404726 
L 237.04797 -138.171321 
L 236.757264 -137.421528 
L 236.466558 -137.042066 
L 236.175853 -136.459446 
L 235.885147 -138.650056 
L 235.594441 -138.571972 
L 235.303736 -139.668606 
L 235.01303 -137.458334 
L 234.722324 -134.588684 
L 234.431619 -138.942807 
L 234.140913 -138.052606 
L 233.850207 -139.65043 
L 233.559502 -139.983626 
L 233.268796 -138.165797 
L 232.97809 -137.468116 
L 232.687385 -137.562214 
L 232.396679 -139.725706 
L 232.105973 -139.119935 
L 231.815268 -140.525835 
L 231.524562 -140.006829 
L 231.233856 -138.426643 
L 230.943151 -136.797812 
L 230.652445 -137.637592 
L 230.361739 -137.781222 
L 230.071034 -139.886719 
L 229.780328 -139.99372 
L 229.489622 -137.989716 
L 229.198917 -139.549705 
L 228.908211 -136.754277 
L 228.617505 -138.863204 
L 228.3268 -136.275811 
L 228.036094 -139.676289 
L 227.745388 -138.575579 
L 227.454683 -138.490486 
L 227.163977 -140.105919 
L 226.873271 -141.998455 
L 226.582566 -137.322969 
L 226.29186 -138.288241 
L 226.001154 -139.788795 
L 225.710449 -138.716205 
L 225.419743 -138.481716 
L 225.129037 -138.459916 
L 224.838332 -136.744851 
L 224.547626 -139.656779 
L 224.25692 -141.183074 
L 223.966215 -140.059558 
L 223.675509 -139.676732 
L 223.384803 -139.662811 
L 223.094098 -141.854399 
L 222.803392 -138.328654 
L 222.512686 -138.544218 
L 222.221981 -138.483267 
L 221.931275 -140.528767 
L 221.640569 -139.558147 
L 221.349864 -140.403171 
L 221.059158 -138.482978 
L 220.768452 -138.713071 
L 220.477747 -140.684298 
L 220.187041 -140.078444 
L 219.896335 -140.840694 
L 219.60563 -136.805098 
L 219.314924 -138.054598 
L 219.024218 -139.941216 
L 218.733513 -138.052597 
L 218.442807 -139.76533 
L 218.152101 -141.633355 
L 217.861396 -140.710298 
L 217.57069 -140.60079 
L 217.279984 -140.097252 
L 216.989279 -140.036342 
L 216.698573 -140.074786 
L 216.407867 -139.5576 
L 216.117162 -140.229769 
L 215.826456 -141.289976 
L 215.53575 -138.837416 
L 215.245045 -139.558029 
L 214.954339 -139.662143 
L 214.663633 -141.376844 
L 214.372928 -142.208873 
L 214.082222 -140.680726 
L 213.791516 -142.15531 
L 213.500811 -140.488795 
L 213.210105 -142.773764 
L 212.919399 -141.924386 
L 212.628694 -143.103333 
L 212.337988 -142.505272 
L 212.047282 -139.714271 
L 211.756577 -138.895196 
L 211.465871 -143.147522 
L 211.175165 -142.383759 
L 210.88446 -141.977208 
L 210.593754 -142.256553 
L 210.303048 -142.545088 
L 210.012343 -144.720287 
L 209.721637 -141.22377 
L 209.430931 -138.707324 
L 209.140226 -139.817256 
L 208.84952 -138.973371 
L 208.558814 -142.826268 
L 208.268109 -141.855381 
L 207.977403 -144.087689 
L 207.686697 -142.14671 
L 207.395992 -141.847499 
L 207.105286 -142.613483 
L 206.81458 -141.924375 
L 206.523875 -138.890765 
L 206.233169 -142.514474 
L 205.942463 -140.908633 
L 205.651758 -141.192772 
L 205.361052 -143.796393 
L 205.070346 -142.154238 
L 204.779641 -141.329445 
L 204.488935 -142.884989 
L 204.198229 -141.363386 
L 203.907524 -143.190402 
L 203.616818 -141.457179 
L 203.326112 -139.009998 
L 203.035407 -142.434679 
L 202.744701 -141.984017 
L 202.453995 -142.944264 
L 202.16329 -145.967524 
L 201.872584 -141.57094 
L 201.581878 -143.657346 
L 201.291173 -143.79405 
L 201.000467 -142.141158 
L 200.709761 -142.552749 
L 200.419056 -142.364409 
L 200.12835 -141.3046 
L 199.837645 -140.991856 
L 199.546939 -142.59015 
L 199.256233 -139.327384 
L 198.965528 -141.642005 
L 198.674822 -140.794164 
L 198.384116 -146.010863 
L 198.093411 -142.229956 
L 197.802705 -141.681003 
L 197.511999 -140.120877 
L 197.221294 -142.152737 
L 196.930588 -143.81559 
L 196.639882 -138.604989 
L 196.349177 -141.132407 
L 196.058471 -141.944953 
L 195.767765 -141.665073 
L 195.47706 -144.796781 
L 195.186354 -141.816821 
L 194.895648 -142.928175 
L 194.604943 -142.992161 
L 194.314237 -141.194411 
L 194.023531 -144.081613 
L 193.732826 -144.618541 
L 193.44212 -144.38154 
L 193.151414 -145.072442 
L 192.860709 -142.918204 
L 192.570003 -142.407248 
L 192.279297 -143.079259 
L 191.988592 -142.196995 
L 191.697886 -143.520907 
L 191.40718 -140.112661 
L 191.116475 -145.440833 
L 190.825769 -142.472353 
L 190.535063 -143.173124 
L 190.244358 -144.021474 
L 189.953652 -141.01785 
L 189.662946 -143.729013 
L 189.372241 -142.239165 
L 189.081535 -145.296693 
L 188.790829 -143.391036 
L 188.500124 -147.308869 
L 188.209418 -144.688201 
L 187.918712 -143.689203 
L 187.628007 -140.706388 
L 187.337301 -146.438276 
L 187.046595 -143.097458 
L 186.75589 -143.261537 
L 186.465184 -146.928842 
L 186.174478 -142.888868 
L 185.883773 -144.579883 
L 185.593067 -144.232942 
L 185.302361 -143.667889 
L 185.011656 -143.737919 
L 184.72095 -145.419521 
L 184.430244 -147.117255 
L 184.139539 -148.972158 
L 183.848833 -145.705334 
L 183.558127 -145.297236 
L 183.267422 -146.105148 
L 182.976716 -144.19138 
L 182.68601 -145.599225 
L 182.395305 -142.566435 
L 182.104599 -147.008457 
L 181.813893 -147.510881 
L 181.523188 -145.472257 
L 181.232482 -144.792726 
L 180.941776 -146.366011 
L 180.651071 -145.098592 
L 180.360365 -144.3407 
L 180.069659 -144.469152 
L 179.778954 -146.629946 
L 179.488248 -144.159014 
L 179.197542 -144.626756 
L 178.906837 -143.877412 
L 178.616131 -146.699387 
L 178.325425 -146.928364 
L 178.03472 -141.552199 
L 177.744014 -145.129439 
L 177.453308 -147.897072 
L 177.162603 -150.958424 
L 176.871897 -148.348142 
L 176.581191 -144.630401 
L 176.290486 -149.103814 
L 175.99978 -144.594105 
L 175.709074 -148.486332 
L 175.418369 -149.124602 
L 175.127663 -149.271632 
L 174.836957 -150.073078 
L 174.546252 -144.402095 
L 174.255546 -146.192064 
L 173.96484 -145.903826 
L 173.674135 -148.150832 
L 173.383429 -143.201907 
L 173.092723 -146.894011 
L 172.802018 -145.151434 
L 172.511312 -148.003124 
L 172.220606 -146.40547 
L 171.929901 -146.728199 
L 171.639195 -146.855768 
L 171.348489 -145.307017 
L 171.057784 -149.560352 
L 170.767078 -149.315214 
L 170.476372 -148.23403 
L 170.185667 -149.531899 
L 169.894961 -147.137131 
L 169.604255 -152.044115 
L 169.31355 -149.108737 
L 169.022844 -145.324517 
L 168.732138 -147.276626 
L 168.441433 -149.329433 
L 168.150727 -147.140443 
L 167.860021 -147.179871 
L 167.569316 -144.947767 
L 167.27861 -148.685725 
L 166.987904 -151.649377 
L 166.697199 -147.229324 
L 166.406493 -145.355609 
L 166.115787 -148.185352 
L 165.825082 -148.863529 
L 165.534376 -148.411155 
L 165.24367 -146.842799 
L 164.952965 -148.304721 
L 164.662259 -151.827858 
L 164.371553 -148.909053 
L 164.080848 -147.655356 
L 163.790142 -150.404251 
L 163.499436 -151.146648 
L 163.208731 -147.038208 
L 162.918025 -148.756327 
L 162.627319 -148.246713 
L 162.336614 -146.132632 
L 162.045908 -146.932171 
L 161.755202 -146.933052 
L 161.464497 -149.238653 
L 161.173791 -150.468636 
L 160.883085 -153.084389 
L 160.59238 -153.27444 
L 160.301674 -153.175442 
L 160.010968 -151.3399 
L 159.720263 -151.051793 
L 159.429557 -149.325947 
L 159.138851 -153.447889 
L 158.848146 -146.939857 
L 158.55744 -147.849817 
L 158.266734 -149.929436 
L 157.976029 -151.441223 
L 157.685323 -157.085857 
L 157.394617 -151.290255 
L 157.103912 -150.584123 
L 156.813206 -152.82513 
L 156.5225 -148.065715 
L 156.231795 -150.973792 
L 155.941089 -152.566804 
L 155.650384 -148.149417 
L 155.359678 -148.636387 
L 155.068972 -151.420032 
L 154.778267 -147.012918 
L 154.487561 -150.534138 
L 154.196855 -149.105645 
L 153.90615 -154.125346 
L 153.615444 -149.140872 
L 153.324738 -148.834028 
L 153.034033 -150.179485 
L 152.743327 -148.735517 
L 152.452621 -154.66584 
L 152.161916 -150.022774 
L 151.87121 -153.287963 
L 151.580504 -152.73014 
L 151.289799 -149.853224 
L 150.999093 -151.256602 
L 150.708387 -149.318533 
L 150.417682 -150.665593 
L 150.126976 -153.679998 
L 149.83627 -153.758555 
L 149.545565 -150.329388 
L 149.254859 -149.341217 
L 148.964153 -150.843374 
L 148.673448 -154.213745 
L 148.382742 -151.296676 
L 148.092036 -153.318883 
L 147.801331 -153.153832 
L 147.510625 -152.890135 
L 147.219919 -149.897192 
L 146.929214 -153.896359 
L 146.638508 -151.039575 
L 146.347802 -151.021008 
L 146.057097 -152.35241 
L 145.766391 -152.983822 
L 145.475685 -152.318741 
L 145.18498 -158.024434 
L 144.894274 -153.308912 
L 144.603568 -152.483529 
L 144.312863 -149.492731 
L 144.022157 -154.894466 
L 143.731451 -151.306282 
L 143.440746 -153.080237 
L 143.15004 -154.30838 
L 142.859334 -155.539902 
L 142.568629 -151.276159 
L 142.277923 -154.390595 
L 141.987217 -151.581404 
L 141.696512 -156.092014 
L 141.405806 -150.987455 
L 141.1151 -154.321311 
L 140.824395 -152.200801 
L 140.533689 -153.094287 
L 140.242983 -155.578364 
L 139.952278 -159.435564 
L 139.661572 -154.113929 
L 139.370866 -156.038085 
L 139.080161 -147.9786 
L 138.789455 -154.480345 
L 138.498749 -152.376837 
L 138.208044 -159.506417 
L 137.917338 -151.8944 
L 137.626632 -158.493563 
L 137.335927 -155.82591 
L 137.045221 -156.707213 
L 136.754515 -154.094988 
L 136.46381 -150.797624 
L 136.173104 -157.340061 
L 135.882398 -162.492111 
L 135.591693 -153.427301 
L 135.300987 -151.333487 
L 135.010281 -157.130461 
L 134.719576 -154.379921 
L 134.42887 -152.937267 
L 134.138164 -156.291802 
L 133.847459 -155.649204 
L 133.556753 -157.82265 
L 133.266047 -154.667258 
L 132.975342 -162.493459 
L 132.684636 -155.00425 
L 132.39393 -154.774115 
L 132.103225 -155.579083 
L 131.812519 -153.323706 
L 131.521813 -154.305714 
L 131.231108 -158.542966 
L 130.940402 -157.536038 
L 130.649696 -154.913607 
L 130.358991 -153.07674 
L 130.068285 -155.056405 
L 129.777579 -152.017089 
L 129.486874 -157.966428 
L 129.196168 -155.453954 
L 128.905462 -159.312257 
L 128.614757 -156.800494 
L 128.324051 -155.068302 
L 128.033345 -161.811301 
L 127.74264 -151.707876 
L 127.451934 -153.089153 
L 127.161228 -152.804417 
L 126.870523 -159.361736 
L 126.579817 -157.932543 
L 126.289111 -161.07937 
L 125.998406 -154.253849 
L 125.7077 -152.526796 
L 125.416994 -160.492406 
L 125.126289 -157.669606 
L 124.835583 -164.526145 
L 124.544877 -159.239035 
L 124.254172 -155.828575 
L 123.963466 -158.78403 
L 123.67276 -160.445021 
L 123.382055 -160.29665 
L 123.091349 -157.624375 
L 122.800643 -160.328015 
L 122.509938 -155.086021 
L 122.219232 -160.259539 
L 121.928526 -159.643621 
L 121.637821 -158.258171 
L 121.347115 -156.615005 
L 121.056409 -156.756921 
L 120.765704 -157.663107 
L 120.474998 -156.412727 
L 120.184292 -161.056951 
L 119.893587 -161.021702 
L 119.602881 -157.187489 
L 119.312175 -160.753357 
L 119.02147 -162.783894 
L 118.730764 -161.533404 
L 118.440058 -161.014575 
L 118.149353 -164.610777 
L 117.858647 -154.227113 
L 117.567941 -158.763155 
L 117.277236 -162.185388 
L 116.98653 -159.088153 
L 116.695824 -159.178298 
L 116.405119 -161.105851 
L 116.114413 -156.57554 
L 115.823707 -161.506244 
L 115.533002 -157.387136 
L 115.242296 -163.559878 
L 114.95159 -159.201323 
L 114.660885 -156.442952 
L 114.370179 -161.547241 
L 114.079473 -156.979692 
L 113.788768 -161.502998 
L 113.498062 -160.494861 
L 113.207356 -156.528371 
L 112.916651 -163.655469 
L 112.625945 -162.313287 
L 112.335239 -161.66276 
L 112.044534 -159.705466 
L 111.753828 -158.44091 
L 111.463123 -166.960971 
L 111.172417 -157.279662 
L 110.881711 -156.505343 
L 110.591006 -164.422345 
L 110.3003 -160.020892 
L 110.009594 -163.948916 
L 109.718889 -163.442922 
L 109.428183 -162.687741 
L 109.137477 -165.036481 
L 108.846772 -162.4091 
L 108.556066 -166.140534 
L 108.26536 -161.525261 
L 107.974655 -157.798187 
L 107.683949 -162.947493 
L 107.393243 -163.019085 
L 107.102538 -156.537112 
L 106.811832 -166.803403 
L 106.521126 -166.256683 
L 106.230421 -165.207891 
L 105.939715 -160.232694 
L 105.649009 -157.28103 
L 105.358304 -167.02922 
L 105.067598 -161.069227 
L 104.776892 -165.904313 
L 104.486187 -159.437089 
L 104.195481 -168.973062 
L 103.904775 -163.195029 
L 103.61407 -161.629697 
L 103.323364 -160.723068 
L 103.032658 -165.068635 
L 102.741953 -161.716325 
L 102.451247 -164.53733 
L 102.160541 -164.867912 
L 101.869836 -163.282279 
L 101.57913 -164.757187 
L 101.288424 -168.600796 
L 100.997719 -165.368079 
L 100.707013 -159.804601 
L 100.416307 -165.314789 
L 100.125602 -166.872468 
L 99.834896 -166.319239 
L 99.54419 -167.532203 
L 99.253485 -166.858405 
L 98.962779 -161.222142 
L 98.672073 -164.266526 
L 98.381368 -164.752394 
L 98.090662 -163.548892 
L 97.799956 -166.205615 
L 97.509251 -165.851996 
L 97.218545 -171.147666 
L 96.927839 -163.719283 
L 96.637134 -161.952729 
L 96.346428 -169.115087 
L 96.055722 -168.099352 
L 95.765017 -166.26035 
L 95.474311 -164.47827 
L 95.183605 -164.9054 
L 94.8929 -171.990327 
L 94.602194 -164.45104 
L 94.311488 -165.609973 
L 94.020783 -172.857022 
L 93.730077 -166.61679 
L 93.439371 -163.959071 
L 93.148666 -163.478877 
L 92.85796 -169.481883 
L 92.567254 -165.469783 
L 92.276549 -170.887536 
L 91.985843 -165.695969 
L 91.695137 -166.259686 
L 91.404432 -163.19519 
L 91.113726 -169.824523 
L 90.82302 -167.306962 
L 90.532315 -167.332397 
L 90.241609 -174.587235 
L 89.950903 -168.509965 
L 89.660198 -169.444484 
L 89.369492 -168.9548 
L 89.078786 -168.511344 
L 88.788081 -169.523468 
L 88.497375 -168.609135 
L 88.206669 -165.128314 
L 87.915964 -164.683037 
L 87.625258 -164.637131 
L 87.334552 -165.68834 
L 87.043847 -165.175762 
L 86.753141 -173.055646 
L 86.462435 -171.845211 
L 86.17173 -164.438302 
L 85.881024 -168.92638 
L 85.590318 -171.540844 
L 85.299613 -177.096444 
L 85.008907 -170.21019 
L 84.718201 -178.209055 
L 84.427496 -172.378346 
L 84.13679 -163.388072 
L 83.846084 -175.127431 
L 83.555379 -172.15372 
L 83.264673 -166.923628 
L 82.973967 -167.896719 
L 82.683262 -175.258817 
L 82.392556 -172.3114 
L 82.10185 -175.803104 
L 81.811145 -165.491882 
L 81.520439 -165.345822 
L 81.229733 -170.432846 
L 80.939028 -166.961107 
L 80.648322 -173.830762 
L 80.357616 -170.397252 
L 80.066911 -173.515649 
L 79.776205 -161.910236 
L 79.485499 -173.162422 
L 79.194794 -174.34466 
L 78.904088 -171.879253 
L 78.613382 -178.615548 
L 78.322677 -179.127556 
L 78.031971 -161.514013 
L 77.741265 -173.308451 
L 77.45056 -170.285616 
L 77.159854 -170.34552 
L 76.869148 -165.24861 
L 76.578443 -171.842601 
L 76.287737 -175.397545 
L 75.997031 -171.156817 
L 75.706326 -174.118017 
L 75.41562 -173.752287 
L 75.124914 -170.812281 
L 74.834209 -173.99629 
L 74.543503 -173.91158 
L 74.252797 -180.216244 
L 73.962092 -169.549642 
L 73.671386 -169.327132 
L 73.38068 -173.216806 
L 73.089975 -169.500147 
L 72.799269 -171.761479 
L 72.508563 -173.677308 
L 72.217858 -166.040958 
L 71.927152 -184.719927 
L 71.636446 -178.17197 
L 71.345741 -173.435805 
L 71.055035 -174.052191 
L 70.764329 -178.296761 
L 70.473624 -172.22947 
L 70.182918 -177.572662 
L 69.892212 -171.443118 
L 69.601507 -172.203491 
L 69.310801 -170.602956 
L 69.020095 -171.258703 
L 68.72939 -176.202981 
L 68.438684 -183.906378 
L 68.147978 -177.684248 
L 67.857273 -176.056517 
L 67.566567 -179.869989 
L 67.275862 -179.265646 
L 66.985156 -178.692717 
L 66.69445 -183.132732 
L 66.403745 -174.303115 
L 66.113039 -173.438978 
L 65.822333 -173.311665 
L 65.531628 -179.645393 
L 65.240922 -178.114349 
L 64.950216 -183.971914 
L 64.659511 -177.455338 
L 64.368805 -177.139244 
L 64.078099 -180.048729 
L 63.787394 -184.368428 
L 63.496688 -180.11993 
L 63.205982 -183.805829 
L 62.915277 -176.683055 
L 62.624571 -173.421812 
L 62.333865 -173.427622 
L 62.04316 -178.171584 
L 61.752454 -184.313298 
L 61.461748 -177.158217 
L 61.171043 -183.124449 
L 60.880337 -180.119445 
L 60.589631 -177.781063 
L 60.298926 -189.464712 
L 60.00822 -177.535153 
L 59.717514 -185.441023 
L 59.426809 -186.631927 
L 59.136103 -173.436223 
L 58.845397 -181.57967 
L 58.554692 -187.623084 
L 58.263986 -179.743523 
L 57.97328 -174.790267 
L 57.682575 -184.389136 
L 57.391869 -178.477475 
L 57.101163 -190.953815 
L 56.810458 -176.840948 
L 56.519752 -176.164303 
L 56.229046 -187.761643 
L 55.938341 -185.102929 
L 55.647635 -190.169413 
L 55.356929 -195.939455 
L 55.066224 -180.918585 
L 54.775518 -178.186404 
L 54.484812 -183.439015 
L 54.194107 -184.161113 
L 53.903401 -177.757965 
L 53.612695 -184.09151 
L 53.32199 -185.479926 
L 53.031284 -180.722944 
L 52.740578 -185.895294 
L 52.449873 -179.912261 
L 52.159167 -182.72092 
L 51.868461 -183.183588 
L 51.577756 -181.22837 
L 51.28705 -179.897031 
L 50.996344 -190.596698 
L 50.705639 -180.8573 
L 50.414933 -194.515195 
L 50.124227 -193.428692 
L 49.833522 -180.837932 
L 49.542816 -182.985403 
L 49.25211 -181.120527 
L 48.961405 -187.27305 
z
" id="mc0c0a9f804" style="stroke:#1f77b4;stroke-opacity:0.3;"/>
    </defs>
    <g clip-path="url(#p895c2b9039)">
     <use style="fill:#1f77b4;fill-opacity:0.3;stroke:#1f77b4;stroke-opacity:0.3;" x="0" xlink:href="#mc0c0a9f804" y="216"/>
    </g>
   </g>
   <g id="line2d_7">
    <path clip-path="url(#p895c2b9039)" d="M 48.961405 90.391729 
L 49.25211 98.020573 
L 49.542816 97.543018 
L 49.833522 95.981193 
L 50.124227 86.702008 
L 50.414933 85.901944 
L 50.705639 90.876029 
L 50.996344 88.643485 
L 51.577756 96.636913 
L 51.868461 90.243166 
L 52.159167 92.610039 
L 52.449873 93.516181 
L 52.740578 94.053221 
L 53.32199 88.950949 
L 53.612695 93.059213 
L 53.903401 92.587034 
L 54.484812 93.6492 
L 54.775518 93.781836 
L 55.066224 92.252037 
L 55.356929 85.410198 
L 55.647635 84.157326 
L 55.938341 90.114047 
L 56.229046 90.129647 
L 56.519752 98.405765 
L 56.810458 97.672923 
L 57.101163 88.848494 
L 57.391869 90.219947 
L 57.682575 90.230338 
L 57.97328 97.347534 
L 58.554692 85.234936 
L 59.136103 96.977925 
L 59.426809 85.283329 
L 59.717514 85.504042 
L 60.00822 94.658058 
L 60.298926 87.429377 
L 60.589631 95.398131 
L 61.171043 88.536525 
L 61.461748 92.717373 
L 61.752454 87.931924 
L 62.04316 97.401778 
L 62.333865 95.681589 
L 62.624571 99.078973 
L 62.915277 90.012175 
L 63.205982 87.370374 
L 63.496688 92.664125 
L 63.787394 84.498994 
L 64.078099 92.882395 
L 64.368805 88.124767 
L 64.659511 92.125515 
L 64.950216 86.7308 
L 65.240922 93.818013 
L 65.531628 92.44984 
L 65.822333 94.655871 
L 66.113039 93.839546 
L 66.403745 96.346655 
L 66.69445 88.613531 
L 66.985156 92.995718 
L 67.566567 86.299537 
L 67.857273 95.940261 
L 68.147978 89.671724 
L 68.438684 86.370627 
L 69.020095 100.944204 
L 69.310801 94.141803 
L 69.601507 97.777159 
L 69.892212 97.634264 
L 70.182918 90.722647 
L 70.473624 91.454838 
L 70.764329 90.490588 
L 71.055035 92.394133 
L 71.345741 97.782798 
L 71.927152 83.408798 
L 72.217858 98.130889 
L 72.508563 92.035481 
L 72.799269 92.979019 
L 73.089975 93.373282 
L 73.38068 95.591415 
L 73.671386 94.593526 
L 73.962092 94.938315 
L 74.252797 87.811663 
L 74.543503 90.738657 
L 74.834209 92.282575 
L 75.124914 96.68023 
L 75.41562 92.686239 
L 75.706326 96.489456 
L 75.997031 87.77181 
L 76.287737 92.264277 
L 76.578443 91.624047 
L 76.869148 100.83396 
L 77.159854 95.043075 
L 77.45056 95.950557 
L 77.741265 91.795959 
L 78.031971 100.271939 
L 78.322677 87.064752 
L 78.613382 89.864391 
L 78.904088 87.126174 
L 79.194794 89.803414 
L 79.485499 91.095148 
L 79.776205 97.134379 
L 80.066911 88.826176 
L 80.357616 93.039712 
L 80.648322 89.228778 
L 80.939028 95.550311 
L 81.229733 93.263468 
L 81.520439 98.276756 
L 81.811145 96.748971 
L 82.10185 91.882363 
L 82.392556 91.312314 
L 82.683262 87.19041 
L 82.973967 97.901128 
L 83.264673 92.49718 
L 83.555379 91.043631 
L 83.846084 90.269783 
L 84.13679 95.036568 
L 84.427496 87.539734 
L 84.718201 85.837339 
L 85.008907 91.120194 
L 85.299613 86.778005 
L 85.590318 90.344209 
L 85.881024 90.833688 
L 86.17173 96.984423 
L 86.462435 93.772453 
L 86.753141 87.466937 
L 87.043847 100.218299 
L 87.334552 93.222836 
L 87.625258 95.804626 
L 87.915964 97.383258 
L 88.206669 97.937733 
L 88.497375 89.736897 
L 88.788081 90.706327 
L 89.078786 88.792832 
L 89.369492 89.809719 
L 89.660198 92.911968 
L 89.950903 91.591225 
L 90.241609 84.376628 
L 90.82302 95.258412 
L 91.113726 89.009574 
L 91.404432 100.391047 
L 91.695137 91.838487 
L 91.985843 92.308513 
L 92.276549 89.834536 
L 92.567254 96.108726 
L 92.85796 93.188683 
L 93.148666 93.514971 
L 93.439371 93.245853 
L 93.730077 95.437026 
L 94.020783 86.611909 
L 94.602194 96.198986 
L 94.8929 86.701859 
L 95.183605 93.202301 
L 95.474311 91.522629 
L 95.765017 87.806797 
L 96.055722 92.496929 
L 96.346428 89.951587 
L 96.637134 95.603828 
L 96.927839 90.951405 
L 97.218545 88.234038 
L 97.509251 93.040714 
L 97.799956 91.874235 
L 98.090662 92.357718 
L 98.381368 93.775805 
L 98.672073 93.60114 
L 98.962779 95.999967 
L 99.54419 88.159297 
L 99.834896 90.558299 
L 100.416307 93.844868 
L 100.707013 93.885648 
L 100.997719 95.120289 
L 101.288424 87.990375 
L 102.160541 93.830864 
L 102.451247 90.94651 
L 102.741953 94.035029 
L 103.032658 94.418272 
L 103.323364 95.400778 
L 103.61407 93.207189 
L 103.904775 93.638326 
L 104.195481 87.078913 
L 104.486187 94.986405 
L 104.776892 89.721782 
L 105.067598 90.387772 
L 105.358304 87.785743 
L 105.649009 97.676775 
L 105.939715 93.333466 
L 106.230421 87.215262 
L 106.521126 88.517972 
L 106.811832 88.057867 
L 107.102538 97.001346 
L 107.393243 92.160784 
L 107.683949 93.540029 
L 107.974655 95.607665 
L 108.556066 90.343958 
L 108.846772 93.08069 
L 109.137477 89.998806 
L 109.428183 91.19543 
L 109.718889 90.847612 
L 110.009594 88.590716 
L 110.3003 93.9306 
L 110.591006 90.075926 
L 110.881711 94.171757 
L 111.172417 94.532521 
L 111.463123 85.735921 
L 111.753828 92.981347 
L 112.044534 93.715127 
L 112.335239 89.047718 
L 112.625945 90.514056 
L 112.916651 87.662368 
L 113.207356 96.301465 
L 113.498062 93.21557 
L 113.788768 92.043516 
L 114.079473 93.01506 
L 114.370179 91.656154 
L 114.660885 94.086675 
L 114.95159 93.034271 
L 115.242296 89.336078 
L 115.533002 92.886527 
L 115.823707 91.695896 
L 116.114413 95.138709 
L 116.405119 91.235625 
L 116.695824 93.440694 
L 116.98653 92.958403 
L 117.277236 88.833314 
L 117.567941 93.359734 
L 117.858647 95.831428 
L 118.149353 89.354616 
L 118.440058 90.334117 
L 118.730764 90.910386 
L 119.02147 89.822653 
L 119.312175 93.646346 
L 119.602881 92.477056 
L 119.893587 92.003392 
L 120.184292 91.796591 
L 120.474998 93.068837 
L 120.765704 90.974767 
L 121.056409 95.703739 
L 121.347115 92.874676 
L 121.637821 91.642147 
L 121.928526 89.917772 
L 122.509938 94.138448 
L 122.800643 89.395814 
L 123.091349 91.824806 
L 123.382055 84.924423 
L 123.963466 92.289502 
L 124.254172 92.880049 
L 124.544877 90.828447 
L 124.835583 87.727723 
L 125.126289 90.921586 
L 125.416994 90.401459 
L 125.7077 95.247266 
L 125.998406 95.750764 
L 126.289111 89.712667 
L 126.579817 92.07742 
L 126.870523 90.121367 
L 127.161228 95.628735 
L 127.451934 91.903832 
L 127.74264 95.566514 
L 128.033345 88.4613 
L 128.324051 93.311134 
L 128.614757 90.853363 
L 128.905462 89.804436 
L 129.196168 92.223988 
L 129.486874 89.46164 
L 129.777579 95.905976 
L 130.068285 92.736651 
L 130.358991 93.085578 
L 131.231108 88.86226 
L 131.521813 94.009823 
L 131.812519 94.221209 
L 132.103225 93.352912 
L 132.39393 91.581396 
L 132.684636 92.855568 
L 132.975342 87.179461 
L 133.266047 92.700315 
L 133.556753 90.942406 
L 133.847459 93.506907 
L 134.138164 90.886382 
L 134.42887 93.226699 
L 134.719576 91.817539 
L 135.010281 88.639019 
L 135.300987 93.36159 
L 135.591693 91.370748 
L 135.882398 85.610426 
L 136.173104 91.409907 
L 136.46381 94.268368 
L 136.754515 93.445798 
L 137.045221 89.191649 
L 137.335927 89.67584 
L 137.626632 90.889796 
L 137.917338 95.641942 
L 138.208044 87.995344 
L 138.498749 93.846128 
L 138.789455 92.211589 
L 139.080161 94.378945 
L 139.370866 89.606007 
L 139.952278 91.7741 
L 140.242983 90.922236 
L 140.533689 91.279311 
L 140.824395 93.213505 
L 141.1151 89.928643 
L 141.405806 95.27168 
L 141.696512 91.37592 
L 141.987217 95.008995 
L 142.277923 93.178081 
L 142.568629 93.20896 
L 142.859334 94.122035 
L 143.15004 89.661539 
L 143.440746 93.743455 
L 143.731451 94.715642 
L 144.022157 92.207793 
L 144.312863 93.363183 
L 144.603568 93.621398 
L 145.18498 88.038641 
L 145.475685 93.243832 
L 145.766391 90.183815 
L 146.057097 93.018272 
L 146.347802 93.507373 
L 146.638508 91.770843 
L 146.929214 91.030829 
L 147.219919 94.395432 
L 147.510625 92.345328 
L 147.801331 89.392989 
L 148.382742 92.367028 
L 148.673448 87.885687 
L 148.964153 91.76091 
L 149.254859 90.960267 
L 149.545565 94.730085 
L 149.83627 90.047109 
L 150.126976 90.519942 
L 150.417682 93.518085 
L 150.708387 93.360466 
L 150.999093 94.280001 
L 151.289799 93.317352 
L 151.580504 90.545879 
L 151.87121 91.124092 
L 152.161916 95.572567 
L 152.452621 88.717919 
L 152.743327 94.38523 
L 153.034033 94.545548 
L 153.324738 95.083472 
L 153.90615 91.148284 
L 154.487561 94.538418 
L 154.778267 95.050282 
L 155.068972 92.659988 
L 155.359678 91.41972 
L 155.650384 93.826998 
L 155.941089 90.918772 
L 156.231795 91.580857 
L 156.5225 93.968969 
L 156.813206 90.358518 
L 157.103912 92.201568 
L 157.394617 91.371485 
L 157.685323 85.390937 
L 157.976029 93.166065 
L 158.266734 92.164548 
L 158.55744 94.085463 
L 158.848146 94.131986 
L 159.138851 89.315053 
L 159.429557 93.257084 
L 159.720263 90.230108 
L 160.010968 90.799896 
L 160.301674 88.844883 
L 160.59238 89.775198 
L 160.883085 89.983092 
L 161.173791 92.120013 
L 161.464497 91.25737 
L 161.755202 93.85165 
L 162.045908 93.284917 
L 162.336614 94.601248 
L 162.627319 93.816148 
L 162.918025 91.389519 
L 163.208731 92.889798 
L 163.499436 91.417534 
L 163.790142 91.625181 
L 164.080848 93.030365 
L 164.371553 90.970918 
L 164.662259 91.121911 
L 165.24367 93.740661 
L 165.534376 93.676355 
L 165.825082 92.102454 
L 166.115787 91.221942 
L 166.406493 94.442453 
L 166.697199 93.86778 
L 166.987904 91.472628 
L 167.27861 91.085917 
L 167.569316 93.075486 
L 167.860021 90.79077 
L 168.150727 93.648786 
L 168.441433 88.982538 
L 168.732138 92.455926 
L 169.022844 93.019448 
L 169.31355 89.253035 
L 169.604255 87.945885 
L 169.894961 93.144369 
L 170.185667 89.582385 
L 170.476372 91.334347 
L 171.057784 90.879755 
L 171.348489 93.474611 
L 171.639195 92.372334 
L 171.929901 93.979668 
L 172.220606 92.960025 
L 172.511312 89.595981 
L 172.802018 93.612691 
L 173.092723 93.689248 
L 173.383429 94.763364 
L 173.674135 92.772361 
L 173.96484 93.120504 
L 174.255546 92.04764 
L 174.546252 92.800035 
L 174.836957 88.966996 
L 175.418369 90.472455 
L 175.709074 92.916413 
L 175.99978 91.361514 
L 176.290486 88.694002 
L 176.581191 93.226179 
L 176.871897 91.265026 
L 177.162603 88.324674 
L 177.453308 91.772644 
L 177.744014 91.529728 
L 178.03472 94.224502 
L 178.325425 90.244516 
L 178.906837 93.994186 
L 179.197542 92.463558 
L 179.488248 94.606364 
L 179.778954 91.176891 
L 180.069659 92.748704 
L 180.360365 92.707915 
L 180.651071 93.57853 
L 180.941776 91.799244 
L 181.232482 93.721223 
L 181.523188 92.372016 
L 181.813893 90.4667 
L 182.104599 90.698441 
L 182.395305 93.054333 
L 182.68601 90.802259 
L 182.976716 92.06427 
L 183.267422 91.152599 
L 183.558127 91.714984 
L 183.848833 90.044845 
L 184.139539 90.129972 
L 184.430244 92.000154 
L 184.72095 91.981555 
L 185.011656 92.36735 
L 185.302361 94.088984 
L 185.593067 92.656272 
L 185.883773 92.922697 
L 186.174478 95.101428 
L 186.465184 90.295926 
L 186.75589 91.194769 
L 187.046595 93.496343 
L 187.337301 89.97523 
L 187.628007 95.100009 
L 187.918712 91.866653 
L 188.209418 92.585642 
L 188.500124 88.826149 
L 188.790829 92.382876 
L 189.081535 90.822299 
L 189.372241 93.325556 
L 189.662946 91.634094 
L 189.953652 93.790053 
L 190.244358 92.737017 
L 190.535063 92.194278 
L 190.825769 93.029234 
L 191.116475 88.686647 
L 191.40718 93.295613 
L 191.697886 92.240127 
L 191.988592 94.181532 
L 192.279297 90.736008 
L 192.570003 91.911969 
L 192.860709 91.720375 
L 193.151414 90.199077 
L 193.44212 93.050348 
L 193.732826 91.535377 
L 194.023531 91.249253 
L 194.314237 93.380346 
L 194.604943 93.61489 
L 194.895648 91.458503 
L 195.186354 93.876517 
L 195.47706 91.05161 
L 195.767765 93.442789 
L 196.058471 92.354984 
L 196.349177 92.757324 
L 196.639882 95.103283 
L 196.930588 89.998494 
L 197.511999 93.495023 
L 198.093411 92.416263 
L 198.384116 88.804297 
L 198.674822 93.727134 
L 198.965528 92.76544 
L 199.256233 95.248262 
L 199.546939 92.490325 
L 199.837645 92.926694 
L 200.12835 92.33909 
L 200.419056 91.307161 
L 200.709761 91.598079 
L 201.000467 92.909703 
L 201.291173 89.985316 
L 201.872584 92.965536 
L 202.16329 88.310896 
L 202.744701 92.645462 
L 203.035407 90.815015 
L 203.326112 92.800081 
L 203.616818 91.436744 
L 203.907524 90.609586 
L 204.198229 90.755572 
L 204.488935 91.066394 
L 204.779641 92.355331 
L 205.070346 92.564443 
L 205.361052 89.462527 
L 205.651758 93.938263 
L 206.233169 91.371548 
L 206.523875 93.038076 
L 206.81458 92.63262 
L 207.105286 92.034426 
L 207.395992 92.648611 
L 207.686697 90.559515 
L 207.977403 90.04858 
L 208.268109 92.40885 
L 208.558814 90.01939 
L 208.84952 94.039477 
L 209.140226 91.654467 
L 209.430931 92.525626 
L 209.721637 91.79658 
L 210.012343 89.146908 
L 210.303048 89.598323 
L 210.88446 91.397436 
L 211.175165 89.86977 
L 211.465871 90.103333 
L 211.756577 93.727994 
L 212.047282 91.858675 
L 212.337988 92.297979 
L 212.919399 90.895263 
L 213.210105 90.601813 
L 213.500811 93.896092 
L 213.791516 90.276186 
L 214.082222 91.928006 
L 214.372928 90.246471 
L 214.954339 92.595137 
L 215.245045 92.015148 
L 215.53575 92.681171 
L 215.826456 92.443803 
L 216.117162 91.928655 
L 216.407867 91.769972 
L 216.698573 92.200866 
L 216.989279 90.889457 
L 217.279984 91.615582 
L 217.57069 90.739172 
L 217.861396 92.284223 
L 218.152101 91.077777 
L 218.442807 91.16254 
L 218.733513 92.956711 
L 219.024218 92.122168 
L 219.314924 94.019031 
L 219.60563 94.2802 
L 219.896335 90.806302 
L 220.187041 91.909357 
L 220.768452 91.498055 
L 221.059158 92.488418 
L 221.349864 91.135002 
L 221.640569 92.535261 
L 221.931275 91.267983 
L 222.512686 93.047531 
L 222.803392 92.483986 
L 223.094098 89.321359 
L 223.384803 91.696566 
L 223.966215 91.2828 
L 224.547626 90.944835 
L 224.838332 93.809129 
L 225.129037 94.066714 
L 225.419743 92.861909 
L 225.710449 92.494303 
L 226.001154 91.134779 
L 226.582566 93.279223 
L 226.873271 88.470107 
L 227.163977 91.176231 
L 227.745388 92.802766 
L 228.036094 91.658108 
L 228.3268 92.82886 
L 228.617505 91.502407 
L 228.908211 92.890781 
L 229.198917 91.559439 
L 229.489622 92.243978 
L 229.780328 90.431169 
L 230.071034 91.857154 
L 230.361739 92.579766 
L 230.652445 92.246837 
L 230.943151 93.144652 
L 231.233856 91.919407 
L 231.524562 91.339034 
L 231.815268 90.475189 
L 232.105973 91.533357 
L 232.396679 90.90713 
L 232.687385 92.034188 
L 232.97809 92.50408 
L 233.559502 91.285163 
L 233.850207 92.107393 
L 234.431619 91.243363 
L 234.722324 94.476391 
L 235.01303 92.56268 
L 235.303736 89.540532 
L 235.594441 90.783625 
L 235.885147 91.186782 
L 236.175853 92.729825 
L 236.466558 93.024601 
L 236.757264 91.764123 
L 237.04797 91.445753 
L 237.338675 92.458401 
L 237.629381 92.742609 
L 237.920087 92.402812 
L 238.210792 91.56803 
L 238.792204 93.277071 
L 239.082909 92.959853 
L 239.373615 92.938114 
L 239.664321 92.396815 
L 240.245732 90.860722 
L 240.536438 91.311385 
L 240.827143 92.319022 
L 241.408555 90.292859 
L 241.69926 92.120913 
L 241.989966 91.489902 
L 242.280672 92.203279 
L 242.571377 90.665705 
L 242.862083 92.351616 
L 243.152789 92.85965 
L 243.443494 91.243518 
L 243.7342 92.900086 
L 244.024906 93.033689 
L 244.606317 91.868464 
L 244.897022 91.959599 
L 245.187728 91.730067 
L 245.769139 91.598796 
L 246.059845 92.221739 
L 246.350551 91.122327 
L 246.931962 92.386065 
L 247.222668 92.237372 
L 247.513373 91.378162 
L 247.804079 92.607985 
L 248.094785 92.896296 
L 248.38549 91.838464 
L 248.676196 89.907601 
L 248.966902 90.057653 
L 249.257607 91.496086 
L 249.548313 91.820849 
L 249.839019 91.281443 
L 250.129724 93.143722 
L 250.711136 93.947668 
L 251.001841 91.658341 
L 251.292547 92.336576 
L 251.583253 91.533503 
L 251.873958 93.472627 
L 252.164664 92.404369 
L 252.45537 90.859372 
L 252.746075 92.204468 
L 253.036781 92.413904 
L 253.327487 93.108761 
L 253.908898 90.691456 
L 254.199604 91.830124 
L 254.490309 90.502976 
L 255.071721 92.941038 
L 255.362426 92.028937 
L 255.653132 91.886812 
L 255.943838 92.604079 
L 256.234543 92.493491 
L 256.525249 91.185348 
L 256.815955 91.761406 
L 257.10666 93.700002 
L 257.397366 93.454588 
L 257.688072 90.96687 
L 257.978777 90.885046 
L 258.269483 93.302957 
L 258.560189 91.989171 
L 258.850894 93.503117 
L 259.432306 90.905207 
L 260.013717 90.658338 
L 260.304423 92.518241 
L 260.595128 92.60614 
L 260.885834 90.373018 
L 261.17654 91.224079 
L 261.467245 91.314773 
L 261.757951 90.836374 
L 262.339362 92.613291 
L 262.630068 93.362876 
L 262.920774 90.963301 
L 263.211479 92.326566 
L 263.502185 92.119527 
L 263.792891 92.839585 
L 264.083596 92.464311 
L 264.374302 92.507936 
L 264.955713 90.540103 
L 265.246419 92.959806 
L 265.537125 92.014835 
L 265.82783 90.463299 
L 266.118536 91.762967 
L 266.409242 90.855918 
L 266.699947 91.578824 
L 266.990653 93.130178 
L 267.281359 91.59861 
L 267.86277 91.856067 
L 268.153476 92.630532 
L 268.444181 92.905352 
L 268.734887 91.539769 
L 269.025593 91.051084 
L 269.316298 91.674563 
L 269.607004 91.201192 
L 269.89771 91.931002 
L 270.188415 90.485382 
L 270.479121 90.72572 
L 270.769827 93.12529 
L 271.351238 90.452704 
L 271.641944 92.946244 
L 271.932649 90.780693 
L 272.514061 92.430323 
L 272.804766 91.439147 
L 273.095472 93.420775 
L 273.386178 92.673265 
L 273.676883 91.191195 
L 273.967589 91.384379 
L 274.258295 92.615048 
L 274.549 91.202625 
L 274.839706 91.801064 
L 275.130412 91.810575 
L 275.421117 91.554238 
L 275.711823 91.72022 
L 276.002529 92.434698 
L 276.293234 91.574527 
L 276.58394 91.725762 
L 276.874646 91.37368 
L 277.165351 91.843302 
L 277.456057 91.209632 
L 277.746763 92.414809 
L 278.037468 91.844106 
L 278.328174 91.650508 
L 278.61888 92.000012 
L 278.909585 92.061307 
L 279.200291 91.327905 
L 279.490997 92.069509 
L 279.781702 90.179372 
L 280.072408 90.515826 
L 280.363114 91.740323 
L 280.944525 90.820488 
L 281.235231 90.689277 
L 281.525936 91.850745 
L 282.107348 91.054228 
L 282.398053 91.832433 
L 282.688759 91.007854 
L 282.979465 91.506347 
L 283.27017 92.249831 
L 283.560876 90.802705 
L 283.851582 91.307581 
L 284.142287 90.783775 
L 284.432993 90.95164 
L 284.723699 92.325719 
L 285.014404 91.047815 
L 285.30511 91.309669 
L 285.595816 91.755276 
L 285.886521 93.715613 
L 286.467933 91.278505 
L 286.758638 91.308169 
L 287.049344 90.914 
L 287.34005 91.797528 
L 287.630755 90.940034 
L 287.921461 90.904251 
L 288.502872 91.922031 
L 288.793578 91.906742 
L 289.084283 92.249228 
L 289.374989 92.061659 
L 289.665695 92.211644 
L 289.9564 91.995935 
L 290.247106 93.391644 
L 290.537812 91.996088 
L 290.828517 91.341324 
L 291.119223 91.843276 
L 291.409929 91.171147 
L 291.700634 91.329901 
L 291.99134 91.10897 
L 292.572751 92.080489 
L 293.154163 90.596532 
L 293.444868 91.254699 
L 293.735574 91.607333 
L 294.02628 90.395116 
L 294.316985 91.784346 
L 294.607691 91.341461 
L 294.898397 91.257219 
L 295.479808 92.697105 
L 295.770514 91.877474 
L 296.061219 91.701013 
L 296.351925 93.208073 
L 296.642631 90.927348 
L 296.933336 91.379147 
L 297.224042 90.901421 
L 297.514748 92.373935 
L 297.805453 91.019785 
L 298.096159 92.047592 
L 298.386865 92.126439 
L 298.67757 91.592637 
L 298.968276 92.267676 
L 299.549687 91.522163 
L 299.840393 90.768146 
L 300.131099 93.070355 
L 300.421804 91.538498 
L 300.71251 92.015403 
L 301.003216 91.593114 
L 301.293921 92.49737 
L 301.584627 91.64564 
L 301.875333 91.987009 
L 302.166038 91.878615 
L 302.456744 91.481977 
L 303.038155 91.620475 
L 303.328861 91.229574 
L 303.619567 92.02577 
L 304.200978 91.25918 
L 304.491684 92.25732 
L 304.782389 92.051241 
L 305.073095 91.264298 
L 305.654506 92.232763 
L 306.235918 91.673996 
L 306.526623 91.889882 
L 306.817329 92.771998 
L 307.108035 91.617066 
L 307.39874 91.833472 
L 307.689446 92.707043 
L 307.980152 91.433368 
L 308.270857 92.014893 
L 308.561563 91.719995 
L 308.852269 91.128356 
L 309.142974 92.292979 
L 309.43368 91.620985 
L 309.724386 91.97991 
L 310.305797 91.436362 
L 310.596503 92.291821 
L 310.887208 92.119346 
L 311.177914 92.119472 
L 311.759325 91.735775 
L 312.050031 92.004582 
L 312.340737 91.431883 
L 312.631442 91.46043 
L 312.922148 91.815073 
L 313.212854 91.208311 
L 313.503559 91.111956 
L 313.794265 91.911606 
L 314.084971 92.169983 
L 314.375676 91.885091 
L 314.666382 91.776788 
L 314.957088 92.151712 
L 315.247793 92.227556 
L 315.538499 91.826836 
L 315.829205 92.255607 
L 316.11991 91.403143 
L 316.410616 90.925141 
L 316.701322 92.61809 
L 316.992027 91.028148 
L 317.282733 91.828671 
L 317.573439 91.467364 
L 317.864144 92.243657 
L 318.15485 91.972148 
L 318.445556 91.192995 
L 318.736261 92.231265 
L 319.026967 92.028261 
L 319.317673 92.15372 
L 319.899084 91.850782 
L 320.18979 91.959456 
L 320.480495 91.555508 
L 320.771201 93.271422 
L 321.061907 92.073831 
L 321.352612 92.250091 
L 321.643318 91.776857 
L 321.934024 91.614066 
L 322.224729 92.19722 
L 322.515435 92.244578 
L 322.806141 91.558308 
L 323.387552 92.805518 
L 323.678258 91.843138 
L 324.259669 91.366223 
L 324.550375 91.980307 
L 324.84108 91.323283 
L 325.131786 92.215701 
L 325.422492 92.289582 
L 325.713197 92.00023 
L 326.003903 92.114472 
L 326.294609 91.658424 
L 326.585314 92.090684 
L 326.87602 91.83189 
L 327.166726 91.043479 
L 327.457431 91.84151 
L 327.748137 91.938373 
L 328.038843 91.661649 
L 328.329548 92.488639 
L 328.620254 92.05798 
L 328.91096 92.448376 
L 330.073782 92.076937 
L 330.364488 91.568333 
L 330.655194 91.916387 
L 331.527311 90.640678 
L 331.818016 91.826807 
L 332.108722 91.950985 
L 332.399428 91.354599 
L 332.690133 91.577033 
L 332.980839 92.361507 
L 333.271544 91.984989 
L 333.56225 91.903426 
L 333.852956 91.672398 
L 334.143661 91.848489 
L 334.434367 91.520878 
L 334.725073 92.456548 
L 335.015778 91.262395 
L 335.306484 91.832158 
L 335.59719 91.806522 
L 335.887895 91.6624 
L 336.178601 92.151977 
L 336.469307 92.141342 
L 336.760012 92.33961 
L 337.050718 91.248332 
L 337.341424 91.753381 
L 337.632129 91.326179 
L 337.922835 91.311694 
L 338.213541 91.882427 
L 338.504246 91.851925 
L 338.794952 92.218174 
L 339.085658 91.744178 
L 339.376363 91.599562 
L 339.376363 91.599562 
" style="fill:none;stroke:#1f77b4;stroke-linecap:round;stroke-width:1.5;"/>
   </g>
  </g>
 </g>
 <defs>
  <clipPath id="p895c2b9039">
   <rect height="156.211983" width="290.414959" x="48.961405" y="12.96"/>
  </clipPath>
 </defs>
</svg>
