<?xml version="1.0" encoding="utf-8" standalone="no"?>
<!DOCTYPE svg PUBLIC "-//W3C//DTD SVG 1.1//EN"
  "http://www.w3.org/Graphics/SVG/1.1/DTD/svg11.dtd">
<svg height="192pt" version="1.1" viewBox="0 0 504 192" width="504pt" xmlns="http://www.w3.org/2000/svg" xmlns:xlink="http://www.w3.org/1999/xlink">
 <metadata>
  <rdf:RDF xmlns:cc="http://creativecommons.org/ns#" xmlns:dc="http://purl.org/dc/elements/1.1/" xmlns:rdf="http://www.w3.org/1999/02/22-rdf-syntax-ns#">
   <cc:Work>
    <dc:type rdf:resource="http://purl.org/dc/dcmitype/StillImage"/>
    <dc:date>2021-08-10T20:49:30.642688</dc:date>
    <dc:format>image/svg+xml</dc:format>
    <dc:creator>
     <cc:Agent>
      <dc:title>Matplotlib v3.4.2, https://matplotlib.org/</dc:title>
     </cc:Agent>
    </dc:creator>
   </cc:Work>
  </rdf:RDF>
 </metadata>
 <defs>
  <style type="text/css">*{stroke-linecap:butt;stroke-linejoin:round;}</style>
 </defs>
 <g id="figure_1">
  <g id="patch_1">
   <path d="M 0 192 
L 504 192 
L 504 0 
L 0 0 
z
" style="fill:none;"/>
  </g>
  <g id="axes_1">
   <g id="patch_2">
    <path d="M 51.911387 145.171983 
L 177.978361 145.171983 
L 177.978361 40.22218 
L 51.911387 40.22218 
z
" style="fill:none;opacity:0;"/>
   </g>
   <g id="matplotlib.axis_1">
    <g id="xtick_1">
     <g id="line2d_1">
      <path clip-path="url(#p9c91d1299f)" d="M 51.911387 145.171983 
L 51.911387 40.22218 
" style="fill:none;stroke:#ffffff;stroke-linecap:round;"/>
     </g>
     <g id="text_1">
      <!-- $\mathdefault{0.0}$ -->
      <g style="fill:#262626;" transform="translate(44.909849 162.28233)scale(0.11 -0.11)">
       <defs>
        <path d="M 2688 2025 
C 2688 2416 2682 3080 2413 3591 
C 2176 4039 1798 4198 1466 4198 
C 1158 4198 768 4058 525 3597 
C 269 3118 243 2524 243 2025 
C 243 1661 250 1106 448 619 
C 723 -39 1216 -128 1466 -128 
C 1760 -128 2208 -7 2470 600 
C 2662 1042 2688 1559 2688 2025 
z
M 1466 -26 
C 1056 -26 813 325 723 812 
C 653 1188 653 1738 653 2096 
C 653 2588 653 2997 736 3387 
C 858 3929 1216 4096 1466 4096 
C 1728 4096 2067 3923 2189 3400 
C 2272 3036 2278 2607 2278 2096 
C 2278 1680 2278 1169 2202 792 
C 2067 95 1690 -26 1466 -26 
z
" id="CMR17-30" transform="scale(0.015625)"/>
        <path d="M 1178 307 
C 1178 492 1024 619 870 619 
C 685 619 557 466 557 313 
C 557 128 710 0 864 0 
C 1050 0 1178 153 1178 307 
z
" id="CMMI12-3a" transform="scale(0.015625)"/>
       </defs>
       <use transform="scale(0.996264)" xlink:href="#CMR17-30"/>
       <use transform="translate(45.690477 0)scale(0.996264)" xlink:href="#CMMI12-3a"/>
       <use transform="translate(72.787654 0)scale(0.996264)" xlink:href="#CMR17-30"/>
      </g>
     </g>
    </g>
    <g id="xtick_2">
     <g id="line2d_2">
      <path clip-path="url(#p9c91d1299f)" d="M 114.944874 145.171983 
L 114.944874 40.22218 
" style="fill:none;stroke:#ffffff;stroke-linecap:round;"/>
     </g>
     <g id="text_2">
      <!-- $\mathdefault{0.5}$ -->
      <g style="fill:#262626;" transform="translate(107.943336 162.28233)scale(0.11 -0.11)">
       <defs>
        <path d="M 730 3692 
C 794 3666 1056 3584 1325 3584 
C 1920 3584 2246 3911 2432 4100 
C 2432 4157 2432 4192 2394 4192 
C 2387 4192 2374 4192 2323 4163 
C 2099 4058 1837 3973 1517 3973 
C 1325 3973 1037 3999 723 4139 
C 653 4171 640 4171 634 4171 
C 602 4171 595 4164 595 4037 
L 595 2203 
C 595 2089 595 2057 659 2057 
C 691 2057 704 2070 736 2114 
C 941 2401 1222 2522 1542 2522 
C 1766 2522 2246 2382 2246 1289 
C 2246 1085 2246 715 2054 421 
C 1894 159 1645 25 1370 25 
C 947 25 518 320 403 814 
C 429 807 480 795 506 795 
C 589 795 749 840 749 1038 
C 749 1210 627 1280 506 1280 
C 358 1280 262 1190 262 1011 
C 262 454 704 -128 1382 -128 
C 2042 -128 2669 440 2669 1264 
C 2669 2030 2170 2624 1549 2624 
C 1222 2624 947 2503 730 2274 
L 730 3692 
z
" id="CMR17-35" transform="scale(0.015625)"/>
       </defs>
       <use transform="scale(0.996264)" xlink:href="#CMR17-30"/>
       <use transform="translate(45.690477 0)scale(0.996264)" xlink:href="#CMMI12-3a"/>
       <use transform="translate(72.787654 0)scale(0.996264)" xlink:href="#CMR17-35"/>
      </g>
     </g>
    </g>
    <g id="xtick_3">
     <g id="line2d_3">
      <path clip-path="url(#p9c91d1299f)" d="M 177.978361 145.171983 
L 177.978361 40.22218 
" style="fill:none;stroke:#ffffff;stroke-linecap:round;"/>
     </g>
     <g id="text_3">
      <!-- $\mathdefault{1.0}$ -->
      <g style="fill:#262626;" transform="translate(170.976823 162.28233)scale(0.11 -0.11)">
       <defs>
        <path d="M 1702 4058 
C 1702 4192 1696 4192 1606 4192 
C 1357 3916 979 3827 621 3827 
C 602 3827 570 3827 563 3808 
C 557 3795 557 3782 557 3648 
C 755 3648 1088 3686 1344 3839 
L 1344 461 
C 1344 236 1331 160 781 160 
L 589 160 
L 589 0 
C 896 0 1216 0 1523 0 
C 1830 0 2150 0 2458 0 
L 2458 160 
L 2266 160 
C 1715 160 1702 230 1702 458 
L 1702 4058 
z
" id="CMR17-31" transform="scale(0.015625)"/>
       </defs>
       <use transform="scale(0.996264)" xlink:href="#CMR17-31"/>
       <use transform="translate(45.690477 0)scale(0.996264)" xlink:href="#CMMI12-3a"/>
       <use transform="translate(72.787654 0)scale(0.996264)" xlink:href="#CMR17-30"/>
      </g>
     </g>
    </g>
    <g id="text_4">
     <!-- $u_1$ -->
     <g style="fill:#262626;" transform="translate(109.496563 176.715404)scale(0.12 -0.12)">
      <defs>
       <path d="M 2182 370 
C 2266 13 2573 -64 2726 -64 
C 2931 -64 3085 70 3187 287 
C 3296 517 3379 894 3379 913 
C 3379 945 3354 971 3315 971 
C 3258 971 3251 939 3226 843 
C 3110 402 2995 64 2739 64 
C 2547 64 2547 275 2547 358 
C 2547 505 2566 568 2630 837 
C 2675 1009 2720 1181 2758 1360 
L 3021 2401 
C 3066 2561 3066 2574 3066 2593 
C 3066 2689 2989 2753 2893 2753 
C 2707 2753 2662 2593 2624 2433 
C 2560 2184 2214 811 2170 588 
C 2163 588 1914 64 1446 64 
C 1114 64 1050 351 1050 588 
C 1050 952 1229 1462 1395 1890 
C 1472 2095 1504 2178 1504 2305 
C 1504 2580 1306 2816 998 2816 
C 410 2816 173 1890 173 1839 
C 173 1814 198 1782 243 1782 
C 301 1782 307 1807 333 1896 
C 486 2441 736 2682 979 2682 
C 1043 2682 1146 2682 1146 2478 
C 1146 2312 1075 2127 979 1884 
C 698 1124 666 881 666 690 
C 666 38 1158 -64 1421 -64 
C 1830 -64 2054 217 2182 370 
z
" id="CMMI12-75" transform="scale(0.015625)"/>
      </defs>
      <use transform="scale(0.996264)" xlink:href="#CMMI12-75"/>
      <use transform="translate(55.52033 -14.943915)scale(0.697382)" xlink:href="#CMR17-31"/>
     </g>
    </g>
   </g>
   <g id="matplotlib.axis_2">
    <g id="ytick_1">
     <g id="line2d_4">
      <path clip-path="url(#p9c91d1299f)" d="M 51.911387 145.171983 
L 177.978361 145.171983 
" style="fill:none;stroke:#ffffff;stroke-linecap:round;"/>
     </g>
     <g id="text_5">
      <!-- $\mathdefault{0.00}$ -->
      <g style="fill:#262626;" transform="translate(22.928844 148.977156)scale(0.11 -0.11)">
       <use transform="scale(0.996264)" xlink:href="#CMR17-30"/>
       <use transform="translate(45.690477 0)scale(0.996264)" xlink:href="#CMMI12-3a"/>
       <use transform="translate(72.787654 0)scale(0.996264)" xlink:href="#CMR17-30"/>
       <use transform="translate(118.478131 0)scale(0.996264)" xlink:href="#CMR17-30"/>
      </g>
     </g>
    </g>
    <g id="ytick_2">
     <g id="line2d_5">
      <path clip-path="url(#p9c91d1299f)" d="M 51.911387 118.934532 
L 177.978361 118.934532 
" style="fill:none;stroke:#ffffff;stroke-linecap:round;"/>
     </g>
     <g id="text_6">
      <!-- $\mathdefault{0.25}$ -->
      <g style="fill:#262626;" transform="translate(22.928844 122.739706)scale(0.11 -0.11)">
       <defs>
        <path d="M 2669 989 
L 2554 989 
C 2490 536 2438 459 2413 420 
C 2381 369 1920 369 1830 369 
L 602 369 
C 832 619 1280 1072 1824 1597 
C 2214 1967 2669 2402 2669 3035 
C 2669 3790 2067 4224 1395 4224 
C 691 4224 262 3604 262 3030 
C 262 2780 448 2748 525 2748 
C 589 2748 781 2787 781 3010 
C 781 3207 614 3264 525 3264 
C 486 3264 448 3258 422 3245 
C 544 3790 915 4058 1306 4058 
C 1862 4058 2227 3617 2227 3035 
C 2227 2479 1901 2000 1536 1584 
L 262 146 
L 262 0 
L 2515 0 
L 2669 989 
z
" id="CMR17-32" transform="scale(0.015625)"/>
       </defs>
       <use transform="scale(0.996264)" xlink:href="#CMR17-30"/>
       <use transform="translate(45.690477 0)scale(0.996264)" xlink:href="#CMMI12-3a"/>
       <use transform="translate(72.787654 0)scale(0.996264)" xlink:href="#CMR17-32"/>
       <use transform="translate(118.478131 0)scale(0.996264)" xlink:href="#CMR17-35"/>
      </g>
     </g>
    </g>
    <g id="ytick_3">
     <g id="line2d_6">
      <path clip-path="url(#p9c91d1299f)" d="M 51.911387 92.697081 
L 177.978361 92.697081 
" style="fill:none;stroke:#ffffff;stroke-linecap:round;"/>
     </g>
     <g id="text_7">
      <!-- $\mathdefault{0.50}$ -->
      <g style="fill:#262626;" transform="translate(22.928844 96.502255)scale(0.11 -0.11)">
       <use transform="scale(0.996264)" xlink:href="#CMR17-30"/>
       <use transform="translate(45.690477 0)scale(0.996264)" xlink:href="#CMMI12-3a"/>
       <use transform="translate(72.787654 0)scale(0.996264)" xlink:href="#CMR17-35"/>
       <use transform="translate(118.478131 0)scale(0.996264)" xlink:href="#CMR17-30"/>
      </g>
     </g>
    </g>
    <g id="ytick_4">
     <g id="line2d_7">
      <path clip-path="url(#p9c91d1299f)" d="M 51.911387 66.459631 
L 177.978361 66.459631 
" style="fill:none;stroke:#ffffff;stroke-linecap:round;"/>
     </g>
     <g id="text_8">
      <!-- $\mathdefault{0.75}$ -->
      <g style="fill:#262626;" transform="translate(22.928844 70.264804)scale(0.11 -0.11)">
       <defs>
        <path d="M 2886 3941 
L 2886 4081 
L 1382 4081 
C 634 4081 621 4165 595 4288 
L 480 4288 
L 294 3094 
L 410 3094 
C 429 3215 474 3540 550 3661 
C 589 3712 1062 3712 1171 3712 
L 2579 3712 
L 1869 2661 
C 1395 1954 1069 999 1069 165 
C 1069 89 1069 -128 1299 -128 
C 1530 -128 1530 89 1530 171 
L 1530 465 
C 1530 1508 1709 2196 2003 2636 
L 2886 3941 
z
" id="CMR17-37" transform="scale(0.015625)"/>
       </defs>
       <use transform="scale(0.996264)" xlink:href="#CMR17-30"/>
       <use transform="translate(45.690477 0)scale(0.996264)" xlink:href="#CMMI12-3a"/>
       <use transform="translate(72.787654 0)scale(0.996264)" xlink:href="#CMR17-37"/>
       <use transform="translate(118.478131 0)scale(0.996264)" xlink:href="#CMR17-35"/>
      </g>
     </g>
    </g>
    <g id="ytick_5">
     <g id="line2d_8">
      <path clip-path="url(#p9c91d1299f)" d="M 51.911387 40.22218 
L 177.978361 40.22218 
" style="fill:none;stroke:#ffffff;stroke-linecap:round;"/>
     </g>
     <g id="text_9">
      <!-- $\mathdefault{1.00}$ -->
      <g style="fill:#262626;" transform="translate(22.928844 44.027353)scale(0.11 -0.11)">
       <use transform="scale(0.996264)" xlink:href="#CMR17-31"/>
       <use transform="translate(45.690477 0)scale(0.996264)" xlink:href="#CMMI12-3a"/>
       <use transform="translate(72.787654 0)scale(0.996264)" xlink:href="#CMR17-30"/>
       <use transform="translate(118.478131 0)scale(0.996264)" xlink:href="#CMR17-30"/>
      </g>
     </g>
    </g>
    <g id="text_10">
     <!-- $u_2$ -->
     <g style="fill:#262626;" transform="translate(7.480533 90.372486)scale(0.12 -0.12)">
      <use transform="scale(0.996264)" xlink:href="#CMMI12-75"/>
      <use transform="translate(55.52033 -14.943915)scale(0.697382)" xlink:href="#CMR17-32"/>
     </g>
    </g>
   </g>
   <g id="LineCollection_1">
    <path clip-path="url(#p9c91d1299f)" d="M 52.896286 145.169241 
L 86.382826 145.023888 
L 99.186503 144.767351 
L 107.065689 144.421807 
L 114.944874 143.84129 
L 121.839162 143.082025 
L 127.748551 142.182039 
L 133.256593 141.072381 
L 137.597534 139.978168 
L 141.981985 138.61262 
L 145.47672 137.308089 
L 149.416313 135.540003 
L 152.371007 133.966895 
L 155.433344 132.053258 
L 158.280397 129.965064 
L 160.627635 127.953656 
L 163.083299 125.493895 
L 164.518674 123.854054 
L 166.40831 121.394293 
L 168.129379 118.779511 
L 169.449635 116.474771 
L 171.084074 113.095965 
L 172.371565 109.915409 
L 173.47382 106.635727 
L 174.589629 102.536126 
L 175.467879 98.436524 
L 176.268443 93.517002 
L 176.848624 88.59748 
L 177.317353 82.858037 
L 177.647184 75.478754 
L 177.859184 64.81979 
L 177.966602 45.961622 
L 177.975067 41.0421 
L 176.993463 40.224922 
L 143.506923 40.370275 
L 130.703246 40.626812 
L 122.82406 40.972356 
L 114.944874 41.552873 
L 108.050587 42.312138 
L 102.141197 43.212124 
L 96.633155 44.321782 
L 92.292215 45.415995 
L 87.907763 46.781543 
L 84.413029 48.086074 
L 80.473436 49.85416 
L 77.518742 51.427268 
L 74.456405 53.340905 
L 71.609352 55.429099 
L 69.262114 57.440507 
L 66.80645 59.900268 
L 65.371075 61.540109 
L 63.481439 63.99987 
L 61.76037 66.614652 
L 60.440114 68.919392 
L 58.805675 72.298197 
L 57.518184 75.478754 
L 56.415929 78.758436 
L 55.300119 82.858037 
L 54.42187 86.957639 
L 53.621306 91.877161 
L 53.041125 96.796683 
L 52.572396 102.536126 
L 52.242565 109.915409 
L 52.030565 120.574373 
L 51.923146 139.432541 
L 51.914682 144.352063 
L 52.896286 145.169241 
L 52.896286 145.169241 
" style="fill:none;stroke:#cfe1f2;stroke-width:1.5;"/>
   </g>
   <g id="LineCollection_2">
    <path clip-path="url(#p9c91d1299f)" d="M 52.896286 145.162107 
L 74.564047 144.974227 
L 85.397927 144.67918 
L 92.292215 144.310517 
L 100.171401 143.504352 
L 106.08079 142.626643 
L 111.99018 141.472581 
L 116.985234 140.252461 
L 121.839162 138.821046 
L 125.778755 137.464359 
L 129.718348 135.914716 
L 133.657941 134.154272 
L 137.794362 132.053258 
L 141.537127 129.905389 
L 144.593424 127.953656 
L 148.431414 125.222704 
L 151.386109 122.872602 
L 154.340804 120.274475 
L 157.376836 117.294692 
L 160.346781 114.01501 
L 162.974469 110.735329 
L 165.174684 107.639302 
L 167.346352 104.175966 
L 169.147191 100.896285 
L 170.723202 97.616603 
L 172.091243 94.336922 
L 173.534595 90.23732 
L 174.712154 86.137719 
L 175.650981 82.038117 
L 176.377978 77.938515 
L 177.031896 73.018993 
L 177.43167 67.279551 
L 177.719083 59.900268 
L 177.915006 48.421383 
L 177.966498 41.0421 
L 176.993463 40.232056 
L 155.325702 40.419936 
L 144.491821 40.714983 
L 137.597534 41.083646 
L 129.718348 41.88981 
L 123.808959 42.76752 
L 117.899569 43.921582 
L 112.904515 45.141702 
L 108.050587 46.573117 
L 104.110994 47.929804 
L 100.171401 49.479447 
L 96.231808 51.239891 
L 92.095386 53.340905 
L 88.352622 55.488774 
L 85.296325 57.440507 
L 81.458334 60.171459 
L 78.50364 62.521561 
L 75.548945 65.119688 
L 72.512913 68.099471 
L 69.542968 71.379153 
L 66.91528 74.658834 
L 64.715064 77.754861 
L 62.543397 81.218197 
L 60.742558 84.497878 
L 59.166547 87.777559 
L 57.798506 91.057241 
L 56.355154 95.156842 
L 55.177595 99.256444 
L 54.238768 103.356046 
L 53.511771 107.455648 
L 52.857853 112.37517 
L 52.458078 118.114612 
L 52.170666 125.493895 
L 51.974742 136.97278 
L 51.923251 144.352063 
L 52.896286 145.162107 
L 52.896286 145.162107 
" style="fill:none;stroke:#b5d4e9;stroke-width:1.5;"/>
   </g>
   <g id="LineCollection_3">
    <path clip-path="url(#p9c91d1299f)" d="M 52.896286 145.151528 
L 69.639556 144.913288 
L 79.488538 144.544228 
L 83.428131 144.268004 
L 90.322419 143.361388 
L 95.24691 142.440813 
L 100.171401 141.269026 
L 104.110994 140.136857 
L 109.035485 138.465745 
L 113.959976 136.50595 
L 118.355467 134.513019 
L 123.172364 132.053258 
L 127.748551 129.448618 
L 132.731056 126.313815 
L 137.597534 122.937298 
L 142.522025 119.184533 
L 146.761922 115.654851 
L 150.401211 112.37517 
L 154.582582 108.275568 
L 158.377112 104.175966 
L 161.801256 100.076364 
L 164.280403 96.796683 
L 166.529187 93.517002 
L 168.551698 90.23732 
L 170.350795 86.957639 
L 172.068972 83.376983 
L 173.595263 79.578356 
L 174.697647 76.298675 
L 175.599676 73.018993 
L 176.31745 69.739312 
L 177.014181 65.63971 
L 177.44137 59.900268 
L 177.747975 52.520985 
L 177.944606 41.86202 
L 177.953791 41.0421 
L 176.993463 40.242635 
L 160.250193 40.480874 
L 150.401211 40.849935 
L 146.461618 41.126159 
L 139.56733 42.032775 
L 134.642839 42.95335 
L 129.718348 44.125137 
L 125.778755 45.257306 
L 120.854264 46.928418 
L 115.929773 48.888213 
L 111.534282 50.881144 
L 106.717385 53.340905 
L 102.141197 55.945544 
L 97.158693 59.080348 
L 92.292215 62.456865 
L 87.367724 66.20963 
L 83.127827 69.739312 
L 79.488538 73.018993 
L 75.307167 77.118595 
L 71.512637 81.218197 
L 68.088493 85.317798 
L 65.609346 88.59748 
L 63.360562 91.877161 
L 61.338051 95.156842 
L 59.538954 98.436524 
L 57.820777 102.01718 
L 56.294486 105.815807 
L 55.192102 109.095488 
L 54.290073 112.37517 
L 53.572299 115.654851 
L 52.875568 119.754453 
L 52.448379 125.493895 
L 52.141774 132.873178 
L 51.945143 143.532142 
L 51.935958 144.352063 
L 52.896286 145.151528 
L 52.896286 145.151528 
" style="fill:none;stroke:#93c4de;stroke-width:1.5;"/>
   </g>
   <g id="LineCollection_4">
    <path clip-path="url(#p9c91d1299f)" d="M 52.896286 145.139037 
L 66.684861 144.863063 
L 74.564047 144.512294 
L 77.518742 144.280382 
L 83.428131 143.328001 
L 88.352622 142.176259 
L 92.101472 141.072381 
L 97.216706 139.19306 
L 101.156299 137.485075 
L 105.53311 135.332939 
L 111.005281 132.270068 
L 114.944874 129.844693 
L 119.062041 127.133736 
L 124.86589 123.034134 
L 131.365424 118.114612 
L 137.597534 113.105545 
L 144.240884 107.455648 
L 149.699966 102.536126 
L 154.340804 98.100937 
L 158.806097 93.517002 
L 162.21999 89.726287 
L 165.805862 85.317798 
L 167.617475 82.858037 
L 169.28565 80.398276 
L 171.267621 77.118595 
L 173.05387 73.680122 
L 174.690943 69.739312 
L 175.512863 67.279551 
L 176.196768 64.81979 
L 177.035411 60.720188 
L 177.477848 54.980746 
L 177.792212 47.601463 
L 177.938786 41.0421 
L 176.993463 40.255126 
L 163.204888 40.5311 
L 155.325702 40.881869 
L 152.371007 41.113781 
L 146.461618 42.066162 
L 141.537127 43.217904 
L 137.788276 44.321782 
L 132.673043 46.201103 
L 128.73345 47.909088 
L 124.356638 50.061224 
L 118.884467 53.124095 
L 114.944874 55.54947 
L 110.827708 58.260427 
L 105.023859 62.360029 
L 98.524325 67.279551 
L 92.292215 72.288618 
L 85.648865 77.938515 
L 80.189782 82.858037 
L 75.548945 87.293226 
L 71.083651 91.877161 
L 67.669759 95.667876 
L 64.083887 100.076364 
L 62.272274 102.536126 
L 60.604099 104.995887 
L 58.622128 108.275568 
L 56.835879 111.714041 
L 55.198806 115.654851 
L 54.376886 118.114612 
L 53.692981 120.574373 
L 52.854338 124.673975 
L 52.411901 130.413417 
L 52.097537 137.7927 
L 51.950963 144.352063 
L 52.896286 145.139037 
L 52.896286 145.139037 
" style="fill:none;stroke:#6baed6;stroke-width:1.5;"/>
   </g>
   <g id="LineCollection_5">
    <path clip-path="url(#p9c91d1299f)" d="M 52.896286 145.126381 
L 64.715064 144.826578 
L 72.59425 144.408551 
L 73.579149 144.31427 
L 79.488538 143.135433 
L 82.443233 142.307226 
L 85.397927 141.293539 
L 87.99918 140.252461 
L 93.035709 137.7927 
L 98.201604 134.73308 
L 101.156299 132.776651 
L 105.595187 129.593497 
L 111.99018 124.610909 
L 119.869366 118.114559 
L 145.47672 96.796631 
L 154.340804 89.321722 
L 159.703947 84.497878 
L 163.204888 81.104948 
L 166.189383 77.938515 
L 169.114277 74.457867 
L 171.333444 71.379153 
L 173.05387 68.611973 
L 175.023667 64.582214 
L 176.311355 60.720188 
L 177.061317 57.440507 
L 177.51598 51.701065 
L 177.836062 44.321782 
L 177.923584 41.0421 
L 176.993463 40.267782 
L 165.174684 40.567585 
L 157.295499 40.985612 
L 156.3106 41.079893 
L 150.401211 42.25873 
L 147.446516 43.086937 
L 144.491821 44.100624 
L 141.890569 45.141702 
L 136.85404 47.601463 
L 131.688144 50.661083 
L 128.73345 52.617512 
L 124.294562 55.800666 
L 117.899569 60.783254 
L 110.020383 67.279604 
L 84.413029 88.597531 
L 75.548945 96.072441 
L 70.185802 100.896285 
L 66.684861 104.289215 
L 63.700365 107.455648 
L 60.775472 110.936296 
L 58.556305 114.01501 
L 56.835879 116.78219 
L 54.866082 120.811949 
L 53.578394 124.673975 
L 52.828432 127.953656 
L 52.373769 133.693098 
L 52.053687 141.072381 
L 51.966165 144.352063 
L 52.896286 145.126381 
L 52.896286 145.126381 
" style="fill:none;stroke:#4a97c9;stroke-width:1.5;"/>
   </g>
   <g id="LineCollection_6">
    <path clip-path="url(#p9c91d1299f)" d="M 52.896286 145.114672 
L 63.730166 144.783899 
L 70.929399 144.352063 
L 76.533843 143.030549 
L 78.50364 142.38267 
L 81.458334 141.19158 
L 82.443233 140.721909 
L 84.93343 139.432541 
L 88.848355 136.97278 
L 93.198995 133.693098 
L 98.787877 128.773576 
L 105.454498 122.214214 
L 116.036743 111.555249 
L 121.277488 106.635727 
L 125.987947 102.536126 
L 131.080219 98.436524 
L 136.612636 94.312963 
L 143.60802 89.4174 
L 157.295499 79.967923 
L 162.21999 76.220935 
L 165.973837 73.018993 
L 167.70398 71.379153 
L 169.302327 69.739312 
L 171.412647 67.279551 
L 173.05387 65.059261 
L 175.062005 61.540109 
L 176.322907 58.260427 
L 177.020662 55.800666 
L 177.456924 50.881144 
L 177.799525 44.321782 
L 177.909519 41.0421 
L 176.993463 40.279491 
L 166.159583 40.610264 
L 158.96035 41.0421 
L 153.355906 42.363613 
L 151.386109 43.011493 
L 148.431414 44.202583 
L 147.446516 44.672254 
L 144.956319 45.961622 
L 141.041394 48.421383 
L 136.690753 51.701065 
L 131.101872 56.620587 
L 124.435251 63.179949 
L 113.853006 73.838914 
L 108.612261 78.758436 
L 103.901802 82.858037 
L 98.80953 86.957639 
L 93.277113 91.0812 
L 86.281729 95.976763 
L 72.59425 105.426239 
L 67.669759 109.173228 
L 63.915912 112.37517 
L 62.185769 114.01501 
L 60.587422 115.654851 
L 58.477102 118.114612 
L 56.835879 120.334902 
L 54.827744 123.854054 
L 53.566842 127.133736 
L 52.869086 129.593497 
L 52.432825 134.513019 
L 52.090224 141.072381 
L 51.98023 144.352063 
L 52.896286 145.114672 
L 52.896286 145.114672 
" style="fill:none;stroke:#2e7ebb;stroke-width:1.5;"/>
   </g>
   <g id="LineCollection_7">
    <path clip-path="url(#p9c91d1299f)" d="M 52.896286 145.106166 
L 63.730166 144.7263 
L 69.639556 144.314443 
L 73.579149 143.351167 
L 76.533843 142.287559 
L 78.50364 141.395364 
L 80.473436 140.345969 
L 81.972758 139.432541 
L 85.397927 136.922707 
L 88.154258 134.513019 
L 92.128542 130.413417 
L 96.231808 125.472277 
L 99.291127 121.394293 
L 103.882275 114.834931 
L 108.962339 107.455648 
L 111.353349 104.175966 
L 113.999254 100.896285 
L 116.26589 98.436524 
L 118.008326 96.796683 
L 119.985351 95.156842 
L 122.82406 93.133662 
L 126.249379 91.057241 
L 130.703246 88.695661 
L 134.642839 86.758732 
L 152.371007 78.152177 
L 158.659426 74.658834 
L 161.331515 73.018993 
L 164.189786 71.105315 
L 167.144481 68.872447 
L 169.869943 66.459631 
L 171.084074 65.248044 
L 173.441841 62.360029 
L 174.513557 60.720188 
L 175.397852 59.080348 
L 176.130711 57.440507 
L 176.993463 54.858815 
L 177.443002 50.061224 
L 177.807327 43.501861 
L 177.899301 41.0421 
L 176.993463 40.287997 
L 166.159583 40.667862 
L 160.250193 41.07972 
L 156.3106 42.042996 
L 153.355906 43.106604 
L 151.386109 43.998799 
L 149.416313 45.048193 
L 147.916991 45.961622 
L 144.491821 48.471456 
L 141.735491 50.881144 
L 137.761207 54.980746 
L 133.657941 59.921885 
L 130.598621 63.99987 
L 126.007474 70.559232 
L 120.92741 77.938515 
L 118.5364 81.218197 
L 115.890494 84.497878 
L 113.623858 86.957639 
L 111.881423 88.59748 
L 109.904398 90.23732 
L 107.065689 92.260501 
L 103.64037 94.336922 
L 99.186503 96.698502 
L 95.24691 98.635431 
L 77.518742 107.241986 
L 71.230323 110.735329 
L 68.558234 112.37517 
L 65.699963 114.288848 
L 62.745268 116.521715 
L 60.019806 118.934532 
L 58.805675 120.146119 
L 56.447908 123.034134 
L 55.376192 124.673975 
L 54.491897 126.313815 
L 53.759037 127.953656 
L 52.896286 130.535348 
L 52.446747 135.332939 
L 52.082422 141.892302 
L 51.990448 144.352063 
L 52.896286 145.106166 
L 52.896286 145.106166 
" style="fill:none;stroke:#1764ab;stroke-width:1.5;"/>
   </g>
   <g id="LineCollection_8">
    <path clip-path="url(#p9c91d1299f)" d="M 52.896286 145.098798 
L 62.745268 144.730806 
L 68.427789 144.352063 
L 73.961389 142.712222 
L 77.518742 140.88453 
L 79.701687 139.432541 
L 82.443233 137.127942 
L 83.457017 136.152859 
L 85.689623 133.693098 
L 87.59591 131.233337 
L 89.33752 128.633628 
L 90.705687 126.313815 
L 92.292215 123.135525 
L 93.024682 121.394293 
L 93.859284 118.934532 
L 94.262012 117.294692 
L 94.487905 115.654851 
L 94.470081 114.01501 
L 94.262012 112.982778 
L 94.036658 112.37517 
L 93.277113 111.263982 
L 92.292215 110.520011 
L 91.307317 110.103014 
L 90.322419 109.86155 
L 88.352622 109.703554 
L 86.382826 109.800949 
L 83.428131 110.250676 
L 80.473436 110.945476 
L 76.533843 112.160166 
L 72.59425 113.66273 
L 68.654657 115.464887 
L 64.715064 117.635957 
L 61.573987 119.754453 
L 59.537896 121.394293 
L 57.798374 123.034134 
L 55.85098 125.335702 
L 53.881184 128.699429 
L 52.824389 132.053258 
L 52.380853 136.97278 
L 52.03216 143.532142 
L 51.999299 144.352063 
L 52.896286 145.098798 
L 52.896286 145.098798 
" style="fill:none;stroke:#084a92;stroke-width:1.5;"/>
    <path clip-path="url(#p9c91d1299f)" d="M 139.56733 75.532613 
L 141.537127 75.690609 
L 143.506923 75.593214 
L 146.461618 75.143487 
L 149.416313 74.448687 
L 153.355906 73.233997 
L 157.295499 71.731433 
L 161.235091 69.929276 
L 165.174684 67.758206 
L 168.315762 65.63971 
L 170.351853 63.99987 
L 172.091375 62.360029 
L 174.038768 60.058461 
L 176.008565 56.694734 
L 177.06536 53.340905 
L 177.508896 48.421383 
L 177.857589 41.86202 
L 177.89045 41.0421 
L 176.993463 40.295365 
L 167.144481 40.663357 
L 161.46196 41.0421 
L 155.92836 42.681941 
L 152.371007 44.509633 
L 150.188062 45.961622 
L 147.446516 48.266221 
L 146.432732 49.241304 
L 144.200126 51.701065 
L 142.293838 54.160826 
L 140.552229 56.760535 
L 139.184062 59.080348 
L 137.597534 62.258638 
L 136.865067 63.99987 
L 136.030465 66.459631 
L 135.627737 68.099471 
L 135.401843 69.739312 
L 135.419668 71.379153 
L 135.627737 72.411385 
L 135.853091 73.018993 
L 136.612636 74.130181 
L 137.597534 74.874152 
L 138.582432 75.291149 
L 139.56733 75.532613 
L 139.56733 75.532613 
" style="fill:none;stroke:#084a92;stroke-width:1.5;"/>
   </g>
   <g id="LineCollection_9">
    <path clip-path="url(#p9c91d1299f)" d="M 52.896286 145.07007 
L 53.881184 145.031975 
L 54.866082 144.992872 
L 55.85098 144.95151 
L 56.835879 144.907237 
L 57.820777 144.859591 
L 58.805675 144.808182 
L 59.790573 144.752645 
L 60.775472 144.692621 
L 61.76037 144.627742 
L 62.745268 144.557627 
L 63.730166 144.481875 
L 64.715064 144.40006 
L 65.276564 144.352063 
L 65.699963 144.18614 
L 66.684861 143.84223 
L 67.648524 143.532142 
L 67.669759 143.519214 
L 68.654657 142.985681 
L 69.215552 142.712222 
L 69.639556 142.390502 
L 70.376242 141.892302 
L 70.624454 141.652914 
L 71.299032 141.072381 
L 71.609352 140.712733 
L 72.052522 140.252461 
L 72.59425 139.525708 
L 72.671346 139.432541 
L 73.193315 138.61262 
L 73.579149 137.859358 
L 73.616863 137.7927 
L 73.967384 136.97278 
L 74.238755 136.152859 
L 74.436981 135.332939 
L 74.564047 134.513019 
L 74.564047 134.513019 
L 74.619317 133.693098 
L 74.596163 132.873178 
L 74.564047 132.616285 
L 74.48798 132.053258 
L 74.282673 131.233337 
L 73.962652 130.413417 
L 73.579149 129.717189 
L 73.501912 129.593497 
L 72.848593 128.773576 
L 72.59425 128.519489 
L 71.914565 127.953656 
L 71.609352 127.741918 
L 70.624454 127.198034 
L 70.475873 127.133736 
L 69.639556 126.814472 
L 68.654657 126.548057 
L 67.669759 126.377141 
L 66.993444 126.313815 
L 66.684861 126.287079 
L 65.699963 126.267803 
L 64.715064 126.313815 
L 64.715064 126.313815 
L 63.730166 126.419597 
L 62.745268 126.584618 
L 61.76037 126.810532 
L 60.775472 127.102339 
L 60.695401 127.133736 
L 59.790573 127.454939 
L 58.805675 127.889474 
L 58.693761 127.953656 
L 57.820777 128.404641 
L 57.267893 128.773576 
L 56.835879 129.031916 
L 56.138536 129.593497 
L 55.85098 129.800131 
L 55.252536 130.413417 
L 54.866082 130.766397 
L 54.5376 131.233337 
L 53.896714 132.053258 
L 53.881184 132.070936 
L 53.508703 132.873178 
L 53.095595 133.693098 
L 52.896286 134.045575 
L 52.838631 134.513019 
L 52.740354 135.332939 
L 52.649359 136.152859 
L 52.565136 136.97278 
L 52.487203 137.7927 
L 52.415101 138.61262 
L 52.34839 139.432541 
L 52.286636 140.252461 
L 52.229403 141.072381 
L 52.176222 141.892302 
L 52.126538 142.712222 
L 52.079567 143.532142 
L 52.033807 144.352063 
L 52.896286 145.07007 
" style="fill:none;stroke:#08306b;stroke-width:1.5;"/>
    <path clip-path="url(#p9c91d1299f)" d="M 163.204888 59.107084 
L 164.189786 59.12636 
L 165.174684 59.080348 
L 166.159583 58.974566 
L 167.144481 58.809545 
L 168.129379 58.58363 
L 169.114277 58.291824 
L 169.194347 58.260427 
L 170.099176 57.939224 
L 171.084074 57.504689 
L 171.195988 57.440507 
L 172.068972 56.989522 
L 172.621856 56.620587 
L 173.05387 56.362247 
L 173.751213 55.800666 
L 174.038768 55.594032 
L 174.637213 54.980746 
L 175.023667 54.627766 
L 175.352149 54.160826 
L 175.993035 53.340905 
L 176.008565 53.323227 
L 176.381046 52.520985 
L 176.794154 51.701065 
L 176.993463 51.348588 
L 177.051117 50.881144 
L 177.149395 50.061224 
L 177.24039 49.241304 
L 177.324613 48.421383 
L 177.402546 47.601463 
L 177.474648 46.781543 
L 177.541359 45.961622 
L 177.603112 45.141702 
L 177.660345 44.321782 
L 177.713527 43.501861 
L 177.763211 42.681941 
L 177.810182 41.86202 
L 177.855942 41.0421 
L 176.993463 40.324093 
L 176.008565 40.362188 
L 175.023667 40.401291 
L 174.038768 40.442653 
L 173.05387 40.486926 
L 172.068972 40.534572 
L 171.084074 40.585981 
L 170.099176 40.641518 
L 169.114277 40.701542 
L 168.129379 40.766421 
L 167.144481 40.836536 
L 166.159583 40.912288 
L 165.174684 40.994103 
L 164.613185 41.0421 
L 164.189786 41.208023 
L 163.204888 41.551933 
L 162.241225 41.86202 
L 162.21999 41.874949 
L 161.235091 42.408482 
L 160.674197 42.681941 
L 160.250193 43.003661 
L 159.513507 43.501861 
L 159.265295 43.741249 
L 158.590717 44.321782 
L 158.280397 44.68143 
L 157.837227 45.141702 
L 157.295499 45.868454 
L 157.218403 45.961622 
L 156.696433 46.781543 
L 156.3106 47.534805 
L 156.272886 47.601463 
L 155.922365 48.421383 
L 155.650994 49.241304 
L 155.452768 50.061224 
L 155.325702 50.881144 
L 155.270432 51.701065 
L 155.293586 52.520985 
L 155.325702 52.777878 
L 155.401769 53.340905 
L 155.607076 54.160826 
L 155.927097 54.980746 
L 156.3106 55.676974 
L 156.387837 55.800666 
L 157.041156 56.620587 
L 157.295499 56.874674 
L 157.975184 57.440507 
L 158.280397 57.652245 
L 159.265295 58.196129 
L 159.413876 58.260427 
L 160.250193 58.579691 
L 161.235091 58.846106 
L 162.21999 59.017022 
L 162.896305 59.080348 
L 163.204888 59.107084 
" style="fill:none;stroke:#08306b;stroke-width:1.5;"/>
   </g>
   <g id="LineCollection_10">
    <path clip-path="url(#p9c91d1299f)" d="M 52.896286 145.171937 
L 131.688144 145.068054 
L 142.522025 144.84968 
L 148.431414 144.508536 
L 158.280397 143.486661 
L 161.235091 142.966445 
L 165.174684 141.853644 
L 167.144481 141.051699 
L 169.114277 139.987618 
L 170.910068 138.61262 
L 172.068972 137.42809 
L 173.05387 136.114457 
L 173.992332 134.513019 
L 174.749682 132.873178 
L 175.782699 129.593497 
L 176.717653 124.673975 
L 177.490955 117.294692 
L 177.727786 112.37517 
L 177.892105 103.356046 
L 177.967254 82.858037 
L 177.978306 41.0421 
L 176.993463 40.222226 
L 98.201604 40.326109 
L 87.367724 40.544483 
L 81.458334 40.885626 
L 71.609352 41.907502 
L 68.654657 42.427718 
L 64.715064 43.540519 
L 62.745268 44.342464 
L 60.775472 45.406545 
L 58.979681 46.781543 
L 57.820777 47.966073 
L 56.835879 49.279706 
L 55.897416 50.881144 
L 55.140067 52.520985 
L 54.10705 55.800666 
L 53.172096 60.720188 
L 52.398793 68.099471 
L 52.161963 73.018993 
L 51.997643 82.038117 
L 51.922495 102.536126 
L 51.911443 144.352063 
L 52.896286 145.171937 
L 52.896286 145.171937 
" style="fill:none;stroke:#f7fbff;stroke-width:1.5;"/>
   </g>
   <g id="line2d_9">
    <path clip-path="url(#p9c91d1299f)" d="M 51.911387 145.171983 
L 177.978361 145.171983 
L 177.978361 40.22218 
L 51.911387 40.22218 
L 51.911387 145.171983 
" style="fill:none;stroke:#e3eef8;stroke-linecap:round;"/>
   </g>
   <g id="text_11">
    <!-- Gaussian -->
    <g style="fill:#262626;" transform="translate(93.569732 34.22218)scale(0.12 -0.12)">
     <defs>
      <path d="M 3610 1856 
L 2336 1856 
L 2336 1461 
L 3123 1461 
L 3123 471 
C 2874 401 2618 350 2362 350 
C 1466 350 934 1301 934 2200 
C 934 3095 1491 4032 2362 4032 
C 2854 4032 3130 3881 3469 3627 
L 3552 4134 
C 3130 4351 2867 4440 2387 4440 
C 1146 4440 397 3324 397 2182 
C 397 1090 1152 -64 2349 -64 
C 2797 -64 3213 51 3610 248 
L 3610 1856 
z
" id="CMSS17-47" transform="scale(0.015625)"/>
      <path d="M 2406 1791 
C 2406 2392 1978 2808 1402 2808 
C 1120 2808 813 2757 461 2553 
L 499 2135 
C 659 2248 934 2432 1395 2432 
C 1722 2432 1920 2180 1920 1782 
L 1920 1536 
C 896 1536 256 1238 256 726 
C 256 461 416 -64 947 -64 
C 1043 -64 1562 -64 1933 217 
L 1933 -19 
L 2406 -19 
L 2406 1791 
z
M 1920 816 
C 1920 701 1920 548 1728 434 
C 1562 325 1350 325 1261 325 
C 941 325 723 511 723 744 
C 723 1211 1722 1211 1920 1211 
L 1920 816 
z
" id="CMSS17-61" transform="scale(0.015625)"/>
      <path d="M 2618 2739 
L 2131 2739 
L 2131 972 
C 2131 498 1786 306 1421 306 
C 998 306 960 447 960 709 
L 960 2739 
L 474 2739 
L 474 678 
C 474 179 646 -64 1088 -64 
C 1306 -64 1798 -13 2144 306 
L 2144 0 
L 2618 0 
L 2618 2739 
z
" id="CMSS17-75" transform="scale(0.015625)"/>
      <path d="M 2061 2627 
C 1683 2807 1389 2807 1197 2807 
C 742 2807 198 2648 198 2003 
C 198 1359 902 1218 1094 1179 
C 1389 1122 1715 1058 1715 740 
C 1715 337 1254 337 1171 337 
C 915 337 563 407 243 638 
L 166 210 
C 531 0 883 -64 1178 -64 
C 1965 -64 2163 416 2163 781 
C 2163 1094 1984 1305 1862 1401 
C 1651 1568 1574 1587 1050 1696 
C 960 1709 646 1779 646 2066 
C 646 2432 1050 2432 1139 2432 
C 1555 2432 1811 2303 1984 2208 
L 2061 2627 
z
" id="CMSS17-73" transform="scale(0.015625)"/>
      <path d="M 979 4183 
L 442 4183 
L 442 3648 
L 979 3648 
L 979 4183 
z
M 947 2739 
L 474 2739 
L 474 0 
L 947 0 
L 947 2739 
z
" id="CMSS17-69" transform="scale(0.015625)"/>
      <path d="M 2618 1877 
C 2618 2283 2522 2816 1798 2816 
C 1389 2816 1120 2606 941 2389 
L 941 2758 
L 474 2758 
L 474 0 
L 960 0 
L 960 1559 
C 960 1964 1114 2428 1549 2428 
C 2112 2428 2131 2048 2131 1829 
L 2131 0 
L 2618 0 
L 2618 1877 
z
" id="CMSS17-6e" transform="scale(0.015625)"/>
     </defs>
     <use transform="scale(0.996264)" xlink:href="#CMSS17-47"/>
     <use transform="translate(62.458226 0)scale(0.996264)" xlink:href="#CMSS17-61"/>
     <use transform="translate(107.380146 0)scale(0.996264)" xlink:href="#CMSS17-75"/>
     <use transform="translate(155.585089 0)scale(0.996264)" xlink:href="#CMSS17-73"/>
     <use transform="translate(191.498631 0)scale(0.996264)" xlink:href="#CMSS17-73"/>
     <use transform="translate(227.412173 0)scale(0.996264)" xlink:href="#CMSS17-69"/>
     <use transform="translate(249.592896 0)scale(0.996264)" xlink:href="#CMSS17-61"/>
     <use transform="translate(294.514817 0)scale(0.996264)" xlink:href="#CMSS17-6e"/>
    </g>
   </g>
  </g>
  <g id="axes_2">
   <g id="patch_3">
    <path d="M 204.941438 145.171983 
L 331.008412 145.171983 
L 331.008412 40.22218 
L 204.941438 40.22218 
z
" style="fill:none;opacity:0;"/>
   </g>
   <g id="matplotlib.axis_3">
    <g id="xtick_4">
     <g id="line2d_10">
      <path clip-path="url(#p508212ebd3)" d="M 204.941438 145.171983 
L 204.941438 40.22218 
" style="fill:none;stroke:#ffffff;stroke-linecap:round;"/>
     </g>
     <g id="text_12">
      <!-- $\mathdefault{0.0}$ -->
      <g style="fill:#262626;" transform="translate(197.9399 162.28233)scale(0.11 -0.11)">
       <use transform="scale(0.996264)" xlink:href="#CMR17-30"/>
       <use transform="translate(45.690477 0)scale(0.996264)" xlink:href="#CMMI12-3a"/>
       <use transform="translate(72.787654 0)scale(0.996264)" xlink:href="#CMR17-30"/>
      </g>
     </g>
    </g>
    <g id="xtick_5">
     <g id="line2d_11">
      <path clip-path="url(#p508212ebd3)" d="M 267.974925 145.171983 
L 267.974925 40.22218 
" style="fill:none;stroke:#ffffff;stroke-linecap:round;"/>
     </g>
     <g id="text_13">
      <!-- $\mathdefault{0.5}$ -->
      <g style="fill:#262626;" transform="translate(260.973387 162.28233)scale(0.11 -0.11)">
       <use transform="scale(0.996264)" xlink:href="#CMR17-30"/>
       <use transform="translate(45.690477 0)scale(0.996264)" xlink:href="#CMMI12-3a"/>
       <use transform="translate(72.787654 0)scale(0.996264)" xlink:href="#CMR17-35"/>
      </g>
     </g>
    </g>
    <g id="xtick_6">
     <g id="line2d_12">
      <path clip-path="url(#p508212ebd3)" d="M 331.008412 145.171983 
L 331.008412 40.22218 
" style="fill:none;stroke:#ffffff;stroke-linecap:round;"/>
     </g>
     <g id="text_14">
      <!-- $\mathdefault{1.0}$ -->
      <g style="fill:#262626;" transform="translate(324.006874 162.28233)scale(0.11 -0.11)">
       <use transform="scale(0.996264)" xlink:href="#CMR17-31"/>
       <use transform="translate(45.690477 0)scale(0.996264)" xlink:href="#CMMI12-3a"/>
       <use transform="translate(72.787654 0)scale(0.996264)" xlink:href="#CMR17-30"/>
      </g>
     </g>
    </g>
    <g id="text_15">
     <!-- $u_1$ -->
     <g style="fill:#262626;" transform="translate(262.526613 176.715404)scale(0.12 -0.12)">
      <use transform="scale(0.996264)" xlink:href="#CMMI12-75"/>
      <use transform="translate(55.52033 -14.943915)scale(0.697382)" xlink:href="#CMR17-31"/>
     </g>
    </g>
   </g>
   <g id="matplotlib.axis_4">
    <g id="ytick_6">
     <g id="line2d_13">
      <path clip-path="url(#p508212ebd3)" d="M 204.941438 145.171983 
L 331.008412 145.171983 
" style="fill:none;stroke:#ffffff;stroke-linecap:round;"/>
     </g>
    </g>
    <g id="ytick_7">
     <g id="line2d_14">
      <path clip-path="url(#p508212ebd3)" d="M 204.941438 118.934532 
L 331.008412 118.934532 
" style="fill:none;stroke:#ffffff;stroke-linecap:round;"/>
     </g>
    </g>
    <g id="ytick_8">
     <g id="line2d_15">
      <path clip-path="url(#p508212ebd3)" d="M 204.941438 92.697081 
L 331.008412 92.697081 
" style="fill:none;stroke:#ffffff;stroke-linecap:round;"/>
     </g>
    </g>
    <g id="ytick_9">
     <g id="line2d_16">
      <path clip-path="url(#p508212ebd3)" d="M 204.941438 66.459631 
L 331.008412 66.459631 
" style="fill:none;stroke:#ffffff;stroke-linecap:round;"/>
     </g>
    </g>
    <g id="ytick_10">
     <g id="line2d_17">
      <path clip-path="url(#p508212ebd3)" d="M 204.941438 40.22218 
L 331.008412 40.22218 
" style="fill:none;stroke:#ffffff;stroke-linecap:round;"/>
     </g>
    </g>
   </g>
   <g id="LineCollection_11">
    <path clip-path="url(#p508212ebd3)" d="M 205.926336 145.146916 
L 243.352469 144.965466 
L 253.201451 144.720505 
L 259.808903 144.352063 
L 273.314293 141.072381 
L 282.748398 138.533014 
L 291.612482 136.077062 
L 297.521872 134.207522 
L 304.416159 131.794966 
L 309.340651 129.869955 
L 312.295345 128.53086 
L 314.866978 127.133736 
L 316.234938 126.245345 
L 318.228695 124.673975 
L 320.174531 122.700675 
L 321.860214 120.574373 
L 324.118507 117.294692 
L 326.08392 114.564382 
L 327.455186 113.19509 
L 328.053717 112.752686 
L 329.038615 112.55105 
L 330.023513 113.078183 
L 330.260101 106.635727 
L 330.434474 95.156842 
L 330.806165 62.360029 
L 330.965863 45.961622 
L 330.982379 41.0421 
L 330.023513 40.243852 
L 304.416159 40.38621 
L 248.27696 41.08231 
L 246.307164 41.540501 
L 244.337367 42.246634 
L 243.352469 42.723789 
L 241.382672 44.016639 
L 240.028698 45.141702 
L 236.458181 48.545597 
L 233.503486 51.192091 
L 230.548792 53.542604 
L 222.226711 59.900268 
L 220.484152 61.540109 
L 218.730013 63.478859 
L 217.107465 65.63971 
L 215.577239 68.099471 
L 213.805522 71.51641 
L 208.388402 82.858037 
L 205.926336 87.067994 
L 205.61916 92.697081 
L 205.394452 101.716205 
L 205.022832 131.233337 
L 204.971548 144.352063 
L 205.926336 145.146916 
L 205.926336 145.146916 
" style="fill:none;stroke:#cfe1f2;stroke-width:1.5;"/>
   </g>
   <g id="LineCollection_12">
    <path clip-path="url(#p508212ebd3)" d="M 205.926336 145.123014 
L 238.427978 144.88239 
L 248.27696 144.586731 
L 252.359498 144.352063 
L 261.350169 141.072381 
L 267.974925 138.047468 
L 274.869212 134.995647 
L 281.7635 132.310924 
L 293.129987 127.953656 
L 297.521872 126.057095 
L 300.476566 124.606718 
L 303.431261 122.920213 
L 306.385956 120.897188 
L 308.804182 118.934532 
L 311.449712 116.474771 
L 315.461682 112.37517 
L 318.4626 109.095488 
L 321.159429 105.815807 
L 323.486721 102.536126 
L 325.478576 99.256444 
L 327.138071 95.976763 
L 328.138713 93.517002 
L 328.671718 91.877161 
L 329.226371 89.4174 
L 329.58379 86.957639 
L 330.023513 81.883255 
L 330.249456 72.199073 
L 330.848728 52.520985 
L 330.957557 41.0421 
L 330.023513 40.264516 
L 310.325549 40.429856 
L 291.612482 40.84987 
L 282.748398 41.179784 
L 272.899416 42.170888 
L 266.990026 43.001016 
L 263.050433 43.731195 
L 260.095739 44.436796 
L 257.141044 45.375111 
L 255.171248 46.185587 
L 253.201451 47.192245 
L 251.218716 48.421383 
L 248.27696 50.585719 
L 239.412876 57.488534 
L 230.538739 63.99987 
L 227.746561 66.459631 
L 226.160393 68.099471 
L 224.639402 69.914546 
L 223.013079 72.199073 
L 221.521403 74.658834 
L 219.348473 78.758436 
L 216.721137 83.677958 
L 214.672078 86.957639 
L 212.275875 90.23732 
L 207.217169 96.796683 
L 206.202921 98.436524 
L 205.926336 98.925838 
L 205.568052 110.735329 
L 205.100442 131.233337 
L 205.000259 144.352063 
L 205.926336 145.123014 
L 205.926336 145.123014 
" style="fill:none;stroke:#b5d4e9;stroke-width:1.5;"/>
   </g>
   <g id="LineCollection_13">
    <path clip-path="url(#p508212ebd3)" d="M 205.926336 145.09953 
L 235.473283 144.814027 
L 244.337367 144.531029 
L 247.591966 144.352063 
L 252.216553 142.144745 
L 254.379509 141.072381 
L 258.678245 138.61262 
L 266.490983 133.693098 
L 269.944721 131.775939 
L 274.869212 129.307617 
L 285.948647 123.854054 
L 290.332308 121.394293 
L 293.582279 119.302215 
L 296.536973 117.130024 
L 300.294548 114.01501 
L 305.401058 109.729242 
L 309.482518 106.635727 
L 314.265142 103.0604 
L 316.749164 100.896285 
L 318.359181 99.256444 
L 320.174531 97.05556 
L 321.472589 95.156842 
L 322.879456 92.697081 
L 324.114124 90.063386 
L 325.292754 86.957639 
L 326.301772 83.677958 
L 327.755654 77.938515 
L 329.472447 71.379153 
L 330.023513 69.690192 
L 330.657409 56.620587 
L 330.874949 46.781543 
L 330.933169 41.0421 
L 330.023513 40.284819 
L 313.280243 40.464247 
L 300.476566 40.828594 
L 294.555394 41.0421 
L 290.627584 41.664413 
L 281.7635 42.893537 
L 276.839009 43.835365 
L 272.899416 44.862442 
L 269.944721 45.842616 
L 267.575173 46.781543 
L 264.035332 48.489671 
L 261.080637 50.217177 
L 258.125942 52.239066 
L 255.171248 54.514068 
L 241.130808 65.63971 
L 237.443079 68.659216 
L 235.392136 70.559232 
L 233.110991 73.018993 
L 231.202692 75.478754 
L 229.563894 77.946689 
L 226.609199 82.987691 
L 224.19581 86.957639 
L 222.496965 89.4174 
L 220.568325 91.877161 
L 218.375002 94.336922 
L 215.099147 97.616603 
L 211.775673 100.896285 
L 209.602505 103.356046 
L 207.896132 105.719971 
L 206.453787 108.275568 
L 205.926336 109.327176 
L 205.207857 129.593497 
L 205.028469 144.352063 
L 205.926336 145.09953 
L 205.926336 145.09953 
" style="fill:none;stroke:#93c4de;stroke-width:1.5;"/>
   </g>
   <g id="LineCollection_14">
    <path clip-path="url(#p508212ebd3)" d="M 205.926336 145.075228 
L 233.503486 144.744781 
L 242.367571 144.428423 
L 243.750978 144.352063 
L 246.307164 142.688446 
L 251.265346 139.432541 
L 254.44895 136.97278 
L 260.400838 132.053258 
L 263.050433 130.135293 
L 266.990026 127.634062 
L 279.793703 119.954719 
L 282.748398 117.882486 
L 285.703093 115.603152 
L 289.642686 112.270698 
L 295.332876 107.455648 
L 298.50677 105.103144 
L 301.461465 103.169616 
L 305.401058 100.85625 
L 310.922131 97.616603 
L 312.295345 96.698063 
L 314.304991 95.156842 
L 316.234938 93.363172 
L 317.552717 91.877161 
L 319.189633 89.665579 
L 320.341647 87.777559 
L 322.009966 84.497878 
L 323.129226 81.928241 
L 325.600711 75.478754 
L 328.053717 69.289851 
L 329.038615 67.17161 
L 330.023513 65.330338 
L 330.539677 56.620587 
L 330.814985 47.601463 
L 330.907931 41.0421 
L 330.023513 40.305829 
L 315.25004 40.496576 
L 304.416159 40.85531 
L 300.25235 41.0421 
L 298.50677 41.652049 
L 295.552075 42.389879 
L 282.748398 45.030669 
L 280.778602 45.646872 
L 278.808805 46.37281 
L 276.063122 47.601463 
L 272.899416 49.396492 
L 269.944721 51.402258 
L 267.415492 53.340905 
L 263.618481 56.620587 
L 258.125942 61.860885 
L 252.216553 67.375027 
L 244.163336 74.658834 
L 240.982063 77.938515 
L 238.16323 81.218197 
L 233.503486 87.127183 
L 230.29628 91.057241 
L 227.329981 94.336922 
L 224.639402 96.991853 
L 221.684708 99.617694 
L 217.745115 102.839778 
L 213.222017 106.635727 
L 211.499913 108.275568 
L 209.865929 110.01052 
L 207.896132 112.431446 
L 205.926336 115.236381 
L 205.370774 127.133736 
L 205.13435 137.7927 
L 205.057661 144.352063 
L 205.926336 145.075228 
L 205.926336 145.075228 
" style="fill:none;stroke:#6baed6;stroke-width:1.5;"/>
   </g>
   <g id="LineCollection_15">
    <path clip-path="url(#p508212ebd3)" d="M 205.926336 145.051379 
L 232.518588 144.667516 
L 240.575595 144.352063 
L 243.355864 141.892302 
L 247.292062 138.483538 
L 249.642991 136.152859 
L 256.156146 129.182698 
L 258.529178 127.133736 
L 261.080637 125.219084 
L 265.59885 122.214214 
L 271.914518 117.9704 
L 274.950761 115.654851 
L 277.833456 113.19509 
L 281.7635 109.457005 
L 287.299955 104.175966 
L 289.642686 102.23213 
L 292.645099 100.076364 
L 295.552075 98.300374 
L 299.491668 96.245481 
L 309.340651 91.379877 
L 311.310447 90.091652 
L 313.280243 88.523412 
L 315.25004 86.56015 
L 317.219836 84.089063 
L 319.189633 81.059725 
L 322.144328 75.729461 
L 324.846889 70.559232 
L 327.699768 65.63971 
L 329.465581 63.179949 
L 330.035352 62.360029 
L 330.508593 54.980746 
L 330.786252 46.781543 
L 330.883164 41.0421 
L 330.023513 40.326448 
L 316.234938 40.537019 
L 306.385956 40.910516 
L 303.829943 41.0421 
L 302.605926 41.86202 
L 301.461465 42.443319 
L 299.491668 43.196954 
L 295.552075 44.28674 
L 290.627584 45.533435 
L 287.672889 46.43775 
L 285.703093 47.185585 
L 283.733296 48.096892 
L 281.703915 49.241304 
L 279.37073 50.881144 
L 276.513928 53.340905 
L 273.258335 56.620587 
L 268.876972 61.540109 
L 260.095739 71.668065 
L 256.156146 75.730576 
L 252.102317 79.578356 
L 240.397774 90.485906 
L 234.488385 96.053313 
L 230.548792 99.448985 
L 227.594097 101.750821 
L 223.654504 104.527097 
L 213.805522 111.311485 
L 210.606304 114.01501 
L 208.067211 116.474771 
L 206.911234 117.685778 
L 205.917456 118.934532 
L 205.444066 127.953656 
L 205.181901 137.7927 
L 205.086309 144.352063 
L 205.926336 145.051379 
L 205.926336 145.051379 
" style="fill:none;stroke:#4a97c9;stroke-width:1.5;"/>
   </g>
   <g id="LineCollection_16">
    <path clip-path="url(#p508212ebd3)" d="M 205.926336 145.030366 
L 231.53369 144.610066 
L 238.094973 144.352063 
L 239.412876 142.694049 
L 245.322265 135.798997 
L 246.807731 133.693098 
L 250.61871 127.953656 
L 252.216553 125.939578 
L 254.217504 123.854054 
L 256.156146 122.157479 
L 259.350337 119.754453 
L 266.990026 114.208881 
L 269.153114 112.37517 
L 271.914518 109.703464 
L 274.677434 106.635727 
L 280.276135 100.076364 
L 281.909059 98.436524 
L 283.777995 96.796683 
L 285.980939 95.156842 
L 288.657788 93.505306 
L 291.863492 91.877161 
L 295.552075 90.313611 
L 302.331312 87.777559 
L 305.401058 86.508647 
L 307.786858 85.317798 
L 309.340651 84.40262 
L 311.489569 82.858037 
L 313.358961 81.218197 
L 315.25004 79.248336 
L 318.204735 75.609445 
L 326.08392 64.740221 
L 327.411233 63.179949 
L 330.023513 60.611896 
L 330.466239 54.160826 
L 330.747545 46.781543 
L 330.861341 41.0421 
L 330.023513 40.344615 
L 317.219836 40.562363 
L 308.355752 40.921399 
L 306.177329 41.0421 
L 305.401058 41.98493 
L 304.416159 42.81977 
L 302.446363 43.978618 
L 300.476566 44.816482 
L 295.552075 46.470036 
L 292.338472 47.601463 
L 289.642686 48.82752 
L 287.519495 50.061224 
L 285.364505 51.701065 
L 283.649704 53.340905 
L 281.522541 55.800666 
L 279.077282 59.080348 
L 272.899416 68.129756 
L 267.86149 75.478754 
L 265.347768 78.758436 
L 263.177538 81.218197 
L 261.080637 83.280219 
L 258.721801 85.317798 
L 255.171248 88.042907 
L 242.349012 97.616603 
L 236.912195 101.716205 
L 233.253719 104.175966 
L 229.563894 106.345777 
L 225.624301 108.419263 
L 218.047548 112.37517 
L 215.775318 113.704204 
L 211.634385 116.474771 
L 208.881031 118.562035 
L 205.926336 121.11617 
L 205.495786 128.773576 
L 205.223798 137.7927 
L 205.11155 144.352063 
L 205.926336 145.030366 
L 205.926336 145.030366 
" style="fill:none;stroke:#2e7ebb;stroke-width:1.5;"/>
   </g>
   <g id="LineCollection_17">
    <path clip-path="url(#p508212ebd3)" d="M 205.926336 145.015783 
L 230.548792 144.583319 
L 236.495297 144.352063 
L 238.059419 141.892302 
L 240.434334 138.61262 
L 242.367571 135.710558 
L 243.520582 133.693098 
L 245.09599 130.413417 
L 247.351208 125.493895 
L 248.748976 123.034134 
L 250.246756 120.952337 
L 251.300741 119.754453 
L 253.201451 117.927899 
L 256.156146 115.567043 
L 261.080637 111.774228 
L 263.162409 109.915409 
L 265.02023 107.948461 
L 266.691153 105.815807 
L 267.974925 103.799111 
L 269.063121 101.716205 
L 270.070541 99.256444 
L 270.929619 96.364986 
L 271.182147 95.156842 
L 271.359649 93.517002 
L 271.30235 92.697081 
L 270.929619 91.877161 
L 269.944721 91.559959 
L 268.959823 91.604112 
L 266.990026 91.990389 
L 264.035332 92.854262 
L 260.004299 94.336922 
L 256.156146 96.063739 
L 253.194726 97.616603 
L 249.107563 100.076364 
L 240.089773 105.815807 
L 236.918094 107.455648 
L 233.503486 108.922985 
L 229.563894 110.385417 
L 221.684708 113.296872 
L 217.745115 115.049817 
L 214.79042 116.582732 
L 211.835725 118.313372 
L 207.896132 120.948047 
L 205.926336 122.469796 
L 205.515805 129.593497 
L 205.234502 138.61262 
L 205.129067 144.352063 
L 205.926336 145.015783 
L 205.926336 145.015783 
" style="fill:none;stroke:#1764ab;stroke-width:1.5;"/>
    <path clip-path="url(#p508212ebd3)" d="M 275.854111 87.922175 
L 276.839009 87.935474 
L 278.808805 87.660368 
L 283.733296 86.587727 
L 301.461465 82.405455 
L 304.416159 81.450688 
L 307.370854 80.197117 
L 309.925066 78.758436 
L 311.310447 77.832586 
L 313.280243 76.294972 
L 315.946222 73.838914 
L 317.542688 72.199073 
L 320.174531 69.292486 
L 323.325546 65.63971 
L 326.08392 62.772256 
L 327.42869 61.540109 
L 330.023513 59.502794 
L 330.456355 53.340905 
L 330.743276 45.961622 
L 330.846197 41.0421 
L 330.023513 40.357222 
L 318.204735 40.567387 
L 309.340651 40.937524 
L 307.529424 41.0421 
L 307.111696 41.86202 
L 306.385956 42.840768 
L 305.401058 43.765788 
L 304.416159 44.470532 
L 302.446363 45.554346 
L 298.50677 47.207284 
L 295.538606 48.421383 
L 292.597381 49.925085 
L 291.116761 50.881144 
L 289.132173 52.520985 
L 287.600995 54.160826 
L 286.35089 55.800666 
L 284.718195 58.387451 
L 283.007277 61.540109 
L 280.223046 67.279551 
L 278.082753 72.199073 
L 276.839009 75.504591 
L 275.818942 78.758436 
L 275.022333 82.038117 
L 274.615995 84.497878 
L 274.533172 86.137719 
L 274.65306 86.957639 
L 274.869212 87.411067 
L 275.378416 87.777559 
L 275.854111 87.922175 
L 275.854111 87.922175 
" style="fill:none;stroke:#1764ab;stroke-width:1.5;"/>
   </g>
   <g id="LineCollection_18">
    <path clip-path="url(#p508212ebd3)" d="M 205.926336 145.000114 
L 230.548792 144.524268 
L 234.874332 144.352063 
L 235.998197 141.892302 
L 240.161606 133.693098 
L 240.968281 131.233337 
L 241.539027 128.773576 
L 241.919257 126.313815 
L 242.1295 123.854054 
L 242.139923 121.394293 
L 241.96573 119.754453 
L 241.506604 118.114612 
L 241.076302 117.294692 
L 240.397774 116.472327 
L 239.242268 115.654851 
L 238.427978 115.295048 
L 236.458181 114.781905 
L 234.488385 114.563832 
L 231.53369 114.544469 
L 228.218609 114.834931 
L 225.624301 115.245044 
L 222.669606 115.916664 
L 219.714911 116.804231 
L 216.293466 118.114612 
L 213.805522 119.225555 
L 209.865929 121.276742 
L 205.926336 123.762211 
L 205.499506 131.233337 
L 205.209377 141.072381 
L 205.147889 144.352063 
L 205.926336 145.000114 
L 205.926336 145.000114 
" style="fill:none;stroke:#084a92;stroke-width:1.5;"/>
    <path clip-path="url(#p508212ebd3)" d="M 295.552075 75.59878 
L 297.521872 75.814628 
L 299.491668 75.85518 
L 301.461465 75.7425 
L 303.431261 75.478754 
L 305.401058 75.056908 
L 307.370854 74.46025 
L 309.340651 73.674882 
L 311.310447 72.690765 
L 313.454667 71.379153 
L 315.726291 69.739312 
L 317.731305 68.099471 
L 320.174531 65.937052 
L 322.299172 63.99987 
L 325.287363 61.540109 
L 328.053717 59.662708 
L 330.023513 58.43925 
L 330.447961 52.520985 
L 330.739571 45.141702 
L 330.829925 41.0421 
L 330.023513 40.370769 
L 318.204735 40.602016 
L 309.340651 41.009284 
L 308.796553 41.0421 
L 308.355752 42.422832 
L 307.722453 43.501861 
L 307.05205 44.321782 
L 306.187192 45.141702 
L 304.416159 46.412779 
L 301.461465 48.013773 
L 298.50677 49.514191 
L 296.187601 50.881144 
L 294.076144 52.520985 
L 292.521723 54.160826 
L 291.353817 55.800666 
L 290.453592 57.440507 
L 289.449209 59.900268 
L 288.746069 62.360029 
L 288.298852 64.81979 
L 288.135392 67.279551 
L 288.239071 68.919392 
L 288.657788 70.741283 
L 288.912874 71.379153 
L 289.642686 72.597102 
L 290.627584 73.621333 
L 291.612482 74.301348 
L 292.597381 74.788994 
L 294.567177 75.408321 
L 295.552075 75.59878 
L 295.552075 75.59878 
" style="fill:none;stroke:#084a92;stroke-width:1.5;"/>
   </g>
   <g id="LineCollection_19">
    <path clip-path="url(#p508212ebd3)" d="M 205.926336 144.937539 
L 206.911234 144.917607 
L 207.896132 144.897509 
L 208.881031 144.877307 
L 209.865929 144.857033 
L 210.850827 144.836695 
L 211.835725 144.81628 
L 212.820624 144.795753 
L 213.805522 144.775061 
L 214.79042 144.754139 
L 215.775318 144.732907 
L 216.760216 144.711273 
L 217.745115 144.689135 
L 218.730013 144.666381 
L 219.714911 144.642888 
L 220.699809 144.618523 
L 221.684708 144.593142 
L 222.669606 144.566589 
L 223.654504 144.538695 
L 224.639402 144.509279 
L 225.624301 144.478142 
L 226.609199 144.44507 
L 227.594097 144.40983 
L 228.578995 144.372167 
L 229.081699 144.352063 
L 229.012517 143.532142 
L 228.963106 142.712222 
L 228.930714 141.892302 
L 228.911582 141.072381 
L 228.901038 140.252461 
L 228.893617 139.432541 
L 228.88321 138.61262 
L 228.863181 137.7927 
L 228.826477 136.97278 
L 228.765685 136.152859 
L 228.673034 135.332939 
L 228.578995 134.742774 
L 228.541198 134.513019 
L 228.363012 133.693098 
L 228.126118 132.873178 
L 227.819243 132.053258 
L 227.594097 131.566459 
L 227.430172 131.233337 
L 226.940785 130.413417 
L 226.609199 129.953735 
L 226.325094 129.593497 
L 225.624301 128.848616 
L 225.54525 128.773576 
L 224.639402 128.031335 
L 224.529823 127.953656 
L 223.654504 127.40553 
L 223.12991 127.133736 
L 222.669606 126.918993 
L 221.684708 126.543778 
L 220.901696 126.313815 
L 220.699809 126.259136 
L 219.714911 126.050744 
L 218.730013 125.907677 
L 217.745115 125.821631 
L 216.760216 125.785681 
L 215.775318 125.794127 
L 214.79042 125.842424 
L 213.805522 125.927161 
L 212.820624 126.046109 
L 211.835725 126.198329 
L 211.236185 126.313815 
L 210.850827 126.381392 
L 209.865929 126.59305 
L 208.881031 126.841645 
L 207.896132 127.133736 
L 206.911234 127.459673 
L 205.926336 127.846451 
L 205.918507 127.953656 
L 205.859151 128.773576 
L 205.803522 129.593497 
L 205.751435 130.413417 
L 205.702694 131.233337 
L 205.657095 132.053258 
L 205.614431 132.873178 
L 205.574496 133.693098 
L 205.537087 134.513019 
L 205.502007 135.332939 
L 205.469064 136.152859 
L 205.438079 136.97278 
L 205.408879 137.7927 
L 205.381306 138.61262 
L 205.355212 139.432541 
L 205.330461 140.252461 
L 205.306931 141.072381 
L 205.284514 141.892302 
L 205.263114 142.712222 
L 205.242651 143.532142 
L 205.223055 144.352063 
L 205.926336 144.937539 
" style="fill:none;stroke:#08306b;stroke-width:1.5;"/>
    <path clip-path="url(#p508212ebd3)" d="M 320.174531 55.891633 
L 321.159429 55.946544 
L 322.144328 55.970298 
L 323.129226 55.966804 
L 324.114124 55.937635 
L 325.099022 55.882399 
L 326.060897 55.800666 
L 326.08392 55.799019 
L 327.068819 55.692115 
L 328.053717 55.550379 
L 329.038615 55.365856 
L 330.023513 55.127298 
L 330.036804 54.980746 
L 330.110855 54.160826 
L 330.179815 53.340905 
L 330.243906 52.520985 
L 330.303362 51.701065 
L 330.358425 50.881144 
L 330.409343 50.061224 
L 330.456366 49.241304 
L 330.499744 48.421383 
L 330.539724 47.601463 
L 330.576551 46.781543 
L 330.610463 45.961622 
L 330.641689 45.141702 
L 330.670451 44.321782 
L 330.696961 43.501861 
L 330.721421 42.681941 
L 330.744021 41.86202 
L 330.764939 41.0421 
L 330.023513 40.424869 
L 329.038615 40.439326 
L 328.053717 40.455409 
L 327.068819 40.47325 
L 326.08392 40.492992 
L 325.099022 40.514791 
L 324.114124 40.538817 
L 323.129226 40.565246 
L 322.144328 40.594268 
L 321.159429 40.62608 
L 320.174531 40.660885 
L 319.189633 40.698892 
L 318.204735 40.74031 
L 317.219836 40.785347 
L 316.234938 40.834202 
L 315.25004 40.887063 
L 314.265142 40.944102 
L 313.280243 41.005465 
L 312.712403 41.0421 
L 312.910473 41.86202 
L 313.056959 42.681941 
L 313.156714 43.501861 
L 313.215516 44.321782 
L 313.239711 45.141702 
L 313.236099 45.961622 
L 313.212014 46.781543 
L 313.175612 47.601463 
L 313.136381 48.421383 
L 313.105925 49.241304 
L 313.099165 50.061224 
L 313.136199 50.881144 
L 313.245318 51.701065 
L 313.280243 51.8488 
L 313.461677 52.520985 
L 313.858147 53.340905 
L 314.265142 53.862155 
L 314.556753 54.160826 
L 315.25004 54.663422 
L 315.852722 54.980746 
L 316.234938 55.139718 
L 317.219836 55.450048 
L 318.204735 55.65933 
L 319.189633 55.798734 
L 319.208222 55.800666 
L 320.174531 55.891633 
" style="fill:none;stroke:#08306b;stroke-width:1.5;"/>
   </g>
   <g id="LineCollection_20">
    <path clip-path="url(#p508212ebd3)" d="M 205.926336 145.170649 
L 269.944721 145.060115 
L 285.703093 144.800279 
L 293.582279 144.488711 
L 299.491668 144.032495 
L 303.431261 143.532142 
L 307.370854 142.889006 
L 313.280243 141.520554 
L 321.159429 139.238243 
L 323.129226 138.47048 
L 325.099022 137.412738 
L 326.670639 136.152859 
L 328.189417 134.513019 
L 329.038615 133.568625 
L 330.023513 132.842818 
L 330.40409 131.233337 
L 330.680299 128.773576 
L 330.853178 124.673975 
L 330.947126 115.654851 
L 330.983266 77.938515 
L 331.007026 41.0421 
L 330.023513 40.223333 
L 232.518588 40.336414 
L 225.624301 40.528079 
L 222.669606 40.784618 
L 221.116095 41.0421 
L 220.384301 41.86202 
L 218.730013 43.142062 
L 216.760216 44.385296 
L 212.7828 46.781543 
L 211.711632 47.601463 
L 210.152403 49.241304 
L 209.590283 50.061224 
L 208.735288 51.701065 
L 207.896132 53.966305 
L 207.351378 55.800666 
L 206.443528 59.900268 
L 205.793711 63.99987 
L 205.409418 68.099471 
L 205.152991 73.838914 
L 205.01684 82.858037 
L 204.961606 106.635727 
L 204.943041 144.352063 
L 205.926336 145.170649 
L 205.926336 145.170649 
" style="fill:none;stroke:#f7fbff;stroke-width:1.5;"/>
   </g>
   <g id="line2d_18">
    <path clip-path="url(#p508212ebd3)" d="M 204.941438 145.171983 
L 331.008412 145.171983 
L 331.008412 40.22218 
L 204.941438 40.22218 
L 204.941438 145.171983 
" style="fill:none;stroke:#e3eef8;stroke-linecap:round;"/>
   </g>
   <g id="text_16">
    <!-- Bernstein -->
    <g style="fill:#262626;" transform="translate(245.159375 34.22218)scale(0.12 -0.12)">
     <defs>
      <path d="M 570 4416 
L 570 0 
L 2163 0 
C 3034 0 3667 574 3667 1200 
C 3667 1685 3251 2176 2502 2317 
C 3334 2558 3501 3040 3501 3313 
C 3501 3883 2874 4416 1997 4416 
L 570 4416 
z
M 1088 2496 
L 1088 4059 
L 1824 4059 
C 2483 4059 3002 3724 3002 3306 
C 3002 2926 2592 2496 1766 2496 
L 1088 2496 
z
M 1088 357 
L 1088 2107 
L 1939 2107 
C 2630 2107 3162 1679 3162 1206 
C 3162 772 2694 357 1984 357 
L 1088 357 
z
" id="CMSS17-42" transform="scale(0.015625)"/>
      <path d="M 2502 1377 
C 2502 1590 2490 2003 2285 2345 
C 2061 2713 1696 2816 1421 2816 
C 755 2816 192 2188 192 1375 
C 192 582 774 -64 1510 -64 
C 1798 -64 2150 19 2470 248 
C 2470 274 2458 414 2451 420 
C 2451 433 2432 630 2432 656 
C 2125 407 1773 325 1517 325 
C 1107 325 666 667 646 1377 
L 2502 1377 
z
M 698 1728 
C 781 2084 1062 2421 1421 2421 
C 1517 2421 1965 2421 2080 1728 
L 698 1728 
z
" id="CMSS17-65" transform="scale(0.015625)"/>
      <path d="M 954 1363 
C 954 1965 1395 2368 1958 2368 
L 1958 2789 
C 1549 2789 1165 2585 934 2253 
L 934 2758 
L 480 2758 
L 480 0 
L 954 0 
L 954 1363 
z
" id="CMSS17-72" transform="scale(0.015625)"/>
      <path d="M 1069 2368 
L 1901 2368 
L 1901 2737 
L 1069 2737 
L 1069 3520 
L 614 3520 
L 614 2737 
L 109 2737 
L 109 2368 
L 602 2368 
L 602 749 
C 602 384 685 -64 1107 -64 
C 1427 -64 1722 25 2003 172 
L 1901 548 
C 1747 414 1562 337 1363 337 
C 1082 337 1069 696 1069 856 
L 1069 2368 
z
" id="CMSS17-74" transform="scale(0.015625)"/>
     </defs>
     <use transform="scale(0.996264)" xlink:href="#CMSS17-42"/>
     <use transform="translate(62.33804 0)scale(0.996264)" xlink:href="#CMSS17-65"/>
     <use transform="translate(103.976862 0)scale(0.996264)" xlink:href="#CMSS17-72"/>
     <use transform="translate(135.886635 0)scale(0.996264)" xlink:href="#CMSS17-6e"/>
     <use transform="translate(184.091578 0)scale(0.996264)" xlink:href="#CMSS17-73"/>
     <use transform="translate(220.00512 0)scale(0.996264)" xlink:href="#CMSS17-74"/>
     <use transform="translate(253.836687 0)scale(0.996264)" xlink:href="#CMSS17-65"/>
     <use transform="translate(295.475509 0)scale(0.996264)" xlink:href="#CMSS17-69"/>
     <use transform="translate(317.656232 0)scale(0.996264)" xlink:href="#CMSS17-6e"/>
    </g>
   </g>
  </g>
  <g id="axes_3">
   <g id="patch_4">
    <path d="M 357.971488 145.171983 
L 484.038462 145.171983 
L 484.038462 40.22218 
L 357.971488 40.22218 
z
" style="fill:none;opacity:0;"/>
   </g>
   <g id="matplotlib.axis_5">
    <g id="xtick_7">
     <g id="line2d_19">
      <path clip-path="url(#p86c26c7d27)" d="M 357.971488 145.171983 
L 357.971488 40.22218 
" style="fill:none;stroke:#ffffff;stroke-linecap:round;"/>
     </g>
     <g id="text_17">
      <!-- $\mathdefault{0.0}$ -->
      <g style="fill:#262626;" transform="translate(350.96995 162.28233)scale(0.11 -0.11)">
       <use transform="scale(0.996264)" xlink:href="#CMR17-30"/>
       <use transform="translate(45.690477 0)scale(0.996264)" xlink:href="#CMMI12-3a"/>
       <use transform="translate(72.787654 0)scale(0.996264)" xlink:href="#CMR17-30"/>
      </g>
     </g>
    </g>
    <g id="xtick_8">
     <g id="line2d_20">
      <path clip-path="url(#p86c26c7d27)" d="M 421.004975 145.171983 
L 421.004975 40.22218 
" style="fill:none;stroke:#ffffff;stroke-linecap:round;"/>
     </g>
     <g id="text_18">
      <!-- $\mathdefault{0.5}$ -->
      <g style="fill:#262626;" transform="translate(414.003437 162.28233)scale(0.11 -0.11)">
       <use transform="scale(0.996264)" xlink:href="#CMR17-30"/>
       <use transform="translate(45.690477 0)scale(0.996264)" xlink:href="#CMMI12-3a"/>
       <use transform="translate(72.787654 0)scale(0.996264)" xlink:href="#CMR17-35"/>
      </g>
     </g>
    </g>
    <g id="xtick_9">
     <g id="line2d_21">
      <path clip-path="url(#p86c26c7d27)" d="M 484.038462 145.171983 
L 484.038462 40.22218 
" style="fill:none;stroke:#ffffff;stroke-linecap:round;"/>
     </g>
     <g id="text_19">
      <!-- $\mathdefault{1.0}$ -->
      <g style="fill:#262626;" transform="translate(477.036924 162.28233)scale(0.11 -0.11)">
       <use transform="scale(0.996264)" xlink:href="#CMR17-31"/>
       <use transform="translate(45.690477 0)scale(0.996264)" xlink:href="#CMMI12-3a"/>
       <use transform="translate(72.787654 0)scale(0.996264)" xlink:href="#CMR17-30"/>
      </g>
     </g>
    </g>
    <g id="text_20">
     <!-- $u_1$ -->
     <g style="fill:#262626;" transform="translate(415.556664 176.715404)scale(0.12 -0.12)">
      <use transform="scale(0.996264)" xlink:href="#CMMI12-75"/>
      <use transform="translate(55.52033 -14.943915)scale(0.697382)" xlink:href="#CMR17-31"/>
     </g>
    </g>
   </g>
   <g id="matplotlib.axis_6">
    <g id="ytick_11">
     <g id="line2d_22">
      <path clip-path="url(#p86c26c7d27)" d="M 357.971488 145.171983 
L 484.038462 145.171983 
" style="fill:none;stroke:#ffffff;stroke-linecap:round;"/>
     </g>
    </g>
    <g id="ytick_12">
     <g id="line2d_23">
      <path clip-path="url(#p86c26c7d27)" d="M 357.971488 118.934532 
L 484.038462 118.934532 
" style="fill:none;stroke:#ffffff;stroke-linecap:round;"/>
     </g>
    </g>
    <g id="ytick_13">
     <g id="line2d_24">
      <path clip-path="url(#p86c26c7d27)" d="M 357.971488 92.697081 
L 484.038462 92.697081 
" style="fill:none;stroke:#ffffff;stroke-linecap:round;"/>
     </g>
    </g>
    <g id="ytick_14">
     <g id="line2d_25">
      <path clip-path="url(#p86c26c7d27)" d="M 357.971488 66.459631 
L 484.038462 66.459631 
" style="fill:none;stroke:#ffffff;stroke-linecap:round;"/>
     </g>
    </g>
    <g id="ytick_15">
     <g id="line2d_26">
      <path clip-path="url(#p86c26c7d27)" d="M 357.971488 40.22218 
L 484.038462 40.22218 
" style="fill:none;stroke:#ffffff;stroke-linecap:round;"/>
     </g>
    </g>
   </g>
   <g id="LineCollection_21">
    <path clip-path="url(#p86c26c7d27)" d="M 358.956386 145.159602 
L 396.382519 144.862811 
L 402.291908 144.574576 
L 406.231501 144.192199 
L 415.095585 142.922402 
L 428.884161 140.762018 
L 436.763347 139.28589 
L 442.672736 137.926013 
L 446.612329 136.807048 
L 450.948833 135.332939 
L 456.461311 133.213382 
L 465.220586 129.593497 
L 467.295192 128.572585 
L 469.691667 127.133736 
L 471.234785 125.966535 
L 472.61175 124.673975 
L 474.18948 122.862635 
L 477.28971 118.934532 
L 478.144057 118.114612 
L 480.201244 116.474771 
L 481.151305 114.834931 
L 481.919595 111.555249 
L 482.168424 109.915409 
L 483.144798 100.076364 
L 483.376943 92.697081 
L 483.462851 82.038117 
L 483.58067 69.739312 
L 483.968969 50.061224 
L 484.025313 41.0421 
L 483.053564 40.233126 
L 457.44621 40.419818 
L 450.551922 40.681145 
L 445.627431 41.076514 
L 440.70294 41.428266 
L 432.823754 41.727621 
L 421.004975 41.918662 
L 406.231501 42.170246 
L 400.322112 42.485576 
L 397.367417 42.794908 
L 393.942412 43.501861 
L 391.875438 44.321782 
L 390.47313 45.164537 
L 388.559499 46.781543 
L 386.533537 49.026503 
L 383.478334 52.520985 
L 381.609046 54.331232 
L 378.654351 56.786718 
L 374.714758 59.928824 
L 372.744961 61.749725 
L 370.775165 63.976165 
L 369.567097 65.63971 
L 368.078171 68.099471 
L 366.8307 70.559232 
L 364.692135 75.478754 
L 361.911081 81.873565 
L 360.393313 85.317798 
L 359.874085 86.957639 
L 359.421841 90.23732 
L 359.10159 94.336922 
L 358.921378 100.076364 
L 358.619731 114.01501 
L 358.12387 127.133736 
L 358.0091 138.61262 
L 357.986361 144.352063 
L 358.956386 145.159602 
L 358.956386 145.159602 
" style="fill:none;stroke:#cfe1f2;stroke-width:1.5;"/>
   </g>
   <g id="LineCollection_22">
    <path clip-path="url(#p86c26c7d27)" d="M 358.956386 145.145457 
L 376.684554 145.048797 
L 388.503333 144.871226 
L 395.397621 144.575415 
L 398.352315 144.35121 
L 405.246603 142.988333 
L 411.155993 141.585658 
L 415.849264 140.252461 
L 422.290745 137.7927 
L 428.22214 135.332939 
L 433.808652 133.203737 
L 450.551922 126.935371 
L 455.476413 124.779267 
L 458.431108 123.281135 
L 460.400904 122.155686 
L 463.355599 120.192473 
L 465.325395 118.648721 
L 467.673546 116.474771 
L 469.264988 114.752946 
L 471.234785 112.250258 
L 473.296674 109.095488 
L 475.174378 105.710491 
L 477.190968 101.716205 
L 478.383295 99.256444 
L 479.113971 97.365632 
L 479.692656 95.156842 
L 480.098869 92.438681 
L 480.430719 87.777559 
L 481.044795 78.758436 
L 481.46368 75.478754 
L 482.068665 71.848479 
L 483.057675 69.739312 
L 483.792512 54.160826 
L 483.982839 43.501861 
L 484.010292 41.0421 
L 483.053564 40.245631 
L 461.385802 40.49394 
L 455.476413 40.756828 
L 451.53682 41.131609 
L 447.597227 41.730733 
L 443.657634 42.115738 
L 436.763347 42.493366 
L 418.05028 43.378336 
L 414.110687 43.71569 
L 409.575472 44.321782 
L 406.231501 45.156063 
L 404.187239 45.961622 
L 402.291908 47.034447 
L 400.47215 48.421383 
L 398.799526 50.061224 
L 396.382519 52.858991 
L 393.427824 56.247052 
L 391.41291 58.260427 
L 388.503333 60.748163 
L 384.56374 63.675153 
L 380.624147 66.629926 
L 378.654351 68.33848 
L 376.684554 70.37074 
L 375.221262 72.199073 
L 373.589188 74.658834 
L 371.760063 77.938515 
L 369.08289 82.858037 
L 366.959031 86.137719 
L 364.652051 89.4174 
L 363.137085 91.877161 
L 362.332023 93.517002 
L 361.682599 95.156842 
L 360.926183 97.798279 
L 360.451324 100.896285 
L 359.937793 105.815807 
L 359.364301 114.01501 
L 358.33506 126.313815 
L 358.11059 133.693098 
L 358.003352 144.352063 
L 358.956386 145.145457 
L 358.956386 145.145457 
" style="fill:none;stroke:#b5d4e9;stroke-width:1.5;"/>
   </g>
   <g id="LineCollection_23">
    <path clip-path="url(#p86c26c7d27)" d="M 358.956386 145.131925 
L 371.760063 145.017772 
L 383.578842 144.875781 
L 391.458028 144.569411 
L 394.501739 144.352063 
L 399.337214 143.187447 
L 404.261705 141.685188 
L 408.201298 140.230631 
L 411.410287 138.61262 
L 415.190993 136.152859 
L 419.035178 133.648517 
L 421.989873 131.989756 
L 425.929466 130.081483 
L 431.838855 127.556318 
L 440.70294 123.799798 
L 444.642533 121.889598 
L 447.597227 120.247951 
L 450.551922 118.350243 
L 453.105879 116.474771 
L 457.44621 112.923265 
L 464.163788 107.455648 
L 466.310294 105.639693 
L 468.645289 103.356046 
L 470.249887 101.470371 
L 471.770262 99.256444 
L 473.147444 96.796683 
L 473.91494 95.156842 
L 474.912468 92.697081 
L 476.018705 89.4174 
L 476.938594 86.137719 
L 478.129072 81.068643 
L 480.861594 68.919392 
L 481.627914 66.459631 
L 482.068665 65.249695 
L 483.054279 63.99987 
L 483.552986 56.620587 
L 483.859332 48.421383 
L 483.995922 41.0421 
L 483.053564 40.257594 
L 462.370701 40.591389 
L 456.461311 40.940047 
L 455.342261 41.0421 
L 452.521718 41.754644 
L 448.582125 42.471162 
L 443.657634 42.966318 
L 425.929466 44.476418 
L 421.813379 45.141702 
L 418.05028 46.11494 
L 416.080484 46.819307 
L 414.110687 47.740139 
L 411.632358 49.241304 
L 409.510019 50.881144 
L 407.2164 53.010036 
L 404.589271 55.800666 
L 399.27534 61.540109 
L 396.382519 64.233884 
L 392.671152 67.279551 
L 387.518435 71.437448 
L 385.548638 73.293206 
L 383.578842 75.496143 
L 381.802085 77.938515 
L 380.29511 80.398276 
L 376.010248 87.777559 
L 374.223251 90.23732 
L 372.744961 91.950835 
L 370.775165 93.866703 
L 365.591158 98.436524 
L 364.337741 100.076364 
L 363.82667 100.896285 
L 362.732415 103.356046 
L 361.748989 106.635727 
L 360.519441 112.37517 
L 359.632152 117.294692 
L 358.6511 124.673975 
L 358.328046 129.593497 
L 358.128056 136.152859 
L 358.019606 144.352063 
L 358.956386 145.131925 
L 358.956386 145.131925 
" style="fill:none;stroke:#93c4de;stroke-width:1.5;"/>
   </g>
   <g id="LineCollection_24">
    <path clip-path="url(#p86c26c7d27)" d="M 358.956386 145.118264 
L 369.790267 144.972831 
L 381.609046 144.830716 
L 388.503333 144.562919 
L 391.610555 144.352063 
L 395.397621 143.254355 
L 400.322112 141.28554 
L 401.30701 140.838657 
L 403.947869 139.432541 
L 406.231501 137.775458 
L 408.898665 135.332939 
L 411.508961 132.873178 
L 413.469458 131.233337 
L 416.080484 129.355192 
L 419.035178 127.55554 
L 422.974771 125.472672 
L 434.79355 119.451445 
L 437.748245 117.638707 
L 440.584752 115.654851 
L 443.657634 113.193499 
L 452.521718 105.724517 
L 455.936671 103.356046 
L 464.788441 97.616603 
L 466.744123 95.976763 
L 468.363237 94.336922 
L 469.691229 92.697081 
L 471.234785 90.404531 
L 472.651606 87.777559 
L 474.18948 84.386771 
L 476.159276 79.061995 
L 481.083767 63.743269 
L 482.068665 61.763358 
L 483.057847 60.720188 
L 483.540389 54.160826 
L 483.850487 46.781543 
L 483.981414 41.0421 
L 483.053564 40.269672 
L 464.340497 40.625457 
L 458.431108 40.987387 
L 457.82037 41.0421 
L 456.461311 41.565237 
L 455.476413 41.882471 
L 454.491515 42.311011 
L 452.521718 42.856338 
L 449.567024 43.363302 
L 433.808652 45.34973 
L 429.869059 46.252417 
L 427.899263 46.870794 
L 425.929466 47.680079 
L 423.95967 48.726802 
L 421.922944 50.061224 
L 419.846406 51.701065 
L 417.065382 54.228649 
L 413.920817 57.440507 
L 409.186196 62.732181 
L 405.740842 66.459631 
L 403.249607 68.919392 
L 399.337214 72.448009 
L 394.115049 77.118595 
L 391.458028 79.842001 
L 388.916888 82.858037 
L 386.44154 86.137719 
L 382.593944 91.262405 
L 380.624147 93.623899 
L 378.420103 95.976763 
L 375.699656 98.483475 
L 372.614154 100.896285 
L 367.044505 104.995887 
L 366.203925 105.815807 
L 365.485697 106.635727 
L 364.335729 108.275568 
L 363.437776 109.915409 
L 362.331299 112.37517 
L 360.926183 115.857051 
L 359.633355 120.574373 
L 358.790985 125.493895 
L 358.400851 130.413417 
L 358.163376 136.97278 
L 358.036016 144.352063 
L 358.956386 145.118264 
L 358.956386 145.118264 
" style="fill:none;stroke:#6baed6;stroke-width:1.5;"/>
   </g>
   <g id="LineCollection_25">
    <path clip-path="url(#p86c26c7d27)" d="M 358.956386 145.105228 
L 368.805368 144.927968 
L 380.624147 144.776915 
L 387.518435 144.480409 
L 389.488231 144.30741 
L 392.442926 143.286008 
L 396.655969 141.072381 
L 399.337214 139.312808 
L 401.109204 137.7927 
L 403.299318 135.332939 
L 407.256553 130.413417 
L 409.64574 127.953656 
L 411.535689 126.313815 
L 414.110687 124.395093 
L 417.515326 122.214214 
L 428.149405 115.654851 
L 431.389606 113.19509 
L 434.207739 110.735329 
L 443.657634 102.008322 
L 446.318077 100.076364 
L 448.944957 98.436524 
L 452.521718 96.511361 
L 461.622763 91.877161 
L 463.355599 90.770927 
L 465.325395 89.279552 
L 467.295192 87.452838 
L 469.264988 85.196879 
L 471.485683 82.038117 
L 473.407517 78.758436 
L 475.174378 75.199989 
L 477.687334 68.919392 
L 479.992269 63.179949 
L 481.248609 60.720188 
L 482.068665 59.466674 
L 483.053564 58.548318 
L 483.527141 52.520985 
L 483.858457 45.141702 
L 483.967571 41.0421 
L 483.053564 40.281196 
L 464.340497 40.723318 
L 459.729462 41.0421 
L 458.431108 41.703377 
L 458.042511 41.86202 
L 457.153072 42.681941 
L 456.461311 43.044584 
L 454.491515 43.713672 
L 451.620025 44.321782 
L 448.582125 44.843489 
L 442.672736 45.797992 
L 440.70294 46.201276 
L 437.748245 46.970996 
L 435.778448 47.655253 
L 433.808652 48.572814 
L 431.838855 49.789584 
L 430.416505 50.881144 
L 428.653444 52.520985 
L 425.929466 55.489126 
L 422.881994 59.080348 
L 413.125789 70.687028 
L 410.108493 73.838914 
L 406.633347 77.118595 
L 395.825136 86.957639 
L 392.442926 90.476508 
L 387.518435 95.621277 
L 385.435087 97.616603 
L 382.593944 100.076364 
L 379.373371 102.536126 
L 375.699656 105.012455 
L 367.82047 110.107787 
L 365.850674 111.876819 
L 363.880877 114.280372 
L 360.926183 119.037788 
L 359.755185 122.214214 
L 358.793049 127.133736 
L 358.450873 131.233337 
L 358.20994 136.97278 
L 358.051674 144.352063 
L 358.956386 145.105228 
L 358.956386 145.105228 
" style="fill:none;stroke:#4a97c9;stroke-width:1.5;"/>
   </g>
   <g id="LineCollection_26">
    <path clip-path="url(#p86c26c7d27)" d="M 358.956386 145.094133 
L 367.82047 144.891425 
L 379.639249 144.741153 
L 386.533537 144.433409 
L 387.705062 144.352063 
L 390.47313 143.175259 
L 392.442926 141.79264 
L 394.510401 140.252461 
L 396.382519 138.594063 
L 397.844847 136.97278 
L 399.601973 134.513019 
L 405.392639 125.493895 
L 407.2164 123.359483 
L 409.230763 121.394293 
L 412.140891 118.994559 
L 421.989873 111.523952 
L 424.58007 109.095488 
L 426.914364 106.604124 
L 433.808652 98.881148 
L 435.778448 97.126515 
L 437.748245 95.637771 
L 439.778213 94.336922 
L 442.864464 92.697081 
L 445.627431 91.471479 
L 450.551922 89.605735 
L 457.647888 86.957639 
L 460.400904 85.691283 
L 462.548183 84.497878 
L 464.340497 83.333596 
L 466.310294 81.826424 
L 468.748171 79.578356 
L 470.296623 77.938515 
L 472.278191 75.478754 
L 474.18948 72.597674 
L 476.506767 68.099471 
L 479.678271 61.540109 
L 481.185357 59.080348 
L 482.068665 57.943875 
L 483.053564 57.042534 
L 483.552015 50.881144 
L 483.854236 44.321782 
L 483.955788 41.0421 
L 483.053564 40.291005 
L 465.325395 40.751279 
L 461.123008 41.0421 
L 459.837849 41.86202 
L 459.677434 42.681941 
L 459.416006 43.031629 
L 458.431108 43.823252 
L 456.461311 44.678799 
L 453.506617 45.481861 
L 444.299841 47.601463 
L 441.687838 48.570836 
L 439.718041 49.579965 
L 438.733143 50.207747 
L 436.900553 51.701065 
L 435.372646 53.340905 
L 433.526482 55.800666 
L 430.329887 60.720188 
L 426.543467 66.459631 
L 422.490179 72.199073 
L 419.980351 75.478754 
L 417.90429 77.938515 
L 415.557408 80.398276 
L 412.855978 82.858037 
L 409.186196 85.80358 
L 401.30701 91.99363 
L 395.397621 97.157481 
L 391.938524 100.076364 
L 388.611933 102.536126 
L 385.548638 104.479736 
L 381.609046 106.656101 
L 368.805368 113.347498 
L 366.698214 114.834931 
L 364.827995 116.474771 
L 362.595551 118.934532 
L 360.926183 121.049132 
L 359.738568 123.854054 
L 358.83154 127.953656 
L 358.474231 132.053258 
L 358.227066 137.7927 
L 358.065002 144.352063 
L 358.956386 145.094133 
L 358.956386 145.094133 
" style="fill:none;stroke:#2e7ebb;stroke-width:1.5;"/>
   </g>
   <g id="LineCollection_27">
    <path clip-path="url(#p86c26c7d27)" d="M 358.956386 145.086791 
L 367.82047 144.864965 
L 378.654351 144.729312 
L 385.548638 144.430101 
L 386.700226 144.352063 
L 388.791634 143.532142 
L 393.132695 139.432541 
L 395.251421 136.97278 
L 396.85832 134.513019 
L 398.352315 131.617107 
L 400.009424 127.953656 
L 401.911964 123.854054 
L 403.276807 121.352762 
L 404.882209 118.934532 
L 406.231501 117.240166 
L 408.506888 114.834931 
L 412.140891 111.466694 
L 415.095585 108.564427 
L 416.775276 106.635727 
L 418.05028 104.924182 
L 419.509409 102.536126 
L 420.702465 100.076364 
L 421.626793 97.616603 
L 422.295326 95.156842 
L 422.518282 93.517002 
L 422.471654 92.697081 
L 421.989873 91.794002 
L 421.004975 91.511268 
L 420.020077 91.543123 
L 418.05028 91.903086 
L 415.095585 92.793308 
L 412.140891 93.954701 
L 409.186196 95.37763 
L 406.231501 97.088485 
L 403.009076 99.256444 
L 395.9311 104.175966 
L 392.970937 105.815807 
L 390.47313 106.958101 
L 386.533537 108.470055 
L 375.699656 112.386001 
L 371.760063 114.092521 
L 368.708472 115.654851 
L 366.835572 116.799764 
L 364.865776 118.277484 
L 362.410189 120.574373 
L 361.636479 121.394293 
L 360.914709 122.214214 
L 359.941284 123.939458 
L 358.816241 128.773576 
L 358.466831 132.873178 
L 358.230282 138.61262 
L 358.073821 144.352063 
L 358.956386 145.086791 
L 358.956386 145.086791 
" style="fill:none;stroke:#1764ab;stroke-width:1.5;"/>
    <path clip-path="url(#p86c26c7d27)" d="M 427.899263 87.505847 
L 428.884161 87.591877 
L 430.853957 87.439036 
L 434.79355 86.834213 
L 447.597227 84.484165 
L 453.506617 83.189815 
L 457.44621 82.064531 
L 460.400904 80.967142 
L 463.355599 79.56485 
L 466.066877 77.938515 
L 467.295192 77.092563 
L 469.318272 75.478754 
L 471.234785 73.656492 
L 473.204581 71.321764 
L 475.29767 68.099471 
L 479.915557 59.900268 
L 481.745966 57.440507 
L 482.580599 56.620587 
L 483.053564 56.185486 
L 483.560314 50.061224 
L 483.859825 43.501861 
L 483.947991 41.0421 
L 483.053564 40.297496 
L 465.325395 40.801179 
L 461.955092 41.0421 
L 460.89792 41.86202 
L 461.092065 42.681941 
L 460.837686 43.501861 
L 460.064808 44.321782 
L 458.681167 45.141702 
L 457.44621 45.657342 
L 454.491515 46.542669 
L 449.567024 47.819241 
L 446.612329 48.799148 
L 444.642533 49.680285 
L 443.657634 50.225747 
L 442.657296 50.881144 
L 440.783808 52.520985 
L 439.423393 54.160826 
L 438.348759 55.800666 
L 437.022886 58.260427 
L 434.371815 63.99987 
L 429.618598 74.658834 
L 428.121182 78.758436 
L 427.17493 82.038117 
L 426.687376 84.497878 
L 426.643211 86.137719 
L 426.914364 86.957639 
L 427.899263 87.505847 
L 427.899263 87.505847 
" style="fill:none;stroke:#1764ab;stroke-width:1.5;"/>
   </g>
   <g id="LineCollection_28">
    <path clip-path="url(#p86c26c7d27)" d="M 358.956386 145.07766 
L 366.835572 144.838281 
L 379.639249 144.649987 
L 385.548638 144.34137 
L 387.518435 143.324819 
L 388.018772 142.712222 
L 389.64718 140.252461 
L 392.442926 136.376769 
L 393.067157 135.332939 
L 394.246467 132.873178 
L 395.102562 130.413417 
L 395.700389 127.953656 
L 396.06664 125.493895 
L 396.184611 123.034134 
L 396.088263 121.394293 
L 395.789893 119.754453 
L 395.171514 118.114612 
L 394.412723 116.972419 
L 393.427824 116.034848 
L 392.442926 115.410318 
L 391.071245 114.834931 
L 389.488231 114.422719 
L 387.518435 114.154339 
L 385.548638 114.073882 
L 382.593944 114.21893 
L 379.639249 114.631306 
L 376.684554 115.279977 
L 373.72986 116.143224 
L 370.584108 117.294692 
L 367.82047 118.527337 
L 365.65544 119.754453 
L 363.880877 120.941966 
L 361.381368 123.034134 
L 360.926183 123.445917 
L 359.816772 125.493895 
L 358.811065 129.593497 
L 358.466105 133.693098 
L 358.238719 139.432541 
L 358.08479 144.352063 
L 358.956386 145.07766 
L 358.956386 145.07766 
" style="fill:none;stroke:#084a92;stroke-width:1.5;"/>
    <path clip-path="url(#p86c26c7d27)" d="M 449.567024 75.53919 
L 451.53682 75.831877 
L 453.506617 75.950531 
L 456.461311 75.859254 
L 459.416006 75.468064 
L 462.370701 74.769656 
L 465.325395 73.722405 
L 467.295192 72.79038 
L 469.579605 71.379153 
L 471.234785 70.096652 
L 473.204581 68.099471 
L 475.174378 65.511187 
L 478.354876 60.720188 
L 480.177999 58.260427 
L 481.587797 56.620587 
L 483.053564 55.239719 
L 483.564886 49.241304 
L 483.840678 43.501861 
L 483.938294 41.0421 
L 483.053564 40.305569 
L 465.325395 40.863239 
L 462.914607 41.0421 
L 462.109323 41.86202 
L 462.648226 42.681941 
L 462.832712 43.501861 
L 462.640263 44.321782 
L 462.078877 45.141702 
L 461.103009 45.961622 
L 459.416006 46.875036 
L 457.44621 47.630948 
L 450.528691 50.061224 
L 448.582125 51.088903 
L 447.597227 51.737647 
L 446.612329 52.538776 
L 445.134184 54.160826 
L 444.096259 55.800666 
L 443.34839 57.440507 
L 442.672736 59.555294 
L 442.23287 61.540109 
L 441.915587 63.99987 
L 441.847173 66.459631 
L 441.981697 68.099471 
L 442.327588 69.739312 
L 443.000376 71.379153 
L 443.657634 72.371356 
L 444.642533 73.382504 
L 445.627431 74.089288 
L 446.716779 74.658834 
L 448.582125 75.308205 
L 449.567024 75.53919 
L 449.567024 75.53919 
" style="fill:none;stroke:#084a92;stroke-width:1.5;"/>
   </g>
   <g id="LineCollection_29">
    <path clip-path="url(#p86c26c7d27)" d="M 358.956386 145.045106 
L 359.941284 144.990292 
L 360.926183 144.933251 
L 361.911081 144.8773 
L 362.895979 144.826791 
L 363.880877 144.785774 
L 364.865776 144.755825 
L 365.850674 144.735824 
L 366.835572 144.72311 
L 367.82047 144.714739 
L 368.805368 144.708198 
L 369.790267 144.701614 
L 370.775165 144.693689 
L 371.760063 144.683546 
L 372.744961 144.670582 
L 373.72986 144.65436 
L 374.714758 144.63453 
L 375.699656 144.610775 
L 376.684554 144.582784 
L 377.669453 144.55022 
L 378.654351 144.51271 
L 379.639249 144.469831 
L 380.624147 144.421099 
L 381.609046 144.365959 
L 381.842098 144.352063 
L 382.593944 143.793017 
L 383.00203 143.532142 
L 382.691242 142.712222 
L 382.593944 142.557454 
L 382.09873 141.892302 
L 381.609046 141.200313 
L 381.505122 141.072381 
L 381.078726 140.252461 
L 380.864424 139.432541 
L 380.845098 138.61262 
L 380.965462 137.7927 
L 381.164643 136.97278 
L 381.391723 136.152859 
L 381.609046 135.332939 
L 381.794295 134.513019 
L 381.921958 133.693098 
L 381.978221 132.873178 
L 381.951756 132.053258 
L 381.831784 131.233337 
L 381.609046 130.421967 
L 381.606575 130.413417 
L 381.260055 129.593497 
L 380.770941 128.773576 
L 380.624147 128.579608 
L 380.101238 127.953656 
L 379.639249 127.510972 
L 379.190866 127.133736 
L 378.654351 126.755453 
L 377.909586 126.313815 
L 377.669453 126.190339 
L 376.684554 125.766639 
L 375.865751 125.493895 
L 375.699656 125.444213 
L 374.714758 125.210182 
L 373.72986 125.045175 
L 372.744961 124.939872 
L 371.760063 124.886553 
L 370.775165 124.879153 
L 369.790267 124.913369 
L 368.805368 124.986771 
L 367.82047 125.098842 
L 366.835572 125.250817 
L 365.850674 125.445156 
L 365.659353 125.493895 
L 364.865776 125.677396 
L 363.880877 125.950029 
L 362.895979 126.265311 
L 362.775881 126.313815 
L 361.911081 126.624281 
L 360.935589 127.133736 
L 360.926183 127.138091 
L 360.205597 127.953656 
L 359.941284 128.218246 
L 359.755474 128.773576 
L 359.446372 129.593497 
L 359.074164 130.413417 
L 358.956386 130.628533 
L 358.882629 131.233337 
L 358.79084 132.053258 
L 358.709205 132.873178 
L 358.636812 133.693098 
L 358.572847 134.513019 
L 358.516587 135.332939 
L 358.467393 136.152859 
L 358.424701 136.97278 
L 358.388019 137.7927 
L 358.356912 138.61262 
L 358.330949 139.432541 
L 358.309563 140.252461 
L 358.291608 141.072381 
L 358.274183 141.892302 
L 358.250199 142.712222 
L 358.205878 143.532142 
L 358.123894 144.352063 
L 358.956386 145.045106 
" style="fill:none;stroke:#08306b;stroke-width:1.5;"/>
    <path clip-path="url(#p86c26c7d27)" d="M 471.234785 57.555868 
L 472.219683 57.676313 
L 473.204581 57.687072 
L 474.18948 57.601616 
L 475.047661 57.440507 
L 475.174378 57.421521 
L 476.159276 57.15036 
L 477.144174 56.766157 
L 477.394108 56.620587 
L 478.129072 56.271504 
L 478.849375 55.800666 
L 479.113971 55.657262 
L 480.057322 54.980746 
L 480.098869 54.955643 
L 481.083767 54.234176 
L 481.176421 54.160826 
L 482.068665 53.539832 
L 482.286813 53.340905 
L 483.053564 52.638673 
L 483.066623 52.520985 
L 483.159176 51.701065 
L 483.245668 50.881144 
L 483.326353 50.061224 
L 483.401441 49.241304 
L 483.471097 48.421383 
L 483.535432 47.601463 
L 483.594492 46.781543 
L 483.648213 45.961622 
L 483.696337 45.141702 
L 483.738218 44.321782 
L 483.772416 43.501861 
L 483.79633 42.681941 
L 483.814062 41.86202 
L 483.903723 41.0421 
L 483.053564 40.334349 
L 482.068665 40.368179 
L 481.083767 40.405175 
L 480.098869 40.436634 
L 479.113971 40.464548 
L 478.129072 40.491041 
L 477.144174 40.517467 
L 476.159276 40.54474 
L 475.174378 40.573586 
L 474.18948 40.604639 
L 473.204581 40.638477 
L 472.219683 40.675659 
L 471.234785 40.716748 
L 470.249887 40.762347 
L 469.264988 40.813119 
L 468.28009 40.869807 
L 467.295192 40.93326 
L 466.310294 41.004448 
L 465.823023 41.0421 
L 465.732303 41.86202 
L 466.310294 42.270389 
L 466.982818 42.681941 
L 467.295192 42.992694 
L 467.838549 43.501861 
L 468.28009 44.190365 
L 468.363906 44.321782 
L 468.653876 45.141702 
L 468.816535 45.961622 
L 468.888515 46.781543 
L 468.893245 47.601463 
L 468.846919 48.421383 
L 468.761802 49.241304 
L 468.648297 50.061224 
L 468.516512 50.881144 
L 468.377777 51.701065 
L 468.28009 52.334187 
L 468.241879 52.520985 
L 468.126186 53.340905 
L 468.079648 54.160826 
L 468.154993 54.980746 
L 468.28009 55.383584 
L 468.431844 55.800666 
L 469.085209 56.620587 
L 469.264988 56.755131 
L 470.249887 57.282799 
L 470.744158 57.440507 
L 471.234785 57.555868 
" style="fill:none;stroke:#08306b;stroke-width:1.5;"/>
   </g>
   <g id="LineCollection_30">
    <path clip-path="url(#p86c26c7d27)" d="M 358.956386 145.171696 
L 419.035178 145.063906 
L 428.884161 144.819433 
L 435.778448 144.449879 
L 438.733143 144.321896 
L 450.551922 143.993247 
L 455.476413 143.665713 
L 464.340497 142.676379 
L 467.295192 142.125283 
L 471.234785 140.949194 
L 473.204581 140.137082 
L 475.174378 139.136662 
L 477.144174 137.784568 
L 482.012446 133.693098 
L 482.068665 133.625762 
L 482.709574 132.053258 
L 483.404536 128.773576 
L 483.682135 126.313815 
L 483.869725 122.214214 
L 483.982991 113.19509 
L 484.025035 83.677958 
L 484.038157 41.0421 
L 483.053564 40.222434 
L 405.246603 40.338002 
L 390.47313 40.469835 
L 384.56374 40.710104 
L 374.714758 41.526794 
L 372.744961 41.951009 
L 370.463513 42.681941 
L 367.82047 43.716727 
L 365.850674 44.604058 
L 364.865776 45.213496 
L 363.880877 46.083597 
L 363.326291 46.781543 
L 362.523199 48.421383 
L 362.062582 50.061224 
L 361.07923 55.800666 
L 360.829921 57.440507 
L 359.729897 62.360029 
L 358.956386 64.81979 
L 358.622356 66.459631 
L 358.344618 68.919392 
L 358.143615 73.018993 
L 358.029697 81.218197 
L 357.99091 108.275568 
L 357.971833 144.352063 
L 358.956386 145.171696 
L 358.956386 145.171696 
" style="fill:none;stroke:#f7fbff;stroke-width:1.5;"/>
   </g>
   <g id="line2d_27">
    <path clip-path="url(#p86c26c7d27)" d="M 357.971488 145.171983 
L 484.038462 145.171983 
L 484.038462 40.22218 
L 357.971488 40.22218 
L 357.971488 145.171983 
" style="fill:none;stroke:#e3eef8;stroke-linecap:round;"/>
   </g>
   <g id="text_21">
    <!-- Kernel Smoothing -->
    <g style="fill:#262626;" transform="translate(377.135291 34.22218)scale(0.12 -0.12)">
     <defs>
      <path d="M 2234 2666 
L 3827 4416 
L 3213 4416 
L 1101 2106 
L 1101 4416 
L 563 4416 
L 563 0 
L 1101 0 
L 1101 1432 
L 1875 2278 
L 3315 0 
L 3910 0 
L 2234 2666 
z
" id="CMSS17-4b" transform="scale(0.015625)"/>
      <path d="M 947 4416 
L 474 4416 
L 474 0 
L 947 0 
L 947 4416 
z
" id="CMSS17-6c" transform="scale(0.015625)"/>
      <path d="M 2797 4169 
C 2515 4334 2208 4480 1690 4480 
C 864 4480 333 3879 333 3266 
C 333 3025 403 2753 653 2475 
C 902 2196 1184 2121 1542 2033 
C 1690 1994 1939 1924 1984 1906 
C 2342 1767 2515 1444 2515 1140 
C 2515 742 2202 318 1645 318 
C 1453 318 890 318 358 819 
L 269 318 
C 794 -64 1363 -128 1651 -128 
C 2438 -128 3002 488 3002 1186 
C 3002 1440 2925 1763 2656 2061 
C 2394 2347 2163 2410 1638 2549 
C 1338 2626 1146 2677 986 2873 
C 877 3013 819 3146 819 3317 
C 819 3673 1126 4060 1690 4060 
C 1971 4060 2336 4002 2707 3660 
L 2797 4169 
z
" id="CMSS17-53" transform="scale(0.015625)"/>
      <path d="M 4288 1877 
C 4288 2308 4179 2816 3462 2816 
C 2982 2816 2694 2516 2566 2331 
C 2451 2670 2182 2816 1798 2816 
C 1363 2816 1088 2568 941 2389 
L 941 2758 
L 474 2758 
L 474 0 
L 960 0 
L 960 1559 
C 960 1939 1101 2428 1555 2428 
C 2138 2428 2138 2016 2138 1829 
L 2138 0 
L 2624 0 
L 2624 1559 
C 2624 1939 2765 2428 3219 2428 
C 3802 2428 3802 2016 3802 1829 
L 3802 0 
L 4288 0 
L 4288 1877 
z
" id="CMSS17-6d" transform="scale(0.015625)"/>
      <path d="M 2829 1356 
C 2829 2176 2221 2816 1504 2816 
C 768 2816 173 2157 173 1356 
C 173 544 787 -64 1498 -64 
C 2227 -64 2829 563 2829 1356 
z
M 1504 337 
C 1050 337 659 709 659 1408 
C 659 2151 1114 2427 1498 2427 
C 1914 2427 2342 2126 2342 1408 
C 2342 683 1926 337 1504 337 
z
" id="CMSS17-6f" transform="scale(0.015625)"/>
      <path d="M 2618 1891 
C 2618 2292 2522 2820 1798 2820 
C 1395 2820 1133 2623 947 2407 
L 947 4448 
L 474 4448 
L 474 32 
L 960 32 
L 960 1573 
C 960 1973 1114 2432 1549 2432 
C 2112 2432 2131 2056 2131 1839 
L 2131 32 
L 2618 32 
L 2618 1891 
z
" id="CMSS17-68" transform="scale(0.015625)"/>
      <path d="M 2848 2808 
C 2483 2808 2170 2738 1914 2617 
C 1702 2777 1485 2808 1338 2808 
C 781 2808 358 2349 358 1814 
C 358 1468 550 1207 563 1195 
C 448 1035 384 863 384 672 
C 384 448 474 289 544 200 
C 211 -3 166 -314 166 -435 
C 166 -898 749 -1280 1498 -1280 
C 2253 -1280 2835 -898 2835 -428 
C 2835 448 1856 448 1587 448 
L 1069 448 
C 973 448 717 448 717 791 
C 717 921 774 1004 781 1010 
C 877 940 1075 832 1338 832 
C 1869 832 2310 1278 2310 1827 
C 2310 2132 2170 2355 2112 2432 
L 2131 2432 
C 2150 2432 2419 2432 2515 2432 
C 2720 2432 2739 2429 2918 2419 
L 2848 2808 
z
M 1338 1182 
C 1120 1182 813 1315 813 1823 
C 813 2375 1165 2464 1331 2464 
C 1549 2464 1856 2331 1856 1823 
C 1856 1271 1504 1182 1338 1182 
z
M 1581 -10 
C 1734 -10 2381 -10 2381 -442 
C 2381 -714 1984 -929 1504 -929 
C 1018 -929 621 -720 621 -435 
C 621 -403 621 -10 1062 -10 
L 1581 -10 
z
" id="CMSS17-67" transform="scale(0.015625)"/>
     </defs>
     <use transform="scale(0.996264)" xlink:href="#CMSS17-4b"/>
     <use transform="translate(64.820294 0)scale(0.996264)" xlink:href="#CMSS17-65"/>
     <use transform="translate(106.459116 0)scale(0.996264)" xlink:href="#CMSS17-72"/>
     <use transform="translate(138.368888 0)scale(0.996264)" xlink:href="#CMSS17-6e"/>
     <use transform="translate(186.573831 0)scale(0.996264)" xlink:href="#CMSS17-65"/>
     <use transform="translate(228.212653 0)scale(0.996264)" xlink:href="#CMSS17-6c"/>
     <use transform="translate(281.622489 0)scale(0.996264)" xlink:href="#CMSS17-53"/>
     <use transform="translate(333.671005 0)scale(0.996264)" xlink:href="#CMSS17-6d"/>
     <use transform="translate(407.90026 0)scale(0.996264)" xlink:href="#CMSS17-6f"/>
     <use transform="translate(457.346322 0)scale(0.996264)" xlink:href="#CMSS17-6f"/>
     <use transform="translate(504.189946 0)scale(0.996264)" xlink:href="#CMSS17-74"/>
     <use transform="translate(538.021512 0)scale(0.996264)" xlink:href="#CMSS17-68"/>
     <use transform="translate(586.226455 0)scale(0.996264)" xlink:href="#CMSS17-69"/>
     <use transform="translate(608.407179 0)scale(0.996264)" xlink:href="#CMSS17-6e"/>
     <use transform="translate(656.612122 0)scale(0.996264)" xlink:href="#CMSS17-67"/>
    </g>
   </g>
  </g>
 </g>
 <defs>
  <clipPath id="p9c91d1299f">
   <rect height="104.949803" width="126.066974" x="51.911387" y="40.22218"/>
  </clipPath>
  <clipPath id="p508212ebd3">
   <rect height="104.949803" width="126.066974" x="204.941438" y="40.22218"/>
  </clipPath>
  <clipPath id="p86c26c7d27">
   <rect height="104.949803" width="126.066974" x="357.971488" y="40.22218"/>
  </clipPath>
 </defs>
</svg>
