<?xml version="1.0" encoding="utf-8" standalone="no"?>
<!DOCTYPE svg PUBLIC "-//W3C//DTD SVG 1.1//EN"
  "http://www.w3.org/Graphics/SVG/1.1/DTD/svg11.dtd">
<svg height="174pt" version="1.1" viewBox="0 0 522 174" width="522pt" xmlns="http://www.w3.org/2000/svg" xmlns:xlink="http://www.w3.org/1999/xlink">
 <metadata>
  <rdf:RDF xmlns:cc="http://creativecommons.org/ns#" xmlns:dc="http://purl.org/dc/elements/1.1/" xmlns:rdf="http://www.w3.org/1999/02/22-rdf-syntax-ns#">
   <cc:Work>
    <dc:type rdf:resource="http://purl.org/dc/dcmitype/StillImage"/>
    <dc:date>2021-08-10T20:40:00.832582</dc:date>
    <dc:format>image/svg+xml</dc:format>
    <dc:creator>
     <cc:Agent>
      <dc:title>Matplotlib v3.4.2, https://matplotlib.org/</dc:title>
     </cc:Agent>
    </dc:creator>
   </cc:Work>
  </rdf:RDF>
 </metadata>
 <defs>
  <style type="text/css">*{stroke-linecap:butt;stroke-linejoin:round;}</style>
 </defs>
 <g id="figure_1">
  <g id="patch_1">
   <path d="M 0 174 
L 522 174 
L 522 0 
L 0 0 
z
" style="fill:none;"/>
  </g>
  <g id="axes_1">
   <g id="patch_2">
    <path d="M 51.911387 127.171983 
L 162.678462 127.171983 
L 162.678462 40.22218 
L 51.911387 40.22218 
z
" style="fill:none;opacity:0;"/>
   </g>
   <g id="matplotlib.axis_1">
    <g id="xtick_1">
     <g id="line2d_1">
      <path clip-path="url(#p135cc52b8d)" d="M 51.911387 127.171983 
L 51.911387 40.22218 
" style="fill:none;stroke:#ffffff;stroke-linecap:round;"/>
     </g>
     <g id="text_1">
      <!-- $\mathdefault{0.0}$ -->
      <g style="fill:#262626;" transform="translate(44.909849 144.28233)scale(0.11 -0.11)">
       <defs>
        <path d="M 2688 2025 
C 2688 2416 2682 3080 2413 3591 
C 2176 4039 1798 4198 1466 4198 
C 1158 4198 768 4058 525 3597 
C 269 3118 243 2524 243 2025 
C 243 1661 250 1106 448 619 
C 723 -39 1216 -128 1466 -128 
C 1760 -128 2208 -7 2470 600 
C 2662 1042 2688 1559 2688 2025 
z
M 1466 -26 
C 1056 -26 813 325 723 812 
C 653 1188 653 1738 653 2096 
C 653 2588 653 2997 736 3387 
C 858 3929 1216 4096 1466 4096 
C 1728 4096 2067 3923 2189 3400 
C 2272 3036 2278 2607 2278 2096 
C 2278 1680 2278 1169 2202 792 
C 2067 95 1690 -26 1466 -26 
z
" id="CMR17-30" transform="scale(0.015625)"/>
        <path d="M 1178 307 
C 1178 492 1024 619 870 619 
C 685 619 557 466 557 313 
C 557 128 710 0 864 0 
C 1050 0 1178 153 1178 307 
z
" id="CMMI12-3a" transform="scale(0.015625)"/>
       </defs>
       <use transform="scale(0.996264)" xlink:href="#CMR17-30"/>
       <use transform="translate(45.690477 0)scale(0.996264)" xlink:href="#CMMI12-3a"/>
       <use transform="translate(72.787654 0)scale(0.996264)" xlink:href="#CMR17-30"/>
      </g>
     </g>
    </g>
    <g id="xtick_2">
     <g id="line2d_2">
      <path clip-path="url(#p135cc52b8d)" d="M 107.294925 127.171983 
L 107.294925 40.22218 
" style="fill:none;stroke:#ffffff;stroke-linecap:round;"/>
     </g>
     <g id="text_2">
      <!-- $\mathdefault{0.5}$ -->
      <g style="fill:#262626;" transform="translate(100.293387 144.28233)scale(0.11 -0.11)">
       <defs>
        <path d="M 730 3692 
C 794 3666 1056 3584 1325 3584 
C 1920 3584 2246 3911 2432 4100 
C 2432 4157 2432 4192 2394 4192 
C 2387 4192 2374 4192 2323 4163 
C 2099 4058 1837 3973 1517 3973 
C 1325 3973 1037 3999 723 4139 
C 653 4171 640 4171 634 4171 
C 602 4171 595 4164 595 4037 
L 595 2203 
C 595 2089 595 2057 659 2057 
C 691 2057 704 2070 736 2114 
C 941 2401 1222 2522 1542 2522 
C 1766 2522 2246 2382 2246 1289 
C 2246 1085 2246 715 2054 421 
C 1894 159 1645 25 1370 25 
C 947 25 518 320 403 814 
C 429 807 480 795 506 795 
C 589 795 749 840 749 1038 
C 749 1210 627 1280 506 1280 
C 358 1280 262 1190 262 1011 
C 262 454 704 -128 1382 -128 
C 2042 -128 2669 440 2669 1264 
C 2669 2030 2170 2624 1549 2624 
C 1222 2624 947 2503 730 2274 
L 730 3692 
z
" id="CMR17-35" transform="scale(0.015625)"/>
       </defs>
       <use transform="scale(0.996264)" xlink:href="#CMR17-30"/>
       <use transform="translate(45.690477 0)scale(0.996264)" xlink:href="#CMMI12-3a"/>
       <use transform="translate(72.787654 0)scale(0.996264)" xlink:href="#CMR17-35"/>
      </g>
     </g>
    </g>
    <g id="xtick_3">
     <g id="line2d_3">
      <path clip-path="url(#p135cc52b8d)" d="M 162.678462 127.171983 
L 162.678462 40.22218 
" style="fill:none;stroke:#ffffff;stroke-linecap:round;"/>
     </g>
     <g id="text_3">
      <!-- $\mathdefault{1.0}$ -->
      <g style="fill:#262626;" transform="translate(155.676924 144.28233)scale(0.11 -0.11)">
       <defs>
        <path d="M 1702 4058 
C 1702 4192 1696 4192 1606 4192 
C 1357 3916 979 3827 621 3827 
C 602 3827 570 3827 563 3808 
C 557 3795 557 3782 557 3648 
C 755 3648 1088 3686 1344 3839 
L 1344 461 
C 1344 236 1331 160 781 160 
L 589 160 
L 589 0 
C 896 0 1216 0 1523 0 
C 1830 0 2150 0 2458 0 
L 2458 160 
L 2266 160 
C 1715 160 1702 230 1702 458 
L 1702 4058 
z
" id="CMR17-31" transform="scale(0.015625)"/>
       </defs>
       <use transform="scale(0.996264)" xlink:href="#CMR17-31"/>
       <use transform="translate(45.690477 0)scale(0.996264)" xlink:href="#CMMI12-3a"/>
       <use transform="translate(72.787654 0)scale(0.996264)" xlink:href="#CMR17-30"/>
      </g>
     </g>
    </g>
    <g id="text_4">
     <!-- $u_1$ -->
     <g style="fill:#262626;" transform="translate(101.846613 158.715404)scale(0.12 -0.12)">
      <defs>
       <path d="M 2182 370 
C 2266 13 2573 -64 2726 -64 
C 2931 -64 3085 70 3187 287 
C 3296 517 3379 894 3379 913 
C 3379 945 3354 971 3315 971 
C 3258 971 3251 939 3226 843 
C 3110 402 2995 64 2739 64 
C 2547 64 2547 275 2547 358 
C 2547 505 2566 568 2630 837 
C 2675 1009 2720 1181 2758 1360 
L 3021 2401 
C 3066 2561 3066 2574 3066 2593 
C 3066 2689 2989 2753 2893 2753 
C 2707 2753 2662 2593 2624 2433 
C 2560 2184 2214 811 2170 588 
C 2163 588 1914 64 1446 64 
C 1114 64 1050 351 1050 588 
C 1050 952 1229 1462 1395 1890 
C 1472 2095 1504 2178 1504 2305 
C 1504 2580 1306 2816 998 2816 
C 410 2816 173 1890 173 1839 
C 173 1814 198 1782 243 1782 
C 301 1782 307 1807 333 1896 
C 486 2441 736 2682 979 2682 
C 1043 2682 1146 2682 1146 2478 
C 1146 2312 1075 2127 979 1884 
C 698 1124 666 881 666 690 
C 666 38 1158 -64 1421 -64 
C 1830 -64 2054 217 2182 370 
z
" id="CMMI12-75" transform="scale(0.015625)"/>
      </defs>
      <use transform="scale(0.996264)" xlink:href="#CMMI12-75"/>
      <use transform="translate(55.52033 -14.943915)scale(0.697382)" xlink:href="#CMR17-31"/>
     </g>
    </g>
   </g>
   <g id="matplotlib.axis_2">
    <g id="ytick_1">
     <g id="line2d_4">
      <path clip-path="url(#p135cc52b8d)" d="M 51.911387 127.171983 
L 162.678462 127.171983 
" style="fill:none;stroke:#ffffff;stroke-linecap:round;"/>
     </g>
     <g id="text_5">
      <!-- $\mathdefault{0.0}$ -->
      <g style="fill:#262626;" transform="translate(28.408311 130.977156)scale(0.11 -0.11)">
       <use transform="scale(0.996264)" xlink:href="#CMR17-30"/>
       <use transform="translate(45.690477 0)scale(0.996264)" xlink:href="#CMMI12-3a"/>
       <use transform="translate(72.787654 0)scale(0.996264)" xlink:href="#CMR17-30"/>
      </g>
     </g>
    </g>
    <g id="ytick_2">
     <g id="line2d_5">
      <path clip-path="url(#p135cc52b8d)" d="M 51.911387 83.697081 
L 162.678462 83.697081 
" style="fill:none;stroke:#ffffff;stroke-linecap:round;"/>
     </g>
     <g id="text_6">
      <!-- $\mathdefault{0.5}$ -->
      <g style="fill:#262626;" transform="translate(28.408311 87.502255)scale(0.11 -0.11)">
       <use transform="scale(0.996264)" xlink:href="#CMR17-30"/>
       <use transform="translate(45.690477 0)scale(0.996264)" xlink:href="#CMMI12-3a"/>
       <use transform="translate(72.787654 0)scale(0.996264)" xlink:href="#CMR17-35"/>
      </g>
     </g>
    </g>
    <g id="ytick_3">
     <g id="line2d_6">
      <path clip-path="url(#p135cc52b8d)" d="M 51.911387 40.22218 
L 162.678462 40.22218 
" style="fill:none;stroke:#ffffff;stroke-linecap:round;"/>
     </g>
     <g id="text_7">
      <!-- $\mathdefault{1.0}$ -->
      <g style="fill:#262626;" transform="translate(28.408311 44.027353)scale(0.11 -0.11)">
       <use transform="scale(0.996264)" xlink:href="#CMR17-31"/>
       <use transform="translate(45.690477 0)scale(0.996264)" xlink:href="#CMMI12-3a"/>
       <use transform="translate(72.787654 0)scale(0.996264)" xlink:href="#CMR17-30"/>
      </g>
     </g>
    </g>
    <g id="text_8">
     <!-- $u_2$ -->
     <g style="fill:#262626;" transform="translate(12.96 81.372486)scale(0.12 -0.12)">
      <defs>
       <path d="M 2669 989 
L 2554 989 
C 2490 536 2438 459 2413 420 
C 2381 369 1920 369 1830 369 
L 602 369 
C 832 619 1280 1072 1824 1597 
C 2214 1967 2669 2402 2669 3035 
C 2669 3790 2067 4224 1395 4224 
C 691 4224 262 3604 262 3030 
C 262 2780 448 2748 525 2748 
C 589 2748 781 2787 781 3010 
C 781 3207 614 3264 525 3264 
C 486 3264 448 3258 422 3245 
C 544 3790 915 4058 1306 4058 
C 1862 4058 2227 3617 2227 3035 
C 2227 2479 1901 2000 1536 1584 
L 262 146 
L 262 0 
L 2515 0 
L 2669 989 
z
" id="CMR17-32" transform="scale(0.015625)"/>
      </defs>
      <use transform="scale(0.996264)" xlink:href="#CMMI12-75"/>
      <use transform="translate(55.52033 -14.943915)scale(0.697382)" xlink:href="#CMR17-32"/>
     </g>
    </g>
   </g>
   <g id="LineCollection_1">
    <path clip-path="url(#p135cc52b8d)" d="M 52.776755 127.169711 
L 83.929995 127.028428 
L 95.179776 126.781117 
L 102.968086 126.39279 
L 109.891028 125.823295 
L 115.641545 125.134097 
L 120.275441 124.391338 
L 124.60228 123.50866 
L 128.929119 122.38685 
L 132.39059 121.289625 
L 135.852061 119.960263 
L 139.313532 118.341144 
L 141.909635 116.898692 
L 144.867915 114.944667 
L 147.101842 113.191082 
L 148.90938 111.54819 
L 150.852286 109.510304 
L 152.51259 107.472418 
L 154.37868 104.755237 
L 155.91698 102.038056 
L 157.196759 99.320874 
L 158.492401 95.924398 
L 159.522788 92.527921 
L 160.332247 89.131444 
L 161.071717 85.055672 
L 161.61235 80.9799 
L 162.097676 75.545537 
L 162.387477 69.431879 
L 162.581984 59.921745 
L 162.673375 42.260066 
L 162.675568 40.901475 
L 161.813094 40.224452 
L 130.659854 40.365735 
L 119.410073 40.613045 
L 111.621764 41.001372 
L 104.698821 41.570868 
L 98.948305 42.260066 
L 94.314408 43.002825 
L 89.987569 43.885503 
L 85.66073 45.007312 
L 82.199259 46.104538 
L 78.737788 47.4339 
L 75.276317 49.053019 
L 72.680214 50.495471 
L 69.721934 52.449496 
L 67.488007 54.203081 
L 65.680469 55.845973 
L 63.737564 57.883859 
L 62.07726 59.921745 
L 60.21117 62.638926 
L 58.672869 65.356107 
L 57.393091 68.073289 
L 56.097448 71.469765 
L 55.067062 74.866242 
L 54.257602 78.262719 
L 53.518133 82.338491 
L 52.9775 86.414263 
L 52.492174 91.848626 
L 52.202373 97.962284 
L 52.007866 107.472418 
L 51.916474 125.134097 
L 51.914282 126.492688 
L 52.776755 127.169711 
L 52.776755 127.169711 
" style="fill:none;stroke:#cfe1f2;stroke-width:1.5;"/>
   </g>
   <g id="LineCollection_2">
    <path clip-path="url(#p135cc52b8d)" d="M 52.776755 127.163801 
L 72.680214 126.993156 
L 83.064627 126.693917 
L 89.122202 126.310691 
L 95.179776 125.68043 
L 100.371983 124.919243 
L 105.564189 123.9237 
L 109.891028 122.888233 
L 114.217867 121.643217 
L 118.544706 120.165201 
L 122.871545 118.425147 
L 126.333016 116.823631 
L 129.914495 114.944667 
L 133.345229 112.906781 
L 136.717429 110.644216 
L 139.997028 108.151714 
L 142.775003 105.775099 
L 145.371107 103.284808 
L 147.96721 100.478059 
L 150.03009 97.962284 
L 152.294049 94.823606 
L 154.154007 91.848626 
L 155.975499 88.452149 
L 157.505823 85.055672 
L 158.774006 81.659195 
L 159.808652 78.262719 
L 160.63354 74.866242 
L 161.272306 71.469765 
L 161.846862 67.393993 
L 162.235077 61.959631 
L 162.503954 54.487382 
L 162.655911 42.939361 
L 162.668038 40.901475 
L 161.813094 40.230362 
L 141.909635 40.401007 
L 131.525222 40.700246 
L 125.467648 41.083472 
L 119.410073 41.713733 
L 114.217867 42.47492 
L 109.02566 43.470463 
L 104.698821 44.50593 
L 100.371983 45.750945 
L 96.045144 47.228961 
L 91.718305 48.969015 
L 88.256834 50.570532 
L 84.675355 52.449496 
L 81.24462 54.487382 
L 77.872421 56.749947 
L 74.592822 59.242449 
L 71.814846 61.619064 
L 69.218743 64.109354 
L 66.62264 66.916104 
L 64.55976 69.431879 
L 62.295801 72.570557 
L 60.435843 75.545537 
L 58.614351 78.942014 
L 57.084026 82.338491 
L 55.815844 85.734967 
L 54.781197 89.131444 
L 53.95631 92.527921 
L 53.317543 95.924398 
L 52.742987 100.00017 
L 52.354772 105.434532 
L 52.085895 112.906781 
L 51.933938 124.454802 
L 51.921811 126.492688 
L 52.776755 127.163801 
L 52.776755 127.163801 
" style="fill:none;stroke:#b5d4e9;stroke-width:1.5;"/>
   </g>
   <g id="LineCollection_3">
    <path clip-path="url(#p135cc52b8d)" d="M 52.776755 127.155036 
L 68.353375 126.93623 
L 77.007053 126.607083 
L 80.468524 126.327217 
L 86.526098 125.531377 
L 90.852937 124.731413 
L 95.179776 123.71986 
L 99.699312 122.416916 
L 104.698821 120.670308 
L 109.02566 118.902628 
L 113.352499 116.889254 
L 117.679338 114.627731 
L 122.006177 112.113639 
L 126.333016 109.338566 
L 130.89406 106.113828 
L 135.250551 102.717351 
L 139.313532 99.229269 
L 142.815159 95.924398 
L 146.236474 92.361825 
L 149.028214 89.131444 
L 151.655812 85.734967 
L 154.024784 82.25736 
L 155.976602 78.942014 
L 157.679705 75.545537 
L 159.090458 72.149061 
L 159.795906 70.111175 
L 160.588461 67.393993 
L 161.219124 64.676812 
L 161.897397 60.60104 
L 162.282922 55.166677 
L 162.548319 47.694429 
L 162.656873 40.901475 
L 161.813094 40.239127 
L 146.236474 40.457933 
L 137.582797 40.78708 
L 134.121326 41.066946 
L 128.063751 41.862786 
L 123.736912 42.66275 
L 119.410073 43.674302 
L 114.890538 44.977247 
L 109.891028 46.723855 
L 105.564189 48.491534 
L 101.23735 50.504909 
L 96.910511 52.766432 
L 92.583673 55.280524 
L 88.256834 58.055597 
L 83.695789 61.280335 
L 79.339298 64.676812 
L 75.276317 68.164894 
L 71.774691 71.469765 
L 68.353375 75.032338 
L 65.561636 78.262719 
L 62.934037 81.659195 
L 60.565065 85.136803 
L 58.613247 88.452149 
L 56.910144 91.848626 
L 55.499392 95.245102 
L 54.793944 97.282988 
L 54.001388 100.00017 
L 53.370725 102.717351 
L 52.692453 106.793123 
L 52.306927 112.227486 
L 52.04153 119.699734 
L 51.932976 126.492688 
L 52.776755 127.155036 
L 52.776755 127.155036 
" style="fill:none;stroke:#93c4de;stroke-width:1.5;"/>
   </g>
   <g id="LineCollection_4">
    <path clip-path="url(#p135cc52b8d)" d="M 52.776755 127.144687 
L 65.757272 126.888502 
L 73.545582 126.521619 
L 75.276317 126.312422 
L 80.468524 125.471501 
L 83.929995 124.690057 
L 87.391466 123.719867 
L 91.718305 122.218508 
L 95.179776 120.803461 
L 99.025403 119.020439 
L 104.159461 116.303258 
L 109.02566 113.416061 
L 114.217867 110.052915 
L 119.86048 106.113828 
L 126.333016 101.276213 
L 132.39059 96.455988 
L 137.832025 91.848626 
L 142.336055 87.772853 
L 145.833006 84.376377 
L 148.832578 81.235809 
L 152.294049 77.205682 
L 155.040726 73.507651 
L 156.782159 70.79047 
L 158.351623 67.941731 
L 159.790015 64.676812 
L 160.512184 62.638926 
L 161.113088 60.60104 
L 161.849951 57.204563 
L 162.238692 52.449496 
L 162.535384 45.656543 
L 162.643689 40.901475 
L 161.813094 40.249476 
L 148.832578 40.505661 
L 141.044268 40.872543 
L 139.313532 41.081741 
L 134.121326 41.922662 
L 130.659854 42.704106 
L 127.198383 43.674296 
L 122.871545 45.175654 
L 119.410073 46.590702 
L 115.564446 48.373724 
L 110.430388 51.090905 
L 105.564189 53.978102 
L 100.371983 57.341248 
L 94.729369 61.280335 
L 88.256834 66.11795 
L 82.199259 70.938175 
L 76.757824 75.545537 
L 72.253795 79.621309 
L 68.756843 83.017786 
L 65.757272 86.158354 
L 62.295801 90.18848 
L 59.549123 93.886512 
L 57.807691 96.603693 
L 56.238226 99.452432 
L 54.799834 102.717351 
L 54.077665 104.755237 
L 53.476761 106.793123 
L 52.739899 110.1896 
L 52.351157 114.944667 
L 52.054465 121.73762 
L 51.94616 126.492688 
L 52.776755 127.144687 
L 52.776755 127.144687 
" style="fill:none;stroke:#6baed6;stroke-width:1.5;"/>
   </g>
   <g id="LineCollection_5">
    <path clip-path="url(#p135cc52b8d)" d="M 52.776755 127.134202 
L 64.026536 126.853073 
L 70.949478 126.461377 
L 76.141685 125.484723 
L 78.737788 124.798562 
L 81.874801 123.775506 
L 86.671299 121.73762 
L 90.852937 119.536803 
L 94.314408 117.454505 
L 98.106432 114.944667 
L 103.833454 110.791367 
L 110.760346 105.434532 
L 145.371107 77.99943 
L 149.697945 74.093121 
L 153.159416 70.572865 
L 155.838631 67.393993 
L 157.756134 64.676812 
L 159.216991 62.201427 
L 160.793742 58.563154 
L 161.027436 57.883859 
L 161.872713 54.487382 
L 162.272196 49.732315 
L 162.553432 43.618657 
L 162.630332 40.901475 
L 161.813094 40.259961 
L 150.563313 40.54109 
L 143.640371 40.932786 
L 138.448164 41.90944 
L 135.852061 42.595601 
L 132.715049 43.618657 
L 127.91855 45.656543 
L 123.736912 47.85736 
L 120.275441 49.939658 
L 116.483418 52.449496 
L 110.756396 56.602796 
L 103.829503 61.959631 
L 69.218743 89.394733 
L 64.891904 93.301042 
L 61.430433 96.821298 
L 58.751219 100.00017 
L 56.833716 102.717351 
L 55.372859 105.192736 
L 53.796107 108.831009 
L 53.562413 109.510304 
L 52.717136 112.906781 
L 52.317653 117.661848 
L 52.036417 123.775506 
L 51.959517 126.492688 
L 52.776755 127.134202 
L 52.776755 127.134202 
" style="fill:none;stroke:#4a97c9;stroke-width:1.5;"/>
   </g>
   <g id="LineCollection_6">
    <path clip-path="url(#p135cc52b8d)" d="M 52.776755 127.124501 
L 63.161168 126.812342 
L 68.621311 126.492688 
L 73.545582 125.397828 
L 75.276317 124.861067 
L 78.125165 123.775506 
L 81.333892 122.183525 
L 83.929995 120.64769 
L 85.66073 119.500659 
L 88.256834 117.606424 
L 91.718305 114.783274 
L 95.35102 111.54819 
L 101.783394 105.434532 
L 107.515343 100.00017 
L 112.487131 95.561932 
L 116.997774 91.848626 
L 121.472031 88.452149 
L 126.333016 85.035822 
L 133.255958 80.480679 
L 147.101842 71.326407 
L 150.563313 68.698705 
L 153.651013 66.035403 
L 155.055379 64.676812 
L 156.909584 62.638926 
L 158.477429 60.60104 
L 159.73454 58.563154 
L 160.41833 57.204563 
L 161.223919 55.166677 
L 161.836992 53.128791 
L 162.268867 48.373724 
L 162.572155 42.260066 
L 162.617974 40.901475 
L 161.813094 40.269662 
L 151.428681 40.581821 
L 145.968539 40.901475 
L 141.044268 41.996335 
L 139.313532 42.533096 
L 136.464684 43.618657 
L 133.255958 45.210638 
L 130.659854 46.746473 
L 128.929119 47.893504 
L 126.333016 49.787739 
L 122.871545 52.610889 
L 119.238829 55.845973 
L 112.806455 61.959631 
L 107.074506 67.393993 
L 102.102718 71.832231 
L 97.592075 75.545537 
L 93.117818 78.942014 
L 88.256834 82.358341 
L 81.333892 86.913484 
L 67.488007 96.067756 
L 64.026536 98.695458 
L 60.938836 101.35876 
L 59.53447 102.717351 
L 57.680265 104.755237 
L 56.112421 106.793123 
L 54.85531 108.831009 
L 54.171519 110.1896 
L 53.36593 112.227486 
L 52.752857 114.265372 
L 52.320982 119.020439 
L 52.017694 125.134097 
L 51.971875 126.492688 
L 52.776755 127.124501 
L 52.776755 127.124501 
" style="fill:none;stroke:#2e7ebb;stroke-width:1.5;"/>
   </g>
   <g id="LineCollection_7">
    <path clip-path="url(#p135cc52b8d)" d="M 52.776755 127.117454 
L 62.295801 126.80274 
L 67.488007 126.46152 
L 71.814846 125.392177 
L 73.545582 124.782268 
L 75.874401 123.775506 
L 79.38411 121.73762 
L 82.971755 119.020439 
L 86.594514 115.623962 
L 89.122202 112.884329 
L 91.943809 109.510304 
L 95.586887 104.755237 
L 104.698821 92.527921 
L 107.093989 89.810739 
L 109.02566 87.926537 
L 110.826808 86.414263 
L 113.352499 84.608201 
L 115.995834 83.017786 
L 119.410073 81.219966 
L 124.233815 78.942014 
L 138.448164 72.487908 
L 143.640371 69.880918 
L 148.051931 67.393993 
L 151.428681 65.219293 
L 154.024784 63.278691 
L 156.272151 61.280335 
L 157.584947 59.921745 
L 159.216991 57.875679 
L 160.411132 55.845973 
L 161.055049 54.487382 
L 161.881433 51.770201 
L 162.307501 47.015133 
L 162.608996 40.901475 
L 161.813094 40.276709 
L 152.294049 40.591423 
L 147.101842 40.932642 
L 142.775003 42.001986 
L 141.044268 42.611894 
L 138.715449 43.618657 
L 135.205739 45.656543 
L 131.618095 48.373724 
L 127.995335 51.770201 
L 125.467648 54.509834 
L 122.64604 57.883859 
L 119.002962 62.638926 
L 109.891028 74.866242 
L 107.49586 77.583423 
L 105.564189 79.467626 
L 103.763041 80.9799 
L 101.23735 82.785962 
L 98.594016 84.376377 
L 95.179776 86.174197 
L 90.356034 88.452149 
L 76.141685 94.906254 
L 70.949478 97.513245 
L 66.537918 100.00017 
L 63.161168 102.17487 
L 60.565065 104.115472 
L 58.317698 106.113828 
L 57.004903 107.472418 
L 55.372859 109.518484 
L 54.178718 111.54819 
L 53.534801 112.906781 
L 52.708417 115.623962 
L 52.282349 120.37903 
L 51.980853 126.492688 
L 52.776755 127.117454 
L 52.776755 127.117454 
" style="fill:none;stroke:#1764ab;stroke-width:1.5;"/>
   </g>
   <g id="LineCollection_8">
    <path clip-path="url(#p135cc52b8d)" d="M 52.776755 127.11135 
L 62.295801 126.761404 
L 66.62264 126.439828 
L 70.084111 125.53334 
L 71.814846 124.892761 
L 74.163096 123.775506 
L 77.256208 121.73762 
L 79.628536 119.699734 
L 81.590186 117.661848 
L 83.26512 115.623962 
L 85.167169 112.906781 
L 86.75302 110.1896 
L 88.035038 107.472418 
L 88.76835 105.434532 
L 89.243006 103.396646 
L 89.345799 102.038056 
L 89.179045 100.679465 
L 88.924198 100.00017 
L 88.256834 99.079562 
L 87.391466 98.463191 
L 85.88481 97.962284 
L 84.795363 97.818775 
L 83.064627 97.806482 
L 80.468524 98.089045 
L 77.723865 98.641579 
L 74.410949 99.547563 
L 70.949478 100.733764 
L 67.488007 102.16143 
L 64.026536 103.874756 
L 60.565065 105.990997 
L 57.818758 108.151714 
L 56.238226 109.704864 
L 54.507491 111.96385 
L 53.370685 114.265372 
L 52.713584 116.303258 
L 52.274705 121.058325 
L 51.988629 126.492688 
L 52.776755 127.11135 
L 52.776755 127.11135 
" style="fill:none;stroke:#084a92;stroke-width:1.5;"/>
    <path clip-path="url(#p135cc52b8d)" d="M 128.929119 69.476501 
L 130.659854 69.607398 
L 132.39059 69.526708 
L 134.986693 69.154114 
L 137.582797 68.578479 
L 141.044268 67.572122 
L 145.223401 66.035403 
L 147.101842 65.232733 
L 150.563313 63.519407 
L 154.024784 61.403166 
L 156.771092 59.242449 
L 158.351623 57.689299 
L 160.082359 55.430313 
L 161.219164 53.128791 
L 161.876265 51.090905 
L 162.315145 46.335838 
L 162.60122 40.901475 
L 161.813094 40.282813 
L 152.294049 40.632759 
L 147.96721 40.954335 
L 144.505739 41.860823 
L 142.775003 42.501402 
L 140.426754 43.618657 
L 137.333642 45.656543 
L 134.961313 47.694429 
L 132.999663 49.732315 
L 131.324729 51.770201 
L 129.42268 54.487382 
L 127.83683 57.204563 
L 126.554811 59.921745 
L 125.821499 61.959631 
L 125.346843 63.997517 
L 125.244051 65.356107 
L 125.410804 66.714698 
L 125.665652 67.393993 
L 126.333016 68.314601 
L 127.198383 68.930972 
L 128.705039 69.431879 
L 128.929119 69.476501 
L 128.929119 69.476501 
" style="fill:none;stroke:#084a92;stroke-width:1.5;"/>
   </g>
   <g id="LineCollection_9">
    <path clip-path="url(#p135cc52b8d)" d="M 52.776755 127.087549 
L 53.642123 127.055988 
L 54.507491 127.023591 
L 55.372859 126.989324 
L 56.238226 126.952644 
L 57.103594 126.91317 
L 57.968962 126.870578 
L 58.83433 126.824566 
L 59.699697 126.774837 
L 60.565065 126.721085 
L 61.430433 126.662996 
L 62.295801 126.600236 
L 63.161168 126.532453 
L 63.654523 126.492688 
L 64.026536 126.355222 
L 64.891904 126.070297 
L 65.738613 125.813392 
L 65.757272 125.802681 
L 66.62264 125.360655 
L 67.115462 125.134097 
L 67.488007 124.867556 
L 68.135287 124.454802 
L 68.353375 124.256471 
L 68.946084 123.775506 
L 69.218743 123.477542 
L 69.608128 123.096211 
L 70.084111 122.494104 
L 70.15185 122.416916 
L 70.610471 121.73762 
L 70.949478 121.11355 
L 70.982615 121.058325 
L 71.290596 120.37903 
L 71.529033 119.699734 
L 71.703201 119.020439 
L 71.814846 118.341144 
L 71.814846 118.341144 
L 71.863409 117.661848 
L 71.843064 116.982553 
L 71.814846 116.76972 
L 71.748011 116.303258 
L 71.56762 115.623962 
L 71.286439 114.944667 
L 70.949478 114.36785 
L 70.881616 114.265372 
L 70.307585 113.586076 
L 70.084111 113.375568 
L 69.486914 112.906781 
L 69.218743 112.731358 
L 68.353375 112.280756 
L 68.222826 112.227486 
L 67.488007 111.962979 
L 66.62264 111.742257 
L 65.757272 111.600655 
L 65.163036 111.54819 
L 64.891904 111.52604 
L 64.026536 111.51007 
L 63.161168 111.54819 
L 63.161168 111.54819 
L 62.295801 111.635829 
L 61.430433 111.772548 
L 60.565065 111.959715 
L 59.699697 112.201474 
L 59.629345 112.227486 
L 58.83433 112.493599 
L 57.968962 112.853607 
L 57.87063 112.906781 
L 57.103594 113.280417 
L 56.61781 113.586076 
L 56.238226 113.800108 
L 55.625516 114.265372 
L 55.372859 114.436566 
L 54.847043 114.944667 
L 54.507491 115.237107 
L 54.218874 115.623962 
L 53.655768 116.303258 
L 53.642123 116.317904 
L 53.314847 116.982553 
L 52.951875 117.661848 
L 52.776755 117.953871 
L 52.726098 118.341144 
L 52.639748 119.020439 
L 52.559796 119.699734 
L 52.485795 120.37903 
L 52.41732 121.058325 
L 52.353969 121.73762 
L 52.295354 122.416916 
L 52.241095 123.096211 
L 52.190808 123.775506 
L 52.144081 124.454802 
L 52.100427 125.134097 
L 52.059156 125.813392 
L 52.01895 126.492688 
L 52.776755 127.087549 
" style="fill:none;stroke:#08306b;stroke-width:1.5;"/>
    <path clip-path="url(#p135cc52b8d)" d="M 149.697945 55.868123 
L 150.563313 55.884093 
L 151.428681 55.845973 
L 152.294049 55.758334 
L 153.159416 55.621615 
L 154.024784 55.434448 
L 154.890152 55.192689 
L 154.960504 55.166677 
L 155.75552 54.900564 
L 156.620887 54.540556 
L 156.719219 54.487382 
L 157.486255 54.113746 
L 157.97204 53.808087 
L 158.351623 53.594055 
L 158.964334 53.128791 
L 159.216991 52.957597 
L 159.742806 52.449496 
L 160.082359 52.157056 
L 160.370975 51.770201 
L 160.934081 51.090905 
L 160.947726 51.076259 
L 161.275002 50.41161 
L 161.637974 49.732315 
L 161.813094 49.440292 
L 161.863751 49.053019 
L 161.950102 48.373724 
L 162.030053 47.694429 
L 162.104054 47.015133 
L 162.172529 46.335838 
L 162.23588 45.656543 
L 162.294495 44.977247 
L 162.348754 44.297952 
L 162.399041 43.618657 
L 162.445768 42.939361 
L 162.489422 42.260066 
L 162.530693 41.58077 
L 162.5709 40.901475 
L 161.813094 40.306614 
L 160.947726 40.338175 
L 160.082359 40.370572 
L 159.216991 40.404839 
L 158.351623 40.441519 
L 157.486255 40.480993 
L 156.620887 40.523585 
L 155.75552 40.569597 
L 154.890152 40.619326 
L 154.024784 40.673078 
L 153.159416 40.731167 
L 152.294049 40.793927 
L 151.428681 40.86171 
L 150.935327 40.901475 
L 150.563313 41.038941 
L 149.697945 41.323866 
L 148.851236 41.58077 
L 148.832578 41.591482 
L 147.96721 42.033508 
L 147.474387 42.260066 
L 147.101842 42.526607 
L 146.454562 42.939361 
L 146.236474 43.137692 
L 145.643765 43.618657 
L 145.371107 43.916621 
L 144.981721 44.297952 
L 144.505739 44.900059 
L 144.437999 44.977247 
L 143.979378 45.656543 
L 143.640371 46.280613 
L 143.607234 46.335838 
L 143.299253 47.015133 
L 143.060816 47.694429 
L 142.886648 48.373724 
L 142.775003 49.053019 
L 142.726441 49.732315 
L 142.746785 50.41161 
L 142.775003 50.624443 
L 142.841838 51.090905 
L 143.022229 51.770201 
L 143.303411 52.449496 
L 143.640371 53.026313 
L 143.708234 53.128791 
L 144.282264 53.808087 
L 144.505739 54.018595 
L 145.102935 54.487382 
L 145.371107 54.662805 
L 146.236474 55.113406 
L 146.367023 55.166677 
L 147.101842 55.431184 
L 147.96721 55.651906 
L 148.832578 55.793508 
L 149.426813 55.845973 
L 149.697945 55.868123 
" style="fill:none;stroke:#08306b;stroke-width:1.5;"/>
   </g>
   <g id="LineCollection_10">
    <path clip-path="url(#p135cc52b8d)" d="M 52.776755 127.171945 
L 123.736912 127.06766 
L 132.39059 126.872724 
L 137.582797 126.545738 
L 147.101842 125.516176 
L 149.697945 124.945127 
L 152.294049 124.132084 
L 154.505331 123.096211 
L 155.75552 122.296902 
L 157.206732 121.058325 
L 158.351623 119.667918 
L 159.216991 118.260195 
L 159.841625 116.982553 
L 160.749272 114.265372 
L 161.570757 110.1896 
L 162.297229 103.396646 
L 162.516569 97.962284 
L 162.637297 87.772853 
L 162.677303 57.204563 
L 162.678413 40.901475 
L 161.813094 40.222218 
L 90.852937 40.326503 
L 82.199259 40.521439 
L 77.007053 40.848425 
L 67.488007 41.877987 
L 64.891904 42.449036 
L 62.295801 43.262079 
L 60.084518 44.297952 
L 58.83433 45.097261 
L 57.383117 46.335838 
L 56.238226 47.726244 
L 55.372859 49.133968 
L 54.748224 50.41161 
L 53.840577 53.128791 
L 53.019093 57.204563 
L 52.29262 63.997517 
L 52.07328 69.431879 
L 51.952552 79.621309 
L 51.912546 110.1896 
L 51.911436 126.492688 
L 52.776755 127.171945 
L 52.776755 127.171945 
" style="fill:none;stroke:#f7fbff;stroke-width:1.5;"/>
   </g>
   <g id="line2d_7">
    <path clip-path="url(#p135cc52b8d)" d="M 51.911387 127.171983 
L 162.678462 127.171983 
L 162.678462 40.22218 
L 51.911387 40.22218 
L 51.911387 127.171983 
" style="fill:none;stroke:#e3eef8;stroke-linecap:round;"/>
   </g>
   <g id="text_9">
    <!-- Gaussian -->
    <g style="fill:#262626;" transform="translate(85.919782 34.22218)scale(0.12 -0.12)">
     <defs>
      <path d="M 3610 1856 
L 2336 1856 
L 2336 1461 
L 3123 1461 
L 3123 471 
C 2874 401 2618 350 2362 350 
C 1466 350 934 1301 934 2200 
C 934 3095 1491 4032 2362 4032 
C 2854 4032 3130 3881 3469 3627 
L 3552 4134 
C 3130 4351 2867 4440 2387 4440 
C 1146 4440 397 3324 397 2182 
C 397 1090 1152 -64 2349 -64 
C 2797 -64 3213 51 3610 248 
L 3610 1856 
z
" id="CMSS17-47" transform="scale(0.015625)"/>
      <path d="M 2406 1791 
C 2406 2392 1978 2808 1402 2808 
C 1120 2808 813 2757 461 2553 
L 499 2135 
C 659 2248 934 2432 1395 2432 
C 1722 2432 1920 2180 1920 1782 
L 1920 1536 
C 896 1536 256 1238 256 726 
C 256 461 416 -64 947 -64 
C 1043 -64 1562 -64 1933 217 
L 1933 -19 
L 2406 -19 
L 2406 1791 
z
M 1920 816 
C 1920 701 1920 548 1728 434 
C 1562 325 1350 325 1261 325 
C 941 325 723 511 723 744 
C 723 1211 1722 1211 1920 1211 
L 1920 816 
z
" id="CMSS17-61" transform="scale(0.015625)"/>
      <path d="M 2618 2739 
L 2131 2739 
L 2131 972 
C 2131 498 1786 306 1421 306 
C 998 306 960 447 960 709 
L 960 2739 
L 474 2739 
L 474 678 
C 474 179 646 -64 1088 -64 
C 1306 -64 1798 -13 2144 306 
L 2144 0 
L 2618 0 
L 2618 2739 
z
" id="CMSS17-75" transform="scale(0.015625)"/>
      <path d="M 2061 2627 
C 1683 2807 1389 2807 1197 2807 
C 742 2807 198 2648 198 2003 
C 198 1359 902 1218 1094 1179 
C 1389 1122 1715 1058 1715 740 
C 1715 337 1254 337 1171 337 
C 915 337 563 407 243 638 
L 166 210 
C 531 0 883 -64 1178 -64 
C 1965 -64 2163 416 2163 781 
C 2163 1094 1984 1305 1862 1401 
C 1651 1568 1574 1587 1050 1696 
C 960 1709 646 1779 646 2066 
C 646 2432 1050 2432 1139 2432 
C 1555 2432 1811 2303 1984 2208 
L 2061 2627 
z
" id="CMSS17-73" transform="scale(0.015625)"/>
      <path d="M 979 4183 
L 442 4183 
L 442 3648 
L 979 3648 
L 979 4183 
z
M 947 2739 
L 474 2739 
L 474 0 
L 947 0 
L 947 2739 
z
" id="CMSS17-69" transform="scale(0.015625)"/>
      <path d="M 2618 1877 
C 2618 2283 2522 2816 1798 2816 
C 1389 2816 1120 2606 941 2389 
L 941 2758 
L 474 2758 
L 474 0 
L 960 0 
L 960 1559 
C 960 1964 1114 2428 1549 2428 
C 2112 2428 2131 2048 2131 1829 
L 2131 0 
L 2618 0 
L 2618 1877 
z
" id="CMSS17-6e" transform="scale(0.015625)"/>
     </defs>
     <use transform="scale(0.996264)" xlink:href="#CMSS17-47"/>
     <use transform="translate(62.458226 0)scale(0.996264)" xlink:href="#CMSS17-61"/>
     <use transform="translate(107.380146 0)scale(0.996264)" xlink:href="#CMSS17-75"/>
     <use transform="translate(155.585089 0)scale(0.996264)" xlink:href="#CMSS17-73"/>
     <use transform="translate(191.498631 0)scale(0.996264)" xlink:href="#CMSS17-73"/>
     <use transform="translate(227.412173 0)scale(0.996264)" xlink:href="#CMSS17-69"/>
     <use transform="translate(249.592896 0)scale(0.996264)" xlink:href="#CMSS17-61"/>
     <use transform="translate(294.514817 0)scale(0.996264)" xlink:href="#CMSS17-6e"/>
    </g>
   </g>
  </g>
  <g id="axes_2">
   <g id="patch_3">
    <path d="M 221.591387 127.171983 
L 332.358462 127.171983 
L 332.358462 40.22218 
L 221.591387 40.22218 
z
" style="fill:none;opacity:0;"/>
   </g>
   <g id="matplotlib.axis_3">
    <g id="xtick_4">
     <g id="line2d_8">
      <path clip-path="url(#p64f14d8ee5)" d="M 221.591387 127.171983 
L 221.591387 40.22218 
" style="fill:none;stroke:#ffffff;stroke-linecap:round;"/>
     </g>
     <g id="text_10">
      <!-- $\mathdefault{0.0}$ -->
      <g style="fill:#262626;" transform="translate(214.589849 144.28233)scale(0.11 -0.11)">
       <use transform="scale(0.996264)" xlink:href="#CMR17-30"/>
       <use transform="translate(45.690477 0)scale(0.996264)" xlink:href="#CMMI12-3a"/>
       <use transform="translate(72.787654 0)scale(0.996264)" xlink:href="#CMR17-30"/>
      </g>
     </g>
    </g>
    <g id="xtick_5">
     <g id="line2d_9">
      <path clip-path="url(#p64f14d8ee5)" d="M 276.974925 127.171983 
L 276.974925 40.22218 
" style="fill:none;stroke:#ffffff;stroke-linecap:round;"/>
     </g>
     <g id="text_11">
      <!-- $\mathdefault{0.5}$ -->
      <g style="fill:#262626;" transform="translate(269.973387 144.28233)scale(0.11 -0.11)">
       <use transform="scale(0.996264)" xlink:href="#CMR17-30"/>
       <use transform="translate(45.690477 0)scale(0.996264)" xlink:href="#CMMI12-3a"/>
       <use transform="translate(72.787654 0)scale(0.996264)" xlink:href="#CMR17-35"/>
      </g>
     </g>
    </g>
    <g id="xtick_6">
     <g id="line2d_10">
      <path clip-path="url(#p64f14d8ee5)" d="M 332.358462 127.171983 
L 332.358462 40.22218 
" style="fill:none;stroke:#ffffff;stroke-linecap:round;"/>
     </g>
     <g id="text_12">
      <!-- $\mathdefault{1.0}$ -->
      <g style="fill:#262626;" transform="translate(325.356924 144.28233)scale(0.11 -0.11)">
       <use transform="scale(0.996264)" xlink:href="#CMR17-31"/>
       <use transform="translate(45.690477 0)scale(0.996264)" xlink:href="#CMMI12-3a"/>
       <use transform="translate(72.787654 0)scale(0.996264)" xlink:href="#CMR17-30"/>
      </g>
     </g>
    </g>
    <g id="text_13">
     <!-- $u_1$ -->
     <g style="fill:#262626;" transform="translate(271.526613 158.715404)scale(0.12 -0.12)">
      <use transform="scale(0.996264)" xlink:href="#CMMI12-75"/>
      <use transform="translate(55.52033 -14.943915)scale(0.697382)" xlink:href="#CMR17-31"/>
     </g>
    </g>
   </g>
   <g id="matplotlib.axis_4">
    <g id="ytick_4">
     <g id="line2d_11">
      <path clip-path="url(#p64f14d8ee5)" d="M 221.591387 127.171983 
L 332.358462 127.171983 
" style="fill:none;stroke:#ffffff;stroke-linecap:round;"/>
     </g>
     <g id="text_14">
      <!-- $\mathdefault{0.0}$ -->
      <g style="fill:#262626;" transform="translate(198.088311 130.977156)scale(0.11 -0.11)">
       <use transform="scale(0.996264)" xlink:href="#CMR17-30"/>
       <use transform="translate(45.690477 0)scale(0.996264)" xlink:href="#CMMI12-3a"/>
       <use transform="translate(72.787654 0)scale(0.996264)" xlink:href="#CMR17-30"/>
      </g>
     </g>
    </g>
    <g id="ytick_5">
     <g id="line2d_12">
      <path clip-path="url(#p64f14d8ee5)" d="M 221.591387 83.697081 
L 332.358462 83.697081 
" style="fill:none;stroke:#ffffff;stroke-linecap:round;"/>
     </g>
     <g id="text_15">
      <!-- $\mathdefault{0.5}$ -->
      <g style="fill:#262626;" transform="translate(198.088311 87.502255)scale(0.11 -0.11)">
       <use transform="scale(0.996264)" xlink:href="#CMR17-30"/>
       <use transform="translate(45.690477 0)scale(0.996264)" xlink:href="#CMMI12-3a"/>
       <use transform="translate(72.787654 0)scale(0.996264)" xlink:href="#CMR17-35"/>
      </g>
     </g>
    </g>
    <g id="ytick_6">
     <g id="line2d_13">
      <path clip-path="url(#p64f14d8ee5)" d="M 221.591387 40.22218 
L 332.358462 40.22218 
" style="fill:none;stroke:#ffffff;stroke-linecap:round;"/>
     </g>
     <g id="text_16">
      <!-- $\mathdefault{1.0}$ -->
      <g style="fill:#262626;" transform="translate(198.088311 44.027353)scale(0.11 -0.11)">
       <use transform="scale(0.996264)" xlink:href="#CMR17-31"/>
       <use transform="translate(45.690477 0)scale(0.996264)" xlink:href="#CMMI12-3a"/>
       <use transform="translate(72.787654 0)scale(0.996264)" xlink:href="#CMR17-30"/>
      </g>
     </g>
    </g>
    <g id="text_17">
     <!-- $u_2$ -->
     <g style="fill:#262626;" transform="translate(182.64 81.372486)scale(0.12 -0.12)">
      <use transform="scale(0.996264)" xlink:href="#CMMI12-75"/>
      <use transform="translate(55.52033 -14.943915)scale(0.697382)" xlink:href="#CMR17-32"/>
     </g>
    </g>
   </g>
   <g id="LineCollection_11">
    <path clip-path="url(#p64f14d8ee5)" d="M 222.456755 127.151215 
L 257.071466 126.974384 
L 265.725144 126.727123 
L 270.051983 126.436975 
L 278.990482 124.454802 
L 301.205222 118.623191 
L 308.372619 116.303258 
L 313.320371 114.494415 
L 315.916474 113.384989 
L 318.512578 112.030987 
L 320.269286 110.868895 
L 321.974049 109.433824 
L 323.780947 107.472418 
L 325.821735 104.755237 
L 328.031623 101.813909 
L 329.236467 100.679465 
L 329.762359 100.312938 
L 330.627726 100.145885 
L 331.493094 100.582609 
L 331.718196 94.565807 
L 331.870166 83.697081 
L 332.115064 61.959631 
L 332.310675 47.015133 
L 332.335589 40.901475 
L 331.493094 40.240135 
L 306.397429 40.386205 
L 259.667569 40.934789 
L 257.936834 41.314395 
L 256.206098 41.899418 
L 254.475363 42.786164 
L 253.265582 43.618657 
L 251.639228 44.977247 
L 246.687053 49.310636 
L 244.090949 51.25801 
L 236.778863 56.525268 
L 235.247787 57.883859 
L 233.337539 59.921745 
L 231.804606 61.959631 
L 230.245065 64.51444 
L 228.761707 67.393993 
L 225.005552 74.866242 
L 222.957398 78.262719 
L 222.456755 79.033442 
L 222.186859 83.697081 
L 221.977687 91.848626 
L 221.647346 118.341144 
L 221.617844 126.492688 
L 222.456755 127.151215 
L 222.456755 127.151215 
" style="fill:none;stroke:#cfe1f2;stroke-width:1.5;"/>
   </g>
   <g id="LineCollection_12">
    <path clip-path="url(#p64f14d8ee5)" d="M 222.456755 127.131413 
L 251.879259 126.916438 
L 260.532937 126.647186 
L 263.254637 126.492688 
L 271.782718 123.515681 
L 276.109557 121.654678 
L 281.301764 119.426128 
L 286.49397 117.446842 
L 302.07059 111.705968 
L 305.420997 110.1896 
L 308.128164 108.736626 
L 310.724268 107.060571 
L 312.84901 105.434532 
L 315.17347 103.396646 
L 318.698534 100.00017 
L 321.974049 96.587064 
L 324.24487 93.886512 
L 325.749629 91.848626 
L 327.499746 89.131444 
L 328.957839 86.414263 
L 329.837039 84.376377 
L 330.486655 82.338491 
L 331.019195 79.621309 
L 331.369361 76.224833 
L 331.50992 73.507651 
L 331.744424 65.356107 
L 332.193741 51.770201 
L 332.313779 40.901475 
L 331.493094 40.257255 
L 312.455003 40.42249 
L 291.240659 40.901475 
L 279.571028 42.042925 
L 275.244189 42.662433 
L 271.782718 43.310992 
L 269.186615 43.950654 
L 266.590511 44.80877 
L 264.652275 45.656543 
L 262.252304 47.015133 
L 259.338941 49.053019 
L 251.879259 54.527172 
L 244.082117 59.921745 
L 241.494846 62.083272 
L 239.605806 63.997517 
L 237.953744 66.035403 
L 236.30264 68.515953 
L 234.571904 71.555346 
L 231.941464 76.224833 
L 230.141086 78.942014 
L 228.035693 81.659195 
L 223.590929 87.093558 
L 222.456755 88.857541 
L 222.101296 100.00017 
L 221.731095 115.623962 
L 221.64307 126.492688 
L 222.456755 127.131413 
L 222.456755 127.131413 
" style="fill:none;stroke:#b5d4e9;stroke-width:1.5;"/>
   </g>
   <g id="LineCollection_13">
    <path clip-path="url(#p64f14d8ee5)" d="M 222.456755 127.111957 
L 250.148524 126.838166 
L 257.936834 126.556722 
L 259.065708 126.492688 
L 268.321247 122.010892 
L 271.060095 120.37903 
L 275.671079 117.661848 
L 278.70566 116.073502 
L 284.008377 113.586076 
L 292.767297 109.510304 
L 296.878383 107.322111 
L 299.942193 105.434532 
L 302.935958 103.289099 
L 313.445021 95.245102 
L 317.64721 92.282981 
L 320.243313 90.118852 
L 321.974049 88.344174 
L 323.704784 86.141742 
L 324.83117 84.376377 
L 325.916045 82.338491 
L 327.084317 79.621309 
L 328.031623 76.860062 
L 329.152239 72.828356 
L 330.798692 66.714698 
L 331.531629 63.997517 
L 332.050058 53.808087 
L 332.250405 44.977247 
L 332.292351 40.901475 
L 331.493094 40.274076 
L 315.916474 40.439578 
L 302.935958 40.811849 
L 300.329501 40.901475 
L 296.878383 41.417055 
L 288.224706 42.574401 
L 284.763235 43.215666 
L 281.301764 44.066588 
L 278.410087 44.977247 
L 275.043894 46.335838 
L 271.782718 48.000498 
L 268.973738 49.732315 
L 265.725144 52.062858 
L 249.097017 64.676812 
L 246.970662 66.714698 
L 245.192498 68.752584 
L 243.688567 70.79047 
L 241.494846 74.23383 
L 238.508986 78.942014 
L 236.475851 81.659195 
L 234.571904 83.839083 
L 231.975801 86.427474 
L 226.285231 91.848626 
L 225.052859 93.298828 
L 223.703662 95.245102 
L 222.456755 97.474939 
L 221.81133 114.944667 
L 221.667856 126.492688 
L 222.456755 127.111957 
L 222.456755 127.111957 
" style="fill:none;stroke:#93c4de;stroke-width:1.5;"/>
   </g>
   <g id="LineCollection_14">
    <path clip-path="url(#p64f14d8ee5)" d="M 222.456755 127.091823 
L 247.552421 126.79786 
L 255.690876 126.492688 
L 257.936834 125.114399 
L 262.293275 122.416916 
L 265.090507 120.37903 
L 270.91735 115.875032 
L 273.513454 114.169828 
L 276.974925 112.158869 
L 286.537613 106.793123 
L 289.955441 104.562923 
L 293.376557 102.038056 
L 302.935958 94.552842 
L 306.397429 92.373465 
L 311.068638 89.810739 
L 314.709918 87.772853 
L 316.781842 86.414263 
L 318.512578 85.046713 
L 320.243313 83.353036 
L 321.626269 81.659195 
L 322.986251 79.621309 
L 324.452097 76.904128 
L 325.684496 74.186947 
L 328.151184 68.073289 
L 329.762359 64.304438 
L 330.627726 62.549498 
L 331.524959 60.60104 
L 331.977374 53.128791 
L 332.214161 44.977247 
L 332.270176 40.901475 
L 331.493094 40.291482 
L 317.64721 40.469016 
L 307.262797 40.818203 
L 305.335056 40.901475 
L 303.801326 41.406812 
L 300.339854 42.180527 
L 292.381338 43.618657 
L 289.090073 44.449818 
L 286.49397 45.317912 
L 283.897867 46.428144 
L 281.301764 47.823001 
L 278.340263 49.732315 
L 275.244189 52.065293 
L 272.367665 54.487382 
L 260.532937 64.892575 
L 256.053188 68.752584 
L 253.258005 71.469765 
L 250.781275 74.186947 
L 241.494846 84.822987 
L 239.083957 87.093558 
L 235.828245 89.810739 
L 228.090974 95.924398 
L 226.65519 97.282988 
L 224.791249 99.320874 
L 223.190889 101.35876 
L 222.456755 102.370653 
L 221.945684 112.906781 
L 221.732452 123.096211 
L 221.693505 126.492688 
L 222.456755 127.091823 
L 222.456755 127.091823 
" style="fill:none;stroke:#6baed6;stroke-width:1.5;"/>
   </g>
   <g id="LineCollection_15">
    <path clip-path="url(#p64f14d8ee5)" d="M 222.456755 127.072064 
L 246.687053 126.730809 
L 252.900867 126.492688 
L 255.343713 124.454802 
L 258.802202 121.630677 
L 260.867814 119.699734 
L 266.590511 113.925029 
L 268.675545 112.227486 
L 270.91735 110.641217 
L 275.244189 107.932546 
L 280.262603 104.755237 
L 283.104151 102.717351 
L 286.425806 100.00017 
L 290.875683 95.924398 
L 294.28228 92.937297 
L 296.878383 90.977542 
L 299.78234 89.131444 
L 302.935958 87.454934 
L 307.262797 85.483207 
L 311.589635 83.518767 
L 314.185739 82.095695 
L 315.916474 80.923604 
L 317.64721 79.473039 
L 319.429536 77.583423 
L 321.108681 75.366475 
L 323.12743 72.149061 
L 326.300887 66.520849 
L 328.13774 63.318221 
L 329.762359 60.861222 
L 330.627726 59.721531 
L 331.503496 58.563154 
L 331.919303 52.449496 
L 332.178592 44.977247 
L 332.248414 40.901475 
L 331.493094 40.308565 
L 318.512578 40.50555 
L 308.993532 40.876017 
L 308.478461 40.901475 
L 307.262797 41.658867 
L 305.532061 42.396155 
L 302.935958 43.174371 
L 293.416912 45.656543 
L 290.820809 46.746295 
L 289.03772 47.694429 
L 286.987698 49.053019 
L 284.477606 51.090905 
L 281.617123 53.808087 
L 277.767497 57.883859 
L 269.615981 66.714698 
L 266.590511 69.640511 
L 262.245218 73.507651 
L 253.609995 81.083177 
L 247.552421 86.477684 
L 244.090949 89.290962 
L 240.629478 91.795596 
L 237.425287 93.886512 
L 231.110433 97.897987 
L 227.648962 100.451175 
L 224.337806 103.396646 
L 222.999635 104.755237 
L 222.448953 105.434532 
L 222.033015 112.906781 
L 221.790205 121.73762 
L 221.718676 126.492688 
L 222.456755 127.072064 
L 222.456755 127.072064 
" style="fill:none;stroke:#4a97c9;stroke-width:1.5;"/>
   </g>
   <g id="LineCollection_16">
    <path clip-path="url(#p64f14d8ee5)" d="M 222.456755 127.054655 
L 245.821685 126.681218 
L 250.721301 126.492688 
L 251.879259 125.11904 
L 257.071466 119.406563 
L 258.376651 117.661848 
L 262.269075 112.227486 
L 264.155187 110.1896 
L 265.725144 108.792069 
L 268.398805 106.793123 
L 277.186094 100.679465 
L 279.571028 98.616958 
L 282.243866 95.924398 
L 289.090073 88.566037 
L 290.860083 87.093558 
L 292.79567 85.734967 
L 295.147648 84.366687 
L 297.964297 83.017786 
L 301.37644 81.659195 
L 310.724268 78.188524 
L 313.320371 76.825208 
L 315.208489 75.545537 
L 316.851006 74.186947 
L 318.877632 72.149061 
L 320.634257 70.111175 
L 322.839416 67.31403 
L 327.395421 61.280335 
L 329.197849 59.242449 
L 331.493094 57.114845 
L 331.918689 51.090905 
L 332.163826 44.297952 
L 332.22924 40.901475 
L 331.493094 40.323616 
L 319.377945 40.528468 
L 310.54096 40.901475 
L 309.8589 41.6826 
L 308.993532 42.374256 
L 307.262797 43.334349 
L 304.666693 44.319651 
L 296.713712 47.015133 
L 294.28228 48.29408 
L 293.138391 49.053019 
L 291.464431 50.41161 
L 289.464899 52.449496 
L 287.246903 55.166677 
L 283.747454 59.921745 
L 276.109557 70.414442 
L 274.061264 72.828356 
L 271.782718 75.121867 
L 269.709898 76.904128 
L 266.590511 79.235153 
L 248.417788 91.999002 
L 244.956317 94.073899 
L 241.411893 95.924398 
L 231.859992 100.679465 
L 229.379697 102.144021 
L 225.918226 104.482947 
L 222.456755 107.241996 
L 222.048934 114.265372 
L 221.797859 123.096211 
L 221.740854 126.492688 
L 222.456755 127.054655 
L 222.456755 127.054655 
" style="fill:none;stroke:#2e7ebb;stroke-width:1.5;"/>
   </g>
   <g id="LineCollection_17">
    <path clip-path="url(#p64f14d8ee5)" d="M 222.456755 127.042573 
L 244.956317 126.658504 
L 249.315768 126.492688 
L 250.690062 124.454802 
L 255.34073 117.911957 
L 256.208471 116.303258 
L 259.667569 109.465142 
L 261.094427 107.472418 
L 262.324375 106.113828 
L 263.994408 104.600547 
L 266.590511 102.644603 
L 271.14838 99.320874 
L 273.513454 97.236251 
L 275.323222 95.245102 
L 276.784036 93.207216 
L 277.931054 91.16933 
L 278.816211 89.131444 
L 279.571028 86.735902 
L 279.897266 85.055672 
L 279.898523 83.697081 
L 279.571028 83.017786 
L 278.70566 82.754988 
L 276.974925 82.925148 
L 273.513454 83.827304 
L 269.97164 85.055672 
L 266.590511 86.486322 
L 263.12904 88.237936 
L 259.286483 90.490035 
L 252.474006 94.565807 
L 249.687253 95.924398 
L 246.307722 97.282988 
L 238.379262 100.00017 
L 235.437272 101.103452 
L 231.786651 102.717351 
L 229.152718 104.075942 
L 226.783594 105.438256 
L 223.680226 107.472418 
L 222.456755 108.363461 
L 222.065556 114.944667 
L 221.805346 123.775506 
L 221.756245 126.492688 
L 222.456755 127.042573 
L 222.456755 127.042573 
" style="fill:none;stroke:#1764ab;stroke-width:1.5;"/>
    <path clip-path="url(#p64f14d8ee5)" d="M 283.897867 79.741122 
L 285.628602 79.662819 
L 289.955441 78.82557 
L 307.262797 74.928246 
L 309.8589 74.066565 
L 312.455003 72.920028 
L 315.051107 71.382004 
L 316.781842 70.108107 
L 319.377945 67.846459 
L 322.839416 64.306621 
L 325.608014 61.280335 
L 328.031623 58.90468 
L 329.213187 57.883859 
L 331.493094 56.195965 
L 331.910924 50.41161 
L 332.160621 43.618657 
L 332.215934 40.901475 
L 331.493094 40.334061 
L 320.243313 40.533039 
L 311.728961 40.901475 
L 311.36193 41.58077 
L 310.724268 42.391652 
L 309.8589 43.158021 
L 308.128164 44.221484 
L 305.532061 45.357334 
L 300.339854 47.396493 
L 298.399932 48.373724 
L 296.374009 49.732315 
L 294.85299 51.090905 
L 293.416912 52.748067 
L 292.178919 54.487382 
L 290.556694 57.204563 
L 288.224706 61.657069 
L 286.452528 65.356107 
L 285.028977 68.752584 
L 284.077819 71.469765 
L 283.325027 74.186947 
L 282.905429 76.224833 
L 282.746469 77.583423 
L 282.737241 78.262719 
L 282.84258 78.942014 
L 283.032499 79.317674 
L 283.479904 79.621309 
L 283.897867 79.741122 
L 283.897867 79.741122 
" style="fill:none;stroke:#1764ab;stroke-width:1.5;"/>
   </g>
   <g id="LineCollection_18">
    <path clip-path="url(#p64f14d8ee5)" d="M 222.456755 127.029592 
L 244.956317 126.606994 
L 247.891528 126.492688 
L 248.878997 124.454802 
L 252.537121 117.661848 
L 253.245896 115.623962 
L 253.747374 113.586076 
L 254.159566 110.868895 
L 254.296874 108.151714 
L 254.122291 106.113828 
L 253.718886 104.755237 
L 253.340806 104.075942 
L 252.744627 103.394621 
L 251.729357 102.717351 
L 250.148524 102.165679 
L 248.417788 101.882205 
L 245.821685 101.775635 
L 243.225582 101.909493 
L 240.629478 102.231534 
L 238.033375 102.729998 
L 235.437272 103.405775 
L 232.841168 104.261181 
L 229.379697 105.675641 
L 225.749416 107.472418 
L 223.322123 108.869593 
L 222.451008 109.510304 
L 222.081727 115.623962 
L 221.826809 123.775506 
L 221.772783 126.492688 
L 222.456755 127.029592 
L 222.456755 127.029592 
" style="fill:none;stroke:#084a92;stroke-width:1.5;"/>
    <path clip-path="url(#p64f14d8ee5)" d="M 301.205222 69.531319 
L 302.935958 69.710147 
L 305.532061 69.712515 
L 308.128164 69.431879 
L 310.724268 68.853657 
L 313.320371 67.93739 
L 315.792907 66.714698 
L 316.935097 66.035403 
L 319.377945 64.357792 
L 323.111434 61.280335 
L 327.166255 58.010627 
L 328.330217 57.204563 
L 331.506621 55.166677 
L 331.904326 49.732315 
L 332.157851 42.939361 
L 332.201637 40.901475 
L 331.493094 40.345284 
L 320.243313 40.564223 
L 312.842307 40.901475 
L 312.344037 42.260066 
L 311.589635 43.328685 
L 310.549627 44.297952 
L 308.993532 45.351026 
L 306.397429 46.677432 
L 302.923014 48.373724 
L 300.764255 49.732315 
L 299.174717 51.090905 
L 297.994766 52.449496 
L 296.878383 54.21051 
L 296.396482 55.166677 
L 295.611167 57.204563 
L 295.069191 59.242449 
L 294.753499 61.280335 
L 294.711497 63.318221 
L 294.90243 64.676812 
L 295.371776 66.035403 
L 296.013016 67.044461 
L 296.878383 67.893025 
L 297.743751 68.45641 
L 298.609119 68.86042 
L 300.339854 69.373526 
L 301.205222 69.531319 
L 301.205222 69.531319 
" style="fill:none;stroke:#084a92;stroke-width:1.5;"/>
   </g>
   <g id="LineCollection_19">
    <path clip-path="url(#p64f14d8ee5)" d="M 222.456755 126.977748 
L 223.322123 126.961235 
L 224.187491 126.944585 
L 225.052859 126.927847 
L 225.918226 126.91105 
L 226.783594 126.894201 
L 227.648962 126.877287 
L 228.51433 126.86028 
L 229.379697 126.843137 
L 230.245065 126.825804 
L 231.110433 126.808213 
L 231.975801 126.790289 
L 232.841168 126.771948 
L 233.706536 126.753097 
L 234.571904 126.733633 
L 235.437272 126.713447 
L 236.30264 126.692419 
L 237.168007 126.67042 
L 238.033375 126.647311 
L 238.898743 126.62294 
L 239.764111 126.597143 
L 240.629478 126.569743 
L 241.494846 126.540547 
L 242.360214 126.509344 
L 242.801908 126.492688 
L 242.741122 125.813392 
L 242.697707 125.134097 
L 242.669247 124.454802 
L 242.652437 123.775506 
L 242.643172 123.096211 
L 242.636652 122.416916 
L 242.627508 121.73762 
L 242.60991 121.058325 
L 242.577661 120.37903 
L 242.524246 119.699734 
L 242.44284 119.020439 
L 242.360214 118.531494 
L 242.327004 118.341144 
L 242.170443 117.661848 
L 241.962299 116.982553 
L 241.692667 116.303258 
L 241.494846 115.89995 
L 241.350816 115.623962 
L 240.920822 114.944667 
L 240.629478 114.563826 
L 240.379854 114.265372 
L 239.764111 113.648246 
L 239.694654 113.586076 
L 238.898743 112.971137 
L 238.802462 112.906781 
L 238.033375 112.452664 
L 237.572447 112.227486 
L 237.168007 112.049574 
L 236.30264 111.738712 
L 235.614657 111.54819 
L 235.437272 111.502889 
L 234.571904 111.330239 
L 233.706536 111.211709 
L 232.841168 111.140421 
L 231.975801 111.110637 
L 231.110433 111.117634 
L 230.245065 111.157648 
L 229.379697 111.227852 
L 228.51433 111.326398 
L 227.648962 111.452511 
L 227.122184 111.54819 
L 226.783594 111.604177 
L 225.918226 111.779533 
L 225.052859 111.985491 
L 224.187491 112.227486 
L 223.322123 112.497521 
L 222.456755 112.817963 
L 222.449876 112.906781 
L 222.397724 113.586076 
L 222.348846 114.265372 
L 222.303081 114.944667 
L 222.260255 115.623962 
L 222.22019 116.303258 
L 222.182704 116.982553 
L 222.147616 117.661848 
L 222.114747 118.341144 
L 222.083924 119.020439 
L 222.054979 119.699734 
L 222.027754 120.37903 
L 222.002099 121.058325 
L 221.977872 121.73762 
L 221.954945 122.416916 
L 221.933198 123.096211 
L 221.912523 123.775506 
L 221.892827 124.454802 
L 221.874024 125.134097 
L 221.856044 125.813392 
L 221.838827 126.492688 
L 222.456755 126.977748 
" style="fill:none;stroke:#08306b;stroke-width:1.5;"/>
    <path clip-path="url(#p64f14d8ee5)" d="M 322.839416 53.204156 
L 323.704784 53.249649 
L 324.570152 53.269329 
L 325.43552 53.266435 
L 326.300887 53.242269 
L 327.166255 53.196506 
L 328.011394 53.128791 
L 328.031623 53.127426 
L 328.896991 53.038858 
L 329.762359 52.921431 
L 330.627726 52.768555 
L 331.493094 52.570913 
L 331.504772 52.449496 
L 331.569835 51.770201 
L 331.630426 51.090905 
L 331.686739 50.41161 
L 331.738979 49.732315 
L 331.78736 49.053019 
L 331.832098 48.373724 
L 331.873414 47.694429 
L 331.911527 47.015133 
L 331.946656 46.335838 
L 331.979013 45.656543 
L 332.008809 44.977247 
L 332.036245 44.297952 
L 332.061517 43.618657 
L 332.08481 42.939361 
L 332.106301 42.260066 
L 332.126159 41.58077 
L 332.144538 40.901475 
L 331.493094 40.390105 
L 330.627726 40.402083 
L 329.762359 40.415408 
L 328.896991 40.430188 
L 328.031623 40.446545 
L 327.166255 40.464605 
L 326.300887 40.48451 
L 325.43552 40.506406 
L 324.570152 40.530451 
L 323.704784 40.556807 
L 322.839416 40.585643 
L 321.974049 40.617131 
L 321.108681 40.651446 
L 320.243313 40.688758 
L 319.377945 40.729233 
L 318.512578 40.773029 
L 317.64721 40.820285 
L 316.781842 40.871123 
L 316.282917 40.901475 
L 316.456948 41.58077 
L 316.585656 42.260066 
L 316.673305 42.939361 
L 316.72497 43.618657 
L 316.746229 44.297952 
L 316.743055 44.977247 
L 316.721893 45.656543 
L 316.689909 46.335838 
L 316.655439 47.015133 
L 316.62868 47.694429 
L 316.62274 48.373724 
L 316.655279 49.053019 
L 316.751155 49.732315 
L 316.781842 49.854712 
L 316.941256 50.41161 
L 317.28961 51.090905 
L 317.64721 51.522755 
L 317.90343 51.770201 
L 318.512578 52.186597 
L 319.042116 52.449496 
L 319.377945 52.581203 
L 320.243313 52.838308 
L 321.108681 53.011696 
L 321.974049 53.127191 
L 321.990381 53.128791 
L 322.839416 53.204156 
" style="fill:none;stroke:#08306b;stroke-width:1.5;"/>
   </g>
   <g id="LineCollection_20">
    <path clip-path="url(#p64f14d8ee5)" d="M 222.456755 127.170878 
L 280.436396 127.061932 
L 295.147648 126.791198 
L 301.212774 126.492688 
L 306.397429 126.045923 
L 310.724268 125.438245 
L 315.051107 124.556173 
L 323.704784 122.255942 
L 325.43552 121.619858 
L 327.166255 120.74353 
L 328.547136 119.699734 
L 329.881589 118.341144 
L 330.627726 117.558723 
L 331.493094 116.9574 
L 331.827483 115.623962 
L 332.07017 113.586076 
L 332.237335 109.510304 
L 332.315845 99.320874 
L 332.357244 40.901475 
L 331.493094 40.223136 
L 244.956317 40.327969 
L 238.898743 40.52792 
L 236.30264 40.81268 
L 235.803036 40.901475 
L 235.160054 41.58077 
L 233.706536 42.641271 
L 231.975801 43.671278 
L 228.481096 45.656543 
L 227.539929 46.335838 
L 226.169933 47.694429 
L 225.268659 49.053019 
L 224.620636 50.41161 
L 223.90684 52.449496 
L 223.209619 55.166677 
L 222.660305 57.883859 
L 222.178967 61.280335 
L 221.881555 65.356107 
L 221.703052 71.469765 
L 221.62169 84.376377 
L 221.592796 126.492688 
L 222.456755 127.170878 
L 222.456755 127.170878 
" style="fill:none;stroke:#f7fbff;stroke-width:1.5;"/>
   </g>
   <g id="line2d_14">
    <path clip-path="url(#p64f14d8ee5)" d="M 221.591387 127.171983 
L 332.358462 127.171983 
L 332.358462 40.22218 
L 221.591387 40.22218 
L 221.591387 127.171983 
" style="fill:none;stroke:#e3eef8;stroke-linecap:round;"/>
   </g>
   <g id="text_18">
    <!-- Bernstein -->
    <g style="fill:#262626;" transform="translate(254.159375 34.22218)scale(0.12 -0.12)">
     <defs>
      <path d="M 570 4416 
L 570 0 
L 2163 0 
C 3034 0 3667 574 3667 1200 
C 3667 1685 3251 2176 2502 2317 
C 3334 2558 3501 3040 3501 3313 
C 3501 3883 2874 4416 1997 4416 
L 570 4416 
z
M 1088 2496 
L 1088 4059 
L 1824 4059 
C 2483 4059 3002 3724 3002 3306 
C 3002 2926 2592 2496 1766 2496 
L 1088 2496 
z
M 1088 357 
L 1088 2107 
L 1939 2107 
C 2630 2107 3162 1679 3162 1206 
C 3162 772 2694 357 1984 357 
L 1088 357 
z
" id="CMSS17-42" transform="scale(0.015625)"/>
      <path d="M 2502 1377 
C 2502 1590 2490 2003 2285 2345 
C 2061 2713 1696 2816 1421 2816 
C 755 2816 192 2188 192 1375 
C 192 582 774 -64 1510 -64 
C 1798 -64 2150 19 2470 248 
C 2470 274 2458 414 2451 420 
C 2451 433 2432 630 2432 656 
C 2125 407 1773 325 1517 325 
C 1107 325 666 667 646 1377 
L 2502 1377 
z
M 698 1728 
C 781 2084 1062 2421 1421 2421 
C 1517 2421 1965 2421 2080 1728 
L 698 1728 
z
" id="CMSS17-65" transform="scale(0.015625)"/>
      <path d="M 954 1363 
C 954 1965 1395 2368 1958 2368 
L 1958 2789 
C 1549 2789 1165 2585 934 2253 
L 934 2758 
L 480 2758 
L 480 0 
L 954 0 
L 954 1363 
z
" id="CMSS17-72" transform="scale(0.015625)"/>
      <path d="M 1069 2368 
L 1901 2368 
L 1901 2737 
L 1069 2737 
L 1069 3520 
L 614 3520 
L 614 2737 
L 109 2737 
L 109 2368 
L 602 2368 
L 602 749 
C 602 384 685 -64 1107 -64 
C 1427 -64 1722 25 2003 172 
L 1901 548 
C 1747 414 1562 337 1363 337 
C 1082 337 1069 696 1069 856 
L 1069 2368 
z
" id="CMSS17-74" transform="scale(0.015625)"/>
     </defs>
     <use transform="scale(0.996264)" xlink:href="#CMSS17-42"/>
     <use transform="translate(62.33804 0)scale(0.996264)" xlink:href="#CMSS17-65"/>
     <use transform="translate(103.976862 0)scale(0.996264)" xlink:href="#CMSS17-72"/>
     <use transform="translate(135.886635 0)scale(0.996264)" xlink:href="#CMSS17-6e"/>
     <use transform="translate(184.091578 0)scale(0.996264)" xlink:href="#CMSS17-73"/>
     <use transform="translate(220.00512 0)scale(0.996264)" xlink:href="#CMSS17-74"/>
     <use transform="translate(253.836687 0)scale(0.996264)" xlink:href="#CMSS17-65"/>
     <use transform="translate(295.475509 0)scale(0.996264)" xlink:href="#CMSS17-69"/>
     <use transform="translate(317.656232 0)scale(0.996264)" xlink:href="#CMSS17-6e"/>
    </g>
   </g>
  </g>
  <g id="axes_3">
   <g id="patch_4">
    <path d="M 391.271387 127.171983 
L 502.038462 127.171983 
L 502.038462 40.22218 
L 391.271387 40.22218 
z
" style="fill:none;opacity:0;"/>
   </g>
   <g id="matplotlib.axis_5">
    <g id="xtick_7">
     <g id="line2d_15">
      <path clip-path="url(#p0a19ba0e59)" d="M 391.271387 127.171983 
L 391.271387 40.22218 
" style="fill:none;stroke:#ffffff;stroke-linecap:round;"/>
     </g>
     <g id="text_19">
      <!-- $\mathdefault{0.0}$ -->
      <g style="fill:#262626;" transform="translate(384.269849 144.28233)scale(0.11 -0.11)">
       <use transform="scale(0.996264)" xlink:href="#CMR17-30"/>
       <use transform="translate(45.690477 0)scale(0.996264)" xlink:href="#CMMI12-3a"/>
       <use transform="translate(72.787654 0)scale(0.996264)" xlink:href="#CMR17-30"/>
      </g>
     </g>
    </g>
    <g id="xtick_8">
     <g id="line2d_16">
      <path clip-path="url(#p0a19ba0e59)" d="M 446.654925 127.171983 
L 446.654925 40.22218 
" style="fill:none;stroke:#ffffff;stroke-linecap:round;"/>
     </g>
     <g id="text_20">
      <!-- $\mathdefault{0.5}$ -->
      <g style="fill:#262626;" transform="translate(439.653387 144.28233)scale(0.11 -0.11)">
       <use transform="scale(0.996264)" xlink:href="#CMR17-30"/>
       <use transform="translate(45.690477 0)scale(0.996264)" xlink:href="#CMMI12-3a"/>
       <use transform="translate(72.787654 0)scale(0.996264)" xlink:href="#CMR17-35"/>
      </g>
     </g>
    </g>
    <g id="xtick_9">
     <g id="line2d_17">
      <path clip-path="url(#p0a19ba0e59)" d="M 502.038462 127.171983 
L 502.038462 40.22218 
" style="fill:none;stroke:#ffffff;stroke-linecap:round;"/>
     </g>
     <g id="text_21">
      <!-- $\mathdefault{1.0}$ -->
      <g style="fill:#262626;" transform="translate(495.036924 144.28233)scale(0.11 -0.11)">
       <use transform="scale(0.996264)" xlink:href="#CMR17-31"/>
       <use transform="translate(45.690477 0)scale(0.996264)" xlink:href="#CMMI12-3a"/>
       <use transform="translate(72.787654 0)scale(0.996264)" xlink:href="#CMR17-30"/>
      </g>
     </g>
    </g>
    <g id="text_22">
     <!-- $u_1$ -->
     <g style="fill:#262626;" transform="translate(441.206613 158.715404)scale(0.12 -0.12)">
      <use transform="scale(0.996264)" xlink:href="#CMMI12-75"/>
      <use transform="translate(55.52033 -14.943915)scale(0.697382)" xlink:href="#CMR17-31"/>
     </g>
    </g>
   </g>
   <g id="matplotlib.axis_6">
    <g id="ytick_7">
     <g id="line2d_18">
      <path clip-path="url(#p0a19ba0e59)" d="M 391.271387 127.171983 
L 502.038462 127.171983 
" style="fill:none;stroke:#ffffff;stroke-linecap:round;"/>
     </g>
     <g id="text_23">
      <!-- $\mathdefault{0.0}$ -->
      <g style="fill:#262626;" transform="translate(367.768311 130.977156)scale(0.11 -0.11)">
       <use transform="scale(0.996264)" xlink:href="#CMR17-30"/>
       <use transform="translate(45.690477 0)scale(0.996264)" xlink:href="#CMMI12-3a"/>
       <use transform="translate(72.787654 0)scale(0.996264)" xlink:href="#CMR17-30"/>
      </g>
     </g>
    </g>
    <g id="ytick_8">
     <g id="line2d_19">
      <path clip-path="url(#p0a19ba0e59)" d="M 391.271387 83.697081 
L 502.038462 83.697081 
" style="fill:none;stroke:#ffffff;stroke-linecap:round;"/>
     </g>
     <g id="text_24">
      <!-- $\mathdefault{0.5}$ -->
      <g style="fill:#262626;" transform="translate(367.768311 87.502255)scale(0.11 -0.11)">
       <use transform="scale(0.996264)" xlink:href="#CMR17-30"/>
       <use transform="translate(45.690477 0)scale(0.996264)" xlink:href="#CMMI12-3a"/>
       <use transform="translate(72.787654 0)scale(0.996264)" xlink:href="#CMR17-35"/>
      </g>
     </g>
    </g>
    <g id="ytick_9">
     <g id="line2d_20">
      <path clip-path="url(#p0a19ba0e59)" d="M 391.271387 40.22218 
L 502.038462 40.22218 
" style="fill:none;stroke:#ffffff;stroke-linecap:round;"/>
     </g>
     <g id="text_25">
      <!-- $\mathdefault{1.0}$ -->
      <g style="fill:#262626;" transform="translate(367.768311 44.027353)scale(0.11 -0.11)">
       <use transform="scale(0.996264)" xlink:href="#CMR17-31"/>
       <use transform="translate(45.690477 0)scale(0.996264)" xlink:href="#CMMI12-3a"/>
       <use transform="translate(72.787654 0)scale(0.996264)" xlink:href="#CMR17-30"/>
      </g>
     </g>
    </g>
    <g id="text_26">
     <!-- $u_2$ -->
     <g style="fill:#262626;" transform="translate(352.32 81.372486)scale(0.12 -0.12)">
      <use transform="scale(0.996264)" xlink:href="#CMMI12-75"/>
      <use transform="translate(55.52033 -14.943915)scale(0.697382)" xlink:href="#CMR17-32"/>
     </g>
    </g>
   </g>
   <g id="LineCollection_21">
    <path clip-path="url(#p0a19ba0e59)" d="M 392.136755 127.161725 
L 425.886098 126.88714 
L 431.078305 126.617019 
L 434.539776 126.253078 
L 444.058821 124.941163 
L 454.443235 123.376023 
L 460.500809 122.295417 
L 466.149152 121.058325 
L 470.019854 119.98207 
L 474.346693 118.534992 
L 483.000371 115.294412 
L 486.986156 113.586076 
L 489.057945 112.465776 
L 490.788681 111.260473 
L 491.998533 110.1896 
L 493.384784 108.688924 
L 496.10876 105.434532 
L 496.859421 104.755237 
L 498.666942 103.396646 
L 499.5017 102.038056 
L 500.176748 99.320874 
L 500.395378 97.962284 
L 501.253256 89.810739 
L 501.469952 83.017786 
L 501.535492 72.828356 
L 501.654406 63.997517 
L 501.970485 49.053019 
L 502.026909 40.901475 
L 501.173094 40.231249 
L 477.808164 40.406011 
L 471.75059 40.653028 
L 458.770073 41.423309 
L 448.38566 41.61013 
L 432.80904 41.867028 
L 427.616834 42.163158 
L 425.886098 42.353658 
L 422.876763 42.939361 
L 421.060643 43.618657 
L 419.828524 44.31687 
L 418.097788 45.704892 
L 416.205176 47.694429 
L 413.682639 50.41161 
L 411.39208 52.449496 
L 408.578743 54.582084 
L 405.196828 57.204563 
L 403.741125 58.563154 
L 402.505157 59.921745 
L 400.993305 61.959631 
L 399.767241 63.997517 
L 398.19433 67.159148 
L 392.943079 78.942014 
L 392.545721 81.659195 
L 392.264337 85.055672 
L 392.105995 89.810739 
L 391.840957 101.35876 
L 391.391573 112.906781 
L 391.298836 123.775506 
L 391.284455 126.492688 
L 392.136755 127.161725 
L 392.136755 127.161725 
" style="fill:none;stroke:#cfe1f2;stroke-width:1.5;"/>
   </g>
   <g id="LineCollection_22">
    <path clip-path="url(#p0a19ba0e59)" d="M 392.136755 127.150006 
L 423.289995 126.72613 
L 426.751466 126.491981 
L 432.80904 125.362852 
L 438.001247 124.200751 
L 442.328086 123.026502 
L 446.654925 121.4923 
L 457.039338 117.557909 
L 473.481326 111.725778 
L 477.138988 110.1896 
L 480.404268 108.580946 
L 483.000371 107.053077 
L 485.294228 105.434532 
L 487.32721 103.713373 
L 489.057945 101.970132 
L 490.788681 99.896682 
L 492.600332 97.282988 
L 494.586036 93.886512 
L 497.382168 88.452149 
L 498.059922 86.414263 
L 498.462068 84.376377 
L 498.734684 81.659195 
L 499.577034 70.79047 
L 500.307726 66.424235 
L 501.176707 64.676812 
L 501.822361 51.770201 
L 501.993982 42.260066 
L 502.01371 40.901475 
L 501.173094 40.241609 
L 481.269635 40.472964 
L 475.212061 40.785193 
L 473.481326 40.975632 
L 470.019854 41.472 
L 465.693016 41.848695 
L 458.770073 42.170188 
L 445.789557 42.738941 
L 440.59735 43.116516 
L 436.270511 43.688327 
L 433.674408 44.30985 
L 431.878244 44.977247 
L 430.212937 45.866071 
L 428.482202 47.128242 
L 426.751466 48.781572 
L 424.059607 51.770201 
L 421.559259 54.341449 
L 419.828524 55.871157 
L 417.197728 57.883859 
L 410.309478 62.782628 
L 408.214595 64.676812 
L 406.848007 66.188901 
L 405.442176 68.073289 
L 404.163499 70.111175 
L 400.141068 76.904128 
L 395.433627 83.697081 
L 394.532106 85.734967 
L 393.867491 87.92337 
L 393.362611 91.16933 
L 392.957708 95.245102 
L 392.428781 102.038056 
L 391.626945 110.868895 
L 391.406906 116.982553 
L 391.299384 126.492688 
L 392.136755 127.150006 
L 392.136755 127.150006 
" style="fill:none;stroke:#b5d4e9;stroke-width:1.5;"/>
   </g>
   <g id="LineCollection_23">
    <path clip-path="url(#p0a19ba0e59)" d="M 392.136755 127.138796 
L 404.251904 127.04083 
L 415.501685 126.882974 
L 421.559259 126.621371 
L 423.368208 126.492688 
L 428.482202 125.291315 
L 431.943673 124.28321 
L 435.405144 123.078125 
L 438.224679 121.73762 
L 441.546546 119.699734 
L 444.924189 117.624913 
L 447.520292 116.250647 
L 450.981764 114.669663 
L 456.17397 112.577591 
L 463.96228 109.465353 
L 467.423751 107.882773 
L 470.738428 106.113828 
L 473.481326 104.371483 
L 476.077429 102.482707 
L 486.461842 94.419899 
L 488.513455 92.527921 
L 489.923313 90.965659 
L 491.259171 89.131444 
L 492.519416 87.001846 
L 493.744302 84.376377 
L 494.766779 81.659195 
L 495.800257 78.262719 
L 496.974212 73.507651 
L 499.247149 63.997517 
L 499.920466 61.959631 
L 500.307726 60.957212 
L 501.173723 59.921745 
L 501.611905 53.808087 
L 501.898919 46.335838 
L 502.001085 40.901475 
L 501.173094 40.25152 
L 483.000371 40.528066 
L 477.808164 40.816925 
L 476.824926 40.901475 
L 474.346693 41.491811 
L 470.885222 42.085438 
L 465.693016 42.560524 
L 451.847131 43.628904 
L 447.365218 44.297952 
L 444.058821 45.104269 
L 441.462718 46.054119 
L 439.527134 47.015133 
L 437.441115 48.373724 
L 435.405144 50.025505 
L 433.557528 51.770201 
L 425.886098 59.388217 
L 422.669332 61.959631 
L 416.367053 66.824431 
L 414.388385 68.752584 
L 412.699919 70.79047 
L 411.174846 73.039501 
L 406.62996 80.300605 
L 404.954845 82.338491 
L 403.386536 83.907608 
L 401.194529 85.734967 
L 398.666798 87.772853 
L 397.966309 88.452149 
L 396.865011 89.810739 
L 396.065062 91.16933 
L 395.454513 92.527921 
L 394.590438 95.245102 
L 393.365936 100.679465 
L 392.832654 103.396646 
L 391.808316 110.868895 
L 391.524143 115.623962 
L 391.371104 122.416916 
L 391.313666 126.492688 
L 392.136755 127.138796 
L 392.136755 127.138796 
" style="fill:none;stroke:#93c4de;stroke-width:1.5;"/>
   </g>
   <g id="LineCollection_24">
    <path clip-path="url(#p0a19ba0e59)" d="M 392.136755 127.127477 
L 402.521168 127.004208 
L 412.905582 126.867434 
L 419.828524 126.563885 
L 420.827907 126.492688 
L 425.02073 125.27484 
L 427.26065 124.454802 
L 431.078305 122.730545 
L 432.731449 121.73762 
L 435.268188 119.699734 
L 438.311378 116.982553 
L 440.59735 115.214269 
L 443.193454 113.545151 
L 446.654925 111.687888 
L 452.757406 108.831009 
L 457.904706 106.325184 
L 460.721978 104.755237 
L 463.96228 102.642552 
L 466.558383 100.678147 
L 474.346693 94.490174 
L 477.347196 92.527921 
L 485.596474 87.431352 
L 487.586618 85.734967 
L 489.057945 84.170291 
L 490.423408 82.338491 
L 491.676318 80.300605 
L 493.341938 76.904128 
L 494.250152 74.719377 
L 496.114399 69.431879 
L 498.798271 61.280335 
L 499.67265 59.242449 
L 500.49759 57.883859 
L 501.176858 57.204563 
L 501.600837 51.770201 
L 501.893285 44.977247 
L 501.988338 40.901475 
L 501.173094 40.261526 
L 483.865739 40.591999 
L 479.002283 40.901475 
L 477.808164 41.334888 
L 473.481326 42.570992 
L 470.019854 43.033096 
L 457.039338 44.634083 
L 454.443235 45.218168 
L 451.847131 46.054955 
L 450.116396 46.81256 
L 448.505424 47.694429 
L 446.51512 49.053019 
L 444.016219 51.090905 
L 441.108376 53.808087 
L 437.833829 57.204563 
L 433.243296 61.959631 
L 430.212937 64.738207 
L 420.693892 73.046783 
L 418.461153 75.545537 
L 415.759514 78.942014 
L 412.040214 83.510759 
L 410.309478 85.365017 
L 408.49878 87.093558 
L 405.98264 89.164912 
L 403.123833 91.16933 
L 399.925065 93.335393 
L 398.19433 94.866024 
L 396.863244 96.603693 
L 396.074269 97.962284 
L 395.102077 100.00017 
L 393.867491 102.884872 
L 392.731565 106.793123 
L 391.991428 110.868895 
L 391.648642 114.944667 
L 391.439987 120.37903 
L 391.328084 126.492688 
L 392.136755 127.127477 
L 392.136755 127.127477 
" style="fill:none;stroke:#6baed6;stroke-width:1.5;"/>
   </g>
   <g id="LineCollection_25">
    <path clip-path="url(#p0a19ba0e59)" d="M 392.136755 127.116678 
L 400.790433 126.969819 
L 411.174846 126.844673 
L 418.097788 126.544931 
L 418.963156 126.455694 
L 421.559259 125.609473 
L 425.260994 123.775506 
L 427.616834 122.317718 
L 429.347569 120.885327 
L 430.506028 119.699734 
L 435.928884 113.586076 
L 437.47434 112.227486 
L 439.731983 110.535641 
L 442.421767 108.831009 
L 447.24156 106.113828 
L 451.883887 103.396646 
L 454.877645 101.35876 
L 457.462404 99.320874 
L 460.515859 96.603693 
L 464.827648 92.761755 
L 467.423751 90.789776 
L 470.019854 89.124972 
L 472.615958 87.706865 
L 476.942797 85.658903 
L 481.269635 83.602529 
L 483.865739 82.101283 
L 485.596474 80.865694 
L 487.32721 79.352281 
L 489.057945 77.483243 
L 491.009129 74.866242 
L 492.697723 72.149061 
L 494.449423 68.752584 
L 496.190152 64.676812 
L 498.161976 59.921745 
L 499.442359 57.436136 
L 500.307726 56.16604 
L 501.173094 55.405192 
L 501.631982 49.732315 
L 501.899664 43.618657 
L 501.976174 40.901475 
L 501.173094 40.271074 
L 484.731107 40.637368 
L 480.679681 40.901475 
L 479.5389 41.449336 
L 479.197465 41.58077 
L 478.41597 42.260066 
L 476.942797 42.86789 
L 474.346693 43.487867 
L 461.882336 45.656543 
L 459.635441 46.380402 
L 457.904706 47.140592 
L 455.828852 48.373724 
L 454.116583 49.732315 
L 451.847131 51.94788 
L 448.90472 55.166677 
L 439.172089 66.035403 
L 436.270511 68.821136 
L 432.405983 72.149061 
L 426.747611 76.904128 
L 423.124991 80.300605 
L 415.401914 87.772853 
L 412.905582 89.810739 
L 410.075868 91.848626 
L 406.848007 93.900238 
L 399.925065 98.121667 
L 398.19433 99.587291 
L 396.463594 101.578609 
L 393.867491 105.520079 
L 392.838609 108.151714 
L 391.993241 112.227486 
L 391.650161 116.303258 
L 391.449563 121.73762 
L 391.341842 126.492688 
L 392.136755 127.116678 
L 392.136755 127.116678 
" style="fill:none;stroke:#4a97c9;stroke-width:1.5;"/>
   </g>
   <g id="LineCollection_26">
    <path clip-path="url(#p0a19ba0e59)" d="M 392.136755 127.107485 
L 400.790433 126.936218 
L 411.174846 126.790272 
L 417.396398 126.492688 
L 419.828524 125.517719 
L 421.559259 124.372233 
L 424.235856 122.416916 
L 425.886098 120.839615 
L 426.860613 119.699734 
L 428.482202 117.379373 
L 432.391123 111.54819 
L 433.674408 110.014124 
L 435.537023 108.151714 
L 438.013598 106.113828 
L 441.462718 103.679038 
L 445.753799 100.679465 
L 448.38566 98.562629 
L 450.496932 96.603693 
L 453.072929 93.886512 
L 457.039338 89.635555 
L 459.123095 87.772853 
L 461.366177 86.133412 
L 463.149781 85.055672 
L 465.861475 83.697081 
L 469.192979 82.338491 
L 474.346693 80.55518 
L 478.850734 78.942014 
L 481.269635 77.892852 
L 483.865739 76.49012 
L 486.461842 74.690856 
L 488.60385 72.828356 
L 489.964377 71.469765 
L 491.705456 69.431879 
L 493.574342 66.714698 
L 495.11552 63.95777 
L 497.45432 59.242449 
L 499.053318 56.525268 
L 500.307726 54.904417 
L 501.173094 54.157665 
L 501.611052 49.053019 
L 501.895032 42.939361 
L 501.965822 40.901475 
L 501.173094 40.279201 
L 484.731107 40.706375 
L 481.904102 40.901475 
L 480.774914 41.58077 
L 480.633968 42.260066 
L 479.963931 42.939361 
L 479.5389 43.20563 
L 477.808164 43.914442 
L 475.212061 44.579771 
L 467.12265 46.335838 
L 464.827648 47.138953 
L 463.096912 47.975006 
L 461.438462 49.053019 
L 459.91159 50.41161 
L 458.165003 52.449496 
L 455.76735 55.845973 
L 451.521247 61.959631 
L 447.520292 67.274457 
L 444.924189 70.3885 
L 442.587586 72.828356 
L 440.322458 74.866242 
L 437.135879 77.352935 
L 427.616834 84.511481 
L 420.693892 90.121497 
L 418.097788 91.908543 
L 414.725154 93.886512 
L 410.309478 96.096808 
L 401.655801 100.307576 
L 399.059697 101.941156 
L 397.295766 103.396646 
L 395.334259 105.434532 
L 393.867491 107.186456 
L 392.824009 109.510304 
L 392.027061 112.906781 
L 391.669105 116.982553 
L 391.465179 122.416916 
L 391.353552 126.492688 
L 392.136755 127.107485 
L 392.136755 127.107485 
" style="fill:none;stroke:#2e7ebb;stroke-width:1.5;"/>
   </g>
   <g id="LineCollection_27">
    <path clip-path="url(#p0a19ba0e59)" d="M 392.136755 127.101403 
L 399.925065 126.917622 
L 410.309478 126.781381 
L 416.513512 126.492688 
L 418.3511 125.813392 
L 422.424627 122.14941 
L 423.463426 121.058325 
L 424.539486 119.699734 
L 425.886098 117.574931 
L 427.246166 114.944667 
L 430.24985 108.831009 
L 431.50167 106.793123 
L 433.040239 104.755237 
L 434.952432 102.717351 
L 437.207652 100.679465 
L 441.020343 97.282988 
L 442.938556 95.245102 
L 444.489202 93.207216 
L 445.724488 91.16933 
L 446.690954 89.131444 
L 447.520292 86.777422 
L 447.91489 85.055672 
L 447.943603 83.697081 
L 447.520292 82.948889 
L 446.654925 82.714647 
L 444.924189 82.864084 
L 442.328086 83.507696 
L 439.731983 84.39014 
L 436.650825 85.734967 
L 434.539776 86.836667 
L 431.869136 88.452149 
L 424.155363 93.470448 
L 421.559259 94.777483 
L 418.762831 95.924398 
L 414.636317 97.335303 
L 407.713375 99.682364 
L 403.386536 101.422977 
L 400.705296 102.717351 
L 399.059697 103.665899 
L 397.328962 104.890175 
L 394.732859 107.186322 
L 393.468884 108.831009 
L 393.002123 109.581061 
L 392.013618 113.586076 
L 391.663905 117.661848 
L 391.470839 123.096211 
L 391.361301 126.492688 
L 392.136755 127.101403 
L 392.136755 127.101403 
" style="fill:none;stroke:#1764ab;stroke-width:1.5;"/>
    <path clip-path="url(#p0a19ba0e59)" d="M 452.712499 79.396198 
L 454.443235 79.427363 
L 457.904706 78.978974 
L 472.615958 76.387693 
L 476.942797 75.386349 
L 479.5389 74.60889 
L 482.38756 73.507651 
L 484.731107 72.364444 
L 487.32721 70.768902 
L 489.104762 69.431879 
L 490.788681 67.922154 
L 492.519416 65.987857 
L 494.358481 63.318221 
L 498.576991 56.310652 
L 499.442359 55.146751 
L 500.75753 53.808087 
L 501.173094 53.44761 
L 501.618343 48.373724 
L 501.881505 42.939361 
L 501.958971 40.901475 
L 501.173094 40.284578 
L 484.731107 40.75204 
L 482.635201 40.901475 
L 481.706332 41.58077 
L 481.876915 42.260066 
L 481.653408 42.939361 
L 480.974329 43.618657 
L 479.758611 44.297952 
L 478.673532 44.725154 
L 476.077429 45.458639 
L 470.885222 46.761784 
L 469.154487 47.328108 
L 467.423751 48.05812 
L 466.558383 48.51003 
L 464.781293 49.732315 
L 463.394867 51.090905 
L 462.231545 52.619881 
L 461.094569 54.487382 
L 459.376668 57.883859 
L 453.939588 69.431879 
L 452.676078 72.828356 
L 451.847131 75.822392 
L 451.647691 76.904128 
L 451.608886 78.262719 
L 451.847131 78.942014 
L 452.712499 79.396198 
L 452.712499 79.396198 
" style="fill:none;stroke:#1764ab;stroke-width:1.5;"/>
   </g>
   <g id="LineCollection_28">
    <path clip-path="url(#p0a19ba0e59)" d="M 392.136755 127.093837 
L 399.925065 126.890358 
L 410.309478 126.739515 
L 415.501685 126.483829 
L 417.232421 125.641627 
L 418.114771 124.454802 
L 419.828524 122.184214 
L 421.225912 120.37903 
L 422.489211 118.341144 
L 423.422767 116.303258 
L 424.155363 114.021826 
L 424.551159 112.227486 
L 424.80401 110.1896 
L 424.822789 108.151714 
L 424.65794 106.793123 
L 424.274097 105.434532 
L 423.956697 104.755237 
L 423.289995 103.808942 
L 422.424627 103.032174 
L 421.559259 102.514758 
L 419.828524 101.886443 
L 418.097788 101.562599 
L 415.501685 101.407535 
L 412.905582 101.527706 
L 410.309478 101.869355 
L 407.713375 102.406772 
L 404.251904 103.39989 
L 401.655801 104.34247 
L 399.059697 105.529498 
L 396.943744 106.793123 
L 395.598226 107.71717 
L 393.867491 109.172167 
L 392.892722 110.868895 
L 392.00907 114.265372 
L 391.664194 118.341144 
L 391.480489 123.775506 
L 391.370939 126.492688 
L 392.136755 127.093837 
L 392.136755 127.093837 
" style="fill:none;stroke:#084a92;stroke-width:1.5;"/>
    <path clip-path="url(#p0a19ba0e59)" d="M 471.75059 69.48195 
L 473.481326 69.724438 
L 476.077429 69.825714 
L 478.673532 69.666726 
L 481.269635 69.260277 
L 483.865739 68.59013 
L 486.461842 67.613185 
L 488.240845 66.714698 
L 489.923313 65.64232 
L 491.84899 63.997517 
L 493.384784 62.307952 
L 498.646518 55.166677 
L 499.885218 53.808087 
L 501.196419 52.449496 
L 501.622361 47.694429 
L 501.880302 42.260066 
L 501.950451 40.901475 
L 501.173094 40.291267 
L 485.596474 40.75329 
L 483.478267 40.901475 
L 482.770715 41.58077 
L 483.244215 42.260066 
L 483.406311 42.939361 
L 483.237218 43.618657 
L 482.743964 44.297952 
L 481.88653 44.977247 
L 480.404268 45.734001 
L 477.808164 46.639388 
L 473.481326 48.030769 
L 471.75059 48.770109 
L 470.885222 49.225145 
L 470.019854 49.762623 
L 468.449401 51.090905 
L 467.360581 52.449496 
L 466.558383 53.879194 
L 466.026583 55.166677 
L 465.445914 57.204563 
L 465.097897 59.242449 
L 464.960257 61.280335 
L 465.085843 63.318221 
L 465.389756 64.676812 
L 465.980892 66.035403 
L 466.558383 66.857432 
L 467.423751 67.695158 
L 468.289119 68.280722 
L 470.019854 69.039336 
L 471.75059 69.48195 
L 471.75059 69.48195 
" style="fill:none;stroke:#084a92;stroke-width:1.5;"/>
   </g>
   <g id="LineCollection_29">
    <path clip-path="url(#p0a19ba0e59)" d="M 392.136755 127.066867 
L 393.002123 127.021454 
L 393.867491 126.974196 
L 394.732859 126.927842 
L 395.598226 126.885995 
L 396.463594 126.852013 
L 397.328962 126.8272 
L 398.19433 126.81063 
L 399.059697 126.800097 
L 399.925065 126.793161 
L 400.790433 126.787742 
L 401.655801 126.782287 
L 402.521168 126.775722 
L 403.386536 126.767318 
L 404.251904 126.756578 
L 405.117272 126.743138 
L 405.98264 126.726709 
L 406.848007 126.707028 
L 407.713375 126.683838 
L 408.578743 126.656859 
L 409.444111 126.625782 
L 410.309478 126.590257 
L 411.174846 126.549884 
L 412.040214 126.504201 
L 412.244982 126.492688 
L 412.905582 126.029525 
L 413.264142 125.813392 
L 412.991071 125.134097 
L 412.905582 125.005873 
L 412.470468 124.454802 
L 412.040214 123.881497 
L 411.948903 123.775506 
L 411.574255 123.096211 
L 411.385962 122.416916 
L 411.368981 121.73762 
L 411.474738 121.058325 
L 411.649745 120.37903 
L 411.849266 119.699734 
L 412.040214 119.020439 
L 412.202981 118.341144 
L 412.31515 117.661848 
L 412.364585 116.982553 
L 412.341332 116.303258 
L 412.23592 115.623962 
L 412.040214 114.95175 
L 412.038043 114.944667 
L 411.733578 114.265372 
L 411.303825 113.586076 
L 411.174846 113.425375 
L 410.715399 112.906781 
L 410.309478 112.540022 
L 409.915512 112.227486 
L 409.444111 111.914083 
L 408.789733 111.54819 
L 408.578743 111.445891 
L 407.713375 111.094861 
L 406.993944 110.868895 
L 406.848007 110.827734 
L 405.98264 110.633841 
L 405.117272 110.497135 
L 404.251904 110.409893 
L 403.386536 110.365718 
L 402.521168 110.359588 
L 401.655801 110.387936 
L 400.790433 110.448748 
L 399.925065 110.541597 
L 399.059697 110.667508 
L 398.19433 110.828516 
L 398.026228 110.868895 
L 397.328962 111.020924 
L 396.463594 111.246797 
L 395.598226 111.508005 
L 395.492704 111.54819 
L 394.732859 111.805407 
L 393.875756 112.227486 
L 393.867491 112.231094 
L 393.234358 112.906781 
L 393.002123 113.125991 
L 392.838863 113.586076 
L 392.567275 114.265372 
L 392.240239 114.944667 
L 392.136755 115.122888 
L 392.071949 115.623962 
L 391.991301 116.303258 
L 391.919573 116.982553 
L 391.855966 117.661848 
L 391.799764 118.341144 
L 391.750332 119.020439 
L 391.707108 119.699734 
L 391.669597 120.37903 
L 391.637367 121.058325 
L 391.610035 121.73762 
L 391.587223 122.416916 
L 391.568433 123.096211 
L 391.552656 123.775506 
L 391.537347 124.454802 
L 391.516273 125.134097 
L 391.477331 125.813392 
L 391.405297 126.492688 
L 392.136755 127.066867 
" style="fill:none;stroke:#08306b;stroke-width:1.5;"/>
    <path clip-path="url(#p0a19ba0e59)" d="M 490.788681 54.582957 
L 491.654049 54.682745 
L 492.519416 54.691659 
L 493.384784 54.620859 
L 494.138814 54.487382 
L 494.250152 54.471653 
L 495.11552 54.246998 
L 495.980887 53.92869 
L 496.200489 53.808087 
L 496.846255 53.518875 
L 497.47914 53.128791 
L 497.711623 53.009982 
L 498.540486 52.449496 
L 498.576991 52.428698 
L 499.442359 51.830971 
L 499.523767 51.770201 
L 500.307726 51.255714 
L 500.499399 51.090905 
L 501.173094 50.509113 
L 501.184569 50.41161 
L 501.265889 49.732315 
L 501.341884 49.053019 
L 501.412777 48.373724 
L 501.478752 47.694429 
L 501.539954 47.015133 
L 501.596482 46.335838 
L 501.648374 45.656543 
L 501.695575 44.977247 
L 501.737859 44.297952 
L 501.774656 43.618657 
L 501.804705 42.939361 
L 501.825716 42.260066 
L 501.841296 41.58077 
L 501.920076 40.901475 
L 501.173094 40.315111 
L 500.307726 40.343138 
L 499.442359 40.373789 
L 498.576991 40.399853 
L 497.711623 40.422979 
L 496.846255 40.444929 
L 495.980887 40.466822 
L 495.11552 40.489417 
L 494.250152 40.513316 
L 493.384784 40.539043 
L 492.519416 40.567078 
L 491.654049 40.597882 
L 490.788681 40.631924 
L 489.923313 40.669703 
L 489.057945 40.711767 
L 488.192578 40.758732 
L 487.32721 40.811302 
L 486.461842 40.87028 
L 486.033708 40.901475 
L 485.953998 41.58077 
L 486.461842 41.9191 
L 487.052747 42.260066 
L 487.32721 42.517521 
L 487.804624 42.939361 
L 488.192578 43.509779 
L 488.266221 43.618657 
L 488.521 44.297952 
L 488.663918 44.977247 
L 488.727162 45.656543 
L 488.731318 46.335838 
L 488.690615 47.015133 
L 488.615828 47.694429 
L 488.516098 48.373724 
L 488.400307 49.053019 
L 488.278409 49.732315 
L 488.192578 50.25685 
L 488.159004 50.41161 
L 488.057352 51.090905 
L 488.016462 51.770201 
L 488.082663 52.449496 
L 488.192578 52.783243 
L 488.325914 53.128791 
L 488.899984 53.808087 
L 489.057945 53.919555 
L 489.923313 54.356722 
L 490.357598 54.487382 
L 490.788681 54.582957 
" style="fill:none;stroke:#08306b;stroke-width:1.5;"/>
   </g>
   <g id="LineCollection_30">
    <path clip-path="url(#p0a19ba0e59)" d="M 392.136755 127.171745 
L 446.654925 127.057558 
L 455.308602 126.809315 
L 466.558383 126.3828 
L 474.346693 126.108709 
L 481.269635 125.578629 
L 484.731107 125.104401 
L 487.32721 124.647825 
L 490.788681 123.673447 
L 492.519416 123.000621 
L 494.250152 122.171783 
L 495.980887 121.051588 
L 500.307726 117.606061 
L 500.870852 116.303258 
L 501.481471 113.586076 
L 501.72538 111.54819 
L 501.907721 107.472418 
L 501.999726 98.641579 
L 502.030444 62.638926 
L 502.038194 40.901475 
L 501.173094 40.22239 
L 427.616834 40.336343 
L 417.232421 40.50054 
L 412.905582 40.763897 
L 410.309478 40.94992 
L 406.848007 41.189411 
L 404.573173 41.58077 
L 402.521168 42.161535 
L 398.709962 43.618657 
L 397.328962 44.357432 
L 396.463594 45.078302 
L 395.976314 45.656543 
L 395.270688 47.015133 
L 394.865973 48.373724 
L 394.001964 53.128791 
L 393.626593 55.166677 
L 392.81639 58.563154 
L 392.136755 60.60104 
L 391.742508 62.638926 
L 391.506816 65.356107 
L 391.363152 70.111175 
L 391.296556 82.338491 
L 391.271691 126.492688 
L 392.136755 127.171745 
L 392.136755 127.171745 
" style="fill:none;stroke:#f7fbff;stroke-width:1.5;"/>
   </g>
   <g id="line2d_21">
    <path clip-path="url(#p0a19ba0e59)" d="M 391.271387 127.171983 
L 502.038462 127.171983 
L 502.038462 40.22218 
L 391.271387 40.22218 
L 391.271387 127.171983 
" style="fill:none;stroke:#e3eef8;stroke-linecap:round;"/>
   </g>
   <g id="text_27">
    <!-- Kernel Smoothing -->
    <g style="fill:#262626;" transform="translate(402.785241 34.22218)scale(0.12 -0.12)">
     <defs>
      <path d="M 2234 2666 
L 3827 4416 
L 3213 4416 
L 1101 2106 
L 1101 4416 
L 563 4416 
L 563 0 
L 1101 0 
L 1101 1432 
L 1875 2278 
L 3315 0 
L 3910 0 
L 2234 2666 
z
" id="CMSS17-4b" transform="scale(0.015625)"/>
      <path d="M 947 4416 
L 474 4416 
L 474 0 
L 947 0 
L 947 4416 
z
" id="CMSS17-6c" transform="scale(0.015625)"/>
      <path d="M 2797 4169 
C 2515 4334 2208 4480 1690 4480 
C 864 4480 333 3879 333 3266 
C 333 3025 403 2753 653 2475 
C 902 2196 1184 2121 1542 2033 
C 1690 1994 1939 1924 1984 1906 
C 2342 1767 2515 1444 2515 1140 
C 2515 742 2202 318 1645 318 
C 1453 318 890 318 358 819 
L 269 318 
C 794 -64 1363 -128 1651 -128 
C 2438 -128 3002 488 3002 1186 
C 3002 1440 2925 1763 2656 2061 
C 2394 2347 2163 2410 1638 2549 
C 1338 2626 1146 2677 986 2873 
C 877 3013 819 3146 819 3317 
C 819 3673 1126 4060 1690 4060 
C 1971 4060 2336 4002 2707 3660 
L 2797 4169 
z
" id="CMSS17-53" transform="scale(0.015625)"/>
      <path d="M 4288 1877 
C 4288 2308 4179 2816 3462 2816 
C 2982 2816 2694 2516 2566 2331 
C 2451 2670 2182 2816 1798 2816 
C 1363 2816 1088 2568 941 2389 
L 941 2758 
L 474 2758 
L 474 0 
L 960 0 
L 960 1559 
C 960 1939 1101 2428 1555 2428 
C 2138 2428 2138 2016 2138 1829 
L 2138 0 
L 2624 0 
L 2624 1559 
C 2624 1939 2765 2428 3219 2428 
C 3802 2428 3802 2016 3802 1829 
L 3802 0 
L 4288 0 
L 4288 1877 
z
" id="CMSS17-6d" transform="scale(0.015625)"/>
      <path d="M 2829 1356 
C 2829 2176 2221 2816 1504 2816 
C 768 2816 173 2157 173 1356 
C 173 544 787 -64 1498 -64 
C 2227 -64 2829 563 2829 1356 
z
M 1504 337 
C 1050 337 659 709 659 1408 
C 659 2151 1114 2427 1498 2427 
C 1914 2427 2342 2126 2342 1408 
C 2342 683 1926 337 1504 337 
z
" id="CMSS17-6f" transform="scale(0.015625)"/>
      <path d="M 2618 1891 
C 2618 2292 2522 2820 1798 2820 
C 1395 2820 1133 2623 947 2407 
L 947 4448 
L 474 4448 
L 474 32 
L 960 32 
L 960 1573 
C 960 1973 1114 2432 1549 2432 
C 2112 2432 2131 2056 2131 1839 
L 2131 32 
L 2618 32 
L 2618 1891 
z
" id="CMSS17-68" transform="scale(0.015625)"/>
      <path d="M 2848 2808 
C 2483 2808 2170 2738 1914 2617 
C 1702 2777 1485 2808 1338 2808 
C 781 2808 358 2349 358 1814 
C 358 1468 550 1207 563 1195 
C 448 1035 384 863 384 672 
C 384 448 474 289 544 200 
C 211 -3 166 -314 166 -435 
C 166 -898 749 -1280 1498 -1280 
C 2253 -1280 2835 -898 2835 -428 
C 2835 448 1856 448 1587 448 
L 1069 448 
C 973 448 717 448 717 791 
C 717 921 774 1004 781 1010 
C 877 940 1075 832 1338 832 
C 1869 832 2310 1278 2310 1827 
C 2310 2132 2170 2355 2112 2432 
L 2131 2432 
C 2150 2432 2419 2432 2515 2432 
C 2720 2432 2739 2429 2918 2419 
L 2848 2808 
z
M 1338 1182 
C 1120 1182 813 1315 813 1823 
C 813 2375 1165 2464 1331 2464 
C 1549 2464 1856 2331 1856 1823 
C 1856 1271 1504 1182 1338 1182 
z
M 1581 -10 
C 1734 -10 2381 -10 2381 -442 
C 2381 -714 1984 -929 1504 -929 
C 1018 -929 621 -720 621 -435 
C 621 -403 621 -10 1062 -10 
L 1581 -10 
z
" id="CMSS17-67" transform="scale(0.015625)"/>
     </defs>
     <use transform="scale(0.996264)" xlink:href="#CMSS17-4b"/>
     <use transform="translate(64.820294 0)scale(0.996264)" xlink:href="#CMSS17-65"/>
     <use transform="translate(106.459116 0)scale(0.996264)" xlink:href="#CMSS17-72"/>
     <use transform="translate(138.368888 0)scale(0.996264)" xlink:href="#CMSS17-6e"/>
     <use transform="translate(186.573831 0)scale(0.996264)" xlink:href="#CMSS17-65"/>
     <use transform="translate(228.212653 0)scale(0.996264)" xlink:href="#CMSS17-6c"/>
     <use transform="translate(281.622489 0)scale(0.996264)" xlink:href="#CMSS17-53"/>
     <use transform="translate(333.671005 0)scale(0.996264)" xlink:href="#CMSS17-6d"/>
     <use transform="translate(407.90026 0)scale(0.996264)" xlink:href="#CMSS17-6f"/>
     <use transform="translate(457.346322 0)scale(0.996264)" xlink:href="#CMSS17-6f"/>
     <use transform="translate(504.189946 0)scale(0.996264)" xlink:href="#CMSS17-74"/>
     <use transform="translate(538.021512 0)scale(0.996264)" xlink:href="#CMSS17-68"/>
     <use transform="translate(586.226455 0)scale(0.996264)" xlink:href="#CMSS17-69"/>
     <use transform="translate(608.407179 0)scale(0.996264)" xlink:href="#CMSS17-6e"/>
     <use transform="translate(656.612122 0)scale(0.996264)" xlink:href="#CMSS17-67"/>
    </g>
   </g>
  </g>
 </g>
 <defs>
  <clipPath id="p135cc52b8d">
   <rect height="86.949803" width="110.767074" x="51.911387" y="40.22218"/>
  </clipPath>
  <clipPath id="p64f14d8ee5">
   <rect height="86.949803" width="110.767074" x="221.591387" y="40.22218"/>
  </clipPath>
  <clipPath id="p0a19ba0e59">
   <rect height="86.949803" width="110.767074" x="391.271387" y="40.22218"/>
  </clipPath>
 </defs>
</svg>
