<?xml version="1.0" encoding="utf-8" standalone="no"?>
<!DOCTYPE svg PUBLIC "-//W3C//DTD SVG 1.1//EN"
  "http://www.w3.org/Graphics/SVG/1.1/DTD/svg11.dtd">
<!-- Created with matplotlib (https://matplotlib.org/) -->
<svg height="321.327812pt" version="1.1" viewBox="0 0 877.860937 321.327812" width="877.860937pt" xmlns="http://www.w3.org/2000/svg" xmlns:xlink="http://www.w3.org/1999/xlink">
 <defs>
  <style type="text/css">
*{stroke-linecap:butt;stroke-linejoin:round;}
  </style>
 </defs>
 <g id="figure_1">
  <g id="patch_1">
   <path d="M 0 321.327812 
L 877.860937 321.327812 
L 877.860937 0 
L 0 0 
z
" style="fill:#dcdcdc;"/>
  </g>
  <g id="axes_1">
   <g id="patch_2">
    <path d="M 33.660938 297.9825 
L 414.115483 297.9825 
L 414.115483 26.1825 
L 33.660938 26.1825 
z
" style="fill:#dcdcdc;"/>
   </g>
   <g id="matplotlib.axis_1">
    <g id="xtick_1">
     <g id="line2d_1">
      <path clip-path="url(#p34e1266bb8)" d="M 50.954326 297.9825 
L 50.954326 26.1825 
" style="fill:none;stroke:#ffffff;stroke-linecap:round;"/>
     </g>
     <g id="line2d_2"/>
     <g id="text_1">
      <!-- 0 -->
      <defs>
       <path d="M 4.15625 35.296875 
Q 4.15625 48 6.765625 55.734375 
Q 9.375 63.484375 14.515625 67.671875 
Q 19.671875 71.875 27.484375 71.875 
Q 33.25 71.875 37.59375 69.546875 
Q 41.9375 67.234375 44.765625 62.859375 
Q 47.609375 58.5 49.21875 52.21875 
Q 50.828125 45.953125 50.828125 35.296875 
Q 50.828125 22.703125 48.234375 14.96875 
Q 45.65625 7.234375 40.5 3 
Q 35.359375 -1.21875 27.484375 -1.21875 
Q 17.140625 -1.21875 11.234375 6.203125 
Q 4.15625 15.140625 4.15625 35.296875 
z
M 13.1875 35.296875 
Q 13.1875 17.671875 17.3125 11.828125 
Q 21.4375 6 27.484375 6 
Q 33.546875 6 37.671875 11.859375 
Q 41.796875 17.71875 41.796875 35.296875 
Q 41.796875 52.984375 37.671875 58.78125 
Q 33.546875 64.59375 27.390625 64.59375 
Q 21.34375 64.59375 17.71875 59.46875 
Q 13.1875 52.9375 13.1875 35.296875 
z
" id="ArialMT-48"/>
      </defs>
      <g style="fill:#262626;" transform="translate(48.173857 312.140312)scale(0.1 -0.1)">
       <use xlink:href="#ArialMT-48"/>
      </g>
     </g>
    </g>
    <g id="xtick_2">
     <g id="line2d_3">
      <path clip-path="url(#p34e1266bb8)" d="M 120.12788 297.9825 
L 120.12788 26.1825 
" style="fill:none;stroke:#ffffff;stroke-linecap:round;"/>
     </g>
     <g id="line2d_4"/>
     <g id="text_2">
      <!-- 2 -->
      <defs>
       <path d="M 50.34375 8.453125 
L 50.34375 0 
L 3.03125 0 
Q 2.9375 3.171875 4.046875 6.109375 
Q 5.859375 10.9375 9.828125 15.625 
Q 13.8125 20.3125 21.34375 26.46875 
Q 33.015625 36.03125 37.109375 41.625 
Q 41.21875 47.21875 41.21875 52.203125 
Q 41.21875 57.421875 37.46875 61 
Q 33.734375 64.59375 27.734375 64.59375 
Q 21.390625 64.59375 17.578125 60.78125 
Q 13.765625 56.984375 13.71875 50.25 
L 4.6875 51.171875 
Q 5.609375 61.28125 11.65625 66.578125 
Q 17.71875 71.875 27.9375 71.875 
Q 38.234375 71.875 44.234375 66.15625 
Q 50.25 60.453125 50.25 52 
Q 50.25 47.703125 48.484375 43.546875 
Q 46.734375 39.40625 42.65625 34.8125 
Q 38.578125 30.21875 29.109375 22.21875 
Q 21.1875 15.578125 18.9375 13.203125 
Q 16.703125 10.84375 15.234375 8.453125 
z
" id="ArialMT-50"/>
      </defs>
      <g style="fill:#262626;" transform="translate(117.347411 312.140312)scale(0.1 -0.1)">
       <use xlink:href="#ArialMT-50"/>
      </g>
     </g>
    </g>
    <g id="xtick_3">
     <g id="line2d_5">
      <path clip-path="url(#p34e1266bb8)" d="M 189.301433 297.9825 
L 189.301433 26.1825 
" style="fill:none;stroke:#ffffff;stroke-linecap:round;"/>
     </g>
     <g id="line2d_6"/>
     <g id="text_3">
      <!-- 4 -->
      <defs>
       <path d="M 32.328125 0 
L 32.328125 17.140625 
L 1.265625 17.140625 
L 1.265625 25.203125 
L 33.9375 71.578125 
L 41.109375 71.578125 
L 41.109375 25.203125 
L 50.78125 25.203125 
L 50.78125 17.140625 
L 41.109375 17.140625 
L 41.109375 0 
z
M 32.328125 25.203125 
L 32.328125 57.46875 
L 9.90625 25.203125 
z
" id="ArialMT-52"/>
      </defs>
      <g style="fill:#262626;" transform="translate(186.520965 312.140312)scale(0.1 -0.1)">
       <use xlink:href="#ArialMT-52"/>
      </g>
     </g>
    </g>
    <g id="xtick_4">
     <g id="line2d_7">
      <path clip-path="url(#p34e1266bb8)" d="M 258.474987 297.9825 
L 258.474987 26.1825 
" style="fill:none;stroke:#ffffff;stroke-linecap:round;"/>
     </g>
     <g id="line2d_8"/>
     <g id="text_4">
      <!-- 6 -->
      <defs>
       <path d="M 49.75 54.046875 
L 41.015625 53.375 
Q 39.84375 58.546875 37.703125 60.890625 
Q 34.125 64.65625 28.90625 64.65625 
Q 24.703125 64.65625 21.53125 62.3125 
Q 17.390625 59.28125 14.984375 53.46875 
Q 12.59375 47.65625 12.5 36.921875 
Q 15.671875 41.75 20.265625 44.09375 
Q 24.859375 46.4375 29.890625 46.4375 
Q 38.671875 46.4375 44.84375 39.96875 
Q 51.03125 33.5 51.03125 23.25 
Q 51.03125 16.5 48.125 10.71875 
Q 45.21875 4.9375 40.140625 1.859375 
Q 35.0625 -1.21875 28.609375 -1.21875 
Q 17.625 -1.21875 10.6875 6.859375 
Q 3.765625 14.9375 3.765625 33.5 
Q 3.765625 54.25 11.421875 63.671875 
Q 18.109375 71.875 29.4375 71.875 
Q 37.890625 71.875 43.28125 67.140625 
Q 48.6875 62.40625 49.75 54.046875 
z
M 13.875 23.1875 
Q 13.875 18.65625 15.796875 14.5 
Q 17.71875 10.359375 21.1875 8.171875 
Q 24.65625 6 28.46875 6 
Q 34.03125 6 38.03125 10.484375 
Q 42.046875 14.984375 42.046875 22.703125 
Q 42.046875 30.125 38.078125 34.390625 
Q 34.125 38.671875 28.125 38.671875 
Q 22.171875 38.671875 18.015625 34.390625 
Q 13.875 30.125 13.875 23.1875 
z
" id="ArialMT-54"/>
      </defs>
      <g style="fill:#262626;" transform="translate(255.694518 312.140312)scale(0.1 -0.1)">
       <use xlink:href="#ArialMT-54"/>
      </g>
     </g>
    </g>
    <g id="xtick_5">
     <g id="line2d_9">
      <path clip-path="url(#p34e1266bb8)" d="M 327.648541 297.9825 
L 327.648541 26.1825 
" style="fill:none;stroke:#ffffff;stroke-linecap:round;"/>
     </g>
     <g id="line2d_10"/>
     <g id="text_5">
      <!-- 8 -->
      <defs>
       <path d="M 17.671875 38.8125 
Q 12.203125 40.828125 9.5625 44.53125 
Q 6.9375 48.25 6.9375 53.421875 
Q 6.9375 61.234375 12.546875 66.546875 
Q 18.171875 71.875 27.484375 71.875 
Q 36.859375 71.875 42.578125 66.421875 
Q 48.296875 60.984375 48.296875 53.171875 
Q 48.296875 48.1875 45.671875 44.5 
Q 43.0625 40.828125 37.75 38.8125 
Q 44.34375 36.671875 47.78125 31.875 
Q 51.21875 27.09375 51.21875 20.453125 
Q 51.21875 11.28125 44.71875 5.03125 
Q 38.234375 -1.21875 27.640625 -1.21875 
Q 17.046875 -1.21875 10.546875 5.046875 
Q 4.046875 11.328125 4.046875 20.703125 
Q 4.046875 27.6875 7.59375 32.390625 
Q 11.140625 37.109375 17.671875 38.8125 
z
M 15.921875 53.71875 
Q 15.921875 48.640625 19.1875 45.40625 
Q 22.46875 42.1875 27.6875 42.1875 
Q 32.765625 42.1875 36.015625 45.375 
Q 39.265625 48.578125 39.265625 53.21875 
Q 39.265625 58.0625 35.90625 61.359375 
Q 32.5625 64.65625 27.59375 64.65625 
Q 22.5625 64.65625 19.234375 61.421875 
Q 15.921875 58.203125 15.921875 53.71875 
z
M 13.09375 20.65625 
Q 13.09375 16.890625 14.875 13.375 
Q 16.65625 9.859375 20.171875 7.921875 
Q 23.6875 6 27.734375 6 
Q 34.03125 6 38.125 10.046875 
Q 42.234375 14.109375 42.234375 20.359375 
Q 42.234375 26.703125 38.015625 30.859375 
Q 33.796875 35.015625 27.4375 35.015625 
Q 21.234375 35.015625 17.15625 30.90625 
Q 13.09375 26.8125 13.09375 20.65625 
z
" id="ArialMT-56"/>
      </defs>
      <g style="fill:#262626;" transform="translate(324.868072 312.140312)scale(0.1 -0.1)">
       <use xlink:href="#ArialMT-56"/>
      </g>
     </g>
    </g>
    <g id="xtick_6">
     <g id="line2d_11">
      <path clip-path="url(#p34e1266bb8)" d="M 396.822095 297.9825 
L 396.822095 26.1825 
" style="fill:none;stroke:#ffffff;stroke-linecap:round;"/>
     </g>
     <g id="line2d_12"/>
     <g id="text_6">
      <!-- 10 -->
      <defs>
       <path d="M 37.25 0 
L 28.46875 0 
L 28.46875 56 
Q 25.296875 52.984375 20.140625 49.953125 
Q 14.984375 46.921875 10.890625 45.40625 
L 10.890625 53.90625 
Q 18.265625 57.375 23.78125 62.296875 
Q 29.296875 67.234375 31.59375 71.875 
L 37.25 71.875 
z
" id="ArialMT-49"/>
      </defs>
      <g style="fill:#262626;" transform="translate(391.261157 312.140312)scale(0.1 -0.1)">
       <use xlink:href="#ArialMT-49"/>
       <use x="55.615234" xlink:href="#ArialMT-48"/>
      </g>
     </g>
    </g>
   </g>
   <g id="matplotlib.axis_2">
    <g id="ytick_1">
     <g id="line2d_13">
      <path clip-path="url(#p34e1266bb8)" d="M 33.660938 285.406451 
L 414.115483 285.406451 
" style="fill:none;stroke:#ffffff;stroke-linecap:round;"/>
     </g>
     <g id="line2d_14"/>
     <g id="text_7">
      <!-- 0.00 -->
      <defs>
       <path d="M 9.078125 0 
L 9.078125 10.015625 
L 19.09375 10.015625 
L 19.09375 0 
z
" id="ArialMT-46"/>
      </defs>
      <g style="fill:#262626;" transform="translate(7.2 288.985357)scale(0.1 -0.1)">
       <use xlink:href="#ArialMT-48"/>
       <use x="55.615234" xlink:href="#ArialMT-46"/>
       <use x="83.398438" xlink:href="#ArialMT-48"/>
       <use x="139.013672" xlink:href="#ArialMT-48"/>
      </g>
     </g>
    </g>
    <g id="ytick_2">
     <g id="line2d_15">
      <path clip-path="url(#p34e1266bb8)" d="M 33.660938 251.84069 
L 414.115483 251.84069 
" style="fill:none;stroke:#ffffff;stroke-linecap:round;"/>
     </g>
     <g id="line2d_16"/>
     <g id="text_8">
      <!-- 0.05 -->
      <defs>
       <path d="M 4.15625 18.75 
L 13.375 19.53125 
Q 14.40625 12.796875 18.140625 9.390625 
Q 21.875 6 27.15625 6 
Q 33.5 6 37.890625 10.78125 
Q 42.28125 15.578125 42.28125 23.484375 
Q 42.28125 31 38.0625 35.34375 
Q 33.84375 39.703125 27 39.703125 
Q 22.75 39.703125 19.328125 37.765625 
Q 15.921875 35.84375 13.96875 32.765625 
L 5.71875 33.84375 
L 12.640625 70.609375 
L 48.25 70.609375 
L 48.25 62.203125 
L 19.671875 62.203125 
L 15.828125 42.96875 
Q 22.265625 47.46875 29.34375 47.46875 
Q 38.71875 47.46875 45.15625 40.96875 
Q 51.609375 34.46875 51.609375 24.265625 
Q 51.609375 14.546875 45.953125 7.46875 
Q 39.0625 -1.21875 27.15625 -1.21875 
Q 17.390625 -1.21875 11.203125 4.25 
Q 5.03125 9.71875 4.15625 18.75 
z
" id="ArialMT-53"/>
      </defs>
      <g style="fill:#262626;" transform="translate(7.2 255.419597)scale(0.1 -0.1)">
       <use xlink:href="#ArialMT-48"/>
       <use x="55.615234" xlink:href="#ArialMT-46"/>
       <use x="83.398438" xlink:href="#ArialMT-48"/>
       <use x="139.013672" xlink:href="#ArialMT-53"/>
      </g>
     </g>
    </g>
    <g id="ytick_3">
     <g id="line2d_17">
      <path clip-path="url(#p34e1266bb8)" d="M 33.660938 218.27493 
L 414.115483 218.27493 
" style="fill:none;stroke:#ffffff;stroke-linecap:round;"/>
     </g>
     <g id="line2d_18"/>
     <g id="text_9">
      <!-- 0.10 -->
      <g style="fill:#262626;" transform="translate(7.2 221.853836)scale(0.1 -0.1)">
       <use xlink:href="#ArialMT-48"/>
       <use x="55.615234" xlink:href="#ArialMT-46"/>
       <use x="83.398438" xlink:href="#ArialMT-49"/>
       <use x="139.013672" xlink:href="#ArialMT-48"/>
      </g>
     </g>
    </g>
    <g id="ytick_4">
     <g id="line2d_19">
      <path clip-path="url(#p34e1266bb8)" d="M 33.660938 184.709169 
L 414.115483 184.709169 
" style="fill:none;stroke:#ffffff;stroke-linecap:round;"/>
     </g>
     <g id="line2d_20"/>
     <g id="text_10">
      <!-- 0.15 -->
      <g style="fill:#262626;" transform="translate(7.2 188.288076)scale(0.1 -0.1)">
       <use xlink:href="#ArialMT-48"/>
       <use x="55.615234" xlink:href="#ArialMT-46"/>
       <use x="83.398438" xlink:href="#ArialMT-49"/>
       <use x="139.013672" xlink:href="#ArialMT-53"/>
      </g>
     </g>
    </g>
    <g id="ytick_5">
     <g id="line2d_21">
      <path clip-path="url(#p34e1266bb8)" d="M 33.660938 151.143409 
L 414.115483 151.143409 
" style="fill:none;stroke:#ffffff;stroke-linecap:round;"/>
     </g>
     <g id="line2d_22"/>
     <g id="text_11">
      <!-- 0.20 -->
      <g style="fill:#262626;" transform="translate(7.2 154.722315)scale(0.1 -0.1)">
       <use xlink:href="#ArialMT-48"/>
       <use x="55.615234" xlink:href="#ArialMT-46"/>
       <use x="83.398438" xlink:href="#ArialMT-50"/>
       <use x="139.013672" xlink:href="#ArialMT-48"/>
      </g>
     </g>
    </g>
    <g id="ytick_6">
     <g id="line2d_23">
      <path clip-path="url(#p34e1266bb8)" d="M 33.660938 117.577648 
L 414.115483 117.577648 
" style="fill:none;stroke:#ffffff;stroke-linecap:round;"/>
     </g>
     <g id="line2d_24"/>
     <g id="text_12">
      <!-- 0.25 -->
      <g style="fill:#262626;" transform="translate(7.2 121.156554)scale(0.1 -0.1)">
       <use xlink:href="#ArialMT-48"/>
       <use x="55.615234" xlink:href="#ArialMT-46"/>
       <use x="83.398438" xlink:href="#ArialMT-50"/>
       <use x="139.013672" xlink:href="#ArialMT-53"/>
      </g>
     </g>
    </g>
    <g id="ytick_7">
     <g id="line2d_25">
      <path clip-path="url(#p34e1266bb8)" d="M 33.660938 84.011888 
L 414.115483 84.011888 
" style="fill:none;stroke:#ffffff;stroke-linecap:round;"/>
     </g>
     <g id="line2d_26"/>
     <g id="text_13">
      <!-- 0.30 -->
      <defs>
       <path d="M 4.203125 18.890625 
L 12.984375 20.0625 
Q 14.5 12.59375 18.140625 9.296875 
Q 21.78125 6 27 6 
Q 33.203125 6 37.46875 10.296875 
Q 41.75 14.59375 41.75 20.953125 
Q 41.75 27 37.796875 30.921875 
Q 33.84375 34.859375 27.734375 34.859375 
Q 25.25 34.859375 21.53125 33.890625 
L 22.515625 41.609375 
Q 23.390625 41.5 23.921875 41.5 
Q 29.546875 41.5 34.03125 44.421875 
Q 38.53125 47.359375 38.53125 53.46875 
Q 38.53125 58.296875 35.25 61.46875 
Q 31.984375 64.65625 26.8125 64.65625 
Q 21.6875 64.65625 18.265625 61.421875 
Q 14.84375 58.203125 13.875 51.765625 
L 5.078125 53.328125 
Q 6.6875 62.15625 12.390625 67.015625 
Q 18.109375 71.875 26.609375 71.875 
Q 32.46875 71.875 37.390625 69.359375 
Q 42.328125 66.84375 44.9375 62.5 
Q 47.5625 58.15625 47.5625 53.265625 
Q 47.5625 48.640625 45.0625 44.828125 
Q 42.578125 41.015625 37.703125 38.765625 
Q 44.046875 37.3125 47.5625 32.6875 
Q 51.078125 28.078125 51.078125 21.140625 
Q 51.078125 11.765625 44.234375 5.25 
Q 37.40625 -1.265625 26.953125 -1.265625 
Q 17.53125 -1.265625 11.296875 4.34375 
Q 5.078125 9.96875 4.203125 18.890625 
z
" id="ArialMT-51"/>
      </defs>
      <g style="fill:#262626;" transform="translate(7.2 87.590794)scale(0.1 -0.1)">
       <use xlink:href="#ArialMT-48"/>
       <use x="55.615234" xlink:href="#ArialMT-46"/>
       <use x="83.398438" xlink:href="#ArialMT-51"/>
       <use x="139.013672" xlink:href="#ArialMT-48"/>
      </g>
     </g>
    </g>
    <g id="ytick_8">
     <g id="line2d_27">
      <path clip-path="url(#p34e1266bb8)" d="M 33.660938 50.446127 
L 414.115483 50.446127 
" style="fill:none;stroke:#ffffff;stroke-linecap:round;"/>
     </g>
     <g id="line2d_28"/>
     <g id="text_14">
      <!-- 0.35 -->
      <g style="fill:#262626;" transform="translate(7.2 54.025033)scale(0.1 -0.1)">
       <use xlink:href="#ArialMT-48"/>
       <use x="55.615234" xlink:href="#ArialMT-46"/>
       <use x="83.398438" xlink:href="#ArialMT-51"/>
       <use x="139.013672" xlink:href="#ArialMT-53"/>
      </g>
     </g>
    </g>
   </g>
   <g id="line2d_29">
    <path clip-path="url(#p34e1266bb8)" d="M 50.954326 285.627955 
L 52.31067 283.357612 
L 53.667014 276.18083 
L 55.023359 265.929804 
L 56.379703 253.017094 
L 57.736047 238.511289 
L 61.805079 190.03385 
L 64.517768 157.884838 
L 67.230456 128.328048 
L 69.943145 102.554672 
L 71.299489 91.313045 
L 72.655833 81.172131 
L 74.012177 72.216977 
L 75.368521 64.375042 
L 76.724866 57.691225 
L 78.08121 52.074954 
L 79.437554 47.543952 
L 80.793898 43.997839 
L 82.150242 41.436712 
L 83.506587 39.756417 
L 84.862931 38.946389 
L 86.219275 38.903001 
L 87.575619 39.610028 
L 88.931963 40.967329 
L 90.288307 42.956536 
L 91.644652 45.48293 
L 93.000996 48.528398 
L 94.35734 52.004808 
L 97.070028 60.120629 
L 99.782717 69.457111 
L 102.495405 79.682924 
L 106.564438 96.074704 
L 118.771535 146.262569 
L 122.840568 161.808918 
L 126.909601 176.312732 
L 129.622289 185.349814 
L 132.334977 193.856412 
L 135.047666 201.82586 
L 137.760354 209.260298 
L 140.473043 216.168886 
L 143.185731 222.566245 
L 145.898419 228.471142 
L 148.611108 233.905363 
L 151.323796 238.892777 
L 154.036484 243.458555 
L 156.749173 247.628535 
L 159.461861 251.428705 
L 162.17455 254.884794 
L 164.887238 258.021952 
L 167.599926 260.864506 
L 170.312615 263.435782 
L 173.025303 265.757977 
L 175.737991 267.852077 
L 178.45068 269.737812 
L 181.163368 271.433636 
L 185.232401 273.659833 
L 189.301433 275.547307 
L 193.370466 277.147728 
L 197.439499 278.497965 
L 201.508531 279.637811 
L 206.933908 280.880044 
L 212.359285 281.863341 
L 217.784661 282.639272 
L 224.566382 283.380746 
L 232.704447 284.018992 
L 242.198857 284.51827 
L 254.405955 284.910393 
L 272.038429 285.193863 
L 293.739936 285.332259 
L 324.935852 285.393339 
L 361.557146 285.399049 
L 376.476932 285.414012 
L 383.258653 285.393042 
L 387.327685 285.423126 
L 391.396718 285.378719 
L 392.753062 285.439504 
L 394.109406 285.36256 
L 395.46575 285.467096 
L 396.822095 285.306812 
L 396.822095 285.306812 
" style="fill:none;stroke:#4c72b0;stroke-linecap:round;stroke-width:1.75;"/>
   </g>
   <g id="line2d_30">
    <path clip-path="url(#p34e1266bb8)" d="M 50.954326 285.406075 
L 52.31067 282.811456 
L 53.667014 275.810445 
L 55.023359 265.444515 
L 56.379703 252.59579 
L 59.092391 222.300422 
L 64.517768 157.315613 
L 67.230456 127.734022 
L 69.943145 101.953541 
L 71.299489 90.696252 
L 72.655833 80.581054 
L 74.012177 71.62041 
L 75.368521 63.809297 
L 76.724866 57.128462 
L 78.08121 51.547229 
L 79.437554 47.025926 
L 80.793898 43.517952 
L 82.150242 40.971554 
L 83.506587 39.331335 
L 84.862931 38.539523 
L 86.219275 38.537045 
L 87.575619 39.264417 
L 88.931963 40.66248 
L 90.288307 42.673007 
L 91.644652 45.239185 
L 93.000996 48.306002 
L 94.35734 51.820548 
L 95.713684 55.732238 
L 98.426373 64.557259 
L 101.139061 74.427784 
L 105.208094 90.526063 
L 120.12788 151.715179 
L 124.196912 166.948754 
L 128.265945 181.093427 
L 130.978633 189.870194 
L 133.691322 198.109466 
L 136.40401 205.809571 
L 139.116698 212.976693 
L 141.829387 219.623204 
L 144.542075 225.766229 
L 147.254763 231.426418 
L 149.967452 236.626929 
L 152.68014 241.392564 
L 155.392829 245.749071 
L 158.105517 249.722566 
L 160.818205 253.33908 
L 163.530894 256.624192 
L 166.243582 259.602755 
L 168.956271 262.298685 
L 171.668959 264.734816 
L 174.381647 266.93279 
L 177.094336 268.913002 
L 179.807024 270.694572 
L 183.876057 273.033133 
L 187.945089 275.019458 
L 192.014122 276.702292 
L 196.083154 278.124617 
L 200.152187 279.324098 
L 204.221219 280.333552 
L 209.646596 281.432506 
L 215.071973 282.300665 
L 221.853694 283.131195 
L 228.635415 283.744875 
L 236.77348 284.271323 
L 247.624234 284.727495 
L 261.187675 285.052335 
L 280.176494 285.266046 
L 312.728755 285.378575 
L 396.822095 285.406075 
L 396.822095 285.406075 
" style="fill:none;stroke:#55a868;stroke-dasharray:11.2,2.8,1.75,2.8;stroke-dashoffset:0;stroke-width:1.75;"/>
   </g>
   <g id="patch_3">
    <path d="M 33.660938 297.9825 
L 33.660938 26.1825 
" style="fill:none;"/>
   </g>
   <g id="patch_4">
    <path d="M 414.115483 297.9825 
L 414.115483 26.1825 
" style="fill:none;"/>
   </g>
   <g id="patch_5">
    <path d="M 33.660938 297.9825 
L 414.115483 297.9825 
" style="fill:none;"/>
   </g>
   <g id="patch_6">
    <path d="M 33.660938 26.1825 
L 414.115483 26.1825 
" style="fill:none;"/>
   </g>
   <g id="text_15">
    <!-- $u(t)$ -->
    <defs>
     <path d="M 6.6875 21.6875 
L 13.09375 54.6875 
L 22.125 54.6875 
L 15.71875 22.015625 
Q 15.234375 19.625 15.015625 17.921875 
Q 14.796875 16.21875 14.796875 15.09375 
Q 14.796875 10.9375 17.328125 8.65625 
Q 19.875 6.390625 24.515625 6.390625 
Q 31.734375 6.390625 37 11.265625 
Q 42.28125 16.15625 43.890625 24.421875 
L 49.90625 54.6875 
L 58.890625 54.6875 
L 48.296875 0 
L 39.3125 0 
L 41.109375 8.59375 
Q 37.3125 3.8125 32.0625 1.1875 
Q 26.8125 -1.421875 20.90625 -1.421875 
Q 13.71875 -1.421875 9.71875 2.515625 
Q 5.71875 6.453125 5.71875 13.484375 
Q 5.71875 14.9375 5.953125 17.140625 
Q 6.203125 19.34375 6.6875 21.6875 
z
" id="DejaVuSans-Oblique-117"/>
     <path d="M 31 75.875 
Q 24.46875 64.65625 21.28125 53.65625 
Q 18.109375 42.671875 18.109375 31.390625 
Q 18.109375 20.125 21.3125 9.0625 
Q 24.515625 -2 31 -13.1875 
L 23.1875 -13.1875 
Q 15.875 -1.703125 12.234375 9.375 
Q 8.59375 20.453125 8.59375 31.390625 
Q 8.59375 42.28125 12.203125 53.3125 
Q 15.828125 64.359375 23.1875 75.875 
z
" id="DejaVuSans-40"/>
     <path d="M 42.28125 54.6875 
L 40.921875 47.703125 
L 23 47.703125 
L 17.1875 18.015625 
Q 16.890625 16.359375 16.75 15.234375 
Q 16.609375 14.109375 16.609375 13.484375 
Q 16.609375 10.359375 18.484375 8.9375 
Q 20.359375 7.515625 24.515625 7.515625 
L 33.59375 7.515625 
L 32.078125 0 
L 23.484375 0 
Q 15.484375 0 11.546875 3.125 
Q 7.625 6.25 7.625 12.59375 
Q 7.625 13.71875 7.765625 15.0625 
Q 7.90625 16.40625 8.203125 18.015625 
L 14.015625 47.703125 
L 6.390625 47.703125 
L 7.8125 54.6875 
L 15.28125 54.6875 
L 18.3125 70.21875 
L 27.296875 70.21875 
L 24.3125 54.6875 
z
" id="DejaVuSans-Oblique-116"/>
     <path d="M 8.015625 75.875 
L 15.828125 75.875 
Q 23.140625 64.359375 26.78125 53.3125 
Q 30.421875 42.28125 30.421875 31.390625 
Q 30.421875 20.453125 26.78125 9.375 
Q 23.140625 -1.703125 15.828125 -13.1875 
L 8.015625 -13.1875 
Q 14.5 -2 17.703125 9.0625 
Q 20.90625 20.125 20.90625 31.390625 
Q 20.90625 42.671875 17.703125 53.65625 
Q 14.5 64.65625 8.015625 75.875 
z
" id="DejaVuSans-41"/>
    </defs>
    <g style="fill:#262626;" transform="translate(207.59821 20.1825)scale(0.18 -0.18)">
     <use transform="translate(0 0.125)" xlink:href="#DejaVuSans-Oblique-117"/>
     <use transform="translate(63.378906 0.125)" xlink:href="#DejaVuSans-40"/>
     <use transform="translate(102.392578 0.125)" xlink:href="#DejaVuSans-Oblique-116"/>
     <use transform="translate(141.601562 0.125)" xlink:href="#DejaVuSans-41"/>
    </g>
   </g>
   <g id="legend_1">
    <g id="line2d_31">
     <path d="M 310.755483 46.6825 
L 342.755483 46.6825 
" style="fill:none;stroke:#4c72b0;stroke-linecap:round;stroke-width:1.75;"/>
    </g>
    <g id="line2d_32"/>
    <g id="text_16">
     <!-- $u_{fft}(t)$ -->
     <defs>
      <path d="M 47.796875 75.984375 
L 46.390625 68.5 
L 37.796875 68.5 
Q 32.90625 68.5 30.6875 66.578125 
Q 28.46875 64.65625 27.390625 59.515625 
L 26.421875 54.6875 
L 41.21875 54.6875 
L 39.890625 47.703125 
L 25.09375 47.703125 
L 15.828125 0 
L 6.78125 0 
L 16.109375 47.703125 
L 7.515625 47.703125 
L 8.796875 54.6875 
L 17.390625 54.6875 
L 18.109375 58.5 
Q 19.96875 68.171875 24.625 72.078125 
Q 29.296875 75.984375 39.3125 75.984375 
z
" id="DejaVuSans-Oblique-102"/>
     </defs>
     <g style="fill:#262626;" transform="translate(355.555483 52.2825)scale(0.16 -0.16)">
      <use transform="translate(0 0.125)" xlink:href="#DejaVuSans-Oblique-117"/>
      <use transform="translate(63.378906 -16.28125)scale(0.7)" xlink:href="#DejaVuSans-Oblique-102"/>
      <use transform="translate(88.022461 -16.28125)scale(0.7)" xlink:href="#DejaVuSans-Oblique-102"/>
      <use transform="translate(112.666016 -16.28125)scale(0.7)" xlink:href="#DejaVuSans-Oblique-116"/>
      <use transform="translate(142.84668 0.125)" xlink:href="#DejaVuSans-40"/>
      <use transform="translate(181.860352 0.125)" xlink:href="#DejaVuSans-Oblique-116"/>
      <use transform="translate(221.069336 0.125)" xlink:href="#DejaVuSans-41"/>
     </g>
    </g>
    <g id="line2d_33">
     <path d="M 310.755483 69.5625 
L 342.755483 69.5625 
" style="fill:none;stroke:#55a868;stroke-dasharray:11.2,2.8,1.75,2.8;stroke-dashoffset:0;stroke-width:1.75;"/>
    </g>
    <g id="line2d_34"/>
    <g id="text_17">
     <!-- $u_{An}(t)$ -->
     <defs>
      <path d="M 36.8125 72.90625 
L 48 72.90625 
L 61.53125 0 
L 51.21875 0 
L 48.1875 18.703125 
L 15.375 18.703125 
L 5.078125 0 
L -5.328125 0 
z
M 40.375 63.1875 
L 19.921875 26.90625 
L 46.6875 26.90625 
z
" id="DejaVuSans-Oblique-65"/>
      <path d="M 55.71875 33.015625 
L 49.3125 0 
L 40.28125 0 
L 46.6875 32.671875 
Q 47.125 34.96875 47.359375 36.71875 
Q 47.609375 38.484375 47.609375 39.5 
Q 47.609375 43.609375 45.015625 45.890625 
Q 42.4375 48.1875 37.796875 48.1875 
Q 30.5625 48.1875 25.34375 43.375 
Q 20.125 38.578125 18.5 30.328125 
L 12.5 0 
L 3.515625 0 
L 14.109375 54.6875 
L 23.09375 54.6875 
L 21.296875 46.09375 
Q 25.046875 50.828125 30.3125 53.40625 
Q 35.59375 56 41.40625 56 
Q 48.640625 56 52.609375 52.09375 
Q 56.59375 48.1875 56.59375 41.109375 
Q 56.59375 39.359375 56.375 37.359375 
Q 56.15625 35.359375 55.71875 33.015625 
z
" id="DejaVuSans-Oblique-110"/>
     </defs>
     <g style="fill:#262626;" transform="translate(355.555483 75.1625)scale(0.16 -0.16)">
      <use transform="translate(0 0.125)" xlink:href="#DejaVuSans-Oblique-117"/>
      <use transform="translate(63.378906 -16.28125)scale(0.7)" xlink:href="#DejaVuSans-Oblique-65"/>
      <use transform="translate(111.264648 -16.28125)scale(0.7)" xlink:href="#DejaVuSans-Oblique-110"/>
      <use transform="translate(158.364258 0.125)" xlink:href="#DejaVuSans-40"/>
      <use transform="translate(197.37793 0.125)" xlink:href="#DejaVuSans-Oblique-116"/>
      <use transform="translate(236.586914 0.125)" xlink:href="#DejaVuSans-41"/>
     </g>
    </g>
   </g>
  </g>
  <g id="axes_2">
   <g id="patch_7">
    <path d="M 490.206392 297.9825 
L 870.660937 297.9825 
L 870.660937 26.1825 
L 490.206392 26.1825 
z
" style="fill:#dcdcdc;"/>
   </g>
   <g id="matplotlib.axis_3">
    <g id="xtick_7">
     <g id="line2d_35">
      <path clip-path="url(#p7ded28c50b)" d="M 507.49978 297.9825 
L 507.49978 26.1825 
" style="fill:none;stroke:#ffffff;stroke-linecap:round;"/>
     </g>
     <g id="line2d_36"/>
     <g id="text_18">
      <!-- 0 -->
      <g style="fill:#262626;" transform="translate(504.719312 312.140312)scale(0.1 -0.1)">
       <use xlink:href="#ArialMT-48"/>
      </g>
     </g>
    </g>
    <g id="xtick_8">
     <g id="line2d_37">
      <path clip-path="url(#p7ded28c50b)" d="M 576.673334 297.9825 
L 576.673334 26.1825 
" style="fill:none;stroke:#ffffff;stroke-linecap:round;"/>
     </g>
     <g id="line2d_38"/>
     <g id="text_19">
      <!-- 2 -->
      <g style="fill:#262626;" transform="translate(573.892865 312.140312)scale(0.1 -0.1)">
       <use xlink:href="#ArialMT-50"/>
      </g>
     </g>
    </g>
    <g id="xtick_9">
     <g id="line2d_39">
      <path clip-path="url(#p7ded28c50b)" d="M 645.846888 297.9825 
L 645.846888 26.1825 
" style="fill:none;stroke:#ffffff;stroke-linecap:round;"/>
     </g>
     <g id="line2d_40"/>
     <g id="text_20">
      <!-- 4 -->
      <g style="fill:#262626;" transform="translate(643.066419 312.140312)scale(0.1 -0.1)">
       <use xlink:href="#ArialMT-52"/>
      </g>
     </g>
    </g>
    <g id="xtick_10">
     <g id="line2d_41">
      <path clip-path="url(#p7ded28c50b)" d="M 715.020442 297.9825 
L 715.020442 26.1825 
" style="fill:none;stroke:#ffffff;stroke-linecap:round;"/>
     </g>
     <g id="line2d_42"/>
     <g id="text_21">
      <!-- 6 -->
      <g style="fill:#262626;" transform="translate(712.239973 312.140312)scale(0.1 -0.1)">
       <use xlink:href="#ArialMT-54"/>
      </g>
     </g>
    </g>
    <g id="xtick_11">
     <g id="line2d_43">
      <path clip-path="url(#p7ded28c50b)" d="M 784.193995 297.9825 
L 784.193995 26.1825 
" style="fill:none;stroke:#ffffff;stroke-linecap:round;"/>
     </g>
     <g id="line2d_44"/>
     <g id="text_22">
      <!-- 8 -->
      <g style="fill:#262626;" transform="translate(781.413527 312.140312)scale(0.1 -0.1)">
       <use xlink:href="#ArialMT-56"/>
      </g>
     </g>
    </g>
    <g id="xtick_12">
     <g id="line2d_45">
      <path clip-path="url(#p7ded28c50b)" d="M 853.367549 297.9825 
L 853.367549 26.1825 
" style="fill:none;stroke:#ffffff;stroke-linecap:round;"/>
     </g>
     <g id="line2d_46"/>
     <g id="text_23">
      <!-- 10 -->
      <g style="fill:#262626;" transform="translate(847.806612 312.140312)scale(0.1 -0.1)">
       <use xlink:href="#ArialMT-49"/>
       <use x="55.615234" xlink:href="#ArialMT-48"/>
      </g>
     </g>
    </g>
   </g>
   <g id="matplotlib.axis_4">
    <g id="ytick_9">
     <g id="line2d_47">
      <path clip-path="url(#p7ded28c50b)" d="M 490.206392 280.875486 
L 870.660937 280.875486 
" style="fill:none;stroke:#ffffff;stroke-linecap:round;"/>
     </g>
     <g id="line2d_48"/>
     <g id="text_24">
      <!-- −0.2 -->
      <defs>
       <path d="M 52.828125 31.203125 
L 5.5625 31.203125 
L 5.5625 39.40625 
L 52.828125 39.40625 
z
" id="ArialMT-8722"/>
      </defs>
      <g style="fill:#262626;" transform="translate(463.465767 284.454392)scale(0.1 -0.1)">
       <use xlink:href="#ArialMT-8722"/>
       <use x="58.398438" xlink:href="#ArialMT-48"/>
       <use x="114.013672" xlink:href="#ArialMT-46"/>
       <use x="141.796875" xlink:href="#ArialMT-50"/>
      </g>
     </g>
    </g>
    <g id="ytick_10">
     <g id="line2d_49">
      <path clip-path="url(#p7ded28c50b)" d="M 490.206392 222.26194 
L 870.660937 222.26194 
" style="fill:none;stroke:#ffffff;stroke-linecap:round;"/>
     </g>
     <g id="line2d_50"/>
     <g id="text_25">
      <!-- 0.0 -->
      <g style="fill:#262626;" transform="translate(469.306392 225.840847)scale(0.1 -0.1)">
       <use xlink:href="#ArialMT-48"/>
       <use x="55.615234" xlink:href="#ArialMT-46"/>
       <use x="83.398438" xlink:href="#ArialMT-48"/>
      </g>
     </g>
    </g>
    <g id="ytick_11">
     <g id="line2d_51">
      <path clip-path="url(#p7ded28c50b)" d="M 490.206392 163.648395 
L 870.660937 163.648395 
" style="fill:none;stroke:#ffffff;stroke-linecap:round;"/>
     </g>
     <g id="line2d_52"/>
     <g id="text_26">
      <!-- 0.2 -->
      <g style="fill:#262626;" transform="translate(469.306392 167.227302)scale(0.1 -0.1)">
       <use xlink:href="#ArialMT-48"/>
       <use x="55.615234" xlink:href="#ArialMT-46"/>
       <use x="83.398438" xlink:href="#ArialMT-50"/>
      </g>
     </g>
    </g>
    <g id="ytick_12">
     <g id="line2d_53">
      <path clip-path="url(#p7ded28c50b)" d="M 490.206392 105.03485 
L 870.660937 105.03485 
" style="fill:none;stroke:#ffffff;stroke-linecap:round;"/>
     </g>
     <g id="line2d_54"/>
     <g id="text_27">
      <!-- 0.4 -->
      <g style="fill:#262626;" transform="translate(469.306392 108.613756)scale(0.1 -0.1)">
       <use xlink:href="#ArialMT-48"/>
       <use x="55.615234" xlink:href="#ArialMT-46"/>
       <use x="83.398438" xlink:href="#ArialMT-52"/>
      </g>
     </g>
    </g>
    <g id="ytick_13">
     <g id="line2d_55">
      <path clip-path="url(#p7ded28c50b)" d="M 490.206392 46.421305 
L 870.660937 46.421305 
" style="fill:none;stroke:#ffffff;stroke-linecap:round;"/>
     </g>
     <g id="line2d_56"/>
     <g id="text_28">
      <!-- 0.6 -->
      <g style="fill:#262626;" transform="translate(469.306392 50.000211)scale(0.1 -0.1)">
       <use xlink:href="#ArialMT-48"/>
       <use x="55.615234" xlink:href="#ArialMT-46"/>
       <use x="83.398438" xlink:href="#ArialMT-54"/>
      </g>
     </g>
    </g>
   </g>
   <g id="line2d_57">
    <path clip-path="url(#p7ded28c50b)" d="M 507.49978 222.007656 
L 508.856125 166.343347 
L 510.212469 123.434832 
L 511.568813 91.183314 
L 512.925157 67.854512 
L 514.281501 52.205367 
L 515.637846 42.714916 
L 516.99419 38.597931 
L 518.350534 38.575259 
L 519.706878 42.185482 
L 521.063222 48.355467 
L 522.419567 56.865632 
L 523.775911 66.808222 
L 526.488599 90.10366 
L 534.626664 165.589222 
L 537.339353 188.182681 
L 540.052041 208.401718 
L 541.408385 217.656768 
L 544.121074 233.960568 
L 546.833762 247.653573 
L 549.54645 258.857315 
L 552.259139 267.755436 
L 554.971827 274.566963 
L 557.684516 279.526917 
L 560.397204 282.872575 
L 563.109892 284.834021 
L 565.822581 285.627955 
L 568.535269 285.453922 
L 571.247957 284.49233 
L 573.960646 282.903743 
L 579.386023 278.390463 
L 580.742367 276.95008 
L 582.098711 275.692365 
L 583.455055 274.156124 
L 584.811399 272.82311 
L 586.167744 271.229602 
L 587.524088 269.856402 
L 588.880432 268.2375 
L 590.236776 266.852904 
L 591.59312 265.234544 
L 592.949464 263.861784 
L 594.305809 262.264713 
L 595.662153 260.92219 
L 597.018497 259.362661 
L 598.374841 258.064614 
L 599.731185 256.555034 
L 601.08753 255.312155 
L 602.443874 253.861665 
L 603.800218 252.681651 
L 605.156562 251.296652 
L 606.512906 250.184698 
L 607.869251 248.869311 
L 609.225595 247.828547 
L 610.581939 246.585023 
L 611.938283 245.616891 
L 613.294627 244.445963 
L 614.650972 243.550546 
L 616.007316 242.451737 
L 617.36366 241.628045 
L 618.720004 240.599925 
L 620.076348 239.846135 
L 621.432692 238.886549 
L 622.789037 238.200203 
L 624.145381 237.306453 
L 625.501725 236.68464 
L 626.858069 235.853642 
L 628.214413 235.293128 
L 629.570758 234.521543 
L 630.927102 234.018897 
L 632.283446 233.303231 
L 633.63979 232.854913 
L 634.996134 232.19161 
L 636.352479 231.794051 
L 637.708823 231.179554 
L 639.065167 230.829214 
L 640.421511 230.260019 
L 641.777855 229.953436 
L 643.1342 229.426137 
L 644.490544 229.159961 
L 645.846888 228.671277 
L 647.203232 228.442294 
L 648.559576 227.98909 
L 649.91592 227.794244 
L 651.272265 227.37355 
L 652.628609 227.209953 
L 653.984953 226.818968 
L 655.341297 226.683905 
L 656.697641 226.320006 
L 658.053986 226.21094 
L 659.41033 225.87168 
L 660.766674 225.786249 
L 662.123018 225.469355 
L 663.479362 225.405371 
L 664.835707 225.10874 
L 666.192051 225.064183 
L 667.548395 224.785877 
L 668.904739 224.758886 
L 670.261083 224.497124 
L 671.617428 224.485993 
L 672.973772 224.239142 
L 674.330116 224.242308 
L 675.68646 224.008876 
L 677.042804 224.024914 
L 678.399148 223.80354 
L 679.755493 223.831152 
L 681.111837 223.620599 
L 682.468181 223.658604 
L 683.824525 223.457748 
L 685.180869 223.505078 
L 686.537214 223.3129 
L 687.893558 223.368585 
L 689.249902 223.184166 
L 690.606246 223.247331 
L 691.96259 223.069838 
L 693.318935 223.139694 
L 694.675279 222.968377 
L 696.031623 223.044214 
L 697.387967 222.878397 
L 698.744311 222.959575 
L 700.100656 222.798653 
L 701.457 222.884598 
L 702.813344 222.728024 
L 704.169688 222.818221 
L 705.526032 222.665508 
L 706.882376 222.759496 
L 708.238721 222.610204 
L 709.595065 222.70757 
L 710.951409 222.561309 
L 712.307753 222.661685 
L 713.664097 222.518103 
L 715.020442 222.621159 
L 716.376786 222.479945 
L 717.73313 222.585388 
L 719.089474 222.446261 
L 720.445818 222.55383 
L 721.802163 222.41654 
L 723.158507 222.526003 
L 724.514851 222.39033 
L 725.871195 222.50148 
L 727.227539 222.367224 
L 728.583884 222.479878 
L 729.940228 222.346865 
L 731.296572 222.46086 
L 732.652916 222.328932 
L 734.00926 222.444125 
L 735.365604 222.313142 
L 736.721949 222.429406 
L 738.078293 222.299244 
L 739.434637 222.416467 
L 740.790981 222.287014 
L 742.147325 222.405098 
L 743.50367 222.276257 
L 744.860014 222.395113 
L 746.216358 222.266797 
L 747.572702 222.38635 
L 748.929046 222.258479 
L 750.285391 222.378662 
L 751.641735 222.251166 
L 752.998079 222.371921 
L 754.354423 222.244739 
L 755.710767 222.366015 
L 757.067112 222.23909 
L 758.423456 222.360843 
L 759.7798 222.234125 
L 761.136144 222.356318 
L 762.492488 222.229761 
L 763.848832 222.352361 
L 765.205177 222.225924 
L 766.561521 222.348905 
L 767.917865 222.22255 
L 769.274209 222.345889 
L 770.630553 222.219581 
L 771.986898 222.34326 
L 773.343242 222.216968 
L 774.699586 222.340972 
L 776.05593 222.214666 
L 777.412274 222.338984 
L 778.768619 222.212635 
L 780.124963 222.33726 
L 781.481307 222.210841 
L 782.837651 222.335769 
L 784.193995 222.209254 
L 785.55034 222.334484 
L 786.906684 222.207847 
L 788.263028 222.33338 
L 789.619372 222.206594 
L 790.975716 222.332438 
L 792.33206 222.205476 
L 793.688405 222.331639 
L 795.044749 222.204474 
L 796.401093 222.330968 
L 797.757437 222.203569 
L 799.113781 222.330411 
L 800.470126 222.202747 
L 801.82647 222.329959 
L 803.182814 222.201994 
L 804.539158 222.329601 
L 805.895502 222.201296 
L 807.251847 222.329332 
L 808.608191 222.200642 
L 809.964535 222.329145 
L 811.320879 222.200019 
L 812.677223 222.329038 
L 814.033568 222.199414 
L 815.389912 222.32901 
L 816.746256 222.198817 
L 818.1026 222.329062 
L 819.458944 222.198212 
L 820.815288 222.329199 
L 822.171633 222.197584 
L 823.527977 222.32943 
L 824.884321 222.196914 
L 826.240665 222.329767 
L 827.597009 222.196177 
L 828.953354 222.330233 
L 830.309698 222.195339 
L 831.666042 222.330862 
L 833.022386 222.194353 
L 834.37873 222.331708 
L 835.735075 222.193145 
L 837.091419 222.332858 
L 838.447763 222.191596 
L 839.804107 222.334465 
L 841.160451 222.189497 
L 842.516796 222.336813 
L 843.87314 222.18644 
L 845.229484 222.340498 
L 846.585828 222.181508 
L 847.942172 222.346996 
L 849.298516 222.172154 
L 850.654861 222.36111 
L 852.011205 222.148069 
L 853.367549 222.409789 
L 853.367549 222.409789 
" style="fill:none;stroke:#4c72b0;stroke-linecap:round;stroke-width:1.75;"/>
   </g>
   <g id="line2d_58">
    <path clip-path="url(#p7ded28c50b)" d="M 507.49978 222.068542 
L 508.856125 166.282461 
L 510.212469 123.495718 
L 511.568813 91.122428 
L 512.925157 67.915398 
L 514.281501 52.144482 
L 515.637846 42.775802 
L 516.99419 38.537045 
L 518.350534 38.636145 
L 519.706878 42.124596 
L 521.063222 48.416353 
L 522.419567 56.804746 
L 523.775911 66.869108 
L 526.488599 90.164546 
L 535.983008 177.209656 
L 538.695697 198.65806 
L 541.408385 217.595882 
L 544.121074 233.899682 
L 545.477418 241.075239 
L 546.833762 247.592687 
L 548.190106 253.5032 
L 549.54645 258.796429 
L 550.902795 263.527893 
L 552.259139 267.69455 
L 553.615483 271.353479 
L 554.971827 274.506077 
L 556.328171 277.209005 
L 557.684516 279.466032 
L 559.04086 281.332036 
L 560.397204 282.81169 
L 561.753548 283.957199 
L 563.109892 284.773135 
L 564.466236 285.308488 
L 565.822581 285.567069 
L 567.178925 285.594369 
L 568.535269 285.393036 
L 569.891613 285.004971 
L 571.247957 284.431444 
L 572.604302 283.710801 
L 575.31699 281.862532 
L 578.029678 279.591545 
L 580.742367 277.010966 
L 584.811399 272.762224 
L 601.08753 255.251269 
L 605.156562 251.357537 
L 609.225595 247.767661 
L 613.294627 244.506849 
L 617.36366 241.567159 
L 621.432692 238.947434 
L 625.501725 236.623754 
L 629.570758 234.582429 
L 633.63979 232.794027 
L 637.708823 231.240439 
L 641.777855 229.89255 
L 647.203232 228.381408 
L 652.628609 227.149067 
L 658.053986 226.150054 
L 664.835707 225.169626 
L 671.617428 224.425107 
L 679.755493 223.770266 
L 689.249902 223.245052 
L 701.457 222.823712 
L 716.376786 222.540831 
L 740.790981 222.3479 
L 811.320879 222.260904 
L 831.666042 222.269977 
L 841.160451 222.250383 
L 847.942172 222.28611 
L 849.298516 222.23304 
L 850.654861 222.300224 
L 852.011205 222.208955 
L 853.367549 222.348904 
L 853.367549 222.348904 
" style="fill:none;stroke:#55a868;stroke-dasharray:11.2,2.8,1.75,2.8;stroke-dashoffset:0;stroke-width:1.75;"/>
   </g>
   <g id="patch_8">
    <path d="M 490.206392 297.9825 
L 490.206392 26.1825 
" style="fill:none;"/>
   </g>
   <g id="patch_9">
    <path d="M 870.660937 297.9825 
L 870.660937 26.1825 
" style="fill:none;"/>
   </g>
   <g id="patch_10">
    <path d="M 490.206392 297.9825 
L 870.660937 297.9825 
" style="fill:none;"/>
   </g>
   <g id="patch_11">
    <path d="M 490.206392 26.1825 
L 870.660937 26.1825 
" style="fill:none;"/>
   </g>
   <g id="text_29">
    <!-- $u'(t)$ -->
    <defs>
     <path d="M 3.515625 5.421875 
Q 2.875 5.609375 2.875 6.390625 
L 15.09375 51.8125 
Q 15.671875 53.65625 17.078125 54.78125 
Q 18.5 55.90625 20.3125 55.90625 
Q 22.65625 55.90625 24.4375 54.359375 
Q 26.21875 52.828125 26.21875 50.484375 
Q 26.21875 49.46875 25.6875 48.1875 
L 7.625 4.984375 
Q 7.28125 4.296875 6.6875 4.296875 
Q 6.15625 4.296875 5 4.78125 
Q 3.859375 5.28125 3.515625 5.421875 
z
" id="Cmsy10-48"/>
    </defs>
    <g style="fill:#262626;" transform="translate(661.713665 20.1825)scale(0.18 -0.18)">
     <use transform="translate(0 0.584375)" xlink:href="#DejaVuSans-Oblique-117"/>
     <use transform="translate(67.845052 38.865625)scale(0.7)" xlink:href="#Cmsy10-48"/>
     <use transform="translate(89.822591 0.584375)" xlink:href="#DejaVuSans-40"/>
     <use transform="translate(128.836263 0.584375)" xlink:href="#DejaVuSans-Oblique-116"/>
     <use transform="translate(168.045247 0.584375)" xlink:href="#DejaVuSans-41"/>
    </g>
   </g>
   <g id="legend_2">
    <g id="line2d_59">
     <path d="M 710.340937 52.1025 
L 742.340937 52.1025 
" style="fill:none;stroke:#4c72b0;stroke-linecap:round;stroke-width:1.75;"/>
    </g>
    <g id="line2d_60"/>
    <g id="text_30">
     <!-- $\frac{d u(t)}{dt}$ -->
     <defs>
      <path d="M 41.796875 8.203125 
Q 38.1875 3.46875 33.25 1.015625 
Q 28.328125 -1.421875 22.3125 -1.421875 
Q 14.109375 -1.421875 9.34375 4.171875 
Q 4.59375 9.765625 4.59375 19.484375 
Q 4.59375 27.59375 7.46875 34.9375 
Q 10.359375 42.28125 15.828125 48.09375 
Q 19.4375 51.953125 23.96875 53.96875 
Q 28.515625 56 33.5 56 
Q 38.765625 56 42.796875 53.453125 
Q 46.828125 50.921875 49.03125 46.1875 
L 54.890625 75.984375 
L 63.921875 75.984375 
L 49.125 0 
L 40.09375 0 
z
M 13.921875 21.09375 
Q 13.921875 14.015625 17.109375 10.0625 
Q 20.3125 6.109375 25.984375 6.109375 
Q 30.171875 6.109375 33.765625 8.125 
Q 37.359375 10.15625 40.09375 14.109375 
Q 42.96875 18.21875 44.625 23.578125 
Q 46.296875 28.953125 46.296875 34.1875 
Q 46.296875 40.96875 43.09375 44.765625 
Q 39.890625 48.578125 34.28125 48.578125 
Q 30.03125 48.578125 26.359375 46.578125 
Q 22.703125 44.578125 20.125 40.828125 
Q 17.28125 36.765625 15.59375 31.390625 
Q 13.921875 26.03125 13.921875 21.09375 
z
" id="DejaVuSans-Oblique-100"/>
     </defs>
     <g style="fill:#262626;" transform="translate(755.140937 57.7025)scale(0.16 -0.16)">
      <use transform="translate(0 53.810938)scale(0.7)" xlink:href="#DejaVuSans-Oblique-100"/>
      <use transform="translate(44.433594 53.810938)scale(0.7)" xlink:href="#DejaVuSans-Oblique-117"/>
      <use transform="translate(88.798828 53.810938)scale(0.7)" xlink:href="#DejaVuSans-40"/>
      <use transform="translate(116.108398 53.810938)scale(0.7)" xlink:href="#DejaVuSans-Oblique-116"/>
      <use transform="translate(143.554688 53.810938)scale(0.7)" xlink:href="#DejaVuSans-41"/>
      <use transform="translate(49 -39.859375)scale(0.7)" xlink:href="#DejaVuSans-Oblique-100"/>
      <use transform="translate(93.433594 -39.859375)scale(0.7)" xlink:href="#DejaVuSans-Oblique-116"/>
      <path d="M 0 19.579688 
L 0 25.829688 
L 170.864258 25.829688 
L 170.864258 19.579688 
L 0 19.579688 
z
"/>
     </g>
    </g>
    <g id="line2d_61">
     <path d="M 710.340937 78.9825 
L 742.340937 78.9825 
" style="fill:none;stroke:#55a868;stroke-dasharray:11.2,2.8,1.75,2.8;stroke-dashoffset:0;stroke-width:1.75;"/>
    </g>
    <g id="line2d_62"/>
    <g id="text_31">
     <!-- $-gu(t)+q(t)$ -->
     <defs>
      <path d="M 10.59375 35.5 
L 73.1875 35.5 
L 73.1875 27.203125 
L 10.59375 27.203125 
z
" id="DejaVuSans-8722"/>
      <path d="M 59.625 54.6875 
L 50.296875 6.78125 
Q 47.609375 -7.125 40.015625 -13.953125 
Q 32.421875 -20.796875 19.578125 -20.796875 
Q 14.84375 -20.796875 10.78125 -20.09375 
Q 6.734375 -19.390625 3.21875 -17.921875 
L 4.890625 -9.1875 
Q 8.203125 -11.328125 11.90625 -12.34375 
Q 15.625 -13.375 19.828125 -13.375 
Q 28.375 -13.375 33.859375 -8.703125 
Q 39.359375 -4.046875 41.109375 4.6875 
L 41.890625 8.796875 
Q 38.140625 4.5 33.15625 2.25 
Q 28.171875 0 22.40625 0 
Q 14.109375 0 9.34375 5.484375 
Q 4.59375 10.984375 4.59375 20.609375 
Q 4.59375 28.171875 7.46875 35.421875 
Q 10.359375 42.671875 15.578125 48.296875 
Q 19.046875 52 23.65625 54 
Q 28.265625 56 33.296875 56 
Q 38.8125 56 42.90625 53.4375 
Q 47.015625 50.875 49.03125 46.1875 
L 50.59375 54.6875 
z
M 46.09375 34.625 
Q 46.09375 41.265625 42.96875 44.875 
Q 39.84375 48.484375 34.078125 48.484375 
Q 30.515625 48.484375 27.296875 47.0625 
Q 24.078125 45.65625 21.78125 43.109375 
Q 18.0625 38.921875 15.984375 33.234375 
Q 13.921875 27.546875 13.921875 21.484375 
Q 13.921875 14.75 17.0625 11.125 
Q 20.21875 7.515625 26.125 7.515625 
Q 34.671875 7.515625 40.375 15.25 
Q 46.09375 23 46.09375 34.625 
z
" id="DejaVuSans-Oblique-103"/>
      <path d="M 46 62.703125 
L 46 35.5 
L 73.1875 35.5 
L 73.1875 27.203125 
L 46 27.203125 
L 46 0 
L 37.796875 0 
L 37.796875 27.203125 
L 10.59375 27.203125 
L 10.59375 35.5 
L 37.796875 35.5 
L 37.796875 62.703125 
z
" id="DejaVuSans-43"/>
      <path d="M 41.703125 8.203125 
Q 38.09375 3.46875 33.171875 1.015625 
Q 28.265625 -1.421875 22.3125 -1.421875 
Q 14.015625 -1.421875 9.296875 4.171875 
Q 4.59375 9.765625 4.59375 19.578125 
Q 4.59375 27.484375 7.5 34.859375 
Q 10.40625 42.234375 15.828125 48.09375 
Q 19.34375 51.90625 23.90625 53.953125 
Q 28.46875 56 33.5 56 
Q 39.546875 56 43.453125 53.609375 
Q 47.359375 51.21875 49.125 46.390625 
L 50.6875 54.59375 
L 59.71875 54.59375 
L 45.125 -20.609375 
L 36.078125 -20.609375 
z
M 13.921875 20.90625 
Q 13.921875 13.671875 16.9375 9.890625 
Q 19.96875 6.109375 25.6875 6.109375 
Q 34.1875 6.109375 40.1875 14.234375 
Q 46.1875 22.359375 46.1875 33.984375 
Q 46.1875 41.015625 43.078125 44.75 
Q 39.984375 48.484375 34.1875 48.484375 
Q 29.9375 48.484375 26.3125 46.5 
Q 22.703125 44.53125 20.015625 40.71875 
Q 17.1875 36.71875 15.546875 31.34375 
Q 13.921875 25.984375 13.921875 20.90625 
z
" id="DejaVuSans-Oblique-113"/>
     </defs>
     <g style="fill:#262626;" transform="translate(755.140937 84.5825)scale(0.16 -0.16)">
      <use transform="translate(0 0.125)" xlink:href="#DejaVuSans-8722"/>
      <use transform="translate(83.789062 0.125)" xlink:href="#DejaVuSans-Oblique-103"/>
      <use transform="translate(147.265625 0.125)" xlink:href="#DejaVuSans-Oblique-117"/>
      <use transform="translate(210.644531 0.125)" xlink:href="#DejaVuSans-40"/>
      <use transform="translate(249.658203 0.125)" xlink:href="#DejaVuSans-Oblique-116"/>
      <use transform="translate(288.867188 0.125)" xlink:href="#DejaVuSans-41"/>
      <use transform="translate(347.363281 0.125)" xlink:href="#DejaVuSans-43"/>
      <use transform="translate(450.634766 0.125)" xlink:href="#DejaVuSans-Oblique-113"/>
      <use transform="translate(514.111328 0.125)" xlink:href="#DejaVuSans-40"/>
      <use transform="translate(553.125 0.125)" xlink:href="#DejaVuSans-Oblique-116"/>
      <use transform="translate(592.333984 0.125)" xlink:href="#DejaVuSans-41"/>
     </g>
    </g>
   </g>
  </g>
 </g>
 <defs>
  <clipPath id="p34e1266bb8">
   <rect height="271.8" width="380.454545" x="33.660938" y="26.1825"/>
  </clipPath>
  <clipPath id="p7ded28c50b">
   <rect height="271.8" width="380.454545" x="490.206392" y="26.1825"/>
  </clipPath>
 </defs>
</svg>
