<?xml version="1.0" encoding="utf-8" standalone="no"?>
<!DOCTYPE svg PUBLIC "-//W3C//DTD SVG 1.1//EN"
  "http://www.w3.org/Graphics/SVG/1.1/DTD/svg11.dtd">
<!-- Created with matplotlib (https://matplotlib.org/) -->
<svg height="321.327812pt" version="1.1" viewBox="0 0 880.64375 321.327812" width="880.64375pt" xmlns="http://www.w3.org/2000/svg" xmlns:xlink="http://www.w3.org/1999/xlink">
 <defs>
  <style type="text/css">
*{stroke-linecap:butt;stroke-linejoin:round;}
  </style>
 </defs>
 <g id="figure_1">
  <g id="patch_1">
   <path d="M 0 321.327812 
L 880.64375 321.327812 
L 880.64375 0 
L 0 0 
z
" style="fill:none;"/>
  </g>
  <g id="axes_1">
   <g id="patch_2">
    <path d="M 36.44375 297.9825 
L 282.620221 297.9825 
L 282.620221 26.1825 
L 36.44375 26.1825 
z
" style="fill:#dcdcdc;"/>
   </g>
   <g id="matplotlib.axis_1">
    <g id="xtick_1">
     <g id="line2d_1">
      <path clip-path="url(#pd5a596e03c)" d="M 70.013269 297.9825 
L 70.013269 26.1825 
" style="fill:none;stroke:#ffffff;stroke-linecap:round;"/>
     </g>
     <g id="line2d_2"/>
     <g id="text_1">
      <!-- −40 -->
      <defs>
       <path d="M 52.828125 31.203125 
L 5.5625 31.203125 
L 5.5625 39.40625 
L 52.828125 39.40625 
z
" id="ArialMT-8722"/>
       <path d="M 32.328125 0 
L 32.328125 17.140625 
L 1.265625 17.140625 
L 1.265625 25.203125 
L 33.9375 71.578125 
L 41.109375 71.578125 
L 41.109375 25.203125 
L 50.78125 25.203125 
L 50.78125 17.140625 
L 41.109375 17.140625 
L 41.109375 0 
z
M 32.328125 25.203125 
L 32.328125 57.46875 
L 9.90625 25.203125 
z
" id="ArialMT-52"/>
       <path d="M 4.15625 35.296875 
Q 4.15625 48 6.765625 55.734375 
Q 9.375 63.484375 14.515625 67.671875 
Q 19.671875 71.875 27.484375 71.875 
Q 33.25 71.875 37.59375 69.546875 
Q 41.9375 67.234375 44.765625 62.859375 
Q 47.609375 58.5 49.21875 52.21875 
Q 50.828125 45.953125 50.828125 35.296875 
Q 50.828125 22.703125 48.234375 14.96875 
Q 45.65625 7.234375 40.5 3 
Q 35.359375 -1.21875 27.484375 -1.21875 
Q 17.140625 -1.21875 11.234375 6.203125 
Q 4.15625 15.140625 4.15625 35.296875 
z
M 13.1875 35.296875 
Q 13.1875 17.671875 17.3125 11.828125 
Q 21.4375 6 27.484375 6 
Q 33.546875 6 37.671875 11.859375 
Q 41.796875 17.71875 41.796875 35.296875 
Q 41.796875 52.984375 37.671875 58.78125 
Q 33.546875 64.59375 27.390625 64.59375 
Q 21.34375 64.59375 17.71875 59.46875 
Q 13.1875 52.9375 13.1875 35.296875 
z
" id="ArialMT-48"/>
      </defs>
      <g style="fill:#262626;" transform="translate(61.532019 312.140312)scale(0.1 -0.1)">
       <use xlink:href="#ArialMT-8722"/>
       <use x="58.398438" xlink:href="#ArialMT-52"/>
       <use x="114.013672" xlink:href="#ArialMT-48"/>
      </g>
     </g>
    </g>
    <g id="xtick_2">
     <g id="line2d_3">
      <path clip-path="url(#pd5a596e03c)" d="M 114.772627 297.9825 
L 114.772627 26.1825 
" style="fill:none;stroke:#ffffff;stroke-linecap:round;"/>
     </g>
     <g id="line2d_4"/>
     <g id="text_2">
      <!-- −20 -->
      <defs>
       <path d="M 50.34375 8.453125 
L 50.34375 0 
L 3.03125 0 
Q 2.9375 3.171875 4.046875 6.109375 
Q 5.859375 10.9375 9.828125 15.625 
Q 13.8125 20.3125 21.34375 26.46875 
Q 33.015625 36.03125 37.109375 41.625 
Q 41.21875 47.21875 41.21875 52.203125 
Q 41.21875 57.421875 37.46875 61 
Q 33.734375 64.59375 27.734375 64.59375 
Q 21.390625 64.59375 17.578125 60.78125 
Q 13.765625 56.984375 13.71875 50.25 
L 4.6875 51.171875 
Q 5.609375 61.28125 11.65625 66.578125 
Q 17.71875 71.875 27.9375 71.875 
Q 38.234375 71.875 44.234375 66.15625 
Q 50.25 60.453125 50.25 52 
Q 50.25 47.703125 48.484375 43.546875 
Q 46.734375 39.40625 42.65625 34.8125 
Q 38.578125 30.21875 29.109375 22.21875 
Q 21.1875 15.578125 18.9375 13.203125 
Q 16.703125 10.84375 15.234375 8.453125 
z
" id="ArialMT-50"/>
      </defs>
      <g style="fill:#262626;" transform="translate(106.291377 312.140312)scale(0.1 -0.1)">
       <use xlink:href="#ArialMT-8722"/>
       <use x="58.398438" xlink:href="#ArialMT-50"/>
       <use x="114.013672" xlink:href="#ArialMT-48"/>
      </g>
     </g>
    </g>
    <g id="xtick_3">
     <g id="line2d_5">
      <path clip-path="url(#pd5a596e03c)" d="M 159.531985 297.9825 
L 159.531985 26.1825 
" style="fill:none;stroke:#ffffff;stroke-linecap:round;"/>
     </g>
     <g id="line2d_6"/>
     <g id="text_3">
      <!-- 0 -->
      <g style="fill:#262626;" transform="translate(156.751517 312.140312)scale(0.1 -0.1)">
       <use xlink:href="#ArialMT-48"/>
      </g>
     </g>
    </g>
    <g id="xtick_4">
     <g id="line2d_7">
      <path clip-path="url(#pd5a596e03c)" d="M 204.291344 297.9825 
L 204.291344 26.1825 
" style="fill:none;stroke:#ffffff;stroke-linecap:round;"/>
     </g>
     <g id="line2d_8"/>
     <g id="text_4">
      <!-- 20 -->
      <g style="fill:#262626;" transform="translate(198.730406 312.140312)scale(0.1 -0.1)">
       <use xlink:href="#ArialMT-50"/>
       <use x="55.615234" xlink:href="#ArialMT-48"/>
      </g>
     </g>
    </g>
    <g id="xtick_5">
     <g id="line2d_9">
      <path clip-path="url(#pd5a596e03c)" d="M 249.050702 297.9825 
L 249.050702 26.1825 
" style="fill:none;stroke:#ffffff;stroke-linecap:round;"/>
     </g>
     <g id="line2d_10"/>
     <g id="text_5">
      <!-- 40 -->
      <g style="fill:#262626;" transform="translate(243.489764 312.140312)scale(0.1 -0.1)">
       <use xlink:href="#ArialMT-52"/>
       <use x="55.615234" xlink:href="#ArialMT-48"/>
      </g>
     </g>
    </g>
   </g>
   <g id="matplotlib.axis_2">
    <g id="ytick_1">
     <g id="line2d_11">
      <path clip-path="url(#pd5a596e03c)" d="M 36.44375 279.187755 
L 282.620221 279.187755 
" style="fill:none;stroke:#ffffff;stroke-linecap:round;"/>
     </g>
     <g id="line2d_12"/>
     <g id="text_6">
      <!-- 0 -->
      <g style="fill:#262626;" transform="translate(23.882813 282.766661)scale(0.1 -0.1)">
       <use xlink:href="#ArialMT-48"/>
      </g>
     </g>
    </g>
    <g id="ytick_2">
     <g id="line2d_13">
      <path clip-path="url(#pd5a596e03c)" d="M 36.44375 240.678783 
L 282.620221 240.678783 
" style="fill:none;stroke:#ffffff;stroke-linecap:round;"/>
     </g>
     <g id="line2d_14"/>
     <g id="text_7">
      <!-- 200 -->
      <g style="fill:#262626;" transform="translate(12.760938 244.257689)scale(0.1 -0.1)">
       <use xlink:href="#ArialMT-50"/>
       <use x="55.615234" xlink:href="#ArialMT-48"/>
       <use x="111.230469" xlink:href="#ArialMT-48"/>
      </g>
     </g>
    </g>
    <g id="ytick_3">
     <g id="line2d_15">
      <path clip-path="url(#pd5a596e03c)" d="M 36.44375 202.169811 
L 282.620221 202.169811 
" style="fill:none;stroke:#ffffff;stroke-linecap:round;"/>
     </g>
     <g id="line2d_16"/>
     <g id="text_8">
      <!-- 400 -->
      <g style="fill:#262626;" transform="translate(12.760938 205.748717)scale(0.1 -0.1)">
       <use xlink:href="#ArialMT-52"/>
       <use x="55.615234" xlink:href="#ArialMT-48"/>
       <use x="111.230469" xlink:href="#ArialMT-48"/>
      </g>
     </g>
    </g>
    <g id="ytick_4">
     <g id="line2d_17">
      <path clip-path="url(#pd5a596e03c)" d="M 36.44375 163.660839 
L 282.620221 163.660839 
" style="fill:none;stroke:#ffffff;stroke-linecap:round;"/>
     </g>
     <g id="line2d_18"/>
     <g id="text_9">
      <!-- 600 -->
      <defs>
       <path d="M 49.75 54.046875 
L 41.015625 53.375 
Q 39.84375 58.546875 37.703125 60.890625 
Q 34.125 64.65625 28.90625 64.65625 
Q 24.703125 64.65625 21.53125 62.3125 
Q 17.390625 59.28125 14.984375 53.46875 
Q 12.59375 47.65625 12.5 36.921875 
Q 15.671875 41.75 20.265625 44.09375 
Q 24.859375 46.4375 29.890625 46.4375 
Q 38.671875 46.4375 44.84375 39.96875 
Q 51.03125 33.5 51.03125 23.25 
Q 51.03125 16.5 48.125 10.71875 
Q 45.21875 4.9375 40.140625 1.859375 
Q 35.0625 -1.21875 28.609375 -1.21875 
Q 17.625 -1.21875 10.6875 6.859375 
Q 3.765625 14.9375 3.765625 33.5 
Q 3.765625 54.25 11.421875 63.671875 
Q 18.109375 71.875 29.4375 71.875 
Q 37.890625 71.875 43.28125 67.140625 
Q 48.6875 62.40625 49.75 54.046875 
z
M 13.875 23.1875 
Q 13.875 18.65625 15.796875 14.5 
Q 17.71875 10.359375 21.1875 8.171875 
Q 24.65625 6 28.46875 6 
Q 34.03125 6 38.03125 10.484375 
Q 42.046875 14.984375 42.046875 22.703125 
Q 42.046875 30.125 38.078125 34.390625 
Q 34.125 38.671875 28.125 38.671875 
Q 22.171875 38.671875 18.015625 34.390625 
Q 13.875 30.125 13.875 23.1875 
z
" id="ArialMT-54"/>
      </defs>
      <g style="fill:#262626;" transform="translate(12.760938 167.239745)scale(0.1 -0.1)">
       <use xlink:href="#ArialMT-54"/>
       <use x="55.615234" xlink:href="#ArialMT-48"/>
       <use x="111.230469" xlink:href="#ArialMT-48"/>
      </g>
     </g>
    </g>
    <g id="ytick_5">
     <g id="line2d_19">
      <path clip-path="url(#pd5a596e03c)" d="M 36.44375 125.151867 
L 282.620221 125.151867 
" style="fill:none;stroke:#ffffff;stroke-linecap:round;"/>
     </g>
     <g id="line2d_20"/>
     <g id="text_10">
      <!-- 800 -->
      <defs>
       <path d="M 17.671875 38.8125 
Q 12.203125 40.828125 9.5625 44.53125 
Q 6.9375 48.25 6.9375 53.421875 
Q 6.9375 61.234375 12.546875 66.546875 
Q 18.171875 71.875 27.484375 71.875 
Q 36.859375 71.875 42.578125 66.421875 
Q 48.296875 60.984375 48.296875 53.171875 
Q 48.296875 48.1875 45.671875 44.5 
Q 43.0625 40.828125 37.75 38.8125 
Q 44.34375 36.671875 47.78125 31.875 
Q 51.21875 27.09375 51.21875 20.453125 
Q 51.21875 11.28125 44.71875 5.03125 
Q 38.234375 -1.21875 27.640625 -1.21875 
Q 17.046875 -1.21875 10.546875 5.046875 
Q 4.046875 11.328125 4.046875 20.703125 
Q 4.046875 27.6875 7.59375 32.390625 
Q 11.140625 37.109375 17.671875 38.8125 
z
M 15.921875 53.71875 
Q 15.921875 48.640625 19.1875 45.40625 
Q 22.46875 42.1875 27.6875 42.1875 
Q 32.765625 42.1875 36.015625 45.375 
Q 39.265625 48.578125 39.265625 53.21875 
Q 39.265625 58.0625 35.90625 61.359375 
Q 32.5625 64.65625 27.59375 64.65625 
Q 22.5625 64.65625 19.234375 61.421875 
Q 15.921875 58.203125 15.921875 53.71875 
z
M 13.09375 20.65625 
Q 13.09375 16.890625 14.875 13.375 
Q 16.65625 9.859375 20.171875 7.921875 
Q 23.6875 6 27.734375 6 
Q 34.03125 6 38.125 10.046875 
Q 42.234375 14.109375 42.234375 20.359375 
Q 42.234375 26.703125 38.015625 30.859375 
Q 33.796875 35.015625 27.4375 35.015625 
Q 21.234375 35.015625 17.15625 30.90625 
Q 13.09375 26.8125 13.09375 20.65625 
z
" id="ArialMT-56"/>
      </defs>
      <g style="fill:#262626;" transform="translate(12.760938 128.730773)scale(0.1 -0.1)">
       <use xlink:href="#ArialMT-56"/>
       <use x="55.615234" xlink:href="#ArialMT-48"/>
       <use x="111.230469" xlink:href="#ArialMT-48"/>
      </g>
     </g>
    </g>
    <g id="ytick_6">
     <g id="line2d_21">
      <path clip-path="url(#pd5a596e03c)" d="M 36.44375 86.642895 
L 282.620221 86.642895 
" style="fill:none;stroke:#ffffff;stroke-linecap:round;"/>
     </g>
     <g id="line2d_22"/>
     <g id="text_11">
      <!-- 1000 -->
      <defs>
       <path d="M 37.25 0 
L 28.46875 0 
L 28.46875 56 
Q 25.296875 52.984375 20.140625 49.953125 
Q 14.984375 46.921875 10.890625 45.40625 
L 10.890625 53.90625 
Q 18.265625 57.375 23.78125 62.296875 
Q 29.296875 67.234375 31.59375 71.875 
L 37.25 71.875 
z
" id="ArialMT-49"/>
      </defs>
      <g style="fill:#262626;" transform="translate(7.2 90.221801)scale(0.1 -0.1)">
       <use xlink:href="#ArialMT-49"/>
       <use x="55.615234" xlink:href="#ArialMT-48"/>
       <use x="111.230469" xlink:href="#ArialMT-48"/>
       <use x="166.845703" xlink:href="#ArialMT-48"/>
      </g>
     </g>
    </g>
    <g id="ytick_7">
     <g id="line2d_23">
      <path clip-path="url(#pd5a596e03c)" d="M 36.44375 48.133923 
L 282.620221 48.133923 
" style="fill:none;stroke:#ffffff;stroke-linecap:round;"/>
     </g>
     <g id="line2d_24"/>
     <g id="text_12">
      <!-- 1200 -->
      <g style="fill:#262626;" transform="translate(7.2 51.712829)scale(0.1 -0.1)">
       <use xlink:href="#ArialMT-49"/>
       <use x="55.615234" xlink:href="#ArialMT-50"/>
       <use x="111.230469" xlink:href="#ArialMT-48"/>
       <use x="166.845703" xlink:href="#ArialMT-48"/>
      </g>
     </g>
    </g>
   </g>
   <g id="line2d_25">
    <path clip-path="url(#pd5a596e03c)" d="M 47.63359 38.537045 
L 48.289565 38.612901 
L 48.726881 38.891764 
L 49.164198 39.496189 
L 49.601514 40.521297 
L 50.14816 42.486247 
L 50.804135 45.887198 
L 51.569439 51.133963 
L 53.100048 63.692806 
L 54.193339 71.770271 
L 54.958643 75.877586 
L 55.505289 77.843859 
L 56.051935 79.023241 
L 56.489252 79.476811 
L 56.926568 79.5981 
L 57.473214 79.469693 
L 58.238518 79.253414 
L 58.675835 79.36569 
L 59.003822 79.658015 
L 59.441139 80.404539 
L 59.878456 81.622233 
L 60.425101 83.856516 
L 61.081076 87.546951 
L 62.065039 94.666447 
L 64.032964 109.495136 
L 64.798268 113.522306 
L 65.344914 115.441553 
L 65.891559 116.561108 
L 66.328876 116.945839 
L 66.656863 116.992819 
L 67.09418 116.824709 
L 68.515459 116.021741 
L 68.843447 116.122909 
L 69.171434 116.436881 
L 69.608751 117.246164 
L 70.046067 118.548957 
L 70.592713 120.89142 
L 71.358017 125.380092 
L 72.560638 134.202733 
L 73.872588 143.472181 
L 74.637892 147.413463 
L 75.184538 149.285993 
L 75.621855 150.198998 
L 76.059171 150.630542 
L 76.387159 150.68152 
L 76.824475 150.466982 
L 77.48045 149.794416 
L 78.245754 149.039206 
L 78.683071 148.889473 
L 79.011059 149.003367 
L 79.339046 149.354897 
L 79.776363 150.240518 
L 80.323009 152.059794 
L 80.978984 155.251856 
L 81.853617 160.85102 
L 84.0402 175.521908 
L 84.696175 178.379514 
L 85.242821 179.877452 
L 85.680137 180.496599 
L 86.008125 180.651189 
L 86.336112 180.576052 
L 86.773429 180.193601 
L 87.538733 179.102613 
L 88.304037 178.116127 
L 88.741354 177.878324 
L 89.069341 177.942941 
L 89.397329 178.255941 
L 89.834646 179.100336 
L 90.271962 180.453618 
L 90.818608 182.835784 
L 91.583912 187.239978 
L 94.207812 203.486117 
L 94.754458 205.42348 
L 95.191774 206.387577 
L 95.629091 206.83827 
L 95.957078 206.86662 
L 96.285066 206.665368 
L 96.722383 206.115005 
L 97.597016 204.5242 
L 98.36232 203.321472 
L 98.799637 203.002556 
L 99.127624 203.021909 
L 99.455612 203.299166 
L 99.892928 204.103944 
L 100.330245 205.417766 
L 100.98622 208.28043 
L 101.860853 213.356483 
L 103.719449 224.644955 
L 104.375424 227.356288 
L 104.92207 228.760367 
L 105.359386 229.295664 
L 105.687374 229.369857 
L 106.015361 229.191278 
L 106.452678 228.624539 
L 107.108653 227.304097 
L 108.311274 224.810958 
L 108.74859 224.325664 
L 109.076578 224.220376 
L 109.404565 224.373079 
L 109.732553 224.804359 
L 110.169869 225.825633 
L 110.716515 227.792537 
L 111.481819 231.614298 
L 113.99639 245.452378 
L 114.543036 247.126202 
L 114.980352 247.884571 
L 115.30834 248.111115 
L 115.636327 248.059004 
L 115.964315 247.754224 
L 116.401631 247.019432 
L 117.166936 245.157144 
L 118.260227 242.495234 
L 118.806873 241.739986 
L 119.134861 241.593085 
L 119.462848 241.712409 
L 119.790835 242.114549 
L 120.228152 243.09634 
L 120.774798 244.999135 
L 121.540102 248.673321 
L 123.836014 260.584398 
L 124.38266 262.201915 
L 124.819977 262.923052 
L 125.147964 263.119866 
L 125.475952 263.031985 
L 125.803939 262.681619 
L 126.241256 261.865052 
L 126.897231 260.113388 
L 128.31851 256.137247 
L 128.865156 255.29253 
L 129.193143 255.107216 
L 129.521131 255.195047 
L 129.849118 255.568538 
L 130.286435 256.509304 
L 130.833081 258.342727 
L 131.598385 261.85697 
L 133.675639 271.967302 
L 134.222285 273.524429 
L 134.659601 274.20771 
L 134.987589 274.37591 
L 135.315576 274.254687 
L 135.643564 273.862368 
L 136.08088 272.970477 
L 136.736855 271.051172 
L 138.376793 265.911435 
L 138.923439 264.984514 
L 139.251426 264.763556 
L 139.579414 264.821316 
L 139.907401 265.166172 
L 140.344718 266.063748 
L 140.891363 267.821849 
L 141.656668 271.163118 
L 143.405934 279.222369 
L 143.95258 280.854153 
L 144.389897 281.625941 
L 144.717884 281.86487 
L 145.045872 281.80892 
L 145.373859 281.468381 
L 145.811176 280.611767 
L 146.467151 278.643804 
L 148.653734 271.337735 
L 149.09105 270.70159 
L 149.419038 270.540386 
L 149.747025 270.664883 
L 150.075013 271.075122 
L 150.51233 272.043513 
L 151.058975 273.838435 
L 151.933609 277.583404 
L 153.245559 283.128835 
L 153.792204 284.683911 
L 154.229521 285.412387 
L 154.557508 285.62336 
L 154.885496 285.538778 
L 155.213483 285.164852 
L 155.6508 284.249674 
L 156.197446 282.54685 
L 157.181408 278.591552 
L 158.2747 274.477064 
L 158.821346 273.134553 
L 159.258662 272.569093 
L 159.58665 272.473236 
L 159.914637 272.664487 
L 160.242625 273.134553 
L 160.679941 274.158124 
L 161.335916 276.371878 
L 163.5225 284.51999 
L 163.959816 285.320752 
L 164.287804 285.599684 
L 164.615791 285.585822 
L 164.943779 285.277108 
L 165.381095 284.426496 
L 165.927741 282.744546 
L 166.802374 279.086198 
L 168.223654 273.052062 
L 168.770299 271.501756 
L 169.207616 270.770238 
L 169.535603 270.549881 
L 169.863591 270.616627 
L 170.191578 270.962139 
L 170.628895 271.8195 
L 171.28487 273.783486 
L 173.471453 281.093787 
L 173.90877 281.726167 
L 174.236757 281.87873 
L 174.564745 281.738473 
L 174.892732 281.303377 
L 175.330049 280.284346 
L 175.876695 278.392139 
L 176.751328 274.398299 
L 178.172607 267.821849 
L 178.828582 265.794048 
L 179.265899 265.019316 
L 179.593886 264.770322 
L 179.921874 264.807008 
L 180.249861 265.116901 
L 180.687178 265.911435 
L 181.343153 267.73261 
L 183.201749 273.464469 
L 183.639065 274.152791 
L 183.967053 274.367001 
L 184.29504 274.296569 
L 184.623028 273.931244 
L 185.060344 272.990978 
L 185.60699 271.148804 
L 186.372294 267.620174 
L 188.340219 257.922926 
L 188.886865 256.227811 
L 189.324182 255.412036 
L 189.652169 255.134396 
L 189.980156 255.139605 
L 190.308144 255.411113 
L 190.745461 256.137247 
L 191.401436 257.804128 
L 193.041373 262.318224 
L 193.47869 262.942935 
L 193.806677 263.121348 
L 194.134665 263.021174 
L 194.462652 262.628126 
L 194.899969 261.646926 
L 195.446615 259.734058 
L 196.211919 256.042236 
L 198.507831 244.153696 
L 199.054477 242.54241 
L 199.491793 241.814562 
L 199.819781 241.602213 
L 200.147768 241.662949 
L 200.475756 241.972363 
L 200.913073 242.709497 
L 201.678377 244.572009 
L 202.771668 247.233387 
L 203.318314 247.983883 
L 203.646302 248.123656 
L 203.974289 247.992177 
L 204.302276 247.571194 
L 204.739593 246.550885 
L 205.286239 244.572763 
L 206.051543 240.730013 
L 208.566114 226.918461 
L 209.11276 225.251352 
L 209.550076 224.485212 
L 209.878064 224.241354 
L 210.206051 224.263647 
L 210.534039 224.523905 
L 210.971355 225.173177 
L 211.736659 226.804853 
L 212.720622 228.796508 
L 213.157938 229.276836 
L 213.485926 229.374725 
L 213.813913 229.209947 
L 214.141901 228.760367 
L 214.579218 227.702184 
L 215.125863 225.663585 
L 215.891168 221.681525 
L 218.733726 205.417766 
L 219.280371 203.854953 
L 219.717688 203.176576 
L 220.045676 202.988154 
L 220.373663 203.048215 
L 220.81098 203.452462 
L 221.466955 204.5242 
L 222.560246 206.424432 
L 222.997563 206.823117 
L 223.32555 206.875494 
L 223.653538 206.674997 
L 223.981525 206.195715 
L 224.418842 205.100293 
L 224.965488 203.005313 
L 225.621463 199.551869 
L 226.714754 192.377393 
L 228.026704 183.982575 
L 228.792008 180.453618 
L 229.338654 178.841844 
L 229.775971 178.12226 
L 230.103958 177.895338 
L 230.431946 177.906161 
L 230.869262 178.222408 
L 231.525237 179.102613 
L 232.5092 180.419109 
L 232.946517 180.649739 
L 233.274504 180.575915 
L 233.602491 180.249114 
L 234.039808 179.376816 
L 234.477125 177.981587 
L 235.023771 175.521908 
L 235.789075 170.951362 
L 238.631633 152.51835 
L 239.287608 150.240518 
L 239.724924 149.354897 
L 240.162241 148.940708 
L 240.490229 148.897907 
L 240.927545 149.118805 
L 241.58352 149.794416 
L 242.348824 150.545386 
L 242.786141 150.687609 
L 243.114128 150.564319 
L 243.442116 150.198998 
L 243.879433 149.285993 
L 244.426078 147.413463 
L 245.082053 144.121093 
L 245.956687 138.310301 
L 248.252599 122.041061 
L 248.908574 118.954454 
L 249.45522 117.246164 
L 249.892536 116.436881 
L 250.329853 116.067573 
L 250.76717 116.050791 
L 251.313815 116.348861 
L 252.297778 116.971603 
L 252.735095 116.945839 
L 253.063082 116.696388 
L 253.500399 115.981699 
L 253.937715 114.772399 
L 254.484361 112.525737 
L 255.140336 108.804158 
L 256.124299 101.644963 
L 258.092223 86.861573 
L 258.857528 82.867204 
L 259.404173 80.951409 
L 259.950819 79.803792 
L 260.388136 79.36569 
L 260.825452 79.253414 
L 261.372098 79.386297 
L 262.137402 79.5981 
L 262.574719 79.476811 
L 262.902707 79.1736 
L 263.340023 78.405371 
L 263.77734 77.155404 
L 264.323986 74.861567 
L 264.979961 71.063962 
L 265.854594 64.581024 
L 268.259835 45.887198 
L 269.025139 42.029764 
L 269.571785 40.221545 
L 270.118431 39.146649 
L 270.555748 38.718668 
L 270.993064 38.558687 
L 271.430381 38.537045 
L 271.430381 38.537045 
" style="fill:none;stroke:#4c72b0;stroke-linecap:round;stroke-width:1.75;"/>
   </g>
   <g id="patch_3">
    <path d="M 36.44375 297.9825 
L 36.44375 26.1825 
" style="fill:none;"/>
   </g>
   <g id="patch_4">
    <path d="M 282.620221 297.9825 
L 282.620221 26.1825 
" style="fill:none;"/>
   </g>
   <g id="patch_5">
    <path d="M 36.44375 297.9825 
L 282.620221 297.9825 
" style="fill:none;"/>
   </g>
   <g id="patch_6">
    <path d="M 36.44375 26.1825 
L 282.620221 26.1825 
" style="fill:none;"/>
   </g>
   <g id="text_13">
    <!-- $u(t)$ -->
    <defs>
     <path d="M 6.6875 21.6875 
L 13.09375 54.6875 
L 22.125 54.6875 
L 15.71875 22.015625 
Q 15.234375 19.625 15.015625 17.921875 
Q 14.796875 16.21875 14.796875 15.09375 
Q 14.796875 10.9375 17.328125 8.65625 
Q 19.875 6.390625 24.515625 6.390625 
Q 31.734375 6.390625 37 11.265625 
Q 42.28125 16.15625 43.890625 24.421875 
L 49.90625 54.6875 
L 58.890625 54.6875 
L 48.296875 0 
L 39.3125 0 
L 41.109375 8.59375 
Q 37.3125 3.8125 32.0625 1.1875 
Q 26.8125 -1.421875 20.90625 -1.421875 
Q 13.71875 -1.421875 9.71875 2.515625 
Q 5.71875 6.453125 5.71875 13.484375 
Q 5.71875 14.9375 5.953125 17.140625 
Q 6.203125 19.34375 6.6875 21.6875 
z
" id="DejaVuSans-Oblique-117"/>
     <path d="M 31 75.875 
Q 24.46875 64.65625 21.28125 53.65625 
Q 18.109375 42.671875 18.109375 31.390625 
Q 18.109375 20.125 21.3125 9.0625 
Q 24.515625 -2 31 -13.1875 
L 23.1875 -13.1875 
Q 15.875 -1.703125 12.234375 9.375 
Q 8.59375 20.453125 8.59375 31.390625 
Q 8.59375 42.28125 12.203125 53.3125 
Q 15.828125 64.359375 23.1875 75.875 
z
" id="DejaVuSans-40"/>
     <path d="M 42.28125 54.6875 
L 40.921875 47.703125 
L 23 47.703125 
L 17.1875 18.015625 
Q 16.890625 16.359375 16.75 15.234375 
Q 16.609375 14.109375 16.609375 13.484375 
Q 16.609375 10.359375 18.484375 8.9375 
Q 20.359375 7.515625 24.515625 7.515625 
L 33.59375 7.515625 
L 32.078125 0 
L 23.484375 0 
Q 15.484375 0 11.546875 3.125 
Q 7.625 6.25 7.625 12.59375 
Q 7.625 13.71875 7.765625 15.0625 
Q 7.90625 16.40625 8.203125 18.015625 
L 14.015625 47.703125 
L 6.390625 47.703125 
L 7.8125 54.6875 
L 15.28125 54.6875 
L 18.3125 70.21875 
L 27.296875 70.21875 
L 24.3125 54.6875 
z
" id="DejaVuSans-Oblique-116"/>
     <path d="M 8.015625 75.875 
L 15.828125 75.875 
Q 23.140625 64.359375 26.78125 53.3125 
Q 30.421875 42.28125 30.421875 31.390625 
Q 30.421875 20.453125 26.78125 9.375 
Q 23.140625 -1.703125 15.828125 -13.1875 
L 8.015625 -13.1875 
Q 14.5 -2 17.703125 9.0625 
Q 20.90625 20.125 20.90625 31.390625 
Q 20.90625 42.671875 17.703125 53.65625 
Q 14.5 64.65625 8.015625 75.875 
z
" id="DejaVuSans-41"/>
    </defs>
    <g style="fill:#262626;" transform="translate(143.241985 20.1825)scale(0.18 -0.18)">
     <use transform="translate(0 0.125)" xlink:href="#DejaVuSans-Oblique-117"/>
     <use transform="translate(63.378906 0.125)" xlink:href="#DejaVuSans-40"/>
     <use transform="translate(102.392578 0.125)" xlink:href="#DejaVuSans-Oblique-116"/>
     <use transform="translate(141.601562 0.125)" xlink:href="#DejaVuSans-41"/>
    </g>
   </g>
  </g>
  <g id="axes_2">
   <g id="patch_7">
    <path d="M 331.855515 297.9825 
L 578.031985 297.9825 
L 578.031985 26.1825 
L 331.855515 26.1825 
z
" style="fill:#dcdcdc;"/>
   </g>
   <g id="matplotlib.axis_3">
    <g id="xtick_6">
     <g id="line2d_26">
      <path clip-path="url(#p3c564d2c82)" d="M 365.425033 297.9825 
L 365.425033 26.1825 
" style="fill:none;stroke:#ffffff;stroke-linecap:round;"/>
     </g>
     <g id="line2d_27"/>
     <g id="text_14">
      <!-- −40 -->
      <g style="fill:#262626;" transform="translate(356.943783 312.140312)scale(0.1 -0.1)">
       <use xlink:href="#ArialMT-8722"/>
       <use x="58.398438" xlink:href="#ArialMT-52"/>
       <use x="114.013672" xlink:href="#ArialMT-48"/>
      </g>
     </g>
    </g>
    <g id="xtick_7">
     <g id="line2d_28">
      <path clip-path="url(#p3c564d2c82)" d="M 410.184392 297.9825 
L 410.184392 26.1825 
" style="fill:none;stroke:#ffffff;stroke-linecap:round;"/>
     </g>
     <g id="line2d_29"/>
     <g id="text_15">
      <!-- −20 -->
      <g style="fill:#262626;" transform="translate(401.703142 312.140312)scale(0.1 -0.1)">
       <use xlink:href="#ArialMT-8722"/>
       <use x="58.398438" xlink:href="#ArialMT-50"/>
       <use x="114.013672" xlink:href="#ArialMT-48"/>
      </g>
     </g>
    </g>
    <g id="xtick_8">
     <g id="line2d_30">
      <path clip-path="url(#p3c564d2c82)" d="M 454.94375 297.9825 
L 454.94375 26.1825 
" style="fill:none;stroke:#ffffff;stroke-linecap:round;"/>
     </g>
     <g id="line2d_31"/>
     <g id="text_16">
      <!-- 0 -->
      <g style="fill:#262626;" transform="translate(452.163281 312.140312)scale(0.1 -0.1)">
       <use xlink:href="#ArialMT-48"/>
      </g>
     </g>
    </g>
    <g id="xtick_9">
     <g id="line2d_32">
      <path clip-path="url(#p3c564d2c82)" d="M 499.703108 297.9825 
L 499.703108 26.1825 
" style="fill:none;stroke:#ffffff;stroke-linecap:round;"/>
     </g>
     <g id="line2d_33"/>
     <g id="text_17">
      <!-- 20 -->
      <g style="fill:#262626;" transform="translate(494.142171 312.140312)scale(0.1 -0.1)">
       <use xlink:href="#ArialMT-50"/>
       <use x="55.615234" xlink:href="#ArialMT-48"/>
      </g>
     </g>
    </g>
    <g id="xtick_10">
     <g id="line2d_34">
      <path clip-path="url(#p3c564d2c82)" d="M 544.462467 297.9825 
L 544.462467 26.1825 
" style="fill:none;stroke:#ffffff;stroke-linecap:round;"/>
     </g>
     <g id="line2d_35"/>
     <g id="text_18">
      <!-- 40 -->
      <g style="fill:#262626;" transform="translate(538.901529 312.140312)scale(0.1 -0.1)">
       <use xlink:href="#ArialMT-52"/>
       <use x="55.615234" xlink:href="#ArialMT-48"/>
      </g>
     </g>
    </g>
   </g>
   <g id="matplotlib.axis_4">
    <g id="ytick_8">
     <g id="line2d_36">
      <path clip-path="url(#p3c564d2c82)" d="M 331.855515 288.324042 
L 578.031985 288.324042 
" style="fill:none;stroke:#ffffff;stroke-linecap:round;"/>
     </g>
     <g id="line2d_37"/>
     <g id="text_19">
      <!-- −100 -->
      <g style="fill:#262626;" transform="translate(302.332077 291.902948)scale(0.1 -0.1)">
       <use xlink:href="#ArialMT-8722"/>
       <use x="58.398438" xlink:href="#ArialMT-49"/>
       <use x="114.013672" xlink:href="#ArialMT-48"/>
       <use x="169.628906" xlink:href="#ArialMT-48"/>
      </g>
     </g>
    </g>
    <g id="ytick_9">
     <g id="line2d_38">
      <path clip-path="url(#p3c564d2c82)" d="M 331.855515 256.763657 
L 578.031985 256.763657 
" style="fill:none;stroke:#ffffff;stroke-linecap:round;"/>
     </g>
     <g id="line2d_39"/>
     <g id="text_20">
      <!-- −75 -->
      <defs>
       <path d="M 4.734375 62.203125 
L 4.734375 70.65625 
L 51.078125 70.65625 
L 51.078125 63.8125 
Q 44.234375 56.546875 37.515625 44.484375 
Q 30.8125 32.421875 27.15625 19.671875 
Q 24.515625 10.6875 23.78125 0 
L 14.75 0 
Q 14.890625 8.453125 18.0625 20.40625 
Q 21.234375 32.375 27.171875 43.484375 
Q 33.109375 54.59375 39.796875 62.203125 
z
" id="ArialMT-55"/>
       <path d="M 4.15625 18.75 
L 13.375 19.53125 
Q 14.40625 12.796875 18.140625 9.390625 
Q 21.875 6 27.15625 6 
Q 33.5 6 37.890625 10.78125 
Q 42.28125 15.578125 42.28125 23.484375 
Q 42.28125 31 38.0625 35.34375 
Q 33.84375 39.703125 27 39.703125 
Q 22.75 39.703125 19.328125 37.765625 
Q 15.921875 35.84375 13.96875 32.765625 
L 5.71875 33.84375 
L 12.640625 70.609375 
L 48.25 70.609375 
L 48.25 62.203125 
L 19.671875 62.203125 
L 15.828125 42.96875 
Q 22.265625 47.46875 29.34375 47.46875 
Q 38.71875 47.46875 45.15625 40.96875 
Q 51.609375 34.46875 51.609375 24.265625 
Q 51.609375 14.546875 45.953125 7.46875 
Q 39.0625 -1.21875 27.15625 -1.21875 
Q 17.390625 -1.21875 11.203125 4.25 
Q 5.03125 9.71875 4.15625 18.75 
z
" id="ArialMT-53"/>
      </defs>
      <g style="fill:#262626;" transform="translate(307.893015 260.342563)scale(0.1 -0.1)">
       <use xlink:href="#ArialMT-8722"/>
       <use x="58.398438" xlink:href="#ArialMT-55"/>
       <use x="114.013672" xlink:href="#ArialMT-53"/>
      </g>
     </g>
    </g>
    <g id="ytick_10">
     <g id="line2d_40">
      <path clip-path="url(#p3c564d2c82)" d="M 331.855515 225.203271 
L 578.031985 225.203271 
" style="fill:none;stroke:#ffffff;stroke-linecap:round;"/>
     </g>
     <g id="line2d_41"/>
     <g id="text_21">
      <!-- −50 -->
      <g style="fill:#262626;" transform="translate(307.893015 228.782177)scale(0.1 -0.1)">
       <use xlink:href="#ArialMT-8722"/>
       <use x="58.398438" xlink:href="#ArialMT-53"/>
       <use x="114.013672" xlink:href="#ArialMT-48"/>
      </g>
     </g>
    </g>
    <g id="ytick_11">
     <g id="line2d_42">
      <path clip-path="url(#p3c564d2c82)" d="M 331.855515 193.642886 
L 578.031985 193.642886 
" style="fill:none;stroke:#ffffff;stroke-linecap:round;"/>
     </g>
     <g id="line2d_43"/>
     <g id="text_22">
      <!-- −25 -->
      <g style="fill:#262626;" transform="translate(307.893015 197.221792)scale(0.1 -0.1)">
       <use xlink:href="#ArialMT-8722"/>
       <use x="58.398438" xlink:href="#ArialMT-50"/>
       <use x="114.013672" xlink:href="#ArialMT-53"/>
      </g>
     </g>
    </g>
    <g id="ytick_12">
     <g id="line2d_44">
      <path clip-path="url(#p3c564d2c82)" d="M 331.855515 162.0825 
L 578.031985 162.0825 
" style="fill:none;stroke:#ffffff;stroke-linecap:round;"/>
     </g>
     <g id="line2d_45"/>
     <g id="text_23">
      <!-- 0 -->
      <g style="fill:#262626;" transform="translate(319.294577 165.661406)scale(0.1 -0.1)">
       <use xlink:href="#ArialMT-48"/>
      </g>
     </g>
    </g>
    <g id="ytick_13">
     <g id="line2d_46">
      <path clip-path="url(#p3c564d2c82)" d="M 331.855515 130.522114 
L 578.031985 130.522114 
" style="fill:none;stroke:#ffffff;stroke-linecap:round;"/>
     </g>
     <g id="line2d_47"/>
     <g id="text_24">
      <!-- 25 -->
      <g style="fill:#262626;" transform="translate(313.73364 134.101021)scale(0.1 -0.1)">
       <use xlink:href="#ArialMT-50"/>
       <use x="55.615234" xlink:href="#ArialMT-53"/>
      </g>
     </g>
    </g>
    <g id="ytick_14">
     <g id="line2d_48">
      <path clip-path="url(#p3c564d2c82)" d="M 331.855515 98.961729 
L 578.031985 98.961729 
" style="fill:none;stroke:#ffffff;stroke-linecap:round;"/>
     </g>
     <g id="line2d_49"/>
     <g id="text_25">
      <!-- 50 -->
      <g style="fill:#262626;" transform="translate(313.73364 102.540635)scale(0.1 -0.1)">
       <use xlink:href="#ArialMT-53"/>
       <use x="55.615234" xlink:href="#ArialMT-48"/>
      </g>
     </g>
    </g>
    <g id="ytick_15">
     <g id="line2d_50">
      <path clip-path="url(#p3c564d2c82)" d="M 331.855515 67.401343 
L 578.031985 67.401343 
" style="fill:none;stroke:#ffffff;stroke-linecap:round;"/>
     </g>
     <g id="line2d_51"/>
     <g id="text_26">
      <!-- 75 -->
      <g style="fill:#262626;" transform="translate(313.73364 70.98025)scale(0.1 -0.1)">
       <use xlink:href="#ArialMT-55"/>
       <use x="55.615234" xlink:href="#ArialMT-53"/>
      </g>
     </g>
    </g>
    <g id="ytick_16">
     <g id="line2d_52">
      <path clip-path="url(#p3c564d2c82)" d="M 331.855515 35.840958 
L 578.031985 35.840958 
" style="fill:none;stroke:#ffffff;stroke-linecap:round;"/>
     </g>
     <g id="line2d_53"/>
     <g id="text_27">
      <!-- 100 -->
      <g style="fill:#262626;" transform="translate(308.172702 39.419864)scale(0.1 -0.1)">
       <use xlink:href="#ArialMT-49"/>
       <use x="55.615234" xlink:href="#ArialMT-48"/>
       <use x="111.230469" xlink:href="#ArialMT-48"/>
      </g>
     </g>
    </g>
   </g>
   <g id="line2d_54">
    <path clip-path="url(#p3c564d2c82)" d="M 343.045354 162.054705 
L 343.154683 162.176622 
L 343.373342 163.338859 
L 343.701329 167.270151 
L 344.138646 176.296086 
L 344.685292 192.620139 
L 345.778583 234.08439 
L 346.762546 267.876149 
L 347.309192 280.029986 
L 347.637179 284.143941 
L 347.855837 285.432276 
L 347.965166 285.627955 
L 348.074496 285.522547 
L 348.293154 284.410684 
L 348.621141 280.536239 
L 349.058458 271.525225 
L 349.605104 255.070677 
L 350.589066 217.062805 
L 351.682358 177.171299 
L 352.229004 163.800095 
L 352.66632 157.834732 
L 352.884979 156.600384 
L 352.994308 156.433249 
L 353.103637 156.567293 
L 353.322295 157.733737 
L 353.650283 161.672659 
L 354.087599 170.708616 
L 354.634245 187.042167 
L 355.727537 228.511549 
L 356.711499 262.291352 
L 357.258145 274.433221 
L 357.586133 278.53885 
L 357.804791 279.821388 
L 357.91412 280.01414 
L 358.023449 279.905786 
L 358.242108 278.788085 
L 358.570095 274.905202 
L 359.007412 265.884063 
L 359.554058 249.419735 
L 360.53802 211.405467 
L 361.631312 171.525384 
L 362.177957 158.165863 
L 362.615274 152.211572 
L 362.833932 150.983053 
L 362.943261 150.818859 
L 363.052591 150.955836 
L 363.271249 152.12809 
L 363.599236 156.075368 
L 364.036553 165.121238 
L 364.583199 181.464176 
L 365.67649 222.93869 
L 366.660453 256.706541 
L 367.207099 268.836424 
L 367.535086 272.933737 
L 367.753745 274.210476 
L 367.863074 274.400293 
L 367.972403 274.289 
L 368.191061 273.165463 
L 368.519049 269.274135 
L 368.956365 260.242875 
L 369.503011 243.768782 
L 370.486974 205.748127 
L 371.580265 165.879486 
L 372.126911 152.531658 
L 372.564228 146.588442 
L 372.782886 145.365751 
L 372.892215 145.204495 
L 373.001544 145.344409 
L 373.220203 146.522473 
L 373.54819 150.478102 
L 373.985507 159.53388 
L 374.532152 175.8862 
L 375.625444 217.365827 
L 376.609407 251.121709 
L 377.156052 263.239601 
L 377.48404 267.328595 
L 377.702698 268.599535 
L 377.812027 268.786417 
L 377.921356 268.672185 
L 378.140015 267.542811 
L 378.468002 263.643042 
L 378.905319 254.601666 
L 379.451965 238.117812 
L 380.435927 200.090791 
L 381.529219 160.233609 
L 382.075865 146.897478 
L 382.513181 140.96534 
L 382.73184 139.748478 
L 382.841169 139.59016 
L 382.950498 139.733011 
L 383.169156 140.916884 
L 383.497144 144.880863 
L 383.93446 153.946545 
L 384.481106 170.308238 
L 385.574398 211.792959 
L 386.55836 245.536857 
L 387.105006 257.642752 
L 387.432993 261.723426 
L 387.651652 262.988565 
L 387.760981 263.172513 
L 387.87031 263.055341 
L 388.088968 261.920132 
L 388.416956 258.011922 
L 388.854273 248.960433 
L 389.400918 232.466828 
L 390.384881 194.433455 
L 391.478172 154.587751 
L 392.024818 141.263324 
L 392.462135 135.342266 
L 392.680793 134.131233 
L 392.790122 133.975854 
L 392.899451 134.121641 
L 393.11811 135.311323 
L 393.446097 139.283649 
L 393.883414 148.359232 
L 394.539389 168.523124 
L 396.835301 247.954233 
L 397.272618 255.046493 
L 397.600605 257.377567 
L 397.709935 257.55858 
L 397.819264 257.438469 
L 398.037922 256.297424 
L 398.365909 252.380776 
L 398.803226 243.319178 
L 399.349872 226.815828 
L 400.333834 188.776122 
L 401.427126 148.941912 
L 401.973772 135.629195 
L 402.411088 129.71922 
L 402.629747 128.514017 
L 402.739076 128.361577 
L 402.848405 128.5103 
L 403.067063 129.70579 
L 403.395051 133.686462 
L 403.832367 142.77194 
L 404.488342 162.946567 
L 406.784255 242.362477 
L 407.221571 249.444106 
L 407.549559 251.76654 
L 407.658888 251.944618 
L 407.768217 251.821568 
L 407.986876 250.674688 
L 408.314863 246.749603 
L 408.75218 237.677901 
L 409.298826 221.164813 
L 410.282788 183.118791 
L 411.37608 143.296094 
L 411.922725 129.995092 
L 412.360042 124.096203 
L 412.5787 122.89683 
L 412.688029 122.747329 
L 412.797359 122.898987 
L 413.016017 124.100285 
L 413.344004 128.089301 
L 413.781321 137.18467 
L 414.437296 157.370022 
L 416.733208 236.770696 
L 417.170525 243.841692 
L 417.498513 246.155485 
L 417.607842 246.330627 
L 417.717171 246.204638 
L 417.935829 245.051924 
L 418.263817 241.118404 
L 418.701133 232.036601 
L 419.247779 215.513784 
L 420.231742 177.461461 
L 421.325033 137.650295 
L 421.871679 124.361014 
L 422.308996 118.473213 
L 422.527654 117.279671 
L 422.636983 117.133109 
L 422.746312 117.287703 
L 422.964971 118.494808 
L 423.292958 122.492166 
L 423.730275 131.597423 
L 424.38625 151.79349 
L 426.682162 231.178892 
L 427.119479 238.23925 
L 427.447466 240.544401 
L 427.556795 240.716608 
L 427.666124 240.58768 
L 427.884783 239.429132 
L 428.21277 235.487178 
L 428.650087 226.395278 
L 429.196733 209.862739 
L 430.180695 171.804133 
L 431.273987 132.004516 
L 431.820633 118.726962 
L 432.257949 112.850252 
L 432.476608 111.662541 
L 432.585937 111.518917 
L 432.695266 111.676448 
L 432.913924 112.889358 
L 433.241912 116.895056 
L 433.679228 126.010197 
L 434.335203 146.21697 
L 436.631116 225.587063 
L 437.068432 232.636781 
L 437.39642 234.933288 
L 437.505749 235.102561 
L 437.615078 234.970693 
L 437.833736 233.806312 
L 438.161724 229.855926 
L 438.599041 220.753933 
L 439.145686 204.211678 
L 440.129649 166.146808 
L 441.22294 126.358756 
L 441.769586 113.092935 
L 442.206903 107.227319 
L 442.425561 106.045439 
L 442.53489 105.904755 
L 442.644219 106.065221 
L 442.862878 107.283937 
L 443.190865 111.297974 
L 443.628182 120.422992 
L 444.284157 140.640463 
L 446.580069 219.99521 
L 447.017386 227.034285 
L 447.345373 229.322147 
L 447.454703 229.488484 
L 447.564032 229.353678 
L 447.78269 228.183463 
L 448.110677 224.224648 
L 448.547994 215.112566 
L 449.09464 198.560603 
L 450.078602 160.489484 
L 451.171894 120.713016 
L 451.71854 107.458935 
L 452.155856 101.604414 
L 452.374515 100.428366 
L 452.483844 100.290621 
L 452.593173 100.454023 
L 452.811831 101.678544 
L 453.139819 105.700917 
L 453.577135 114.83581 
L 454.23311 135.063968 
L 456.529023 214.403333 
L 456.966339 221.431761 
L 457.294327 223.710977 
L 457.403656 223.874379 
L 457.512985 223.736634 
L 457.731644 222.560586 
L 458.059631 218.593343 
L 458.496948 209.471176 
L 459.043594 192.909513 
L 460.027556 154.832162 
L 461.120848 115.067296 
L 461.667493 101.82496 
L 462.10481 95.981537 
L 462.323468 94.811322 
L 462.432797 94.676516 
L 462.542127 94.842853 
L 462.760785 96.073179 
L 463.088772 100.103886 
L 463.526089 109.248649 
L 464.182064 129.487486 
L 466.477976 208.811432 
L 466.915293 215.82921 
L 467.243281 218.099779 
L 467.35261 218.260245 
L 467.461939 218.119561 
L 467.680597 216.937681 
L 468.008585 212.962011 
L 468.445901 203.829764 
L 468.992547 187.258408 
L 469.97651 149.174842 
L 471.069801 109.421596 
L 471.616447 96.19101 
L 472.053764 90.358688 
L 472.272422 89.194307 
L 472.381751 89.062439 
L 472.49108 89.231712 
L 472.709739 90.467841 
L 473.037726 94.506881 
L 473.475043 103.661511 
L 474.131018 123.911016 
L 476.42693 203.219507 
L 476.864247 210.226631 
L 477.192234 212.488552 
L 477.301563 212.646083 
L 477.410892 212.502459 
L 477.629551 211.314748 
L 477.957538 207.330653 
L 478.394855 198.188329 
L 478.941501 181.607287 
L 479.925463 143.517524 
L 481.018755 103.775916 
L 481.565401 90.557086 
L 482.002717 84.735868 
L 482.221376 83.57732 
L 482.330705 83.448392 
L 482.440034 83.620599 
L 482.658692 84.862532 
L 482.98668 88.909902 
L 483.423996 98.074394 
L 484.079971 118.334558 
L 486.375884 197.627557 
L 486.8132 204.624024 
L 487.141188 206.877297 
L 487.250517 207.031891 
L 487.359846 206.885329 
L 487.578504 205.691787 
L 487.906492 201.699269 
L 488.343809 192.546872 
L 488.890454 175.956152 
L 489.874417 137.860209 
L 490.967708 98.130255 
L 491.514354 84.923188 
L 491.951671 79.113076 
L 492.170329 77.960362 
L 492.279658 77.834373 
L 492.388987 78.009515 
L 492.607646 79.257251 
L 492.935633 83.31295 
L 493.37295 92.487298 
L 494.028925 112.758113 
L 496.324837 192.035583 
L 496.762154 199.02139 
L 497.090141 201.266013 
L 497.199471 201.417671 
L 497.3088 201.26817 
L 497.527458 200.068797 
L 497.855445 196.067858 
L 498.292762 186.905393 
L 498.839408 170.305002 
L 499.9327 127.803387 
L 500.916662 92.484614 
L 501.463308 79.289315 
L 501.900624 73.490312 
L 502.119283 72.343432 
L 502.228612 72.220382 
L 502.337941 72.39846 
L 502.556599 73.651997 
L 502.884587 77.716023 
L 503.321903 86.900225 
L 503.977878 107.181681 
L 506.273791 186.443586 
L 506.711107 193.418729 
L 507.039095 195.6547 
L 507.148424 195.803423 
L 507.257753 195.650983 
L 507.476412 194.44578 
L 507.804399 190.436421 
L 508.241716 181.263891 
L 508.788362 164.653836 
L 509.881653 122.146389 
L 510.865616 86.838993 
L 511.412261 73.655468 
L 511.849578 67.867576 
L 512.068236 66.726531 
L 512.177565 66.60642 
L 512.286895 66.787433 
L 512.505553 68.046772 
L 512.83354 72.119122 
L 513.270857 81.313173 
L 513.926832 101.60526 
L 516.222744 180.851563 
L 516.660061 187.81604 
L 516.988049 190.043359 
L 517.097378 190.189146 
L 517.206707 190.033767 
L 517.425365 188.822734 
L 517.753353 184.804957 
L 518.190669 175.622367 
L 518.737315 159.002656 
L 519.830607 116.489395 
L 520.814569 81.193392 
L 521.361215 68.021647 
L 521.798532 62.244868 
L 522.01719 61.109659 
L 522.126519 60.992487 
L 522.235848 61.176435 
L 522.454507 62.441574 
L 522.782494 66.522248 
L 523.219811 75.726143 
L 523.875786 96.028852 
L 526.171698 175.259517 
L 526.609015 182.213324 
L 526.937002 184.431989 
L 527.046331 184.57484 
L 527.15566 184.416522 
L 527.374319 183.19966 
L 527.702306 179.173467 
L 528.139623 169.98082 
L 528.686269 153.351461 
L 529.77956 110.832406 
L 530.763523 75.54781 
L 531.310169 62.387852 
L 531.747485 56.622189 
L 531.966144 55.492815 
L 532.075473 55.378583 
L 532.184802 55.565465 
L 532.40346 56.836405 
L 532.731448 60.925399 
L 533.168764 70.139135 
L 533.824739 90.452456 
L 536.120652 169.667447 
L 536.557968 176.61058 
L 536.885956 178.820591 
L 536.995285 178.960505 
L 537.104614 178.799249 
L 537.323272 177.576558 
L 537.65126 173.541951 
L 538.088577 164.339252 
L 538.635222 147.700251 
L 539.728514 105.17542 
L 540.712476 69.902249 
L 541.259122 56.754081 
L 541.696439 50.999537 
L 541.915097 49.876 
L 542.024426 49.764707 
L 542.133755 49.954524 
L 542.352414 51.231263 
L 542.680401 55.328576 
L 543.117718 64.552148 
L 543.773693 84.876073 
L 546.069605 164.075352 
L 546.506922 171.007809 
L 546.834909 173.209164 
L 546.944239 173.346141 
L 547.053568 173.181947 
L 547.272226 171.953428 
L 547.600213 167.910407 
L 548.03753 158.69766 
L 548.584176 142.049026 
L 549.677468 99.518439 
L 550.66143 64.256707 
L 551.208076 51.120338 
L 551.645392 45.376915 
L 551.864051 44.259214 
L 551.97338 44.15086 
L 552.082709 44.343612 
L 552.301367 45.62615 
L 552.629355 49.731779 
L 553.066672 58.965183 
L 553.722646 79.299702 
L 556.018559 158.483233 
L 556.455875 165.405011 
L 556.783863 167.597707 
L 556.893192 167.731751 
L 557.002521 167.564616 
L 557.22118 166.330268 
L 557.549167 162.278839 
L 557.986484 153.056048 
L 558.53313 136.397785 
L 559.626421 93.861459 
L 560.610384 58.611188 
L 561.157029 45.486616 
L 561.594346 39.754316 
L 561.813004 38.642453 
L 561.922334 38.537045 
L 562.031663 38.732724 
L 562.250321 40.021059 
L 562.578308 44.135014 
L 563.015625 53.378246 
L 563.6716 73.723352 
L 565.967512 152.890986 
L 566.404829 159.801836 
L 566.732817 161.988378 
L 566.842146 162.110295 
L 566.842146 162.110295 
" style="fill:none;stroke:#4c72b0;stroke-linecap:round;stroke-width:1.75;"/>
   </g>
   <g id="patch_8">
    <path d="M 331.855515 297.9825 
L 331.855515 26.1825 
" style="fill:none;"/>
   </g>
   <g id="patch_9">
    <path d="M 578.031985 297.9825 
L 578.031985 26.1825 
" style="fill:none;"/>
   </g>
   <g id="patch_10">
    <path d="M 331.855515 297.9825 
L 578.031985 297.9825 
" style="fill:none;"/>
   </g>
   <g id="patch_11">
    <path d="M 331.855515 26.1825 
L 578.031985 26.1825 
" style="fill:none;"/>
   </g>
   <g id="text_28">
    <!-- $u'(t)$ -->
    <defs>
     <path d="M 3.515625 5.421875 
Q 2.875 5.609375 2.875 6.390625 
L 15.09375 51.8125 
Q 15.671875 53.65625 17.078125 54.78125 
Q 18.5 55.90625 20.3125 55.90625 
Q 22.65625 55.90625 24.4375 54.359375 
Q 26.21875 52.828125 26.21875 50.484375 
Q 26.21875 49.46875 25.6875 48.1875 
L 7.625 4.984375 
Q 7.28125 4.296875 6.6875 4.296875 
Q 6.15625 4.296875 5 4.78125 
Q 3.859375 5.28125 3.515625 5.421875 
z
" id="Cmsy10-48"/>
    </defs>
    <g style="fill:#262626;" transform="translate(436.22375 20.1825)scale(0.18 -0.18)">
     <use transform="translate(0 0.584375)" xlink:href="#DejaVuSans-Oblique-117"/>
     <use transform="translate(67.845052 38.865625)scale(0.7)" xlink:href="#Cmsy10-48"/>
     <use transform="translate(89.822591 0.584375)" xlink:href="#DejaVuSans-40"/>
     <use transform="translate(128.836263 0.584375)" xlink:href="#DejaVuSans-Oblique-116"/>
     <use transform="translate(168.045247 0.584375)" xlink:href="#DejaVuSans-41"/>
    </g>
   </g>
  </g>
  <g id="axes_3">
   <g id="patch_12">
    <path d="M 627.267279 297.9825 
L 873.44375 297.9825 
L 873.44375 26.1825 
L 627.267279 26.1825 
z
" style="fill:#dcdcdc;"/>
   </g>
   <g id="matplotlib.axis_5">
    <g id="xtick_11">
     <g id="line2d_55">
      <path clip-path="url(#p23506f0124)" d="M 660.836798 297.9825 
L 660.836798 26.1825 
" style="fill:none;stroke:#ffffff;stroke-linecap:round;"/>
     </g>
     <g id="line2d_56"/>
     <g id="text_29">
      <!-- −40 -->
      <g style="fill:#262626;" transform="translate(652.355548 312.140312)scale(0.1 -0.1)">
       <use xlink:href="#ArialMT-8722"/>
       <use x="58.398438" xlink:href="#ArialMT-52"/>
       <use x="114.013672" xlink:href="#ArialMT-48"/>
      </g>
     </g>
    </g>
    <g id="xtick_12">
     <g id="line2d_57">
      <path clip-path="url(#p23506f0124)" d="M 705.596156 297.9825 
L 705.596156 26.1825 
" style="fill:none;stroke:#ffffff;stroke-linecap:round;"/>
     </g>
     <g id="line2d_58"/>
     <g id="text_30">
      <!-- −20 -->
      <g style="fill:#262626;" transform="translate(697.114906 312.140312)scale(0.1 -0.1)">
       <use xlink:href="#ArialMT-8722"/>
       <use x="58.398438" xlink:href="#ArialMT-50"/>
       <use x="114.013672" xlink:href="#ArialMT-48"/>
      </g>
     </g>
    </g>
    <g id="xtick_13">
     <g id="line2d_59">
      <path clip-path="url(#p23506f0124)" d="M 750.355515 297.9825 
L 750.355515 26.1825 
" style="fill:none;stroke:#ffffff;stroke-linecap:round;"/>
     </g>
     <g id="line2d_60"/>
     <g id="text_31">
      <!-- 0 -->
      <g style="fill:#262626;" transform="translate(747.575046 312.140312)scale(0.1 -0.1)">
       <use xlink:href="#ArialMT-48"/>
      </g>
     </g>
    </g>
    <g id="xtick_14">
     <g id="line2d_61">
      <path clip-path="url(#p23506f0124)" d="M 795.114873 297.9825 
L 795.114873 26.1825 
" style="fill:none;stroke:#ffffff;stroke-linecap:round;"/>
     </g>
     <g id="line2d_62"/>
     <g id="text_32">
      <!-- 20 -->
      <g style="fill:#262626;" transform="translate(789.553935 312.140312)scale(0.1 -0.1)">
       <use xlink:href="#ArialMT-50"/>
       <use x="55.615234" xlink:href="#ArialMT-48"/>
      </g>
     </g>
    </g>
    <g id="xtick_15">
     <g id="line2d_63">
      <path clip-path="url(#p23506f0124)" d="M 839.874231 297.9825 
L 839.874231 26.1825 
" style="fill:none;stroke:#ffffff;stroke-linecap:round;"/>
     </g>
     <g id="line2d_64"/>
     <g id="text_33">
      <!-- 40 -->
      <g style="fill:#262626;" transform="translate(834.313294 312.140312)scale(0.1 -0.1)">
       <use xlink:href="#ArialMT-52"/>
       <use x="55.615234" xlink:href="#ArialMT-48"/>
      </g>
     </g>
    </g>
   </g>
   <g id="matplotlib.axis_6">
    <g id="ytick_17">
     <g id="line2d_65">
      <path clip-path="url(#p23506f0124)" d="M 627.267279 268.589728 
L 873.44375 268.589728 
" style="fill:none;stroke:#ffffff;stroke-linecap:round;"/>
     </g>
     <g id="line2d_66"/>
     <g id="text_34">
      <!-- −60 -->
      <g style="fill:#262626;" transform="translate(603.304779 272.168634)scale(0.1 -0.1)">
       <use xlink:href="#ArialMT-8722"/>
       <use x="58.398438" xlink:href="#ArialMT-54"/>
       <use x="114.013672" xlink:href="#ArialMT-48"/>
      </g>
     </g>
    </g>
    <g id="ytick_18">
     <g id="line2d_67">
      <path clip-path="url(#p23506f0124)" d="M 627.267279 233.67733 
L 873.44375 233.67733 
" style="fill:none;stroke:#ffffff;stroke-linecap:round;"/>
     </g>
     <g id="line2d_68"/>
     <g id="text_35">
      <!-- −40 -->
      <g style="fill:#262626;" transform="translate(603.304779 237.256236)scale(0.1 -0.1)">
       <use xlink:href="#ArialMT-8722"/>
       <use x="58.398438" xlink:href="#ArialMT-52"/>
       <use x="114.013672" xlink:href="#ArialMT-48"/>
      </g>
     </g>
    </g>
    <g id="ytick_19">
     <g id="line2d_69">
      <path clip-path="url(#p23506f0124)" d="M 627.267279 198.764932 
L 873.44375 198.764932 
" style="fill:none;stroke:#ffffff;stroke-linecap:round;"/>
     </g>
     <g id="line2d_70"/>
     <g id="text_36">
      <!-- −20 -->
      <g style="fill:#262626;" transform="translate(603.304779 202.343838)scale(0.1 -0.1)">
       <use xlink:href="#ArialMT-8722"/>
       <use x="58.398438" xlink:href="#ArialMT-50"/>
       <use x="114.013672" xlink:href="#ArialMT-48"/>
      </g>
     </g>
    </g>
    <g id="ytick_20">
     <g id="line2d_71">
      <path clip-path="url(#p23506f0124)" d="M 627.267279 163.852534 
L 873.44375 163.852534 
" style="fill:none;stroke:#ffffff;stroke-linecap:round;"/>
     </g>
     <g id="line2d_72"/>
     <g id="text_37">
      <!-- 0 -->
      <g style="fill:#262626;" transform="translate(614.706342 167.43144)scale(0.1 -0.1)">
       <use xlink:href="#ArialMT-48"/>
      </g>
     </g>
    </g>
    <g id="ytick_21">
     <g id="line2d_73">
      <path clip-path="url(#p23506f0124)" d="M 627.267279 128.940135 
L 873.44375 128.940135 
" style="fill:none;stroke:#ffffff;stroke-linecap:round;"/>
     </g>
     <g id="line2d_74"/>
     <g id="text_38">
      <!-- 20 -->
      <g style="fill:#262626;" transform="translate(609.145404 132.519042)scale(0.1 -0.1)">
       <use xlink:href="#ArialMT-50"/>
       <use x="55.615234" xlink:href="#ArialMT-48"/>
      </g>
     </g>
    </g>
    <g id="ytick_22">
     <g id="line2d_75">
      <path clip-path="url(#p23506f0124)" d="M 627.267279 94.027737 
L 873.44375 94.027737 
" style="fill:none;stroke:#ffffff;stroke-linecap:round;"/>
     </g>
     <g id="line2d_76"/>
     <g id="text_39">
      <!-- 40 -->
      <g style="fill:#262626;" transform="translate(609.145404 97.606644)scale(0.1 -0.1)">
       <use xlink:href="#ArialMT-52"/>
       <use x="55.615234" xlink:href="#ArialMT-48"/>
      </g>
     </g>
    </g>
    <g id="ytick_23">
     <g id="line2d_77">
      <path clip-path="url(#p23506f0124)" d="M 627.267279 59.115339 
L 873.44375 59.115339 
" style="fill:none;stroke:#ffffff;stroke-linecap:round;"/>
     </g>
     <g id="line2d_78"/>
     <g id="text_40">
      <!-- 60 -->
      <g style="fill:#262626;" transform="translate(609.145404 62.694245)scale(0.1 -0.1)">
       <use xlink:href="#ArialMT-54"/>
       <use x="55.615234" xlink:href="#ArialMT-48"/>
      </g>
     </g>
    </g>
   </g>
   <g id="line2d_79">
    <path clip-path="url(#p23506f0124)" d="M 638.457119 163.301939 
L 639.550411 241.730539 
L 640.097056 269.012369 
L 640.534373 281.859453 
L 640.862361 285.564726 
L 640.97169 285.627955 
L 641.081019 285.102415 
L 641.299677 282.297845 
L 641.627665 273.828047 
L 642.064981 255.195762 
L 642.720956 214.606581 
L 645.016869 57.378764 
L 645.454185 43.46228 
L 645.782173 38.894935 
L 645.891502 38.540131 
L 646.000831 38.774297 
L 646.219489 41.002273 
L 646.547477 48.64303 
L 646.984793 66.291324 
L 647.531439 98.3551 
L 648.624731 180.383296 
L 649.608693 248.120435 
L 650.155339 273.069897 
L 650.592656 283.690856 
L 650.811314 285.568189 
L 650.920643 285.625669 
L 651.029972 285.094393 
L 651.248631 282.27849 
L 651.576618 273.792451 
L 652.013935 255.140989 
L 652.66991 214.531199 
L 654.965822 57.334597 
L 655.403139 43.439035 
L 655.731126 38.88863 
L 655.840455 38.53957 
L 655.949785 38.779482 
L 656.168443 41.018849 
L 656.49643 48.676033 
L 656.933747 66.343921 
L 657.480393 98.426437 
L 658.573685 180.465634 
L 659.557647 248.180191 
L 660.104293 273.106504 
L 660.541609 283.705682 
L 660.760268 285.571595 
L 660.869597 285.623328 
L 660.978926 285.086314 
L 661.197584 282.259081 
L 661.525572 273.756804 
L 661.962888 255.086174 
L 662.618863 214.455794 
L 664.914776 57.290478 
L 665.352092 43.415844 
L 665.68008 38.882382 
L 665.789409 38.539065 
L 665.898738 38.784723 
L 666.117397 41.035479 
L 666.445384 48.709087 
L 666.882701 66.396562 
L 667.429347 98.497803 
L 668.522638 180.547964 
L 669.506601 248.239907 
L 670.053246 273.143061 
L 670.490563 283.720454 
L 670.709221 285.574946 
L 670.81855 285.62093 
L 670.92788 285.07818 
L 671.146538 282.239617 
L 671.474525 273.721106 
L 671.911842 255.031316 
L 672.567817 214.380365 
L 674.863729 57.246406 
L 675.301046 43.392707 
L 675.629034 38.87619 
L 675.738363 38.538616 
L 675.847692 38.79002 
L 676.06635 41.052164 
L 676.394338 48.742193 
L 676.831654 66.449247 
L 677.3783 98.569197 
L 678.471592 180.630286 
L 679.455554 248.299585 
L 680.0022 273.179568 
L 680.439517 283.73517 
L 680.658175 285.57824 
L 680.767504 285.618477 
L 680.876833 285.06999 
L 681.095492 282.220099 
L 681.423479 273.685358 
L 681.860796 254.976417 
L 682.516771 214.304912 
L 684.812683 57.202382 
L 685.25 43.369624 
L 685.577987 38.870053 
L 685.687316 38.538224 
L 685.796645 38.795373 
L 686.015304 41.068904 
L 686.343291 48.77535 
L 686.780608 66.501974 
L 687.327254 98.640621 
L 688.420545 180.712599 
L 689.404508 248.359223 
L 689.951154 273.216024 
L 690.38847 283.749831 
L 690.607129 285.581479 
L 690.716458 285.615967 
L 690.825787 285.061745 
L 691.044445 282.200526 
L 691.372433 273.649559 
L 691.809749 254.921475 
L 692.465724 214.229436 
L 694.761637 57.158406 
L 695.198953 43.346594 
L 695.526941 38.863973 
L 695.63627 38.537887 
L 695.745599 38.800782 
L 695.964257 41.0857 
L 696.292245 48.808559 
L 696.729562 66.554746 
L 697.276207 98.712073 
L 698.369499 180.794903 
L 699.353461 248.418822 
L 699.900107 273.25243 
L 700.337424 283.764436 
L 700.556082 285.584661 
L 700.665411 285.613402 
L 700.77474 285.053443 
L 700.993399 282.180899 
L 701.321386 273.613709 
L 701.758703 254.866491 
L 702.414678 214.153936 
L 704.71059 57.114477 
L 705.147907 43.323619 
L 705.475894 38.857949 
L 705.585224 38.537606 
L 705.694553 38.806246 
L 705.913211 41.10255 
L 706.241198 48.841819 
L 706.678515 66.60756 
L 707.225161 98.783555 
L 708.318453 180.877199 
L 709.302415 248.478382 
L 709.849061 273.288785 
L 710.286377 283.778987 
L 710.505036 285.587787 
L 710.614365 285.61078 
L 710.723694 285.045086 
L 710.942352 282.161217 
L 711.27034 273.577808 
L 711.707656 254.811465 
L 712.363631 214.078412 
L 714.550215 61.812094 
L 714.987531 45.928347 
L 715.315519 39.754062 
L 715.534177 38.537382 
L 715.643506 38.811767 
L 715.862165 41.119455 
L 716.190152 48.875131 
L 716.627469 66.660418 
L 717.174115 98.855065 
L 718.267406 180.959487 
L 719.251369 248.537903 
L 719.798014 273.32509 
L 720.235331 283.793482 
L 720.453989 285.590858 
L 720.563318 285.608102 
L 720.781977 283.879293 
L 721.109964 276.960415 
L 721.547281 260.176971 
L 722.093927 228.947039 
L 723.077889 155.937131 
L 724.171181 78.741705 
L 724.717827 52.790899 
L 725.155143 41.222038 
L 725.373802 38.846067 
L 725.483131 38.537214 
L 725.59246 38.817344 
L 725.811118 41.136415 
L 726.139106 48.908494 
L 726.576422 66.71332 
L 727.123068 98.926603 
L 728.21636 181.041766 
L 729.200322 248.597385 
L 729.746968 273.361344 
L 730.184285 283.807922 
L 730.402943 285.593872 
L 730.512272 285.605368 
L 730.73093 283.86513 
L 731.058918 276.929679 
L 731.496235 260.126298 
L 732.04288 228.876998 
L 733.026843 155.853978 
L 734.120134 78.680267 
L 734.66678 52.752104 
L 735.104097 41.204804 
L 735.322755 38.840211 
L 735.432084 38.537102 
L 735.541413 38.822977 
L 735.760072 41.15343 
L 736.088059 48.941908 
L 736.525376 66.766265 
L 737.072022 98.998171 
L 738.165313 181.124036 
L 739.149276 248.656827 
L 739.695922 273.397548 
L 740.133238 283.822307 
L 740.351897 285.59683 
L 740.461226 285.602578 
L 740.679884 283.850911 
L 741.007871 276.898891 
L 741.445188 260.075581 
L 741.991834 228.806927 
L 742.975796 155.770828 
L 744.069088 78.618866 
L 744.615734 52.713358 
L 745.05305 41.187624 
L 745.271709 38.83441 
L 745.381038 38.537045 
L 745.490367 38.828666 
L 745.709025 41.170499 
L 746.037013 48.975374 
L 746.47433 66.819252 
L 747.020975 99.069767 
L 748.114267 181.206298 
L 749.098229 248.71623 
L 749.644875 273.433701 
L 750.082192 283.836636 
L 750.30085 285.599732 
L 750.410179 285.599732 
L 750.628838 283.836636 
L 750.956825 276.868051 
L 751.394142 260.024819 
L 751.940788 228.736825 
L 752.92475 155.68768 
L 754.018042 78.557504 
L 754.564687 52.674662 
L 755.002004 41.170499 
L 755.220662 38.828666 
L 755.329992 38.537045 
L 755.439321 38.83441 
L 755.657979 41.187624 
L 755.985966 49.008891 
L 756.423283 66.872284 
L 756.969929 99.141391 
L 758.063221 181.288551 
L 759.047183 248.775593 
L 759.593829 273.469804 
L 760.031145 283.850911 
L 760.249804 285.602578 
L 760.359133 285.59683 
L 760.577791 283.822307 
L 760.905779 276.837158 
L 761.343095 259.974013 
L 761.889741 228.666693 
L 762.873704 155.604536 
L 763.966995 78.49618 
L 764.513641 52.636016 
L 764.950958 41.15343 
L 765.169616 38.822977 
L 765.278945 38.537102 
L 765.388274 38.840211 
L 765.606933 41.204804 
L 765.93492 49.042459 
L 766.372237 66.925358 
L 766.918883 99.213044 
L 768.012174 181.370796 
L 768.996137 248.834918 
L 769.542782 273.505856 
L 769.980099 283.86513 
L 770.198757 285.605368 
L 770.308086 285.593872 
L 770.526745 283.807922 
L 770.854732 276.806214 
L 771.292049 259.923162 
L 771.838695 228.596531 
L 772.822657 155.521395 
L 773.915949 78.434893 
L 774.462595 52.59742 
L 774.899911 41.136415 
L 775.11857 38.817344 
L 775.227899 38.537214 
L 775.337228 38.846067 
L 775.555886 41.222038 
L 775.883874 49.076079 
L 776.32119 66.978476 
L 776.867836 99.284726 
L 777.961128 181.453031 
L 778.94509 248.894203 
L 779.491736 273.541857 
L 779.929053 283.879293 
L 780.147711 285.608102 
L 780.25704 285.590858 
L 780.475698 283.793482 
L 780.803686 276.775218 
L 781.241003 259.872267 
L 781.787648 228.526339 
L 782.771611 155.438256 
L 783.864902 78.373645 
L 784.411548 52.558873 
L 784.848865 41.119455 
L 785.067523 38.811767 
L 785.176852 38.537382 
L 785.286181 38.85198 
L 785.50484 41.239327 
L 785.832827 49.10975 
L 786.270144 67.031637 
L 786.81679 99.356436 
L 787.910081 181.535258 
L 788.894044 248.953448 
L 789.44069 273.577808 
L 789.878006 283.893402 
L 790.096665 285.61078 
L 790.205994 285.587787 
L 790.424652 283.778987 
L 790.752639 276.744169 
L 791.189956 259.821328 
L 791.736602 228.456117 
L 792.720564 155.355121 
L 793.813856 78.312434 
L 794.360502 52.520376 
L 794.797818 41.10255 
L 795.016477 38.806246 
L 795.125806 38.537606 
L 795.235135 38.857949 
L 795.453793 41.256672 
L 795.781781 49.143472 
L 796.219098 67.084841 
L 796.765743 99.428175 
L 797.859035 181.617476 
L 798.842997 249.012654 
L 799.389643 273.613709 
L 799.82696 283.907455 
L 800.045618 285.613402 
L 800.154947 285.584661 
L 800.373606 283.764436 
L 800.701593 276.713069 
L 801.13891 259.770344 
L 801.685556 228.385865 
L 802.669518 155.271988 
L 803.76281 78.251262 
L 804.309455 52.481929 
L 804.746772 41.0857 
L 804.96543 38.800782 
L 805.07476 38.537887 
L 805.184089 38.863973 
L 805.402747 41.274071 
L 805.730734 49.177246 
L 806.168051 67.138088 
L 806.824026 106.999893 
L 809.119938 265.267789 
L 809.557255 279.907168 
L 809.885243 285.061745 
L 809.994572 285.615967 
L 810.103901 285.581479 
L 810.322559 283.749831 
L 810.650547 276.681916 
L 811.087863 259.719316 
L 811.634509 228.315582 
L 812.618472 155.188859 
L 813.711763 78.190127 
L 814.258409 52.443531 
L 814.695726 41.068904 
L 814.914384 38.795373 
L 815.023713 38.538224 
L 815.133042 38.870053 
L 815.351701 41.291525 
L 815.679688 49.211071 
L 816.117005 67.191378 
L 816.77298 107.074427 
L 819.068892 265.313596 
L 819.506209 279.932278 
L 819.834196 285.06999 
L 819.943525 285.618477 
L 820.052854 285.57824 
L 820.271513 283.73517 
L 820.5995 276.650712 
L 821.036817 259.668243 
L 821.583463 228.24527 
L 822.567425 155.105733 
L 823.660717 78.129031 
L 824.207363 52.405184 
L 824.644679 41.052164 
L 824.863338 38.79002 
L 824.972667 38.538616 
L 825.081996 38.87619 
L 825.300654 41.309033 
L 825.628642 49.244947 
L 826.065958 67.244711 
L 826.721933 107.148985 
L 829.017846 265.359355 
L 829.455162 279.957334 
L 829.78315 285.07818 
L 829.892479 285.62093 
L 830.001808 285.574946 
L 830.220466 283.720454 
L 830.548454 276.619455 
L 830.985771 259.617127 
L 831.532416 228.174927 
L 832.516379 155.02261 
L 833.60967 78.067973 
L 834.156316 52.366886 
L 834.593633 41.035479 
L 834.812291 38.784723 
L 834.92162 38.539065 
L 835.030949 38.882382 
L 835.249608 41.326597 
L 835.577595 49.278874 
L 836.014912 67.298088 
L 836.670887 107.223568 
L 838.966799 265.405068 
L 839.404116 279.982337 
L 839.732103 285.086314 
L 839.841433 285.623328 
L 839.950762 285.571595 
L 840.16942 283.705682 
L 840.497407 276.588146 
L 840.934724 259.565966 
L 841.48137 228.104554 
L 842.465332 154.939491 
L 843.558624 78.006953 
L 844.10527 52.328638 
L 844.542586 41.018849 
L 844.761245 38.779482 
L 844.870574 38.53957 
L 844.979903 38.88863 
L 845.198561 41.344215 
L 845.526549 49.312853 
L 845.963866 67.351507 
L 846.61984 107.298177 
L 848.915753 265.450734 
L 849.353069 280.007287 
L 849.681057 285.094393 
L 849.790386 285.625669 
L 849.899715 285.568189 
L 850.118374 283.690856 
L 850.446361 276.556786 
L 850.883678 259.51476 
L 851.430324 228.034152 
L 852.414286 154.856374 
L 853.507578 77.945971 
L 854.054223 52.290439 
L 854.49154 41.002273 
L 854.710198 38.774297 
L 854.819528 38.540131 
L 854.928857 38.894935 
L 855.147515 41.361889 
L 855.475502 49.346883 
L 855.912819 67.40497 
L 856.568794 107.37281 
L 858.864706 265.496353 
L 859.302023 280.032183 
L 859.630011 285.102415 
L 859.73934 285.627955 
L 859.848669 285.564726 
L 860.067327 283.675974 
L 860.395315 276.525373 
L 860.832631 259.463511 
L 861.379277 227.96372 
L 862.25391 163.301939 
L 862.25391 163.301939 
" style="fill:none;stroke:#4c72b0;stroke-linecap:round;stroke-width:1.75;"/>
   </g>
   <g id="line2d_80">
    <path clip-path="url(#p23506f0124)" d="M 638.457119 163.301939 
L 639.550411 241.730539 
L 640.097056 269.012369 
L 640.534373 281.859453 
L 640.862361 285.564726 
L 640.97169 285.627955 
L 641.081019 285.102415 
L 641.299677 282.297845 
L 641.627665 273.828047 
L 642.064981 255.195762 
L 642.720956 214.606581 
L 645.016869 57.378764 
L 645.454185 43.46228 
L 645.782173 38.894935 
L 645.891502 38.540131 
L 646.000831 38.774297 
L 646.219489 41.002273 
L 646.547477 48.64303 
L 646.984793 66.291324 
L 647.531439 98.3551 
L 648.624731 180.383296 
L 649.608693 248.120435 
L 650.155339 273.069897 
L 650.592656 283.690856 
L 650.811314 285.568189 
L 650.920643 285.625669 
L 651.029972 285.094393 
L 651.248631 282.27849 
L 651.576618 273.792451 
L 652.013935 255.140989 
L 652.66991 214.531199 
L 654.965822 57.334597 
L 655.403139 43.439035 
L 655.731126 38.88863 
L 655.840455 38.53957 
L 655.949785 38.779482 
L 656.168443 41.018849 
L 656.49643 48.676033 
L 656.933747 66.343921 
L 657.480393 98.426437 
L 658.573685 180.465634 
L 659.557647 248.180191 
L 660.104293 273.106504 
L 660.541609 283.705682 
L 660.760268 285.571595 
L 660.869597 285.623328 
L 660.978926 285.086314 
L 661.197584 282.259081 
L 661.525572 273.756804 
L 661.962888 255.086174 
L 662.618863 214.455794 
L 664.914776 57.290478 
L 665.352092 43.415844 
L 665.68008 38.882382 
L 665.789409 38.539065 
L 665.898738 38.784723 
L 666.117397 41.035479 
L 666.445384 48.709087 
L 666.882701 66.396562 
L 667.429347 98.497803 
L 668.522638 180.547964 
L 669.506601 248.239907 
L 670.053246 273.143061 
L 670.490563 283.720454 
L 670.709221 285.574946 
L 670.81855 285.62093 
L 670.92788 285.07818 
L 671.146538 282.239617 
L 671.474525 273.721106 
L 671.911842 255.031316 
L 672.567817 214.380365 
L 674.863729 57.246406 
L 675.301046 43.392707 
L 675.629034 38.87619 
L 675.738363 38.538616 
L 675.847692 38.79002 
L 676.06635 41.052164 
L 676.394338 48.742193 
L 676.831654 66.449247 
L 677.3783 98.569197 
L 678.471592 180.630286 
L 679.455554 248.299585 
L 680.0022 273.179568 
L 680.439517 283.73517 
L 680.658175 285.57824 
L 680.767504 285.618477 
L 680.876833 285.06999 
L 681.095492 282.220099 
L 681.423479 273.685358 
L 681.860796 254.976417 
L 682.516771 214.304912 
L 684.812683 57.202382 
L 685.25 43.369624 
L 685.577987 38.870053 
L 685.687316 38.538224 
L 685.796645 38.795373 
L 686.015304 41.068904 
L 686.343291 48.77535 
L 686.780608 66.501974 
L 687.327254 98.640621 
L 688.420545 180.712599 
L 689.404508 248.359223 
L 689.951154 273.216024 
L 690.38847 283.749831 
L 690.607129 285.581479 
L 690.716458 285.615967 
L 690.825787 285.061745 
L 691.044445 282.200526 
L 691.372433 273.649559 
L 691.809749 254.921475 
L 692.465724 214.229436 
L 694.761637 57.158406 
L 695.198953 43.346594 
L 695.526941 38.863973 
L 695.63627 38.537887 
L 695.745599 38.800782 
L 695.964257 41.0857 
L 696.292245 48.808559 
L 696.729562 66.554746 
L 697.276207 98.712073 
L 698.369499 180.794903 
L 699.353461 248.418822 
L 699.900107 273.25243 
L 700.337424 283.764436 
L 700.556082 285.584661 
L 700.665411 285.613402 
L 700.77474 285.053443 
L 700.993399 282.180899 
L 701.321386 273.613709 
L 701.758703 254.866491 
L 702.414678 214.153936 
L 704.71059 57.114477 
L 705.147907 43.323619 
L 705.475894 38.857949 
L 705.585224 38.537606 
L 705.694553 38.806246 
L 705.913211 41.10255 
L 706.241198 48.841819 
L 706.678515 66.60756 
L 707.225161 98.783555 
L 708.318453 180.877199 
L 709.302415 248.478382 
L 709.849061 273.288785 
L 710.286377 283.778987 
L 710.505036 285.587787 
L 710.614365 285.61078 
L 710.723694 285.045086 
L 710.942352 282.161217 
L 711.27034 273.577808 
L 711.707656 254.811465 
L 712.363631 214.078412 
L 714.550215 61.812094 
L 714.987531 45.928347 
L 715.315519 39.754062 
L 715.534177 38.537382 
L 715.643506 38.811767 
L 715.862165 41.119455 
L 716.190152 48.875131 
L 716.627469 66.660418 
L 717.174115 98.855065 
L 718.267406 180.959487 
L 719.251369 248.537903 
L 719.798014 273.32509 
L 720.235331 283.793482 
L 720.453989 285.590858 
L 720.563318 285.608102 
L 720.781977 283.879293 
L 721.109964 276.960415 
L 721.547281 260.176971 
L 722.093927 228.947039 
L 723.077889 155.937131 
L 724.171181 78.741705 
L 724.717827 52.790899 
L 725.155143 41.222038 
L 725.373802 38.846067 
L 725.483131 38.537214 
L 725.59246 38.817344 
L 725.811118 41.136415 
L 726.139106 48.908494 
L 726.576422 66.71332 
L 727.123068 98.926603 
L 728.21636 181.041766 
L 729.200322 248.597385 
L 729.746968 273.361344 
L 730.184285 283.807922 
L 730.402943 285.593872 
L 730.512272 285.605368 
L 730.73093 283.86513 
L 731.058918 276.929679 
L 731.496235 260.126298 
L 732.04288 228.876998 
L 733.026843 155.853978 
L 734.120134 78.680267 
L 734.66678 52.752104 
L 735.104097 41.204804 
L 735.322755 38.840211 
L 735.432084 38.537102 
L 735.541413 38.822977 
L 735.760072 41.15343 
L 736.088059 48.941908 
L 736.525376 66.766265 
L 737.072022 98.998171 
L 738.165313 181.124036 
L 739.149276 248.656827 
L 739.695922 273.397548 
L 740.133238 283.822307 
L 740.351897 285.59683 
L 740.461226 285.602578 
L 740.679884 283.850911 
L 741.007871 276.898891 
L 741.445188 260.075581 
L 741.991834 228.806927 
L 742.975796 155.770828 
L 744.069088 78.618866 
L 744.615734 52.713358 
L 745.05305 41.187624 
L 745.271709 38.83441 
L 745.381038 38.537045 
L 745.490367 38.828666 
L 745.709025 41.170499 
L 746.037013 48.975374 
L 746.47433 66.819252 
L 747.020975 99.069767 
L 748.114267 181.206298 
L 749.098229 248.71623 
L 749.644875 273.433701 
L 750.082192 283.836636 
L 750.30085 285.599732 
L 750.410179 285.599732 
L 750.628838 283.836636 
L 750.956825 276.868051 
L 751.394142 260.024819 
L 751.940788 228.736825 
L 752.92475 155.68768 
L 754.018042 78.557504 
L 754.564687 52.674662 
L 755.002004 41.170499 
L 755.220662 38.828666 
L 755.329992 38.537045 
L 755.439321 38.83441 
L 755.657979 41.187624 
L 755.985966 49.008891 
L 756.423283 66.872284 
L 756.969929 99.141391 
L 758.063221 181.288551 
L 759.047183 248.775593 
L 759.593829 273.469804 
L 760.031145 283.850911 
L 760.249804 285.602578 
L 760.359133 285.59683 
L 760.577791 283.822307 
L 760.905779 276.837158 
L 761.343095 259.974013 
L 761.889741 228.666693 
L 762.873704 155.604536 
L 763.966995 78.49618 
L 764.513641 52.636016 
L 764.950958 41.15343 
L 765.169616 38.822977 
L 765.278945 38.537102 
L 765.388274 38.840211 
L 765.606933 41.204804 
L 765.93492 49.042459 
L 766.372237 66.925358 
L 766.918883 99.213044 
L 768.012174 181.370796 
L 768.996137 248.834918 
L 769.542782 273.505856 
L 769.980099 283.86513 
L 770.198757 285.605368 
L 770.308086 285.593872 
L 770.526745 283.807922 
L 770.854732 276.806214 
L 771.292049 259.923162 
L 771.838695 228.596531 
L 772.822657 155.521395 
L 773.915949 78.434893 
L 774.462595 52.59742 
L 774.899911 41.136415 
L 775.11857 38.817344 
L 775.227899 38.537214 
L 775.337228 38.846067 
L 775.555886 41.222038 
L 775.883874 49.076079 
L 776.32119 66.978476 
L 776.867836 99.284726 
L 777.961128 181.453031 
L 778.94509 248.894203 
L 779.491736 273.541857 
L 779.929053 283.879293 
L 780.147711 285.608102 
L 780.25704 285.590858 
L 780.475698 283.793482 
L 780.803686 276.775218 
L 781.241003 259.872267 
L 781.787648 228.526339 
L 782.771611 155.438256 
L 783.864902 78.373645 
L 784.411548 52.558873 
L 784.848865 41.119455 
L 785.067523 38.811767 
L 785.176852 38.537382 
L 785.286181 38.85198 
L 785.50484 41.239327 
L 785.832827 49.10975 
L 786.270144 67.031637 
L 786.81679 99.356436 
L 787.910081 181.535258 
L 788.894044 248.953448 
L 789.44069 273.577808 
L 789.878006 283.893402 
L 790.096665 285.61078 
L 790.205994 285.587787 
L 790.424652 283.778987 
L 790.752639 276.744169 
L 791.189956 259.821328 
L 791.736602 228.456117 
L 792.720564 155.355121 
L 793.813856 78.312434 
L 794.360502 52.520376 
L 794.797818 41.10255 
L 795.016477 38.806246 
L 795.125806 38.537606 
L 795.235135 38.857949 
L 795.453793 41.256672 
L 795.781781 49.143472 
L 796.219098 67.084841 
L 796.765743 99.428175 
L 797.859035 181.617476 
L 798.842997 249.012654 
L 799.389643 273.613709 
L 799.82696 283.907455 
L 800.045618 285.613402 
L 800.154947 285.584661 
L 800.373606 283.764436 
L 800.701593 276.713069 
L 801.13891 259.770344 
L 801.685556 228.385865 
L 802.669518 155.271988 
L 803.76281 78.251262 
L 804.309455 52.481929 
L 804.746772 41.0857 
L 804.96543 38.800782 
L 805.07476 38.537887 
L 805.184089 38.863973 
L 805.402747 41.274071 
L 805.730734 49.177246 
L 806.168051 67.138088 
L 806.824026 106.999893 
L 809.119938 265.267789 
L 809.557255 279.907168 
L 809.885243 285.061745 
L 809.994572 285.615967 
L 810.103901 285.581479 
L 810.322559 283.749831 
L 810.650547 276.681916 
L 811.087863 259.719316 
L 811.634509 228.315582 
L 812.618472 155.188859 
L 813.711763 78.190127 
L 814.258409 52.443531 
L 814.695726 41.068904 
L 814.914384 38.795373 
L 815.023713 38.538224 
L 815.133042 38.870053 
L 815.351701 41.291525 
L 815.679688 49.211071 
L 816.117005 67.191378 
L 816.77298 107.074427 
L 819.068892 265.313596 
L 819.506209 279.932278 
L 819.834196 285.06999 
L 819.943525 285.618477 
L 820.052854 285.57824 
L 820.271513 283.73517 
L 820.5995 276.650712 
L 821.036817 259.668243 
L 821.583463 228.24527 
L 822.567425 155.105733 
L 823.660717 78.129031 
L 824.207363 52.405184 
L 824.644679 41.052164 
L 824.863338 38.79002 
L 824.972667 38.538616 
L 825.081996 38.87619 
L 825.300654 41.309033 
L 825.628642 49.244947 
L 826.065958 67.244711 
L 826.721933 107.148985 
L 829.017846 265.359355 
L 829.455162 279.957334 
L 829.78315 285.07818 
L 829.892479 285.62093 
L 830.001808 285.574946 
L 830.220466 283.720454 
L 830.548454 276.619455 
L 830.985771 259.617127 
L 831.532416 228.174927 
L 832.516379 155.02261 
L 833.60967 78.067973 
L 834.156316 52.366886 
L 834.593633 41.035479 
L 834.812291 38.784723 
L 834.92162 38.539065 
L 835.030949 38.882382 
L 835.249608 41.326597 
L 835.577595 49.278874 
L 836.014912 67.298088 
L 836.670887 107.223568 
L 838.966799 265.405068 
L 839.404116 279.982337 
L 839.732103 285.086314 
L 839.841433 285.623328 
L 839.950762 285.571595 
L 840.16942 283.705682 
L 840.497407 276.588146 
L 840.934724 259.565966 
L 841.48137 228.104554 
L 842.465332 154.939491 
L 843.558624 78.006953 
L 844.10527 52.328638 
L 844.542586 41.018849 
L 844.761245 38.779482 
L 844.870574 38.53957 
L 844.979903 38.88863 
L 845.198561 41.344215 
L 845.526549 49.312853 
L 845.963866 67.351507 
L 846.61984 107.298177 
L 848.915753 265.450734 
L 849.353069 280.007287 
L 849.681057 285.094393 
L 849.790386 285.625669 
L 849.899715 285.568189 
L 850.118374 283.690856 
L 850.446361 276.556786 
L 850.883678 259.51476 
L 851.430324 228.034152 
L 852.414286 154.856374 
L 853.507578 77.945971 
L 854.054223 52.290439 
L 854.49154 41.002273 
L 854.710198 38.774297 
L 854.819528 38.540131 
L 854.928857 38.894935 
L 855.147515 41.361889 
L 855.475502 49.346883 
L 855.912819 67.40497 
L 856.568794 107.37281 
L 858.864706 265.496353 
L 859.302023 280.032183 
L 859.630011 285.102415 
L 859.73934 285.627955 
L 859.848669 285.564726 
L 860.067327 283.675974 
L 860.395315 276.525373 
L 860.832631 259.463511 
L 861.379277 227.96372 
L 862.25391 163.301939 
L 862.25391 163.301939 
" style="fill:none;stroke:#55a868;stroke-dasharray:11.2,2.8,1.75,2.8;stroke-dashoffset:0;stroke-width:1.75;"/>
   </g>
   <g id="patch_13">
    <path d="M 627.267279 297.9825 
L 627.267279 26.1825 
" style="fill:none;"/>
   </g>
   <g id="patch_14">
    <path d="M 873.44375 297.9825 
L 873.44375 26.1825 
" style="fill:none;"/>
   </g>
   <g id="patch_15">
    <path d="M 627.267279 297.9825 
L 873.44375 297.9825 
" style="fill:none;"/>
   </g>
   <g id="patch_16">
    <path d="M 627.267279 26.1825 
L 873.44375 26.1825 
" style="fill:none;"/>
   </g>
   <g id="text_41">
    <!-- $u''(t)$ -->
    <g style="fill:#262626;" transform="translate(729.925515 20.1825)scale(0.18 -0.18)">
     <use transform="translate(0 0.584375)" xlink:href="#DejaVuSans-Oblique-117"/>
     <use transform="translate(67.845052 38.865625)scale(0.7)" xlink:href="#Cmsy10-48"/>
     <use transform="translate(87.088216 38.865625)scale(0.7)" xlink:href="#Cmsy10-48"/>
     <use transform="translate(109.065755 0.584375)" xlink:href="#DejaVuSans-40"/>
     <use transform="translate(148.079427 0.584375)" xlink:href="#DejaVuSans-Oblique-116"/>
     <use transform="translate(187.288411 0.584375)" xlink:href="#DejaVuSans-41"/>
    </g>
   </g>
  </g>
 </g>
 <defs>
  <clipPath id="pd5a596e03c">
   <rect height="271.8" width="246.176471" x="36.44375" y="26.1825"/>
  </clipPath>
  <clipPath id="p3c564d2c82">
   <rect height="271.8" width="246.176471" x="331.855515" y="26.1825"/>
  </clipPath>
  <clipPath id="p23506f0124">
   <rect height="271.8" width="246.176471" x="627.267279" y="26.1825"/>
  </clipPath>
 </defs>
</svg>
