<?xml version="1.0" encoding="utf-8" standalone="no"?>
<!DOCTYPE svg PUBLIC "-//W3C//DTD SVG 1.1//EN"
  "http://www.w3.org/Graphics/SVG/1.1/DTD/svg11.dtd">
<!-- Created with matplotlib (https://matplotlib.org/) -->
<svg height="302.345312pt" version="1.1" viewBox="0 0 375.940625 302.345312" width="375.940625pt" xmlns="http://www.w3.org/2000/svg" xmlns:xlink="http://www.w3.org/1999/xlink">
 <defs>
  <style type="text/css">
*{stroke-linecap:butt;stroke-linejoin:round;}
  </style>
 </defs>
 <g id="figure_1">
  <g id="patch_1">
   <path d="M 0 302.345312 
L 375.940625 302.345312 
L 375.940625 0 
L 0 0 
z
" style="fill:#dcdcdc;"/>
  </g>
  <g id="axes_1">
   <g id="patch_2">
    <path d="M 33.940625 279 
L 368.740625 279 
L 368.740625 7.2 
L 33.940625 7.2 
z
" style="fill:#dcdcdc;"/>
   </g>
   <g id="matplotlib.axis_1">
    <g id="xtick_1">
     <g id="line2d_1">
      <path clip-path="url(#p1770b91f3e)" d="M 79.59517 279 
L 79.59517 7.2 
" style="fill:none;stroke:#ffffff;stroke-linecap:round;"/>
     </g>
     <g id="line2d_2"/>
     <g id="text_1">
      <!-- −4 -->
      <defs>
       <path d="M 52.828125 31.203125 
L 5.5625 31.203125 
L 5.5625 39.40625 
L 52.828125 39.40625 
z
" id="ArialMT-8722"/>
       <path d="M 32.328125 0 
L 32.328125 17.140625 
L 1.265625 17.140625 
L 1.265625 25.203125 
L 33.9375 71.578125 
L 41.109375 71.578125 
L 41.109375 25.203125 
L 50.78125 25.203125 
L 50.78125 17.140625 
L 41.109375 17.140625 
L 41.109375 0 
z
M 32.328125 25.203125 
L 32.328125 57.46875 
L 9.90625 25.203125 
z
" id="ArialMT-52"/>
      </defs>
      <g style="fill:#262626;" transform="translate(73.894389 293.157812)scale(0.1 -0.1)">
       <use xlink:href="#ArialMT-8722"/>
       <use x="58.398438" xlink:href="#ArialMT-52"/>
      </g>
     </g>
    </g>
    <g id="xtick_2">
     <g id="line2d_3">
      <path clip-path="url(#p1770b91f3e)" d="M 140.467898 279 
L 140.467898 7.2 
" style="fill:none;stroke:#ffffff;stroke-linecap:round;"/>
     </g>
     <g id="line2d_4"/>
     <g id="text_2">
      <!-- −2 -->
      <defs>
       <path d="M 50.34375 8.453125 
L 50.34375 0 
L 3.03125 0 
Q 2.9375 3.171875 4.046875 6.109375 
Q 5.859375 10.9375 9.828125 15.625 
Q 13.8125 20.3125 21.34375 26.46875 
Q 33.015625 36.03125 37.109375 41.625 
Q 41.21875 47.21875 41.21875 52.203125 
Q 41.21875 57.421875 37.46875 61 
Q 33.734375 64.59375 27.734375 64.59375 
Q 21.390625 64.59375 17.578125 60.78125 
Q 13.765625 56.984375 13.71875 50.25 
L 4.6875 51.171875 
Q 5.609375 61.28125 11.65625 66.578125 
Q 17.71875 71.875 27.9375 71.875 
Q 38.234375 71.875 44.234375 66.15625 
Q 50.25 60.453125 50.25 52 
Q 50.25 47.703125 48.484375 43.546875 
Q 46.734375 39.40625 42.65625 34.8125 
Q 38.578125 30.21875 29.109375 22.21875 
Q 21.1875 15.578125 18.9375 13.203125 
Q 16.703125 10.84375 15.234375 8.453125 
z
" id="ArialMT-50"/>
      </defs>
      <g style="fill:#262626;" transform="translate(134.767116 293.157812)scale(0.1 -0.1)">
       <use xlink:href="#ArialMT-8722"/>
       <use x="58.398438" xlink:href="#ArialMT-50"/>
      </g>
     </g>
    </g>
    <g id="xtick_3">
     <g id="line2d_5">
      <path clip-path="url(#p1770b91f3e)" d="M 201.340625 279 
L 201.340625 7.2 
" style="fill:none;stroke:#ffffff;stroke-linecap:round;"/>
     </g>
     <g id="line2d_6"/>
     <g id="text_3">
      <!-- 0 -->
      <defs>
       <path d="M 4.15625 35.296875 
Q 4.15625 48 6.765625 55.734375 
Q 9.375 63.484375 14.515625 67.671875 
Q 19.671875 71.875 27.484375 71.875 
Q 33.25 71.875 37.59375 69.546875 
Q 41.9375 67.234375 44.765625 62.859375 
Q 47.609375 58.5 49.21875 52.21875 
Q 50.828125 45.953125 50.828125 35.296875 
Q 50.828125 22.703125 48.234375 14.96875 
Q 45.65625 7.234375 40.5 3 
Q 35.359375 -1.21875 27.484375 -1.21875 
Q 17.140625 -1.21875 11.234375 6.203125 
Q 4.15625 15.140625 4.15625 35.296875 
z
M 13.1875 35.296875 
Q 13.1875 17.671875 17.3125 11.828125 
Q 21.4375 6 27.484375 6 
Q 33.546875 6 37.671875 11.859375 
Q 41.796875 17.71875 41.796875 35.296875 
Q 41.796875 52.984375 37.671875 58.78125 
Q 33.546875 64.59375 27.390625 64.59375 
Q 21.34375 64.59375 17.71875 59.46875 
Q 13.1875 52.9375 13.1875 35.296875 
z
" id="ArialMT-48"/>
      </defs>
      <g style="fill:#262626;" transform="translate(198.560156 293.157812)scale(0.1 -0.1)">
       <use xlink:href="#ArialMT-48"/>
      </g>
     </g>
    </g>
    <g id="xtick_4">
     <g id="line2d_7">
      <path clip-path="url(#p1770b91f3e)" d="M 262.213352 279 
L 262.213352 7.2 
" style="fill:none;stroke:#ffffff;stroke-linecap:round;"/>
     </g>
     <g id="line2d_8"/>
     <g id="text_4">
      <!-- 2 -->
      <g style="fill:#262626;" transform="translate(259.432884 293.157812)scale(0.1 -0.1)">
       <use xlink:href="#ArialMT-50"/>
      </g>
     </g>
    </g>
    <g id="xtick_5">
     <g id="line2d_9">
      <path clip-path="url(#p1770b91f3e)" d="M 323.08608 279 
L 323.08608 7.2 
" style="fill:none;stroke:#ffffff;stroke-linecap:round;"/>
     </g>
     <g id="line2d_10"/>
     <g id="text_5">
      <!-- 4 -->
      <g style="fill:#262626;" transform="translate(320.305611 293.157812)scale(0.1 -0.1)">
       <use xlink:href="#ArialMT-52"/>
      </g>
     </g>
    </g>
   </g>
   <g id="matplotlib.axis_2">
    <g id="ytick_1">
     <g id="line2d_11">
      <path clip-path="url(#p1770b91f3e)" d="M 33.940625 264.390857 
L 368.740625 264.390857 
" style="fill:none;stroke:#ffffff;stroke-linecap:round;"/>
     </g>
     <g id="line2d_12"/>
     <g id="text_6">
      <!-- −1.5 -->
      <defs>
       <path d="M 37.25 0 
L 28.46875 0 
L 28.46875 56 
Q 25.296875 52.984375 20.140625 49.953125 
Q 14.984375 46.921875 10.890625 45.40625 
L 10.890625 53.90625 
Q 18.265625 57.375 23.78125 62.296875 
Q 29.296875 67.234375 31.59375 71.875 
L 37.25 71.875 
z
" id="ArialMT-49"/>
       <path d="M 9.078125 0 
L 9.078125 10.015625 
L 19.09375 10.015625 
L 19.09375 0 
z
" id="ArialMT-46"/>
       <path d="M 4.15625 18.75 
L 13.375 19.53125 
Q 14.40625 12.796875 18.140625 9.390625 
Q 21.875 6 27.15625 6 
Q 33.5 6 37.890625 10.78125 
Q 42.28125 15.578125 42.28125 23.484375 
Q 42.28125 31 38.0625 35.34375 
Q 33.84375 39.703125 27 39.703125 
Q 22.75 39.703125 19.328125 37.765625 
Q 15.921875 35.84375 13.96875 32.765625 
L 5.71875 33.84375 
L 12.640625 70.609375 
L 48.25 70.609375 
L 48.25 62.203125 
L 19.671875 62.203125 
L 15.828125 42.96875 
Q 22.265625 47.46875 29.34375 47.46875 
Q 38.71875 47.46875 45.15625 40.96875 
Q 51.609375 34.46875 51.609375 24.265625 
Q 51.609375 14.546875 45.953125 7.46875 
Q 39.0625 -1.21875 27.15625 -1.21875 
Q 17.390625 -1.21875 11.203125 4.25 
Q 5.03125 9.71875 4.15625 18.75 
z
" id="ArialMT-53"/>
      </defs>
      <g style="fill:#262626;" transform="translate(7.2 267.969763)scale(0.1 -0.1)">
       <use xlink:href="#ArialMT-8722"/>
       <use x="58.398438" xlink:href="#ArialMT-49"/>
       <use x="114.013672" xlink:href="#ArialMT-46"/>
       <use x="141.796875" xlink:href="#ArialMT-53"/>
      </g>
     </g>
    </g>
    <g id="ytick_2">
     <g id="line2d_13">
      <path clip-path="url(#p1770b91f3e)" d="M 33.940625 223.960571 
L 368.740625 223.960571 
" style="fill:none;stroke:#ffffff;stroke-linecap:round;"/>
     </g>
     <g id="line2d_14"/>
     <g id="text_7">
      <!-- −1.0 -->
      <g style="fill:#262626;" transform="translate(7.2 227.539478)scale(0.1 -0.1)">
       <use xlink:href="#ArialMT-8722"/>
       <use x="58.398438" xlink:href="#ArialMT-49"/>
       <use x="114.013672" xlink:href="#ArialMT-46"/>
       <use x="141.796875" xlink:href="#ArialMT-48"/>
      </g>
     </g>
    </g>
    <g id="ytick_3">
     <g id="line2d_15">
      <path clip-path="url(#p1770b91f3e)" d="M 33.940625 183.530286 
L 368.740625 183.530286 
" style="fill:none;stroke:#ffffff;stroke-linecap:round;"/>
     </g>
     <g id="line2d_16"/>
     <g id="text_8">
      <!-- −0.5 -->
      <g style="fill:#262626;" transform="translate(7.2 187.109192)scale(0.1 -0.1)">
       <use xlink:href="#ArialMT-8722"/>
       <use x="58.398438" xlink:href="#ArialMT-48"/>
       <use x="114.013672" xlink:href="#ArialMT-46"/>
       <use x="141.796875" xlink:href="#ArialMT-53"/>
      </g>
     </g>
    </g>
    <g id="ytick_4">
     <g id="line2d_17">
      <path clip-path="url(#p1770b91f3e)" d="M 33.940625 143.1 
L 368.740625 143.1 
" style="fill:none;stroke:#ffffff;stroke-linecap:round;"/>
     </g>
     <g id="line2d_18"/>
     <g id="text_9">
      <!-- 0.0 -->
      <g style="fill:#262626;" transform="translate(13.040625 146.678906)scale(0.1 -0.1)">
       <use xlink:href="#ArialMT-48"/>
       <use x="55.615234" xlink:href="#ArialMT-46"/>
       <use x="83.398438" xlink:href="#ArialMT-48"/>
      </g>
     </g>
    </g>
    <g id="ytick_5">
     <g id="line2d_19">
      <path clip-path="url(#p1770b91f3e)" d="M 33.940625 102.669714 
L 368.740625 102.669714 
" style="fill:none;stroke:#ffffff;stroke-linecap:round;"/>
     </g>
     <g id="line2d_20"/>
     <g id="text_10">
      <!-- 0.5 -->
      <g style="fill:#262626;" transform="translate(13.040625 106.248621)scale(0.1 -0.1)">
       <use xlink:href="#ArialMT-48"/>
       <use x="55.615234" xlink:href="#ArialMT-46"/>
       <use x="83.398438" xlink:href="#ArialMT-53"/>
      </g>
     </g>
    </g>
    <g id="ytick_6">
     <g id="line2d_21">
      <path clip-path="url(#p1770b91f3e)" d="M 33.940625 62.239429 
L 368.740625 62.239429 
" style="fill:none;stroke:#ffffff;stroke-linecap:round;"/>
     </g>
     <g id="line2d_22"/>
     <g id="text_11">
      <!-- 1.0 -->
      <g style="fill:#262626;" transform="translate(13.040625 65.818335)scale(0.1 -0.1)">
       <use xlink:href="#ArialMT-49"/>
       <use x="55.615234" xlink:href="#ArialMT-46"/>
       <use x="83.398438" xlink:href="#ArialMT-48"/>
      </g>
     </g>
    </g>
    <g id="ytick_7">
     <g id="line2d_23">
      <path clip-path="url(#p1770b91f3e)" d="M 33.940625 21.809143 
L 368.740625 21.809143 
" style="fill:none;stroke:#ffffff;stroke-linecap:round;"/>
     </g>
     <g id="line2d_24"/>
     <g id="text_12">
      <!-- 1.5 -->
      <g style="fill:#262626;" transform="translate(13.040625 25.388049)scale(0.1 -0.1)">
       <use xlink:href="#ArialMT-49"/>
       <use x="55.615234" xlink:href="#ArialMT-46"/>
       <use x="83.398438" xlink:href="#ArialMT-53"/>
      </g>
     </g>
    </g>
   </g>
   <g id="line2d_25">
    <path clip-path="url(#p1770b91f3e)" d="M 49.158807 143.1 
L 151.806935 143.027367 
L 154.194101 142.84454 
L 156.581267 142.347415 
L 157.77485 141.884649 
L 158.968432 141.210161 
L 160.162015 140.264609 
L 161.355598 138.987287 
L 162.549181 137.321574 
L 163.742764 135.221022 
L 164.936347 132.655248 
L 166.12993 129.614765 
L 167.323513 126.114021 
L 169.710678 117.911368 
L 172.097844 108.612369 
L 175.678593 94.317319 
L 178.065759 85.65865 
L 180.452924 78.325562 
L 181.646507 75.241198 
L 182.84009 72.557468 
L 184.033673 70.266253 
L 185.227256 68.348354 
L 186.420839 66.77611 
L 187.614422 65.515974 
L 188.808005 64.530855 
L 190.001588 63.782174 
L 191.19517 63.23157 
L 192.388753 62.842262 
L 194.775919 62.414235 
L 197.163085 62.268121 
L 204.324582 62.246899 
L 207.905331 62.414235 
L 210.292497 62.842262 
L 211.48608 63.23157 
L 212.679662 63.782174 
L 213.873245 64.530855 
L 215.066828 65.515974 
L 216.260411 66.77611 
L 217.453994 68.348354 
L 218.647577 70.266253 
L 219.84116 72.557468 
L 221.034743 75.241198 
L 222.228326 78.325562 
L 223.421908 81.805095 
L 225.809074 89.847982 
L 228.19624 98.994198 
L 232.970572 117.911368 
L 235.357737 126.114021 
L 236.55132 129.614765 
L 237.744903 132.655248 
L 238.938486 135.221022 
L 240.132069 137.321574 
L 241.325652 138.987287 
L 242.519235 140.264609 
L 243.712818 141.210161 
L 244.9064 141.884649 
L 246.099983 142.347415 
L 248.487149 142.84454 
L 250.874315 143.027367 
L 255.648646 143.096797 
L 326.070037 143.1 
L 353.522443 143.1 
L 353.522443 143.1 
" style="fill:none;stroke:#4c72b0;stroke-linecap:round;stroke-width:1.75;"/>
   </g>
   <g id="line2d_26">
    <path clip-path="url(#p1770b91f3e)" d="M 49.158807 143.1 
L 147.032604 143.027219 
L 149.419769 142.762785 
L 150.613352 142.432724 
L 151.806935 141.847676 
L 153.000518 140.865699 
L 154.194101 139.302015 
L 155.387684 136.935519 
L 156.581267 133.5261 
L 157.77485 128.843278 
L 158.968432 122.703792 
L 160.162015 115.012722 
L 161.355598 105.800561 
L 162.549181 95.248107 
L 168.517096 38.20695 
L 169.710678 30.021082 
L 170.904261 24.112233 
L 172.097844 20.750821 
L 173.291427 20.037145 
L 174.48501 21.90555 
L 175.678593 26.144543 
L 176.872176 32.428166 
L 178.065759 40.35329 
L 180.452924 59.355316 
L 184.033673 89.535617 
L 186.420839 107.139147 
L 187.614422 114.635387 
L 188.808005 121.158851 
L 190.001588 126.694817 
L 191.19517 131.26764 
L 192.388753 134.932105 
L 193.582336 137.765634 
L 194.775919 139.861645 
L 195.969502 141.324206 
L 197.163085 142.263962 
L 198.356668 142.795241 
L 199.550251 143.034167 
L 203.130999 143.165833 
L 204.324582 143.404759 
L 205.518165 143.936038 
L 206.711748 144.875794 
L 207.905331 146.338355 
L 209.098914 148.434366 
L 210.292497 151.267895 
L 211.48608 154.93236 
L 212.679662 159.505183 
L 213.873245 165.041149 
L 215.066828 171.564613 
L 216.260411 179.060853 
L 217.453994 187.467148 
L 219.84116 206.470275 
L 223.421908 236.722236 
L 224.615491 245.84671 
L 225.809074 253.771834 
L 227.002657 260.055457 
L 228.19624 264.29445 
L 229.389823 266.162855 
L 230.583406 265.449179 
L 231.776989 262.087767 
L 232.970572 256.178918 
L 234.164154 247.99305 
L 235.357737 237.955955 
L 237.744903 214.588649 
L 240.132069 190.951893 
L 241.325652 180.399439 
L 242.519235 171.187278 
L 243.712818 163.496208 
L 244.9064 157.356722 
L 246.099983 152.6739 
L 247.293566 149.264481 
L 248.487149 146.897985 
L 249.680732 145.334301 
L 250.874315 144.352324 
L 252.067898 143.767276 
L 253.261481 143.437215 
L 255.648646 143.172781 
L 260.422978 143.101612 
L 353.522443 143.1 
L 353.522443 143.1 
" style="fill:none;stroke:#55a868;stroke-linecap:round;stroke-width:1.75;"/>
   </g>
   <g id="line2d_27">
    <path clip-path="url(#p1770b91f3e)" d="M 49.158807 143.1 
L 147.032604 143.026934 
L 149.419769 142.761462 
L 150.613352 142.430107 
L 151.806935 141.842765 
L 153.000518 140.856937 
L 154.194101 139.287121 
L 155.387684 136.911345 
L 156.581267 133.488555 
L 157.77485 128.787369 
L 158.968432 122.623807 
L 160.162015 114.902576 
L 161.355598 105.654288 
L 162.549181 95.060452 
L 168.517096 37.795605 
L 169.710678 29.577635 
L 170.904261 23.645614 
L 172.097844 20.27102 
L 173.291427 19.554545 
L 174.48501 21.430278 
L 175.678593 25.685894 
L 176.872176 31.994159 
L 178.065759 39.950362 
L 180.452924 59.026906 
L 184.033673 89.325561 
L 186.420839 106.998124 
L 187.614422 114.523761 
L 188.808005 121.072807 
L 190.001588 126.630483 
L 191.19517 131.221239 
L 192.388753 134.900074 
L 193.582336 137.744715 
L 194.775919 139.848946 
L 195.969502 141.317242 
L 197.163085 142.260683 
L 198.356668 142.794046 
L 199.550251 143.033909 
L 203.130999 143.166091 
L 204.324582 143.405954 
L 205.518165 143.939317 
L 206.711748 144.882758 
L 207.905331 146.351054 
L 209.098914 148.455285 
L 210.292497 151.299926 
L 211.48608 154.978761 
L 212.679662 159.569517 
L 213.873245 165.127193 
L 215.066828 171.676239 
L 216.260411 179.201876 
L 217.453994 187.641137 
L 219.84116 206.718786 
L 223.421908 237.089382 
L 224.615491 246.249638 
L 225.809074 254.205841 
L 227.002657 260.514106 
L 228.19624 264.769722 
L 229.389823 266.645455 
L 230.583406 265.92898 
L 231.776989 262.554386 
L 232.970572 256.622365 
L 234.164154 248.404395 
L 235.357737 238.327939 
L 237.744903 214.868997 
L 240.132069 191.139548 
L 241.325652 180.545712 
L 242.519235 171.297424 
L 243.712818 163.576193 
L 244.9064 157.412631 
L 246.099983 152.711445 
L 247.293566 149.288655 
L 248.487149 146.912879 
L 249.680732 145.343063 
L 250.874315 144.357235 
L 252.067898 143.769893 
L 253.261481 143.438538 
L 255.648646 143.173066 
L 260.422978 143.101618 
L 353.522443 143.1 
L 353.522443 143.1 
" style="fill:none;stroke:#c44e52;stroke-dasharray:6.475,2.8;stroke-dashoffset:0;stroke-width:1.75;"/>
   </g>
   <g id="patch_3">
    <path d="M 33.940625 279 
L 33.940625 7.2 
" style="fill:none;"/>
   </g>
   <g id="patch_4">
    <path d="M 368.740625 279 
L 368.740625 7.2 
" style="fill:none;"/>
   </g>
   <g id="patch_5">
    <path d="M 33.940625 279 
L 368.740625 279 
" style="fill:none;"/>
   </g>
   <g id="patch_6">
    <path d="M 33.940625 7.2 
L 368.740625 7.2 
" style="fill:none;"/>
   </g>
   <g id="legend_1">
    <g id="line2d_28">
     <path d="M 281.740625 19.857812 
L 301.740625 19.857812 
" style="fill:none;stroke:#4c72b0;stroke-linecap:round;stroke-width:1.75;"/>
    </g>
    <g id="line2d_29"/>
    <g id="text_13">
     <!-- $f(x)$ -->
     <defs>
      <path d="M 47.796875 75.984375 
L 46.390625 68.5 
L 37.796875 68.5 
Q 32.90625 68.5 30.6875 66.578125 
Q 28.46875 64.65625 27.390625 59.515625 
L 26.421875 54.6875 
L 41.21875 54.6875 
L 39.890625 47.703125 
L 25.09375 47.703125 
L 15.828125 0 
L 6.78125 0 
L 16.109375 47.703125 
L 7.515625 47.703125 
L 8.796875 54.6875 
L 17.390625 54.6875 
L 18.109375 58.5 
Q 19.96875 68.171875 24.625 72.078125 
Q 29.296875 75.984375 39.3125 75.984375 
z
" id="DejaVuSans-Oblique-102"/>
      <path d="M 31 75.875 
Q 24.46875 64.65625 21.28125 53.65625 
Q 18.109375 42.671875 18.109375 31.390625 
Q 18.109375 20.125 21.3125 9.0625 
Q 24.515625 -2 31 -13.1875 
L 23.1875 -13.1875 
Q 15.875 -1.703125 12.234375 9.375 
Q 8.59375 20.453125 8.59375 31.390625 
Q 8.59375 42.28125 12.203125 53.3125 
Q 15.828125 64.359375 23.1875 75.875 
z
" id="DejaVuSans-40"/>
      <path d="M 60.015625 54.6875 
L 34.90625 27.875 
L 50.296875 0 
L 39.984375 0 
L 28.421875 21.6875 
L 8.296875 0 
L -2.59375 0 
L 24.3125 28.8125 
L 10.015625 54.6875 
L 20.3125 54.6875 
L 30.8125 34.90625 
L 49.125 54.6875 
z
" id="DejaVuSans-Oblique-120"/>
      <path d="M 8.015625 75.875 
L 15.828125 75.875 
Q 23.140625 64.359375 26.78125 53.3125 
Q 30.421875 42.28125 30.421875 31.390625 
Q 30.421875 20.453125 26.78125 9.375 
Q 23.140625 -1.703125 15.828125 -13.1875 
L 8.015625 -13.1875 
Q 14.5 -2 17.703125 9.0625 
Q 20.90625 20.125 20.90625 31.390625 
Q 20.90625 42.671875 17.703125 53.65625 
Q 14.5 64.65625 8.015625 75.875 
z
" id="DejaVuSans-41"/>
     </defs>
     <g style="fill:#262626;" transform="translate(309.740625 23.357812)scale(0.1 -0.1)">
      <use transform="translate(0 0.015625)" xlink:href="#DejaVuSans-Oblique-102"/>
      <use transform="translate(35.205078 0.015625)" xlink:href="#DejaVuSans-40"/>
      <use transform="translate(74.21875 0.015625)" xlink:href="#DejaVuSans-Oblique-120"/>
      <use transform="translate(133.398438 0.015625)" xlink:href="#DejaVuSans-41"/>
     </g>
    </g>
    <g id="line2d_30">
     <path d="M 281.740625 35.357812 
L 301.740625 35.357812 
" style="fill:none;stroke:#55a868;stroke-linecap:round;stroke-width:1.75;"/>
    </g>
    <g id="line2d_31"/>
    <g id="text_14">
     <!-- $D^2f(x)$ -->
     <defs>
      <path d="M 16.890625 72.90625 
L 38.09375 72.90625 
Q 54.984375 72.90625 63.59375 65.75 
Q 72.21875 58.59375 72.21875 44.484375 
Q 72.21875 35.15625 68.9375 26.53125 
Q 65.671875 17.921875 59.90625 12.015625 
Q 54.109375 5.953125 45.171875 2.96875 
Q 36.234375 0 24.03125 0 
L 2.6875 0 
z
M 25.203125 64.796875 
L 14.203125 8.109375 
L 27.09375 8.109375 
Q 43.65625 8.109375 52.734375 17.625 
Q 61.8125 27.15625 61.8125 44.484375 
Q 61.8125 54.984375 55.953125 59.890625 
Q 50.09375 64.796875 37.59375 64.796875 
z
" id="DejaVuSans-Oblique-68"/>
      <path d="M 19.1875 8.296875 
L 53.609375 8.296875 
L 53.609375 0 
L 7.328125 0 
L 7.328125 8.296875 
Q 12.9375 14.109375 22.625 23.890625 
Q 32.328125 33.6875 34.8125 36.53125 
Q 39.546875 41.84375 41.421875 45.53125 
Q 43.3125 49.21875 43.3125 52.78125 
Q 43.3125 58.59375 39.234375 62.25 
Q 35.15625 65.921875 28.609375 65.921875 
Q 23.96875 65.921875 18.8125 64.3125 
Q 13.671875 62.703125 7.8125 59.421875 
L 7.8125 69.390625 
Q 13.765625 71.78125 18.9375 73 
Q 24.125 74.21875 28.421875 74.21875 
Q 39.75 74.21875 46.484375 68.546875 
Q 53.21875 62.890625 53.21875 53.421875 
Q 53.21875 48.921875 51.53125 44.890625 
Q 49.859375 40.875 45.40625 35.40625 
Q 44.1875 33.984375 37.640625 27.21875 
Q 31.109375 20.453125 19.1875 8.296875 
z
" id="DejaVuSans-50"/>
     </defs>
     <g style="fill:#262626;" transform="translate(309.740625 38.857812)scale(0.1 -0.1)">
      <use transform="translate(0 0.765625)" xlink:href="#DejaVuSans-Oblique-68"/>
      <use transform="translate(84.018724 39.046875)scale(0.7)" xlink:href="#DejaVuSans-50"/>
      <use transform="translate(131.289232 0.765625)" xlink:href="#DejaVuSans-Oblique-102"/>
      <use transform="translate(166.49431 0.765625)" xlink:href="#DejaVuSans-40"/>
      <use transform="translate(205.507982 0.765625)" xlink:href="#DejaVuSans-Oblique-120"/>
      <use transform="translate(264.687669 0.765625)" xlink:href="#DejaVuSans-41"/>
     </g>
    </g>
    <g id="line2d_32">
     <path d="M 281.740625 51.445312 
L 301.740625 51.445312 
" style="fill:none;stroke:#c44e52;stroke-dasharray:6.475,2.8;stroke-dashoffset:0;stroke-width:1.75;"/>
    </g>
    <g id="line2d_33"/>
    <g id="text_15">
     <!-- $D^2_{Fourier}f(x)$ -->
     <defs>
      <path d="M 16.890625 72.90625 
L 58.6875 72.90625 
L 57.078125 64.59375 
L 25.09375 64.59375 
L 20.90625 43.109375 
L 49.8125 43.109375 
L 48.1875 34.8125 
L 19.28125 34.8125 
L 12.5 0 
L 2.6875 0 
z
" id="DejaVuSans-Oblique-70"/>
      <path d="M 25.390625 -1.421875 
Q 15.765625 -1.421875 10.171875 4.515625 
Q 4.59375 10.453125 4.59375 20.703125 
Q 4.59375 26.65625 6.515625 32.828125 
Q 8.453125 39.015625 11.53125 43.21875 
Q 16.359375 49.75 22.3125 52.875 
Q 28.265625 56 35.796875 56 
Q 45.125 56 50.859375 50.1875 
Q 56.59375 44.390625 56.59375 35.015625 
Q 56.59375 28.515625 54.6875 22.0625 
Q 52.78125 15.625 49.703125 11.375 
Q 44.921875 4.828125 38.96875 1.703125 
Q 33.015625 -1.421875 25.390625 -1.421875 
z
M 13.921875 21 
Q 13.921875 13.578125 17.015625 9.890625 
Q 20.125 6.203125 26.421875 6.203125 
Q 35.453125 6.203125 41.375 14.078125 
Q 47.3125 21.96875 47.3125 34.078125 
Q 47.3125 41.15625 44.140625 44.765625 
Q 40.96875 48.390625 34.8125 48.390625 
Q 29.734375 48.390625 25.78125 46.015625 
Q 21.828125 43.65625 18.703125 38.8125 
Q 16.40625 35.203125 15.15625 30.5625 
Q 13.921875 25.921875 13.921875 21 
z
" id="DejaVuSans-Oblique-111"/>
      <path d="M 6.6875 21.6875 
L 13.09375 54.6875 
L 22.125 54.6875 
L 15.71875 22.015625 
Q 15.234375 19.625 15.015625 17.921875 
Q 14.796875 16.21875 14.796875 15.09375 
Q 14.796875 10.9375 17.328125 8.65625 
Q 19.875 6.390625 24.515625 6.390625 
Q 31.734375 6.390625 37 11.265625 
Q 42.28125 16.15625 43.890625 24.421875 
L 49.90625 54.6875 
L 58.890625 54.6875 
L 48.296875 0 
L 39.3125 0 
L 41.109375 8.59375 
Q 37.3125 3.8125 32.0625 1.1875 
Q 26.8125 -1.421875 20.90625 -1.421875 
Q 13.71875 -1.421875 9.71875 2.515625 
Q 5.71875 6.453125 5.71875 13.484375 
Q 5.71875 14.9375 5.953125 17.140625 
Q 6.203125 19.34375 6.6875 21.6875 
z
" id="DejaVuSans-Oblique-117"/>
      <path d="M 44.578125 46.390625 
Q 43.21875 47.125 41.453125 47.515625 
Q 39.703125 47.90625 37.703125 47.90625 
Q 30.515625 47.90625 25.140625 42.453125 
Q 19.78125 37.015625 18.015625 27.875 
L 12.5 0 
L 3.515625 0 
L 14.203125 54.6875 
L 23.1875 54.6875 
L 21.484375 46.1875 
Q 25.046875 50.921875 30 53.453125 
Q 34.96875 56 40.578125 56 
Q 42.046875 56 43.453125 55.828125 
Q 44.875 55.671875 46.296875 55.28125 
z
" id="DejaVuSans-Oblique-114"/>
      <path d="M 18.3125 75.984375 
L 27.296875 75.984375 
L 25.09375 64.59375 
L 16.109375 64.59375 
z
M 14.203125 54.6875 
L 23.1875 54.6875 
L 12.5 0 
L 3.515625 0 
z
" id="DejaVuSans-Oblique-105"/>
      <path d="M 48.09375 32.234375 
Q 48.25 33.015625 48.3125 33.84375 
Q 48.390625 34.671875 48.390625 35.5 
Q 48.390625 41.453125 44.890625 44.921875 
Q 41.40625 48.390625 35.40625 48.390625 
Q 28.71875 48.390625 23.578125 44.15625 
Q 18.453125 39.9375 15.828125 32.171875 
z
M 55.90625 25.203125 
L 14.109375 25.203125 
Q 13.8125 23.34375 13.71875 22.265625 
Q 13.625 21.1875 13.625 20.40625 
Q 13.625 13.625 17.796875 9.90625 
Q 21.96875 6.203125 29.59375 6.203125 
Q 35.453125 6.203125 40.671875 7.515625 
Q 45.90625 8.84375 50.390625 11.375 
L 48.6875 2.484375 
Q 43.84375 0.53125 38.6875 -0.4375 
Q 33.546875 -1.421875 28.21875 -1.421875 
Q 16.84375 -1.421875 10.71875 4.015625 
Q 4.59375 9.46875 4.59375 19.484375 
Q 4.59375 28.03125 7.640625 35.375 
Q 10.6875 42.71875 16.609375 48.484375 
Q 20.40625 52.09375 25.65625 54.046875 
Q 30.90625 56 36.8125 56 
Q 46.09375 56 51.578125 50.4375 
Q 57.078125 44.875 57.078125 35.5 
Q 57.078125 33.25 56.78125 30.6875 
Q 56.5 28.125 55.90625 25.203125 
z
" id="DejaVuSans-Oblique-101"/>
     </defs>
     <g style="fill:#262626;" transform="translate(309.740625 54.945312)scale(0.1 -0.1)">
      <use transform="translate(0 0.701562)" xlink:href="#DejaVuSans-Oblique-68"/>
      <use transform="translate(84.018724 39.046875)scale(0.7)" xlink:href="#DejaVuSans-50"/>
      <use transform="translate(77.001953 -26.642188)scale(0.7)" xlink:href="#DejaVuSans-Oblique-70"/>
      <use transform="translate(117.265625 -26.642188)scale(0.7)" xlink:href="#DejaVuSans-Oblique-111"/>
      <use transform="translate(160.092773 -26.642188)scale(0.7)" xlink:href="#DejaVuSans-Oblique-117"/>
      <use transform="translate(204.458008 -26.642188)scale(0.7)" xlink:href="#DejaVuSans-Oblique-114"/>
      <use transform="translate(233.237305 -26.642188)scale(0.7)" xlink:href="#DejaVuSans-Oblique-105"/>
      <use transform="translate(252.685547 -26.642188)scale(0.7)" xlink:href="#DejaVuSans-Oblique-101"/>
      <use transform="translate(295.751953 -26.642188)scale(0.7)" xlink:href="#DejaVuSans-Oblique-114"/>
      <use transform="translate(327.265625 0.701562)" xlink:href="#DejaVuSans-Oblique-102"/>
      <use transform="translate(362.470703 0.701562)" xlink:href="#DejaVuSans-40"/>
      <use transform="translate(401.484375 0.701562)" xlink:href="#DejaVuSans-Oblique-120"/>
      <use transform="translate(460.664062 0.701562)" xlink:href="#DejaVuSans-41"/>
     </g>
    </g>
   </g>
  </g>
 </g>
 <defs>
  <clipPath id="p1770b91f3e">
   <rect height="271.8" width="334.8" x="33.940625" y="7.2"/>
  </clipPath>
 </defs>
</svg>
