<?xml version="1.0" encoding="utf-8" standalone="no"?>
<!DOCTYPE svg PUBLIC "-//W3C//DTD SVG 1.1//EN"
  "http://www.w3.org/Graphics/SVG/1.1/DTD/svg11.dtd">
<!-- Created with matplotlib (https://matplotlib.org/) -->
<svg height="216pt" version="1.1" viewBox="0 0 432 216" width="432pt" xmlns="http://www.w3.org/2000/svg" xmlns:xlink="http://www.w3.org/1999/xlink">
 <metadata>
  <rdf:RDF xmlns:cc="http://creativecommons.org/ns#" xmlns:dc="http://purl.org/dc/elements/1.1/" xmlns:rdf="http://www.w3.org/1999/02/22-rdf-syntax-ns#">
   <cc:Work>
    <dc:type rdf:resource="http://purl.org/dc/dcmitype/StillImage"/>
    <dc:date>2021-07-30T15:58:48.282850</dc:date>
    <dc:format>image/svg+xml</dc:format>
    <dc:creator>
     <cc:Agent>
      <dc:title>Matplotlib v3.3.4, https://matplotlib.org/</dc:title>
     </cc:Agent>
    </dc:creator>
   </cc:Work>
  </rdf:RDF>
 </metadata>
 <defs>
  <style type="text/css">*{stroke-linecap:butt;stroke-linejoin:round;}</style>
 </defs>
 <g id="figure_1">
  <g id="patch_1">
   <path d="M 0 216 
L 432 216 
L 432 0 
L 0 0 
z
" style="fill:none;"/>
  </g>
  <g id="axes_1">
   <g id="patch_2">
    <path d="M 59.613461 169.171983 
L 416.300266 169.171983 
L 416.300266 16.35041 
L 59.613461 16.35041 
z
" style="fill:none;opacity:0;"/>
   </g>
   <g id="matplotlib.axis_1">
    <g id="xtick_1">
     <g id="line2d_1">
      <path clip-path="url(#pe73d4c8bd5)" d="M 59.613461 169.171983 
L 59.613461 16.35041 
" style="fill:none;stroke:#ffffff;stroke-linecap:round;"/>
     </g>
     <g id="text_1">
      <!-- $\mathdefault{0}$ -->
      <g style="fill:#262626;" transform="translate(56.873727 186.28233)scale(0.11 -0.11)">
       <defs>
        <path d="M 42 31.84375 
C 42 37.96875 41.90625 48.421875 37.703125 56.453125 
C 34 63.484375 28.09375 66 22.90625 66 
C 18.09375 66 12 63.78125 8.203125 56.5625 
C 4.203125 49.015625 3.796875 39.671875 3.796875 31.84375 
C 3.796875 26.109375 3.90625 17.375 7 9.734375 
C 11.296875 -0.609375 19 -2 22.90625 -2 
C 27.5 -2 34.5 -0.109375 38.59375 9.4375 
C 41.59375 16.375 42 24.5 42 31.84375 
z
M 22.90625 -0.40625 
C 16.5 -0.40625 12.703125 5.125 11.296875 12.75 
C 10.203125 18.6875 10.203125 27.328125 10.203125 32.953125 
C 10.203125 40.6875 10.203125 47.109375 11.5 53.234375 
C 13.40625 61.78125 19 64.390625 22.90625 64.390625 
C 27 64.390625 32.296875 61.671875 34.203125 53.4375 
C 35.5 47.71875 35.59375 40.984375 35.59375 32.953125 
C 35.59375 26.421875 35.59375 18.375 34.40625 12.453125 
C 32.296875 1.5 26.40625 -0.40625 22.90625 -0.40625 
z
" id="CMR17-48"/>
       </defs>
       <use transform="scale(0.996264)" xlink:href="#CMR17-48"/>
      </g>
     </g>
    </g>
    <g id="xtick_2">
     <g id="line2d_2">
      <path clip-path="url(#pe73d4c8bd5)" d="M 130.950822 169.171983 
L 130.950822 16.35041 
" style="fill:none;stroke:#ffffff;stroke-linecap:round;"/>
     </g>
     <g id="text_2">
      <!-- $\mathdefault{1}$ -->
      <g style="fill:#262626;" transform="translate(128.211088 186.28233)scale(0.11 -0.11)">
       <defs>
        <path d="M 26.59375 63.796875 
C 26.59375 65.890625 26.5 66 25.09375 66 
C 21.203125 61.359375 15.296875 59.890625 9.703125 59.6875 
C 9.40625 59.6875 8.90625 59.6875 8.796875 59.5 
C 8.703125 59.296875 8.703125 59.09375 8.703125 57 
C 11.796875 57 17 57.59375 21 59.984375 
L 21 7.296875 
C 21 3.796875 20.796875 2.59375 12.203125 2.59375 
L 9.203125 2.59375 
L 9.203125 0 
C 14 0.09375 19 0.1875 23.796875 0.1875 
C 28.59375 0.1875 33.59375 0.09375 38.40625 0 
L 38.40625 2.59375 
L 35.40625 2.59375 
C 26.796875 2.59375 26.59375 3.6875 26.59375 7.296875 
z
" id="CMR17-49"/>
       </defs>
       <use transform="scale(0.996264)" xlink:href="#CMR17-49"/>
      </g>
     </g>
    </g>
    <g id="xtick_3">
     <g id="line2d_3">
      <path clip-path="url(#pe73d4c8bd5)" d="M 202.288183 169.171983 
L 202.288183 16.35041 
" style="fill:none;stroke:#ffffff;stroke-linecap:round;"/>
     </g>
     <g id="text_3">
      <!-- $\mathdefault{2}$ -->
      <g style="fill:#262626;" transform="translate(199.548449 186.28233)scale(0.11 -0.11)">
       <defs>
        <path d="M 41.703125 15.46875 
L 39.90625 15.46875 
C 38.90625 8.390625 38.09375 7.1875 37.703125 6.59375 
C 37.203125 5.796875 30 5.796875 28.59375 5.796875 
L 9.40625 5.796875 
C 13 9.6875 20 16.765625 28.5 24.9375 
C 34.59375 30.71875 41.703125 37.5 41.703125 47.390625 
C 41.703125 59.1875 32.296875 66 21.796875 66 
C 10.796875 66 4.09375 56.296875 4.09375 47.296875 
C 4.09375 43.390625 7 42.890625 8.203125 42.890625 
C 9.203125 42.890625 12.203125 43.484375 12.203125 46.984375 
C 12.203125 50.09375 9.59375 51 8.203125 51 
C 7.59375 51 7 50.890625 6.59375 50.6875 
C 8.5 59.1875 14.296875 63.390625 20.40625 63.390625 
C 29.09375 63.390625 34.796875 56.5 34.796875 47.390625 
C 34.796875 38.703125 29.703125 31.21875 24 24.734375 
L 4.09375 2.296875 
L 4.09375 0 
L 39.296875 0 
z
" id="CMR17-50"/>
       </defs>
       <use transform="scale(0.996264)" xlink:href="#CMR17-50"/>
      </g>
     </g>
    </g>
    <g id="xtick_4">
     <g id="line2d_4">
      <path clip-path="url(#pe73d4c8bd5)" d="M 273.625544 169.171983 
L 273.625544 16.35041 
" style="fill:none;stroke:#ffffff;stroke-linecap:round;"/>
     </g>
     <g id="text_4">
      <!-- $\mathdefault{3}$ -->
      <g style="fill:#262626;" transform="translate(270.885811 186.28233)scale(0.11 -0.11)">
       <defs>
        <path d="M 22.09375 34 
C 31 34 34.90625 26.140625 34.90625 17.09375 
C 34.90625 5.03125 28.5 0.390625 22.703125 0.390625 
C 17.40625 0.390625 8.796875 3.015625 6.09375 10.796875 
C 6.59375 10.59375 7.09375 10.59375 7.59375 10.59375 
C 10 10.59375 11.796875 12.1875 11.796875 14.796875 
C 11.796875 17.6875 9.59375 19 7.59375 19 
C 5.90625 19 3.296875 18.1875 3.296875 14.484375 
C 3.296875 5.234375 12.296875 -2 22.90625 -2 
C 34 -2 42.5 6.75 42.5 16.984375 
C 42.5 26.84375 34.5 34 25 35.09375 
C 32.59375 36.671875 39.90625 43.375 39.90625 52.390625 
C 39.90625 60.25 32 66 23 66 
C 13.90625 66 5.90625 60.34375 5.90625 52.296875 
C 5.90625 48.796875 8.5 48.1875 9.796875 48.1875 
C 11.90625 48.1875 13.703125 49.484375 13.703125 52.09375 
C 13.703125 54.6875 11.90625 56 9.796875 56 
C 9.40625 56 8.90625 56 8.5 55.796875 
C 11.40625 62.484375 19.296875 63.6875 22.796875 63.6875 
C 26.296875 63.6875 32.90625 61.96875 32.90625 52.296875 
C 32.90625 49.484375 32.5 44.546875 29.09375 40.21875 
C 26.09375 36.390625 22.703125 36.1875 19.40625 35.890625 
C 18.90625 35.890625 16.59375 35.6875 16.203125 35.6875 
C 15.5 35.59375 15.09375 35.5 15.09375 34.796875 
C 15.09375 34.09375 15.203125 34 17.203125 34 
z
" id="CMR17-51"/>
       </defs>
       <use transform="scale(0.996264)" xlink:href="#CMR17-51"/>
      </g>
     </g>
    </g>
    <g id="xtick_5">
     <g id="line2d_5">
      <path clip-path="url(#pe73d4c8bd5)" d="M 344.962905 169.171983 
L 344.962905 16.35041 
" style="fill:none;stroke:#ffffff;stroke-linecap:round;"/>
     </g>
     <g id="text_5">
      <!-- $\mathdefault{4}$ -->
      <g style="fill:#262626;" transform="translate(342.223172 186.28233)scale(0.11 -0.11)">
       <defs>
        <path d="M 33.59375 64.796875 
C 33.59375 66.890625 33.5 67 31.703125 67 
L 2 19.59375 
L 2 17 
L 27.796875 17 
L 27.796875 7.1875 
C 27.796875 3.59375 27.59375 2.59375 20.59375 2.59375 
L 18.703125 2.59375 
L 18.703125 0 
C 21.90625 0.1875 27.296875 0.1875 30.703125 0.1875 
C 34.09375 0.1875 39.5 0.1875 42.703125 0 
L 42.703125 2.59375 
L 40.796875 2.59375 
C 33.796875 2.59375 33.59375 3.59375 33.59375 7.1875 
L 33.59375 17 
L 43.796875 17 
L 43.796875 19.59375 
L 33.59375 19.59375 
z
M 28.09375 58.171875 
L 28.09375 19.59375 
L 4 19.59375 
z
" id="CMR17-52"/>
       </defs>
       <use transform="scale(0.996264)" xlink:href="#CMR17-52"/>
      </g>
     </g>
    </g>
    <g id="xtick_6">
     <g id="line2d_6">
      <path clip-path="url(#pe73d4c8bd5)" d="M 416.300266 169.171983 
L 416.300266 16.35041 
" style="fill:none;stroke:#ffffff;stroke-linecap:round;"/>
     </g>
     <g id="text_6">
      <!-- $\mathdefault{5}$ -->
      <g style="fill:#262626;" transform="translate(413.560533 186.28233)scale(0.11 -0.11)">
       <defs>
        <path d="M 11.40625 58.59375 
C 12.40625 58.1875 16.5 56.890625 20.703125 56.890625 
C 30 56.890625 35.09375 61.890625 38 64.6875 
C 38 65.484375 38 66 37.40625 66 
C 37.296875 66 37.09375 66 36.296875 65.59375 
C 32.796875 64.09375 28.703125 63 23.703125 63 
C 20.703125 63 16.203125 63.359375 11.296875 65.484375 
C 10.203125 66 10 66 9.90625 66 
C 9.40625 66 9.296875 65.890625 9.296875 63.90625 
L 9.296875 34.859375 
C 9.296875 33.015625 9.296875 32.5 10.296875 32.5 
C 10.796875 32.5 11 32.703125 11.5 33.421875 
C 14.703125 38.046875 19.09375 40 24.09375 40 
C 27.59375 40 35.09375 37.734375 35.09375 20.203125 
C 35.09375 16.984375 35.09375 11.1875 32.09375 6.59375 
C 29.59375 2.484375 25.703125 0.390625 21.40625 0.390625 
C 14.796875 0.390625 8.09375 4.984375 6.296875 12.6875 
C 6.703125 12.59375 7.5 12.390625 7.90625 12.390625 
C 9.203125 12.390625 11.703125 13.09375 11.703125 16.1875 
C 11.703125 18.890625 9.796875 20 7.90625 20 
C 5.59375 20 4.09375 18.59375 4.09375 15.796875 
C 4.09375 7.09375 11 -2 21.59375 -2 
C 31.90625 -2 41.703125 6.890625 41.703125 19.796875 
C 41.703125 32.09375 33.90625 41.59375 24.203125 41.59375 
C 19.09375 41.59375 14.796875 39.6875 11.40625 36 
z
" id="CMR17-53"/>
       </defs>
       <use transform="scale(0.996264)" xlink:href="#CMR17-53"/>
      </g>
     </g>
    </g>
    <g id="text_7">
     <!-- $\sigma$ -->
     <g style="fill:#262626;" transform="translate(234.630136 200.715404)scale(0.12 -0.12)">
      <defs>
       <path d="M 50.796875 37.59375 
C 52.09375 37.59375 55.40625 37.59375 55.40625 40.796875 
C 55.40625 43 53.5 43 51.703125 43 
L 29.59375 43 
C 14.59375 43 3.796875 26.328125 3.796875 14.5625 
C 3.796875 6.078125 9.296875 -1 18.296875 -1 
C 30.09375 -1 43 11.65625 43 26.625 
C 43 30.515625 42.09375 34.296875 39.703125 37.59375 
z
M 18.40625 1 
C 13.296875 1 9.59375 4.875 9.59375 11.765625 
C 9.59375 17.75 13.203125 37.59375 27.90625 37.59375 
C 32.203125 37.59375 37 35.5 37 27.8125 
C 37 24.328125 35.40625 15.953125 31.90625 10.171875 
C 28.296875 4.28125 22.90625 1 18.40625 1 
z
" id="CMMI12-27"/>
      </defs>
      <use transform="scale(0.996264)" xlink:href="#CMMI12-27"/>
     </g>
    </g>
   </g>
   <g id="matplotlib.axis_2">
    <g id="ytick_1">
     <g id="line2d_7">
      <path clip-path="url(#pe73d4c8bd5)" d="M 59.613461 169.171983 
L 416.300266 169.171983 
" style="fill:none;stroke:#ffffff;stroke-linecap:round;"/>
     </g>
     <g id="text_8">
      <!-- $\mathdefault{−1.0}$ -->
      <g style="fill:#262626;" transform="translate(27.586776 172.977156)scale(0.11 -0.11)">
       <defs>
        <path d="M 65.90625 23 
C 67.59375 23 69.40625 23 69.40625 25 
C 69.40625 27 67.59375 27 65.90625 27 
L 11.796875 27 
C 10.09375 27 8.296875 27 8.296875 25 
C 8.296875 23 10.09375 23 11.796875 23 
z
" id="CMSY10-0"/>
        <path d="M 18.40625 4.796875 
C 18.40625 7.6875 16 9.6875 13.59375 9.6875 
C 10.703125 9.6875 8.703125 7.296875 8.703125 4.890625 
C 8.703125 2 11.09375 0 13.5 0 
C 16.40625 0 18.40625 2.390625 18.40625 4.796875 
z
" id="CMMI12-58"/>
       </defs>
       <use transform="scale(0.996264)" xlink:href="#CMSY10-0"/>
       <use transform="translate(77.487468 0)scale(0.996264)" xlink:href="#CMR17-49"/>
       <use transform="translate(123.177945 0)scale(0.996264)" xlink:href="#CMMI12-58"/>
       <use transform="translate(150.275122 0)scale(0.996264)" xlink:href="#CMR17-48"/>
      </g>
     </g>
    </g>
    <g id="ytick_2">
     <g id="line2d_8">
      <path clip-path="url(#pe73d4c8bd5)" d="M 59.613461 131.061865 
L 416.300266 131.061865 
" style="fill:none;stroke:#ffffff;stroke-linecap:round;"/>
     </g>
     <g id="text_9">
      <!-- $\mathdefault{−0.5}$ -->
      <g style="fill:#262626;" transform="translate(27.586776 134.867039)scale(0.11 -0.11)">
       <use transform="scale(0.996264)" xlink:href="#CMSY10-0"/>
       <use transform="translate(77.487468 0)scale(0.996264)" xlink:href="#CMR17-48"/>
       <use transform="translate(123.177945 0)scale(0.996264)" xlink:href="#CMMI12-58"/>
       <use transform="translate(150.275122 0)scale(0.996264)" xlink:href="#CMR17-53"/>
      </g>
     </g>
    </g>
    <g id="ytick_3">
     <g id="line2d_9">
      <path clip-path="url(#pe73d4c8bd5)" d="M 59.613461 92.951747 
L 416.300266 92.951747 
" style="fill:none;stroke:#ffffff;stroke-linecap:round;"/>
     </g>
     <g id="text_10">
      <!-- $\mathdefault{0.0}$ -->
      <g style="fill:#262626;" transform="translate(36.110385 96.756921)scale(0.11 -0.11)">
       <use transform="scale(0.996264)" xlink:href="#CMR17-48"/>
       <use transform="translate(45.690477 0)scale(0.996264)" xlink:href="#CMMI12-58"/>
       <use transform="translate(72.787654 0)scale(0.996264)" xlink:href="#CMR17-48"/>
      </g>
     </g>
    </g>
    <g id="ytick_4">
     <g id="line2d_10">
      <path clip-path="url(#pe73d4c8bd5)" d="M 59.613461 54.841629 
L 416.300266 54.841629 
" style="fill:none;stroke:#ffffff;stroke-linecap:round;"/>
     </g>
     <g id="text_11">
      <!-- $\mathdefault{0.5}$ -->
      <g style="fill:#262626;" transform="translate(36.110385 58.646803)scale(0.11 -0.11)">
       <use transform="scale(0.996264)" xlink:href="#CMR17-48"/>
       <use transform="translate(45.690477 0)scale(0.996264)" xlink:href="#CMMI12-58"/>
       <use transform="translate(72.787654 0)scale(0.996264)" xlink:href="#CMR17-53"/>
      </g>
     </g>
    </g>
    <g id="ytick_5">
     <g id="line2d_11">
      <path clip-path="url(#pe73d4c8bd5)" d="M 59.613461 16.731511 
L 416.300266 16.731511 
" style="fill:none;stroke:#ffffff;stroke-linecap:round;"/>
     </g>
     <g id="text_12">
      <!-- $\mathdefault{1.0}$ -->
      <g style="fill:#262626;" transform="translate(36.110385 20.536685)scale(0.11 -0.11)">
       <use transform="scale(0.996264)" xlink:href="#CMR17-49"/>
       <use transform="translate(45.690477 0)scale(0.996264)" xlink:href="#CMMI12-58"/>
       <use transform="translate(72.787654 0)scale(0.996264)" xlink:href="#CMR17-48"/>
      </g>
     </g>
    </g>
    <g id="text_13">
     <!-- $\rho$ -->
     <g style="fill:#262626;" transform="translate(21.26218 95.780058)rotate(-90)scale(0.12 -0.12)">
      <defs>
       <path d="M 3.09375 -16.953125 
C 3 -17.4375 2.796875 -18.03125 2.796875 -18.609375 
C 2.796875 -20.109375 4 -21.109375 5.5 -21.109375 
C 7 -21.109375 8.40625 -20.109375 9 -18.71875 
C 9.40625 -17.828125 12.203125 -6.09375 15.40625 6.078125 
C 17.40625 1.09375 21.09375 -1 25 -1 
C 36.296875 -1 49.09375 12.96875 49.09375 28.03125 
C 49.09375 38.703125 42.59375 44 35.703125 44 
C 26.90625 44 16.203125 34.90625 12.90625 21.640625 
z
M 24.90625 1 
C 18.09375 1 16.40625 8.875 16.40625 10.078125 
C 16.40625 10.671875 18.90625 20.140625 19.203125 21.640625 
C 24.296875 41.5 34.09375 41.984375 35.59375 41.984375 
C 40.09375 41.984375 42.59375 37.90625 42.59375 32.015625 
C 42.59375 26.9375 39.90625 17.046875 38.203125 12.859375 
C 35.203125 5.984375 30 1 24.90625 1 
z
" id="CMMI12-26"/>
      </defs>
      <use transform="scale(0.996264)" xlink:href="#CMMI12-26"/>
     </g>
    </g>
   </g>
   <g id="line2d_12">
    <path clip-path="url(#pe73d4c8bd5)" d="M 59.613468 151.12143 
L 63.216365 149.61809 
L 66.819262 148.116909 
L 70.422159 146.598079 
L 74.025056 145.06486 
L 77.627953 143.520333 
L 81.23085 141.967418 
L 84.833747 140.408887 
L 88.436644 138.847375 
L 92.03954 137.285393 
L 95.642437 135.72535 
L 99.245334 134.169555 
L 102.848231 132.620239 
L 106.451128 131.079564 
L 110.054025 129.549635 
L 113.656922 128.032511 
L 117.259819 126.530214 
L 120.862716 125.044737 
L 124.465613 123.578053 
L 128.06851 122.132114 
L 131.671407 120.708859 
L 135.274304 119.31021 
L 138.877201 117.938073 
L 142.480098 116.594332 
L 146.082995 115.280839 
L 149.685892 113.99941 
L 153.288789 112.751808 
L 156.891686 111.539731 
L 160.494583 110.364795 
L 164.09748 109.228516 
L 167.700377 108.132293 
L 171.303273 107.077389 
L 174.90617 106.064909 
L 178.509067 105.095787 
L 182.111964 104.170766 
L 185.714861 103.290388 
L 189.317758 102.454979 
L 192.920655 101.664643 
L 196.523552 100.91926 
L 200.126449 100.218484 
L 203.729346 99.561748 
L 207.332243 98.948272 
L 210.93514 98.377074 
L 214.538037 97.846986 
L 218.140934 97.356672 
L 221.743831 96.904649 
L 225.346728 96.489307 
L 228.949625 96.108932 
L 232.552522 95.761732 
L 236.155419 95.445859 
L 239.758316 95.159427 
L 243.361213 94.900542 
L 246.96411 94.667314 
L 250.567006 94.457877 
L 254.169903 94.270408 
L 257.7728 94.103136 
L 261.375697 93.954358 
L 264.978594 93.822442 
L 268.581491 93.705843 
L 272.184388 93.603101 
L 275.787285 93.512846 
L 279.390182 93.433802 
L 282.993079 93.364787 
L 286.595976 93.304709 
L 290.198873 93.252567 
L 293.80177 93.207447 
L 297.404667 93.168519 
L 301.007564 93.135032 
L 304.610461 93.106308 
L 308.213358 93.081743 
L 311.816255 93.060794 
L 315.419152 93.042981 
L 319.022049 93.027878 
L 322.624946 93.015108 
L 326.227843 93.004343 
L 329.830739 92.995293 
L 333.433636 92.987706 
L 337.036533 92.981363 
L 340.63943 92.976076 
L 344.242327 92.971681 
L 347.845224 92.968037 
L 351.448121 92.965025 
L 355.051018 92.962542 
L 358.653915 92.9605 
L 362.256812 92.958826 
L 365.859709 92.957458 
L 369.462606 92.956342 
L 373.065503 92.955435 
L 376.6684 92.954699 
L 380.271297 92.954104 
L 383.874194 92.953624 
L 387.477091 92.953238 
L 391.079988 92.952928 
L 394.682885 92.95268 
L 398.285782 92.952483 
L 401.888679 92.952325 
L 405.491576 92.952201 
L 409.094472 92.952102 
L 412.697369 92.952024 
L 416.300266 92.951962 
" style="fill:none;stroke:#1f77b4;stroke-linecap:round;stroke-width:1.5;"/>
   </g>
   <g id="line2d_13">
    <path clip-path="url(#pe73d4c8bd5)" d="M 59.613468 34.782058 
L 63.216365 33.349958 
L 66.819262 31.923195 
L 70.422159 30.529088 
L 74.025056 29.171924 
L 77.627953 27.856217 
L 81.23085 26.586704 
L 84.833747 25.368344 
L 88.436644 24.206312 
L 92.03954 23.105983 
L 95.642437 22.072921 
L 99.245334 21.112853 
L 102.848231 20.231641 
L 106.451128 19.435248 
L 110.054025 18.729694 
L 113.656922 18.121006 
L 117.259819 17.615162 
L 120.862716 17.218022 
L 124.465613 16.935257 
L 128.06851 16.772266 
L 131.671407 16.734089 
L 135.274304 16.825315 
L 138.877201 17.049984 
L 142.480098 17.411487 
L 146.082995 17.912469 
L 149.685892 18.554728 
L 153.288789 19.339132 
L 156.891686 20.26553 
L 160.494583 21.332685 
L 164.09748 22.538221 
L 167.700377 23.878581 
L 171.303273 25.34902 
L 174.90617 26.943604 
L 178.509067 28.655246 
L 182.111964 30.475761 
L 185.714861 32.395947 
L 189.317758 34.405689 
L 192.920655 36.49408 
L 196.523552 38.649569 
L 200.126449 40.860112 
L 203.729346 43.113341 
L 207.332243 45.396733 
L 210.93514 47.697783 
L 214.538037 50.00417 
L 218.140934 52.303915 
L 221.743831 54.585531 
L 225.346728 56.838151 
L 228.949625 59.051642 
L 232.552522 61.216701 
L 236.155419 63.324929 
L 239.758316 65.368882 
L 243.361213 67.342109 
L 246.96411 69.239161 
L 250.567006 71.055593 
L 254.169903 72.787938 
L 257.7728 74.43368 
L 261.375697 75.991203 
L 264.978594 77.459738 
L 268.581491 78.839299 
L 272.184388 80.130611 
L 275.787285 81.335041 
L 279.390182 82.45452 
L 282.993079 83.491467 
L 286.595976 84.448714 
L 290.198873 85.329434 
L 293.80177 86.137072 
L 297.404667 86.875278 
L 301.007564 87.547844 
L 304.610461 88.158652 
L 308.213358 88.711621 
L 311.816255 89.210662 
L 315.419152 89.659635 
L 319.022049 90.062322 
L 322.624946 90.422393 
L 326.227843 90.743382 
L 329.830739 91.02867 
L 333.433636 91.28147 
L 337.036533 91.504816 
L 340.63943 91.701559 
L 344.242327 91.874357 
L 347.845224 92.025682 
L 351.448121 92.157818 
L 355.051018 92.272863 
L 358.653915 92.372741 
L 362.256812 92.459203 
L 365.859709 92.533836 
L 369.462606 92.598077 
L 373.065503 92.653215 
L 376.6684 92.700407 
L 380.271297 92.740684 
L 383.874194 92.774964 
L 387.477091 92.804058 
L 391.079988 92.828681 
L 394.682885 92.849462 
L 398.285782 92.866953 
L 401.888679 92.881634 
L 405.491576 92.893922 
L 409.094472 92.904178 
L 412.697369 92.912716 
L 416.300266 92.919804 
" style="fill:none;stroke:#d62728;stroke-linecap:round;stroke-width:1.5;"/>
   </g>
   <g id="legend_1">
    <g id="patch_3">
     <path d="M 353.590398 56.214742 
L 408.600266 56.214742 
Q 410.800266 56.214742 410.800266 54.014742 
L 410.800266 24.05041 
Q 410.800266 21.85041 408.600266 21.85041 
L 353.590398 21.85041 
Q 351.390398 21.85041 351.390398 24.05041 
L 351.390398 54.014742 
Q 351.390398 56.214742 353.590398 56.214742 
z
" style="fill:#eaeaf2;opacity:0.8;stroke:#cccccc;stroke-linejoin:miter;"/>
    </g>
    <g id="line2d_14">
     <path d="M 355.790398 30.274004 
L 377.790398 30.274004 
" style="fill:none;stroke:#1f77b4;stroke-linecap:round;stroke-width:1.5;"/>
    </g>
    <g id="line2d_15"/>
    <g id="text_14">
     <!-- $\rho_{\text{min}}$ -->
     <g style="fill:#262626;" transform="translate(386.590398 34.124004)scale(0.11 -0.11)">
      <defs>
       <path d="M 67 29.34375 
C 67 36.078125 65.296875 44 54.09375 44 
C 46.59375 44 42.09375 39.296875 40.09375 36.375 
C 38.296875 41.6875 34.09375 44 28.09375 44 
C 21.296875 44 17 40.09375 14.703125 37.28125 
L 14.703125 43.484375 
L 7.40625 43.484375 
L 7.40625 0 
L 15 0 
L 15 24.3125 
C 15 30.25 17.203125 37.890625 24.296875 37.890625 
C 33.40625 37.890625 33.40625 31.453125 33.40625 28.53125 
L 33.40625 0 
L 41 0 
L 41 24.3125 
C 41 30.25 43.203125 37.890625 50.296875 37.890625 
C 59.40625 37.890625 59.40625 31.453125 59.40625 28.53125 
L 59.40625 0 
L 67 0 
z
" id="CMSS17-109"/>
       <path d="M 15.296875 66 
L 6.90625 66 
L 6.90625 57.59375 
L 15.296875 57.59375 
z
M 14.796875 43 
L 7.40625 43 
L 7.40625 0 
L 14.796875 0 
z
" id="CMSS17-105"/>
       <path d="M 40.90625 29.34375 
C 40.90625 35.671875 39.40625 44 28.09375 44 
C 21.703125 44 17.5 40.6875 14.703125 37.28125 
L 14.703125 43.484375 
L 7.40625 43.484375 
L 7.40625 0 
L 15 0 
L 15 24.3125 
C 15 30.65625 17.40625 37.890625 24.203125 37.890625 
C 33 37.890625 33.296875 31.953125 33.296875 28.53125 
L 33.296875 0 
L 40.90625 0 
z
" id="CMSS17-110"/>
      </defs>
      <use transform="scale(0.996264)" xlink:href="#CMMI12-26"/>
      <use transform="translate(50.314373 -14.943915)scale(0.697382)" xlink:href="#CMSS17-109"/>
      <use transform="translate(102.274612 -14.943915)scale(0.697382)" xlink:href="#CMSS17-105"/>
      <use transform="translate(117.801044 -14.943915)scale(0.697382)" xlink:href="#CMSS17-110"/>
     </g>
    </g>
    <g id="line2d_16">
     <path d="M 355.790398 45.833848 
L 377.790398 45.833848 
" style="fill:none;stroke:#d62728;stroke-linecap:round;stroke-width:1.5;"/>
    </g>
    <g id="line2d_17"/>
    <g id="text_15">
     <!-- $\rho_{\text{max}}$ -->
     <g style="fill:#262626;" transform="translate(386.590398 49.683848)scale(0.11 -0.11)">
      <defs>
       <path d="M 37.59375 27.953125 
C 37.59375 37.484375 30.90625 44 21.90625 44 
C 17.5 44 12.703125 43.1875 7.203125 39.984375 
L 7.796875 33.328125 
C 10.296875 35.15625 14.59375 38.09375 21.796875 38.09375 
C 26.90625 38.09375 30 34.140625 30 27.84375 
L 30 24 
C 14 23.5 4 18.890625 4 11.109375 
C 4 7.0625 6.5 -1 14.796875 -1 
C 16.296875 -1 24.40625 -0.8125 30.203125 3.5 
L 30.203125 -0.203125 
L 37.59375 -0.203125 
z
M 30 12.875 
C 30 11.109375 30 8.734375 27 6.96875 
C 24.40625 5.296875 21.09375 5.09375 19.703125 5.09375 
C 14.703125 5.09375 11.296875 7.859375 11.296875 11.296875 
C 11.296875 18.203125 26.90625 18.890625 30 19 
z
" id="CMSS17-97"/>
       <path d="M 24.796875 22.1875 
L 41.5 43 
L 32.796875 43 
L 21.296875 27.890625 
L 9.40625 43 
L 0.5 43 
L 17.796875 22.1875 
L 0 0 
L 8.796875 0 
L 21.296875 17.59375 
L 34.296875 0 
L 43.09375 0 
z
" id="CMSS17-120"/>
      </defs>
      <use transform="scale(0.996264)" xlink:href="#CMMI12-26"/>
      <use transform="translate(50.314373 -14.943915)scale(0.697382)" xlink:href="#CMSS17-109"/>
      <use transform="translate(102.274612 -14.943915)scale(0.697382)" xlink:href="#CMSS17-97"/>
      <use transform="translate(133.719818 -14.943915)scale(0.697382)" xlink:href="#CMSS17-120"/>
     </g>
    </g>
   </g>
  </g>
 </g>
 <defs>
  <clipPath id="pe73d4c8bd5">
   <rect height="152.821573" width="356.686806" x="59.613461" y="16.35041"/>
  </clipPath>
 </defs>
</svg>
